<svg id="f5761705-4ac3-4a43-a51e-272b2b730ee2" data-name="Layer 1" xmlns="http://www.w3.org/2000/svg" viewBox="0 0 1200 600"><defs><style>.b031d84a-9b73-4d3c-a684-2e95417ab166{fill:#83807a;}.bf013150-37f5-4c63-afc9-3cec5113f054{fill:#ffd598;}.f97fb43d-0f7d-41d3-bf79-0b88bf158681{fill:#ffdda8;}.f4c7d1e4-7216-44a8-ae9b-40d40f53cbd2{fill:#cba680;}.f419513a-8bc7-4bb7-beeb-6a211ad699fe{fill:#f8b79d;}.f878980f-d356-49f6-8582-c5fa74f3b6e7{fill:#a7d388;}.a3ebc8fe-501f-4ca2-ba0c-71422307b963{fill:#f7941d;}.a25acc07-c701-44bf-8b84-a0a0a00ee1d9{fill:#faab18;}.ef2ae5aa-8e99-4f0d-afc9-f072228de7f6{fill:#6d4139;}.a5d02cf5-6865-44a0-af4a-7a22372b7e46{fill:#f40010;}.b9fae9a4-f728-4f20-8584-2d4ac3a57d2e{fill:#40bd0f;}.ac38155e-30db-421e-9606-cb49b13e264a{fill:#b17549;}.ac1fb938-d81c-4b08-b913-0f3fa1cc5900{fill:#00b063;}.ff4784c7-c788-4323-867a-720ef8805357{fill:#fff;}.a571f4c2-c5fc-45df-993c-73364aa8c04e{fill:#ee646b;}.bef4a47d-bb89-4050-a01b-e6788749d85e{fill:#524538;}.b9d75f46-1cc2-4f20-a607-b77639033294{fill:#d6c3b0;}</style></defs><title>hot_chocolate_banner</title><path class="b031d84a-9b73-4d3c-a684-2e95417ab166" d="M718.23,509.56c-6-4.79-15.68-8-22.52-10-26.28-7.47-53.7-6.11-80.85-7-35.76-1.15-70.31-.59-105.69,6.18-9.7,1.86-19.54,4.56-27.41,10.62-3.73,2.87-7,6.62-8.24,11.22-5.79,22.08,47.68,27.66,61.05,29.38,26.23,3.36,52.76,2.67,79.13,1.88,23.87-.71,47.29-3,70.68-8.49,10.88-2.54,24.06-5.65,32.73-13.57C726.54,521.2,724.42,514.55,718.23,509.56Z"/><path class="bf013150-37f5-4c63-afc9-3cec5113f054" d="M677.55,236.36c.93-4.24.54-8.77,2.53-12.92A91.34,91.34,0,0,1,700.77,226a5.34,5.34,0,0,1,2.73,1.87,39.83,39.83,0,0,1,3.12,4.83c1.35,2.31,2.5,4.77,4,7,6.1,9.29,14.3,15.45,25.68,16.49a73.9,73.9,0,0,0,9.76.16c5.48-.23,10.29,1,13.74,5.63a9.36,9.36,0,0,0,1.1,1.33,4,4,0,0,0,4.23,1c2.7-.84,4.23-2.5,4.35-5.38a24.85,24.85,0,0,1,.2-2.87c.18-1-.39-2.33.9-3,.38.09.83.06,1.09.26a88.27,88.27,0,0,1,12.76,12.44c4.53,5.3,3,12-.79,16.31-1.62,1.86-6.26,7.19-8.83,7.2-2.31,0-7.25-4.57-9.07-6a75.21,75.21,0,0,0-9.94-6.32c-7.26-3.9-14.63-7.64-22.16-11-14.77-6.52-29.93-11.89-46.06-14-3-.39-6.11-.65-9.15-1.1a15.55,15.55,0,0,1-3-1.11C676.13,245.07,676.61,240.67,677.55,236.36Z"/><path class="bf013150-37f5-4c63-afc9-3cec5113f054" d="M414.31,265.71a88.27,88.27,0,0,1,12.76-12.44c.26-.2.7-.17,1.09-.26,1.29.69.72,2,.9,3a24.85,24.85,0,0,1,.19,2.87c.13,2.88,1.66,4.54,4.36,5.38a4,4,0,0,0,4.22-1,9.43,9.43,0,0,0,1.11-1.33c3.45-4.64,8.25-5.86,13.74-5.63a73.9,73.9,0,0,0,9.76-.16c11.38-1,19.58-7.2,25.68-16.49,1.47-2.24,2.61-4.7,4-7a39.83,39.83,0,0,1,3.12-4.83,5.3,5.3,0,0,1,2.73-1.87,91.34,91.34,0,0,1,20.69-2.55c2,4.15,1.6,8.68,2.53,12.92s1.42,8.71,2.16,13.41a15.79,15.79,0,0,1-3,1.11c-3,.45-6.1.71-9.15,1.1-16.13,2.1-31.29,7.47-46.06,14-7.54,3.33-14.91,7.07-22.16,11a71.65,71.65,0,0,0-12,8c-3.13,2.59-6.2,4.19-10.22,2.12-2.08-1.07-4.08-3.3-5.59-5C411.36,277.73,409.78,271,414.31,265.71Z"/><path class="f97fb43d-0f7d-41d3-bf79-0b88bf158681" d="M749,440.46c-10.35,15.31-20.06,30.81-32.36,44.75a132.32,132.32,0,0,1-27.25,22.94,89.67,89.67,0,0,1-23.89,10.93c-8.06,2.41-15.51,6.53-23.71,8.47-9.76,2.31-19.81,2.59-29.84,3.06a273,273,0,0,1-49.24-2.19c-9.76-1.32-17.94-5.22-27.09-8.48s-18.24-6.47-26.38-11.79A132.32,132.32,0,0,1,482,485.21c-11.23-12.72-20.8-26.63-30.41-40.56a196,196,0,0,1-25.37-51.49c-4.73-14.63-9-29.36-11.34-44.6-2.11-13.88-3.31-27.85-4.16-41.85-.3-5-.47-10-.64-15,0-.89-.29-2,1.13-2.69,1.16,1.06,2.41,2.17,3.63,3.32A141.77,141.77,0,0,0,459.82,321a255.75,255.75,0,0,0,42.83,13.27c12.19,2.59,24.49,4.72,36.79,6.74,7.19,1.17,14.48,1.8,21.73,2.54,7.46.75,14.92,1.38,22.39,2a194.85,194.85,0,0,0,31.59,0c7.47-.6,14.93-1.23,22.38-2,7.26-.74,14.55-1.37,21.74-2.54,12.3-2,24.6-4.15,36.79-6.74A255.75,255.75,0,0,0,738.89,321a141.77,141.77,0,0,0,45-28.6c1.21-1.15,2.47-2.26,3.62-3.32,1.42.73,1.17,1.8,1.14,2.69-.17,5-.34,10-.65,15-.87,14.43-2.22,28.22-4.45,42.45-2.36,15-6.36,29.53-11,44A189.31,189.31,0,0,1,749,440.46Z"/><path class="f97fb43d-0f7d-41d3-bf79-0b88bf158681" d="M902.77,345.14a58.91,58.91,0,0,1-4.2,16.11,113.79,113.79,0,0,1-15.82,26.69,167.68,167.68,0,0,1-33.23,30.95A95.68,95.68,0,0,1,823,432.55q-7.12,2.29-14.27,4.48a165.34,165.34,0,0,1-28.6,6.12c-3.28.4-7.95,1.77-10.88-.25-3.17-2.19-4.29-7.58-3.59-11.2,2.35-12.23,16-16.43,26.18-19.44,16.13-4.78,31.27-11.69,44.91-21.62a73,73,0,0,0,18.74-19.36c4.77-7.39,8-15.32,7.63-24.36-.11-2.11-.11-4.23-.35-6.33-.92-7.93-4-14.64-10.38-19.85a26.84,26.84,0,0,0-19.29-6A63.22,63.22,0,0,0,813.64,319c-3.65,1.43-11.69,8-15.46,6.19-7.7-3.66-2.2-23.83,3.12-27.75,4.14-3,10.54-5.34,15.27-7.52a77.92,77.92,0,0,1,18.27-6c14.08-2.61,27.84-2.75,41.25,3.08,9.89,4.29,17.58,10.78,22,20.86C903.31,319.85,904.35,332.33,902.77,345.14Z"/><path class="f4c7d1e4-7216-44a8-ae9b-40d40f53cbd2" d="M683.66,259.69c24,3.72,46.21,12.54,67.32,24.27,3.85,2.14,8.89,4,11,8.18,2.76,5.42-1.62,8.06-5.8,10.6a160.39,160.39,0,0,1-34,15.37,310.8,310.8,0,0,1-48,11.79c-9.48,1.48-18.94,3.13-28.46,4.26-9.72,1.15-19.5,1.82-29.27,2.59a215.8,215.8,0,0,1-34.11,0c-9.77-.77-19.55-1.44-29.27-2.59-9.53-1.13-19-2.78-28.47-4.26a311,311,0,0,1-48-11.79,169.07,169.07,0,0,1-23.45-9.52q-5.75-2.86-11.21-6.23c-3-1.86-6.45-3.59-5.47-7.82,1.21-5.25,7-8.19,11.28-10.58,21.12-11.73,43.33-20.55,67.33-24.27,3.14-.49,6.31-1.59,9.85-.75.83,4,1.8,7.93,2.41,11.89.66,4.28,2.45,7.59,6.49,9.49,1.55.74,3,1.83,4.57,2.41,5.21,1.91,10.41,3.95,15.76,5.4,10,2.73,20.38,3.77,30.72,4.48a219.25,219.25,0,0,0,29,0c10.35-.71,20.69-1.75,30.73-4.48,5.35-1.45,10.54-3.49,15.76-5.4,1.6-.58,3-1.67,4.57-2.41,4-1.9,5.83-5.21,6.49-9.49.61-4,1.58-7.87,2.41-11.89C677.34,258.1,680.52,259.2,683.66,259.69Z"/><path class="f419513a-8bc7-4bb7-beeb-6a211ad699fe" d="M532.07,188c1.71,4.28,3.33,8.59,5.17,12.81,2.39,5.45,7,8.26,12.61,8.83a84.53,84.53,0,0,0,25.23-1.31,8.71,8.71,0,0,0,5.38-3.13,65.73,65.73,0,0,0,4.54-6.62,58.06,58.06,0,0,0,3.15-6.79,10.35,10.35,0,0,1,7.05-6.27c1.37-.4,2.77-.72,4.15-1.1,1.39.38,2.78.7,4.16,1.1a10.35,10.35,0,0,1,7,6.27,58.06,58.06,0,0,0,3.15,6.79,65.73,65.73,0,0,0,4.54,6.62,8.71,8.71,0,0,0,5.38,3.13,84.53,84.53,0,0,0,25.23,1.31c5.62-.57,10.22-3.38,12.61-8.83,1.84-4.22,3.46-8.53,5.17-12.81.85-2.14,1.64-4.3,2.55-6.42a12.62,12.62,0,0,1,1.78-2.12,30.82,30.82,0,0,1,1.51,8.33,147.42,147.42,0,0,1-1.67,35.6c-2.2,12.48-4.1,25-6.21,37.51-.67,4-1.62,7.88-2.38,11.52-2.22,2.27-4.81,3.13-7.33,4a147.51,147.51,0,0,1-27.43,6.31,214.2,214.2,0,0,1-56.22,0,147.59,147.59,0,0,1-27.42-6.31c-2.52-.84-5.11-1.7-7.33-4-.76-3.64-1.71-7.56-2.38-11.52-2.12-12.5-4-25-6.21-37.51a146.92,146.92,0,0,1-1.67-35.6,30.82,30.82,0,0,1,1.51-8.33,12.42,12.42,0,0,1,1.77,2.12C530.43,183.7,531.22,185.86,532.07,188Z"/><path class="f419513a-8bc7-4bb7-beeb-6a211ad699fe" d="M621.68,146a10.49,10.49,0,0,1,4.21-7.92,24.71,24.71,0,0,1,2.43,1.84c7.53,7.33,16.72,10.44,27,11.21,3.21.24,6.44.45,9.64.84a9.9,9.9,0,0,0,.17,1.63A60.21,60.21,0,0,0,667.93,164c-6.77.07-13.07-.31-19.36-.7-4.41-.27-8.83-.46-13.24-.71s-8.81-.61-13.23-.74c-15.23-.47-30.25-.47-45.5,0-4.41.13-8.82.5-13.22.74s-8.83.44-13.24.71c-6.3.39-12.59.77-19.37.7l1.23-3.46c3.69-.73,7.28-1.32,10.81-2.15,11.13-2.62,20.52-8.42,29-16,1.23-1.1,2.12-2.74,4.25-3,6.06,8.27,14.65,12.72,24.21,15.56,4.43,1.31,9,2.22,13.64,1.39,6.07-1.08,7.64-3,7.81-9.23C621.68,146.76,621.66,146.37,621.68,146Z"/><path class="f878980f-d356-49f6-8582-c5fa74f3b6e7" d="M521.55,151.4a12.62,12.62,0,0,1,.49-2.69c3.35-7.69,8.57-14.09,14.27-20.11,2.21-2.33,4.25-5,7-6.77,3.46-2.27,6.47-1.55,10.3-.84a13.78,13.78,0,0,0,2.87.22c.92,0,4.07-.53,3.17-2.14a3.28,3.28,0,0,0-1.93-1.2,15.53,15.53,0,0,1-9.78-10.49c-1.53-5.67-.15-10.62,3.73-14.95,4.26-4.76,9.77-7.44,15.75-9.1,6.26-1.74,12.63-3,19.28-4.63.48,1.15,1,2.34,1.64,3.86-1,.6-1.89,1.16-2.79,1.74a3.59,3.59,0,0,0-1.7,4A3.4,3.4,0,0,0,587.11,91a29.76,29.76,0,0,0,19.38-6.09c1.86-1.42,2.25-4.39.47-5.54-3.3-2.12-3.49-5.22-3.69-8.48,0-.76,0-1.53,0-2.6,4.48-4.4,10.71-7.07,14.36-12.62,4.45,2.11,5.89,5.79,6.4,9.94a30.44,30.44,0,0,1-8.77,24.94,2.78,2.78,0,0,0-1,1.92,2,2,0,0,0,2,1.71,5.87,5.87,0,0,0,2.74-.75c2.6-1.18,5.33-2.49,6.85-4.91a15.35,15.35,0,0,1,6.55-5.68c5.24-2.49,11.08,1.17,14,5.56,2.58,3.83.84,8.88-2.2,11.94a34.9,34.9,0,0,1-7.11,6,29.35,29.35,0,0,0-3.22,1.87,3.43,3.43,0,0,0-1.22,1.45,1.68,1.68,0,0,0,.29,1.8,2.59,2.59,0,0,0,2.3.29c5.8-1.2,12-5,17.74-1.5a27.25,27.25,0,0,1,6.33,5.3c6.13,6.94,11.4,14.48,14.65,23.27a23.13,23.13,0,0,1,1.58,6.08,11.25,11.25,0,0,1-2,.14c-4.75-.65-9.48-1.36-14.23-2-3.61-.49-7.31-.59-10.84-1.39a30,30,0,0,1-12.93-6c-2.36-2-4.7-4-7.12-5.87-3.08-2.4-4.64-2.29-7.49.54-4,4-7.08,8.59-7.9,14.39a21.79,21.79,0,0,1-.48,2.24c0,.17-.2.3-.43.63-2.51.88-5.23.45-7.78-.18A41.59,41.59,0,0,1,588.28,140a41.15,41.15,0,0,1-6-6.15,8.78,8.78,0,0,1-2.28-6.87,3.81,3.81,0,0,0-3.52-4.39,4.65,4.65,0,0,0-4.39,3.08,6.83,6.83,0,0,0-.43,2.81,3.78,3.78,0,0,1-1.17,3.09c-9.11,10.19-20.08,17.14-33.72,19.54A41.19,41.19,0,0,1,521.55,151.4Z"/><path class="a3ebc8fe-501f-4ca2-ba0c-71422307b963" d="M674,241.17c.92-4.24.53-8.78,2.52-12.92,18.93-.09,37.23,8,54.68,14.56,9.21,3.46,18.43,6.92,27.44,10.88,9.27,4.06,15.6,9.11,22.2,16.83,4.53,5.3,3,12-.78,16.31-1.62,1.86-6.27,7.19-8.83,7.2-2.31,0-7.26-4.57-9.08-6a73.53,73.53,0,0,0-9.93-6.33c-7.26-3.9-14.63-7.64-22.17-11-14.76-6.53-29.93-11.9-46.06-14-3-.39-6.11-.65-9.14-1.11a15.85,15.85,0,0,1-3-1.1C672.52,249.88,673,245.47,674,241.17Z"/><path class="a3ebc8fe-501f-4ca2-ba0c-71422307b963" d="M410.71,270.52c5.62-6.58,12.36-11.63,19.38-16.65,4.34-3.1,9.3-5.18,14.21-7.24,22.49-9.39,46-18.5,70.73-18.38,2,4.14,1.59,8.68,2.52,12.92s1.43,8.71,2.17,13.41a15.85,15.85,0,0,1-3,1.1c-3,.46-6.1.72-9.14,1.11-16.13,2.09-31.3,7.46-46.06,14-7.54,3.32-14.91,7.06-22.17,11a72.27,72.27,0,0,0-12,8c-3.12,2.6-6.2,4.2-10.21,2.13-2.09-1.08-4.09-3.31-5.6-5C407.75,282.53,406.18,275.82,410.71,270.52Z"/><path class="a25acc07-c701-44bf-8b84-a0a0a00ee1d9" d="M745.43,445.26c-10.34,15.32-20,30.82-32.36,44.76A132.1,132.1,0,0,1,685.82,513a89.53,89.53,0,0,1-23.89,10.93c-8,2.41-15.5,6.52-23.71,8.46-9.75,2.31-19.81,2.59-29.84,3.06a272.84,272.84,0,0,1-49.23-2.18c-9.77-1.32-17.95-5.23-27.09-8.48s-18.25-6.47-26.38-11.79A132.1,132.1,0,0,1,478.43,490c-11.23-12.72-20.8-26.64-30.42-40.56A196.88,196.88,0,0,1,422.64,398c-4.73-14.63-9-29.37-11.33-44.61-2.12-13.88-3.31-27.85-4.16-41.85-.3-5-.47-10-.65-15,0-.9-.28-2,1.14-2.7,1.16,1.06,2.41,2.17,3.63,3.33a141.9,141.9,0,0,0,44.94,28.6A255.54,255.54,0,0,0,499.05,339c12.19,2.6,24.48,4.73,36.79,6.74,7.19,1.18,14.47,1.81,21.73,2.54,7.45.76,14.92,1.39,22.38,2a197.27,197.27,0,0,0,31.6,0c7.46-.6,14.93-1.23,22.38-2,7.26-.73,14.54-1.36,21.73-2.54,12.31-2,24.6-4.14,36.79-6.74a255.54,255.54,0,0,0,42.84-13.26,141.9,141.9,0,0,0,44.94-28.6c1.22-1.16,2.47-2.27,3.63-3.33,1.42.73,1.17,1.8,1.14,2.7-.18,5-.35,10-.65,15-.87,14.43-2.22,28.23-4.46,42.46-2.35,15-6.36,29.53-11,44A189.42,189.42,0,0,1,745.43,445.26Z"/><path class="ef2ae5aa-8e99-4f0d-afc9-f072228de7f6" d="M762,295.75c-2.11-4.16-7.15-6.05-11-8.18a230.23,230.23,0,0,0-36.33-16.49,184.1,184.1,0,0,0-19.52-5.6c-2.74-.62-7.48-2.2-11.47-2.17a7.29,7.29,0,0,0-5.29,1.79c-2,2.07-1.71,5.39-2.35,8.22a14.71,14.71,0,0,1-5.4,8.05c-6.81,5.42-17.75,8.12-26,10.37-10,2.72-20.38,3.77-30.73,4.47a217.55,217.55,0,0,1-29,0c-10.34-.7-20.68-1.75-30.72-4.47-5.35-1.45-10.55-3.5-15.76-5.4-5.72-2.09-11.76-5.63-13.71-11.64-1.73-5.34-2.95-11.38-9.68-11.34-7.27,0-15.45,2.94-22.36,5a222,222,0,0,0-44.9,19.23c-4.3,2.39-10.07,5.33-11.28,10.58-1,4.23,2.44,6,5.47,7.82q5.46,3.36,11.21,6.22a169.12,169.12,0,0,0,23.45,9.53,310.93,310.93,0,0,0,48,11.78C534,335,543.5,336.63,553,337.76c9.72,1.16,19.5,1.83,29.27,2.6a217,217,0,0,0,34.11,0c9.77-.77,19.55-1.44,29.27-2.6,9.52-1.13,19-2.77,28.46-4.26a310.77,310.77,0,0,0,48-11.78,160.39,160.39,0,0,0,34-15.37C760.36,303.8,764.74,301.16,762,295.75Zm-306.56,2A3.81,3.81,0,0,1,452,298c1.18-6.12,6.58-10.22,11.8-12.94a59.91,59.91,0,0,1,8.69-3.62c3.41-1.15,6.88-2.73,10.47-3.07.77,1.08-.65,2.38-2.72,3.6-3,1.8-7.5,3.42-8.41,3.92a60.48,60.48,0,0,0-13.62,9.57A13.72,13.72,0,0,1,455.42,297.77Zm31-6.2a1.76,1.76,0,0,1-.55.92,20.87,20.87,0,0,1-1.52,1.46c-3.95,3.46-8.83,5.5-12.61,9.1a4.5,4.5,0,0,1-1.28,1,1.3,1.3,0,0,1-1.48-.24c-1.65-2,3.17-5.71,4.16-6.93a21.51,21.51,0,0,1,2.32-2.54c2.27-2,5.27-3,8.2-3.8a3.55,3.55,0,0,1,1.73-.18A1.23,1.23,0,0,1,486.45,291.57Zm53.48,9a34.16,34.16,0,0,1-12.61-4c-6.53-3.92-12.1-9.51-15.1-16.58-1.54-3.65.27-4.21,2.79-2.58s4.24,4.4,6.37,6.28a53.68,53.68,0,0,0,16,9.9c2.31.89,4.77,1.41,7.13,2.18,3.56,1.17,3.74,2.38,2.51,3.3C545.56,300.12,542.05,300.81,539.93,300.54ZM590,319.72c-7.26,1.17-14.9,2.46-22.37,1.6a48.31,48.31,0,0,1-25.87-10.69c-.54-.45-1.08-1.28-.56-1.75a1.17,1.17,0,0,1,.58-.22,11.22,11.22,0,0,1,5,.65c12.24,3.54,24.05,7.1,36.9,7.44.93,0,1.85,0,2.76,0a11.75,11.75,0,0,1,4.58.57,1.41,1.41,0,0,1,.81.68C592.19,318.93,591,319.57,590,319.72Zm-15-14.31c-1-.3-2.18-1.08-1.79-2,.26-.62,1-.77,1.71-.83,8.34-.74,16.44.25,24.75.07,4.52-.09,9-.1,13.53-.52s8.67-1.45,13-2.06l4.68-.66a2.3,2.3,0,0,1,2,.36c.77.81-.06,2.19-1.09,2.63l-1.71.72a91.4,91.4,0,0,1-9.71,3.53C606,310.75,589.29,309.83,575,305.41Zm92,3.94a101.61,101.61,0,0,1-21.68,10.17,94.11,94.11,0,0,1-11.79,3.07c-3.53.67-7.22.41-10.85.93-1.87.27-3.95.49-5.49-.61a1.17,1.17,0,0,1-.61-1.15c.24-.9,2.74-1.41,3.56-1.72,1.3-.5,2.64-.9,4-1.28l1.44-.41c4.19-1.19,8.33-2.53,12.46-3.91,3.7-1.23,7.41-1.74,11.08-3.12,7.82-2.94,15-7.28,22.8-10.31.78-.31,1.75-.57,2.38,0C677,303.35,668.35,308.5,667,309.35Zm20.59-30.6a12.31,12.31,0,0,1-3.65,6.33,30.51,30.51,0,0,1-13.46,7.73,32.69,32.69,0,0,1-6.22,1.1,3.55,3.55,0,0,1-1.49-.1,1.33,1.33,0,0,1-.94-1.08c-.06-.85.9-1.36,1.7-1.67a38.15,38.15,0,0,0,15.31-10.26,10.14,10.14,0,0,0,2.72-6.6c0-2.46-1.33-5.14,2.48-3.57C687.63,272.12,688.26,275,687.57,278.75Zm52.86,21.93c-1.28.32-2.28-1-3-2.14-2.71-4.14-6.84-7.15-11.21-9.48a87.27,87.27,0,0,0-17.51-6.65c-2-.55-3.93-1.08-5.9-1.61a3.34,3.34,0,0,1-1.47-.66,1.12,1.12,0,0,1-.2-1.46,1.58,1.58,0,0,1,1.26-.39c2.68,0,5.57-.41,8.22-.17a53.77,53.77,0,0,1,5.9,1.11,78,78,0,0,1,9.48,2.66c6.78,2.32,11.11,6.41,14,13C740.81,296.75,741.46,299,740.43,300.68Z"/><path class="a25acc07-c701-44bf-8b84-a0a0a00ee1d9" d="M899.16,349.94A59.22,59.22,0,0,1,895,366.06a113.76,113.76,0,0,1-15.83,26.68,167.63,167.63,0,0,1-33.22,30.95,95.74,95.74,0,0,1-26.52,13.66q-7.11,2.29-14.26,4.49a165.34,165.34,0,0,1-28.6,6.12c-3.29.4-7.95,1.77-10.88-.25-3.18-2.2-4.29-7.59-3.6-11.2,2.35-12.24,16-16.44,26.19-19.44,16.12-4.79,31.26-11.69,44.91-21.62a73,73,0,0,0,18.73-19.37c4.78-7.39,8-15.32,7.64-24.36-.11-2.11-.11-4.23-.36-6.32-.92-7.93-4-14.65-10.37-19.85a26.77,26.77,0,0,0-19.3-6A63.14,63.14,0,0,0,810,323.8c-3.65,1.43-11.69,8-15.46,6.2-7.7-3.67-2.21-23.84,3.11-27.75,4.14-3.05,10.55-5.35,15.27-7.52a78.17,78.17,0,0,1,18.28-6c14.08-2.6,27.83-2.74,41.24,3.08,9.89,4.3,17.59,10.79,22,20.86C899.71,324.65,900.75,337.13,899.16,349.94Z"/><path class="a5d02cf5-6865-44a0-af4a-7a22372b7e46" d="M531,191.21c.28-4.11.7-10.06,4.22-12.81a11.78,11.78,0,0,1,5.34-1.86c8.91-1.57,17.86-3.14,26.9-3.37,5.53-.14,11,.23,16.57.59l55.47,3.66c7.68.51,15.45,1,23-.3,3.34-.57,6.82-1.49,10-.47a6.64,6.64,0,0,1,4.54,5.41c.14,1.26-.67,2.26-.68,3.48,0,1.86.67,4,.8,5.86a147.47,147.47,0,0,1-1.67,35.6c-2.21,12.48-4.1,25-6.22,37.5-.67,4-1.62,7.88-2.37,11.52-2.23,2.28-4.81,3.13-7.33,4a147.9,147.9,0,0,1-27.43,6.32,215.06,215.06,0,0,1-56.22,0A147.9,147.9,0,0,1,548.62,280c-2.52-.84-5.1-1.69-7.33-4-.76-3.64-1.7-7.55-2.37-11.52-2.12-12.49-4-25-6.22-37.5A147.47,147.47,0,0,1,531,191.4Z"/><path class="a5d02cf5-6865-44a0-af4a-7a22372b7e46" d="M626.49,149.59a10.47,10.47,0,0,1,4.21-7.91,25.75,25.75,0,0,1,2.42,1.83c7.54,7.34,16.73,10.44,27.06,11.21,3.21.25,6.44.45,9.64.84a11.25,11.25,0,0,0,.16,1.64,61.29,61.29,0,0,0,2.76,10.42c-6.78.07-13.07-.31-19.37-.7-4.41-.27-8.82-.46-13.23-.7s-8.82-.61-13.23-.75c-15.23-.46-30.26-.46-45.5,0-4.41.14-8.82.5-13.23.75s-8.82.43-13.23.7c-6.3.39-12.59.77-19.37.7.5-1.4.85-2.41,1.22-3.45,3.7-.73,7.29-1.32,10.82-2.16,11.12-2.62,20.52-8.41,29-15.95,1.23-1.11,2.12-2.74,4.24-3,6.07,8.27,14.66,12.73,24.22,15.56,4.43,1.31,9,2.23,13.64,1.39,6.07-1.08,7.64-3,7.81-9.23C626.49,150.36,626.46,150,626.49,149.59Z"/><path class="b9fae9a4-f728-4f20-8584-2d4ac3a57d2e" d="M589.65,55c4.12,4.57,6.86,13.78,7.23,24.28,0,.77-.56,1.56-1.15,3.1-2.26-5-3.6-9-5.79-12.49-2.1-3.31-5.09-6.05-7.79-9.15A13.5,13.5,0,0,1,589.65,55Z"/><path class="b9fae9a4-f728-4f20-8584-2d4ac3a57d2e" d="M525.16,151.4a12,12,0,0,1,.48-2.69c3.35-7.69,8.57-14.09,14.27-20.11,2.21-2.33,4.25-5,7-6.77,3.46-2.27,6.47-1.55,10.3-.84a13.83,13.83,0,0,0,2.87.22c.92,0,4.08-.53,3.17-2.14a3.28,3.28,0,0,0-1.93-1.2,15.53,15.53,0,0,1-9.78-10.49c-1.53-5.67-.15-10.62,3.73-14.95C559.5,87.67,565,85,571,83.33c6.25-1.74,12.62-3,19.27-4.63l1.65,3.86c-1,.6-1.89,1.16-2.8,1.74a3.58,3.58,0,0,0-1.69,4A3.38,3.38,0,0,0,590.72,91a29.79,29.79,0,0,0,19.38-6.09c1.86-1.42,2.25-4.39.47-5.54-3.31-2.12-3.49-5.22-3.69-8.48,0-.76,0-1.53,0-2.6,4.48-4.4,10.72-7.07,14.37-12.62,4.45,2.11,5.88,5.79,6.39,9.94a30.47,30.47,0,0,1-8.76,24.94,2.71,2.71,0,0,0-1,1.92,2,2,0,0,0,2,1.71,5.88,5.88,0,0,0,2.75-.75c2.59-1.18,5.33-2.49,6.84-4.91A15.35,15.35,0,0,1,636,82.82c5.24-2.49,11.08,1.17,14,5.56,2.59,3.83.84,8.88-2.2,11.94a34.63,34.63,0,0,1-7.11,6,30.18,30.18,0,0,0-3.21,1.87,3.38,3.38,0,0,0-1.23,1.45,1.69,1.69,0,0,0,.3,1.8,2.56,2.56,0,0,0,2.29.29c5.8-1.2,12-5,17.74-1.5a27.09,27.09,0,0,1,6.34,5.3c6.13,6.94,11.4,14.48,14.65,23.27a23.93,23.93,0,0,1,1.58,6.08,11.29,11.29,0,0,1-2,.14c-4.74-.65-9.48-1.36-14.23-2-3.61-.49-7.3-.59-10.84-1.39a30.14,30.14,0,0,1-12.93-6c-2.35-2-4.69-4-7.11-5.87-3.08-2.4-4.65-2.29-7.49.54-4,4-7.09,8.59-7.9,14.39-.11.75-.3,1.5-.48,2.24,0,.17-.2.3-.43.63-2.51.88-5.23.45-7.79-.18A41.59,41.59,0,0,1,591.88,140a40.61,40.61,0,0,1-6-6.15,8.71,8.71,0,0,1-2.28-6.87,3.83,3.83,0,0,0-3.52-4.39,4.67,4.67,0,0,0-4.4,3.08,7,7,0,0,0-.43,2.81,3.78,3.78,0,0,1-1.16,3.09C565,141.71,554,148.66,540.36,151.06A41.13,41.13,0,0,1,525.16,151.4Z"/><path class="f97fb43d-0f7d-41d3-bf79-0b88bf158681" d="M716.78,454.77c3.74-2.55,6.05-6.57,8.71-10.29a98.16,98.16,0,0,0,9.38-15.25c6.81-14.59,13.77-29.13,20.26-43.87a132.92,132.92,0,0,0,8.57-27c.32-1.61.49-3.63-.87-4.55a2.87,2.87,0,0,0-3.41.5,8.37,8.37,0,0,0-1.9,3.15c-2.36,5.67-5.16,11.32-7.1,17.15-4.68,10.72-9.54,21.36-14.27,32.06a300.53,300.53,0,0,1-25.28,45.73c-.76,1.12-1.55,2.45-1.17,3.75a5.74,5.74,0,0,0,4.84-.13A14.68,14.68,0,0,0,716.78,454.77Z"/><path class="f97fb43d-0f7d-41d3-bf79-0b88bf158681" d="M703.34,468.05a3.54,3.54,0,0,0,3.69-3.46,4.12,4.12,0,0,0-3.79-4.14,3.84,3.84,0,0,0-3.41,3.24A4,4,0,0,0,703.34,468.05Z"/><path class="ac38155e-30db-421e-9606-cb49b13e264a" d="M622.32,417a29.27,29.27,0,0,1,2.57,7.15,29,29,0,0,1,1.39,7.53,42.85,42.85,0,0,1-4,14.68,30.19,30.19,0,0,1-4.85,5.9,29.42,29.42,0,0,1-6.1,4.5,28.41,28.41,0,0,1-7,2.87c-.63.17-1.26.32-1.89.46,5.81-4.53,9.72-11.43,12.89-18.34C619.06,433.51,621.83,425.52,622.32,417Z"/><path class="ac1fb938-d81c-4b08-b913-0f3fa1cc5900" d="M576.27,411.14a43.81,43.81,0,0,1,12.92-7.87,29.33,29.33,0,0,1,7.61-.89,29.82,29.82,0,0,1,7.61.88,24.06,24.06,0,0,1,5.48,2.38c-7.26,2.55-13.79,6.06-18.9,11.46h-.09a24.83,24.83,0,0,1-16.82-3.79C574.8,412.58,575.54,411.86,576.27,411.14Z"/><path class="ac1fb938-d81c-4b08-b913-0f3fa1cc5900" d="M583.12,429.4a23,23,0,0,1-7.13-.14c.09-.22.16-.44.26-.65a22.93,22.93,0,0,1,1.15-2.12,21.27,21.27,0,0,1,3.27-4c2.52.72,5.31,1.34,5.7.69-.62,1-1.21,2.08-1.75,3.2-.44.95-.84,1.91-1.21,2.88Z"/><path class="ac38155e-30db-421e-9606-cb49b13e264a" d="M590.63,427.79c4.38-8.27,11.24-12.74,19.22-15.78a63.26,63.26,0,0,0-20.12,45C585.87,447.59,585.75,437,590.63,427.79Z"/><path class="ac38155e-30db-421e-9606-cb49b13e264a" d="M593.37,460.44c-1-.17.92-12.88,1.17-14.11a60.29,60.29,0,0,1,4.57-13.68c3.83-8.07,10.22-17.51,18.14-22,3.08,3.58,1.29,10.2.34,14.27a79.62,79.62,0,0,1-5.41,15c-4,8.63-8.91,17.44-18.09,20.62Z"/><path class="b9fae9a4-f728-4f20-8584-2d4ac3a57d2e" d="M717.21,227.4a11.63,11.63,0,0,1,2.29.47,51.75,51.75,0,0,1,19.82,10.43,8.38,8.38,0,0,0,3.9,2.35c.68-1.25-.22-2.76-1.15-3.84a51.68,51.68,0,0,0-9.31-8.54c-3.09-2.19-6.88-3.27-9.85-5.47-1.88-1.38-2.33-4,.16-4.79s6.47,1,8.77,1.79c14,4.74,23.52,14.06,28.16,28.18a12.43,12.43,0,0,1,0,3.39A28.18,28.18,0,0,0,744,248c-1.53.1-3.08,0-4.61,0a23.79,23.79,0,0,1-15.76-6,31.29,31.29,0,0,1-6.25-7.46C715.22,231,713.1,227.05,717.21,227.4Z"/><path class="ff4784c7-c788-4323-867a-720ef8805357" d="M587.42,218.21c9.05,1.13,12.9,1.8,24.7-.92a26,26,0,0,1,.22,5.52c-3.32-.31-7.43.55-10.47.59-5,0-10-.11-14.94-.4A11.13,11.13,0,0,1,587.42,218.21Z"/><path class="a571f4c2-c5fc-45df-993c-73364aa8c04e" d="M603.19,237.47a13.18,13.18,0,0,1-4.56,0c-7-1.07-8.72-2.36-10.39-8.42,3.85.21,7.7.36,11.57.35,2.06,0,4.13,0,6.19-.09,1.45,0,3.68-.54,5.43-.51-.15.67-.3,1.33-.46,2C610,234.8,607,236.69,603.19,237.47Z"/><path class="b9fae9a4-f728-4f20-8584-2d4ac3a57d2e" d="M438.71,248c4.64-14.12,14.15-23.44,28.16-28.18,1.88-.64,6.76-2.49,8.56-1,2.61,2.1-1.86,2.74-3.37,3.44a56,56,0,0,0-5.53,3,102,102,0,0,0-9.83,7.21,23.44,23.44,0,0,0-5,5.58c-.53.83-.83,2.2.09,2.54a1.77,1.77,0,0,0,1.53-.46A132.27,132.27,0,0,1,476.84,227a7.79,7.79,0,0,1,4.45-.91c7.47,1.44-3.86,13.92-6.21,15.92a23.79,23.79,0,0,1-15.76,6c-1.54,0-3.08.07-4.61,0a28.18,28.18,0,0,0-16,3.41A12.43,12.43,0,0,1,438.71,248Z"/><path class="bef4a47d-bb89-4050-a01b-e6788749d85e" d="M907.87,309.53a46.76,46.76,0,0,0-16.68-23.61c-10.32-7.72-22.23-11.39-34.81-12.35-11.38-.87-22.58,1.42-33.5,4.65-9.4,2.78-17.57,8-25.68,13.3a104.64,104.64,0,0,0-.7-12.24c-.28-2.28-.36-4.59-.51-6.9a20.05,20.05,0,0,0-4-10.64,69.67,69.67,0,0,0-15.74-15.11c-.78-.56-1.54-1.15-2.37-1.64-5-3-9.56-6.38-11.65-12.15-8.2-12.28-19.53-20-34.06-22.53-4.85-.83-10-.18-14.94,0-2.88.08-5.74.64-8.62.7a36.5,36.5,0,0,1-18.7-4.93c-2.84-1.59-4.44-3.68-4.43-7.36,0-6.33-.69-12.65-1.12-19.36,1.33-.23,2.59-.43,3.83-.69,2.36-.48,3.28-1.52,3.48-3.86.45-5.09-1.49-7.82-6.57-9.18-1.28-.34-2.6-.51-3.81-.74-2.08-.4-2.42-7.77-2.49-10.75.67.23,1.34.46,2,.74,2.34,1,4,.25,5.66-1.41a7.53,7.53,0,0,0,2.21-7.86c-.59-2-1-4.09-1.57-6.13-2.41-8.88-7.29-16.45-12.64-23.77a42.56,42.56,0,0,0-13.1-12c-1.13-.65-2.2-1.4-3.51-2.25l1.18-2.76c2.58-6.12,1.43-11.63-2.77-16.62a23.22,23.22,0,0,0-7.73-5.92c-3.77-1.84-7.56-3.64-11.45-5.51-.32-2.69-.52-5.36-1-8A19.64,19.64,0,0,0,623.44,49c-4.87-3.23-9.55-2.43-13.14,2.12-.47.61-.85,1.29-1.34,1.88a24.58,24.58,0,0,1-8.37,6.26,38.07,38.07,0,0,0-2.08-4.59,24.22,24.22,0,0,0-3.72-5.05c-2.78-2.68-5.66-3.08-8.94-1.1a54.94,54.94,0,0,0-8.34,6.11c-3.63,3.26-3.41,6.91-1,10.91a16.86,16.86,0,0,0,2.3,2.57c.75.81,1.52,1.61,2.57,2.71a43.81,43.81,0,0,1-10.71,3,53.57,53.57,0,0,0-17.22,6.29,32.07,32.07,0,0,0-10.21,9.18c-4.44,6.37-5.89,13.24-3.3,20.75.36,1,.64,2.13,1,3.24-.76.64-1.32,1.16-1.92,1.61-8.12,6.06-14.56,13.64-20.22,22a57.45,57.45,0,0,0-7,14.47c-1.61,4.88.72,8.3,5.85,8.85,1.34.14,2.69.08,4,.18.32,0,.61.37,1,.66a16.09,16.09,0,0,1-.4,2.17,9.65,9.65,0,0,1-.94,1.67c-1.2.23-2.52.4-3.8.74-5.08,1.36-7,4.09-6.58,9.18.21,2.34,1.13,3.38,3.49,3.86,1.24.26,2.49.46,3.82.69-.42,6.71-1.13,13-1.11,19.36,0,3.68-1.59,5.77-4.43,7.36a36.5,36.5,0,0,1-18.7,4.93c-2.88-.06-5.74-.62-8.62-.7-5-.14-10.1-.79-14.94,0-14.53,2.49-25.86,10.25-34.06,22.53-2.1,5.77-6.65,9.17-11.66,12.15-.82.49-1.59,1.08-2.36,1.64a69.67,69.67,0,0,0-15.74,15.11,20.05,20.05,0,0,0-4,10.64c-.15,2.31-.23,4.62-.51,6.9a123.94,123.94,0,0,0-.33,23c.59,9,1.19,18,2.07,27,.75,7.64,1.69,15.27,2.91,22.85,2.58,16,7.17,31.43,12.33,46.73a190.1,190.1,0,0,0,23.37,47.39c4.23,6.15,7.15,13,11.78,18.86,8.68,11,18,21,27.1,31.4,7.86,9,17.58,15.23,27.76,21.48A78.58,78.58,0,0,0,522,524.47c7.34,2.83,14.67,5.71,22.12,8.2a148.09,148.09,0,0,0,14.48,3.64c17.09,3.83,34.72,4.65,52.18,4.49,15.21-.13,29.23-3.3,43.72-8.13,7.46-2.49,14.79-5.37,22.13-8.2A78.58,78.58,0,0,0,689.51,518a185,185,0,0,0,17-11.62c2.78-2.18,5.49-4.46,8.08-6.87,11.6-10.77,23.16-22.64,30.58-36.68.87-1.65,3.55-9,5.9-9.05l4.58-.17c7.33-.57,14.44-.89,21.49-1.73,7.23-.87,14.47-1.91,21.58-3.48s14.09-3.73,21-5.89a116.93,116.93,0,0,0,25.89-11A171.59,171.59,0,0,0,876,407.86c11.88-11.4,21.77-24.29,28.63-39.4C913.42,349.2,914.38,329.59,907.87,309.53Zm-114.5,32.11,3.7-3.06A69.14,69.14,0,0,1,824,324.68c5.14-1.32,10.34-2.45,15.86-.93,7,1.92,11.52,6.31,13.46,12.92a33.48,33.48,0,0,1-2.45,25.72c-4.45,8.55-11,15.28-18.54,21-12.24,9.23-26,15.52-40.56,20.1-5.1,1.61-10.24,3.09-15.45,4.31,1.13-2.93,2.23-5.88,3.24-8.87,5.16-15.3,9.75-30.76,12.33-46.73Q792.69,346.93,793.37,341.64ZM717.21,227.4a11.63,11.63,0,0,1,2.29.47,51.75,51.75,0,0,1,19.82,10.43,8.38,8.38,0,0,0,3.9,2.35c.68-1.25-.22-2.76-1.15-3.84a51.68,51.68,0,0,0-9.31-8.54c-3.09-2.19-6.88-3.27-9.85-5.47-1.88-1.38-2.33-4,.16-4.79s6.47,1,8.77,1.79c14,4.74,23.52,14.06,28.16,28.18a12.43,12.43,0,0,1,0,3.39A28.18,28.18,0,0,0,744,248c-1.53.1-3.08,0-4.61,0a23.79,23.79,0,0,1-15.76-6,31.29,31.29,0,0,1-6.25-7.46C715.22,231,713.1,227.05,717.21,227.4Zm-39.66,9c.93-4.24.54-8.77,2.53-12.92A91.34,91.34,0,0,1,700.77,226a5.34,5.34,0,0,1,2.73,1.87,39.83,39.83,0,0,1,3.12,4.83c1.35,2.31,2.5,4.77,4,7,6.1,9.29,14.3,15.45,25.68,16.49a73.9,73.9,0,0,0,9.76.16c5.48-.23,10.29,1,13.74,5.63a9.36,9.36,0,0,0,1.1,1.33,4,4,0,0,0,4.23,1c2.7-.84,4.23-2.5,4.35-5.38a24.85,24.85,0,0,1,.2-2.87c.18-1-.39-2.33.9-3,.38.09.83.06,1.09.26a88.27,88.27,0,0,1,12.76,12.44c4.53,5.3,3,12-.79,16.31-1.62,1.86-6.26,7.19-8.83,7.2-2.31,0-7.25-4.57-9.07-6a75.21,75.21,0,0,0-9.94-6.32c-7.26-3.9-14.63-7.64-22.16-11-14.77-6.52-29.93-11.89-46.06-14-3-.39-6.11-.65-9.15-1.1a15.55,15.55,0,0,1-3-1.11C676.13,245.07,676.61,240.67,677.55,236.36Zm6.11,23.33c24,3.72,46.21,12.54,67.32,24.27,3.85,2.14,8.89,4,11,8.18,2.76,5.42-1.62,8.06-5.8,10.6a160.39,160.39,0,0,1-34,15.37,310.8,310.8,0,0,1-48,11.79c-9.48,1.48-18.94,3.13-28.46,4.26-9.72,1.15-19.5,1.82-29.27,2.59a215.8,215.8,0,0,1-34.11,0c-9.77-.77-19.55-1.44-29.27-2.59-9.53-1.13-19-2.78-28.47-4.26a311,311,0,0,1-48-11.79,169.07,169.07,0,0,1-23.45-9.52q-5.75-2.86-11.21-6.23c-3-1.86-6.45-3.59-5.47-7.82,1.21-5.25,7-8.19,11.28-10.58,21.12-11.73,43.33-20.55,67.33-24.27,3.14-.49,6.31-1.59,9.85-.75.83,4,1.8,7.93,2.41,11.89.66,4.28,2.45,7.59,6.49,9.49,1.55.74,3,1.83,4.57,2.41,5.21,1.91,10.41,3.95,15.76,5.4,10,2.73,20.38,3.77,30.72,4.48a219.25,219.25,0,0,0,29,0c10.35-.71,20.69-1.75,30.73-4.48,5.35-1.45,10.54-3.49,15.76-5.4,1.6-.58,3-1.67,4.57-2.41,4-1.9,5.83-5.21,6.49-9.49.61-4,1.58-7.87,2.41-11.89C677.34,258.1,680.52,259.2,683.66,259.69Zm-62-113.7a10.49,10.49,0,0,1,4.21-7.92,24.71,24.71,0,0,1,2.43,1.84c7.53,7.33,16.72,10.44,27,11.21,3.21.24,6.44.45,9.64.84a9.9,9.9,0,0,0,.17,1.63A60.21,60.21,0,0,0,667.93,164c-6.77.07-13.07-.31-19.36-.7-4.41-.27-8.83-.46-13.24-.71s-8.81-.61-13.23-.74c-15.23-.47-30.25-.47-45.5,0-4.41.13-8.81.5-13.22.74s-8.83.44-13.24.71c-6.3.39-12.59.77-19.37.7l1.23-3.46c3.69-.73,7.28-1.32,10.81-2.15,11.13-2.62,20.52-8.42,29-16,1.23-1.1,2.12-2.74,4.25-3,6.06,8.27,14.65,12.72,24.21,15.56,4.43,1.31,9,2.22,13.64,1.39,6.07-1.08,7.64-3,7.81-9.23C621.68,146.76,621.66,146.37,621.68,146Zm-89.61,42c1.71,4.28,3.33,8.59,5.17,12.81,2.39,5.45,7,8.26,12.61,8.83a84.53,84.53,0,0,0,25.23-1.31,8.66,8.66,0,0,0,5.38-3.13,65.73,65.73,0,0,0,4.54-6.62,58.06,58.06,0,0,0,3.15-6.79,10.35,10.35,0,0,1,7.05-6.27,13.86,13.86,0,0,1,8.31,0,10.35,10.35,0,0,1,7,6.27,58.06,58.06,0,0,0,3.15,6.79,65.73,65.73,0,0,0,4.54,6.62,8.66,8.66,0,0,0,5.38,3.13,84.53,84.53,0,0,0,25.23,1.31c5.62-.57,10.22-3.38,12.61-8.83,1.84-4.22,3.46-8.53,5.17-12.81.85-2.14,1.64-4.3,2.55-6.42a12.62,12.62,0,0,1,1.78-2.12,30.82,30.82,0,0,1,1.51,8.33,147.42,147.42,0,0,1-1.67,35.6c-2.2,12.48-4.1,25-6.21,37.51-.67,4-1.62,7.88-2.38,11.52-2.22,2.27-4.81,3.13-7.33,4a147.51,147.51,0,0,1-27.43,6.31,214.2,214.2,0,0,1-56.22,0,147.59,147.59,0,0,1-27.42-6.31c-2.52-.84-5.11-1.7-7.33-4-.76-3.64-1.71-7.56-2.38-11.52-2.12-12.5-4-25-6.21-37.51a146.92,146.92,0,0,1-1.67-35.6,30.82,30.82,0,0,1,1.51-8.33,12.42,12.42,0,0,1,1.77,2.12C530.43,183.7,531.22,185.86,532.07,188ZM589.65,55c4.12,4.57,6.86,13.78,7.23,24.28,0,.77-.56,1.56-1.15,3.1-2.26-5-3.6-9-5.79-12.49-2.1-3.31-5.09-6.05-7.79-9.15A13.5,13.5,0,0,1,589.65,55Zm-68.1,96.42a12.62,12.62,0,0,1,.49-2.69c3.35-7.69,8.57-14.09,14.27-20.11,2.21-2.33,4.25-5,7-6.77,3.46-2.27,6.47-1.55,10.3-.84a13.78,13.78,0,0,0,2.87.22c.92,0,4.07-.53,3.17-2.14a3.28,3.28,0,0,0-1.93-1.2,15.53,15.53,0,0,1-9.78-10.49c-1.53-5.67-.15-10.62,3.73-14.95,4.26-4.76,9.77-7.44,15.75-9.1,6.26-1.74,12.63-3,19.28-4.63.48,1.15,1,2.34,1.64,3.86-1,.6-1.89,1.16-2.79,1.74a3.59,3.59,0,0,0-1.7,4A3.4,3.4,0,0,0,587.11,91a29.76,29.76,0,0,0,19.38-6.09c1.86-1.42,2.25-4.39.47-5.54-3.3-2.12-3.49-5.22-3.69-8.48,0-.76,0-1.53,0-2.6,4.48-4.4,10.71-7.07,14.36-12.62,4.45,2.11,5.89,5.79,6.4,9.94a30.44,30.44,0,0,1-8.77,24.94,2.78,2.78,0,0,0-1,1.92,2,2,0,0,0,2,1.71,5.87,5.87,0,0,0,2.74-.75c2.6-1.18,5.33-2.49,6.85-4.91a15.35,15.35,0,0,1,6.55-5.68c5.24-2.49,11.08,1.17,14,5.56,2.58,3.83.84,8.88-2.2,11.94a34.9,34.9,0,0,1-7.11,6,29.35,29.35,0,0,0-3.22,1.87,3.43,3.43,0,0,0-1.22,1.45,1.68,1.68,0,0,0,.29,1.8,2.59,2.59,0,0,0,2.3.29c5.8-1.2,12-5,17.74-1.5a27.25,27.25,0,0,1,6.33,5.3c6.13,6.94,11.4,14.48,14.65,23.27a23.13,23.13,0,0,1,1.58,6.08,11.25,11.25,0,0,1-2,.14c-4.75-.65-9.48-1.36-14.23-2-3.61-.49-7.31-.59-10.84-1.39a30,30,0,0,1-12.93-6c-2.36-2-4.7-4-7.12-5.87-3.08-2.4-4.64-2.29-7.49.54-4,4-7.08,8.59-7.9,14.39a21.79,21.79,0,0,1-.48,2.24c0,.17-.2.3-.43.63-2.51.88-5.23.45-7.78-.18A41.59,41.59,0,0,1,588.28,140a41.15,41.15,0,0,1-6-6.15,8.78,8.78,0,0,1-2.28-6.87,3.81,3.81,0,0,0-3.52-4.39,4.65,4.65,0,0,0-4.39,3.08,6.83,6.83,0,0,0-.43,2.81,3.78,3.78,0,0,1-1.17,3.09c-9.11,10.19-20.08,17.14-33.72,19.54A41.19,41.19,0,0,1,521.55,151.4ZM438.71,248c4.64-14.12,14.15-23.44,28.16-28.18,1.88-.64,6.76-2.49,8.56-1,2.61,2.1-1.86,2.74-3.37,3.44a56,56,0,0,0-5.53,3,102,102,0,0,0-9.83,7.21,23.44,23.44,0,0,0-5,5.58c-.53.83-.83,2.2.09,2.54a1.77,1.77,0,0,0,1.53-.46A132.27,132.27,0,0,1,476.84,227a7.79,7.79,0,0,1,4.45-.91c7.47,1.44-3.86,13.92-6.21,15.92a23.79,23.79,0,0,1-15.76,6c-1.54,0-3.08.07-4.61,0a28.18,28.18,0,0,0-16,3.41A12.43,12.43,0,0,1,438.71,248Zm-24.4,17.73a88.27,88.27,0,0,1,12.76-12.44c.26-.2.7-.17,1.09-.26,1.29.69.72,2,.9,3a24.85,24.85,0,0,1,.19,2.87c.13,2.88,1.66,4.54,4.36,5.38a4,4,0,0,0,4.22-1,9.43,9.43,0,0,0,1.11-1.33c3.45-4.64,8.25-5.86,13.74-5.63a73.9,73.9,0,0,0,9.76-.16c11.38-1,19.58-7.2,25.68-16.49,1.47-2.24,2.61-4.7,4-7a39.83,39.83,0,0,1,3.12-4.83,5.3,5.3,0,0,1,2.73-1.87,91.34,91.34,0,0,1,20.69-2.55c2,4.15,1.6,8.68,2.53,12.92s1.42,8.71,2.16,13.41a15.79,15.79,0,0,1-3,1.11c-3,.45-6.1.71-9.15,1.1-16.13,2.1-31.29,7.47-46.06,14-7.54,3.33-14.91,7.07-22.16,11a71.65,71.65,0,0,0-12,8c-3.13,2.59-6.2,4.19-10.22,2.12-2.08-1.07-4.08-3.3-5.59-5C411.36,277.73,409.78,271,414.31,265.71ZM749,440.46c-10.35,15.31-20.06,30.81-32.36,44.75a132.32,132.32,0,0,1-27.25,22.94,89.67,89.67,0,0,1-23.89,10.93c-8.06,2.41-15.51,6.53-23.71,8.47-9.76,2.31-19.81,2.59-29.84,3.06a273,273,0,0,1-49.24-2.19c-9.76-1.32-17.94-5.22-27.09-8.48s-18.24-6.47-26.38-11.79A132.32,132.32,0,0,1,482,485.21c-11.23-12.72-20.8-26.63-30.41-40.56a196,196,0,0,1-25.37-51.49c-4.73-14.63-9-29.36-11.34-44.6-2.11-13.88-3.31-27.85-4.16-41.85-.3-5-.47-10-.64-15,0-.89-.29-2,1.13-2.69,1.16,1.06,2.41,2.17,3.63,3.32A141.77,141.77,0,0,0,459.82,321a255.75,255.75,0,0,0,42.83,13.27c12.19,2.59,24.49,4.72,36.79,6.74,7.19,1.17,14.48,1.8,21.73,2.54,7.46.75,14.92,1.38,22.39,2a194.85,194.85,0,0,0,31.59,0c7.47-.6,14.93-1.23,22.38-2,7.26-.74,14.55-1.37,21.74-2.54,12.3-2,24.6-4.15,36.79-6.74A255.75,255.75,0,0,0,738.89,321a141.77,141.77,0,0,0,45-28.6c1.21-1.15,2.47-2.26,3.62-3.32,1.42.73,1.17,1.8,1.14,2.69-.17,5-.34,10-.65,15-.87,14.43-2.22,28.22-4.45,42.45-2.36,15-6.36,29.53-11,44A189.31,189.31,0,0,1,749,440.46Zm153.73-95.32a58.91,58.91,0,0,1-4.2,16.11,113.79,113.79,0,0,1-15.82,26.69,167.68,167.68,0,0,1-33.23,30.95A95.68,95.68,0,0,1,823,432.55q-7.12,2.29-14.27,4.48a165.34,165.34,0,0,1-28.6,6.12c-3.28.4-7.95,1.77-10.88-.25-3.17-2.19-4.29-7.58-3.59-11.2,2.35-12.23,16-16.43,26.18-19.44,16.13-4.78,31.27-11.69,44.91-21.62a73,73,0,0,0,18.74-19.36c4.77-7.39,8-15.32,7.63-24.36-.11-2.11-.11-4.23-.35-6.33-.92-7.93-4-14.64-10.38-19.85a26.84,26.84,0,0,0-19.29-6A63.22,63.22,0,0,0,813.64,319c-3.65,1.43-11.69,8-15.46,6.19-7.7-3.66-2.2-23.83,3.12-27.75,4.14-3,10.54-5.34,15.27-7.52a77.92,77.92,0,0,1,18.27-6c14.08-2.61,27.84-2.75,41.25,3.08,9.89,4.29,17.58,10.78,22,20.86C903.31,319.85,904.35,332.33,902.77,345.14Z"/><path class="bef4a47d-bb89-4050-a01b-e6788749d85e" d="M653.28,260.09a50.69,50.69,0,0,0,.75,7.16c.13.72.38,1.58,1.09,1.76a1.3,1.3,0,0,0,1.36-.63,3.77,3.77,0,0,0,.48-1.51q1.9-11.13,3.42-22.32c.86-6.29,1.93-13.21,1.17-19.55a2.56,2.56,0,0,0-.37-1.21,1.78,1.78,0,0,0-2.43-.12,4.9,4.9,0,0,0-1.39,2.29c-2.43,6.66-3.33,13.78-3.73,20.83C653.37,251.22,653.11,255.67,653.28,260.09Z"/><path class="bef4a47d-bb89-4050-a01b-e6788749d85e" d="M615.21,208.3a5,5,0,0,0-4.4-.44c-.72.24-1.35.75-2.07,1-7,2.42-14,4.06-21-.15a4.18,4.18,0,0,0-.53-.21c-3.52-1.27-7.75,1.24-8.11,4.94-.19,1.91,0,3.84,0,5.76a36.31,36.31,0,0,0,2,15.29c1.79,5,5,8.62,10.29,10a44.52,44.52,0,0,0,9,1.67c8.63.35,17.73-5.21,19-14.19.6-4.17,1.36-8.33,1.66-12.53C621.57,212.68,620.88,211.68,615.21,208.3Zm-27.79,9.91c9.05,1.13,12.9,1.8,24.7-.92a26,26,0,0,1,.22,5.52c-3.32-.31-7.43.55-10.47.59-5,0-10-.11-14.94-.4A11.13,11.13,0,0,1,587.42,218.21Zm15.77,19.26a13.18,13.18,0,0,1-4.56,0c-7-1.07-8.72-2.36-10.39-8.42,3.85.21,7.7.36,11.57.35,2.06,0,4.13,0,6.19-.09,1.45,0,3.68-.54,5.43-.51-.15.67-.3,1.33-.46,2C610,234.8,607,236.69,603.19,237.47Z"/><path class="bef4a47d-bb89-4050-a01b-e6788749d85e" d="M477.89,145.28c4.34-6.17,8.53-19.18,1.31-25a16.1,16.1,0,0,0-9.43-3.54c-1,0-2.35.22-2.58,1.24s.61,1.66,1.34,2.22c4,3.1,7,6.82,6.42,12.33-1.09,11.18-12.8,17.75-17.17,27.43-2.8,6.2-2.89,13,1,18.73,3.2,4.69,9.78,10.51,15.86,10.14a2.67,2.67,0,0,0,2.3-1.14,2.26,2.26,0,0,0-.63-2.54,8.87,8.87,0,0,0-2.4-1.41c-5.46-2.68-8.08-7.34-8.92-13.12s-.12-9.79,3.56-14.37C471.57,152.52,475.12,149.22,477.89,145.28Z"/><path class="bef4a47d-bb89-4050-a01b-e6788749d85e" d="M729.8,117a15.39,15.39,0,0,0-4.27-2.08,6.09,6.09,0,0,0-2.3-.39,2.09,2.09,0,0,0-1.83,1.26c-.34,1,.48,2.08,1.2,2.91a28.72,28.72,0,0,1,6.34,12.93c.23,1.16.39,2.33.53,3.5,1.06,8.71-2.2,12.38-8.21,17.73-9.51,8.47-7,18.57-.59,28.24.76,1.16,3.29,3,4.68,2.09a2.11,2.11,0,0,0,.8-2.12,7.82,7.82,0,0,0-.89-2.21,20.46,20.46,0,0,1,.2-18.21c2.77-5.42,8.53-8,11.35-13.42C741.62,138,738.62,123.09,729.8,117Z"/><path class="bef4a47d-bb89-4050-a01b-e6788749d85e" d="M763.18,133.78a11.6,11.6,0,0,0-7.26-2.55,1.2,1.2,0,0,0-.85.24,1.14,1.14,0,0,0-.23.79,9.76,9.76,0,0,0,.5,3.44,26.89,26.89,0,0,0,1.11,2.59,33.83,33.83,0,0,1,2.95,12.43c.28,6.7-2.42,10.52-5.86,15.81a17.46,17.46,0,0,0-1.08,16.6c1,2.32,5.5,10.48,8.77,8,1.11-.82,1.18-2.49.7-3.78s-1.37-2.38-1.92-3.64a11.2,11.2,0,0,1-.77-4.29,21.75,21.75,0,0,1,3.06-11.76c2.19-3.32,5.54-5.63,7.23-9.37C772.73,151.23,770,139.05,763.18,133.78Z"/><path class="bef4a47d-bb89-4050-a01b-e6788749d85e" d="M438,136.44a31,31,0,0,0-6.41-1.85,1.84,1.84,0,0,0-1.69.24,1.23,1.23,0,0,0,.11,1.59,4.29,4.29,0,0,0,1.45,1c17,8.52.93,26.77-1.1,38.4a19.57,19.57,0,0,0,7.07,19.11c1.44,1.13,6.55,3.49,8.29,2.25,2.33-1.67-6.11-9.32-7.13-11.18-4.83-8.78,4-20,6.53-28.23,1.49-4.86,1.64-10.37-.54-15.06A12.19,12.19,0,0,0,438,136.44Z"/><path class="bef4a47d-bb89-4050-a01b-e6788749d85e" d="M556,371.18c.24.63.68,1.64,1.32,3l2.22,4.86c.83,1.83,1.39,3.09,1.68,3.79s.62,1.6,1,2.72a32.36,32.36,0,0,0,1.53,3.68,31.11,31.11,0,0,0,1.51,2.85,6.15,6.15,0,0,0,1.25,1.45,6.72,6.72,0,0,0,1.52,1,8.84,8.84,0,0,0,2.07.61,2.53,2.53,0,0,0,1.63-.41,1.65,1.65,0,0,0,.72-1.12,8.79,8.79,0,0,0,.07-1.36,19.59,19.59,0,0,0-.25-2,21.76,21.76,0,0,0-1.83-4.64L567,378.46q1.43,0,6.19-2.35,2.76,6,3.12,7.19c.24.78.51,1.57.83,2.37a22.54,22.54,0,0,0,1.41,2.89c.63,1.11,1.08,1.71,1.35,1.78a2.2,2.2,0,0,0,1.39-.49,4.58,4.58,0,0,0,1.43-1.22,14.14,14.14,0,0,0,.9-1.45,3,3,0,0,0,.28-1.93,10.58,10.58,0,0,0-.51-2c-.22-.58-.69-1.63-1.42-3.13a46.2,46.2,0,0,0-3-5.12c-1.26-1.93-2.12-3.32-2.6-4.18s-1-1.81-1.64-2.83-1.1-1.88-1.48-2.55a8.2,8.2,0,0,0-1.38-1.84,3.05,3.05,0,0,0-2-.93,2.38,2.38,0,0,0-1.57.23,1.15,1.15,0,0,0-.28,1.1,14.3,14.3,0,0,0,1.14,3.06q1,2.28,2.6,5.77a17.39,17.39,0,0,0-6.4,1.9,68,68,0,0,0-4.21-7.31c-1-1.37-1.81-2.12-2.46-2.26a3,3,0,0,0-2.41,1,2.43,2.43,0,0,0-1.05,2.63C555.55,369.76,555.8,370.56,556,371.18Z"/><path class="bef4a47d-bb89-4050-a01b-e6788749d85e" d="M590.23,387.06a5.07,5.07,0,0,0,2.25.5,41.74,41.74,0,0,0,6.43-.55,12.07,12.07,0,0,0,6.38-3.74,7.5,7.5,0,0,0,1.55-2.31,24,24,0,0,0,.94-2.53,16,16,0,0,0-.6-5.59,16.66,16.66,0,0,0-2-4.5,12.8,12.8,0,0,0-2.62-3,7.71,7.71,0,0,0-2.91-1.47c-1.41,0-2.88,0-4.42-.09a5.66,5.66,0,0,0-4,1.33,9.84,9.84,0,0,0-2.64,4.23,31.54,31.54,0,0,0-1.11,5c-.35,5.05-.15,8.35.62,9.9A6,6,0,0,0,590.23,387.06Zm2.44-8.64a4.66,4.66,0,0,1,1-2.42,3.11,3.11,0,0,1,2-1.3,4.17,4.17,0,0,1,2,.12,4.68,4.68,0,0,1,1.55.89,2.36,2.36,0,0,1,.47,2.19c-.14,1.06-1,2.34-2.67,3.82l-1.12.62a2.69,2.69,0,0,1-2.64-1.31A4.67,4.67,0,0,1,592.67,378.42Z"/><path class="bef4a47d-bb89-4050-a01b-e6788749d85e" d="M614,391.12c.52,0,1.34-.57,2.48-1.67a22.19,22.19,0,0,0,3.73-5.62c1.34-2.63,2.71-5.25,4.12-7.84,1.26.72,2.3,1.29,3.11,1.73a6.11,6.11,0,0,0,2.52.75,2.77,2.77,0,0,0,2-2.36c.33-1.34.13-2.3-.61-2.87-1.54-.54-2.92-1.1-4.13-1.66a14.83,14.83,0,0,0,2.08-2.61,16.83,16.83,0,0,0,.72-2.08,4.08,4.08,0,0,0-.18-2.79,9.51,9.51,0,0,0-3.32-1.13,2,2,0,0,0-1.77.64c-.4.46-.75.91-1.08,1.33l-1.59,3.83a4.81,4.81,0,0,1-1.92-1.62,4.29,4.29,0,0,0-2.26-1.56,2.92,2.92,0,0,0-2.19-.08,2,2,0,0,0-1,.9c-.17.35-.39.83-.68,1.46a2.65,2.65,0,0,0,.06,2.2,3.68,3.68,0,0,0,2,2l3,1.42-4.59,9.85a9.65,9.65,0,0,0-1.88,1.92,5.75,5.75,0,0,0-.25,5.3A2.3,2.3,0,0,0,614,391.12Z"/><path class="bef4a47d-bb89-4050-a01b-e6788749d85e" d="M530.33,442.78a2.81,2.81,0,0,0,1.78-.72c.5-.45,1-.89,1.39-1.33a4.3,4.3,0,0,0,1-1.48,2.73,2.73,0,0,0,.08-1.62,2.39,2.39,0,0,0-.67-1.21,2.71,2.71,0,0,0-1.12-.57,6.53,6.53,0,0,0-1.46-.19,5.92,5.92,0,0,1-2-.55,5.4,5.4,0,0,1-1.92-1.27,3.89,3.89,0,0,1-.94-1.81,4.7,4.7,0,0,1,0-2.11,3.8,3.8,0,0,1,.81-1.74,3.59,3.59,0,0,1,1.75-1,7.24,7.24,0,0,1,2.32-.36c.78,0,1.48,0,2.12.06s1.59.09,2.86.19a29.89,29.89,0,0,1,3.36.4c1,.17,1.79.33,2.48.48a7.8,7.8,0,0,1,2.11.81,6.2,6.2,0,0,1,1.81,1.43,3.65,3.65,0,0,1,.77,2.34,2,2,0,0,1-.81,2,4.43,4.43,0,0,1-1.72.62q-.87.12-2.1.18a7.5,7.5,0,0,0-2.34.48,2.05,2.05,0,0,0-1.34,1.12,6.19,6.19,0,0,0-.16,2.09,5.45,5.45,0,0,0,.38,2,2.7,2.7,0,0,0,.8,1,3.71,3.71,0,0,0,1.34.61,7.5,7.5,0,0,0,1.44.27q.6,0,3.36-.24a16.76,16.76,0,0,0,4.14-.83,8.53,8.53,0,0,0,2.3-1.32,4.66,4.66,0,0,0,1.33-1.73,16.37,16.37,0,0,0,.77-2.19,12.7,12.7,0,0,0,.46-2.37c.07-.77.09-1.83.07-3.17a8.44,8.44,0,0,0-2.14-5.77,8.32,8.32,0,0,0-1.94-1.62,8.51,8.51,0,0,0-2.15-.89,19.71,19.71,0,0,0-2.25-.41c-.76-.08-1.66-.14-2.72-.18s-2.8,0-5.22.09l-5.12.18c-1,0-1.9.1-2.7.2a11.9,11.9,0,0,0-2.65.68,7.69,7.69,0,0,0-2.6,1.6,20,20,0,0,0-1.81,1.86,5.57,5.57,0,0,0-1,2,12.15,12.15,0,0,0-.4,2.85c0,1.09,0,2.22,0,3.4a11.25,11.25,0,0,0,.86,4.17,7.71,7.71,0,0,0,1,1.46,8.49,8.49,0,0,0,1.57,1.11,6.71,6.71,0,0,0,2.46.87A11.11,11.11,0,0,0,530.33,442.78Z"/><path class="bef4a47d-bb89-4050-a01b-e6788749d85e" d="M548.06,462.37a8.55,8.55,0,0,0,0-5.05,36.61,36.61,0,0,0-1.74-4.07q2.48-1.5,5.48-3.17a10.39,10.39,0,0,0,4.34-4.18,2.92,2.92,0,0,0-.63-1.87,1.78,1.78,0,0,0-1.63-.76,27.22,27.22,0,0,0-5.37,2l-14,7c-2.47,1-3.91,1.67-4.34,1.89s-1.06.54-1.91,1a4.26,4.26,0,0,0-1.63,1.31,4.63,4.63,0,0,0-.17,2.42,5.06,5.06,0,0,0,1.18,2.2,4.92,4.92,0,0,0,3.23,1.1,26.61,26.61,0,0,0,5-2.58,10.07,10.07,0,0,0,2.31-1.81c.1-.24,1.5.3,3.51-.5.54,1.3.44,1.19.39,1.78a4.94,4.94,0,0,1-1,2.2,4.64,4.64,0,0,1-2,1.78q-1.1.48-4.4,2.11t-3.1,3.07a10.09,10.09,0,0,0,.62,2.44,2.5,2.5,0,0,0,1.19,1.36c.51.23,1.9-.23,4.18-1.36a38.92,38.92,0,0,0,4.44-2.44c.68-.49,1.67-1.22,3-2.19A10.81,10.81,0,0,0,548.06,462.37Z"/><path class="bef4a47d-bb89-4050-a01b-e6788749d85e" d="M564.17,470.7q-1.6-1.36-3.29-2.94a5.69,5.69,0,0,0-3.93-1.62,9.82,9.82,0,0,0-4.76,1.5,30.62,30.62,0,0,0-4.1,3.07c-3.55,3.61-5.55,6.25-6,7.92a6,6,0,0,0-.16,3.58,5.1,5.1,0,0,0,1.38,1.84,40,40,0,0,0,5.25,3.77,12,12,0,0,0,7.28,1.31,7.31,7.31,0,0,0,2.67-.74,20.85,20.85,0,0,0,2.36-1.31,16,16,0,0,0,3.19-4.63,16.67,16.67,0,0,0,1.37-4.76,12.71,12.71,0,0,0,0-4A7.59,7.59,0,0,0,564.17,470.7Zm-9,10.72c-.8.72-2.31,1.11-4.52,1.16l-1.25-.26a2.7,2.7,0,0,1-1.16-2.71,4.76,4.76,0,0,1,1.25-2.37,4.51,4.51,0,0,1,2.31-1.2,3.11,3.11,0,0,1,2.38.32,4.21,4.21,0,0,1,1.46,1.41,4.89,4.89,0,0,1,.59,1.68C556.27,480.05,555.92,480.7,555.12,481.42Z"/><path class="bef4a47d-bb89-4050-a01b-e6788749d85e" d="M585.3,483.79a8.21,8.21,0,0,0-1.44-2.58,7.7,7.7,0,0,0-2.6-2,16.23,16.23,0,0,0-3.32-1.21,6.14,6.14,0,0,0-3.19.06,5.94,5.94,0,0,0-2.51,1.44A14,14,0,0,0,570,483a22.32,22.32,0,0,0-1.88,6.34c-.42,2.56-.67,4.47-.77,5.73a9.43,9.43,0,0,0,.11,2.9,4.59,4.59,0,0,0,.87,1.77,5.18,5.18,0,0,0,1.63,1.29l3.51,1.3a6,6,0,0,0,3.18.37,8.36,8.36,0,0,0,2.85-1,5.72,5.72,0,0,0,1.94-1.72,11.2,11.2,0,0,0,1-2,2.89,2.89,0,0,0,0-2.2,2.07,2.07,0,0,0-1.54-1.37,1.46,1.46,0,0,0-1.71.93c-1.56,1.56-2.58,2.33-3.06,2.34a4.28,4.28,0,0,1-1.55-.31c-.54-.2-1-1-1.34-2.35s0-3.37,1.11-6,2.07-3.92,2.9-3.88a5.46,5.46,0,0,1,2.29.58c.7.36,1.51,1.52,2.45,3.47,1.46.48,2.56.45,3.29-.08a4.54,4.54,0,0,0,.63-2.59A10.82,10.82,0,0,0,585.3,483.79Z"/><path class="bef4a47d-bb89-4050-a01b-e6788749d85e" d="M607.63,485.26a13.2,13.2,0,0,0-2.87-2.74,7.62,7.62,0,0,0-3-1.21c-1.4.13-2.87.24-4.41.31a5.64,5.64,0,0,0-3.9,1.69,9.93,9.93,0,0,0-2.25,4.44,31.5,31.5,0,0,0-.65,5.08q.15,7.6,1.51,9.81a6,6,0,0,0,2.45,2.61,5,5,0,0,0,2.28.29,39.54,39.54,0,0,0,6.36-1.12,12.11,12.11,0,0,0,6-4.3,7.59,7.59,0,0,0,1.34-2.43,23.21,23.21,0,0,0,.7-2.61,15.76,15.76,0,0,0-1.09-5.51A17.11,17.11,0,0,0,607.63,485.26Zm-6.87,14.06-1.06.72A2.68,2.68,0,0,1,597,499a4.57,4.57,0,0,1-.83-2.55,4.63,4.63,0,0,1,.75-2.49,3.11,3.11,0,0,1,1.89-1.48,4.11,4.11,0,0,1,2-.06,4.76,4.76,0,0,1,1.63.75c.49.35.71,1.06.66,2.14S602.26,497.7,600.76,499.32Z"/><path class="bef4a47d-bb89-4050-a01b-e6788749d85e" d="M621.41,482.48l-1.85-5-2.88-6.45a5.21,5.21,0,0,0-3.88-1.32c-1.28.15-2.13.25-2.53.31a3.29,3.29,0,0,0-1.37.61,2.75,2.75,0,0,0-1,1.44,59.57,59.57,0,0,1,4.41,6.25,47.1,47.1,0,0,1,3.24,6.27c.83,2,1.51,3.73,2,5.17a43.93,43.93,0,0,1,1.35,4.24c.91,2.59,1.72,4.15,2.41,4.65a5.67,5.67,0,0,0,2.81.95,14.5,14.5,0,0,0,2.24-1.26c.75-.51,1-1.57.72-3.19Z"/><path class="bef4a47d-bb89-4050-a01b-e6788749d85e" d="M644.63,475.93a20.18,20.18,0,0,1-5.4-4.48q-2.38-2.79-4.06-3.33a11.09,11.09,0,0,0-3-.58,5.78,5.78,0,0,0-3.1,1.08,10.44,10.44,0,0,0-2.38,1.9c-.42.52-.82,1-1.2,1.54a4.08,4.08,0,0,0-.72,1.82A4.24,4.24,0,0,0,625,476a6.29,6.29,0,0,1,.33,2.2,4.59,4.59,0,0,0,.93,2.62,2.89,2.89,0,0,0,2.24,1.55,3.35,3.35,0,0,0,1.76-.21,2.21,2.21,0,0,0,.81-.91,10.41,10.41,0,0,0,.57-1.28,5.75,5.75,0,0,0,.13-2.26,10,10,0,0,1,0-2.28,1.73,1.73,0,0,1,.5-1,3.22,3.22,0,0,1,1-.56,1.51,1.51,0,0,1,1.39.3,6.37,6.37,0,0,1,1.15,1,2.49,2.49,0,0,1,.55,1,3.86,3.86,0,0,1,0,1.48,4,4,0,0,1-1,1.89c-.58.66-1.22,1.32-1.9,2a5.13,5.13,0,0,0-1.4,2.12,3.74,3.74,0,0,0-.14,2.07,5.24,5.24,0,0,0,.81,1.77q.59.86,1.35,1.89a3.81,3.81,0,0,0,2.44,1.39,7.66,7.66,0,0,0,2.16.24,14.46,14.46,0,0,0,1.87-.58q.88-.74,2-1.56a9.16,9.16,0,0,0,1.8-1.83,3.21,3.21,0,0,0,.76-1.64c0-.42-.08-1.58-.26-3.51a3.66,3.66,0,0,1,1.72-.13,9.65,9.65,0,0,0,2.39,0,2.84,2.84,0,0,0,1.74-.57q.33-.42-.27-1.41A46.91,46.91,0,0,0,644.63,475.93Zm-5.3,10.59a3.14,3.14,0,0,1-1.64,0,2.71,2.71,0,0,1-.29-1.59,2.83,2.83,0,0,1,.72-1.39,1.56,1.56,0,0,1,1.25-.66,1.34,1.34,0,0,1,1,.43,3.11,3.11,0,0,1,.54.86,2.56,2.56,0,0,1,.18.93A3,3,0,0,1,639.33,486.52Z"/><path class="bef4a47d-bb89-4050-a01b-e6788749d85e" d="M654.43,458q-3.95-2-7.81-4.17c.72-1.26,1.3-2.3,1.75-3.1a6.11,6.11,0,0,0,.75-2.52,2.76,2.76,0,0,0-2.33-2q-2-.5-2.88.6c-.55,1.54-1.12,2.91-1.69,4.12a14.28,14.28,0,0,0-2.6-2.09,14.62,14.62,0,0,0-2.07-.74,4.08,4.08,0,0,0-2.79.16,9.4,9.4,0,0,0-1.15,3.31,2,2,0,0,0,.62,1.78c.47.4.91.76,1.33,1.08l3.82,1.62a4.77,4.77,0,0,1-1.64,1.91,4.29,4.29,0,0,0-1.57,2.25,3,3,0,0,0-.1,2.19,2.09,2.09,0,0,0,.9,1l1.46.69a2.69,2.69,0,0,0,2.2-.05,3.69,3.69,0,0,0,2-2c.48-1,1-2,1.43-3l9.82,4.65a9.85,9.85,0,0,0,1.91,1.9,5.44,5.44,0,0,0,2.31.76,5.35,5.35,0,0,0,3-.49,2.32,2.32,0,0,0,.6-1.5c0-.51-.56-1.35-1.66-2.49A21.86,21.86,0,0,0,654.43,458Z"/><path class="bef4a47d-bb89-4050-a01b-e6788749d85e" d="M669.26,429.47a7.49,7.49,0,0,0-1.26-2.4,8,8,0,0,0-2-1.88,6,6,0,0,0-2.29-.93,10.19,10.19,0,0,0-2.08-.15,2.25,2.25,0,0,0-1.32.35,1.64,1.64,0,0,0-.39,1.2,2.92,2.92,0,0,0,.29,1.52,6,6,0,0,0,1.18,1.43,9.94,9.94,0,0,0,1.42,1.13,3.08,3.08,0,0,1,1,1.15,2.48,2.48,0,0,1,.11,2,3.86,3.86,0,0,1-1,1.78,6.72,6.72,0,0,1-1.75,1.08c-.72.32-2,.26-3.79-.17a6.14,6.14,0,0,1-.43-2.67,9,9,0,0,0,.31-1.71,11.87,11.87,0,0,0-.24-3.08,18.66,18.66,0,0,0-.68-2.89,3,3,0,0,0-1.4-1.52,7.09,7.09,0,0,0-3.12.23,11.58,11.58,0,0,0-3,1.67,7.59,7.59,0,0,0-2.53,3.22,11.84,11.84,0,0,0-.92,4.36,7.06,7.06,0,0,0,.12,3.55,9.18,9.18,0,0,0,1.61,3,6.06,6.06,0,0,0,2.81,2,21.84,21.84,0,0,0,4.4.91,33.81,33.81,0,0,0,6.11.09,19.5,19.5,0,0,0,5-.79,5,5,0,0,0,2.56-2.31,15.3,15.3,0,0,0,1.53-5.42A15.62,15.62,0,0,0,669.26,429.47Zm-17.8,6.79a1.61,1.61,0,0,1-1.15-.82,9.25,9.25,0,0,1-.43-1.81,6.63,6.63,0,0,1,.09-2.51,3.07,3.07,0,0,1,.87-1.71,2.45,2.45,0,0,1,1.86-.29,47,47,0,0,1,.68,7.09A3.24,3.24,0,0,1,651.46,436.26Z"/><path class="bef4a47d-bb89-4050-a01b-e6788749d85e" d="M541.87,404.4c6.39,0,6.4-9.94,0-9.94S535.46,404.4,541.87,404.4Z"/><path class="bef4a47d-bb89-4050-a01b-e6788749d85e" d="M649.12,404.05c6.4,0,6.41-9.94,0-9.94S642.72,404.05,649.12,404.05Z"/><path class="bef4a47d-bb89-4050-a01b-e6788749d85e" d="M596.8,467.16a38.46,38.46,0,0,0,17.67-4.87,38,38,0,0,0,13.35-12.69,40,40,0,0,0,.09-35.87,36.4,36.4,0,0,0-5.67-7.48c-.21-.21-.45-.38-.67-.58a1.38,1.38,0,0,0-1-.86,50,50,0,0,0-6.05-3.86,35.65,35.65,0,0,0-8.47-3.91A36.35,36.35,0,0,0,596.8,396a35.91,35.91,0,0,0-9.28,1.08c-3,.81-5.67,2.59-8.33,4.13a35.2,35.2,0,0,0-7.43,5.47c-2.42,2.41-9.49,7.88-3.59,10.68,1.35.64,2.69.91,4,1.65.8.46,1.6.89,2.42,1.3a25.12,25.12,0,0,0-2.93,4.23c-1.06,1.95-2.92,5.24-2.28,7.55.75,2.71,4.33,3,6.64,3.28a29,29,0,0,0,5.66.18,38.85,38.85,0,0,0-.73,7.84,41.11,41.11,0,0,0,1,8.77c.79,3.54,2.23,10.13,4.81,12.78a5.89,5.89,0,0,0,1.79,1.21C591,467.23,594.44,467.16,596.8,467.16ZM622.32,417a29.27,29.27,0,0,1,2.57,7.15,29,29,0,0,1,1.39,7.53,42.85,42.85,0,0,1-4,14.68,30.19,30.19,0,0,1-4.85,5.9,29.42,29.42,0,0,1-6.1,4.5,28.41,28.41,0,0,1-7,2.87c-.63.17-1.26.32-1.89.46,5.81-4.53,9.72-11.43,12.89-18.34C619.06,433.51,621.83,425.52,622.32,417Zm-46.05-5.85a43.81,43.81,0,0,1,12.92-7.87,29.33,29.33,0,0,1,7.61-.89,29.82,29.82,0,0,1,7.61.88,24.06,24.06,0,0,1,5.48,2.38c-7.26,2.55-13.79,6.06-18.9,11.46h-.09a24.83,24.83,0,0,1-16.82-3.79C574.8,412.58,575.54,411.86,576.27,411.14Zm6.85,18.26a23,23,0,0,1-7.13-.14c.09-.22.16-.44.26-.65a22.93,22.93,0,0,1,1.15-2.12,21.27,21.27,0,0,1,3.27-4c2.52.72,5.31,1.34,5.7.69-.62,1-1.21,2.08-1.75,3.2-.44.95-.84,1.91-1.21,2.88Zm7.51-1.61c4.38-8.27,11.24-12.74,19.22-15.78a63.26,63.26,0,0,0-20.12,45C585.87,447.59,585.75,437,590.63,427.79Zm2.74,32.65c-1-.17.92-12.88,1.17-14.11a60.29,60.29,0,0,1,4.57-13.68c3.83-8.07,10.22-17.51,18.14-22,3.08,3.58,1.29,10.2.34,14.27a79.62,79.62,0,0,1-5.41,15c-4,8.63-8.91,17.44-18.09,20.62Z"/><path class="b9d75f46-1cc2-4f20-a607-b77639033294" d="M655.41,182a2.41,2.41,0,0,0-.88.63,6.06,6.06,0,0,0-1.1,2.16A93.05,93.05,0,0,1,647,198.9a4.38,4.38,0,0,0-.69,1.86c-.15,3.31,4.81,2.44,6,.59a35.75,35.75,0,0,0,5.63-16.24c.08-1.22-.07-2.74-1.21-3.19A1.68,1.68,0,0,0,655.41,182Z"/><path class="b9d75f46-1cc2-4f20-a607-b77639033294" d="M577.13,182a2.45,2.45,0,0,0-.89.63,6.4,6.4,0,0,0-1.1,2.16,93,93,0,0,1-6.47,14.14,4.27,4.27,0,0,0-.7,1.86c-.14,3.31,4.82,2.44,6,.59a35.52,35.52,0,0,0,5.63-16.24c.09-1.22-.06-2.74-1.2-3.19A1.68,1.68,0,0,0,577.13,182Z"/></svg>