<svg id="Light" xmlns="http://www.w3.org/2000/svg" width="1200" height="600" viewBox="0 0 1200 600">
  <metadata><?xpacket begin="﻿" id="W5M0MpCehiHzreSzNTczkc9d"?>
<x:xmpmeta xmlns:x="adobe:ns:meta/" x:xmptk="Adobe XMP Core 5.6-c138 79.159824, 2016/09/14-01:09:01        ">
   <rdf:RDF xmlns:rdf="http://www.w3.org/1999/02/22-rdf-syntax-ns#">
      <rdf:Description rdf:about=""/>
   </rdf:RDF>
</x:xmpmeta>
                                                                                                    
                                                                                                    
                                                                                                    
                                                                                                    
                                                                                                    
                                                                                                    
                                                                                                    
                                                                                                    
                                                                                                    
                                                                                                    
                                                                                                    
                                                                                                    
                                                                                                    
                                                                                                    
                                                                                                    
                                                                                                    
                                                                                                    
                                                                                                    
                                                                                                    
                                                                                                    
                           
<?xpacket end="w"?></metadata>
<defs>
    <style>
      .cls-1 {
        fill: #fff;
      }

      .cls-2 {
        fill: #29303a;
      }

      .cls-2, .cls-3 {
        fill-rule: evenodd;
      }

      .cls-3 {
        fill: #27b67d;
      }

      .cls-4 {
        fill: #fbae18;
      }

      .cls-5 {
        fill: #ce4527;
      }
    </style>
  </defs>
  <rect id="Background" class="cls-1" width="1200" height="600"/>
  <path id="Rasta" class="cls-2" d="M805.731,338H816.8v-0.645l-18.369-33.193a23.565,23.565,0,0,0,10.984-8.11,21.058,21.058,0,0,0,3.947-12.73q0-11.493-7.116-17.509t-20.33-6.016H760.023V338H770.39V306.364h18.369ZM770.39,268.229h15.791q8.163,0.056,12.487,3.929t4.324,11.137a13.466,13.466,0,0,1-4.538,10.655q-4.54,3.983-12.22,3.982H770.39v-29.7ZM872.548,338v-0.859q-2.042-4.727-2.041-12.73V297.663q-0.216-8.808-5.908-13.83t-15.738-5.022a28.192,28.192,0,0,0-11.628,2.363,21.087,21.087,0,0,0-8.379,6.418A13.715,13.715,0,0,0,825.766,296h9.99a7.914,7.914,0,0,1,3.6-6.5,14.494,14.494,0,0,1,8.917-2.686q6.068,0,9.184,3.089a11.163,11.163,0,0,1,3.115,8.3v4.566H850.9q-12.515,0-19.416,5.022t-6.9,14.1a15.725,15.725,0,0,0,5.505,12.326q5.5,4.861,14.1,4.861a22.166,22.166,0,0,0,16.543-7.2,20.867,20.867,0,0,0,1.4,6.123h10.42Zm-34.912-10.2a9.045,9.045,0,0,1-3.115-7.305q0-10.687,18.261-10.688h7.788v11.924a14.627,14.627,0,0,1-6.069,6.284,17.467,17.467,0,0,1-8.862,2.417A11.969,11.969,0,0,1,837.636,327.8Zm78.874,0.886a16.014,16.014,0,0,1-9.05,2.283q-6.123,0-9.856-2.927a10.285,10.285,0,0,1-4-7.923h-9.937A16.629,16.629,0,0,0,886.7,329.7a20.081,20.081,0,0,0,8.4,6.9,29.285,29.285,0,0,0,12.354,2.47q9.936,0,16.167-4.7a14.875,14.875,0,0,0,6.23-12.488,13.67,13.67,0,0,0-2.229-7.923,17.6,17.6,0,0,0-6.848-5.559,53.645,53.645,0,0,0-12.058-3.974q-7.44-1.665-10.285-3.492a6.022,6.022,0,0,1-2.847-5.424,7.44,7.44,0,0,1,3.061-6.177q3.062-2.363,8.487-2.363a12.983,12.983,0,0,1,8.728,2.954,8.971,8.971,0,0,1,3.464,7.036h9.99a16.208,16.208,0,0,0-6.15-13.052q-6.15-5.1-16.032-5.1-9.4,0-15.442,4.941t-6.043,12.085a12.84,12.84,0,0,0,2.122,7.412,17.038,17.038,0,0,0,6.553,5.371,50.005,50.005,0,0,0,11.977,3.867q7.547,1.613,10.581,3.841a7.314,7.314,0,0,1,3.035,6.257A7.012,7.012,0,0,1,916.51,328.681Zm29.837-62.868v14.072H935.766v7.68h10.581v36.04q0,7.413,3.383,11.441t10.044,4.028a29,29,0,0,0,7.627-1.067V330a24.042,24.042,0,0,1-4.726.645q-3.492,0-4.942-1.748a8.071,8.071,0,0,1-1.45-5.243V287.565h10.85v-7.68h-10.85V265.813h-9.936ZM1025.03,338v-0.859q-2.04-4.727-2.04-12.73V297.663q-0.21-8.808-5.91-13.83t-15.73-5.022a28.2,28.2,0,0,0-11.632,2.363,21.087,21.087,0,0,0-8.379,6.418A13.715,13.715,0,0,0,978.251,296h9.99a7.913,7.913,0,0,1,3.6-6.5,14.493,14.493,0,0,1,8.92-2.686q6.06,0,9.18,3.089a11.15,11.15,0,0,1,3.12,8.3v4.566h-9.67q-12.519,0-19.419,5.022t-6.9,14.1a15.723,15.723,0,0,0,5.506,12.326q5.5,4.861,14.1,4.861a22.181,22.181,0,0,0,16.546-7.2,20.755,20.755,0,0,0,1.39,6.123h10.42Zm-34.909-10.2a9.045,9.045,0,0,1-3.115-7.305q0-10.687,18.264-10.688h7.79v11.924a14.681,14.681,0,0,1-6.07,6.284,17.5,17.5,0,0,1-8.866,2.417A11.969,11.969,0,0,1,990.121,327.8Z"/>
  <path id="React" class="cls-2" d="M219.731,338H230.8v-0.645l-18.369-33.193a23.565,23.565,0,0,0,10.984-8.11,21.058,21.058,0,0,0,3.947-12.73q0-11.493-7.116-17.509t-20.33-6.016H174.023V338H184.39V306.364h18.369ZM184.39,268.229h15.791q8.163,0.056,12.487,3.929t4.324,11.137a13.466,13.466,0,0,1-4.538,10.655q-4.541,3.983-12.22,3.982H184.39v-29.7Zm101.889,59.62-6.069-4.727a22.384,22.384,0,0,1-6.392,5.693,17.3,17.3,0,0,1-8.916,2.149,15.782,15.782,0,0,1-12.219-5.291q-4.807-5.289-5.022-13.884h39.37v-4.136q0-13.91-6.284-21.377t-17.617-7.465a23.228,23.228,0,0,0-12.864,3.84,25.761,25.761,0,0,0-9.238,10.635,34.877,34.877,0,0,0-3.3,15.442v1.826q0,13,7.412,20.759t19.228,7.761q14.61,0,21.914-11.225h0Zm-13.266-36.712q3.651,4.164,4.082,11.736v0.752H247.983q0.967-7.9,5.049-12.273a13.254,13.254,0,0,1,10.1-4.377A12.484,12.484,0,0,1,273.013,291.137ZM344.824,338v-0.859q-2.041-4.727-2.041-12.73V297.663q-0.215-8.808-5.908-13.83t-15.737-5.022a28.2,28.2,0,0,0-11.629,2.363,21.087,21.087,0,0,0-8.379,6.418A13.715,13.715,0,0,0,298.042,296h9.99a7.913,7.913,0,0,1,3.6-6.5,14.489,14.489,0,0,1,8.916-2.686q6.069,0,9.184,3.089a11.159,11.159,0,0,1,3.116,8.3v4.566h-9.668q-12.516,0-19.417,5.022t-6.9,14.1a15.723,15.723,0,0,0,5.506,12.326q5.5,4.861,14.1,4.861a22.168,22.168,0,0,0,16.543-7.2A20.841,20.841,0,0,0,334.4,338h10.42Zm-34.912-10.2a9.045,9.045,0,0,1-3.115-7.305q0-10.687,18.262-10.688h7.788v11.924a14.63,14.63,0,0,1-6.07,6.284,17.467,17.467,0,0,1-8.862,2.417A11.969,11.969,0,0,1,309.912,327.8Zm59.942-2.256q-4.137-5.424-4.136-15.469v-1.88q0-10.312,4.162-15.764t11.736-5.451a13.282,13.282,0,0,1,9.48,3.625,13.7,13.7,0,0,1,4.27,9.265h9.4a20.929,20.929,0,0,0-6.9-15.2q-6.474-5.853-16.248-5.854a25.4,25.4,0,0,0-13.777,3.652,23.726,23.726,0,0,0-8.943,10.259,34.982,34.982,0,0,0-3.115,15.092v1.665q0,13.751,7.01,21.673t18.879,7.922a24.42,24.42,0,0,0,11.2-2.685,22.646,22.646,0,0,0,8.459-7.2,18.028,18.028,0,0,0,3.438-9.506h-9.4a11.341,11.341,0,0,1-4.4,8.056,14.31,14.31,0,0,1-9.292,3.223Q373.988,330.964,369.854,325.539Zm49.628-59.726v14.072H408.9v7.68h10.581v36.04q0,7.413,3.384,11.441t10.044,4.028a29,29,0,0,0,7.627-1.067V330a24.051,24.051,0,0,1-4.726.645q-3.492,0-4.942-1.748a8.065,8.065,0,0,1-1.45-5.243V287.565h10.85v-7.68h-10.85V265.813h-9.937Z"/>
  <path id="Signet_Green" data-name="Signet Green" class="cls-3" d="M576,292h44l60,88H576V292Z"/>
  <rect id="Signet_Yellow" data-name="Signet Yellow" class="cls-4" x="576" y="220" width="104" height="72"/>
  <rect id="Signet_Red" data-name="Signet Red" class="cls-5" x="520" y="220" width="56" height="160"/>
</svg>
