<svg width="1104" height="416" viewBox="0 0 1104 416" fill="none" xmlns="http://www.w3.org/2000/svg">
<g clip-path="url(#clip0_2275_3339)">
<g filter="url(#filter0_b_2275_3339)">
<g clip-path="url(#clip1_2275_3339)">
<rect x="487" y="383" width="117" height="33" rx="16.5" fill="#0C0C23"/>
<rect x="487" y="383" width="117" height="33" rx="16.5" fill="url(#paint0_linear_2275_3339)" fill-opacity="0.04"/>
<g filter="url(#filter1_f_2275_3339)">
<ellipse cx="557.328" cy="399.499" rx="64.3329" ry="35.7282" transform="rotate(168.073 557.328 399.499)" fill="url(#paint1_linear_2275_3339)"/>
</g>
<path d="M497.907 391.654L500.612 403.324L503.855 391.654H505.964L509.206 403.324L511.911 391.654H514.04L510.271 406H508.23L504.919 394.105L501.589 406H499.548L495.798 391.654H497.907ZM519.461 404.867C520.627 404.867 521.424 404.428 521.854 403.549C522.29 402.663 522.508 401.68 522.508 400.6C522.508 399.623 522.352 398.829 522.039 398.217C521.545 397.253 520.692 396.771 519.481 396.771C518.407 396.771 517.625 397.182 517.137 398.002C516.649 398.822 516.405 399.812 516.405 400.971C516.405 402.084 516.649 403.012 517.137 403.754C517.625 404.496 518.4 404.867 519.461 404.867ZM519.53 395.238C520.877 395.238 522.017 395.688 522.948 396.586C523.879 397.484 524.344 398.806 524.344 400.551C524.344 402.237 523.934 403.63 523.114 404.73C522.293 405.831 521.021 406.381 519.295 406.381C517.857 406.381 516.714 405.896 515.868 404.926C515.021 403.949 514.598 402.641 514.598 401C514.598 399.242 515.044 397.842 515.936 396.801C516.828 395.759 518.026 395.238 519.53 395.238ZM526.543 395.541H528.212V397.348C528.349 396.996 528.685 396.57 529.218 396.068C529.752 395.561 530.367 395.307 531.064 395.307C531.097 395.307 531.152 395.31 531.23 395.316C531.308 395.323 531.442 395.336 531.63 395.355V397.211C531.526 397.191 531.429 397.178 531.337 397.172C531.253 397.165 531.158 397.162 531.054 397.162C530.169 397.162 529.489 397.449 529.013 398.021C528.538 398.588 528.3 399.242 528.3 399.984V406H526.543V395.541ZM533.165 391.654H534.854V399.984L539.366 395.541H541.612L537.608 399.457L541.837 406H539.591L536.329 400.727L534.854 402.074V406H533.165V391.654ZM544.299 402.719C544.351 403.305 544.497 403.754 544.738 404.066C545.181 404.633 545.949 404.916 547.043 404.916C547.694 404.916 548.267 404.776 548.762 404.496C549.257 404.21 549.504 403.77 549.504 403.178C549.504 402.729 549.305 402.387 548.908 402.152C548.654 402.009 548.153 401.843 547.404 401.654L546.008 401.303C545.116 401.081 544.458 400.834 544.035 400.561C543.28 400.085 542.902 399.428 542.902 398.588C542.902 397.598 543.257 396.798 543.967 396.186C544.683 395.574 545.643 395.268 546.848 395.268C548.423 395.268 549.559 395.73 550.256 396.654C550.692 397.24 550.904 397.872 550.891 398.549H549.23C549.198 398.152 549.058 397.79 548.811 397.465C548.407 397.003 547.707 396.771 546.711 396.771C546.047 396.771 545.542 396.898 545.197 397.152C544.859 397.406 544.689 397.742 544.689 398.158C544.689 398.614 544.914 398.979 545.363 399.252C545.624 399.415 546.008 399.558 546.516 399.682L547.678 399.965C548.941 400.271 549.787 400.567 550.217 400.854C550.9 401.303 551.242 402.009 551.242 402.973C551.242 403.904 550.887 404.708 550.178 405.385C549.475 406.062 548.4 406.4 546.955 406.4C545.399 406.4 544.296 406.049 543.645 405.346C543 404.636 542.655 403.76 542.609 402.719H544.299ZM557.718 404.818C558.538 404.818 559.219 404.477 559.759 403.793C560.306 403.103 560.579 402.074 560.579 400.707C560.579 399.874 560.459 399.158 560.218 398.559C559.762 397.406 558.929 396.83 557.718 396.83C556.501 396.83 555.667 397.439 555.218 398.656C554.977 399.307 554.857 400.134 554.857 401.137C554.857 401.944 554.977 402.631 555.218 403.197C555.674 404.278 556.507 404.818 557.718 404.818ZM553.167 395.59H554.876V396.977C555.228 396.501 555.612 396.133 556.029 395.873C556.621 395.482 557.318 395.287 558.118 395.287C559.303 395.287 560.309 395.743 561.136 396.654C561.963 397.559 562.376 398.855 562.376 400.541C562.376 402.82 561.78 404.447 560.589 405.424C559.834 406.042 558.955 406.352 557.952 406.352C557.165 406.352 556.504 406.179 555.97 405.834C555.657 405.639 555.309 405.303 554.925 404.828V410.17H553.167V395.59ZM565.834 403.217C565.834 403.725 566.02 404.125 566.391 404.418C566.762 404.711 567.202 404.857 567.709 404.857C568.328 404.857 568.927 404.714 569.506 404.428C570.483 403.952 570.971 403.174 570.971 402.094V400.678C570.756 400.814 570.48 400.928 570.141 401.02C569.802 401.111 569.47 401.176 569.145 401.215L568.08 401.352C567.442 401.436 566.964 401.57 566.645 401.752C566.105 402.058 565.834 402.546 565.834 403.217ZM570.092 399.662C570.496 399.61 570.766 399.441 570.903 399.154C570.981 398.998 571.02 398.773 571.02 398.48C571.02 397.882 570.805 397.449 570.375 397.182C569.952 396.908 569.343 396.771 568.549 396.771C567.631 396.771 566.98 397.019 566.596 397.514C566.381 397.787 566.241 398.194 566.176 398.734H564.536C564.568 397.445 564.985 396.55 565.786 396.049C566.593 395.541 567.527 395.287 568.588 395.287C569.819 395.287 570.818 395.521 571.586 395.99C572.348 396.459 572.729 397.188 572.729 398.178V404.203C572.729 404.385 572.765 404.532 572.836 404.643C572.914 404.753 573.074 404.809 573.315 404.809C573.393 404.809 573.481 404.805 573.579 404.799C573.676 404.786 573.78 404.77 573.891 404.75V406.049C573.618 406.127 573.409 406.176 573.266 406.195C573.123 406.215 572.927 406.225 572.68 406.225C572.075 406.225 571.635 406.01 571.362 405.58C571.218 405.352 571.118 405.03 571.059 404.613C570.701 405.082 570.187 405.489 569.516 405.834C568.845 406.179 568.107 406.352 567.299 406.352C566.329 406.352 565.535 406.059 564.916 405.473C564.304 404.88 563.998 404.141 563.998 403.256C563.998 402.286 564.301 401.534 564.907 401C565.512 400.466 566.306 400.137 567.289 400.014L570.092 399.662ZM579.703 395.238C580.881 395.238 581.838 395.525 582.574 396.098C583.316 396.671 583.762 397.657 583.912 399.057H582.203C582.099 398.412 581.861 397.878 581.49 397.455C581.119 397.025 580.523 396.811 579.703 396.811C578.583 396.811 577.782 397.357 577.3 398.451C576.988 399.161 576.832 400.036 576.832 401.078C576.832 402.126 577.053 403.008 577.496 403.725C577.938 404.441 578.635 404.799 579.586 404.799C580.315 404.799 580.891 404.577 581.314 404.135C581.744 403.686 582.04 403.074 582.203 402.299H583.912C583.716 403.686 583.228 404.701 582.447 405.346C581.666 405.984 580.666 406.303 579.449 406.303C578.082 406.303 576.991 405.805 576.177 404.809C575.364 403.806 574.957 402.556 574.957 401.059C574.957 399.223 575.403 397.794 576.295 396.771C577.186 395.749 578.323 395.238 579.703 395.238ZM590.075 395.307C590.817 395.307 591.537 395.482 592.233 395.834C592.93 396.179 593.46 396.628 593.825 397.182C594.177 397.709 594.411 398.324 594.528 399.027C594.632 399.509 594.684 400.277 594.684 401.332H587.018C587.051 402.393 587.302 403.246 587.77 403.891C588.239 404.529 588.965 404.848 589.948 404.848C590.866 404.848 591.598 404.545 592.145 403.939C592.458 403.588 592.679 403.181 592.809 402.719H594.538C594.492 403.103 594.339 403.533 594.079 404.008C593.825 404.477 593.539 404.861 593.22 405.16C592.686 405.681 592.025 406.033 591.237 406.215C590.814 406.319 590.335 406.371 589.802 406.371C588.499 406.371 587.396 405.899 586.491 404.955C585.586 404.005 585.134 402.676 585.134 400.971C585.134 399.291 585.589 397.927 586.501 396.879C587.412 395.831 588.604 395.307 590.075 395.307ZM592.878 399.936C592.806 399.174 592.64 398.565 592.38 398.109C591.898 397.263 591.094 396.84 589.968 396.84C589.16 396.84 588.483 397.133 587.936 397.719C587.389 398.298 587.1 399.037 587.067 399.936H592.878Z" fill="#F9F9F9"/>
</g>
<rect x="487.5" y="383.5" width="116" height="32" rx="16" stroke="url(#paint2_linear_2275_3339)"/>
<rect x="487.5" y="383.5" width="116" height="32" rx="16" stroke="url(#paint3_linear_2275_3339)"/>
</g>
<g filter="url(#filter2_b_2275_3339)">
<g clip-path="url(#clip2_2275_3339)">
<rect x="360" y="106" width="142" height="32" rx="16" fill="#0C0C23"/>
<rect x="360" y="106" width="142" height="32" rx="16" fill="url(#paint4_linear_2275_3339)" fill-opacity="0.04"/>
<g filter="url(#filter3_f_2275_3339)">
<ellipse cx="430.328" cy="121.999" rx="64.3329" ry="35.7282" transform="rotate(168.073 430.328 121.999)" fill="url(#paint5_linear_2275_3339)"/>
</g>
<path d="M384.25 123.375V121.187C384.25 120.442 383.954 119.726 383.426 119.199C382.899 118.671 382.183 118.375 381.437 118.375H380.187C379.939 118.375 379.7 118.276 379.525 118.1C379.349 117.925 379.25 117.686 379.25 117.437V116.187C379.25 115.442 378.954 114.726 378.426 114.199C377.899 113.671 377.183 113.375 376.437 113.375H374.875M374.875 124H381.125M374.875 126.5H378M376.75 113.375H372.687C372.17 113.375 371.75 113.795 371.75 114.312V128.687C371.75 129.205 372.17 129.625 372.687 129.625H383.312C383.83 129.625 384.25 129.205 384.25 128.687V120.875C384.25 118.886 383.46 116.978 382.053 115.572C380.647 114.165 378.739 113.375 376.75 113.375Z" stroke="#B1A6B1" stroke-width="1.25" stroke-linecap="round" stroke-linejoin="round"/>
<path d="M399.226 126.84C399.883 126.84 400.424 126.771 400.847 126.635C401.602 126.381 402.221 125.893 402.702 125.17C403.086 124.59 403.363 123.848 403.532 122.943C403.63 122.403 403.679 121.902 403.679 121.439C403.679 119.662 403.324 118.282 402.614 117.299C401.911 116.316 400.775 115.824 399.206 115.824H395.759V126.84H399.226ZM393.806 114.154H399.616C401.589 114.154 403.119 114.854 404.206 116.254C405.176 117.517 405.661 119.135 405.661 121.107C405.661 122.631 405.375 124.008 404.802 125.238C403.793 127.413 402.058 128.5 399.597 128.5H393.806V114.154ZM412.137 127.367C413.302 127.367 414.1 126.928 414.53 126.049C414.966 125.163 415.184 124.18 415.184 123.1C415.184 122.123 415.028 121.329 414.715 120.717C414.22 119.753 413.368 119.271 412.157 119.271C411.082 119.271 410.301 119.682 409.813 120.502C409.325 121.322 409.08 122.312 409.08 123.471C409.08 124.584 409.325 125.512 409.813 126.254C410.301 126.996 411.076 127.367 412.137 127.367ZM412.205 117.738C413.553 117.738 414.692 118.188 415.623 119.086C416.554 119.984 417.02 121.306 417.02 123.051C417.02 124.737 416.61 126.13 415.789 127.23C414.969 128.331 413.696 128.881 411.971 128.881C410.532 128.881 409.39 128.396 408.543 127.426C407.697 126.449 407.274 125.141 407.274 123.5C407.274 121.742 407.72 120.342 408.612 119.301C409.504 118.259 410.702 117.738 412.205 117.738ZM423.203 117.738C424.381 117.738 425.338 118.025 426.074 118.598C426.816 119.171 427.262 120.157 427.412 121.557H425.703C425.599 120.912 425.361 120.378 424.99 119.955C424.619 119.525 424.023 119.311 423.203 119.311C422.083 119.311 421.282 119.857 420.8 120.951C420.488 121.661 420.332 122.536 420.332 123.578C420.332 124.626 420.553 125.508 420.996 126.225C421.438 126.941 422.135 127.299 423.086 127.299C423.815 127.299 424.391 127.077 424.814 126.635C425.244 126.186 425.54 125.574 425.703 124.799H427.412C427.216 126.186 426.728 127.201 425.947 127.846C425.166 128.484 424.166 128.803 422.949 128.803C421.582 128.803 420.491 128.305 419.677 127.309C418.864 126.306 418.457 125.056 418.457 123.559C418.457 121.723 418.903 120.294 419.795 119.271C420.686 118.249 421.823 117.738 423.203 117.738ZM430.977 118.041V124.984C430.977 125.518 431.062 125.954 431.231 126.293C431.544 126.918 432.126 127.23 432.979 127.23C434.203 127.23 435.037 126.684 435.479 125.59C435.72 125.004 435.841 124.2 435.841 123.178V118.041H437.598V128.5H435.938L435.958 126.957C435.73 127.354 435.447 127.689 435.108 127.963C434.438 128.51 433.624 128.783 432.667 128.783C431.176 128.783 430.16 128.285 429.62 127.289C429.327 126.755 429.18 126.042 429.18 125.15V118.041H430.977ZM440.402 118.041H442.141V119.525C442.557 119.011 442.935 118.637 443.273 118.402C443.853 118.005 444.51 117.807 445.246 117.807C446.079 117.807 446.75 118.012 447.258 118.422C447.544 118.656 447.805 119.001 448.039 119.457C448.43 118.897 448.889 118.484 449.416 118.217C449.943 117.943 450.536 117.807 451.193 117.807C452.6 117.807 453.557 118.314 454.064 119.33C454.338 119.877 454.475 120.613 454.475 121.537V128.5H452.648V121.234C452.648 120.538 452.473 120.059 452.121 119.799C451.776 119.538 451.353 119.408 450.852 119.408C450.161 119.408 449.566 119.639 449.064 120.102C448.57 120.564 448.322 121.335 448.322 122.416V128.5H446.535V121.674C446.535 120.964 446.451 120.447 446.281 120.121C446.014 119.633 445.516 119.389 444.787 119.389C444.123 119.389 443.518 119.646 442.971 120.16C442.43 120.674 442.16 121.605 442.16 122.953V128.5H440.402V118.041ZM461.468 117.807C462.21 117.807 462.93 117.982 463.626 118.334C464.323 118.679 464.853 119.128 465.218 119.682C465.57 120.209 465.804 120.824 465.921 121.527C466.025 122.009 466.077 122.777 466.077 123.832H458.411C458.444 124.893 458.695 125.746 459.163 126.391C459.632 127.029 460.358 127.348 461.341 127.348C462.259 127.348 462.991 127.045 463.538 126.439C463.851 126.088 464.072 125.681 464.202 125.219H465.931C465.885 125.603 465.732 126.033 465.472 126.508C465.218 126.977 464.932 127.361 464.612 127.66C464.079 128.181 463.418 128.533 462.63 128.715C462.207 128.819 461.728 128.871 461.195 128.871C459.892 128.871 458.789 128.399 457.884 127.455C456.979 126.505 456.527 125.176 456.527 123.471C456.527 121.791 456.982 120.427 457.894 119.379C458.805 118.331 459.997 117.807 461.468 117.807ZM464.271 122.436C464.199 121.674 464.033 121.065 463.773 120.609C463.291 119.763 462.487 119.34 461.361 119.34C460.553 119.34 459.876 119.633 459.329 120.219C458.782 120.798 458.493 121.537 458.46 122.436H464.271ZM468.295 118.041H469.965V119.525C470.46 118.913 470.984 118.474 471.538 118.207C472.091 117.94 472.706 117.807 473.383 117.807C474.868 117.807 475.87 118.324 476.391 119.359C476.677 119.926 476.821 120.736 476.821 121.791V128.5H475.034V121.908C475.034 121.27 474.939 120.756 474.75 120.365C474.438 119.714 473.871 119.389 473.051 119.389C472.635 119.389 472.293 119.431 472.026 119.516C471.544 119.659 471.121 119.945 470.756 120.375C470.463 120.72 470.271 121.078 470.18 121.449C470.095 121.814 470.053 122.338 470.053 123.021V128.5H468.295V118.041ZM479.83 115.121H481.607V118.041H483.277V119.477H481.607V126.303C481.607 126.667 481.731 126.911 481.978 127.035C482.115 127.107 482.343 127.143 482.662 127.143C482.746 127.143 482.837 127.143 482.935 127.143C483.033 127.136 483.147 127.126 483.277 127.113V128.5C483.075 128.559 482.864 128.601 482.642 128.627C482.427 128.653 482.193 128.666 481.939 128.666C481.119 128.666 480.562 128.458 480.269 128.041C479.976 127.618 479.83 127.071 479.83 126.4V119.477H478.414V118.041H479.83V115.121ZM486.139 125.219C486.192 125.805 486.338 126.254 486.579 126.566C487.022 127.133 487.79 127.416 488.884 127.416C489.535 127.416 490.108 127.276 490.602 126.996C491.097 126.71 491.345 126.27 491.345 125.678C491.345 125.229 491.146 124.887 490.749 124.652C490.495 124.509 489.994 124.343 489.245 124.154L487.848 123.803C486.957 123.581 486.299 123.334 485.876 123.061C485.121 122.585 484.743 121.928 484.743 121.088C484.743 120.098 485.098 119.298 485.807 118.686C486.524 118.074 487.484 117.768 488.688 117.768C490.264 117.768 491.4 118.23 492.096 119.154C492.533 119.74 492.744 120.372 492.731 121.049H491.071C491.039 120.652 490.899 120.29 490.651 119.965C490.248 119.503 489.548 119.271 488.552 119.271C487.887 119.271 487.383 119.398 487.038 119.652C486.699 119.906 486.53 120.242 486.53 120.658C486.53 121.114 486.755 121.479 487.204 121.752C487.464 121.915 487.848 122.058 488.356 122.182L489.518 122.465C490.781 122.771 491.628 123.067 492.057 123.354C492.741 123.803 493.083 124.509 493.083 125.473C493.083 126.404 492.728 127.208 492.018 127.885C491.315 128.562 490.241 128.9 488.796 128.9C487.24 128.9 486.136 128.549 485.485 127.846C484.841 127.136 484.496 126.26 484.45 125.219H486.139Z" fill="#F9F9F9"/>
</g>
<rect x="360.5" y="106.5" width="141" height="31" rx="15.5" stroke="url(#paint6_linear_2275_3339)"/>
<rect x="360.5" y="106.5" width="141" height="31" rx="15.5" stroke="url(#paint7_linear_2275_3339)"/>
</g>
<g filter="url(#filter4_b_2275_3339)">
<g clip-path="url(#clip3_2275_3339)">
<rect x="597" y="106" width="130" height="32" rx="16" fill="#0C0C23"/>
<rect x="597" y="106" width="130" height="32" rx="16" fill="url(#paint8_linear_2275_3339)" fill-opacity="0.04"/>
<g filter="url(#filter5_f_2275_3339)">
<ellipse cx="667.328" cy="121.999" rx="64.3329" ry="35.7282" transform="rotate(168.073 667.328 121.999)" fill="url(#paint9_linear_2275_3339)"/>
</g>
<path d="M620 118.166C621.381 118.166 622.5 117.047 622.5 115.666C622.5 114.285 621.381 113.166 620 113.166C618.619 113.166 617.5 114.285 617.5 115.666C617.5 117.047 618.619 118.166 620 118.166Z" stroke="#B1A6B1" stroke-width="1.25" stroke-linecap="round" stroke-linejoin="round"/>
<path d="M610 124C611.381 124 612.5 122.881 612.5 121.5C612.5 120.119 611.381 119 610 119C608.619 119 607.5 120.119 607.5 121.5C607.5 122.881 608.619 124 610 124Z" stroke="#B1A6B1" stroke-width="1.25" stroke-linecap="round" stroke-linejoin="round"/>
<path d="M620 129.834C621.381 129.834 622.5 128.715 622.5 127.334C622.5 125.953 621.381 124.834 620 124.834C618.619 124.834 617.5 125.953 617.5 127.334C617.5 128.715 618.619 129.834 620 129.834Z" stroke="#B1A6B1" stroke-width="1.25" stroke-linecap="round" stroke-linejoin="round"/>
<path d="M612.158 122.758L617.85 126.074" stroke="#B1A6B1" stroke-width="1.25" stroke-linecap="round" stroke-linejoin="round"/>
<path d="M617.842 116.926L612.158 120.242" stroke="#B1A6B1" stroke-width="1.25" stroke-linecap="round" stroke-linejoin="round"/>
<path d="M637.057 113.783C638.405 113.783 639.57 114.044 640.554 114.564C641.979 115.313 642.852 116.625 643.171 118.5H641.247C641.013 117.452 640.527 116.69 639.792 116.215C639.056 115.733 638.128 115.492 637.009 115.492C635.68 115.492 634.561 115.99 633.649 116.986C632.744 117.982 632.292 119.467 632.292 121.439C632.292 123.145 632.666 124.535 633.415 125.609C634.164 126.677 635.384 127.211 637.077 127.211C638.373 127.211 639.443 126.837 640.29 126.088C641.143 125.333 641.579 124.115 641.598 122.436H637.106V120.824H643.405V128.5H642.155L641.686 126.654C641.029 127.377 640.446 127.878 639.938 128.158C639.085 128.64 638.001 128.881 636.686 128.881C634.987 128.881 633.526 128.331 632.302 127.23C630.967 125.85 630.3 123.956 630.3 121.547C630.3 119.145 630.951 117.234 632.253 115.814C633.49 114.46 635.091 113.783 637.057 113.783ZM647.586 125.717C647.586 126.225 647.771 126.625 648.143 126.918C648.514 127.211 648.953 127.357 649.461 127.357C650.079 127.357 650.678 127.214 651.258 126.928C652.234 126.452 652.723 125.674 652.723 124.594V123.178C652.508 123.314 652.231 123.428 651.893 123.52C651.554 123.611 651.222 123.676 650.896 123.715L649.832 123.852C649.194 123.936 648.715 124.07 648.396 124.252C647.856 124.558 647.586 125.046 647.586 125.717ZM651.844 122.162C652.247 122.11 652.518 121.941 652.654 121.654C652.732 121.498 652.771 121.273 652.771 120.98C652.771 120.382 652.557 119.949 652.127 119.682C651.704 119.408 651.095 119.271 650.301 119.271C649.383 119.271 648.732 119.519 648.348 120.014C648.133 120.287 647.993 120.694 647.928 121.234H646.287C646.32 119.945 646.736 119.05 647.537 118.549C648.344 118.041 649.279 117.787 650.34 117.787C651.57 117.787 652.57 118.021 653.338 118.49C654.1 118.959 654.48 119.688 654.48 120.678V126.703C654.48 126.885 654.516 127.032 654.588 127.143C654.666 127.253 654.826 127.309 655.066 127.309C655.145 127.309 655.232 127.305 655.33 127.299C655.428 127.286 655.532 127.27 655.643 127.25V128.549C655.369 128.627 655.161 128.676 655.018 128.695C654.874 128.715 654.679 128.725 654.432 128.725C653.826 128.725 653.387 128.51 653.113 128.08C652.97 127.852 652.869 127.53 652.811 127.113C652.452 127.582 651.938 127.989 651.268 128.334C650.597 128.679 649.858 128.852 649.051 128.852C648.081 128.852 647.286 128.559 646.668 127.973C646.056 127.38 645.75 126.641 645.75 125.756C645.75 124.786 646.053 124.034 646.658 123.5C647.264 122.966 648.058 122.637 649.041 122.514L651.844 122.162ZM657.773 115.121H659.55V118.041H661.22V119.477H659.55V126.303C659.55 126.667 659.674 126.911 659.921 127.035C660.058 127.107 660.286 127.143 660.605 127.143C660.689 127.143 660.78 127.143 660.878 127.143C660.976 127.136 661.09 127.126 661.22 127.113V128.5C661.018 128.559 660.807 128.601 660.585 128.627C660.37 128.653 660.136 128.666 659.882 128.666C659.062 128.666 658.505 128.458 658.212 128.041C657.919 127.618 657.773 127.071 657.773 126.4V119.477H656.357V118.041H657.773V115.121ZM667.393 117.807C668.135 117.807 668.855 117.982 669.551 118.334C670.248 118.679 670.778 119.128 671.143 119.682C671.495 120.209 671.729 120.824 671.846 121.527C671.95 122.009 672.002 122.777 672.002 123.832H664.336C664.369 124.893 664.62 125.746 665.088 126.391C665.557 127.029 666.283 127.348 667.266 127.348C668.184 127.348 668.916 127.045 669.463 126.439C669.776 126.088 669.997 125.681 670.127 125.219H671.856C671.81 125.603 671.657 126.033 671.397 126.508C671.143 126.977 670.857 127.361 670.538 127.66C670.004 128.181 669.343 128.533 668.555 128.715C668.132 128.819 667.653 128.871 667.12 128.871C665.817 128.871 664.714 128.399 663.809 127.455C662.904 126.505 662.452 125.176 662.452 123.471C662.452 121.791 662.907 120.427 663.819 119.379C664.73 118.331 665.922 117.807 667.393 117.807ZM670.196 122.436C670.124 121.674 669.958 121.065 669.698 120.609C669.216 119.763 668.412 119.34 667.286 119.34C666.478 119.34 665.801 119.633 665.254 120.219C664.707 120.798 664.418 121.537 664.385 122.436H670.196ZM675.031 118.041L677.043 126.283L679.084 118.041H681.056L683.107 126.234L685.246 118.041H687.004L683.966 128.5H682.14L680.011 120.404L677.951 128.5H676.125L673.107 118.041H675.031ZM690.071 125.717C690.071 126.225 690.257 126.625 690.628 126.918C690.999 127.211 691.438 127.357 691.946 127.357C692.565 127.357 693.164 127.214 693.743 126.928C694.72 126.452 695.208 125.674 695.208 124.594V123.178C694.993 123.314 694.716 123.428 694.378 123.52C694.039 123.611 693.707 123.676 693.382 123.715L692.317 123.852C691.679 123.936 691.201 124.07 690.882 124.252C690.341 124.558 690.071 125.046 690.071 125.717ZM694.329 122.162C694.733 122.11 695.003 121.941 695.139 121.654C695.218 121.498 695.257 121.273 695.257 120.98C695.257 120.382 695.042 119.949 694.612 119.682C694.189 119.408 693.58 119.271 692.786 119.271C691.868 119.271 691.217 119.519 690.833 120.014C690.618 120.287 690.478 120.694 690.413 121.234H688.772C688.805 119.945 689.221 119.05 690.022 118.549C690.83 118.041 691.764 117.787 692.825 117.787C694.055 117.787 695.055 118.021 695.823 118.49C696.585 118.959 696.966 119.688 696.966 120.678V126.703C696.966 126.885 697.001 127.032 697.073 127.143C697.151 127.253 697.311 127.309 697.552 127.309C697.63 127.309 697.718 127.305 697.815 127.299C697.913 127.286 698.017 127.27 698.128 127.25V128.549C697.854 128.627 697.646 128.676 697.503 128.695C697.36 128.715 697.164 128.725 696.917 128.725C696.311 128.725 695.872 128.51 695.598 128.08C695.455 127.852 695.354 127.53 695.296 127.113C694.938 127.582 694.423 127.989 693.753 128.334C693.082 128.679 692.343 128.852 691.536 128.852C690.566 128.852 689.772 128.559 689.153 127.973C688.541 127.38 688.235 126.641 688.235 125.756C688.235 124.786 688.538 124.034 689.143 123.5C689.749 122.966 690.543 122.637 691.526 122.514L694.329 122.162ZM706.439 118.041H708.383C708.135 118.712 707.585 120.242 706.732 122.631C706.094 124.428 705.561 125.893 705.131 127.025C704.115 129.695 703.399 131.322 702.982 131.908C702.566 132.494 701.85 132.787 700.834 132.787C700.587 132.787 700.395 132.777 700.258 132.758C700.128 132.738 699.965 132.702 699.77 132.65V131.049C700.076 131.133 700.297 131.186 700.434 131.205C700.57 131.225 700.691 131.234 700.795 131.234C701.12 131.234 701.358 131.179 701.508 131.068C701.664 130.964 701.794 130.834 701.898 130.678C701.931 130.626 702.048 130.359 702.25 129.877C702.452 129.395 702.598 129.037 702.689 128.803L698.822 118.041H700.814L703.617 126.557L706.439 118.041ZM711.001 125.219C711.053 125.805 711.2 126.254 711.441 126.566C711.883 127.133 712.652 127.416 713.745 127.416C714.396 127.416 714.969 127.276 715.464 126.996C715.959 126.71 716.206 126.27 716.206 125.678C716.206 125.229 716.008 124.887 715.611 124.652C715.357 124.509 714.855 124.343 714.107 124.154L712.71 123.803C711.818 123.581 711.161 123.334 710.738 123.061C709.982 122.585 709.605 121.928 709.605 121.088C709.605 120.098 709.96 119.298 710.669 118.686C711.385 118.074 712.346 117.768 713.55 117.768C715.126 117.768 716.262 118.23 716.958 119.154C717.394 119.74 717.606 120.372 717.593 121.049H715.933C715.9 120.652 715.76 120.29 715.513 119.965C715.109 119.503 714.409 119.271 713.413 119.271C712.749 119.271 712.245 119.398 711.9 119.652C711.561 119.906 711.392 120.242 711.392 120.658C711.392 121.114 711.616 121.479 712.066 121.752C712.326 121.915 712.71 122.058 713.218 122.182L714.38 122.465C715.643 122.771 716.489 123.067 716.919 123.354C717.603 123.803 717.945 124.509 717.945 125.473C717.945 126.404 717.59 127.208 716.88 127.885C716.177 128.562 715.103 128.9 713.657 128.9C712.101 128.9 710.998 128.549 710.347 127.846C709.702 127.136 709.357 126.26 709.312 125.219H711.001Z" fill="#F9F9F9"/>
</g>
<rect x="597.5" y="106.5" width="129" height="31" rx="15.5" stroke="url(#paint10_linear_2275_3339)"/>
</g>
<g filter="url(#filter6_d_2275_3339)">
<path d="M546 383C546 258.002 1022 292.287 1022 175.459C1022 160.669 1022 152.376 1022 137.585M546 383C546 258.002 868.728 188.779 868.728 71.9513L868.728 32M546 383C546 258.002 661.192 254.413 661.192 137.585" stroke="#E38CDB"/>
</g>
<g filter="url(#filter7_d_2275_3339)">
<path d="M545 383C545 258.002 70 292.287 70 175.459C70 160.669 70 152.376 70 137.585M545 383C545 258.002 222.95 188.779 222.95 71.9513L222.95 32M545 383C545 258.002 430.05 254.413 430.05 137.585" stroke="#E38CDB"/>
</g>
<g filter="url(#filter8_b_2275_3339)">
<g clip-path="url(#clip4_2275_3339)">
<rect x="804" width="123" height="32" rx="16" fill="#0C0C23"/>
<rect x="804" width="123" height="32" rx="16" fill="url(#paint11_linear_2275_3339)" fill-opacity="0.04"/>
<g filter="url(#filter9_f_2275_3339)">
<ellipse cx="874.328" cy="15.9991" rx="64.3329" ry="35.7282" transform="rotate(168.073 874.328 15.9991)" fill="url(#paint12_linear_2275_3339)"/>
</g>
<path d="M815.954 8C814.991 10.3829 814.497 12.9297 814.5 15.5C814.5 18.1525 815.017 20.6833 815.954 23M828.25 8C829.056 10.3167 829.5 12.8475 829.5 15.5C829.5 18.1525 829.056 20.6833 828.25 23M818.875 12.9042L820.078 12.1625C820.159 12.1131 820.249 12.0824 820.343 12.0729C820.436 12.0633 820.531 12.0751 820.62 12.1073C820.708 12.1396 820.788 12.1914 820.854 12.259C820.92 12.3265 820.969 12.4081 820.999 12.4975L823.001 18.5025C823.031 18.5917 823.08 18.6731 823.146 18.7405C823.212 18.8079 823.292 18.8595 823.38 18.8917C823.469 18.9238 823.563 18.9355 823.657 18.926C823.75 18.9165 823.841 18.8859 823.921 18.8367L825.125 18.0958M818.25 18.7208L818.428 18.7958C818.729 18.9237 819.066 18.9422 819.379 18.8484C819.693 18.7545 819.964 18.5541 820.146 18.2817L823.854 12.7183C824.036 12.4459 824.307 12.2454 824.621 12.1514C824.934 12.0574 825.271 12.0757 825.573 12.2033L825.75 12.2783" stroke="#B1A6B1" stroke-width="1.25" stroke-linecap="round" stroke-linejoin="round"/>
<path d="M838.98 8.1543L843.101 20.3711L847.173 8.1543H849.351L844.116 22.5H842.056L836.831 8.1543H838.98ZM850.866 19.7168C850.866 20.2246 851.051 20.625 851.422 20.918C851.793 21.2109 852.233 21.3574 852.741 21.3574C853.359 21.3574 853.958 21.2142 854.537 20.9277C855.514 20.4525 856.002 19.6745 856.002 18.5938V17.1777C855.787 17.3145 855.511 17.4284 855.172 17.5195C854.834 17.6107 854.502 17.6758 854.176 17.7148L853.112 17.8516C852.474 17.9362 851.995 18.0697 851.676 18.252C851.136 18.5579 850.866 19.0462 850.866 19.7168ZM855.123 16.1621C855.527 16.11 855.797 15.9408 855.934 15.6543C856.012 15.498 856.051 15.2734 856.051 14.9805C856.051 14.3815 855.836 13.9486 855.407 13.6816C854.983 13.4082 854.375 13.2715 853.58 13.2715C852.662 13.2715 852.011 13.5189 851.627 14.0137C851.412 14.2871 851.273 14.694 851.207 15.2344H849.567C849.599 13.9453 850.016 13.0501 850.817 12.5488C851.624 12.041 852.558 11.7871 853.62 11.7871C854.85 11.7871 855.849 12.0215 856.618 12.4902C857.379 12.959 857.76 13.6882 857.76 14.6777V20.7031C857.76 20.8854 857.796 21.0319 857.868 21.1426C857.946 21.2533 858.105 21.3086 858.346 21.3086C858.424 21.3086 858.512 21.3053 858.61 21.2988C858.707 21.2858 858.812 21.2695 858.922 21.25V22.5488C858.649 22.627 858.44 22.6758 858.297 22.6953C858.154 22.7148 857.959 22.7246 857.711 22.7246C857.106 22.7246 856.666 22.5098 856.393 22.0801C856.25 21.8522 856.149 21.5299 856.09 21.1133C855.732 21.582 855.218 21.9889 854.547 22.334C853.877 22.679 853.138 22.8516 852.33 22.8516C851.36 22.8516 850.566 22.5586 849.948 21.9727C849.336 21.3802 849.03 20.6413 849.03 19.7559C849.03 18.7858 849.332 18.0339 849.938 17.5C850.543 16.9661 851.338 16.6374 852.321 16.5137L855.123 16.1621ZM860.75 12.041H862.42V13.8477C862.556 13.4961 862.892 13.0697 863.425 12.5684C863.959 12.0605 864.574 11.8066 865.271 11.8066C865.304 11.8066 865.359 11.8099 865.437 11.8164C865.515 11.8229 865.649 11.8359 865.837 11.8555V13.7109C865.733 13.6914 865.636 13.6784 865.545 13.6719C865.46 13.6654 865.365 13.6621 865.261 13.6621C864.376 13.6621 863.696 13.9486 863.22 14.5215C862.745 15.0879 862.507 15.7422 862.507 16.4844V22.5H860.75V12.041ZM867.411 12.0898H869.198V22.5H867.411V12.0898ZM867.411 8.1543H869.198V10.1465H867.411V8.1543ZM873.262 19.7168C873.262 20.2246 873.447 20.625 873.818 20.918C874.189 21.2109 874.629 21.3574 875.137 21.3574C875.755 21.3574 876.354 21.2142 876.934 20.9277C877.91 20.4525 878.398 19.6745 878.398 18.5938V17.1777C878.184 17.3145 877.907 17.4284 877.568 17.5195C877.23 17.6107 876.898 17.6758 876.572 17.7148L875.508 17.8516C874.87 17.9362 874.391 18.0697 874.072 18.252C873.532 18.5579 873.262 19.0462 873.262 19.7168ZM877.52 16.1621C877.923 16.11 878.193 15.9408 878.33 15.6543C878.408 15.498 878.447 15.2734 878.447 14.9805C878.447 14.3815 878.232 13.9486 877.803 13.6816C877.38 13.4082 876.771 13.2715 875.977 13.2715C875.059 13.2715 874.408 13.5189 874.023 14.0137C873.809 14.2871 873.669 14.694 873.604 15.2344H871.963C871.995 13.9453 872.412 13.0501 873.213 12.5488C874.02 12.041 874.954 11.7871 876.016 11.7871C877.246 11.7871 878.245 12.0215 879.014 12.4902C879.775 12.959 880.156 13.6882 880.156 14.6777V20.7031C880.156 20.8854 880.192 21.0319 880.264 21.1426C880.342 21.2533 880.501 21.3086 880.742 21.3086C880.82 21.3086 880.908 21.3053 881.006 21.2988C881.104 21.2858 881.208 21.2695 881.318 21.25V22.5488C881.045 22.627 880.837 22.6758 880.693 22.6953C880.55 22.7148 880.355 22.7246 880.107 22.7246C879.502 22.7246 879.062 22.5098 878.789 22.0801C878.646 21.8522 878.545 21.5299 878.486 21.1133C878.128 21.582 877.614 21.9889 876.943 22.334C876.273 22.679 875.534 22.8516 874.727 22.8516C873.757 22.8516 872.962 22.5586 872.344 21.9727C871.732 21.3802 871.426 20.6413 871.426 19.7559C871.426 18.7858 871.729 18.0339 872.334 17.5C872.939 16.9661 873.734 16.6374 874.717 16.5137L877.52 16.1621ZM882.96 8.10547H884.669V13.3105C885.053 12.8092 885.512 12.4284 886.046 12.168C886.58 11.901 887.159 11.7676 887.784 11.7676C889.086 11.7676 890.141 12.2168 890.948 13.1152C891.762 14.0072 892.169 15.3255 892.169 17.0703C892.169 18.724 891.769 20.0977 890.968 21.1914C890.167 22.2852 889.057 22.832 887.638 22.832C886.844 22.832 886.173 22.64 885.626 22.2559C885.301 22.028 884.952 21.6634 884.581 21.1621V22.5H882.96V8.10547ZM887.53 21.2793C888.481 21.2793 889.191 20.9017 889.659 20.1465C890.135 19.3913 890.372 18.3952 890.372 17.1582C890.372 16.0579 890.135 15.1465 889.659 14.4238C889.191 13.7012 888.497 13.3398 887.579 13.3398C886.779 13.3398 886.075 13.6361 885.47 14.2285C884.871 14.821 884.571 15.7975 884.571 17.1582C884.571 18.1413 884.695 18.9388 884.943 19.5508C885.405 20.7031 886.267 21.2793 887.53 21.2793ZM894.329 8.1543H896.086V22.5H894.329V8.1543ZM903.138 11.8066C903.88 11.8066 904.6 11.9824 905.296 12.334C905.993 12.679 906.524 13.1283 906.888 13.6816C907.24 14.209 907.474 14.8242 907.591 15.5273C907.696 16.0091 907.748 16.7773 907.748 17.832H900.082C900.114 18.8932 900.365 19.7461 900.834 20.3906C901.302 21.0286 902.028 21.3477 903.011 21.3477C903.929 21.3477 904.662 21.0449 905.209 20.4395C905.521 20.0879 905.742 19.681 905.873 19.2188H907.601C907.556 19.6029 907.403 20.0326 907.142 20.5078C906.888 20.9766 906.602 21.3607 906.283 21.6602C905.749 22.181 905.088 22.5326 904.3 22.7148C903.877 22.819 903.399 22.8711 902.865 22.8711C901.563 22.8711 900.459 22.3991 899.554 21.4551C898.649 20.5046 898.197 19.1764 898.197 17.4707C898.197 15.791 898.653 14.4271 899.564 13.3789C900.476 12.3307 901.667 11.8066 903.138 11.8066ZM905.941 16.4355C905.869 15.6738 905.703 15.0651 905.443 14.6094C904.961 13.763 904.157 13.3398 903.031 13.3398C902.224 13.3398 901.546 13.6328 901 14.2188C900.453 14.7982 900.163 15.5371 900.13 16.4355H905.941ZM911.011 19.2188C911.063 19.8047 911.209 20.2539 911.45 20.5664C911.893 21.1328 912.661 21.416 913.755 21.416C914.406 21.416 914.979 21.276 915.473 20.9961C915.968 20.7096 916.216 20.2702 916.216 19.6777C916.216 19.2285 916.017 18.8867 915.62 18.6523C915.366 18.5091 914.865 18.3431 914.116 18.1543L912.72 17.8027C911.828 17.5814 911.17 17.334 910.747 17.0605C909.992 16.5853 909.614 15.9277 909.614 15.0879C909.614 14.0983 909.969 13.2975 910.679 12.6855C911.395 12.0736 912.355 11.7676 913.559 11.7676C915.135 11.7676 916.271 12.2298 916.968 13.1543C917.404 13.7402 917.615 14.3717 917.602 15.0488H915.942C915.91 14.6517 915.77 14.2904 915.522 13.9648C915.119 13.5026 914.419 13.2715 913.423 13.2715C912.759 13.2715 912.254 13.3984 911.909 13.6523C911.57 13.9062 911.401 14.2415 911.401 14.6582C911.401 15.1139 911.626 15.4785 912.075 15.752C912.335 15.9147 912.72 16.0579 913.227 16.1816L914.389 16.4648C915.652 16.7708 916.499 17.0671 916.929 17.3535C917.612 17.8027 917.954 18.5091 917.954 19.4727C917.954 20.4036 917.599 21.2077 916.889 21.8848C916.186 22.5618 915.112 22.9004 913.667 22.9004C912.111 22.9004 911.007 22.5488 910.356 21.8457C909.712 21.1361 909.367 20.2604 909.321 19.2188H911.011Z" fill="#F9F9F9"/>
</g>
<rect x="804.5" y="0.5" width="122" height="31" rx="15.5" stroke="url(#paint13_linear_2275_3339)"/>
<rect x="804.5" y="0.5" width="122" height="31" rx="15.5" stroke="url(#paint14_linear_2275_3339)"/>
</g>
<g filter="url(#filter10_b_2275_3339)">
<g clip-path="url(#clip5_2275_3339)">
<rect y="106" width="142" height="32" rx="16" fill="#0C0C23"/>
<rect y="106" width="142" height="32" rx="16" fill="url(#paint15_linear_2275_3339)" fill-opacity="0.04"/>
<g filter="url(#filter11_f_2275_3339)">
<ellipse cx="70.3282" cy="121.999" rx="64.3329" ry="35.7282" transform="rotate(168.073 70.3282 121.999)" fill="url(#paint16_linear_2275_3339)"/>
</g>
<path d="M20.4688 116.875C21.0986 116.875 21.7027 117.138 22.1481 117.607C22.5935 118.076 22.8438 118.712 22.8438 119.375M25.2188 119.375C25.2189 120.104 25.0674 120.824 24.775 121.485C24.4827 122.147 24.0564 122.732 23.5262 123.202C22.996 123.671 22.3747 124.013 21.7058 124.203C21.0369 124.393 20.3367 124.426 19.6541 124.301C19.2084 124.22 18.7366 124.323 18.4168 124.66L16.3125 126.875H14.5313V128.75H12.75V130.625H9.78125V128.276C9.78125 127.779 9.96887 127.301 10.303 126.95L15.448 121.535C15.7678 121.198 15.8652 120.701 15.7884 120.232C15.6762 119.55 15.6998 118.85 15.8578 118.178C16.0158 117.506 16.3048 116.875 16.7063 116.327C17.1079 115.778 17.6134 115.324 18.1907 114.991C18.768 114.659 19.4045 114.457 20.06 114.397C20.7154 114.338 21.3755 114.422 21.9983 114.645C22.6212 114.868 23.1932 115.225 23.6782 115.693C24.1632 116.161 24.5506 116.73 24.8158 117.363C25.081 117.997 25.2182 118.682 25.2188 119.375Z" stroke="#B1A6B1" stroke-width="1.25" stroke-linecap="round" stroke-linejoin="round"/>
<path d="M39.6934 114.764C41.5098 114.764 42.9193 115.242 43.9219 116.199C44.9245 117.156 45.4811 118.243 45.5918 119.461H43.6973C43.4824 118.536 43.0527 117.804 42.4082 117.264C41.7702 116.723 40.8717 116.453 39.7129 116.453C38.3001 116.453 37.1576 116.951 36.2852 117.947C35.4193 118.937 34.9863 120.457 34.9863 122.508C34.9863 124.188 35.377 125.551 36.1582 126.6C36.946 127.641 38.1178 128.162 39.6738 128.162C41.1061 128.162 42.1966 127.612 42.9453 126.512C43.3424 125.932 43.6387 125.171 43.834 124.227H45.7285C45.5592 125.737 44.9993 127.003 44.0488 128.025C42.9095 129.256 41.373 129.871 39.4395 129.871C37.7728 129.871 36.373 129.367 35.2402 128.357C33.7493 127.023 33.0039 124.962 33.0039 122.176C33.0039 120.06 33.5638 118.325 34.6836 116.971C35.8945 115.499 37.5645 114.764 39.6934 114.764ZM47.966 119.041H49.6359V120.848C49.7727 120.496 50.1079 120.07 50.6418 119.568C51.1757 119.061 51.7909 118.807 52.4875 118.807C52.5201 118.807 52.5754 118.81 52.6535 118.816C52.7316 118.823 52.8651 118.836 53.0539 118.855V120.711C52.9497 120.691 52.8521 120.678 52.7609 120.672C52.6763 120.665 52.5819 120.662 52.4777 120.662C51.5923 120.662 50.912 120.949 50.4367 121.521C49.9615 122.088 49.7238 122.742 49.7238 123.484V129.5H47.966V119.041ZM58.9828 118.807C59.725 118.807 60.4444 118.982 61.141 119.334C61.8376 119.679 62.3682 120.128 62.7328 120.682C63.0844 121.209 63.3188 121.824 63.4359 122.527C63.5401 123.009 63.5922 123.777 63.5922 124.832H55.9262C55.9587 125.893 56.2094 126.746 56.6781 127.391C57.1469 128.029 57.8728 128.348 58.8559 128.348C59.7738 128.348 60.5063 128.045 61.0531 127.439C61.3656 127.088 61.587 126.681 61.7172 126.219H63.4457C63.4001 126.603 63.2471 127.033 62.9867 127.508C62.7328 127.977 62.4464 128.361 62.1273 128.66C61.5935 129.181 60.9327 129.533 60.1449 129.715C59.7217 129.819 59.2432 129.871 58.7094 129.871C57.4073 129.871 56.3038 129.399 55.3988 128.455C54.4939 127.505 54.0414 126.176 54.0414 124.471C54.0414 122.791 54.4971 121.427 55.4086 120.379C56.3201 119.331 57.5115 118.807 58.9828 118.807ZM61.7855 123.436C61.7139 122.674 61.5479 122.065 61.2875 121.609C60.8057 120.763 60.0017 120.34 58.8754 120.34C58.0681 120.34 57.391 120.633 56.8441 121.219C56.2973 121.798 56.0076 122.537 55.975 123.436H61.7855ZM66.9234 124.393C66.9234 125.512 67.1611 126.45 67.6363 127.205C68.1116 127.96 68.8733 128.338 69.9215 128.338C70.7353 128.338 71.4026 127.99 71.9234 127.293C72.4508 126.59 72.7145 125.584 72.7145 124.275C72.7145 122.954 72.4443 121.977 71.9039 121.346C71.3635 120.708 70.6962 120.389 69.902 120.389C69.0165 120.389 68.2971 120.727 67.7438 121.404C67.1969 122.081 66.9234 123.077 66.9234 124.393ZM69.5699 118.855C70.3707 118.855 71.0413 119.025 71.5816 119.363C71.8941 119.559 72.249 119.9 72.6461 120.389V115.105H74.3355V129.5H72.7535V128.045C72.3434 128.689 71.8583 129.155 71.2984 129.441C70.7385 129.728 70.0973 129.871 69.3746 129.871C68.2092 129.871 67.2001 129.383 66.3473 128.406C65.4944 127.423 65.068 126.118 65.068 124.49C65.068 122.967 65.4553 121.648 66.2301 120.535C67.0113 119.415 68.1246 118.855 69.5699 118.855ZM81.3484 118.807C82.0906 118.807 82.81 118.982 83.5066 119.334C84.2033 119.679 84.7339 120.128 85.0984 120.682C85.45 121.209 85.6844 121.824 85.8016 122.527C85.9057 123.009 85.9578 123.777 85.9578 124.832H78.2918C78.3243 125.893 78.575 126.746 79.0438 127.391C79.5125 128.029 80.2384 128.348 81.2215 128.348C82.1395 128.348 82.8719 128.045 83.4188 127.439C83.7313 127.088 83.9526 126.681 84.0828 126.219H85.8113C85.7658 126.603 85.6128 127.033 85.3523 127.508C85.0984 127.977 84.812 128.361 84.493 128.66C83.9591 129.181 83.2983 129.533 82.5105 129.715C82.0874 129.819 81.6089 129.871 81.075 129.871C79.7729 129.871 78.6694 129.399 77.7645 128.455C76.8595 127.505 76.407 126.176 76.407 124.471C76.407 122.791 76.8628 121.427 77.7742 120.379C78.6857 119.331 79.8771 118.807 81.3484 118.807ZM84.1512 123.436C84.0796 122.674 83.9135 122.065 83.6531 121.609C83.1714 120.763 82.3673 120.34 81.241 120.34C80.4337 120.34 79.7566 120.633 79.2098 121.219C78.6629 121.798 78.3732 122.537 78.3406 123.436H84.1512ZM88.1758 119.041H89.8457V120.525C90.3405 119.913 90.8646 119.474 91.418 119.207C91.9714 118.94 92.5866 118.807 93.2637 118.807C94.748 118.807 95.7507 119.324 96.2715 120.359C96.5579 120.926 96.7012 121.736 96.7012 122.791V129.5H94.9141V122.908C94.9141 122.27 94.8197 121.756 94.6309 121.365C94.3184 120.714 93.752 120.389 92.9316 120.389C92.515 120.389 92.1732 120.431 91.9062 120.516C91.4245 120.659 91.0013 120.945 90.6367 121.375C90.3438 121.72 90.1517 122.078 90.0605 122.449C89.9759 122.814 89.9336 123.338 89.9336 124.021V129.5H88.1758V119.041ZM99.7102 116.121H101.488V119.041H103.157V120.477H101.488V127.303C101.488 127.667 101.611 127.911 101.859 128.035C101.995 128.107 102.223 128.143 102.542 128.143C102.627 128.143 102.718 128.143 102.816 128.143C102.913 128.136 103.027 128.126 103.157 128.113V129.5C102.956 129.559 102.744 129.601 102.523 129.627C102.308 129.653 102.073 129.666 101.82 129.666C100.999 129.666 100.443 129.458 100.15 129.041C99.8566 128.618 99.7102 128.071 99.7102 127.4V120.477H98.2941V119.041H99.7102V116.121ZM104.975 119.09H106.762V129.5H104.975V119.09ZM104.975 115.154H106.762V117.146H104.975V115.154ZM110.826 126.717C110.826 127.225 111.011 127.625 111.382 127.918C111.754 128.211 112.193 128.357 112.701 128.357C113.319 128.357 113.918 128.214 114.498 127.928C115.474 127.452 115.963 126.674 115.963 125.594V124.178C115.748 124.314 115.471 124.428 115.132 124.52C114.794 124.611 114.462 124.676 114.136 124.715L113.072 124.852C112.434 124.936 111.955 125.07 111.636 125.252C111.096 125.558 110.826 126.046 110.826 126.717ZM115.084 123.162C115.487 123.11 115.757 122.941 115.894 122.654C115.972 122.498 116.011 122.273 116.011 121.98C116.011 121.382 115.796 120.949 115.367 120.682C114.944 120.408 114.335 120.271 113.541 120.271C112.623 120.271 111.972 120.519 111.588 121.014C111.373 121.287 111.233 121.694 111.168 122.234H109.527C109.56 120.945 109.976 120.05 110.777 119.549C111.584 119.041 112.518 118.787 113.58 118.787C114.81 118.787 115.81 119.021 116.578 119.49C117.339 119.959 117.72 120.688 117.72 121.678V127.703C117.72 127.885 117.756 128.032 117.828 128.143C117.906 128.253 118.065 128.309 118.306 128.309C118.384 128.309 118.472 128.305 118.57 128.299C118.668 128.286 118.772 128.27 118.882 128.25V129.549C118.609 129.627 118.401 129.676 118.257 129.695C118.114 129.715 117.919 129.725 117.671 129.725C117.066 129.725 116.627 129.51 116.353 129.08C116.21 128.852 116.109 128.53 116.05 128.113C115.692 128.582 115.178 128.989 114.507 129.334C113.837 129.679 113.098 129.852 112.291 129.852C111.321 129.852 110.526 129.559 109.908 128.973C109.296 128.38 108.99 127.641 108.99 126.756C108.99 125.786 109.293 125.034 109.898 124.5C110.504 123.966 111.298 123.637 112.281 123.514L115.084 123.162ZM120.71 115.154H122.468V129.5H120.71V115.154ZM126.209 126.219C126.261 126.805 126.408 127.254 126.648 127.566C127.091 128.133 127.859 128.416 128.953 128.416C129.604 128.416 130.177 128.276 130.672 127.996C131.167 127.71 131.414 127.27 131.414 126.678C131.414 126.229 131.215 125.887 130.818 125.652C130.564 125.509 130.063 125.343 129.314 125.154L127.918 124.803C127.026 124.581 126.368 124.334 125.945 124.061C125.19 123.585 124.812 122.928 124.812 122.088C124.812 121.098 125.167 120.298 125.877 119.686C126.593 119.074 127.553 118.768 128.758 118.768C130.333 118.768 131.469 119.23 132.166 120.154C132.602 120.74 132.814 121.372 132.801 122.049H131.141C131.108 121.652 130.968 121.29 130.721 120.965C130.317 120.503 129.617 120.271 128.621 120.271C127.957 120.271 127.452 120.398 127.107 120.652C126.769 120.906 126.6 121.242 126.6 121.658C126.6 122.114 126.824 122.479 127.273 122.752C127.534 122.915 127.918 123.058 128.426 123.182L129.588 123.465C130.851 123.771 131.697 124.067 132.127 124.354C132.811 124.803 133.152 125.509 133.152 126.473C133.152 127.404 132.798 128.208 132.088 128.885C131.385 129.562 130.311 129.9 128.865 129.9C127.309 129.9 126.206 129.549 125.555 128.846C124.91 128.136 124.565 127.26 124.52 126.219H126.209Z" fill="#F9F9F9"/>
</g>
<rect x="0.5" y="106.5" width="141" height="31" rx="15.5" stroke="url(#paint17_linear_2275_3339)"/>
<rect x="0.5" y="106.5" width="141" height="31" rx="15.5" stroke="url(#paint18_linear_2275_3339)"/>
</g>
<g filter="url(#filter12_b_2275_3339)">
<g clip-path="url(#clip6_2275_3339)">
<rect x="182" width="83" height="32" rx="16" fill="#0C0C23"/>
<rect x="182" width="83" height="32" rx="16" fill="url(#paint19_linear_2275_3339)" fill-opacity="0.04"/>
<g filter="url(#filter13_f_2275_3339)">
<ellipse cx="252.328" cy="15.9991" rx="64.3329" ry="35.7282" transform="rotate(168.073 252.328 15.9991)" fill="url(#paint20_linear_2275_3339)"/>
</g>
<path d="M202.5 15.25C202.5 15.913 202.237 16.5489 201.768 17.0178C201.299 17.4866 200.663 17.75 200 17.75C199.337 17.75 198.701 17.4866 198.232 17.0178C197.763 16.5489 197.5 15.913 197.5 15.25C197.5 14.587 197.763 13.9511 198.232 13.4822C198.701 13.0134 199.337 12.75 200 12.75C200.663 12.75 201.299 13.0134 201.768 13.4822C202.237 13.9511 202.5 14.587 202.5 15.25Z" stroke="#B1A6B1" stroke-width="1.25" stroke-linecap="round" stroke-linejoin="round"/>
<path d="M206.25 15.25C206.25 21.2017 200 24.625 200 24.625C200 24.625 193.75 21.2017 193.75 15.25C193.75 13.5924 194.408 12.0027 195.581 10.8306C196.753 9.65848 198.342 9 200 9C201.658 9 203.247 9.65848 204.419 10.8306C205.592 12.0027 206.25 13.5924 206.25 15.25Z" stroke="#B1A6B1" stroke-width="1.25" stroke-linecap="round" stroke-linejoin="round"/>
<path d="M223.189 17.6211L221.011 11.2832L218.696 17.6211H223.189ZM219.995 9.1543H222.193L227.398 23.5H225.269L223.814 19.2031H218.14L216.587 23.5H214.595L219.995 9.1543ZM229.401 9.1543H235.856C237.132 9.1543 238.161 9.51562 238.942 10.2383C239.723 10.9544 240.114 11.9635 240.114 13.2656C240.114 14.3854 239.765 15.362 239.069 16.1953C238.372 17.0221 237.301 17.4355 235.856 17.4355H231.344V23.5H229.401V9.1543ZM238.151 13.2754C238.151 12.2207 237.76 11.5046 236.979 11.127C236.549 10.9251 235.96 10.8242 235.211 10.8242H231.344V15.7949H235.211C236.084 15.7949 236.79 15.6094 237.33 15.2383C237.877 14.8672 238.151 14.2129 238.151 13.2754ZM243.045 9.1543H245.007V23.5H243.045V9.1543ZM249.032 20.2188C249.084 20.8047 249.231 21.2539 249.471 21.5664C249.914 22.1328 250.682 22.416 251.776 22.416C252.427 22.416 253 22.276 253.495 21.9961C253.99 21.7096 254.237 21.2702 254.237 20.6777C254.237 20.2285 254.039 19.8867 253.641 19.6523C253.388 19.5091 252.886 19.3431 252.138 19.1543L250.741 18.8027C249.849 18.5814 249.192 18.334 248.768 18.0605C248.013 17.5853 247.636 16.9277 247.636 16.0879C247.636 15.0983 247.99 14.2975 248.7 13.6855C249.416 13.0736 250.376 12.7676 251.581 12.7676C253.156 12.7676 254.292 13.2298 254.989 14.1543C255.425 14.7402 255.637 15.3717 255.624 16.0488H253.964C253.931 15.6517 253.791 15.2904 253.544 14.9648C253.14 14.5026 252.44 14.2715 251.444 14.2715C250.78 14.2715 250.276 14.3984 249.93 14.6523C249.592 14.9062 249.423 15.2415 249.423 15.6582C249.423 16.1139 249.647 16.4785 250.096 16.752C250.357 16.9147 250.741 17.0579 251.249 17.1816L252.411 17.4648C253.674 17.7708 254.52 18.0671 254.95 18.3535C255.634 18.8027 255.975 19.5091 255.975 20.4727C255.975 21.4036 255.621 22.2077 254.911 22.8848C254.208 23.5618 253.134 23.9004 251.688 23.9004C250.132 23.9004 249.029 23.5488 248.378 22.8457C247.733 22.1361 247.388 21.2604 247.343 20.2188H249.032Z" fill="#F9F9F9"/>
</g>
<rect x="182.5" y="0.5" width="82" height="31" rx="15.5" stroke="url(#paint21_linear_2275_3339)"/>
<rect x="182.5" y="0.5" width="82" height="31" rx="15.5" stroke="url(#paint22_linear_2275_3339)"/>
</g>
<g filter="url(#filter14_b_2275_3339)">
<g clip-path="url(#clip7_2275_3339)">
<rect x="941" y="106" width="163" height="32" rx="16" fill="#0C0C23"/>
<rect x="941" y="106" width="163" height="32" rx="16" fill="url(#paint23_linear_2275_3339)" fill-opacity="0.04"/>
<g filter="url(#filter15_f_2275_3339)">
<ellipse cx="1011.33" cy="121.999" rx="64.3329" ry="35.7282" transform="rotate(168.073 1011.33 121.999)" fill="url(#paint24_linear_2275_3339)"/>
</g>
<path d="M967.335 118.918C967.335 118.418 967.001 117.918 966.668 117.668L961.418 114.418C961.202 114.295 960.958 114.23 960.71 114.23C960.461 114.23 960.217 114.295 960.001 114.418L951.418 119.418C951.001 119.584 950.668 120.084 950.668 120.584V126.084C950.668 126.501 951.001 127.084 951.335 127.334L956.585 130.584C956.801 130.707 957.045 130.772 957.293 130.772C957.541 130.772 957.785 130.707 958.001 130.584L966.585 125.584C967.001 125.334 967.335 124.751 967.335 124.334V118.918Z" stroke="#B1A6B1" stroke-width="1.25" stroke-linecap="round" stroke-linejoin="round"/>
<path d="M957.333 130.751V124.167L950.75 120.084" stroke="#B1A6B1" stroke-width="1.25" stroke-linecap="round" stroke-linejoin="round"/>
<path d="M957.332 124.166L967.249 118.416" stroke="#B1A6B1" stroke-width="1.25" stroke-linecap="round" stroke-linejoin="round"/>
<path d="M960.668 129V122.25" stroke="#B1A6B1" stroke-width="1.25" stroke-linecap="round" stroke-linejoin="round"/>
<path d="M964 127.084V120.334" stroke="#B1A6B1" stroke-width="1.25" stroke-linecap="round" stroke-linejoin="round"/>
<path d="M974.762 115.154H985.221V116.912H976.657V121.268H984.577V122.928H976.657V127.791H985.368V129.5H974.762V115.154ZM987.732 119.041H989.402V120.525C989.897 119.913 990.421 119.474 990.974 119.207C991.528 118.94 992.143 118.807 992.82 118.807C994.304 118.807 995.307 119.324 995.828 120.359C996.114 120.926 996.257 121.736 996.257 122.791V129.5H994.47V122.908C994.47 122.27 994.376 121.756 994.187 121.365C993.875 120.714 993.308 120.389 992.488 120.389C992.071 120.389 991.729 120.431 991.462 120.516C990.981 120.659 990.558 120.945 990.193 121.375C989.9 121.72 989.708 122.078 989.617 122.449C989.532 122.814 989.49 123.338 989.49 124.021V129.5H987.732V119.041ZM999.774 119.041L1002.57 127.557L1005.49 119.041H1007.41L1003.47 129.5H1001.59L997.733 119.041H999.774ZM1008.96 119.09H1010.75V129.5H1008.96V119.09ZM1008.96 115.154H1010.75V117.146H1008.96V115.154ZM1013.52 119.041H1015.19V120.848C1015.32 120.496 1015.66 120.07 1016.19 119.568C1016.73 119.061 1017.34 118.807 1018.04 118.807C1018.07 118.807 1018.13 118.81 1018.2 118.816C1018.28 118.823 1018.42 118.836 1018.6 118.855V120.711C1018.5 120.691 1018.4 120.678 1018.31 120.672C1018.23 120.665 1018.13 120.662 1018.03 120.662C1017.14 120.662 1016.46 120.949 1015.99 121.521C1015.51 122.088 1015.27 122.742 1015.27 123.484V129.5H1013.52V119.041ZM1024.33 128.367C1025.49 128.367 1026.29 127.928 1026.72 127.049C1027.16 126.163 1027.38 125.18 1027.38 124.1C1027.38 123.123 1027.22 122.329 1026.91 121.717C1026.41 120.753 1025.56 120.271 1024.35 120.271C1023.27 120.271 1022.49 120.682 1022 121.502C1021.52 122.322 1021.27 123.312 1021.27 124.471C1021.27 125.584 1021.52 126.512 1022 127.254C1022.49 127.996 1023.27 128.367 1024.33 128.367ZM1024.4 118.738C1025.74 118.738 1026.88 119.188 1027.81 120.086C1028.75 120.984 1029.21 122.306 1029.21 124.051C1029.21 125.737 1028.8 127.13 1027.98 128.23C1027.16 129.331 1025.89 129.881 1024.16 129.881C1022.72 129.881 1021.58 129.396 1020.73 128.426C1019.89 127.449 1019.47 126.141 1019.47 124.5C1019.47 122.742 1019.91 121.342 1020.8 120.301C1021.7 119.259 1022.89 118.738 1024.4 118.738ZM1031.36 119.041H1033.03V120.525C1033.53 119.913 1034.05 119.474 1034.6 119.207C1035.16 118.94 1035.77 118.807 1036.45 118.807C1037.93 118.807 1038.94 119.324 1039.46 120.359C1039.74 120.926 1039.89 121.736 1039.89 122.791V129.5H1038.1V122.908C1038.1 122.27 1038 121.756 1037.82 121.365C1037.5 120.714 1036.94 120.389 1036.12 120.389C1035.7 120.389 1035.36 120.431 1035.09 120.516C1034.61 120.659 1034.19 120.945 1033.82 121.375C1033.53 121.72 1033.34 122.078 1033.25 122.449C1033.16 122.814 1033.12 123.338 1033.12 124.021V129.5H1031.36V119.041ZM1042.54 119.041H1044.28V120.525C1044.7 120.011 1045.08 119.637 1045.41 119.402C1045.99 119.005 1046.65 118.807 1047.39 118.807C1048.22 118.807 1048.89 119.012 1049.4 119.422C1049.69 119.656 1049.95 120.001 1050.18 120.457C1050.57 119.897 1051.03 119.484 1051.56 119.217C1052.08 118.943 1052.68 118.807 1053.33 118.807C1054.74 118.807 1055.7 119.314 1056.21 120.33C1056.48 120.877 1056.62 121.613 1056.62 122.537V129.5H1054.79V122.234C1054.79 121.538 1054.61 121.059 1054.26 120.799C1053.92 120.538 1053.49 120.408 1052.99 120.408C1052.3 120.408 1051.71 120.639 1051.21 121.102C1050.71 121.564 1050.46 122.335 1050.46 123.416V129.5H1048.68V122.674C1048.68 121.964 1048.59 121.447 1048.42 121.121C1048.16 120.633 1047.66 120.389 1046.93 120.389C1046.26 120.389 1045.66 120.646 1045.11 121.16C1044.57 121.674 1044.3 122.605 1044.3 123.953V129.5H1042.54V119.041ZM1063.61 118.807C1064.35 118.807 1065.07 118.982 1065.77 119.334C1066.46 119.679 1066.99 120.128 1067.36 120.682C1067.71 121.209 1067.95 121.824 1068.06 122.527C1068.17 123.009 1068.22 123.777 1068.22 124.832H1060.55C1060.59 125.893 1060.84 126.746 1061.3 127.391C1061.77 128.029 1062.5 128.348 1063.48 128.348C1064.4 128.348 1065.13 128.045 1065.68 127.439C1065.99 127.088 1066.21 126.681 1066.34 126.219H1068.07C1068.03 126.603 1067.87 127.033 1067.61 127.508C1067.36 127.977 1067.07 128.361 1066.75 128.66C1066.22 129.181 1065.56 129.533 1064.77 129.715C1064.35 129.819 1063.87 129.871 1063.34 129.871C1062.03 129.871 1060.93 129.399 1060.03 128.455C1059.12 127.505 1058.67 126.176 1058.67 124.471C1058.67 122.791 1059.12 121.427 1060.04 120.379C1060.95 119.331 1062.14 118.807 1063.61 118.807ZM1066.41 123.436C1066.34 122.674 1066.17 122.065 1065.91 121.609C1065.43 120.763 1064.63 120.34 1063.5 120.34C1062.69 120.34 1062.02 120.633 1061.47 121.219C1060.92 121.798 1060.63 122.537 1060.6 123.436H1066.41ZM1070.44 119.041H1072.11V120.525C1072.6 119.913 1073.13 119.474 1073.68 119.207C1074.23 118.94 1074.85 118.807 1075.52 118.807C1077.01 118.807 1078.01 119.324 1078.53 120.359C1078.82 120.926 1078.96 121.736 1078.96 122.791V129.5H1077.17V122.908C1077.17 122.27 1077.08 121.756 1076.89 121.365C1076.58 120.714 1076.01 120.389 1075.19 120.389C1074.78 120.389 1074.43 120.431 1074.17 120.516C1073.69 120.659 1073.26 120.945 1072.9 121.375C1072.6 121.72 1072.41 122.078 1072.32 122.449C1072.24 122.814 1072.19 123.338 1072.19 124.021V129.5H1070.44V119.041ZM1081.97 116.121H1083.75V119.041H1085.42V120.477H1083.75V127.303C1083.75 127.667 1083.87 127.911 1084.12 128.035C1084.26 128.107 1084.48 128.143 1084.8 128.143C1084.89 128.143 1084.98 128.143 1085.08 128.143C1085.17 128.136 1085.29 128.126 1085.42 128.113V129.5C1085.22 129.559 1085 129.601 1084.78 129.627C1084.57 129.653 1084.33 129.666 1084.08 129.666C1083.26 129.666 1082.7 129.458 1082.41 129.041C1082.12 128.618 1081.97 128.071 1081.97 127.4V120.477H1080.56V119.041H1081.97V116.121ZM1088.28 126.219C1088.33 126.805 1088.48 127.254 1088.72 127.566C1089.16 128.133 1089.93 128.416 1091.03 128.416C1091.68 128.416 1092.25 128.276 1092.74 127.996C1093.24 127.71 1093.49 127.27 1093.49 126.678C1093.49 126.229 1093.29 125.887 1092.89 125.652C1092.64 125.509 1092.14 125.343 1091.39 125.154L1089.99 124.803C1089.1 124.581 1088.44 124.334 1088.02 124.061C1087.26 123.585 1086.88 122.928 1086.88 122.088C1086.88 121.098 1087.24 120.298 1087.95 119.686C1088.66 119.074 1089.63 118.768 1090.83 118.768C1092.41 118.768 1093.54 119.23 1094.24 120.154C1094.67 120.74 1094.89 121.372 1094.87 122.049H1093.21C1093.18 121.652 1093.04 121.29 1092.79 120.965C1092.39 120.503 1091.69 120.271 1090.69 120.271C1090.03 120.271 1089.52 120.398 1089.18 120.652C1088.84 120.906 1088.67 121.242 1088.67 121.658C1088.67 122.114 1088.9 122.479 1089.35 122.752C1089.61 122.915 1089.99 123.058 1090.5 123.182L1091.66 123.465C1092.92 123.771 1093.77 124.067 1094.2 124.354C1094.88 124.803 1095.22 125.509 1095.22 126.473C1095.22 127.404 1094.87 128.208 1094.16 128.885C1093.46 129.562 1092.38 129.9 1090.94 129.9C1089.38 129.9 1088.28 129.549 1087.63 128.846C1086.98 128.136 1086.64 127.26 1086.59 126.219H1088.28Z" fill="#F9F9F9"/>
</g>
<rect x="941.5" y="106.5" width="162" height="31" rx="15.5" stroke="url(#paint25_linear_2275_3339)"/>
<rect x="941.5" y="106.5" width="162" height="31" rx="15.5" stroke="url(#paint26_linear_2275_3339)"/>
</g>
</g>
<defs>
<filter id="filter0_b_2275_3339" x="439" y="335" width="213" height="129" filterUnits="userSpaceOnUse" color-interpolation-filters="sRGB">
<feFlood flood-opacity="0" result="BackgroundImageFix"/>
<feGaussianBlur in="BackgroundImageFix" stdDeviation="24"/>
<feComposite in2="SourceAlpha" operator="in" result="effect1_backgroundBlur_2275_3339"/>
<feBlend mode="normal" in="SourceGraphic" in2="effect1_backgroundBlur_2275_3339" result="shape"/>
</filter>
<filter id="filter1_f_2275_3339" x="289.947" y="158.09" width="534.764" height="482.818" filterUnits="userSpaceOnUse" color-interpolation-filters="sRGB">
<feFlood flood-opacity="0" result="BackgroundImageFix"/>
<feBlend mode="normal" in="SourceGraphic" in2="BackgroundImageFix" result="shape"/>
<feGaussianBlur stdDeviation="102" result="effect1_foregroundBlur_2275_3339"/>
</filter>
<filter id="filter2_b_2275_3339" x="312" y="58" width="238" height="128" filterUnits="userSpaceOnUse" color-interpolation-filters="sRGB">
<feFlood flood-opacity="0" result="BackgroundImageFix"/>
<feGaussianBlur in="BackgroundImageFix" stdDeviation="24"/>
<feComposite in2="SourceAlpha" operator="in" result="effect1_backgroundBlur_2275_3339"/>
<feBlend mode="normal" in="SourceGraphic" in2="effect1_backgroundBlur_2275_3339" result="shape"/>
</filter>
<filter id="filter3_f_2275_3339" x="162.947" y="-119.41" width="534.764" height="482.818" filterUnits="userSpaceOnUse" color-interpolation-filters="sRGB">
<feFlood flood-opacity="0" result="BackgroundImageFix"/>
<feBlend mode="normal" in="SourceGraphic" in2="BackgroundImageFix" result="shape"/>
<feGaussianBlur stdDeviation="102" result="effect1_foregroundBlur_2275_3339"/>
</filter>
<filter id="filter4_b_2275_3339" x="549" y="58" width="226" height="128" filterUnits="userSpaceOnUse" color-interpolation-filters="sRGB">
<feFlood flood-opacity="0" result="BackgroundImageFix"/>
<feGaussianBlur in="BackgroundImageFix" stdDeviation="24"/>
<feComposite in2="SourceAlpha" operator="in" result="effect1_backgroundBlur_2275_3339"/>
<feBlend mode="normal" in="SourceGraphic" in2="effect1_backgroundBlur_2275_3339" result="shape"/>
</filter>
<filter id="filter5_f_2275_3339" x="399.947" y="-119.41" width="534.764" height="482.818" filterUnits="userSpaceOnUse" color-interpolation-filters="sRGB">
<feFlood flood-opacity="0" result="BackgroundImageFix"/>
<feBlend mode="normal" in="SourceGraphic" in2="BackgroundImageFix" result="shape"/>
<feGaussianBlur stdDeviation="102" result="effect1_foregroundBlur_2275_3339"/>
</filter>
<filter id="filter6_d_2275_3339" x="541.5" y="28" width="485" height="359" filterUnits="userSpaceOnUse" color-interpolation-filters="sRGB">
<feFlood flood-opacity="0" result="BackgroundImageFix"/>
<feColorMatrix in="SourceAlpha" type="matrix" values="0 0 0 0 0 0 0 0 0 0 0 0 0 0 0 0 0 0 127 0" result="hardAlpha"/>
<feOffset/>
<feGaussianBlur stdDeviation="2"/>
<feComposite in2="hardAlpha" operator="out"/>
<feColorMatrix type="matrix" values="0 0 0 0 0.662745 0 0 0 0 0.819608 0 0 0 0 0.94902 0 0 0 1 0"/>
<feBlend mode="normal" in2="BackgroundImageFix" result="effect1_dropShadow_2275_3339"/>
<feBlend mode="normal" in="SourceGraphic" in2="effect1_dropShadow_2275_3339" result="shape"/>
</filter>
<filter id="filter7_d_2275_3339" x="65.5" y="28" width="484" height="359" filterUnits="userSpaceOnUse" color-interpolation-filters="sRGB">
<feFlood flood-opacity="0" result="BackgroundImageFix"/>
<feColorMatrix in="SourceAlpha" type="matrix" values="0 0 0 0 0 0 0 0 0 0 0 0 0 0 0 0 0 0 127 0" result="hardAlpha"/>
<feOffset/>
<feGaussianBlur stdDeviation="2"/>
<feComposite in2="hardAlpha" operator="out"/>
<feColorMatrix type="matrix" values="0 0 0 0 0.662745 0 0 0 0 0.819608 0 0 0 0 0.94902 0 0 0 1 0"/>
<feBlend mode="normal" in2="BackgroundImageFix" result="effect1_dropShadow_2275_3339"/>
<feBlend mode="normal" in="SourceGraphic" in2="effect1_dropShadow_2275_3339" result="shape"/>
</filter>
<filter id="filter8_b_2275_3339" x="756" y="-48" width="219" height="128" filterUnits="userSpaceOnUse" color-interpolation-filters="sRGB">
<feFlood flood-opacity="0" result="BackgroundImageFix"/>
<feGaussianBlur in="BackgroundImageFix" stdDeviation="24"/>
<feComposite in2="SourceAlpha" operator="in" result="effect1_backgroundBlur_2275_3339"/>
<feBlend mode="normal" in="SourceGraphic" in2="effect1_backgroundBlur_2275_3339" result="shape"/>
</filter>
<filter id="filter9_f_2275_3339" x="606.947" y="-225.41" width="534.764" height="482.818" filterUnits="userSpaceOnUse" color-interpolation-filters="sRGB">
<feFlood flood-opacity="0" result="BackgroundImageFix"/>
<feBlend mode="normal" in="SourceGraphic" in2="BackgroundImageFix" result="shape"/>
<feGaussianBlur stdDeviation="102" result="effect1_foregroundBlur_2275_3339"/>
</filter>
<filter id="filter10_b_2275_3339" x="-48" y="58" width="238" height="128" filterUnits="userSpaceOnUse" color-interpolation-filters="sRGB">
<feFlood flood-opacity="0" result="BackgroundImageFix"/>
<feGaussianBlur in="BackgroundImageFix" stdDeviation="24"/>
<feComposite in2="SourceAlpha" operator="in" result="effect1_backgroundBlur_2275_3339"/>
<feBlend mode="normal" in="SourceGraphic" in2="effect1_backgroundBlur_2275_3339" result="shape"/>
</filter>
<filter id="filter11_f_2275_3339" x="-197.053" y="-119.41" width="534.764" height="482.818" filterUnits="userSpaceOnUse" color-interpolation-filters="sRGB">
<feFlood flood-opacity="0" result="BackgroundImageFix"/>
<feBlend mode="normal" in="SourceGraphic" in2="BackgroundImageFix" result="shape"/>
<feGaussianBlur stdDeviation="102" result="effect1_foregroundBlur_2275_3339"/>
</filter>
<filter id="filter12_b_2275_3339" x="134" y="-48" width="179" height="128" filterUnits="userSpaceOnUse" color-interpolation-filters="sRGB">
<feFlood flood-opacity="0" result="BackgroundImageFix"/>
<feGaussianBlur in="BackgroundImageFix" stdDeviation="24"/>
<feComposite in2="SourceAlpha" operator="in" result="effect1_backgroundBlur_2275_3339"/>
<feBlend mode="normal" in="SourceGraphic" in2="effect1_backgroundBlur_2275_3339" result="shape"/>
</filter>
<filter id="filter13_f_2275_3339" x="-15.0527" y="-225.41" width="534.764" height="482.818" filterUnits="userSpaceOnUse" color-interpolation-filters="sRGB">
<feFlood flood-opacity="0" result="BackgroundImageFix"/>
<feBlend mode="normal" in="SourceGraphic" in2="BackgroundImageFix" result="shape"/>
<feGaussianBlur stdDeviation="102" result="effect1_foregroundBlur_2275_3339"/>
</filter>
<filter id="filter14_b_2275_3339" x="893" y="58" width="259" height="128" filterUnits="userSpaceOnUse" color-interpolation-filters="sRGB">
<feFlood flood-opacity="0" result="BackgroundImageFix"/>
<feGaussianBlur in="BackgroundImageFix" stdDeviation="24"/>
<feComposite in2="SourceAlpha" operator="in" result="effect1_backgroundBlur_2275_3339"/>
<feBlend mode="normal" in="SourceGraphic" in2="effect1_backgroundBlur_2275_3339" result="shape"/>
</filter>
<filter id="filter15_f_2275_3339" x="743.947" y="-119.41" width="534.764" height="482.818" filterUnits="userSpaceOnUse" color-interpolation-filters="sRGB">
<feFlood flood-opacity="0" result="BackgroundImageFix"/>
<feBlend mode="normal" in="SourceGraphic" in2="BackgroundImageFix" result="shape"/>
<feGaussianBlur stdDeviation="102" result="effect1_foregroundBlur_2275_3339"/>
</filter>
<linearGradient id="paint0_linear_2275_3339" x1="489.901" y1="433.111" x2="643.987" y2="396.816" gradientUnits="userSpaceOnUse">
<stop stop-color="#E043DA"/>
<stop offset="1" stop-color="#18121A"/>
</linearGradient>
<linearGradient id="paint1_linear_2275_3339" x1="597.917" y1="371.025" x2="579.311" y2="468.791" gradientUnits="userSpaceOnUse">
<stop stop-color="#E38CDB"/>
<stop offset="1" stop-color="#0B0822"/>
</linearGradient>
<linearGradient id="paint2_linear_2275_3339" x1="559.059" y1="375.514" x2="545.429" y2="421.785" gradientUnits="userSpaceOnUse">
<stop stop-color="#FDFDFD"/>
<stop offset="1" stop-color="#222125"/>
</linearGradient>
<linearGradient id="paint3_linear_2275_3339" x1="559.059" y1="375.514" x2="545.429" y2="421.785" gradientUnits="userSpaceOnUse">
<stop stop-color="#FDFDFD"/>
<stop offset="1" stop-color="#6B6775"/>
</linearGradient>
<linearGradient id="paint4_linear_2275_3339" x1="363.521" y1="154.593" x2="545.124" y2="101.054" gradientUnits="userSpaceOnUse">
<stop stop-color="#E043DA"/>
<stop offset="1" stop-color="#18121A"/>
</linearGradient>
<linearGradient id="paint5_linear_2275_3339" x1="470.917" y1="93.5255" x2="474.054" y2="216.578" gradientUnits="userSpaceOnUse">
<stop stop-color="#E38CDB"/>
<stop offset="1" stop-color="#0B0822"/>
</linearGradient>
<linearGradient id="paint6_linear_2275_3339" x1="447.456" y1="98.7407" x2="436.582" y2="144.943" gradientUnits="userSpaceOnUse">
<stop stop-color="#FDFDFD"/>
<stop offset="1" stop-color="#222125"/>
</linearGradient>
<linearGradient id="paint7_linear_2275_3339" x1="447.456" y1="98.7407" x2="436.582" y2="144.943" gradientUnits="userSpaceOnUse">
<stop stop-color="#FDFDFD"/>
<stop offset="1" stop-color="#6B6775"/>
</linearGradient>
<linearGradient id="paint8_linear_2275_3339" x1="600.223" y1="154.593" x2="768.66" y2="109.132" gradientUnits="userSpaceOnUse">
<stop stop-color="#E043DA"/>
<stop offset="1" stop-color="#18121A"/>
</linearGradient>
<linearGradient id="paint9_linear_2275_3339" x1="707.917" y1="93.5255" x2="689.311" y2="191.291" gradientUnits="userSpaceOnUse">
<stop stop-color="#E38CDB"/>
<stop offset="1" stop-color="#0B0822"/>
</linearGradient>
<linearGradient id="paint10_linear_2275_3339" x1="677.065" y1="98.7407" x2="665.307" y2="144.48" gradientUnits="userSpaceOnUse">
<stop stop-color="#FDFDFD"/>
<stop offset="1" stop-color="#6B6775"/>
</linearGradient>
<linearGradient id="paint11_linear_2275_3339" x1="807.05" y1="48.5926" x2="967.558" y2="7.60411" gradientUnits="userSpaceOnUse">
<stop stop-color="#E043DA"/>
<stop offset="1" stop-color="#18121A"/>
</linearGradient>
<linearGradient id="paint12_linear_2275_3339" x1="914.917" y1="-12.4745" x2="896.311" y2="85.2907" gradientUnits="userSpaceOnUse">
<stop stop-color="#E38CDB"/>
<stop offset="1" stop-color="#0B0822"/>
</linearGradient>
<linearGradient id="paint13_linear_2275_3339" x1="879.754" y1="-7.25926" x2="867.416" y2="38.1502" gradientUnits="userSpaceOnUse">
<stop stop-color="#FDFDFD"/>
<stop offset="1" stop-color="#222125"/>
</linearGradient>
<linearGradient id="paint14_linear_2275_3339" x1="879.754" y1="-7.25926" x2="867.416" y2="38.1502" gradientUnits="userSpaceOnUse">
<stop stop-color="#FDFDFD"/>
<stop offset="1" stop-color="#6B6775"/>
</linearGradient>
<linearGradient id="paint15_linear_2275_3339" x1="3.52066" y1="154.593" x2="185.124" y2="101.054" gradientUnits="userSpaceOnUse">
<stop stop-color="#E043DA"/>
<stop offset="1" stop-color="#18121A"/>
</linearGradient>
<linearGradient id="paint16_linear_2275_3339" x1="110.917" y1="93.5255" x2="92.3105" y2="191.291" gradientUnits="userSpaceOnUse">
<stop stop-color="#E38CDB"/>
<stop offset="1" stop-color="#0B0822"/>
</linearGradient>
<linearGradient id="paint17_linear_2275_3339" x1="87.4557" y1="98.7407" x2="76.5819" y2="144.943" gradientUnits="userSpaceOnUse">
<stop stop-color="#FDFDFD"/>
<stop offset="1" stop-color="#222125"/>
</linearGradient>
<linearGradient id="paint18_linear_2275_3339" x1="87.4557" y1="98.7407" x2="76.5819" y2="144.943" gradientUnits="userSpaceOnUse">
<stop stop-color="#FDFDFD"/>
<stop offset="1" stop-color="#6B6775"/>
</linearGradient>
<linearGradient id="paint19_linear_2275_3339" x1="184.058" y1="48.5926" x2="296.105" y2="29.2847" gradientUnits="userSpaceOnUse">
<stop stop-color="#E043DA"/>
<stop offset="1" stop-color="#18121A"/>
</linearGradient>
<linearGradient id="paint20_linear_2275_3339" x1="292.917" y1="-12.4745" x2="274.311" y2="85.2907" gradientUnits="userSpaceOnUse">
<stop stop-color="#E38CDB"/>
<stop offset="1" stop-color="#0B0822"/>
</linearGradient>
<linearGradient id="paint21_linear_2275_3339" x1="233.118" y1="-7.25926" x2="216.224" y2="34.6998" gradientUnits="userSpaceOnUse">
<stop stop-color="#FDFDFD"/>
<stop offset="1" stop-color="#222125"/>
</linearGradient>
<linearGradient id="paint22_linear_2275_3339" x1="233.118" y1="-7.25926" x2="216.224" y2="34.6998" gradientUnits="userSpaceOnUse">
<stop stop-color="#FDFDFD"/>
<stop offset="1" stop-color="#6B6775"/>
</linearGradient>
<linearGradient id="paint23_linear_2275_3339" x1="945.041" y1="154.593" x2="1148.34" y2="85.7949" gradientUnits="userSpaceOnUse">
<stop stop-color="#E043DA"/>
<stop offset="1" stop-color="#18121A"/>
</linearGradient>
<linearGradient id="paint24_linear_2275_3339" x1="1051.92" y1="93.5255" x2="1033.31" y2="191.291" gradientUnits="userSpaceOnUse">
<stop stop-color="#E38CDB"/>
<stop offset="1" stop-color="#0B0822"/>
</linearGradient>
<linearGradient id="paint25_linear_2275_3339" x1="1041.39" y1="98.7407" x2="1031.8" y2="145.535" gradientUnits="userSpaceOnUse">
<stop stop-color="#FDFDFD"/>
<stop offset="1" stop-color="#222125"/>
</linearGradient>
<linearGradient id="paint26_linear_2275_3339" x1="1041.39" y1="98.7407" x2="1031.8" y2="145.535" gradientUnits="userSpaceOnUse">
<stop stop-color="#FDFDFD"/>
<stop offset="1" stop-color="#6B6775"/>
</linearGradient>
<clipPath id="clip0_2275_3339">
<rect width="1104" height="416" fill="white"/>
</clipPath>
<clipPath id="clip1_2275_3339">
<rect x="487" y="383" width="117" height="33" rx="16.5" fill="white"/>
</clipPath>
<clipPath id="clip2_2275_3339">
<rect x="360" y="106" width="142" height="32" rx="16" fill="white"/>
</clipPath>
<clipPath id="clip3_2275_3339">
<rect x="597" y="106" width="130" height="32" rx="16" fill="white"/>
</clipPath>
<clipPath id="clip4_2275_3339">
<rect x="804" width="123" height="32" rx="16" fill="white"/>
</clipPath>
<clipPath id="clip5_2275_3339">
<rect y="106" width="142" height="32" rx="16" fill="white"/>
</clipPath>
<clipPath id="clip6_2275_3339">
<rect x="182" width="83" height="32" rx="16" fill="white"/>
</clipPath>
<clipPath id="clip7_2275_3339">
<rect x="941" y="106" width="163" height="32" rx="16" fill="white"/>
</clipPath>
</defs>
</svg>
