<svg id="fb71967e-e488-496e-9740-dba9a4c8b17e" data-name="Ebene 1" xmlns="http://www.w3.org/2000/svg"
  viewBox="0 0 228.1 158.5">
  <polygon points="141.3 76 121.7 25 101.8 76 141.3 76" />
  <path d="M157.7,81.4A50.11,50.11,0,0,0,125.3,0Z" />
  <path d="M103.8,40.2A50.16,50.16,0,0,0,59.1,90a49.65,49.65,0,0,0,12,32.5Z" />
  <path d="M144.2,86.7h-45l-9.8,25.2a50.11,50.11,0,0,0,64.6-.4Z" />
  <path d="M11.1,158.5l-1.2-4.7H5.7l-1,4.1H0L5.4,141h4.8l5.3,16.3ZM7.8,145.4h0l-1.4,5.4H9.1Z" />
  <path d="M24.9,145v12.9H20.2V145H15.8v-4H29.4v3.9H24.9Z" />
  <path d="M45.4,158.1l-.3-9.9h0l-2.9,9.7H37.8L35,148.3h0l-.3,9.6H30.6L31.9,141H37l3.1,10.5h0L43.2,141h5.2l1.3,16.7Z" />
  <path d="M52.8,157.9V141h4.7v16.9Z" />
  <path d="M71.2,158.3,65,149.5h0l.1,8.4H60.9V141h3.4l6,8.4h0l-.1-8.4h4.2v16.6Z" />
  <path d="M87.3,158.5l-1.2-4.7H81.9l-1,4.1H76.3L81.7,141h4.8l5.3,16.3ZM84,145.4h0l-1.4,5.4h2.7Z" />
  <path
    d="M104,158.2a11.13,11.13,0,0,1-5.7-1.3l1.5-3.9a8,8,0,0,0,3.7,1.1c1.2,0,1.9-.4,1.9-1.1s-.5-1-1.6-1.4L102,151c-2-.8-3.5-2.1-3.5-4.9,0-3.4,3.1-5.5,6.2-5.5a12.19,12.19,0,0,1,4.9,1.1l-1.5,3.8a7.56,7.56,0,0,0-3.1-1c-1.1,0-1.9.4-1.9,1.1,0,.9.8,1,1.6,1.3l1.8.7c2,.8,3.6,2.2,3.6,4.3A5.93,5.93,0,0,1,104,158.2Z" />
  <path
    d="M119.9,158.2c-6.2,0-8.3-4.6-8.3-8.8s2-8.7,8.3-8.7,8.3,4.5,8.3,8.7S126.1,158.2,119.9,158.2Zm0-13.5c-2.3,0-3.4,1.7-3.4,4.8s1.1,4.9,3.4,4.9,3.4-1.8,3.4-4.9S122.2,144.7,119.9,144.7Z" />
  <path d="M130.7,157.9V141h4.7v13h5.5v3.9Z" />
  <path
    d="M150,158.3c-4.9,0-7.1-2.7-7.1-7.6V141h4.7v9.5c0,2.5.8,3.2,2.5,3.2s2.2-1.3,2.2-2.8V141h4.6v9.8C156.8,155.3,154.5,158.3,150,158.3Z" />
  <path d="M167.8,145v12.9h-4.7V145h-4.4v-4h13.6v3.9h-4.5Z" />
  <path d="M174.1,157.9V141h4.7v16.9Z" />
  <path
    d="M189.6,158.2c-6.2,0-8.3-4.6-8.3-8.8s2-8.7,8.3-8.7,8.3,4.5,8.3,8.7S195.8,158.2,189.6,158.2Zm0-13.5c-2.3,0-3.4,1.7-3.4,4.8s1.1,4.9,3.4,4.9,3.4-1.8,3.4-4.9S191.9,144.7,189.6,144.7Z" />
  <path d="M210.7,158.3l-6.2-8.8h0l.1,8.4h-4.2V141h3.4l6,8.4h0l-.1-8.4h4.2v16.6Z" />
  <path
    d="M221.9,158.2a11.13,11.13,0,0,1-5.7-1.3l1.5-3.9a8,8,0,0,0,3.7,1.1c1.2,0,1.9-.4,1.9-1.1s-.5-1-1.6-1.4L220,151c-2-.8-3.5-2.1-3.5-4.9,0-3.4,3.1-5.5,6.2-5.5a12.19,12.19,0,0,1,4.9,1.1l-1.5,3.8a7.56,7.56,0,0,0-3.1-1c-1.1,0-1.9.4-1.9,1.1,0,.9.8,1,1.6,1.3l1.8.7c2,.8,3.6,2.2,3.6,4.3A6,6,0,0,1,221.9,158.2Z" />
  </svg>