<svg id="e5e4b37b-849c-4631-88b9-778f47779c89" data-name="Calque 1" xmlns="http://www.w3.org/2000/svg"
  viewBox="0 0 425.55 73.1">
  <path
    d="M244.41,69.1l-4.7-15.6h-21.9l-4.7,15.6H198.64L220.25,3.49h17.67L259.25,69.1ZM228.9,16.47h-.47l-7.18,24.9h15Z" />
  <path
    d="M268.38,3.49h31.87c10.81,0,17.29,6.68,17.29,16.83S312,34.14,305.33,34.42V35c6.2,0,14.75,4.14,14.75,15.42,0,10.34-7.24,18.7-16.92,18.7H268.38Zm14.29,26.89h14.2c3.76,0,6-2.26,6-6V21.54c0-3.76-2.25-6-6-6h-14.2Zm0,26.69h16.45c3.76,0,6.11-2.16,6.11-5.92V48c0-3.76-2.35-5.92-6.11-5.92H282.67Z" />
  <path d="M331.08,69.1V3.49h14.29V56.41h25V69.1Z" />
  <path d="M380.9,69.1V3.49h44.65V16.18H395.19V29.62h26v12.6h-26V56.41h30.36V69.1Z" />
  <path
    d="M0,3.49H31.86c10.81,0,17.29,6.68,17.29,16.8s-5.54,13.82-12.21,14.1V35c6.2,0,14.75,4.14,14.75,15.42,0,10.34-7.23,18.7-16.92,18.7H0ZM14.25,30.38h14.2c3.76,0,6-2.26,6-6V21.54c0-3.76-2.25-6-6-6H14.25Zm0,26.69H30.73c3.76,0,6.11-2.16,6.11-5.92V48c0-3.76-2.35-5.92-6.11-5.92H14.25Z" />
  <path d="M62.69,69.1V3.49h44.65V16.18H77V29.62h26v12.6H77V56.41h30.36V69.1Z" />
  <path id="a07d82fe-a66d-4082-a692-cdf5592cdeb5" data-name="Soustraction 1"
    d="M157.8,73.1H143.86a14,14,0,0,1-12.14-7L118.78,43.6a14,14,0,0,1,0-14L131.72,7.1a14.12,14.12,0,0,1,3-3.66l23,41V73.1Z" />
  <path id="abf46a1d-c338-4d5a-a2fc-88f03c654295" data-name="Soustraction 1-2"
    d="M166.36,28.9h-.21L150.55,0H169.5a14,14,0,0,1,9.77,4Z" />
  <path id="aa1f6321-20e5-4b89-8299-c9087478c29c" data-name="Soustraction 1-3"
    d="M173.5,72.68h0V44.55L188,18.79l6.36,11a14,14,0,0,1,0,14l-12.95,22.5a14,14,0,0,1-7.93,6.38Z" />
</svg>
