<svg id="bd491a2e-d120-496f-93b6-b299e0dec68e" xmlns="http://www.w3.org/2000/svg" viewBox="0 0 116.23 37.11">
  <path
    d="M0,29.37V.47H13.42q5.78,0,8.37,1.73t2.59,5.72q0,5-3.86,6.39a5.49,5.49,0,0,1,3.57,2.29,9,9,0,0,1,1.07,4.81q0,4.53-2.83,6.24t-9,1.72ZM6.28,12h7.38A5.34,5.34,0,0,0,17,11.25a2.93,2.93,0,0,0,.92-2.4A2.67,2.67,0,0,0,17,6.59a5.7,5.7,0,0,0-3.31-.7H6.28Zm0,12h7.8a6.38,6.38,0,0,0,3.53-.74,2.85,2.85,0,0,0,1.08-2.53,2.84,2.84,0,0,0-1.06-2.52,6.52,6.52,0,0,0-3.55-.72H6.28Z" />
  <path d="M29.09,29.37V.47h6.39v28.9Z" />
  <path
    d="M59.33,37.09a17,17,0,0,1-6-.82,4.74,4.74,0,0,1-2.78-2.47A10.59,10.59,0,0,1,50,29.13a12.55,12.55,0,0,1-8-4.3q-2.74-3.42-2.74-9.93Q39.24,0,54.52,0T69.85,14.9q0,7.41-3.57,10.82T56.09,29.45a2.43,2.43,0,0,0,.57,2,4.79,4.79,0,0,0,2.63.46H63V37C62,37.06,60.74,37.09,59.33,37.09ZM47.73,21.88q2,2.34,6.84,2.34t6.85-2.34q2-2.34,2-6.86c0-3-.67-5.3-2-6.85S57.8,5.85,54.57,5.85s-5.5.78-6.84,2.32-2,3.83-2,6.85S46.39,20.32,47.73,21.88Z" />
  <path d="M73.41,29.37V.47h6.4V11.55H93V.47h6.39v28.9H93V17.51H79.81V29.37Z" />
  <path d="M106.9,1.17h-2V.45h4.83v.72h-2V6H107Z" />
  <path d="M110.48.45h1l1.87,4.48L115.23.45h1V6h-.75V1.74L113.67,6H113l-1.81-4.28V6h-.75Z" />
</svg>
