<svg id="fe661849-8136-4abe-9d27-be74cfae9ef9" data-name="Layer 1" xmlns="http://www.w3.org/2000/svg"
  viewBox="0 0 198 32">
  <path id="bc13ffad-86ff-4e49-b744-e80130771b6e" data-name="Carmmunity"
    d="M49.94,22.74A6,6,0,0,0,56,18h3.11a9.06,9.06,0,0,1-9.21,7.58,9.73,9.73,0,0,1-9.89-9.88,9.69,9.69,0,0,1,9.89-9.86,9,9,0,0,1,9.21,7.54H56a6,6,0,0,0-6.1-4.74,6.74,6.74,0,0,0-6.84,7.06A6.76,6.76,0,0,0,49.94,22.74ZM71.41,12H74.3V25.2H71.41v-1a6.79,6.79,0,0,1-10.89-5.54,6.79,6.79,0,0,1,10.89-5.54ZM67.6,22.9A4.39,4.39,0,0,0,71.41,21V16.24a4.39,4.39,0,0,0-3.81-1.9,4.17,4.17,0,0,0-4.17,4.28A4.17,4.17,0,0,0,67.6,22.9Zm12.52-9.07A6.41,6.41,0,0,1,85,11.76V14.5a6.08,6.08,0,0,0-4.87,2.41V25.2H77.21V12h2.91Zm22.43-2.13c3.44,0,5.79,2.08,5.79,6V25.2h-2.88V17.67c0-2.33-1.23-3.33-3.11-3.33a4.15,4.15,0,0,0-3.5,1.79A6.67,6.67,0,0,1,99,17.5v7.7H96.08V17.5c0-2.32-1.23-3.16-2.94-3.16a4.24,4.24,0,0,0-3.56,1.87v9H86.67V12h2.91v1.12a5.39,5.39,0,0,1,3.9-1.46,5.27,5.27,0,0,1,4.36,1.91A6.38,6.38,0,0,1,102.55,11.7Zm24.25,0c3.44,0,5.79,2.08,5.79,6V25.2h-2.88V17.67c0-2.33-1.23-3.33-3.11-3.33a4.15,4.15,0,0,0-3.5,1.79,7.46,7.46,0,0,1,.11,1.37v7.7h-2.88V17.5c0-2.32-1.23-3.16-2.94-3.16a4.23,4.23,0,0,0-3.56,1.87v9h-2.91V12h2.91v1.12a5.39,5.39,0,0,1,3.89-1.46,5.28,5.28,0,0,1,4.37,1.91A6.36,6.36,0,0,1,126.8,11.7Zm18,.34h2.88V25.2h-2.88V23.91a6.21,6.21,0,0,1-4.29,1.63c-3.41,0-5.71-2.44-5.71-6.22V12h2.89v7.11c0,2.41,1.31,3.75,3.41,3.75a4.87,4.87,0,0,0,3.7-2.07Zm13-.34c3.42,0,5.74,2.36,5.74,6.16V25.2h-2.91V18c0-2.41-1.29-3.69-3.42-3.69a4.88,4.88,0,0,0-3.66,2V25.2h-2.92V12h2.92v1.18A6.35,6.35,0,0,1,157.79,11.7ZM167.93,9a1.8,1.8,0,1,1,0-3.59,1.8,1.8,0,1,1,0,3.59Zm-1.43,3h2.88V25.2H166.5Zm15.15,10.3.42,2.66a8.41,8.41,0,0,1-3,.54c-3.36,0-5.15-2-5.15-5.41V14.48h-3.11V12h3.11V7.2h2.91V12h4.87v2.44h-4.87v5.65c0,1.91.95,2.72,2.58,2.72A6,6,0,0,0,181.65,22.34ZM194.5,12h3.08L188.9,31.7h-3.05l2.77-6.3L181.9,12H185l5,10.31Z" />
  <path id="f76303de-2125-4391-98df-b725cf160ad7" data-name="Combined-Shape"
    d="M24.33,2.33,19.85,6.81a10,10,0,1,0-3.77,19.27,10,10,0,0,0,3.9-.79l4.37,4.36a16,16,0,1,1,0-27.32Zm3.14,2.52a16,16,0,0,1,0,22.29L23.32,23a10,10,0,0,0-.09-13.88ZM16.08,22.08a6,6,0,1,1,6-6A6,6,0,0,1,16.08,22.08Z" />
</svg>
