<svg xmlns="http://www.w3.org/2000/svg" viewBox="0 0 126.8212 27.4985">
  <path
    d="M10.3157 5.75488c-2.04022 0-4.03466.59851-5.73108 1.71982-1.69641 1.12132-3.0186 2.7151-3.799377 4.5798-.78077306 1.8647-.985059 3.9165-.587025 5.8961.398035 1.9795 1.380512 3.7978 2.823192 5.225 1.44268 1.4271 3.28077 2.3991 5.28183 2.7928 2.00106.3938 4.07516.1917 5.96016-.5807 1.8849-.7724 3.496-2.0803 4.6296-3.7585 1.1335-1.6782 1.7385-3.6512 1.7385-5.6695-.0029-2.7056-1.0907-5.2996-3.0246-7.21276-1.934-1.91316-4.5561-2.98922-7.2912-2.99206zm0 17.50932c-1.46134 0-2.88987-.4289-4.10478-1.2323-1.2149-.8035-2.16158-1.9454-2.72023-3.2812-.55865-1.3359-.70415-2.8056-.4181-4.2233.28604-1.4177.99079-2.7196 2.02505-3.741 1.03425-1.0213 2.35154-1.71617 3.78514-1.99664 1.43362-.28047 2.91912-.13394 4.26852.42105 1.3494.555 2.502 1.49349 3.312 2.69679.8101 1.2032 1.241 2.6172 1.2385 4.0628-.0046 1.9353-.7847 3.7898-2.1692 5.157s-3.2606 2.1356-5.2169 2.1368z" />
  <path
    d="M12.0068 17.3388l.0302-.0346.0302-.0345.0281-.0367.028-.0367.0259-.0366c0-.013.0173-.0259.0259-.0367.0094-.0125.018-.0254.0259-.0389l.0259-.0388.0237-.0389.0238-.041.0216-.0388c.008-.0132.0152-.0269.0215-.041l.0216-.041.0195-.041.0194-.0432c.007-.0138.0128-.0283.0172-.0432l.0195-.0431c0-.013 0-.0281.0151-.0432l.0172-.0432.013-.0453c.006-.014.011-.0284.0151-.0431l.0129-.0454.013-.0453v-.0129l1.0316-3.7639-3.77895 1.0381h-.04316l-.04748.013-.04316.0151-.04532.0151-.04317.0151-.04316.0172-.04316.0173-.04316.0194-.04101.0195-.04316.0194-.03885.0216-.04316.0215-.03885.0216-.03885.0238-.03884.0259-.03885.0237-.03885.0259-.03669.0259-.03669.0281c-.01312.0081-.0254.0175-.03668.028l-.03453.0281-.03669.0302-.03453.0302-.03453.0302-.03238.0302-.03237.0324-.03237.0345-.03021.0324c-.0112.0105-.02132.022-.03022.0345l-.03237.0346c-.0087.012-.01806.0235-.02806.0345l-.02805.0367c-.01.011-.01936.0225-.02806.0345l-.02806.0389-.02589.0366-.0259.0389-.02374.0388c-.00869.0125-.01662.0255-.02374.0389l-.02374.0388-.02374.041-.01942.041c-.00847.013-.0157.0267-.02159.041l-.01942.0411-.01942.0431-.01943.041c0 .0151 0 .0302-.01726.0432-.01727.0129 0 .0302-.01727.0431-.01726.013 0 .0303-.0151.0454-.01511.0151 0 .028-.01511.0431l-.01295.0454-.01295.0453-.01295.0453-1.04023 3.7854 3.78108-1.0359.0453-.013.0454-.0129.0453-.013.0453-.0151.0432-.0172.0431-.0151.0432-.0195.0432-.0172.041-.0195.041-.0215.041-.0195.041-.0215.041-.0238.0388-.0237.0389-.0238.0388-.0237.0367-.0259.0389-.0281.0366-.0258.0367-.0281.0346-.0281.0366-.0302.0324-.0302.0346-.0302.0345-.0324.0324-.0323.0323-.0324.0302-.0324.0346-.0345zM10.3147 4.11067h-.45111c-.1149 0-.22981 0-.34258.0188h-.04256c-.26811.02088-.53197.04803-.79582.08354-.34684.04803-.68942.11069-1.02775.19005-.02829.00299-.05683.00299-.08512 0-.07711.0011-.15255-.02202-.21533-.06598s-.1096-.10645-.13364-.17837L6.66755 2.1266c-.01244-.04581-.01547-.09359-.0089-.14056.00657-.04697.02261-.09218.04717-.13301.02456-.04082.05715-.07644.09588-.10477.03874-.02833.08283-.04881.1297-.06024.52468-.1235 1.05608-.21763 1.59164-.28194h.08299l.30003-.03133.13831-.01253.28513-.02089.14469-.01044.28939-.01253h1.10222l.2894.01253.1447.01044.2851.02089.1383.01253.3001.03133h.083c.5355.06413 1.067.15826 1.5916.28194.0471.0112.0914.03151.1303.05975.039.02823.0718.06381.0966.10466.0248.04085.041.08614.0477.13322.0067.04708.0038.095-.0086.14095l-.5554 2.03211c-.0206.07542-.0659.14207-.129.18965-.0631.04757-.1404.0734-.22.0735-.0275.00308-.0554.00308-.083 0-.3404-.07937-.683-.14202-1.0298-.19006-.2639-.0355-.5277-.06265-.7937-.08354h-.0426l-.3447-.01879h-.4511v-.0188z" />
  <path
    d="M37.2217 7.18164c-5.125 0-8.9893 3.73216-8.9893 8.67956s3.8643 8.6341 8.9893 8.6341c1.7673-.0072 3.4883-.5653 4.9236-1.5964l.078-.0607v-3.8188l-.3401.3531c-.6006.6093-1.3156 1.094-2.1041 1.4263-.7884.3324-1.6346.5057-2.4902.5102-1.4994.0352-2.9527-.5202-4.0463-1.5466-.5076-.5126-.9074-1.1217-1.1756-1.7914-.2683-.6697-.3996-1.3863-.3861-2.1076 0-3.1842 2.3588-5.4954 5.608-5.4954.8578-.0027 1.7073.1687 2.497.5038.7896.3351 1.5031.8269 2.0973 1.4457l.3401.3617V8.83871l-.078-.06065C40.71 7.74688 38.989 7.18885 37.2217 7.18164zM49.8979 11.7788c-1.7017-.0201-3.342.635-4.5618 1.8217-1.1868 1.2093-1.8517 2.836-1.8517 4.5304 0 1.6943.6649 3.3211 1.8517 4.5304.6028.5897 1.316 1.0549 2.0988 1.369.7827.314 1.6196.4708 2.463.4613 1.2638.0047 2.5005-.3657 3.5537-1.0644 1.0531-.6986 1.8753-1.694 2.3623-2.8602.4871-1.1662.6172-2.4506.3738-3.6908-.2434-1.2401-.8493-2.3802-1.741-3.2757-1.217-1.1829-2.8518-1.8376-4.5488-1.8217zm0 9.6673c-1.7827 0-3.1257-1.4232-3.1257-3.3098 0-1.8867 1.343-3.312 3.1257-3.312 1.7827 0 3.1278 1.4231 3.1278 3.312 0 1.8888-1.3451 3.3141-3.1278 3.3141v-.0043zM71.6933 11.7787c-.7479-.0244-1.4893.1453-2.1521.4927-.6628.3473-1.2244.8604-1.6299 1.4893-.7105-1.2997-1.93-1.982-3.5524-1.982-.6115.0127-1.211.1729-1.7473.4671-.5362.2942-.9935.7135-1.3329 1.2224v-1.4058h-3.2492v12.154h3.2492v-6.5178c0-1.7978.8188-2.8701 2.1921-2.8701 1.1848 0 1.9213.9835 1.9213 2.5669v6.821h3.2492v-6.5178c0-1.7697.8318-2.8701 2.1661-2.8701 1.2022 0 1.9191.9596 1.9191 2.5669v6.821h3.2492v-7.0766c-.0108-3.3532-1.6073-5.3611-4.2824-5.3611zM85.0819 11.7783c-1.5726 0-2.8831.6499-3.7019 1.7654v-1.4816h-3.2491v16.7548H81.38v-6.0824c.8123 1.1285 2.1228 1.761 3.6954 1.761.7812.0035 1.5546-.1564 2.2704-.4694.7158-.3129 1.3584-.7721 1.8863-1.3479 1.0913-1.26 1.692-2.8711 1.692-4.538s-.6007-3.278-1.692-4.538c-.5264-.5765-1.1675-1.0366-1.8823-1.3507-.7147-.3141-1.4872-.4753-2.2679-.4732zm2.5581 6.3575c0 1.8867-1.3451 3.3099-3.1278 3.3099-1.7827 0-3.1322-1.4188-3.1322-3.3055 0-1.8867 1.343-3.312 3.1257-3.312 1.7827 0 3.1343 1.4231 3.1343 3.312v-.0044zM101.603 13.5437c-.817-1.1155-2.1359-1.7654-3.7193-1.7654-.7784-.002-1.5486.1588-2.2611.4722-.7126.3133-1.3516.7723-1.8762 1.3474-1.0886 1.2608-1.6876 2.8711-1.6876 4.5369s.599 3.276 1.6876 4.5369c.5242.5755 1.1632 1.0347 1.8758 1.3481.7126.3134 1.483.474 2.2615.4714 1.5834 0 2.9023-.6347 3.7193-1.761v1.4816h3.249V12.0621h-3.249v1.4816zm0 4.5965c0 1.8867-1.345 3.3098-3.128 3.3098-1.7827 0-3.1278-1.4231-3.1278-3.3098s1.3451-3.312 3.1278-3.312c1.783 0 3.128 1.4231 3.128 3.312zM112.83 16.8533l-1.476-.3466c-.896-.2296-1.083-.5155-1.083-.8664 0-.5156.496-.8253 1.328-.8253 1.408 0 2.896.4765 3.791 1.2108l.323.2665V12.924l-.085-.0607c-.968-.665-2.469-1.083-3.916-1.083-2.933 0-4.683 1.4643-4.683 3.9163 0 1.8607 1.169 3.0737 3.476 3.6087l1.363.3249c.916.234 1.105.5567 1.105.9704 0 .5827-.501.9163-1.374.9163-1.592-.0496-3.124-.6212-4.36-1.6267l-.321-.2665-.028 3.3835.091.0585c1.347.8924 2.972 1.4274 4.345 1.4274 3.135 0 4.935-1.4014 4.935-3.847-.007-2.0231-1.122-3.2643-3.431-3.7928zM123.402 16.8533l-1.477-.3466c-.897-.2296-1.083-.5155-1.083-.8664 0-.5156.496-.8253 1.328-.8253 1.408 0 2.896.4765 3.791 1.2108l.325.2665V12.924l-.087-.0607c-.968-.665-2.467-1.083-3.914-1.083-2.935 0-4.686 1.4643-4.686 3.9163 0 1.8607 1.17 3.0737 3.466 3.6087l1.365.3249c.914.234 1.102.5567 1.102.9704 0 .5827-.5.9163-1.373.9163-1.592-.0496-3.124-.6212-4.36-1.6267l-.321-.2665-.026 3.3835.089.0585c1.349.8924 2.974 1.4274 4.345 1.4274 3.137 0 4.935-1.4014 4.935-3.847.017-2.0231-1.105-3.2643-3.419-3.7928z" />
</svg>
