<svg id="b0a987d6-5884-47c4-b9bf-a531c63bd8fd" data-name="Ebene 1" xmlns="http://www.w3.org/2000/svg"
  viewBox="0 0 473.27 260.15">
  <path
    d="M183.12,101.54a15.37,15.37,0,0,0-7,1.52,14.6,14.6,0,0,0-5,4.09,18.88,18.88,0,0,0-3,6.07,31,31,0,0,0-1.23,7.45h31.7q.24-8.92-3.58-14C192.41,103.25,188.47,101.54,183.12,101.54Z" />
  <path
    d="M416.5,0H51.78A51.78,51.78,0,0,0,0,51.78v65.93a51.78,51.78,0,0,0,51.78,51.78H67.07c19,.28,49.36,12.74,49.36,49.28.66,39.54,43.34,41.12,51.46,41.12l248.61.26a56.77,56.77,0,0,0,56.77-56.77V56.77A56.77,56.77,0,0,0,416.5,0ZM219.11,126.74c0,2.59-.57,4.5-1.73,5.74a6.18,6.18,0,0,1-4.75,1.85H166.85a31.22,31.22,0,0,0,1.15,8.73,16.51,16.51,0,0,0,3.62,6.65,15.86,15.86,0,0,0,6.41,4.18,27.5,27.5,0,0,0,9.38,1.43,53.47,53.47,0,0,0,9.8-.8,67.91,67.91,0,0,0,7.28-1.77q3.07-1,5.1-1.78a9.58,9.58,0,0,1,3.29-.8,2.52,2.52,0,0,1,1.26.3,2.13,2.13,0,0,1,.84,1.05,6.83,6.83,0,0,1,.47,2.15c.09.92.13,2.1.13,3.5s0,2.29-.1,3.16a18.57,18.57,0,0,1-.24,2.23,5.46,5.46,0,0,1-.51,1.57,5,5,0,0,1-.89,1.21,10.06,10.06,0,0,1-3,1.61,46.9,46.9,0,0,1-6.23,2,84.72,84.72,0,0,1-8.69,1.68,70.36,70.36,0,0,1-10.44.72,55.24,55.24,0,0,1-17.58-2.53,31.16,31.16,0,0,1-12.6-7.66,31.86,31.86,0,0,1-7.54-13,60.81,60.81,0,0,1-2.49-18.36,58.44,58.44,0,0,1,2.61-18.09,37.85,37.85,0,0,1,7.59-13.65,32.37,32.37,0,0,1,12.1-8.55,41.29,41.29,0,0,1,16-3,42.15,42.15,0,0,1,16.14,2.78,29.1,29.1,0,0,1,11,7.72,31.12,31.12,0,0,1,6.32,11.67,51.13,51.13,0,0,1,2,14.66Zm87.2,37.81a12.12,12.12,0,0,1-.63,2.82,3.3,3.3,0,0,1-1.1,1.56,2.63,2.63,0,0,1-1.52.47H240.35a13.53,13.53,0,0,1-3.2-.34,4.26,4.26,0,0,1-2.19-1.31,6.26,6.26,0,0,1-1.22-2.82,24.94,24.94,0,0,1-.38-4.8,38,38,0,0,1,.26-4.77,12.65,12.65,0,0,1,.92-3.54,16.89,16.89,0,0,1,1.73-3,33.43,33.43,0,0,1,2.74-3.24l18.87-20.23A99.59,99.59,0,0,0,267,114.57a65.11,65.11,0,0,0,5.4-8.85A33.71,33.71,0,0,0,275,98.34a30.67,30.67,0,0,0,.71-6.41,15.53,15.53,0,0,0-.88-5.26,12.45,12.45,0,0,0-2.61-4.35,12,12,0,0,0-4.34-2.9,16.32,16.32,0,0,0-6.16-1A28,28,0,0,0,253,79.63a42.34,42.34,0,0,0-6.74,2.82c-1.94,1-3.54,2-4.84,2.87a6.2,6.2,0,0,1-3,1.3,1.83,1.83,0,0,1-1.31-.51,3.56,3.56,0,0,1-.88-1.67,19.9,19.9,0,0,1-.55-3.17,46.8,46.8,0,0,1-.21-4.84c0-1.29,0-2.38.13-3.25a13.89,13.89,0,0,1,.38-2.27,6,6,0,0,1,.68-1.69A8,8,0,0,1,238,67.5a19.94,19.94,0,0,1,3.88-2.58,47.5,47.5,0,0,1,7-3A66.4,66.4,0,0,1,258,59.4a52.16,52.16,0,0,1,10.36-1,46.44,46.44,0,0,1,14.89,2.15,29.47,29.47,0,0,1,10.57,6,23.91,23.91,0,0,1,6.28,9.1A30.71,30.71,0,0,1,302.14,87a53.48,53.48,0,0,1-1,10.44,39.6,39.6,0,0,1-4.21,11.09,87.16,87.16,0,0,1-9,13.14,213.2,213.2,0,0,1-15.42,16.74l-12.73,13.07h43a2.7,2.7,0,0,1,1.56.5,3.85,3.85,0,0,1,1.23,1.55,10,10,0,0,1,.75,2.79,28.2,28.2,0,0,1,.26,4.09A37.77,37.77,0,0,1,306.31,164.55Zm134.8,2a2.31,2.31,0,0,1-.5,1.47,3.7,3.7,0,0,1-1.69,1.06,14.85,14.85,0,0,1-3.21.63,51.3,51.3,0,0,1-5.14.21,52.23,52.23,0,0,1-5.22-.21,15.44,15.44,0,0,1-3.24-.63,3.39,3.39,0,0,1-1.7-1.06,2.4,2.4,0,0,1-.46-1.47V121.94a30.7,30.7,0,0,0-.71-6.91,16.55,16.55,0,0,0-2.19-5.35,10.51,10.51,0,0,0-3.72-3.46A10.9,10.9,0,0,0,408,105a12.67,12.67,0,0,0-7.67,3,51.17,51.17,0,0,0-8.43,8.6v50a2.27,2.27,0,0,1-.51,1.47,3.51,3.51,0,0,1-1.72,1.06,15.86,15.86,0,0,1-3.24.63,50.53,50.53,0,0,1-5.06.21c-2.09,0-3.79-.07-5.15-.21a15.86,15.86,0,0,1-3.24-.63,3.64,3.64,0,0,1-1.73-1.06,2.31,2.31,0,0,1-.5-1.47V121.94A30.09,30.09,0,0,0,370,115a16.5,16.5,0,0,0-2.13-5.35,10.11,10.11,0,0,0-3.72-3.46,10.94,10.94,0,0,0-5.3-1.22,12.75,12.75,0,0,0-7.76,3,48.53,48.53,0,0,0-8.34,8.6v50a2.27,2.27,0,0,1-.51,1.47,3.6,3.6,0,0,1-1.72,1.06,15.86,15.86,0,0,1-3.24.63c-1.36.14-3.08.21-5.15.21s-3.8-.07-5.15-.21a15.72,15.72,0,0,1-3.24-.63A3.69,3.69,0,0,1,322,168a2.31,2.31,0,0,1-.5-1.47V91.35a2.6,2.6,0,0,1,.42-1.48,3.06,3.06,0,0,1,1.51-1.05,11.26,11.26,0,0,1,2.83-.63,37,37,0,0,1,4.34-.21,39.13,39.13,0,0,1,4.47.21,9.49,9.49,0,0,1,2.73.63,3.06,3.06,0,0,1,1.39,1.05,2.52,2.52,0,0,1,.42,1.48V100a49.6,49.6,0,0,1,12.44-10.11A26.59,26.59,0,0,1,365,86.54a32.9,32.9,0,0,1,8.35,1A24.11,24.11,0,0,1,380,90.29a20.76,20.76,0,0,1,5,4.34,24.94,24.94,0,0,1,3.54,5.65A63.66,63.66,0,0,1,395.13,94a39.16,39.16,0,0,1,6.4-4.25,28.78,28.78,0,0,1,6.33-2.45,26.32,26.32,0,0,1,6.45-.8A28.45,28.45,0,0,1,427,89.07a22.06,22.06,0,0,1,8.3,6.87,27.75,27.75,0,0,1,4.51,10.16,54.74,54.74,0,0,1,1.35,12.3Z" />
</svg>
