<svg id="ba150b32-2988-44d0-8965-8f50d2a65abc" xmlns="http://www.w3.org/2000/svg" viewBox="0 0 128 25.4">
  <path d="M31.9,2.9,21.6.6,34,20.3l4.6-6.8Z" transform="translate(0 -0.3)" />
  <path d="M39.3,12.2,46.9.3,36.5,2.7,34.9,5.2Z" transform="translate(0 -0.3)" />
  <path d="M39.6,14.4,35.1,21l1.7,2.5,10.5,1.9Z" transform="translate(0 -0.3)" />
  <path
    d="M72,23H57V3.5h4.9V19H72ZM111,3V7.9h6V23h5V7.9h6V3ZM96.2,16.6a6.79,6.79,0,0,0,3.8-6.1c0-4.3-3.3-7.4-8.1-7.4H83.3v5h8.6c1.9,0,3.4.8,3.4,2.4s-1.5,2.7-3.4,2.7H88.3V17h3l4.2,6.2h5.9ZM14.7,7.8V3H0V23H15V18H4.9V15H11V11.2H4.9V7.8Z"
    transform="translate(0 -0.3)" />
  <path d="M72,23H57V3h4.9V19H72ZM111,3V7.9h6V23h5V7.9h6V3ZM14.7,7.8V3H0V23H15V18H4.9V15H11V11.2H4.9V7.8Z"
    transform="translate(0 -0.3)" />
  <path d="M31.6,23.8,21.2,25.7,34.3,6.6l4.3,6.9Z" transform="translate(0 -0.3)" style="isolation:isolate" />
</svg>
