<?xml version="1.0" encoding="UTF-8"?><svg id="uuid-2c1fd440-7b82-4bda-af3d-8291caa3184b" xmlns="http://www.w3.org/2000/svg" viewBox="0 0 339.11 56.77"><path d="m40.01,38.8c-.9,2.2-2.3,4.2-3.9,5.9.3.7.5,1.5.5,2.2.4,3.7,8.6,3.2,9,2.4s-.6-8-5.6-10.5m-16.5,11.3c-1.1,0-2.1-.1-3.1-.3-.01,3.37,2.39,6.27,5.7,6.9,1.4.2,2.8,0,4.1-.7h-.4c-3-.5-4-3.1-3.7-6.1l-2.6.2m-22.2-.9c.4.8,8.5,1.4,8.8-2.3.1-.8.2-1.5.5-2.2-1.7-1.7-3-3.7-3.9-5.9-4.9,2.5-5.8,9.7-5.4,10.4m5.7-26.2c1-2.3,2.5-4.3,4.3-6C7.51,13.8.91,13.5.31,13.9s-.7,8.5,3.3,8.4c1.1,0,2.3.2,3.4.7m21.8-13.9c0-.9.9-2.4.9-3.2s-2.4-2-3.5-3S24.21.1,23.41,0h-.1c-.8,0-1.8,1.9-2.8,2.9s-3.5,2.3-3.5,3,.9,2.2.9,3.2c-.1.9-.3,1.7-.6,2.5-.1.4.2.5.5,1.3h.2c3.5-1.1,7.2-1.2,10.7-.1h.2c.3-.8.6-.9.5-1.3l-.6-2.4m8.6,15.1c-.9-2-2.1-3.8-3.7-5.3-2.48-2.37-5.69-3.81-9.1-4.1l-1.2-.1-1.2.1c-3.41.29-6.62,1.73-9.1,4.1-6.53,6.46-6.8,16.92-.6,23.7,2.8,3.13,6.8,4.91,11,4.9h1.1c3.8-.3,7.3-2,9.8-4.8,4.64-5,5.82-12.29,3-18.5m9.1-10.3c-.6-.4-7.2-.1-11,3.1,1.79,1.72,3.25,3.75,4.3,6,1.1-.5,2.3-.7,3.5-.6,3.9,0,3.9-8,3.2-8.5m286.4,25.4c0,2.7-2.8,4.2-5.9,4.2-5.1,0-6.6-5.2-6.6-5.2l-5.4,2.4s1.8,8.4,12,8.4c7.5,0,12-4.2,12-9.9,0-6.5-4.6-8.7-10-10.8-4.8-1.9-7.1-3-7.1-5.8,0-2.2,2-4,5.5-4,4.8,0,6.4,4.7,6.4,4.7l5.3-2.4s-2.1-8-11.6-8c-7.5,0-11.5,4.6-11.5,9.8,0,6.2,5.2,9,10.5,11,4,1.5,6.5,2.8,6.4,5.6m-37.7-4.1c0,5-2.5,8.3-7.5,8.3s-7.5-3.3-7.5-8.3V13.6h-6v22.3c0,7.7,5,13.3,13.5,13.3s13.5-5.6,13.5-13.3V13.6h-6v21.6Zm-41.3,13.4h7.1l-11.4-18,10.8-17h-6.9l-7.4,12.3-7.5-12.3h-7.1l10.8,16.8-11.3,18.2h6.9l8-13.3,8,13.3Zm-48.3-28l5.3,14.4h-10.5l5.2-14.4Zm-16.7,28h6.4l2.9-8h14.7l3,8h6.5l-13.4-35h-6.8l-13.3,35Zm-29.5,0h21v-5.7h-15V13.6h-6v35Zm-28.1-28l5.2,14.4h-10.5l5.3-14.4Zm-16.7,28h6.4l3-8h14.7l2.9,8h6.5l-13.4-35h-6.8l-13.3,35Zm-23.3-5.1c-6.8,0-12.4-5.5-12.5-12.3,0-6.8,5.5-12.4,12.3-12.5,3.5,0,6.8,1.4,9.2,3.9l3.9-4.3s-4.2-5.3-13.2-5.3c-10,.06-18.06,8.2-18,18.2.06,10,8.2,18.06,18.2,18,8.5,0,13.4-3.8,13.4-3.8v-16.5h-14v5.6h8.2v7.4c.1,0-2.5,1.6-7.5,1.6" stroke-width="0"/></svg>