<svg id="Layer_1" data-name="Layer 1"
    xmlns="http://www.w3.org/2000/svg" viewBox="0 0 482.81 150.3">
    <path d="M404,44a6.28,6.28,0,0,0-2-4.6,5.63,5.63,0,0,0-4.4-1.8,5.94,5.94,0,0,0-4.5,1.8,6.18,6.18,0,0,0-1.9,4.6,6.35,6.35,0,0,0,1.9,4.6,5.69,5.69,0,0,0,4,1.8h.5a5.89,5.89,0,0,0,4.4-1.8A6.45,6.45,0,0,0,404,44Z" transform="translate(-3.9 -5.25)"/>
    <path d="M381.4,35.55l-11.1,2.8v55.5c-.2,7,2.3,10.5,7.4,10.5,4.2-.1,7.1-1.7,8.8-4.9-3.6-1.3-5.2-4.8-5.1-10.5Z" transform="translate(-3.9 -5.25)"/>
    <path d="M470.1,55.05c-5,0-9,1.2-12,3.4-3.2,2.3-4.7,5.5-4.7,9.7,0,6,4.1,10.8,12.3,14.2,3.8,1.5,6.4,2.8,7.5,4a6.31,6.31,0,0,1,2,4.5c-.1,3-2.2,4.6-6.4,4.6a18,18,0,0,1-11.3-3.9l-4,8.9a44,44,0,0,0,7.4,3.1,30.36,30.36,0,0,0,7.6.8c5.5,0,10-1.3,13.3-3.9a10.87,10.87,0,0,0,3.9-5,12.5,12.5,0,0,0,1-5.4,13.29,13.29,0,0,0-2.8-8.4c-1.8-2.4-4.7-4.3-8.9-6-4.6-1.9-7.4-3.3-8.1-3.9a4,4,0,0,1-2-3.3c0-3.1,2-4.6,5.8-4.6,4.4,0,7.8,1.1,10.1,3.1l3.3-8.6A30.8,30.8,0,0,0,470.1,55.05Z" transform="translate(-3.9 -5.25)"/>
    <path d="M419.9,59.15V56h-11v66h11V102.3a22.42,22.42,0,0,0,9.6,2.1c7.3-.1,13.1-2.2,17.2-6.4s6.2-10.1,6.2-17.9c0-16.7-7.6-25-22.7-25A14.27,14.27,0,0,0,419.9,59.15Zm18.2,8.7c2.1,2.3,3.2,6.3,3.2,11.8s-1.1,9.3-3.2,11.6c-2.2,2.5-5.9,3.7-11,3.7a12,12,0,0,1-7.2-2.4v-25a10.18,10.18,0,0,1,7.2-3.1c5,0,8.7,1.1,11,3.4Z" transform="translate(-3.9 -5.25)"/>
    <path d="M403.1,56H385.7v9.1h6.1v38.4h11.3Z" transform="translate(-3.9 -5.25)"/>
    <path d="M201.5,38.45H189.9v65h11.6Z" transform="translate(-3.9 -5.25)"/>
    <path d="M271.2,48.15a6,6,0,0,1,5.1-2.7,16.15,16.15,0,0,1,5.7,1.2l3.3-8.5a32.42,32.42,0,0,0-9.6-1.8,15.53,15.53,0,0,0-12.4,5.4A21.39,21.39,0,0,0,258.2,56h-7v9.1h7v38.4h11V65.05h9.6V56H269V54.8A9.75,9.75,0,0,1,271.2,48.15Z" transform="translate(-3.9 -5.25)"/>
    <path d="M85.8,24.05a11.62,11.62,0,0,0-8-3.3,11.26,11.26,0,0,0-8,3.3,10.4,10.4,0,0,0-3.3,8.1,10.6,10.6,0,0,0,3.3,7.9,11.26,11.26,0,0,0,8,3.3,11.82,11.82,0,0,0,8-3.3A11.35,11.35,0,0,0,85.8,24.05Z" transform="translate(-3.9 -5.25)"/>
    <path d="M325.5,79.55c0-6-1.3-10.9-3.7-14.7a20.44,20.44,0,0,0-1.8-2.7c-.3-.3-.5-.5-.6-.5l-2.4-2.3a23.55,23.55,0,0,0-14.3-4.3c-7,0-12.5,2.3-16.7,6.9-4.2,4.4-6.2,10.3-6.2,17.6,0,7.6,2,13.5,6,18s9.5,6.8,16.9,6.8c5.7-.1,10.5-1.6,14.3-4.6q2-1.65,2.4-2.1l.6-.7a16.27,16.27,0,0,0,1.8-2.7A27.64,27.64,0,0,0,325.5,79.55Zm-34.1,0c0-4.8,1.1-8.6,3.1-11.4a8.89,8.89,0,0,1,8.2-4c7.5-.2,11.2,5,11.2,15.4,0,5-1,8.9-3.1,11.6a9.36,9.36,0,0,1-8.1,4.1C295,95.25,291.2,90.05,291.4,79.55Z" transform="translate(-3.9 -5.25)"/>
    <path d="M228.8,64.25c3.6,0,6.1,1,7.7,2.8s2.2,4.8,2.2,8.9v27.5h11.2V74.35c-.1-6.2-1.7-11-4.9-14.2-3.4-3.4-7.9-5.1-13.4-5.1-5.9,0-10.4,1.8-13.3,5.4L216.2,56h-8v47.5h11.1V69.15a10.3,10.3,0,0,1,4.3-3.4A10,10,0,0,1,228.8,64.25Z" transform="translate(-3.9 -5.25)"/>
    <path d="M138.5,34.05a68,68,0,0,0-6-6.7c-14.3-14.3-31.4-21.6-51.3-22.1H77.4c-19.7.5-36.9,7.7-51.4,22l-.1.1c-14.3,14.5-21.7,31.8-22,52.1v1.3c0,20.6,7.3,38.3,22.1,53.1a73,73,0,0,0,42.9,21.7l8.2-19.3a52.53,52.53,0,0,1-36.8-16.2c-10.8-10.7-16.2-23.7-16.2-39.2v-1.4a54.56,54.56,0,0,1,16.2-37.7,56.41,56.41,0,0,1,17.9-12.2l.5-2.1a19.87,19.87,0,0,1,5.3-9.2,19.1,19.1,0,0,1,27-.61c.21.2.41.4.61.61a19.84,19.84,0,0,1,4.8,8.1c.1.4.3,1,.5,1.9a55.33,55.33,0,0,1,21.6,13.5c.7.8,1.3,1.4,1.6,1.8a58.88,58.88,0,0,1,7.4,9.8,52.9,52.9,0,0,1,7.2,25.9v.2a31,31,0,0,1-9.4,22.8h-.2a30.69,30.69,0,0,1-22.8,9.6,14.12,14.12,0,0,1-10.6-4.4h-.1a13.52,13.52,0,0,1-4.3-9.4V53.35H56.4v16.1H67.3v33.8a28.34,28.34,0,0,0,9,18.4c6.8,7,15.2,10.4,25.2,10.4,15.2,0,27.8-5.1,37.9-15.3h.1a49.56,49.56,0,0,0,9.6-13.2,4.82,4.82,0,0,0,.6-1,50.57,50.57,0,0,0,4.5-15,74.25,74.25,0,0,0,.5-8.3v-.1c-.1-3.7-.3-6.4-.5-8.2a66,66,0,0,0-4.5-17.6v-.2l-.4-1.2q-1.35-3-1.5-3.3a49.48,49.48,0,0,0-2.8-5.1A59.12,59.12,0,0,0,138.5,34.05Z" transform="translate(-3.9 -5.25)"/>
    <path d="M326.3,50.65a14.58,14.58,0,0,0-.5,4.1,18.43,18.43,0,0,0,.5,4.5,10.28,10.28,0,0,0,1,2.9,12.41,12.41,0,0,0,3.9,5.8,33.52,33.52,0,0,0,6,4l4,2.1q1.8.9,3.9,2.1a27.06,27.06,0,0,1,6.1,4.7,11.41,11.41,0,0,1,2.3,6.4c-.1,4.3-2.9,6.5-8.4,7h-1.8a21.35,21.35,0,0,1-6.1-.9,35.65,35.65,0,0,1-7.2-3.8l-4.4,10.3.7.3a28.76,28.76,0,0,0,10.9,4c2.2.2,3.8.3,4.9.3h3a24.34,24.34,0,0,0,13.6-5,16.15,16.15,0,0,0,6.3-13.1,18.8,18.8,0,0,0-1.5-7.8,16.82,16.82,0,0,0-4.5-6.3c-1.8-1.8-5-3.8-9.3-5.9-3-1.6-4.5-2.4-4.6-2.5-5.2-3.1-7.7-6.2-7.7-9.2a6.55,6.55,0,0,1,2.2-5.3,7.1,7.1,0,0,1,5.5-2.1h.6a21.32,21.32,0,0,1,12.7,4.3l3.6-9.9c-3.4-2.9-8.9-4.4-16.5-4.4h-.4a19.62,19.62,0,0,0-7.9,1.5,15.74,15.74,0,0,0-5.9,3.6A14.24,14.24,0,0,0,326.3,50.65Z" transform="translate(-3.9 -5.25)"/>
</svg>