<svg id="a8ca46d1-7429-4195-ad2c-5bc0771b82ec" xmlns="http://www.w3.org/2000/svg" viewBox="0 0 202.84 33.11">
  <path
    d="M62,11.2a13.22,13.22,0,0,1,5.08,2.12,6.41,6.41,0,0,1,2.51,5.19,8,8,0,0,1-3.36,6.67,12.63,12.63,0,0,1-7.76,2.33,16.47,16.47,0,0,1-6.67-1.3A11.14,11.14,0,0,1,49,24.1a3.83,3.83,0,0,1-1.29-2.68,2.07,2.07,0,0,1,.49-1.36,1.55,1.55,0,0,1,1.22-.59,2.26,2.26,0,0,1,1.94,1.32l.57.81c.25.36.44.63.59.81A4.73,4.73,0,0,0,53,23a8.61,8.61,0,0,0,.68.55,8,8,0,0,0,4.45,1.25,6.7,6.7,0,0,0,3.69-1.06,3.35,3.35,0,0,0,1.67-3,2.73,2.73,0,0,0-1.77-2.67,16.19,16.19,0,0,0-4.45-1.25,16.45,16.45,0,0,1-5.58-1.94,6.58,6.58,0,0,1-3.08-5.59,7.29,7.29,0,0,1,.9-3.46A8.24,8.24,0,0,1,51.93,3a11.45,11.45,0,0,1,7-2,16.27,16.27,0,0,1,7.7,1.83,1.75,1.75,0,0,1,.92,1A11.58,11.58,0,0,1,67.84,7c0,1-.44,1.43-1.31,1.43a1.36,1.36,0,0,1-1.07-.72L64.25,5.89a5.42,5.42,0,0,0-1.89-1.76,6.25,6.25,0,0,0-3.12-.68,5.26,5.26,0,0,0-3,.9,2.84,2.84,0,0,0-1.33,2.47A2.67,2.67,0,0,0,56,9.22a11.73,11.73,0,0,0,3.25,1.3L62,11.2Z"
    transform="translate(-0.49 -0.67)" />
  <path
    d="M76.67,10.3c1.49,0,2.23.38,2.23,1.14a1.17,1.17,0,0,1-.42.78,6.41,6.41,0,0,0-.59.68,1.8,1.8,0,0,0-.19,1,18.35,18.35,0,0,0,1.15,6.26A13.35,13.35,0,0,0,80,22.76c.5.89,1,1.33,1.59,1.33s1.22-.64,1.72-1.93a23.26,23.26,0,0,0,1.16-4.35,23.08,23.08,0,0,0,.41-3.51A4.22,4.22,0,0,0,84.75,13a1.6,1.6,0,0,0-.77-.72,1.2,1.2,0,0,1-.75-1,.76.76,0,0,1,.46-.8,4.62,4.62,0,0,1,1.54-.18h2c1.45,0,2.17.28,2.17.85a2,2,0,0,1-.57,1.14,1.4,1.4,0,0,1-.16.23,2.78,2.78,0,0,0-.19.27,2.56,2.56,0,0,0-.11.24,32.44,32.44,0,0,0-.57,3.2,35.74,35.74,0,0,1-2.13,7.57,23.17,23.17,0,0,1-4.25,7,7.91,7.91,0,0,1-6,2.94,4.24,4.24,0,0,1-2.12-.57,1.76,1.76,0,0,1-1-1.59,1.61,1.61,0,0,1,.62-1.32,2.17,2.17,0,0,1,1.43-.5,4.24,4.24,0,0,1,1.57.37,4.71,4.71,0,0,0,1.11.36c.68,0,1.53-.57,2.56-1.71a9.25,9.25,0,0,0,1.55-2.34,5.8,5.8,0,0,1-1.66.24,5.89,5.89,0,0,1-4.27-1.89,9.51,9.51,0,0,1-2.15-4.37q-.75-2.92-1.39-7a2,2,0,0,0-.66-1.3,1.24,1.24,0,0,1-.53-.92c0-.65.57-1,1.71-1Z"
    transform="translate(-0.49 -0.67)" />
  <path
    d="M97.77,21.86a3.79,3.79,0,0,0,.35,1.9c.23.37.76.55,1.58.55a5.18,5.18,0,0,1,1.78.24,1.07,1.07,0,0,1,.63,1.14c0,.87-.78,1.31-2.34,1.31H95a4,4,0,0,1-2.32-.47c-.39-.32-.59-1.06-.59-2.22V13h-.7a3.94,3.94,0,0,1-1.56-.24c-.36-.16-.54-.53-.54-1.13s.47-1.12,1.42-1.25A3.08,3.08,0,0,0,93,9.33a10.28,10.28,0,0,0,1-3.14,2.7,2.7,0,0,1,.54-1.4,1.87,1.87,0,0,1,1.34-.36,2.43,2.43,0,0,1,1.48.28,2.13,2.13,0,0,1,.29,1.37V10.3h2a4.52,4.52,0,0,1,1.62.22c.37.15.55.53.55,1.14,0,.91-.7,1.37-2.1,1.37h-2v8.83Z"
    transform="translate(-0.49 -0.67)" />
  <path
    d="M120.51,22.21a6.52,6.52,0,0,0,.18,1.94,1.65,1.65,0,0,0,.74.68c.57.26.85.6.85,1a.9.9,0,0,1-.49.94,3.65,3.65,0,0,1-1.33.2H117c-.85,0-1.36-.14-1.55-.41a3.73,3.73,0,0,1-.33-1.76,5.86,5.86,0,0,1-5.41,2.68,7,7,0,0,1-4.44-1.42,4.69,4.69,0,0,1-1.84-3.93A4.61,4.61,0,0,1,105,18.49a9.19,9.19,0,0,1,3.9-1.94A19.45,19.45,0,0,1,113.5,16h1.2a4,4,0,0,0-.83-2.65,3,3,0,0,0-2.42-1,2.41,2.41,0,0,0-1.19.27,7.14,7.14,0,0,0-1.08.83,5.65,5.65,0,0,1-1.1.84,2.54,2.54,0,0,1-1.25.28,2.68,2.68,0,0,1-1.52-.42,1.43,1.43,0,0,1-.63-1.29c0-1,.83-1.76,2.49-2.2a18.86,18.86,0,0,1,4.69-.65,11.57,11.57,0,0,1,5.8,1.27,5.79,5.79,0,0,1,2.85,5.46v5.47Zm-6.26-4.05a5.94,5.94,0,0,0-3.51,1,3.4,3.4,0,0,0-1.46,3,2.74,2.74,0,0,0,.58,1.76,1.89,1.89,0,0,0,1.59.74A3.22,3.22,0,0,0,114.12,23a7.07,7.07,0,0,0,.76-3.71V18.16Z"
    transform="translate(-0.49 -0.67)" />
  <path
    d="M136.36,7.85a22.75,22.75,0,0,0-.11-2.63,2,2,0,0,0-1-1.25c-.57-.32-.85-.64-.85-1a.85.85,0,0,1,.56-.84,12.08,12.08,0,0,1,1.54-.48,17.7,17.7,0,0,1,4.11-1,1.1,1.1,0,0,1,1.16.84A9.41,9.41,0,0,1,142,4.08V22.21a6.52,6.52,0,0,0,.18,1.94,1.91,1.91,0,0,0,.74.68c.61.28.92.62.92,1a.9.9,0,0,1-.51.94,4,4,0,0,1-1.39.2h-3.48c-.8,0-1.3-.14-1.48-.4a4.41,4.41,0,0,1-.39-1.77,5.52,5.52,0,0,1-5.12,2.68,7.5,7.5,0,0,1-5.77-2.45,8.54,8.54,0,0,1-2.28-6,9.28,9.28,0,0,1,1.14-4.57,8.3,8.3,0,0,1,3.15-3.26A8.85,8.85,0,0,1,132.26,10a8,8,0,0,1,4.1,1.14V7.85Zm0,8.32a3.88,3.88,0,0,0-.74-2.57,2.86,2.86,0,0,0-2.33-1.07,3.07,3.07,0,0,0-3,2,10.06,10.06,0,0,0-.91,4.31,9.69,9.69,0,0,0,.84,4.12,2.91,2.91,0,0,0,2.86,1.81,3,3,0,0,0,2.69-1.42,4.64,4.64,0,0,0,.57-2.51V16.17Z"
    transform="translate(-0.49 -0.67)" />
  <path
    d="M155.84,24.72a7.09,7.09,0,0,0,4.68-2,2.21,2.21,0,0,1,1.43-.81,1,1,0,0,1,.69.3.91.91,0,0,1,.33.68,2.58,2.58,0,0,1-.94,1.75,9.05,9.05,0,0,1-1.9,1.49,11.45,11.45,0,0,1-5.76,1.43,10.61,10.61,0,0,1-4.56-1,8.68,8.68,0,0,1-3.48-2.88A7.33,7.33,0,0,1,145,19.3a8.44,8.44,0,0,1,1.45-4.9,9.38,9.38,0,0,1,3.86-3.26A12,12,0,0,1,155.45,10a9.52,9.52,0,0,1,4.93,1.29,4.13,4.13,0,0,1,2.19,3.79A3.64,3.64,0,0,1,161.18,18a10.06,10.06,0,0,1-3.34,1.82c-.62.18-1.24.34-1.86.46s-1.31.23-2.06.35l-2.58.39a4.69,4.69,0,0,0,1.58,2.68,4.46,4.46,0,0,0,2.92,1Zm1.32-10a2.49,2.49,0,0,0-.52-1.65,1.89,1.89,0,0,0-1.54-.63,3.33,3.33,0,0,0-3,1.94A8.79,8.79,0,0,0,151,18.68a11.23,11.23,0,0,0,4.24-1.12A3.06,3.06,0,0,0,157.16,14.68Z"
    transform="translate(-0.49 -0.67)" />
  <path
    d="M166.33,7.85a22.75,22.75,0,0,0-.11-2.63,2,2,0,0,0-1-1.25c-.56-.33-.85-.65-.85-1a.87.87,0,0,1,.58-.85,8.18,8.18,0,0,1,1.54-.47,17,17,0,0,1,4.09-1,1.12,1.12,0,0,1,1.17.84A9.41,9.41,0,0,1,172,4.08V22.32a6.55,6.55,0,0,0,.17,1.88c.06.21.31.42.74.63s.86.64.86,1-.17.81-.5.94a3.84,3.84,0,0,1-1.38.2h-5.48a3.89,3.89,0,0,1-1.37-.2.9.9,0,0,1-.51-.94c0-.39.29-.73.86-1a1.17,1.17,0,0,0,.74-.63,5,5,0,0,0,.22-1.88V7.85Z"
    transform="translate(-0.49 -0.67)" />
  <path
    d="M176.77,7.85a22.75,22.75,0,0,0-.11-2.63,2,2,0,0,0-1-1.25c-.56-.33-.85-.65-.85-1a.87.87,0,0,1,.58-.85,8.18,8.18,0,0,1,1.54-.47,17.05,17.05,0,0,1,4.09-1,1.12,1.12,0,0,1,1.17.84,9.41,9.41,0,0,1,.26,2.57V22.32a6.55,6.55,0,0,0,.17,1.88c.06.21.31.42.74.63s.86.64.86,1-.17.81-.5.94a3.84,3.84,0,0,1-1.38.2h-5.48a3.89,3.89,0,0,1-1.37-.2.9.9,0,0,1-.51-.94c0-.39.29-.73.86-1a1.17,1.17,0,0,0,.74-.63,5,5,0,0,0,.22-1.88V7.85Z"
    transform="translate(-0.49 -0.67)" />
  <path
    d="M196.21,24.72a7.09,7.09,0,0,0,4.68-2,2.21,2.21,0,0,1,1.43-.81,1,1,0,0,1,.69.3.91.91,0,0,1,.33.68,2.58,2.58,0,0,1-.94,1.75,9.05,9.05,0,0,1-1.9,1.49,11.45,11.45,0,0,1-5.76,1.43,10.61,10.61,0,0,1-4.56-1,8.65,8.65,0,0,1-3.47-2.88,7.26,7.26,0,0,1-1.33-4.33,8.52,8.52,0,0,1,1.45-4.9,9.45,9.45,0,0,1,3.86-3.26A12,12,0,0,1,195.82,10a9.52,9.52,0,0,1,4.93,1.29,4.12,4.12,0,0,1,2.2,3.79,3.65,3.65,0,0,1-1.4,2.91,10.06,10.06,0,0,1-3.34,1.82c-.62.18-1.24.34-1.86.46s-1.31.23-2.06.35l-2.57.39a4.62,4.62,0,0,0,1.57,2.68,4.46,4.46,0,0,0,2.92,1Zm1.32-10A2.49,2.49,0,0,0,197,13a1.87,1.87,0,0,0-1.54-.63,3.34,3.34,0,0,0-3,1.94,8.79,8.79,0,0,0-1.08,4.34,11.23,11.23,0,0,0,4.24-1.12,3.06,3.06,0,0,0,1.92-2.88Z"
    transform="translate(-0.49 -0.67)" />
  <path
    d="M41.5,18c-.34-7.59-10.09-9.25-16-9.25S9.84,10.41,9.5,18s10.62,9.25,16,9.25c5.91,0,15.66-1.66,16-9.25,0-.3-5-.45-5,0C36,29.25,15,29.25,14.5,18c-.23-5.1,5.83-7.86,10-8.62,5-.92,11.81,3.33,12.05,8.62C36.52,18.45,41.51,18.3,41.5,18Z"
    transform="translate(-0.49 -0.67)" />
  <path
    d="M32.5,18c-.34-7.59-10.09-9.25-16-9.25S.84,10.41.5,18s10.62,9.25,16,9.25c5.91,0,15.66-1.66,16-9.25,0-.3-5-.45-5,0C27,29.25,6,29.25,5.5,18c-.23-5.1,5.83-7.86,10-8.62,5-.92,11.81,3.33,12.05,8.62C27.52,18.45,32.51,18.3,32.5,18Z"
    transform="translate(-0.49 -0.67)" />
</svg>
