<svg xmlns="http://www.w3.org/2000/svg" viewBox="0 0 161 12">
  <path d="M70.7523 7.9483c-.2659.83468-1.0866 1.42704-2.0172 1.42704l-5.4736-.00539c-1.0057 0-1.8785-.58158-2.0634-1.59397-.2543-1.38933-.2832-2.73559-.0116-4.03338.2081-1.01239 1.0635-1.66936 2.075-1.66936 1.0115 0 5.4678.00538 5.4678.00538.9422 0 1.7629.58158 2.0172 1.41088l2.1559-1.3678C72.2956 1.00162 70.9893 0 69.1166 0h-6.3233c-2.0576 0-3.5315 1.35703-4.0112 2.83253-.4971 1.54011-.4798 4.25955-.0174 5.72967.4971 1.5724 1.9132 2.881 4.0229 2.881h6.3232c1.8901 0 3.179-1.007 3.7916-2.13248L70.7523 7.9483Z"/>
  <path d="M0 .00537872h14.9238L13.5944 2.10554H8.39824v9.34306H5.86085V2.10554H0V.00537872Z"/>
  <path d="M81.1216.0107803h-2.5374V11.4594h2.5374V.0107803Z"/>
  <path d="M45.1238.0161591 37.8295 11.4593h2.9073l1.3583-2.15396h8.7277l1.3583 2.15396h2.9073L47.7999.0161591h-2.6761ZM43.4245 7.20517l3.0402-4.78729 3.0403 4.78729h-6.0805Z"/>
  <path d="M90.219.0161591h4.3292L85.5257 5.72968l9.0456 5.72962h-4.3292l-9.0456-5.72962L90.219.0161591Z"/>
  <path d="M115.501.0107803 109.079 8.59452 102.663.0107803h-3.2942V11.4594h2.5432V3.04794l6.26 8.41146h1.82l6.254-8.41146v8.41146h2.543V.0107803h-3.288Z"/>
  <path d="m127.766 9.31072-1.364 2.15398h-2.908L130.789.0161591h2.676L140.759 11.4647h-2.907l-1.359-2.15398h-8.727Zm7.398-2.10555-3.034-4.78729-3.041 4.78729h6.075Z"/>
  <path d="M158.457.0161591V8.76145L148.671.0161591h-3.167V11.4647h2.543V2.70867l9.791 8.75603H161V.0161591h-2.543Z"/>
  <path d="M29.957.0161591c2.1271 0 3.861 1.6370509 3.861 3.8879909 0 1.69629-1.0403 3.08024-2.5027 3.62413l2.5027 3.93102h-2.9015l-2.3293-3.6887h-6.3753v3.678h-2.5374V.0161591H29.957ZM22.2119 5.72968h7.3868c1.0519 0 1.9016-.78622 1.9305-1.83091-.0289-1.03932-.8786-1.83091-1.9305-1.83091h-7.3868v3.66182Z"/>
</svg>