<svg xmlns="http://www.w3.org/2000/svg" viewBox="0 0 466.69 95.31">
  <path d="m12.8 42.7 33.91 12.1v10.1L0 46.7v-8l46.71-18.2v10.2Z"/>
  <path d="m74.2 76.7-21-49.5h11.4l15.8 38.6 15.1-38.6h11L85.6 76.7Z"/>
  <path d="M166.2 51.9c0 14.9-9.6 25.8-25 25.8-7.7 0-14.3-3.4-17.4-7.9v25.5h-10.3V27.2h10.4v7.6a20.21 20.21 0 0 1 16.8-8.8c15.3-.1 25.5 11 25.5 25.9Zm-41.4 0c0 8.7 6.4 15.9 15.4 15.9s15.5-6.8 15.5-15.9-6.1-16-15.5-16-15.4 7.2-15.4 16Z"/>
  <path d="M192.1 16.9v59.6h-11.4V16.9h-22.9V6.5H215v10.4Z"/>
  <path d="M257.8 55.8h-38.9c.8 7.4 7 12.5 16 12.5 5 0 11.4-1.9 14.9-5.7l6.5 6.7a30.31 30.31 0 0 1-21.6 8.4c-16.2 0-26.6-10.4-26.6-26.2 0-14.9 11-25.5 25.5-25.5 14.8 0 26.1 9.7 24.2 29.8Zm-38.7-8.2h28.8c-.5-8.3-5.8-13.1-14.4-13.1-7.9 0-13.3 4.8-14.4 13.15Z"/>
  <path d="m308.4 32.4-6.6 6.9a18.3 18.3 0 0 0-10.9-3.7c-8.9 0-15.5 6.4-15.5 16.3 0 10.3 7.2 16.2 15.6 16.2a17.08 17.08 0 0 0 12.1-4.8l6.7 6.7a25.59 25.59 0 0 1-18.8 7.7c-14.2 0-26-9.4-26-25.8 0-16 11.7-25.9 26-25.9a25.77 25.77 0 0 1 17.4 6.4Z"/>
  <path d="M328.2 33c3.4-4.5 9.5-7 15.1-7 14.6 0 21.2 9.8 21.2 23.9v26.6H354V50c0-9.3-4.7-14-12.3-14-8 0-13.4 6-13.4 14.8v25.7h-10.5v-70h10.4Z"/>
  <path d="M369.9 84.7 404.2 0H415l-34.4 84.7Z"/>
  <path d="m466.7 46.7-46.71 18.2V54.8l34-12.1-34-12V20.5l46.71 18.2Z"/>
</svg>