<svg width="16" height="16" viewBox="0 0 16 16" xmlns="http://www.w3.org/2000/svg">
  <g clip-path="url(#clip0)">
    <path
      d="M16.0002 7.99201C16.0002 3.58042 12.4162 0 8.00024 0C3.58424 0 0.000244141 3.58042 0.000244141 7.99201C0.000244141 10.4216 1.10424 12.6114 2.83224 14.0819C2.84824 14.0979 2.86424 14.0979 2.86424 14.1139C3.00824 14.2258 3.15224 14.3377 3.31224 14.4496C3.39224 14.4975 3.45624 14.5614 3.53624 14.6254C4.81624 15.4885 6.35224 16 8.01624 16C9.68024 16 11.2162 15.4885 12.4962 14.6254C12.5762 14.5774 12.6402 14.5135 12.7202 14.4655C12.8642 14.3536 13.0242 14.2418 13.1682 14.1299C13.1842 14.1139 13.2002 14.1139 13.2002 14.0979C14.8962 12.6114 16.0002 10.4216 16.0002 7.99201ZM8.00024 14.993C6.49624 14.993 5.12024 14.5135 3.98424 13.7143C4.00024 13.5864 4.03224 13.4585 4.06424 13.3307C4.16024 12.979 4.30424 12.6434 4.48024 12.3397C4.65624 12.036 4.86424 11.7642 5.12024 11.5245C5.36024 11.2847 5.64824 11.0609 5.93624 10.8851C6.24024 10.7093 6.56024 10.5814 6.91224 10.4855C7.26424 10.3896 7.63224 10.3417 8.00024 10.3417C8.59224 10.3417 9.13624 10.4535 9.63224 10.6613C10.1282 10.8691 10.5602 11.1568 10.9282 11.5085C11.2962 11.8761 11.5842 12.3077 11.7922 12.8032C11.9042 13.0909 11.9842 13.3946 12.0322 13.7143C10.8802 14.5135 9.50424 14.993 8.00024 14.993ZM5.55224 7.59241C5.40824 7.27273 5.34424 6.92108 5.34424 6.56943C5.34424 6.21778 5.40824 5.86613 5.55224 5.54645C5.69624 5.22677 5.88824 4.93906 6.12824 4.6993C6.36824 4.45954 6.65624 4.26773 6.97624 4.12388C7.29624 3.98002 7.64824 3.91608 8.00024 3.91608C8.36824 3.91608 8.70424 3.98002 9.02424 4.12388C9.34424 4.26773 9.63224 4.45954 9.87224 4.6993C10.1122 4.93906 10.3042 5.22677 10.4482 5.54645C10.5922 5.86613 10.6562 6.21778 10.6562 6.56943C10.6562 6.93706 10.5922 7.27273 10.4482 7.59241C10.3042 7.91209 10.1122 8.1998 9.87224 8.43956C9.63224 8.67932 9.34424 8.87113 9.02424 9.01499C8.38424 9.28671 7.60024 9.28671 6.96024 9.01499C6.64024 8.87113 6.35224 8.67932 6.11224 8.43956C5.87224 8.1998 5.68024 7.91209 5.55224 7.59241ZM12.9762 12.8991C12.9762 12.8671 12.9602 12.8511 12.9602 12.8192C12.8002 12.3237 12.5762 11.8442 12.2722 11.4126C11.9682 10.981 11.6162 10.5974 11.1842 10.2777C10.8642 10.038 10.5122 9.83017 10.1442 9.67033C10.3202 9.55844 10.4802 9.41459 10.6082 9.28671C10.8482 9.04695 11.0562 8.79121 11.2322 8.5035C11.4082 8.21578 11.5362 7.91209 11.6322 7.57642C11.7282 7.24076 11.7602 6.90509 11.7602 6.56943C11.7602 6.04196 11.6642 5.54645 11.4722 5.0989C11.2802 4.65135 11.0082 4.25175 10.6562 3.9001C10.3202 3.56444 9.90424 3.29271 9.45624 3.1009C9.00824 2.90909 8.51224 2.81319 7.98424 2.81319C7.45624 2.81319 6.96024 2.90909 6.51224 3.1009C6.06424 3.29271 5.64824 3.56444 5.31224 3.91608C4.97624 4.25175 4.70424 4.66733 4.51224 5.11489C4.32024 5.56244 4.22424 6.05794 4.22424 6.58541C4.22424 6.93706 4.27224 7.27273 4.36824 7.59241C4.46424 7.92807 4.59224 8.23177 4.76824 8.51948C4.92824 8.80719 5.15224 9.06294 5.39224 9.3027C5.53624 9.44655 5.69624 9.57443 5.87224 9.68631C5.48824 9.86214 5.13624 10.0699 4.83224 10.3097C4.41624 10.6294 4.04824 11.013 3.74424 11.4286C3.44024 11.8601 3.21624 12.3237 3.05624 12.8352C3.04024 12.8671 3.04024 12.8991 3.04024 12.9151C1.77624 11.6364 0.992244 9.91009 0.992244 7.99201C0.992244 4.13986 4.14424 0.991009 8.00024 0.991009C11.8562 0.991009 15.0082 4.13986 15.0082 7.99201C15.0082 9.91009 14.2242 11.6364 12.9762 12.8991Z" />
  </g>
  <defs>
    <clipPath id="clip0">
      <rect width="16" height="16" transform="translate(0.000244141)" />
    </clipPath>
  </defs>
</svg>
