<svg id="Layer_1" data-name="Layer 1" xmlns="http://www.w3.org/2000/svg" viewBox="0 0 391.19 60"><path d="M28.56,19.08A11.83,11.83,0,0,0,33,14.88a10.19,10.19,0,0,0,1.56-5.34A8.5,8.5,0,0,0,33.15,4.8a9.83,9.83,0,0,0-4.29-3.48A17,17,0,0,0,21.78,0,25.76,25.76,0,0,0,11.16,2.25a22.06,22.06,0,0,0-8.1,5.91A11.9,11.9,0,0,0,0,15.9a5.09,5.09,0,0,0,1.62,4.23,7.59,7.59,0,0,0,4.8,1.29,5.21,5.21,0,0,0-.42-1,7.87,7.87,0,0,1-.42-3.09,14.1,14.1,0,0,1,2.19-8,13.8,13.8,0,0,1,5.67-4.95,16.49,16.49,0,0,1,7.14-1.65q4,0,6,1.86A6.13,6.13,0,0,1,28.5,9.24a9.54,9.54,0,0,1-1.2,4.53,11,11,0,0,1-3.18,3.72A7,7,0,0,1,19.86,19H19.5L22.32,5.64l-8.88,1.2L5.28,45h8.64l4.92-23a18,18,0,0,1,2.76-.18q5.7,0,5.7,7.62a18.37,18.37,0,0,1-1.47,7.44q-1.47,3.36-4.47,3.36a4.32,4.32,0,0,1-2-.48,7.49,7.49,0,0,1-2-1.68,9.36,9.36,0,0,0-.78,3.48A3.62,3.62,0,0,0,18.33,45a8.41,8.41,0,0,0,4.17,1,10.39,10.39,0,0,0,7.59-2.91,16.69,16.69,0,0,0,4.26-6.93,24.47,24.47,0,0,0,1.29-7.44,11.33,11.33,0,0,0-1.74-6.33A7.69,7.69,0,0,0,28.56,19.08Z"/><path d="M190.26,15h-8.64L181,18.18v-.42a2.59,2.59,0,0,0-1.2-2.22,6.43,6.43,0,0,0-3.66-.84,11.63,11.63,0,0,0-8.37,3.39,21.49,21.49,0,0,0-5.28,8.28,27.41,27.41,0,0,0-1.77,9.33V36a11.44,11.44,0,0,1-1.38,2.26,3.57,3.57,0,0,1-2.88,1.29,2.28,2.28,0,0,1-1.86-.66A2.86,2.86,0,0,1,154,37a13.81,13.81,0,0,1,.39-2.79q.39-1.77.87-3.63.78-3.06,1.2-5.19a20.16,20.16,0,0,0,.42-3.87,6.65,6.65,0,0,0-1.8-5.1,6.84,6.84,0,0,0-4.86-1.68,9.15,9.15,0,0,0-7,3.36l.66-3.12h-8.64l-4.09,19.29a11.76,11.76,0,0,1-1.94,4.05,3.62,3.62,0,0,1-2.91,1.56q-2.46,0-2.46-2.58a7.43,7.43,0,0,1,.24-1.92L128.4,15h-8.64l-.66,3.18v-.42a2.59,2.59,0,0,0-1.2-2.22,6.43,6.43,0,0,0-3.66-.84,11.63,11.63,0,0,0-8.37,3.39,21.49,21.49,0,0,0-5.28,8.28,27.41,27.41,0,0,0-1.77,9.33c0,.1,0,.19,0,.29a11.91,11.91,0,0,1-1.39,2.26,3.57,3.57,0,0,1-2.88,1.29,2.28,2.28,0,0,1-1.86-.66A2.86,2.86,0,0,1,92.16,37a13.81,13.81,0,0,1,.39-2.79q.39-1.77.87-3.63.78-3.06,1.2-5.19A20.16,20.16,0,0,0,95,21.54a6.65,6.65,0,0,0-1.8-5.1,6.84,6.84,0,0,0-4.86-1.68,9.15,9.15,0,0,0-7,3.36L82,15H73.38L69.29,34.29a11.76,11.76,0,0,1-1.94,4.05,3.62,3.62,0,0,1-2.91,1.56Q62,39.9,62,37.32a7.43,7.43,0,0,1,.24-1.92L66.54,15H57.9l-.66,3.18v-.42A2.59,2.59,0,0,0,56,15.54a6.43,6.43,0,0,0-3.66-.84A11.63,11.63,0,0,0,44,18.09a21.49,21.49,0,0,0-5.28,8.28A27.41,27.41,0,0,0,37,35.7q0,5,2.28,7.32a7.63,7.63,0,0,0,5.7,2.34A8.46,8.46,0,0,0,50,43.83a16.75,16.75,0,0,0,3.87-4A6.31,6.31,0,0,0,55.71,44a5.74,5.74,0,0,0,4,1.41,11.32,11.32,0,0,0,6.57-2.31,9.36,9.36,0,0,0,1.36-1.2L67,45h8.64l4.08-19.26a11.78,11.78,0,0,1,1.92-4,3.47,3.47,0,0,1,2.76-1.53q2.16,0,2.16,3.06a17.16,17.16,0,0,1-.42,3.3q-.42,2-.9,4.14-.12.42-.45,1.92t-.63,3.09a15.54,15.54,0,0,0-.3,2.85,7.06,7.06,0,0,0,1.71,4.83q1.71,2,5.37,2a9.75,9.75,0,0,0,6-2.25,10.8,10.8,0,0,0,2.47-2.91A7.13,7.13,0,0,0,101.1,43a7.63,7.63,0,0,0,5.7,2.34,8.46,8.46,0,0,0,5.07-1.53,16.75,16.75,0,0,0,3.87-4A6.31,6.31,0,0,0,117.57,44a5.74,5.74,0,0,0,4.05,1.41,11.32,11.32,0,0,0,6.57-2.31,9.36,9.36,0,0,0,1.36-1.2L128.88,45h8.64l4.08-19.26a11.78,11.78,0,0,1,1.92-4,3.47,3.47,0,0,1,2.76-1.53q2.16,0,2.16,3.06a17.16,17.16,0,0,1-.42,3.3q-.42,2-.9,4.14-.12.42-.45,1.92T146,35.73a15.54,15.54,0,0,0-.3,2.85,7.06,7.06,0,0,0,1.71,4.83q1.71,2,5.37,2a9.75,9.75,0,0,0,6-2.25,10.61,10.61,0,0,0,2.46-2.91A7.26,7.26,0,0,0,163,43a7.63,7.63,0,0,0,5.7,2.34q5.28,0,8.94-5.58a6.76,6.76,0,0,0,1.89,4.11,5.52,5.52,0,0,0,4,1.47A4.41,4.41,0,0,0,187,44a16.55,16.55,0,0,0,2.52-4.71,3,3,0,0,1-1.32.24,2.81,2.81,0,0,1-1.89-.51,2.2,2.2,0,0,1-.57-1.71,7.43,7.43,0,0,1,.24-1.92ZM53.82,34.26a7.4,7.4,0,0,1-2,3.87,4.33,4.33,0,0,1-3,1.41,3,3,0,0,1-2.13-.84q-.87-.84-.87-3.84a26.58,26.58,0,0,1,1.08-6.93,22.09,22.09,0,0,1,3-6.72q1.92-2.79,4.32-2.79a2.24,2.24,0,0,1,1.86.75,2.43,2.43,0,0,1,.6,1.53Zm61.86,0a7.4,7.4,0,0,1-2,3.87,4.33,4.33,0,0,1-3,1.41,3,3,0,0,1-2.13-.84q-.87-.84-.87-3.84a26.58,26.58,0,0,1,1.08-6.93,22.09,22.09,0,0,1,3-6.72q1.92-2.79,4.32-2.79a2.24,2.24,0,0,1,1.86.75,2.43,2.43,0,0,1,.6,1.53Zm61.86,0a7.4,7.4,0,0,1-2,3.87,4.33,4.33,0,0,1-3,1.41,3,3,0,0,1-2.13-.84q-.87-.84-.87-3.84a26.58,26.58,0,0,1,1.08-6.93,22.09,22.09,0,0,1,3-6.72q1.92-2.79,4.32-2.79a2.24,2.24,0,0,1,1.86.75,2.43,2.43,0,0,1,.6,1.53Z"/><path d="M297.29,14.46a12.66,12.66,0,0,0-9.3,3.63,21.17,21.17,0,0,0-5.28,8.61,29.7,29.7,0,0,0-1.62,9.12c0,.1,0,.19,0,.29a10.9,10.9,0,0,1-1.33,2.14,3.53,3.53,0,0,1-2.87,1.29c-1.57,0-2.34-.74-2.34-2.22a7.22,7.22,0,0,1,.29-1.92l.67-3a10.6,10.6,0,0,0,.23-2.28,7.57,7.57,0,0,0-1.67-5,6.13,6.13,0,0,0-4.93-2,7.73,7.73,0,0,0-2,.24l12-8.34h-5.94l-11.58,9.12L266.15,3l-8.88,1.2-6.4,30.06h0a11.75,11.75,0,0,1-2,4.08A3.62,3.62,0,0,1,246,39.9q-2.46,0-2.46-2.58a7.43,7.43,0,0,1,.24-1.92L248.1,15h-8.64l-.66,3.18v-.42a2.59,2.59,0,0,0-1.2-2.22,6.43,6.43,0,0,0-3.66-.84,11.63,11.63,0,0,0-8.37,3.39,21.49,21.49,0,0,0-5.28,8.28,27.78,27.78,0,0,0-1.76,9,14.68,14.68,0,0,1-4.21,3.31,14,14,0,0,1-6.54,1.56q-4.08,0-5.64-2.4t-1.56-7a49.06,49.06,0,0,1,1.77-12.72,37.28,37.28,0,0,1,4.65-11q2.88-4.35,6.06-4.35a3.48,3.48,0,0,1,2.79,1,3.93,3.93,0,0,1,.87,2.64,7.21,7.21,0,0,1-.84,3.36A4.71,4.71,0,0,1,214,12a4.16,4.16,0,0,0,3.42,1.56,3.6,3.6,0,0,0,3.18-1.47,7,7,0,0,0,1-4.05A7,7,0,0,0,218.82,2a12.19,12.19,0,0,0-7.26-2,15.46,15.46,0,0,0-12,5.19,31.36,31.36,0,0,0-6.84,12.45,48.32,48.32,0,0,0-2.13,13.56q0,7.92,3.18,11.34t10,3.42a19.89,19.89,0,0,0,12.66-4.86,15.08,15.08,0,0,0,2.33-2.53A8.25,8.25,0,0,0,220.8,43a7.63,7.63,0,0,0,5.7,2.34,8.46,8.46,0,0,0,5.07-1.53,16.75,16.75,0,0,0,3.87-4A6.31,6.31,0,0,0,237.27,44a5.74,5.74,0,0,0,4,1.41,11.32,11.32,0,0,0,6.57-2.31,8.89,8.89,0,0,0,1.36-1.21L248.58,45h8.63l3.12-14.82a13.8,13.8,0,0,1,2.44-1.68,4.33,4.33,0,0,1,2-.54c1.44,0,2.17,1,2.17,2.88a9.67,9.67,0,0,1-.25,2.22l-.48,2.34a15.66,15.66,0,0,0-.36,3.12,6.55,6.55,0,0,0,1.92,5.07,8.06,8.06,0,0,0,5.65,1.77q5,0,8.32-5.19a7.13,7.13,0,0,0,1.81,2.88,9.6,9.6,0,0,0,6.84,2.31q8.76,0,10.38-8.88a14.53,14.53,0,0,1-3.48,2.28,8.52,8.52,0,0,1-3.6.9q-3.72,0-3.72-5,0-.48.12-1.8a16.47,16.47,0,0,0,6.78-2A14.16,14.16,0,0,0,302,26.4a10.75,10.75,0,0,0,1.92-6.18Q303.89,14.46,297.29,14.46Zm-61.91,19.8a7.4,7.4,0,0,1-2,3.87,4.33,4.33,0,0,1-3,1.41,3,3,0,0,1-2.13-.84q-.87-.84-.87-3.84a26.58,26.58,0,0,1,1.08-6.93,22.09,22.09,0,0,1,3-6.72q1.92-2.79,4.32-2.79a2.24,2.24,0,0,1,1.86.75,2.43,2.43,0,0,1,.6,1.53ZM298,24.81a10.9,10.9,0,0,1-3.24,3.69,7.59,7.59,0,0,1-4.29,1.5,31.84,31.84,0,0,1,3.09-8.55q2.07-3.81,4.17-3.81,1.5,0,1.5,2.46A9.69,9.69,0,0,1,298,24.81Z"/><path d="M337.94,5.91a11,11,0,0,0-4.71-4.29A17.34,17.34,0,0,0,325.31,0,25,25,0,0,0,307.4,8.13a11.34,11.34,0,0,0-3.15,7.47q0,3.12,1.59,4.47a7.33,7.33,0,0,0,4.83,1.35,5.21,5.21,0,0,0-.42-1,7.87,7.87,0,0,1-.42-3.09q0-6.9,4.11-10.74t11.43-3.84A6.78,6.78,0,0,1,331,5a9,9,0,0,1,1.86,5.88,17.29,17.29,0,0,1-1.38,6.6,15.88,15.88,0,0,1-3.81,5.64,8.73,8.73,0,0,1-5.31,2.52l4.26-20-8.88,1.2L309.53,45h8.64l3.66-17.1h.3a17.41,17.41,0,0,0,9.12-2.37,16.77,16.77,0,0,0,6.09-6.09,15.16,15.16,0,0,0,2.13-7.62A11.68,11.68,0,0,0,337.94,5.91Z"/><path d="M389.21,16.92a6.8,6.8,0,0,0-5.34-2.22,10.43,10.43,0,0,0-7,2.58l1-4.5h-8.64L367,23l-.23.1a12.34,12.34,0,0,1-4.56,1.05,2.41,2.41,0,0,1-.66-.06v-.06q0-9.6-7.68-9.6a12.86,12.86,0,0,0-9.36,3.63,21.42,21.42,0,0,0-5.4,8.61,28.6,28.6,0,0,0-1.68,9.06q0,4.92,2.58,7.2a10.23,10.23,0,0,0,7,2.28A11.46,11.46,0,0,0,353.81,43a16.2,16.2,0,0,0,5.1-6.3,27.17,27.17,0,0,0,2.46-9.54,23.49,23.49,0,0,0,5-1.39L359.15,60l9.06-2.16,3.12-14.64q1.26,2.16,5.1,2.16a11.59,11.59,0,0,0,8.7-3.39,19.08,19.08,0,0,0,4.68-8.22,34.71,34.71,0,0,0,1.38-9.57Q391.19,19.14,389.21,16.92ZM356.39,27.36a29,29,0,0,1-1.56,6.33,14.78,14.78,0,0,1-2.52,4.5,4,4,0,0,1-2.88,1.65,2.67,2.67,0,0,1-2.4-1,7.7,7.7,0,0,1-.66-3.87,26.39,26.39,0,0,1,1.14-7.08,25.46,25.46,0,0,1,3-6.9q1.86-2.88,3.84-2.88a1.84,1.84,0,0,1,1.68.75,6.17,6.17,0,0,1,.6,2.73,3.14,3.14,0,0,0-1.86,3.24Q354.77,27,356.39,27.36ZM382.1,31a18.36,18.36,0,0,1-2.76,6.45,5.64,5.64,0,0,1-4.77,2.7,2.13,2.13,0,0,1-2.28-1.38L375.83,22a7.09,7.09,0,0,1,1.95-2.16A3.81,3.81,0,0,1,380,19q3,0,3,5A31,31,0,0,1,382.1,31Z"/></svg>