<svg width="16" height="16" viewBox="0 0 16 16" xmlns="http://www.w3.org/2000/svg">
<path d="M8 1C9.38447 1 10.7378 1.41054 11.889 2.17971C13.0401 2.94888 13.9373 4.04213 14.4672 5.32122C14.997 6.6003 15.1356 8.00777 14.8655 9.36563C14.5954 10.7235 13.9287 11.9708 12.9497 12.9497C11.9708 13.9287 10.7235 14.5954 9.36563 14.8655C8.00776 15.1356 6.6003 14.997 5.32121 14.4672C4.04213 13.9373 2.94888 13.0401 2.17971 11.889C1.41054 10.7378 0.999997 9.38447 0.999997 8C1.00211 6.14413 1.74029 4.36489 3.05259 3.05259C4.36488 1.7403 6.14413 1.00212 8 1ZM2 8C1.99922 9.41814 2.50371 10.7902 3.423 11.87L11.87 3.423C10.9975 2.68282 9.93139 2.20787 8.7976 2.05426C7.66381 1.90065 6.50974 2.0748 5.47177 2.55614C4.43379 3.03748 3.55529 3.80588 2.94008 4.77056C2.32487 5.73523 1.99866 6.85585 2 8ZM14 8C14.0008 6.58186 13.4963 5.20983 12.577 4.13L4.13 12.577C5.00248 13.3172 6.0686 13.7921 7.20239 13.9457C8.33618 14.0994 9.49025 13.9252 10.5282 13.4439C11.5662 12.9625 12.4447 12.1941 13.0599 11.2294C13.6751 10.2648 14.0013 9.14415 14 8Z"/>
</svg>
