<svg width="16" height="16" viewBox="0 0 16 16" xmlns="http://www.w3.org/2000/svg">
  <path fill-rule="evenodd" clip-rule="evenodd"
    d="M2 2H8V5.5L8.5 6H12V7H13V4.8L12.85 4.44L9.57 1.14L9.22 1H1.5L1 1.5V14.5L1.5 15H5V14H2V2ZM9 2L12 5H9V2ZM14.5 8H6.5L6 8.5V14.5L6.5 15H14.5L15 14.5V8.5L14.5 8ZM14 9V13L12.37 11.4H11.66L10.5 12.57L8.37 10.44H7.66L7 11.1V9H14ZM11.2 13.27L12.01 12.46L13.55 14H11.93L11.2 13.27ZM7 14V12.51L8 11.51L10.52 14H7ZM12.5 10.5C12.7761 10.5 13 10.2761 13 10C13 9.72386 12.7761 9.5 12.5 9.5C12.2239 9.5 12 9.72386 12 10C12 10.2761 12.2239 10.5 12.5 10.5Z" />
</svg>
