<svg width="16" height="16" viewBox="0 0 16 16" xmlns="http://www.w3.org/2000/svg">
  <path fill-rule="evenodd" clip-rule="evenodd"
    d="M8.5682 1.03128C10.1593 1.19039 11.6434 1.90518 12.7598 3.04996C13.9762 4.28555 14.6953 5.92552 14.7801 7.65726C14.8649 9.38899 14.3096 11.0913 13.2199 12.4398C12.2176 13.6857 10.8111 14.5416 9.2441 14.8594C7.67708 15.1772 6.04826 14.9369 4.63985 14.18C3.22843 13.4066 2.12659 12.1706 1.51986 10.68C0.910415 9.18166 0.829286 7.52043 1.28985 5.96988C1.74942 4.42537 2.72779 3.0868 4.05984 2.17996C5.38083 1.27892 6.9771 0.87217 8.5682 1.03128ZM9.03988 13.8799C10.3827 13.6075 11.5886 12.8756 12.4499 11.81C13.3825 10.6509 13.857 9.18961 13.7832 7.70377C13.7095 6.21792 13.0926 4.81093 12.0498 3.74991C11.0947 2.77492 9.82729 2.16667 8.46914 2.0314C7.11099 1.89614 5.7485 2.24247 4.61983 3.00992C3.77027 3.59531 3.08425 4.38792 2.62673 5.31265C2.16921 6.23738 1.95535 7.26359 2.00542 8.2941C2.0555 9.3246 2.36784 10.3253 2.91286 11.2013C3.45789 12.0773 4.21752 12.7997 5.11983 13.3C6.31816 13.9467 7.70562 14.1519 9.03988 13.8799ZM7.37482 6L8.62482 6L8.62482 5L7.37482 5L7.37482 6ZM8.62482 7L8.62482 11L7.37482 11L7.37482 7L8.62482 7Z" />
</svg>
