<svg width="16" height="16" viewBox="0 0 16 16" xmlns="http://www.w3.org/2000/svg">
<g>
<path fill-rule="evenodd" clip-rule="evenodd" d="M2.00607 8.26691L0.780244 9.50003L0.000244141 8.73003L2.09024 6.66003L2.85024 6.67003L4.94024 8.79003L4.18024 9.55003L3.01372 8.36995C3.20304 10.9586 5.36325 13 8.00024 13C9.91087 13 11.5712 11.9283 12.4129 10.3533L13.2262 10.9499C12.1961 12.7709 10.2417 14 8.00024 14C4.77597 14 2.14571 11.4568 2.00607 8.26691ZM12.9963 7.80051L11.7602 6.55005L11.0002 7.31005L13.0902 9.42005L13.8502 9.43005L15.9402 7.36005L15.1902 6.60005L13.9963 7.78004C13.8805 4.56823 11.2403 2 8.00024 2C5.83751 2 3.94204 3.14427 2.88622 4.86043L3.69588 5.45436C4.56671 3.98506 6.16844 3 8.00024 3C10.6949 3 12.8916 5.13157 12.9963 7.80051Z"/>
</g>
</svg>
