<svg xmlns="http://www.w3.org/2000/svg" viewBox="0 0 160 100">
  <rect class="background" width="160" height="100" rx="4" />
  <g>
    <circle class="logo" cx="8" cy="10" r="5" />
    <circle class="aside-item-active" cx="8" cy="24" r="4" />
    <circle class="aside-item" cx="8" cy="37" r="4" />
    <circle class="aside-item" cx="8" cy="50" r="4" />
  </g>
  <g>
    <rect class="heading" x="18" y="25" width="20" height="3" rx="1" />
    <rect class="form-field" x="18" y="5" width="26" height="10" rx="4" />
    <g>
      <rect class="node-folder" x="18" y="34" width="3" height="3" rx="1" />
      <rect class="nav-item" x="24" y="34" width="16" height="3" rx="1" />
      <rect class="node-folder" x="18" y="41" width="3" height="3" rx="1" />
      <rect class="nav-item-active" x="24" y="41" width="20" height="3" rx="1" />
      <rect class="node-document" x="24" y="48" width="3" height="3" rx="1" />
      <rect class="nav-item" x="30" y="48" width="10" height="3" rx="1" />
      <rect class="node-document" x="24" y="55" width="3" height="3" rx="1" />
      <rect class="nav-item" x="30" y="55" width="14" height="3" rx="1" />
      <rect class="node-folder" x="18" y="62" width="3" height="3" rx="1" />
      <rect class="nav-item" x="24" y="62" width="14" height="3" rx="1" />
    </g>
  </g>
  <g>
    <rect class="nav-item-active" x="51" y="5" width="22" height="10" rx="4" />
    <rect class="nav-item" x="78" y="5" width="28" height="10" rx="4" />
    <rect class="nav-item" x="111" y="5" width="20" height="10" rx="4" />
  </g>
  <g data-theme-variant="elevated">
    <rect class="background" x="51" y="20" width="105" height="76" rx="4" />
    <rect class="heading" x="116" y="25" width="20" height="3" rx="1" />
    <rect class="heading" x="56" y="25" width="20" height="3" rx="1" />
    <rect class="primary-button" x="90" y="24" width="10" height="5" rx="1" />
    <g>
      <rect class="keyword-token" x="56" y="34" width="14" height="3" rx="1" />
      <rect class="key-token" x="74" y="34" width="16" height="3" rx="1" />
      <rect class="delimiter-token" x="94" y="34" width="3" height="3" rx="1" />
      <rect class="key-token" x="60" y="41" width="12" height="3" rx="1" />
      <rect class="delimiter-token" x="76" y="41" width="3" height="3" rx="1" />
      <rect class="string-token" x="84" y="41" width="10" height="3" rx="1" />
      <rect class="delimiter-token" x="98" y="41" width="3" height="3" rx="1" />
      <rect class="key-token" x="64" y="48" width="16" height="3" rx="1" />
      <rect class="number-token" x="84" y="48" width="8" height="3" rx="1" />
      <rect class="delimiter-token" x="60" y="55" width="4" height="3" rx="1" />
      <rect class="delimiter-token" x="56" y="62" width="3" height="3" rx="1" />
    </g>
    <g>
      <rect class="delimiter-token" x="116" y="34" width="3" height="3" rx="1" />
      <rect class="delimiter-token" x="142" y="41" width="8" height="3" rx="1" />
      <rect class="string-token" x="120" y="41" width="18" height="3" rx="1" />
      <rect class="string-token" x="120" y="48" width="10" height="3" rx="1" />
      <rect class="delimiter-token" x="134" y="48" width="3" height="3" rx="1" />
      <rect class="string-token" x="142" y="48" width="8" height="3" rx="1" />
      <rect class="string-token" x="120" y="55" width="8" height="3" rx="1" />
      <rect class="number-token" x="132" y="55" width="8" height="3" rx="1" />
      <rect class="string-token" x="120" y="62" width="12" height="3" rx="1" />
      <rect class="string-token" x="136" y="62" width="8" height="3" rx="1" />
      <rect class="delimiter-token" x="116" y="69" width="3" height="3" rx="1" />
    </g>
  </g>
</svg>
