<?xml version="1.0" encoding="utf-8"?>
<!-- Generator: Adobe Illustrator 24.3.0, SVG Export Plug-In . SVG Version: 6.00 Build 0)  -->
<svg version="1.1" id="Layer_1" xmlns="http://www.w3.org/2000/svg" xmlns:xlink="http://www.w3.org/1999/xlink" x="0px" y="0px"
	 viewBox="0 0 4000 2000" style="enable-background:new 0 0 4000 2000;" xml:space="preserve">
<style type="text/css">
	.st0{fill:#FFFFFF;}
	.st1{fill:#E535AB;}
	.st2{fill:#488FCD;}
	.st3{clip-path:url(#SVGID_2_);}
	.st4{opacity:0.1;enable-background:new    ;}
	.st5{fill:#4B5256;}
	.st6{fill:#3EB53E;}
	.st7{fill:#FFFFFF;stroke:#FFFFFF;stroke-width:8;stroke-miterlimit:10;}
	.st8{fill:none;stroke:#FFFFFF;stroke-width:8;stroke-miterlimit:10;}
	.st9{clip-path:url(#SVGID_4_);}
	.st10{clip-path:url(#SVGID_6_);}
	.st11{fill:#FF892A;}
	.st12{clip-path:url(#SVGID_8_);}
	.st13{fill:#A3AFB7;}
	.st14{clip-path:url(#SVGID_10_);}
	.st15{fill:#2B2B2B;}
	.st16{clip-path:url(#SVGID_12_);}
	.st17{opacity:0.1;fill:#FFFFFF;enable-background:new    ;}
	.st18{fill:#F40010;}
	.st19{clip-path:url(#SVGID_14_);}
	.st20{opacity:7.000000e-02;}
</style>
<rect class="st0" width="4000" height="2000"/>
<g id="e86c181d-1b03-491c-b354-18182ba233c7">
	<path class="st1" d="M1725.5,829.5c-1.6,0-3.1-0.6-4.2-1.8c-0.3-0.3-0.5-0.6-0.8-0.9c-0.2-0.3-0.4-0.7-0.6-1
		c-0.1-0.4-0.3-0.7-0.3-1.1c-0.1-0.4-0.1-0.8-0.1-1.2c0-3.3,2.7-6,6-6s6,2.7,6,6c0,0.4,0,0.8-0.1,1.2c-0.1,0.4-0.2,0.8-0.3,1.1
		c-0.2,0.3-0.3,0.7-0.6,1c-0.4,0.7-1,1.2-1.7,1.7c-0.3,0.2-0.7,0.4-1,0.5c-0.4,0.1-0.7,0.3-1.1,0.3
		C1726.3,829.5,1725.9,829.5,1725.5,829.5z"/>
	<path class="st1" d="M1699,805.5c-2.3-2.3-2.3-6.1,0-8.5l0,0c2.3-2.3,6.1-2.3,8.5,0c0,0,0,0,0,0l0,0c2.3,2.3,2.3,6.1,0,8.5l0,0
		c-1.1,1.1-2.6,1.8-4.2,1.8l0,0C1701.7,807.3,1700.1,806.6,1699,805.5z M1676.8,783.3c-2.3-2.3-2.3-6.1,0-8.5c0,0,0,0,0,0l0,0
		c2.3-2.3,6.1-2.3,8.5,0c0,0,0,0,0,0l0,0c2.3,2.3,2.3,6.1,0,8.5c0,0,0,0,0,0l0,0c-1.1,1.1-2.7,1.8-4.2,1.8l0,0
		C1679.5,785.1,1677.9,784.4,1676.8,783.3z M1565.7,672.2c-2.3-2.3-2.3-6.1,0-8.5c0,0,0,0,0,0l0,0c2.3-2.3,6.1-2.3,8.5,0
		c0,0,0,0,0,0l0,0c2.3,2.3,2.3,6.1,0,8.5c0,0,0,0,0,0l0,0c-1.1,1.1-2.7,1.8-4.2,1.8l0,0C1568.4,673.9,1566.8,673.3,1565.7,672.2z
		 M1543.5,650c-2.3-2.3-2.3-6.1,0-8.5l0,0c2.3-2.3,6.1-2.3,8.5,0l0,0c2.3,2.3,2.3,6.1,0,8.5l0,0c-1.1,1.1-2.6,1.8-4.2,1.8l0,0
		C1546.1,651.8,1544.6,651.1,1543.5,650z"/>
	<path class="st1" d="M1525.5,629.5c-0.4,0-0.8,0-1.2-0.1c-0.8-0.2-1.5-0.5-2.2-0.9c-0.3-0.2-0.6-0.5-0.9-0.8
		c-2.3-2.3-2.3-6.1,0-8.5c0.3-0.3,0.6-0.5,0.9-0.8c0.3-0.2,0.7-0.4,1-0.5c0.4-0.2,0.7-0.3,1.1-0.3c0.8-0.2,1.6-0.2,2.3,0
		c0.4,0.1,0.8,0.2,1.1,0.3c0.3,0.2,0.7,0.3,1,0.5c0.3,0.2,0.6,0.5,0.9,0.8c2.3,2.3,2.3,6.1,0,8.5c-0.3,0.3-0.6,0.5-0.9,0.8
		c-0.7,0.4-1.4,0.7-2.2,0.9C1526.2,629.5,1525.9,629.5,1525.5,629.5z"/>
	<circle class="st0" cx="1625" cy="723.8" r="60"/>
	<path class="st1" d="M1664.2,736.3c-0.7-0.4-1.5-0.7-2.3-0.9v-23.3c0.8-0.2,1.6-0.5,2.3-0.9c4.3-2.3,5.9-7.6,3.6-11.8
		c-2.3-4.3-7.6-5.9-11.8-3.6c-0.2,0.1-0.3,0.2-0.5,0.3c-0.7,0.4-1.4,1-2,1.6l-20.1-11.6c0.2-0.8,0.4-1.7,0.4-2.5
		c0-4.8-3.9-8.7-8.8-8.7c-4.8,0-8.7,3.9-8.7,8.7c0,0.8,0.1,1.7,0.4,2.5l-20.2,11.6c-0.6-0.6-1.3-1.1-2-1.6
		c-4.3-2.3-9.6-0.7-11.8,3.6c-2.2,4.1-0.8,9.1,3.1,11.5c0.7,0.4,1.5,0.7,2.3,0.9v23.3c-4.7,1.1-7.6,5.9-6.4,10.6
		c1.1,4.7,5.9,7.6,10.6,6.4c0.8-0.2,1.6-0.5,2.3-0.9c0.7-0.4,1.4-0.9,2-1.5l20.2,11.6c-0.2,0.8-0.4,1.6-0.4,2.5
		c-0.1,4.8,3.8,8.8,8.6,8.8s8.8-3.8,8.8-8.6c0-1-0.1-2-0.5-3l20-11.6c0.6,0.7,1.3,1.3,2.2,1.8c4.3,2.3,9.6,0.7,11.8-3.6
		C1669.4,743.8,1668,738.8,1664.2,736.3L1664.2,736.3z M1598.6,741.9c-0.2-0.8-0.5-1.6-0.9-2.3c-0.4-0.7-0.9-1.4-1.5-2l26.4-45.7
		c1.6,0.5,3.3,0.5,4.9,0l26.4,45.7c-0.6,0.6-1.1,1.3-1.5,2c-0.4,0.7-0.7,1.5-0.9,2.3L1598.6,741.9z M1651.4,701.2
		c-1.3,4.6,1.3,9.5,6,10.8c0.1,0,0.2,0.1,0.3,0.1v23.3l-0.3,0.1l-26.4-45.7l0.2-0.2L1651.4,701.2z M1618.7,689.6l0.2,0.2l-26.4,45.7
		c-0.1,0-0.2-0.1-0.3-0.1v-23.3c4.7-1.2,7.5-5.9,6.4-10.5c0-0.1-0.1-0.2-0.1-0.3L1618.7,689.6z M1631.4,758.2
		c-3.3-3.6-8.8-3.8-12.4-0.6c-0.1,0.1-0.3,0.2-0.4,0.4l-20.2-11.7l0.1-0.3h52.8c0,0.2,0.1,0.4,0.2,0.6L1631.4,758.2z"/>
	<path class="st2" d="M1523.6,1386.2c-1.6,0-3.1-0.6-4.2-1.8c-0.3-0.3-0.5-0.6-0.7-0.9c-0.2-0.3-0.4-0.6-0.6-1
		c-0.1-0.4-0.3-0.7-0.3-1.1c-0.1-0.4-0.1-0.8-0.1-1.2c0-0.4,0-0.8,0.1-1.2c0.1-0.4,0.2-0.8,0.3-1.1c0.3-0.7,0.7-1.4,1.3-2
		c1.4-1.4,3.5-2,5.4-1.6c0.4,0.1,0.8,0.2,1.1,0.3c0.3,0.2,0.7,0.3,1,0.6c0.3,0.2,0.6,0.5,0.9,0.8c0.3,0.3,0.5,0.6,0.7,0.9
		c0.2,0.3,0.4,0.6,0.6,1c0.1,0.4,0.3,0.7,0.3,1.1c0.1,0.4,0.1,0.8,0.1,1.2c0,2-1,3.9-2.7,5c-0.3,0.2-0.7,0.4-1,0.6
		c-0.4,0.2-0.7,0.3-1.1,0.3C1524.4,1386.2,1524,1386.2,1523.6,1386.2z"/>
	<path class="st2" d="M1541.6,1362.3c-2.3-2.3-2.3-6.1,0-8.5c0,0,0,0,0,0l0,0c2.3-2.3,6.1-2.3,8.5,0l0,0c2.3,2.3,2.3,6.1,0,8.5
		c0,0,0,0,0,0l0,0c-1.1,1.1-2.6,1.8-4.2,1.8l0,0C1544.3,1364,1542.7,1363.4,1541.6,1362.3z M1563.8,1340.1c-2.3-2.3-2.3-6.1,0-8.5
		c0,0,0,0,0,0l0,0c2.3-2.3,6.1-2.3,8.5,0l0,0c2.3,2.3,2.3,6.1,0,8.5c0,0,0,0,0,0l0,0c-1.1,1.1-2.7,1.8-4.2,1.8l0,0
		C1566.5,1341.8,1565,1341.2,1563.8,1340.1L1563.8,1340.1z M1652.7,1251.2c-2.3-2.3-2.3-6.1,0-8.5c0,0,0,0,0,0l0,0
		c2.3-2.3,6.1-2.3,8.5,0l0,0c2.3,2.3,2.3,6.1,0,8.5c0,0,0,0,0,0l0,0c-1.1,1.1-2.6,1.8-4.2,1.8l0,0
		C1655.4,1252.9,1653.8,1252.3,1652.7,1251.2z M1674.9,1228.9c-2.3-2.3-2.3-6.1,0-8.5c0,0,0,0,0,0l0,0c2.3-2.3,6.1-2.3,8.5,0l0,0
		c2.3,2.3,2.3,6.1,0,8.5c0,0,0,0,0,0l0,0c-1.1,1.1-2.7,1.8-4.2,1.8l0,0C1677.6,1230.7,1676.1,1230.1,1674.9,1228.9L1674.9,1228.9z
		 M1697.2,1206.7c-2.3-2.3-2.3-6.1,0-8.5l0,0c2.3-2.3,6.1-2.3,8.5,0c0,0,0,0,0,0l0,0c2.3,2.3,2.3,6.1,0,8.5l0,0
		c-1.1,1.1-2.7,1.8-4.2,1.8l0,0C1699.8,1208.5,1698.3,1207.8,1697.2,1206.7L1697.2,1206.7z"/>
	<path class="st2" d="M1723.6,1186.2c-0.4,0-0.8,0-1.2-0.1c-0.4-0.1-0.8-0.2-1.1-0.3c-0.3-0.2-0.7-0.3-1-0.6
		c-0.3-0.2-0.6-0.5-0.9-0.8c-1.1-1.1-1.8-2.7-1.8-4.2c0-0.4,0-0.8,0.1-1.2c0.1-0.4,0.2-0.8,0.3-1.1c0.3-0.7,0.7-1.4,1.3-2
		c0.3-0.3,0.6-0.5,0.9-0.8c0.3-0.2,0.7-0.4,1-0.6c0.4-0.2,0.7-0.3,1.1-0.3c0.8-0.2,1.6-0.2,2.4,0c0.4,0.1,0.8,0.2,1.1,0.3
		c0.3,0.2,0.7,0.3,1,0.6c0.3,0.2,0.6,0.5,0.9,0.8c0.6,0.6,1,1.3,1.3,2c0.1,0.4,0.3,0.7,0.3,1.1c0.1,0.4,0.1,0.8,0.1,1.2
		c0,1.6-0.6,3.1-1.8,4.2c-0.3,0.3-0.6,0.5-0.9,0.8c-0.3,0.2-0.7,0.4-1,0.6c-0.4,0.2-0.7,0.3-1.1,0.3
		C1724.4,1186.2,1724,1186.3,1723.6,1186.2z"/>
	<circle class="st0" cx="1613" cy="1290" r="45"/>
	<circle class="st2" cx="1613" cy="1290" r="27"/>
	<path class="st1" d="M2000,1623c-0.4,0-0.8,0-1.2-0.1c-0.4-0.1-0.8-0.2-1.1-0.3c-0.3-0.2-0.7-0.3-1-0.6c-0.3-0.2-0.6-0.5-0.9-0.8
		c-0.3-0.3-0.5-0.6-0.8-0.9c-0.2-0.3-0.4-0.7-0.6-1c-0.2-0.4-0.3-0.7-0.3-1.1c-0.2-0.8-0.2-1.6,0-2.3c0.1-0.4,0.2-0.8,0.3-1.1
		c0.1-0.4,0.3-0.7,0.6-1c0.2-0.3,0.5-0.6,0.8-0.9c2.3-2.3,6.1-2.3,8.5,0c0.3,0.3,0.5,0.6,0.8,0.9c0.4,0.7,0.7,1.4,0.9,2.2
		c0.2,0.8,0.2,1.6,0,2.3c-0.2,0.8-0.5,1.5-0.9,2.2c-0.2,0.3-0.5,0.6-0.8,0.9C2003.1,1622.4,2001.6,1623,2000,1623z"/>
	<path class="st1" d="M1994,1588.3c0-3.3,2.7-6,6-6l0,0c3.3,0,6,2.7,6,6l0,0c0,3.3-2.7,6-6,6l0,0
		C1996.7,1594.3,1994,1591.6,1994,1588.3z M1994,1559.6c0-3.3,2.7-6,6-6l0,0c3.3,0,6,2.7,6,6l0,0c0,3.3-2.7,6-6,6l0,0
		C1996.7,1565.6,1994,1562.9,1994,1559.6L1994,1559.6L1994,1559.6z M1994,1530.9c0-3.3,2.7-6,6-6l0,0c3.3,0,6,2.7,6,6l0,0
		c0,3.3-2.7,6-6,6l0,0C1996.7,1536.9,1994,1534.2,1994,1530.9L1994,1530.9L1994,1530.9z M1994,1387.4c0-3.3,2.7-6,6-6l0,0
		c3.3,0,6,2.7,6,6l0,0c0,3.3-2.7,6-6,6l0,0C1996.7,1393.4,1994,1390.7,1994,1387.4L1994,1387.4L1994,1387.4z M1994,1358.7
		c0-3.3,2.7-6,6-6l0,0c3.3,0,6,2.7,6,6l0,0c0,3.3-2.7,6-6,6l0,0C1996.7,1364.7,1994,1362,1994,1358.7
		C1994,1358.7,1994,1358.7,1994,1358.7L1994,1358.7z"/>
	<path class="st1" d="M2000,1336c-0.4,0-0.8,0-1.2-0.1c-0.4-0.1-0.8-0.2-1.1-0.3c-0.3-0.2-0.7-0.3-1-0.6c-0.3-0.2-0.6-0.5-0.9-0.8
		c-1.1-1.1-1.8-2.6-1.8-4.2c0-0.4,0-0.8,0.1-1.2c0.1-0.4,0.2-0.8,0.3-1.1c0.2-0.3,0.3-0.7,0.6-1c0.4-0.7,1-1.2,1.7-1.7
		c0.3-0.2,0.7-0.4,1-0.6c0.4-0.2,0.7-0.3,1.1-0.3c2-0.4,4,0.2,5.4,1.6c0.3,0.3,0.5,0.6,0.8,0.9c0.2,0.3,0.4,0.7,0.6,1
		c0.2,0.4,0.3,0.7,0.3,1.1c0.1,0.4,0.1,0.8,0.1,1.2c0,1.6-0.6,3.1-1.8,4.2c-0.3,0.3-0.6,0.5-0.9,0.8c-0.3,0.2-0.7,0.4-1,0.6
		c-0.4,0.2-0.7,0.3-1.1,0.3C2000.8,1336,2000.4,1336,2000,1336z"/>
	<circle class="st0" cx="2000" cy="1458.3" r="60"/>
	<path class="st1" d="M2039.2,1470.8c-0.7-0.4-1.5-0.7-2.3-0.9v-23.3c4.7-1.1,7.6-5.9,6.4-10.6c-0.2-0.8-0.5-1.6-0.9-2.3
		c-2.4-4.2-7.8-5.6-12-3.2c0,0,0,0,0,0c-0.7,0.4-1.4,1-2,1.6l-20.2-11.6c0.2-0.8,0.4-1.7,0.4-2.5c0-4.8-3.9-8.7-8.8-8.7
		c-4.8,0-8.7,3.9-8.7,8.7c0,0.8,0.1,1.7,0.4,2.5l-20.2,11.6c-0.6-0.6-1.3-1.1-2-1.6c-4.1-2.6-9.5-1.3-12.1,2.8
		c-2.6,4.1-1.3,9.5,2.8,12.1c0.2,0.1,0.3,0.2,0.5,0.3c0.7,0.4,1.5,0.7,2.3,0.9v23.3c-0.8,0.2-1.6,0.5-2.3,0.9
		c-4.2,2.4-5.7,7.7-3.3,11.9c2.4,4.2,7.7,5.7,11.9,3.3c0.8-0.4,1.4-1,2-1.6l20.2,11.6c-0.2,0.8-0.4,1.6-0.4,2.5
		c0,4.8,3.9,8.7,8.8,8.7c4.8,0,8.7-3.9,8.7-8.7c0-0.9-0.2-1.9-0.4-2.8l20-11.6c0.6,0.7,1.3,1.3,2.2,1.8c4.3,2.3,9.6,0.7,11.8-3.6
		c2.2-4.1,0.8-9.1-3.1-11.5H2039.2z M1973.6,1476.3c-0.2-0.8-0.5-1.6-0.9-2.3c-0.4-0.7-0.9-1.4-1.5-2l26.4-45.7
		c1.6,0.5,3.3,0.5,4.9,0l26.4,45.7c-1.2,1.2-2.1,2.6-2.4,4.3L1973.6,1476.3z M2026.5,1435.7c-1.3,4.6,1.3,9.5,6,10.8
		c0.1,0,0.2,0.1,0.3,0.1v23.3l-0.3,0.1l-26.4-45.7l0.2-0.2L2026.5,1435.7z M1993.7,1424.1l0.2,0.2l-26.4,45.7l-0.3-0.1v-23.3
		c2.3-0.6,4.3-2.1,5.5-4.1c1.2-2.1,1.5-4.5,0.8-6.8L1993.7,1424.1z M2006.5,1492.7c-3.3-3.6-8.8-3.8-12.4-0.6
		c-0.1,0.1-0.3,0.2-0.4,0.4l-20.2-11.7c0-0.1,0.1-0.2,0.1-0.3h52.8c0,0.2,0.1,0.4,0.2,0.6L2006.5,1492.7z"/>
	<path class="st2" d="M2481,1387.2c-0.4,0-0.8,0-1.2-0.1c-0.8-0.2-1.5-0.5-2.2-0.9c-0.3-0.2-0.6-0.5-0.9-0.8
		c-1.1-1.1-1.8-2.6-1.8-4.2c0-0.4,0-0.8,0.1-1.2c0.2-0.8,0.5-1.5,0.9-2.2c0.2-0.3,0.5-0.6,0.8-0.9c2.3-2.3,6.1-2.3,8.5,0
		c0.3,0.3,0.5,0.6,0.8,0.9c0.2,0.3,0.4,0.7,0.6,1c0.2,0.4,0.3,0.7,0.3,1.1c0.1,0.4,0.1,0.8,0.1,1.2c0,1.6-0.6,3.1-1.8,4.2
		c-0.3,0.3-0.6,0.5-0.9,0.8c-0.3,0.2-0.7,0.4-1,0.6c-0.4,0.1-0.7,0.3-1.1,0.3C2481.8,1387.2,2481.4,1387.2,2481,1387.2z"/>
	<path class="st2" d="M2454.5,1363.3c-2.3-2.3-2.3-6.1,0-8.5c0,0,0,0,0,0l0,0c2.3-2.3,6.1-2.3,8.5,0c0,0,0,0,0,0l0,0
		c2.3,2.3,2.3,6.1,0,8.5c0,0,0,0,0,0l0,0c-1.1,1.1-2.6,1.8-4.2,1.8l0,0C2457.2,1365,2455.7,1364.4,2454.5,1363.3z M2432.3,1341.1
		c-2.3-2.3-2.3-6.1,0-8.5c0,0,0,0,0,0l0,0c2.3-2.3,6.1-2.3,8.5,0c0,0,0,0,0,0l0,0c2.3,2.3,2.3,6.1,0,8.5c0,0,0,0,0,0l0,0
		c-1.1,1.1-2.7,1.8-4.2,1.8l0,0C2435,1342.8,2433.4,1342.2,2432.3,1341.1z M2343.4,1252.2c-2.3-2.3-2.3-6.1,0-8.5c0,0,0,0,0,0l0,0
		c2.3-2.3,6.1-2.3,8.5,0c0,0,0,0,0,0l0,0c2.3,2.3,2.3,6.1,0,8.5c0,0,0,0,0,0l0,0c-1.1,1.1-2.7,1.8-4.2,1.8l0,0
		C2346.1,1253.9,2344.5,1253.3,2343.4,1252.2z M2321.2,1229.9c-2.3-2.3-2.3-6.1,0-8.5c0,0,0,0,0,0l0,0c2.3-2.3,6.1-2.3,8.5,0
		c0,0,0,0,0,0l0,0c2.3,2.3,2.3,6.1,0,8.5c0,0,0,0,0,0l0,0c-1.1,1.1-2.7,1.8-4.2,1.8l0,0C2323.9,1231.7,2322.3,1231.1,2321.2,1229.9
		L2321.2,1229.9z M2299,1207.7c-2.3-2.3-2.3-6.1,0-8.5l0,0c2.3-2.3,6.1-2.3,8.5,0l0,0c2.3,2.3,2.3,6.1,0,8.5l0,0
		c-1.1,1.1-2.6,1.8-4.2,1.8l0,0C2301.6,1209.5,2300.1,1208.8,2299,1207.7z"/>
	<path class="st2" d="M2281,1187.2c-1.6,0-3.1-0.6-4.2-1.8c-0.3-0.3-0.5-0.6-0.8-0.9c-0.2-0.3-0.4-0.6-0.6-1
		c-0.2-0.4-0.3-0.7-0.3-1.1c-0.1-0.4-0.1-0.8-0.1-1.2c0-3.3,2.7-6,6-6c1.6,0,3.1,0.6,4.2,1.8c0.3,0.3,0.5,0.6,0.8,0.9
		c0.2,0.3,0.4,0.7,0.6,1c0.2,0.4,0.3,0.7,0.3,1.1c0.1,0.4,0.1,0.8,0.1,1.2c0,0.4,0,0.8-0.1,1.2c-0.1,0.4-0.2,0.8-0.3,1.1
		c-0.2,0.3-0.3,0.7-0.6,1c-0.2,0.3-0.5,0.6-0.8,0.9c-0.3,0.3-0.6,0.5-0.9,0.8c-0.3,0.2-0.7,0.4-1,0.6c-0.4,0.2-0.7,0.3-1.1,0.3
		C2281.8,1187.2,2281.4,1187.2,2281,1187.2z"/>
	<circle class="st0" cx="2391" cy="1291" r="45"/>
	<circle class="st2" cx="2391" cy="1291" r="27"/>
	<path class="st1" d="M2278,828c-0.4,0-0.8,0-1.2-0.1c-0.8-0.2-1.5-0.5-2.2-0.9c-0.7-0.4-1.2-1-1.7-1.7c-0.2-0.3-0.4-0.6-0.5-1
		c-0.2-0.4-0.3-0.7-0.3-1.1c-0.2-0.8-0.2-1.6,0-2.3c0.1-0.4,0.2-0.8,0.3-1.1c0.1-0.4,0.3-0.7,0.5-1c0.4-0.7,1-1.2,1.7-1.7
		c0.7-0.4,1.4-0.7,2.2-0.9c2-0.4,4,0.2,5.4,1.6c0.3,0.3,0.5,0.6,0.8,0.9c0.4,0.7,0.7,1.4,0.9,2.2c0.2,0.8,0.2,1.6,0,2.3
		c-0.1,0.4-0.2,0.8-0.3,1.1c-0.2,0.3-0.3,0.7-0.6,1c-0.2,0.3-0.5,0.6-0.8,0.9C2281.1,827.4,2279.6,828,2278,828z"/>
	<path class="st1" d="M2296,804c-2.3-2.3-2.3-6.1,0-8.5l0,0c2.3-2.3,6.1-2.3,8.5,0l0,0c2.3,2.3,2.3,6.1,0,8.5l0,0
		c-1.1,1.1-2.6,1.8-4.2,1.8l0,0C2298.6,805.8,2297.1,805.1,2296,804z M2318.2,781.8c-2.3-2.3-2.3-6.1,0-8.5c0,0,0,0,0,0l0,0
		c2.3-2.3,6.1-2.3,8.5,0c0,0,0,0,0,0l0,0c2.3,2.3,2.3,6.1,0,8.5c0,0,0,0,0,0l0,0c-1.1,1.1-2.7,1.8-4.2,1.8l0,0
		C2320.9,783.5,2319.3,782.9,2318.2,781.8L2318.2,781.8z M2429.3,670.7c-2.3-2.3-2.3-6.1,0-8.5c0,0,0,0,0,0l0,0
		c2.3-2.3,6.1-2.3,8.5,0c0,0,0,0,0,0l0,0c2.3,2.3,2.3,6.1,0,8.5c0,0,0,0,0,0l0,0c-1.1,1.1-2.7,1.8-4.2,1.8l0,0
		C2432,672.4,2430.4,671.8,2429.3,670.7L2429.3,670.7z M2451.5,648.4c-2.3-2.3-2.3-6.1,0-8.5l0,0c2.3-2.3,6.1-2.3,8.5,0c0,0,0,0,0,0
		l0,0c2.3,2.3,2.3,6.1,0,8.5l0,0c-1.1,1.1-2.6,1.8-4.2,1.8l0,0C2454.2,650.2,2452.7,649.6,2451.5,648.4L2451.5,648.4z"/>
	<path class="st1" d="M2478,628c-3.3,0-6-2.7-6-6c0-0.4,0-0.8,0.1-1.2c0.1-0.4,0.2-0.8,0.3-1.1c0.1-0.4,0.3-0.7,0.6-1
		c0.2-0.3,0.5-0.6,0.8-0.9c1.4-1.4,3.4-2,5.4-1.6c0.4,0.1,0.8,0.2,1.1,0.3c0.4,0.2,0.7,0.3,1,0.5c0.7,0.4,1.2,1,1.7,1.7
		c0.2,0.3,0.4,0.7,0.5,1c0.2,0.4,0.3,0.7,0.3,1.1c0.1,0.4,0.1,0.8,0.2,1.2c0,1.6-0.6,3.1-1.8,4.2c-0.3,0.3-0.6,0.5-0.9,0.8
		c-0.3,0.2-0.7,0.4-1,0.5c-0.4,0.2-0.7,0.3-1.1,0.3C2478.8,628,2478.4,628,2478,628z"/>
	<circle class="st0" cx="2378" cy="723" r="60"/>
	<path class="st1" d="M2417.2,735.6c-0.7-0.4-1.5-0.7-2.3-0.9v-23.3c0.8-0.2,1.6-0.5,2.3-0.9c4.3-2.3,5.9-7.6,3.6-11.8
		c-2.3-4.3-7.6-5.9-11.8-3.6c-0.2,0.1-0.3,0.2-0.5,0.3c-0.7,0.4-1.4,1-2,1.6l-20.2-11.6c0.2-0.8,0.4-1.7,0.4-2.5
		c0-4.8-3.9-8.7-8.7-8.7c-4.8,0-8.7,3.9-8.7,8.7c0,0.8,0.1,1.7,0.4,2.5l-20.2,11.7c-0.6-0.6-1.3-1.1-2-1.6
		c-4.1-2.6-9.5-1.3-12.1,2.8c-2.6,4.1-1.3,9.5,2.8,12.1c0.2,0.1,0.3,0.2,0.5,0.3c0.7,0.4,1.5,0.7,2.3,0.9v23.3
		c-0.8,0.2-1.6,0.5-2.3,0.9c-4.2,2.4-5.7,7.7-3.3,11.9c2.4,4.2,7.7,5.7,11.9,3.3c0.8-0.4,1.4-1,2-1.6l20.2,11.6
		c-1.4,4.6,1.3,9.5,5.9,10.9c4.6,1.4,9.5-1.3,10.9-5.9c0.2-0.8,0.4-1.7,0.4-2.5c0-0.9-0.1-1.9-0.4-2.8l20-11.6
		c0.6,0.7,1.4,1.3,2.2,1.8c4.3,2.3,9.6,0.7,11.8-3.6C2422.4,743.1,2421.1,738,2417.2,735.6L2417.2,735.6z M2351.6,741.1
		c-0.2-0.8-0.5-1.6-0.9-2.3c-0.4-0.7-0.9-1.4-1.5-2l26.4-45.7c1.6,0.5,3.3,0.5,4.9,0l26.4,45.7c-0.6,0.6-1.1,1.3-1.5,2
		c-0.4,0.7-0.7,1.5-0.9,2.3L2351.6,741.1z M2404.5,700.5c-1.3,4.6,1.3,9.5,6,10.8c0.1,0,0.2,0.1,0.3,0.1v23.3l-0.3,0.1L2384,689
		l0.2-0.2L2404.5,700.5z M2371.7,688.8l0.2,0.2l-26.4,45.7l-0.3-0.1v-23.3c4.7-1.2,7.5-5.9,6.4-10.6c0-0.1-0.1-0.2-0.1-0.3
		L2371.7,688.8z M2384.5,757.4c-3.2-3.6-8.8-3.8-12.3-0.6c-0.1,0.1-0.3,0.3-0.4,0.4l-20.2-11.7c0-0.1,0.1-0.2,0.1-0.3h52.8
		c0,0.2,0.1,0.4,0.2,0.6L2384.5,757.4z"/>
	<path class="st1" d="M2000,670c-0.4,0-0.8,0-1.2-0.1c-0.8-0.2-1.5-0.5-2.2-0.9c-0.7-0.4-1.2-1-1.7-1.7c-0.2-0.3-0.4-0.7-0.5-1
		c-0.2-0.4-0.3-0.7-0.3-1.1c-0.1-0.4-0.1-0.8-0.1-1.2c0-1.6,0.6-3.1,1.8-4.2c0.3-0.3,0.6-0.5,0.9-0.8c0.7-0.4,1.4-0.7,2.2-0.9
		c0.8-0.2,1.6-0.2,2.3,0c0.4,0.1,0.8,0.2,1.1,0.3c0.4,0.1,0.7,0.3,1,0.5c0.3,0.2,0.6,0.5,0.9,0.8c1.1,1.1,1.8,2.6,1.8,4.2
		c0,0.4,0,0.8-0.1,1.2c-0.1,0.4-0.2,0.8-0.3,1.1c-0.2,0.3-0.3,0.7-0.6,1c-0.4,0.7-1,1.2-1.7,1.7c-0.3,0.2-0.6,0.4-1,0.5
		c-0.4,0.2-0.7,0.3-1.1,0.3C2000.8,669.9,2000.4,670,2000,670z"/>
	<path class="st1" d="M1994,633.1c0-3.3,2.7-6,6-6l0,0c3.3,0,6,2.7,6,6l0,0c0,3.3-2.7,6-6,6l0,0C1996.7,639.1,1994,636.4,1994,633.1
		z M1994,602.2c0-3.3,2.7-6,6-6l0,0c3.3,0,6,2.7,6,6l0,0c0,3.3-2.7,6-6,6l0,0C1996.7,608.2,1994,605.5,1994,602.2L1994,602.2z
		 M1994,571.3c0-3.3,2.7-6,6-6l0,0c3.3,0,6,2.7,6,6l0,0c0,3.3-2.7,6-6,6l0,0C1996.7,577.3,1994,574.6,1994,571.3L1994,571.3z
		 M1994,416.8c0-3.3,2.7-6,6-6l0,0c3.3,0,6,2.7,6,6l0,0c0,3.3-2.7,6-6,6l0,0C1996.7,422.8,1994,420.1,1994,416.8L1994,416.8z
		 M1994,385.9c0-3.3,2.7-6,6-6l0,0c3.3,0,6,2.7,6,6l0,0c0,3.3-2.7,6-6,6l0,0C1996.7,391.9,1994,389.2,1994,385.9L1994,385.9z"/>
	<path class="st1" d="M2000,361c-0.4,0-0.8,0-1.2-0.1c-0.4-0.1-0.8-0.2-1.1-0.3c-0.3-0.2-0.7-0.3-1-0.5c-0.7-0.4-1.2-1-1.7-1.7
		c-0.2-0.3-0.4-0.7-0.6-1c-0.2-0.4-0.3-0.7-0.3-1.1c-0.1-0.4-0.1-0.8-0.2-1.2c0-0.4,0-0.8,0.1-1.2c0.1-0.4,0.2-0.8,0.3-1.1
		c0.2-0.3,0.3-0.7,0.6-1c0.4-0.7,1-1.2,1.7-1.7c0.7-0.4,1.4-0.7,2.2-0.9c0.8-0.2,1.6-0.2,2.3,0c0.4,0.1,0.8,0.2,1.1,0.3
		c0.4,0.1,0.7,0.3,1,0.5c0.7,0.4,1.2,1,1.7,1.7c0.2,0.3,0.4,0.7,0.6,1c0.2,0.4,0.3,0.7,0.3,1.1c0.1,0.4,0.1,0.8,0.2,1.2
		c0,0.4,0,0.8-0.1,1.2c-0.1,0.4-0.2,0.8-0.3,1.1c-0.2,0.3-0.3,0.7-0.6,1c-0.2,0.3-0.5,0.6-0.8,0.9C2003.1,360.3,2001.6,361,2000,361
		z"/>
	<circle class="st0" cx="2000" cy="494.8" r="60"/>
	<path class="st1" d="M2039.2,507.4c-0.7-0.4-1.5-0.7-2.3-0.9v-23.3c4.7-1.1,7.6-5.9,6.4-10.6c-0.2-0.8-0.5-1.6-0.9-2.3
		c-2.4-4.2-7.8-5.6-12-3.2c0,0,0,0,0,0c-0.7,0.4-1.4,1-2,1.6l-20.1-11.6c0.2-0.8,0.4-1.7,0.4-2.5c0-4.8-3.9-8.7-8.8-8.7
		c-4.8,0-8.7,3.9-8.7,8.7c0,0.8,0.1,1.7,0.4,2.5l-20.2,11.6c-0.6-0.6-1.3-1.1-2-1.6c-4.1-2.6-9.5-1.3-12.1,2.8
		c-2.6,4.1-1.3,9.5,2.8,12.1c0.2,0.1,0.3,0.2,0.5,0.3c0.7,0.4,1.5,0.7,2.3,0.9v23.3c-0.8,0.2-1.6,0.5-2.3,0.9
		c-4.2,2.5-5.5,7.8-3.1,12c2.5,4.2,7.8,5.5,12,3.1c0.7-0.4,1.3-0.9,1.8-1.4l20.2,11.6c-0.2,0.8-0.4,1.6-0.4,2.5
		c0,4.8,3.9,8.7,8.8,8.7c4.8,0,8.7-3.9,8.7-8.7c0-0.9-0.2-1.9-0.4-2.8l20-11.6c0.6,0.7,1.3,1.3,2.2,1.8c4.3,2.3,9.6,0.7,11.8-3.6
		C2044.5,514.9,2043.1,509.8,2039.2,507.4L2039.2,507.4z M1973.6,512.9c-0.2-0.8-0.5-1.6-0.9-2.3c-0.4-0.7-0.9-1.4-1.5-2l26.4-45.7
		c1.6,0.5,3.3,0.5,4.9,0l26.4,45.7c-1.2,1.2-2.1,2.6-2.4,4.3H1973.6z M2026.5,472.2c-1.3,4.6,1.3,9.5,6,10.8c0.1,0,0.2,0.1,0.3,0.1
		v23.3l-0.3,0.1l-26.4-45.7l0.2-0.2L2026.5,472.2z M1993.7,460.6l0.2,0.2l-26.4,45.7c-0.1,0-0.2-0.1-0.3-0.1v-23.3
		c4.7-1.2,7.5-5.9,6.4-10.6c0-0.1-0.1-0.2-0.1-0.3L1993.7,460.6z M2006.5,529.2c-3.3-3.6-8.8-3.8-12.4-0.6c-0.1,0.1-0.3,0.2-0.4,0.4
		l-20.2-11.7c0-0.1,0.1-0.2,0.1-0.3h52.8c0,0.2,0.1,0.4,0.2,0.6L2006.5,529.2z"/>
</g>
<g id="a2c7e3b9-dc79-45b9-8b27-317d601097fc">
	<path class="st2" d="M1435.5,438.2c-52.1,0-94.3,42.2-94.3,94.3s42.2,94.3,94.3,94.3s94.3-42.2,94.3-94.3
		C1529.8,480.4,1487.6,438.2,1435.5,438.2C1435.5,438.2,1435.5,438.2,1435.5,438.2z M1466.8,574.2c-1.5,1.5-3,3-4.3,4.3
		c-1.1,1.1-1.9,2.5-2.3,4.1c-0.6,2.2-1,4.3-1.8,6.4l-6.6,17.8c-5.3,1.2-10.8,1.8-16.2,1.8v-10.4c0.6-4.8-2.9-13.8-8.6-19.5
		c-2.3-2.3-3.6-5.4-3.6-8.6v-12.2c0-4.4-2.4-8.5-6.3-10.6c-5.5-3-13.2-7.2-18.6-9.9c-4.3-2.2-8.4-5-12-8.3l-0.3-0.3
		c-2.6-2.3-4.9-5-6.9-7.9c-3.6-5.2-9.4-13.9-13.2-19.5c7.8-17.4,21.8-31.2,39.2-38.8l9.1,4.6c3,1.5,6.7,0.3,8.2-2.7
		c0.4-0.8,0.6-1.8,0.6-2.7v-4.3c3.1-0.5,6.2-0.8,9.3-0.9l10.8,10.8c2.4,2.4,2.4,6.2,0,8.6c0,0,0,0,0,0l-1.8,1.8l-3.9,3.9
		c-1.2,1.2-1.2,3.1,0,4.3l1.8,1.8c1.2,1.2,1.2,3.1,0,4.3l-3,3c-0.6,0.6-1.3,0.9-2.2,0.9h-3.4c-0.8,0-1.6,0.3-2.1,0.9l-3.8,3.7
		c-1,0.9-1.2,2.4-0.6,3.5l5.9,11.9c0.8,1.5,0.1,3.3-1.4,4.1c-0.4,0.2-0.9,0.3-1.3,0.3h-2.2c-0.7,0-1.4-0.3-2-0.8l-3.5-3.1
		c-1.6-1.4-3.9-1.9-5.9-1.2l-11.8,4c-2.4,0.8-3.7,3.4-2.9,5.7c0.4,1.2,1.2,2.1,2.3,2.6l4.2,2.1c3.6,1.8,7.5,2.7,11.5,2.7
		c4,0,8.6,10.4,12.2,12.2h25.4c3.2,0,6.3,1.3,8.6,3.6l5.2,5.2c2.2,2.2,3.4,5.1,3.4,8.2C1472,566.3,1470.2,570.9,1466.8,574.2
		L1466.8,574.2z M1499.8,539.4c-2.2-0.5-4.1-1.9-5.4-3.8l-6.8-10.3c-2-3.1-2-7.1,0-10.1l7.4-11.2c0.9-1.3,2.1-2.4,3.5-3.1l4.9-2.5
		c6.9,13.5,9.5,28.7,7.4,43.7L1499.8,539.4z"/>
	<g>
		<defs>
			
				<rect id="SVGID_1_" x="1400.3" y="494.8" transform="matrix(0.5562 -0.8311 0.8311 0.5562 182.9983 1513.319)" width="216" height="181"/>
		</defs>
		<clipPath id="SVGID_2_">
			<use xlink:href="#SVGID_1_"  style="overflow:visible;"/>
		</clipPath>
		<g class="st3">
			<path class="st4" d="M1435.5,438.2c-52.1,0-94.3,42.2-94.3,94.3s42.2,94.3,94.3,94.3c52.1,0,94.3-42.2,94.3-94.3
				C1529.8,480.4,1487.6,438.2,1435.5,438.2C1435.5,438.2,1435.5,438.2,1435.5,438.2z M1466.8,574.2c-1.5,1.5-3,3-4.3,4.3
				c-1.1,1.1-1.9,2.5-2.3,4.1c-0.6,2.2-1,4.3-1.8,6.4l-6.6,17.8c-5.3,1.2-10.8,1.8-16.2,1.8v-10.4c0.6-4.8-2.9-13.8-8.6-19.5
				c-2.3-2.3-3.6-5.4-3.6-8.6v-12.2c0-4.4-2.4-8.5-6.3-10.6c-5.5-3-13.2-7.2-18.6-9.9c-4.3-2.2-8.4-5-12-8.3l-0.3-0.3
				c-2.6-2.3-4.9-5-6.9-7.9c-3.6-5.2-9.4-13.9-13.2-19.5c7.8-17.4,21.8-31.2,39.2-38.8l9.1,4.6c3,1.5,6.7,0.3,8.2-2.7
				c0.4-0.8,0.6-1.8,0.6-2.7v-4.3c3.1-0.5,6.2-0.8,9.3-0.9l10.8,10.8c2.4,2.4,2.4,6.2,0,8.6c0,0,0,0,0,0l-1.8,1.8l-3.9,3.9
				c-1.2,1.2-1.2,3.1,0,4.3l1.8,1.8c1.2,1.2,1.2,3.1,0,4.3l-3.1,3c-0.6,0.6-1.3,0.9-2.2,0.9h-3.4c-0.8,0-1.6,0.3-2.1,0.9l-3.8,3.7
				c-1,0.9-1.2,2.4-0.6,3.5l5.9,11.9c0.8,1.5,0.1,3.3-1.4,4.1c-0.4,0.2-0.9,0.3-1.3,0.3h-2.2c-0.7,0-1.4-0.3-2-0.8l-3.5-3.1
				c-1.6-1.4-3.9-1.9-5.9-1.2l-11.9,4c-2.4,0.8-3.7,3.4-2.9,5.7c0.4,1.2,1.2,2.1,2.3,2.6l4.2,2.1c3.6,1.8,7.5,2.7,11.5,2.7
				c4,0,8.6,10.4,12.2,12.2h25.4c3.2,0,6.3,1.3,8.6,3.6l5.2,5.2c2.2,2.2,3.4,5.1,3.4,8.2C1472,566.3,1470.2,570.9,1466.8,574.2
				L1466.8,574.2z M1499.8,539.4c-2.2-0.5-4.1-1.9-5.4-3.8l-6.8-10.3c-2-3.1-2-7.1,0-10.1l7.4-11.2c0.9-1.3,2.1-2.4,3.5-3.1l4.9-2.5
				c6.9,13.5,9.5,28.7,7.4,43.7L1499.8,539.4z"/>
		</g>
	</g>
	<path class="st5" d="M1273.7,383.5l1,6.8l1.4-6.1l10.1-35.7h5.7l9.9,35.7l1.4,6.2l1.1-6.9l8-35h6.8l-12.4,51.2h-6.2l-10.5-37.3
		l-0.8-3.9l-0.8,3.9l-10.9,37.3h-6.2l-12.4-51.2h6.8L1273.7,383.5z"/>
	<path class="st5" d="M1355.5,375.9h-22.2v18.1h25.8v5.5h-32.5v-51.2h32.2v5.5h-25.4v16.5h22.2V375.9z"/>
	<path class="st5" d="M1367.5,399.6v-51.2h16.7c5.5,0,9.7,1.1,12.5,3.4s4.2,5.7,4.2,10.2c0,2.3-0.7,4.5-2,6.3
		c-1.4,1.9-3.4,3.4-5.6,4.3c2.6,0.7,4.9,2.2,6.6,4.4c1.6,2.2,2.5,5,2.4,7.8c0,4.6-1.5,8.2-4.5,10.8s-7.2,3.9-12.6,3.9H1367.5z
		 M1374.2,370.2h10.2c2.6,0.1,5.1-0.7,7.1-2.2c1.8-1.5,2.7-3.7,2.7-6c0-2.8-0.8-4.9-2.5-6.1c-1.6-1.3-4.1-1.9-7.5-1.9h-10
		L1374.2,370.2z M1374.2,375.6v18.4h11.1c2.7,0.2,5.4-0.7,7.4-2.4c1.9-1.7,2.9-4.2,2.7-6.7c0-6.2-3.3-9.2-10-9.2H1374.2z"/>
	<path class="st5" d="M1458.4,386.2h-21.5l-4.8,13.4h-7l19.5-51.2h5.9l19.6,51.2h-6.9L1458.4,386.2z M1439,380.7h17.4l-8.7-23.9
		L1439,380.7z"/>
	<path class="st5" d="M1483.8,379.5v20h-6.8v-51.1h18.9c5.6,0,10,1.4,13.2,4.3c3.2,2.9,4.9,7,4.8,11.4c0,5-1.6,8.8-4.7,11.5
		s-7.6,4-13.3,4L1483.8,379.5z M1483.8,374h12.2c3.6,0,6.4-0.9,8.3-2.6c1.9-1.7,2.9-4.2,2.9-7.4c0.1-2.7-0.9-5.4-2.9-7.3
		c-2.2-1.9-5-2.9-7.9-2.9h-12.6V374z"/>
	<path class="st5" d="M1529.3,379.5v20h-6.8v-51.1h18.9c5.6,0,10,1.4,13.2,4.3c3.2,2.9,4.9,7,4.8,11.4c0,5-1.6,8.8-4.7,11.5
		c-3.1,2.7-7.6,4-13.3,4L1529.3,379.5z M1529.3,374h12.1c3.6,0,6.4-0.9,8.3-2.6c1.9-1.7,2.9-4.2,2.9-7.4c0.1-2.7-0.9-5.4-2.9-7.3
		c-2.2-1.9-5-2.9-7.9-2.9h-12.5V374z"/>
	<path class="st5" d="M1583,376.8c-5.8-1.7-10-3.7-12.6-6.1c-2.6-2.3-4.1-5.6-4-9c-0.1-3.9,1.7-7.6,4.8-10c3.2-2.7,7.4-4,12.6-4
		c3.2-0.1,6.5,0.6,9.4,2c2.6,1.2,4.8,3.2,6.4,5.6c1.5,2.3,2.3,5.1,2.3,7.8h-6.8c0.1-2.8-1-5.4-3-7.3c-2-1.8-4.8-2.7-8.3-2.7
		c-3.3,0-5.9,0.7-7.8,2.2c-1.9,1.5-2.9,3.7-2.8,6.1c0,2.1,1,4.1,2.7,5.3c1.8,1.5,4.8,2.8,9,4c3.5,0.9,6.9,2.2,10,4
		c2.2,1.2,4,2.9,5.3,5c1.2,2.1,1.8,4.4,1.7,6.8c0.1,3.9-1.7,7.7-4.8,10c-3.2,2.5-7.6,3.7-13,3.8c-3.4,0-6.7-0.7-9.9-2
		c-2.8-1.2-5.2-3.1-7-5.5c-1.7-2.3-2.5-5.1-2.5-8h6.8c-0.1,2.9,1.2,5.6,3.4,7.3c2.3,1.8,5.3,2.7,9.2,2.7c3.6,0,6.3-0.7,8.2-2.2
		c1.9-1.4,2.9-3.6,2.8-5.9c0.1-2.3-0.9-4.4-2.6-5.8C1590.8,379.5,1587.6,378.1,1583,376.8z"/>
</g>
<g id="f8a7eae5-78b9-48f0-8ad3-2bf8e533f381">
	<circle class="st6" cx="1423.8" cy="1479.8" r="98.2"/>
	<circle class="st7" cx="1407.6" cy="1485.6" r="16.1"/>
	<circle class="st7" cx="1408.7" cy="1438.7" r="11.2"/>
	<circle class="st7" cx="1469.8" cy="1499.8" r="11.2"/>
	<path class="st7" d="M1389.6,1525.3c0,6.2-5,11.2-11.2,11.2c-6.2,0-11.2-5-11.2-11.2c0-6.2,5-11.2,11.2-11.2c1.5,0,3,0.3,4.3,0.9
		C1386.9,1516.7,1389.6,1520.8,1389.6,1525.3z"/>
	<circle class="st7" cx="1469.8" cy="1432.7" r="11.2"/>
	<line class="st8" x1="1408.7" y1="1450.3" x2="1407.9" y2="1469.4"/>
	<line class="st8" x1="1421.2" y1="1474.9" x2="1461.1" y2="1440.8"/>
	<line class="st8" x1="1422.5" y1="1490.5" x2="1458.8" y2="1498.3"/>
	<line class="st8" x1="1397.7" y1="1499.2" x2="1385.1" y2="1515.5"/>
	<g>
		<defs>
			
				<rect id="SVGID_3_" x="1394.9" y="1442.4" transform="matrix(0.5562 -0.8311 0.8311 0.5562 -606.8969 1929.3901)" width="216" height="181"/>
		</defs>
		<clipPath id="SVGID_4_">
			<use xlink:href="#SVGID_3_"  style="overflow:visible;"/>
		</clipPath>
		<g class="st9">
			<circle class="st4" cx="1423.8" cy="1479.8" r="98.2"/>
			<circle class="st7" cx="1407.6" cy="1485.6" r="16.1"/>
			<circle class="st7" cx="1408.7" cy="1438.7" r="11.2"/>
			<circle class="st7" cx="1469.8" cy="1499.8" r="11.2"/>
			<path class="st7" d="M1389.6,1525.3c0,6.2-5,11.2-11.2,11.2c-6.2,0-11.2-5-11.2-11.2c0-6.2,5-11.2,11.2-11.2c1.5,0,3,0.3,4.3,0.9
				C1386.9,1516.7,1389.6,1520.8,1389.6,1525.3z"/>
			<circle class="st7" cx="1469.8" cy="1432.7" r="11.2"/>
			<line class="st8" x1="1408.7" y1="1450.3" x2="1408" y2="1469.4"/>
			<line class="st8" x1="1421.2" y1="1474.9" x2="1461.1" y2="1440.8"/>
			<line class="st8" x1="1422.5" y1="1490.5" x2="1458.8" y2="1498.3"/>
			<line class="st8" x1="1397.7" y1="1499.2" x2="1385.1" y2="1515.5"/>
		</g>
	</g>
	<path class="st5" d="M1177.6,1663.2h-21.4l-4.8,13.4h-7l19.5-51.2h5.9l19.6,51.2h-6.9L1177.6,1663.2z M1158.2,1657.7h17.4
		l-8.7-23.9L1158.2,1657.7z"/>
	<path class="st5" d="M1215.1,1655.9H1203v20.7h-6.8v-51.2h16.9c5.8,0,10.2,1.3,13.3,3.9c3.1,2.6,4.7,6.4,4.7,11.5
		c0.1,3-0.8,5.9-2.6,8.3c-1.8,2.4-4.3,4.3-7.2,5.3l12,21.7v0.4h-7.2L1215.1,1655.9z M1203.1,1650.4h10.3c2.9,0.2,5.7-0.8,8-2.6
		c2-1.8,3.1-4.3,3-7c0-3.2-0.9-5.6-2.8-7.3c-1.9-1.7-4.6-2.6-8.2-2.6H1203L1203.1,1650.4z"/>
	<path class="st5" d="M1240.6,1676.6v-51.2h16.7c5.5,0,9.7,1.1,12.5,3.4c2.8,2.3,4.2,5.7,4.2,10.2c0,2.3-0.7,4.5-2,6.3
		c-1.4,1.9-3.3,3.4-5.6,4.3c2.6,0.7,4.9,2.2,6.6,4.4c1.6,2.3,2.5,5,2.4,7.8c0,4.6-1.5,8.2-4.5,10.8c-3,2.6-7.2,3.9-12.6,3.9
		L1240.6,1676.6z M1247.4,1647.2h10.2c2.5,0.1,5.1-0.7,7.1-2.2c1.8-1.5,2.7-3.7,2.7-6c0-2.8-0.8-4.9-2.5-6.1
		c-1.6-1.3-4.1-1.9-7.5-1.9h-10L1247.4,1647.2z M1247.4,1652.7v18.4h11.2c2.7,0.2,5.3-0.7,7.4-2.4c1.9-1.7,2.9-4.2,2.7-6.7
		c0-6.2-3.4-9.3-10.1-9.2L1247.4,1652.7z"/>
	<path class="st5" d="M1292.7,1676.6h-6.8v-51.2h6.8V1676.6z"/>
	<path class="st5" d="M1339.4,1630.9h-16.4v45.7h-6.7v-45.7h-16.4v-5.5h39.6V1630.9z"/>
	<path class="st5" d="M1365.7,1655.9h-12v20.7h-6.8v-51.2h16.9c5.8,0,10.2,1.3,13.3,3.9c3.1,2.6,4.7,6.4,4.7,11.5
		c0.1,3-0.8,5.9-2.6,8.3c-1.8,2.4-4.3,4.3-7.2,5.3l12,21.7v0.4h-7.2L1365.7,1655.9z M1353.7,1650.4h10.4c2.9,0.2,5.7-0.8,8-2.6
		c2-1.8,3.1-4.3,3-7c0-3.2-0.9-5.6-2.8-7.3c-1.9-1.7-4.6-2.5-8.2-2.6h-10.4L1353.7,1650.4z"/>
	<path class="st5" d="M1419.6,1663.2h-21.5l-4.8,13.4h-7l19.5-51.2h5.9l19.6,51.2h-6.9L1419.6,1663.2z M1400.2,1657.7h17.4
		l-8.7-23.9L1400.2,1657.7z"/>
	<path class="st5" d="M1457,1655.9h-12v20.7h-6.8v-51.2h16.9c5.8,0,10.2,1.3,13.3,3.9c3.1,2.6,4.7,6.4,4.7,11.5
		c0.1,3-0.8,5.9-2.6,8.3c-1.8,2.4-4.3,4.3-7.2,5.3l12,21.7v0.4h-7.2L1457,1655.9z M1445,1650.4h10.4c2.9,0.2,5.8-0.8,8-2.6
		c2-1.8,3.1-4.3,3-7c0-3.2-0.9-5.6-2.8-7.3c-1.9-1.7-4.6-2.6-8.2-2.6H1445V1650.4z"/>
	<path class="st5" d="M1496.5,1651.1l13.4-25.7h7.7l-17.7,32.1v19.1h-6.8v-19.1l-17.7-32.1h7.7L1496.5,1651.1z"/>
	<path class="st5" d="M1570.2,1663.2h-21.4l-4.8,13.4h-7l19.5-51.2h5.9l19.6,51.2h-6.9L1570.2,1663.2z M1550.8,1657.7h17.4
		l-8.7-23.9L1550.8,1657.7z"/>
	<path class="st5" d="M1595.7,1656.6v20h-6.8v-51.2h18.9c5.6,0,10,1.4,13.2,4.3c3.2,2.9,4.9,7,4.8,11.3c0,5-1.6,8.8-4.7,11.5
		c-3.1,2.7-7.6,4-13.3,4L1595.7,1656.6z M1595.7,1651h12.1c3.6,0,6.4-0.9,8.3-2.6s2.9-4.2,2.9-7.4c0.1-2.7-0.9-5.4-2.9-7.3
		c-2.2-1.9-5-2.9-7.9-2.8h-12.5V1651z"/>
	<path class="st5" d="M1641.6,1676.6h-6.8v-51.2h6.8V1676.6z"/>
	<path class="st5" d="M1669,1653.8c-5.8-1.7-10-3.7-12.6-6.1c-2.6-2.3-4.1-5.6-4-9c-0.1-3.9,1.7-7.6,4.8-10c3.2-2.7,7.4-4,12.6-4
		c3.2-0.1,6.5,0.6,9.4,2c2.6,1.2,4.8,3.2,6.4,5.6c1.5,2.3,2.3,5.1,2.3,7.8h-6.8c0.1-2.8-1-5.4-3-7.3c-2-1.8-4.8-2.7-8.3-2.7
		c-3.3,0-5.9,0.7-7.8,2.2c-1.9,1.5-2.9,3.7-2.8,6.1c0,2.1,1,4.1,2.7,5.3c1.8,1.5,4.8,2.8,9,4c3.5,0.9,6.9,2.2,10,4
		c2.2,1.2,4,2.9,5.3,5c1.2,2.1,1.8,4.4,1.7,6.8c0.1,3.9-1.7,7.7-4.8,10c-3.2,2.5-7.6,3.8-13,3.8c-3.4,0-6.7-0.7-9.8-2
		c-2.8-1.2-5.2-3.1-7-5.5c-1.7-2.3-2.5-5.1-2.5-8h6.8c-0.1,2.9,1.2,5.6,3.4,7.3c2.3,1.8,5.3,2.7,9.2,2.7c3.6,0,6.3-0.7,8.2-2.2
		c1.9-1.4,2.9-3.6,2.8-5.9c0.1-2.3-0.9-4.4-2.6-5.8C1676.8,1656.5,1673.7,1655.1,1669,1653.8z"/>
</g>
<g id="a7fc57d4-fff9-48fd-922f-c8b2221b9615">
	<path class="st1" d="M2081.5,1806.5l-71.5,41.3c-6.2,3.6-13.8,3.6-20,0l-71.5-41.3c-6.2-3.6-10-10.2-10-17.3v-82.6
		c0-7.1,3.8-13.7,10-17.3l71.5-41.3c6.2-3.6,13.8-3.6,20,0l71.5,41.3c6.2,3.6,10,10.2,10,17.3v82.6
		C2091.5,1796.3,2087.7,1802.9,2081.5,1806.5z"/>
	<path class="st0" d="M2065.8,1769c-1.2-0.7-2.5-1.2-3.9-1.5v-39.1c7.9-2,12.6-9.9,10.6-17.8c-2-7.9-9.9-12.6-17.8-10.6
		c-1.3,0.3-2.5,0.8-3.6,1.4c-1.2,0.7-2.4,1.6-3.3,2.6l-33.8-19.5c0.4-1.4,0.6-2.8,0.6-4.2c0-8.1-6.6-14.7-14.7-14.6
		c-8.1,0-14.7,6.6-14.6,14.7c0,1.4,0.2,2.8,0.6,4.1l-33.8,19.5c-5.6-5.9-14.9-6.1-20.7-0.5c-5.9,5.6-6.1,14.9-0.5,20.7
		c1.9,2,4.4,3.5,7.1,4.1v39.1c-1.4,0.3-2.7,0.8-3.9,1.5c-7,4-9.5,13-5.5,20s13,9.5,20,5.5c1.3-0.7,2.4-1.6,3.4-2.7l33.8,19.5
		c-2.3,7.8,2.2,15.9,10,18.2c7.8,2.3,15.9-2.2,18.2-10c0.8-2.8,0.8-5.9-0.1-8.7l33.6-19.4c5.4,6,14.7,6.6,20.7,1.2
		c6-5.4,6.6-14.7,1.2-20.7C2068.4,1770.8,2067.2,1769.8,2065.8,1769L2065.8,1769z M1955.8,1778.2c-0.7-2.7-2.1-5.2-4.1-7.1
		l44.3-76.7c2.7,0.8,5.5,0.8,8.2,0l44.3,76.7c-2,1.9-3.5,4.4-4.1,7.2L1955.8,1778.2z M2044.4,1710.1c-2.2,7.8,2.3,15.9,10,18.1
		c0.2,0,0.3,0.1,0.5,0.1v39.1l-0.6,0.2l-44.3-76.7l0.4-0.4L2044.4,1710.1z M1989.4,1690.5l0.4,0.4l-44.3,76.7l-0.6-0.2v-39.1
		c7.8-1.9,12.6-9.9,10.7-17.7c0-0.2-0.1-0.4-0.1-0.5L1989.4,1690.5z M2010.8,1805.6c-5.5-6-14.8-6.4-20.7-0.9
		c-0.2,0.2-0.4,0.4-0.7,0.6l-33.9-19.5c0.1-0.2,0.1-0.4,0.2-0.6h88.5c0.1,0.3,0.2,0.7,0.3,1L2010.8,1805.6z"/>
	<g>
		<defs>
			<rect id="SVGID_5_" x="2000" y="1625" width="175" height="251"/>
		</defs>
		<clipPath id="SVGID_6_">
			<use xlink:href="#SVGID_5_"  style="overflow:visible;"/>
		</clipPath>
		<g class="st10">
			<path class="st4" d="M2081.5,1806.5l-71.5,41.3c-6.2,3.6-13.8,3.6-20,0l-71.5-41.3c-6.2-3.6-10-10.2-10-17.3v-82.6
				c0-7.1,3.8-13.7,10-17.3l71.5-41.3c6.2-3.6,13.8-3.6,20,0l71.5,41.3c6.2,3.6,10,10.2,10,17.3v82.6
				C2091.5,1796.3,2087.7,1802.9,2081.5,1806.5z"/>
			<path class="st0" d="M2065.8,1769c-1.2-0.7-2.5-1.2-3.9-1.5v-39.1c7.9-2,12.6-9.9,10.6-17.8c-2-7.9-9.9-12.6-17.8-10.6
				c-1.3,0.3-2.5,0.8-3.6,1.4c-1.2,0.7-2.4,1.6-3.3,2.6l-33.8-19.5c0.4-1.4,0.6-2.8,0.6-4.2c0-8.1-6.6-14.7-14.7-14.6
				c-8.1,0-14.7,6.6-14.6,14.7c0,1.4,0.2,2.8,0.6,4.1l-33.8,19.5c-5.6-5.9-14.9-6.1-20.7-0.5c-5.9,5.6-6.1,14.9-0.5,20.7
				c1.9,2,4.4,3.5,7.1,4.1v39.1c-1.4,0.3-2.7,0.8-3.9,1.5c-7,4-9.5,13-5.5,20s13,9.5,20,5.5c1.3-0.7,2.4-1.6,3.4-2.7l33.8,19.5
				c-2.3,7.8,2.2,15.9,10,18.2c7.8,2.3,15.9-2.2,18.2-10c0.8-2.8,0.8-5.9-0.1-8.7l33.6-19.4c5.4,6,14.7,6.6,20.7,1.2
				c6-5.4,6.6-14.7,1.2-20.7C2068.4,1770.8,2067.2,1769.8,2065.8,1769L2065.8,1769z M1955.8,1778.2c-0.7-2.7-2.1-5.2-4.1-7.1
				l44.3-76.7c2.7,0.8,5.5,0.8,8.2,0l44.3,76.7c-2,1.9-3.5,4.4-4.1,7.2L1955.8,1778.2z M2044.4,1710.1c-2.2,7.8,2.3,15.9,10,18.1
				c0.2,0,0.3,0.1,0.5,0.1v39.1l-0.6,0.2l-44.3-76.7l0.4-0.4L2044.4,1710.1z M1989.4,1690.5l0.4,0.4l-44.3,76.7l-0.6-0.2v-39.1
				c7.8-1.9,12.6-9.9,10.7-17.7c0-0.2-0.1-0.4-0.1-0.5L1989.4,1690.5z M2010.8,1805.6c-5.5-6-14.8-6.4-20.7-0.9
				c-0.2,0.2-0.4,0.4-0.7,0.6l-33.9-19.5c0.1-0.2,0.1-0.4,0.2-0.6h88.5c0.1,0.3,0.2,0.7,0.3,1L2010.8,1805.6z"/>
		</g>
	</g>
	<path class="st5" d="M1794.3,1938.1c-1.8,2.5-4.3,4.5-7.3,5.6c-3.5,1.3-7.1,1.9-10.9,1.8c-3.9,0.1-7.7-0.9-11.1-2.9
		c-3.3-2-5.9-4.9-7.5-8.3c-1.8-3.9-2.8-8.2-2.7-12.6v-4.5c0-7.7,1.8-13.7,5.4-17.9c3.6-4.2,8.7-6.4,15.2-6.4c5.3,0,9.6,1.4,12.9,4.1
		s5.3,6.6,6,11.6h-6.8c-1.3-6.8-5.3-10.2-12.1-10.2c-4.5,0-8,1.6-10.3,4.8c-2.3,3.2-3.5,7.8-3.5,13.8v4.2c0,5.8,1.3,10.3,3.9,13.7
		c2.5,3.3,6.5,5.2,10.6,5.1c2.2,0,4.5-0.2,6.6-0.8c1.8-0.5,3.4-1.5,4.7-2.8v-11.5h-11.9v-5.5h18.6V1938.1z"/>
	<path class="st5" d="M1824.4,1924.1h-12v20.7h-6.8v-51.2h17c5.8,0,10.2,1.3,13.3,3.9c3.1,2.6,4.7,6.4,4.7,11.5
		c0.1,3-0.8,5.9-2.6,8.3c-1.8,2.4-4.3,4.3-7.2,5.3l12,21.7v0.4h-7.2L1824.4,1924.1z M1812.4,1918.6h10.4c2.9,0.2,5.7-0.8,8-2.6
		c2-1.8,3.1-4.3,3-7c0-3.2-0.9-5.6-2.8-7.3c-1.9-1.7-4.6-2.6-8.2-2.6h-10.4L1812.4,1918.6z"/>
	<path class="st5" d="M1878.2,1931.4h-21.4l-4.8,13.4h-7l19.6-51.2h5.9l19.6,51.2h-6.9L1878.2,1931.4z M1858.8,1925.9h17.4
		l-8.7-23.9L1858.8,1925.9z"/>
	<path class="st5" d="M1903.6,1924.8v20h-6.8v-51.2h18.9c5.6,0,10,1.4,13.2,4.3c3.2,2.9,4.9,7.1,4.8,11.4c0,5-1.6,8.8-4.7,11.5
		c-3.1,2.7-7.6,4-13.3,4L1903.6,1924.8z M1903.6,1919.3h12.1c3.6,0,6.4-0.8,8.3-2.6c1.9-1.7,2.9-4.2,2.9-7.4
		c0.1-2.7-0.9-5.4-2.9-7.3c-2.2-1.9-5-2.9-7.9-2.8h-12.5V1919.3z"/>
	<path class="st5" d="M1981.7,1944.8h-6.8v-23.7h-25.8v23.7h-6.8v-51.2h6.8v22h25.8v-22h6.8V1944.8z"/>
	<path class="st5" d="M2032.7,1920.9c0.1,4.4-0.7,8.7-2.3,12.8c-1.4,3.3-3.7,6.2-6.6,8.4l9.1,7.2l-4.6,4.3l-10.8-8.6
		c-1.7,0.4-3.5,0.6-5.3,0.6c-7.8,0.2-14.9-4.3-18-11.4c-1.8-4-2.7-8.4-2.7-12.8v-3.7c-0.1-4.5,0.8-8.9,2.6-13
		c4.7-10.1,16.7-14.5,26.8-9.8c0.7,0.3,1.4,0.7,2.1,1.1c3.2,2.1,5.7,5.1,7.2,8.6c1.8,4.1,2.6,8.6,2.5,13.1L2032.7,1920.9z
		 M2026,1917.6c0-6-1.2-10.6-3.6-13.9c-2.4-3.3-5.8-4.9-10.3-4.9c-3.9-0.1-7.7,1.7-10,4.9c-2.4,3.2-3.7,7.7-3.8,13.5v3.8
		c0,5.9,1.2,10.5,3.7,13.8c4.4,5.7,12.6,6.7,18.2,2.3c0.8-0.6,1.5-1.3,2.1-2c2.4-3.2,3.6-7.7,3.7-13.7L2026,1917.6z"/>
	<path class="st5" d="M2049.9,1939.3h24.3v5.5h-31v-51.2h6.8L2049.9,1939.3z"/>
	<path class="st5" d="M2128,1931.4h-21.4l-4.8,13.4h-7l19.5-51.2h5.9l19.6,51.2h-6.9L2128,1931.4z M2108.6,1925.9h17.4l-8.7-23.9
		L2108.6,1925.9z"/>
	<path class="st5" d="M2153.4,1924.8v20h-6.8v-51.2h18.9c5.6,0,10,1.4,13.2,4.3c3.2,2.9,4.9,7.1,4.8,11.4c0,5-1.5,8.8-4.6,11.5
		c-3.1,2.7-7.5,4-13.4,4L2153.4,1924.8z M2153.4,1919.3h12.1c3.6,0,6.4-0.8,8.3-2.6s2.9-4.2,2.9-7.4c0.1-2.7-0.9-5.4-2.9-7.3
		c-2.2-1.9-5-2.9-7.9-2.8h-12.5V1919.3z"/>
	<path class="st5" d="M2199.3,1944.8h-6.8v-51.2h6.8V1944.8z"/>
	<path class="st5" d="M2226.8,1922c-5.8-1.7-10-3.7-12.6-6.1c-2.6-2.3-4-5.6-4-9c-0.1-3.9,1.7-7.6,4.8-10c3.2-2.6,7.4-4,12.6-4
		c3.2-0.1,6.5,0.6,9.4,2c2.6,1.2,4.8,3.2,6.4,5.6c1.5,2.3,2.3,5.1,2.3,7.8h-6.8c0.1-2.8-0.9-5.4-3-7.3c-2-1.8-4.7-2.7-8.3-2.7
		c-3.3,0-5.9,0.7-7.8,2.2c-1.9,1.5-2.9,3.7-2.8,6.1c0,2.1,1,4.1,2.7,5.3c1.8,1.4,4.8,2.8,9,4c3.5,0.9,6.9,2.2,10,4
		c2.2,1.2,4,2.9,5.3,5c1.2,2.1,1.8,4.4,1.8,6.8c0.1,3.9-1.7,7.7-4.9,10c-3.2,2.5-7.6,3.7-13,3.7c-3.4,0-6.7-0.6-9.8-2
		c-2.8-1.2-5.2-3.1-7-5.5c-1.7-2.3-2.5-5.1-2.5-8h6.8c-0.1,2.9,1.2,5.6,3.4,7.3c2.3,1.8,5.3,2.7,9.2,2.7c3.6,0,6.3-0.7,8.2-2.2
		c1.9-1.4,2.9-3.6,2.8-5.9c0.1-2.3-0.9-4.4-2.6-5.8C2234.6,1924.7,2231.4,1923.3,2226.8,1922z"/>
</g>
<g id="a59a0289-5531-49fb-ba4b-9e8201e34e15">
	<path class="st11" d="M2641.7,1419.1v14.2c0,12.5-31.1,22.7-69.4,22.7s-69.4-10.2-69.4-22.7v-14.2c0-12.5,31.1-22.6,69.4-22.6
		S2641.7,1406.6,2641.7,1419.1z M2641.7,1451v31.8c0,12.5-31.1,22.7-69.4,22.7s-69.4-10.2-69.4-22.7V1451c14.9,10.3,42.2,15,69.4,15
		S2626.8,1461.2,2641.7,1451L2641.7,1451z M2641.7,1500.5v31.8c0,12.5-31.1,22.7-69.4,22.7s-69.4-10.2-69.4-22.7v-31.8
		c14.9,10.3,42.2,15,69.4,15S2626.8,1510.8,2641.7,1500.5z"/>
	<g>
		<defs>
			
				<rect id="SVGID_7_" x="2516.5" y="1458.7" transform="matrix(0.7569 -0.6536 0.6536 0.7569 -364.7093 2087.0405)" width="212.8" height="150"/>
		</defs>
		<clipPath id="SVGID_8_">
			<use xlink:href="#SVGID_7_"  style="overflow:visible;"/>
		</clipPath>
		<g class="st12">
			<path class="st4" d="M2641.7,1419.1v14.2c0,12.5-31.1,22.7-69.4,22.7s-69.4-10.2-69.4-22.7v-14.2c0-12.5,31.1-22.6,69.4-22.6
				S2641.7,1406.6,2641.7,1419.1z M2641.7,1451v31.8c0,12.5-31.1,22.7-69.4,22.7s-69.4-10.2-69.4-22.7V1451
				c14.9,10.3,42.2,15,69.4,15S2626.8,1461.2,2641.7,1451L2641.7,1451z M2641.7,1500.5v31.8c0,12.5-31.1,22.7-69.4,22.7
				s-69.4-10.2-69.4-22.7v-31.8c14.9,10.3,42.2,15,69.4,15S2626.8,1510.8,2641.7,1500.5z"/>
		</g>
	</g>
	<path class="st5" d="M2384.4,1676.6v-51.2h14.5c4.1-0.1,8.2,0.9,11.8,2.9c3.4,2,6.2,4.9,7.9,8.4c1.9,3.9,2.9,8.2,2.8,12.5v3.3
		c0.1,4.4-0.9,8.7-2.8,12.7c-1.8,3.5-4.6,6.4-8,8.4c-3.7,2-7.9,3-12.1,3L2384.4,1676.6z M2391.2,1630.9v40.1h7.1
		c5.2,0,9.3-1.6,12.1-4.8s4.3-7.8,4.3-13.8v-3c0-5.8-1.4-10.3-4.1-13.6s-6.6-4.9-11.6-4.9L2391.2,1630.9z"/>
	<path class="st5" d="M2459.2,1663.2h-21.4l-4.8,13.4h-7l19.6-51.2h5.9l19.6,51.2h-6.9L2459.2,1663.2z M2439.8,1657.7h17.4
		l-8.7-23.9L2439.8,1657.7z"/>
	<path class="st5" d="M2508.7,1630.9h-16.4v45.7h-6.7v-45.7h-16.4v-5.5h39.6V1630.9z"/>
	<path class="st5" d="M2541.8,1663.2h-21.4l-4.8,13.4h-7l19.6-51.2h5.9l19.6,51.2h-6.9L2541.8,1663.2z M2522.4,1657.7h17.4
		l-8.7-23.9L2522.4,1657.7z"/>
	<path class="st5" d="M2560.5,1676.6v-51.2h16.7c5.6,0,9.7,1.1,12.5,3.4c2.8,2.3,4.2,5.7,4.2,10.2c0,2.3-0.7,4.5-2,6.3
		c-1.4,1.9-3.4,3.4-5.6,4.3c2.6,0.7,4.9,2.2,6.6,4.4c1.6,2.2,2.5,5,2.4,7.8c0,4.6-1.5,8.2-4.5,10.8c-3,2.6-7.2,3.9-12.6,3.9
		L2560.5,1676.6z M2567.2,1647.2h10.2c2.5,0.1,5.1-0.7,7.1-2.2c1.8-1.5,2.7-3.7,2.7-6c0-2.8-0.8-4.9-2.5-6.1
		c-1.6-1.3-4.1-1.9-7.5-1.9h-10L2567.2,1647.2z M2567.2,1652.7v18.4h11.1c2.7,0.2,5.4-0.7,7.4-2.4c1.9-1.7,2.9-4.2,2.7-6.7
		c0-6.2-3.3-9.3-10-9.2L2567.2,1652.7z"/>
	<path class="st5" d="M2633.6,1663.2h-21.5l-4.8,13.4h-7l19.6-51.2h5.9l19.6,51.2h-6.9L2633.6,1663.2z M2614.2,1657.7h17.4
		l-8.7-23.9L2614.2,1657.7z"/>
	<path class="st5" d="M2667.4,1653.8c-5.8-1.7-10-3.7-12.6-6.1c-2.6-2.3-4.1-5.6-4-9c-0.1-3.9,1.7-7.6,4.8-10c3.2-2.7,7.4-4,12.6-4
		c3.2-0.1,6.5,0.6,9.4,2c2.6,1.2,4.8,3.2,6.4,5.6c1.5,2.3,2.3,5.1,2.3,7.8h-6.8c0.1-2.8-1-5.4-3-7.3c-2-1.8-4.8-2.7-8.3-2.7
		c-3.3,0-5.9,0.7-7.8,2.2c-1.9,1.5-2.9,3.7-2.8,6.1c0,2.1,1,4.1,2.7,5.3c1.8,1.5,4.8,2.8,9,4c3.5,0.9,6.9,2.2,10,4
		c2.2,1.2,4,2.9,5.3,5c1.2,2.1,1.8,4.4,1.7,6.8c0.1,3.9-1.7,7.7-4.8,10c-3.2,2.5-7.6,3.8-13,3.8c-3.4,0-6.7-0.7-9.8-2
		c-2.8-1.2-5.2-3.1-7-5.5c-1.6-2.3-2.5-5.1-2.5-8h6.8c-0.1,2.9,1.2,5.6,3.4,7.3c2.3,1.8,5.3,2.7,9.2,2.7c3.6,0,6.3-0.7,8.2-2.2
		c1.9-1.4,2.9-3.6,2.9-5.9c0.1-2.3-0.9-4.4-2.6-5.8C2675.1,1656.5,2672,1655.1,2667.4,1653.8z"/>
	<path class="st5" d="M2723.9,1652.9h-22.2v18.1h25.8v5.5H2695v-51.2h32.2v5.5h-25.4v16.5h22.2L2723.9,1652.9z"/>
	<path class="st5" d="M2751,1653.8c-5.8-1.7-10-3.7-12.6-6.1c-2.6-2.3-4.1-5.6-4-9c-0.1-3.9,1.7-7.6,4.8-10c3.2-2.7,7.4-4,12.6-4
		c3.2-0.1,6.5,0.6,9.4,2c2.6,1.2,4.8,3.2,6.4,5.6c1.5,2.3,2.3,5.1,2.3,7.8h-6.8c0.1-2.8-0.9-5.4-2.9-7.3c-2-1.8-4.8-2.7-8.3-2.7
		c-3.3,0-5.9,0.7-7.8,2.2c-1.9,1.5-2.9,3.7-2.8,6.1c0,2.1,1,4.1,2.7,5.3c1.8,1.5,4.8,2.8,9,4c3.5,0.9,6.9,2.2,10,4
		c2.2,1.2,4,2.9,5.3,5c1.2,2.1,1.8,4.4,1.7,6.8c0.1,3.9-1.7,7.7-4.9,10c-3.2,2.5-7.6,3.8-13,3.8c-3.4,0-6.7-0.7-9.8-2
		c-2.8-1.2-5.2-3.1-7-5.5c-1.6-2.3-2.5-5.1-2.5-8h6.8c-0.1,2.9,1.2,5.6,3.4,7.3c2.3,1.8,5.3,2.7,9.2,2.7c3.6,0,6.3-0.7,8.2-2.2
		c1.9-1.4,2.9-3.6,2.9-5.9c0.1-2.3-0.9-4.4-2.6-5.8C2758.8,1656.5,2755.6,1655.1,2751,1653.8z"/>
</g>
<g id="a3b2f115-8893-45de-9d9c-ccc22c33fc58">
	<path class="st13" d="M2673.7,570.7H2597c-0.2,6.3-4.7,10.1-10.4,10.1h-19.2c-5.9,0-10.5-5.5-10.4-10.1h-75.7
		c-2.8,0-5.1,2.3-5.1,5.1v5.1c0,11.2,9.1,20.2,20.2,20.2h162.1c11.2,0,20.2-9.1,20.3-20.3v-5.1
		C2678.8,572.9,2676.5,570.7,2673.7,570.7z M2658.5,454.2c0-8.4-6.8-15.1-15.2-15.2h-131.7c-8.4,0-15.2,6.8-15.2,15.2v106.3h162.1
		V454.2z M2638.3,540.3h-121.6v-81h121.6V540.3z"/>
	<g>
		<defs>
			
				<rect id="SVGID_9_" x="2490.6" y="489.4" transform="matrix(0.7436 -0.6686 0.6686 0.7436 297.451 1904.5868)" width="283" height="150"/>
		</defs>
		<clipPath id="SVGID_10_">
			<use xlink:href="#SVGID_9_"  style="overflow:visible;"/>
		</clipPath>
		<g class="st14">
			<path class="st4" d="M2673.7,570.6H2597c-0.2,6.3-4.7,10.1-10.4,10.1h-19.2c-5.9,0-10.4-5.5-10.4-10.1h-75.7
				c-2.8,0-5.1,2.3-5.1,5.1v5.1c0,11.2,9.1,20.2,20.2,20.2h162.1c11.2,0,20.2-9.1,20.3-20.3v-5.1
				C2678.8,572.9,2676.5,570.7,2673.7,570.6z M2658.5,454.2c0-8.4-6.8-15.1-15.2-15.2h-131.7c-8.4,0-15.2,6.8-15.2,15.2v106.3h162.1
				V454.2z M2638.3,540.3h-121.6v-81h121.6V540.3z"/>
		</g>
	</g>
	<path class="st5" d="M2330.6,399.6v-51.2h14.5c4.1-0.1,8.2,0.9,11.8,3c3.4,2,6.2,4.9,7.9,8.4c1.9,3.9,2.9,8.2,2.8,12.5v3.3
		c0.1,4.4-0.9,8.7-2.8,12.7c-1.8,3.5-4.6,6.4-8,8.4c-3.7,2-7.9,3-12.1,3L2330.6,399.6z M2337.4,353.9v40.1h7.1
		c5.2,0,9.3-1.6,12.1-4.9s4.3-7.8,4.3-13.8v-3c0-5.8-1.4-10.3-4.1-13.6s-6.6-4.9-11.6-4.9L2337.4,353.9z"/>
	<path class="st5" d="M2406.8,375.9h-22.2v18.1h25.8v5.5h-32.5v-51.2h32.1v5.5h-25.4v16.5h22.2L2406.8,375.9z"/>
	<path class="st5" d="M2433.9,376.8c-5.8-1.7-10-3.7-12.6-6.1c-2.6-2.3-4.1-5.6-4-9c-0.1-3.9,1.7-7.6,4.8-10c3.2-2.7,7.4-4,12.6-4
		c3.2-0.1,6.5,0.6,9.4,2c2.6,1.2,4.8,3.2,6.4,5.6c1.5,2.3,2.3,5.1,2.3,7.8h-6.7c0.1-2.8-1-5.4-3-7.3c-2-1.8-4.7-2.7-8.3-2.7
		c-3.3,0-5.9,0.7-7.8,2.2c-1.9,1.5-2.9,3.7-2.8,6.1c0,2.1,1,4.1,2.7,5.3c1.8,1.5,4.8,2.8,9,4c3.5,0.9,6.9,2.2,10,4
		c2.2,1.2,4,2.9,5.3,5c1.2,2.1,1.8,4.4,1.7,6.8c0.1,3.9-1.7,7.7-4.9,10c-3.2,2.5-7.6,3.7-13,3.8c-3.4,0-6.7-0.7-9.8-2
		c-2.8-1.2-5.2-3.1-7-5.5c-1.6-2.3-2.5-5.1-2.5-8h6.8c-0.1,2.9,1.2,5.6,3.4,7.3c2.3,1.8,5.3,2.7,9.2,2.7c3.6,0,6.3-0.7,8.2-2.2
		c1.9-1.4,2.9-3.6,2.9-5.9c0.1-2.3-0.9-4.4-2.6-5.8C2441.7,379.5,2438.5,378.1,2433.9,376.8z"/>
	<path class="st5" d="M2474.5,375.8l-6.3,6.5v17.3h-6.8v-51.2h6.8v25.3l22.8-25.3h8.2L2479,371l21.7,28.6h-8.1L2474.5,375.8z"/>
	<path class="st5" d="M2542,353.9h-16.4v45.7h-6.7v-45.7h-16.4v-5.5h39.6V353.9z"/>
	<path class="st5" d="M2588,375.6c0.1,4.5-0.8,9-2.5,13.1c-1.5,3.5-4,6.5-7.2,8.6c-9.2,5.9-21.4,3.3-27.4-5.8
		c-0.6-0.8-1-1.7-1.5-2.7c-1.8-4-2.7-8.4-2.7-12.7v-3.7c-0.1-4.5,0.8-8.9,2.6-13c3-7.2,10.2-11.9,18-11.7c3.8-0.1,7.6,1,10.8,3
		c3.2,2.1,5.7,5.1,7.2,8.6c1.8,4.1,2.6,8.6,2.5,13.1V375.6z M2581.3,372.4c0-6.1-1.2-10.7-3.7-14c-4.5-5.6-12.7-6.5-18.3-2
		c-0.7,0.6-1.4,1.3-2,2c-2.4,3.3-3.7,7.8-3.8,13.5v3.8c0,5.9,1.2,10.5,3.7,13.9c4.4,5.7,12.6,6.7,18.2,2.3c0.8-0.6,1.5-1.3,2.1-2
		c2.4-3.2,3.6-7.7,3.7-13.7L2581.3,372.4z"/>
	<path class="st5" d="M2604.9,379.5v20h-6.8v-51.1h18.9c5.6,0,10,1.4,13.2,4.3c3.2,2.9,4.9,7,4.8,11.4c0,5-1.6,8.8-4.7,11.5
		s-7.6,4-13.3,4L2604.9,379.5z M2604.9,374h12.1c3.6,0,6.4-0.9,8.3-2.6s2.9-4.2,2.9-7.4c0.1-2.7-0.9-5.4-2.9-7.3
		c-2.2-1.9-5-2.9-7.9-2.9h-12.5V374z"/>
	<path class="st5" d="M2689.6,386.2h-21.4l-4.8,13.4h-7l19.6-51.2h5.9l19.6,51.2h-6.9L2689.6,386.2z M2670.2,380.7h17.4l-8.7-23.9
		L2670.2,380.7z"/>
	<path class="st5" d="M2715.1,379.5v20h-6.8v-51.1h18.9c5.6,0,10,1.4,13.2,4.3c3.2,2.9,4.9,7,4.8,11.4c0,5-1.6,8.8-4.7,11.5
		s-7.6,4-13.3,4L2715.1,379.5z M2715.1,374h12.1c3.6,0,6.4-0.9,8.3-2.6s2.9-4.2,2.9-7.4c0.1-2.7-0.9-5.4-2.9-7.3
		c-2.2-1.9-5-2.9-7.9-2.9h-12.5V374z"/>
	<path class="st5" d="M2760.5,379.5v20h-6.8v-51.1h18.9c5.6,0,10,1.4,13.2,4.3c3.2,2.9,4.9,7,4.8,11.4c0,5-1.6,8.8-4.7,11.5
		c-3.1,2.7-7.6,4-13.3,4L2760.5,379.5z M2760.5,374h12.1c3.6,0,6.4-0.9,8.3-2.6c1.9-1.7,2.9-4.2,2.9-7.4c0.1-2.7-0.9-5.4-2.9-7.3
		c-2.2-1.9-5-2.9-7.9-2.9h-12.5V374z"/>
	<path class="st5" d="M2814.3,376.8c-5.8-1.7-10-3.7-12.6-6.1c-2.6-2.3-4-5.6-4-9c-0.1-3.9,1.7-7.6,4.8-10c3.2-2.7,7.4-4,12.6-4
		c3.2-0.1,6.5,0.6,9.4,2c2.6,1.2,4.8,3.2,6.4,5.6c1.5,2.3,2.3,5.1,2.3,7.8h-6.8c0.1-2.8-1-5.4-3-7.3c-2-1.8-4.7-2.7-8.3-2.7
		c-3.3,0-5.9,0.7-7.8,2.2c-1.9,1.5-2.9,3.7-2.8,6.1c0,2.1,1,4.1,2.7,5.3c1.8,1.5,4.8,2.8,9,4c3.5,0.9,6.9,2.2,10,4
		c2.2,1.2,4,2.9,5.3,5c1.2,2.1,1.8,4.4,1.7,6.8c0.1,3.9-1.7,7.7-4.9,10c-3.2,2.5-7.6,3.7-13,3.8c-3.4,0-6.7-0.7-9.8-2
		c-2.8-1.2-5.2-3.1-7-5.5c-1.7-2.3-2.5-5.1-2.5-8h6.8c-0.1,2.9,1.2,5.6,3.4,7.3c2.3,1.8,5.3,2.7,9.2,2.7c3.6,0,6.3-0.7,8.2-2.2
		c1.9-1.4,2.9-3.6,2.8-5.9c0.1-2.3-0.9-4.4-2.6-5.8C2822.1,379.5,2818.9,378.1,2814.3,376.8z"/>
</g>
<g id="ac23b6b8-06a4-49e5-acab-7da1b7784d7b">
	<path class="st15" d="M2038,158.6h-76c-9,0-16.3,7.3-16.3,16.3v141.2c0,9,7.3,16.3,16.3,16.3h76c9,0,16.3-7.3,16.3-16.3v0V174.9
		C2054.3,165.9,2047,158.6,2038,158.6L2038,158.6z M2000,321.5c-6,0-10.9-4.9-10.9-10.9c0-6,4.9-10.9,10.9-10.9s10.9,4.9,10.9,10.9
		v0C2010.9,316.6,2006,321.5,2000,321.5C2000,321.5,2000,321.5,2000,321.5z"/>
	<g>
		<defs>
			
				<rect id="SVGID_11_" x="1955.3" y="208.4" transform="matrix(0.4983 -0.867 0.867 0.4983 791.7575 1935.4835)" width="225.8" height="150.5"/>
		</defs>
		<clipPath id="SVGID_12_">
			<use xlink:href="#SVGID_11_"  style="overflow:visible;"/>
		</clipPath>
		<g class="st16">
			<path class="st17" d="M2038,158.1h-76c-9,0-16.3,7.3-16.3,16.3v141.2c0,9,7.3,16.3,16.3,16.3h76c9,0,16.3-7.3,16.3-16.3v0V174.4
				C2054.3,165.4,2047,158.1,2038,158.1L2038,158.1z M2000,321c-6,0-10.9-4.9-10.9-10.9s4.9-10.9,10.9-10.9s10.9,4.9,10.9,10.9v0
				C2010.9,316.1,2006,321,2000,321C2000,321,2000,321,2000,321z"/>
		</g>
	</g>
	<path class="st5" d="M1788.8,62.4l16.7,41.8l16.7-41.8h8.8v51.2h-6.8V93.7l0.6-21.5l-16.8,41.4h-5.2l-16.8-41.3l0.7,21.4v19.9h-6.8
		V62.4H1788.8z"/>
	<path class="st5" d="M1882.3,89.7c0.1,4.5-0.8,9-2.5,13.1c-1.5,3.5-4,6.5-7.2,8.6c-3.2,2-7,3.1-10.8,3c-7.8,0.2-14.9-4.3-18-11.4
		c-1.8-4-2.7-8.4-2.7-12.8v-3.7c-0.1-4.5,0.8-8.9,2.6-13c3-7.2,10.2-11.9,18-11.7c3.8-0.1,7.6,1,10.8,3c3.2,2.1,5.7,5.1,7.2,8.6
		c1.8,4.1,2.6,8.6,2.5,13.1L1882.3,89.7z M1875.6,86.4c0-6.1-1.2-10.7-3.7-14c-2.4-3.2-6.2-5-10.2-4.9c-4-0.2-7.7,1.7-10.1,4.9
		c-2.5,3.2-3.7,7.7-3.8,13.5v3.8c0,5.9,1.2,10.5,3.7,13.9c4.4,5.7,12.6,6.7,18.2,2.3c0.8-0.6,1.5-1.3,2.1-2
		c2.4-3.2,3.6-7.7,3.7-13.7V86.4z"/>
	<path class="st5" d="M1892.4,113.6V62.4h16.7c5.6,0,9.7,1.1,12.5,3.4c2.8,2.3,4.2,5.7,4.2,10.2c0,2.3-0.7,4.5-2,6.3
		c-1.4,1.9-3.4,3.4-5.5,4.3c2.6,0.7,4.9,2.2,6.6,4.4c1.6,2.3,2.5,5,2.4,7.8c0,4.6-1.5,8.2-4.5,10.8c-3,2.6-7.2,3.9-12.6,3.9
		L1892.4,113.6z M1899.2,84.2h10.2c2.6,0.1,5.1-0.7,7.1-2.2c1.8-1.5,2.8-3.7,2.7-6c0-2.8-0.8-4.9-2.5-6.2c-1.6-1.3-4.1-1.9-7.5-1.9
		h-10L1899.2,84.2z M1899.2,89.7v18.4h11.2c2.7,0.2,5.4-0.7,7.4-2.4c1.9-1.7,2.9-4.2,2.7-6.7c0-6.2-3.4-9.2-10.1-9.2H1899.2z"/>
	<path class="st5" d="M1944.5,113.6h-6.8V62.4h6.8V113.6z"/>
	<path class="st5" d="M1963.6,108.1h24.2v5.5h-31V62.4h6.8L1963.6,108.1z"/>
	<path class="st5" d="M2024.5,89.9h-22.2v18.1h25.8v5.5h-32.5V62.4h32.2v5.5h-25.4v16.5h22.2V89.9z"/>
	<path class="st5" d="M2082.6,100.2h-21.4l-4.8,13.4h-7l19.6-51.2h5.9l19.6,51.2h-6.9L2082.6,100.2z M2063.2,94.7h17.4l-8.7-23.9
		L2063.2,94.7z"/>
	<path class="st5" d="M2108,93.6v20h-6.8V62.4h18.9c5.6,0,10,1.4,13.2,4.3c3.2,2.9,4.9,7,4.8,11.3c0,5-1.6,8.8-4.7,11.5
		c-3.1,2.7-7.6,4-13.3,4L2108,93.6z M2108,88h12.1c3.6,0,6.4-0.8,8.3-2.6c1.9-1.7,2.9-4.2,2.9-7.4c0.1-2.7-0.9-5.4-2.9-7.3
		c-2.2-1.9-5-2.9-7.9-2.8H2108V88z"/>
	<path class="st5" d="M2153.4,93.6v20h-6.8V62.4h18.9c5.6,0,10,1.4,13.2,4.3c3.2,2.9,4.9,7,4.8,11.3c0,5-1.6,8.8-4.7,11.5
		c-3.1,2.7-7.6,4-13.3,4L2153.4,93.6z M2153.4,88h12.1c3.6,0,6.4-0.8,8.3-2.6c1.9-1.7,2.9-4.2,2.9-7.4c0.1-2.7-0.9-5.4-2.9-7.3
		c-2.2-1.9-5-2.9-7.9-2.8h-12.5V88z"/>
	<path class="st5" d="M2207.2,90.8c-5.8-1.7-10-3.7-12.6-6.1c-2.6-2.3-4-5.6-4-9c-0.1-3.9,1.7-7.6,4.8-10c3.2-2.7,7.4-4,12.6-4
		c3.2-0.1,6.5,0.6,9.4,2c2.6,1.2,4.8,3.2,6.4,5.6c1.5,2.3,2.3,5.1,2.3,7.8h-6.8c0.1-2.8-1-5.4-3-7.3c-2-1.8-4.7-2.7-8.3-2.7
		c-3.3,0-5.9,0.7-7.8,2.2c-1.9,1.5-2.9,3.7-2.8,6.1c0,2.1,1,4.1,2.6,5.3c1.8,1.4,4.8,2.8,9,4c3.5,0.9,6.9,2.2,10,4
		c2.2,1.2,4,2.9,5.4,5c1.2,2.1,1.8,4.4,1.7,6.8c0.1,3.9-1.7,7.7-4.8,10c-3.2,2.5-7.6,3.7-13,3.7c-3.4,0-6.7-0.6-9.8-2
		c-2.8-1.2-5.2-3.1-7-5.5c-1.7-2.3-2.5-5.1-2.5-8h6.8c-0.1,2.9,1.2,5.6,3.4,7.3c2.3,1.8,5.3,2.7,9.2,2.7c3.6,0,6.3-0.7,8.2-2.2
		c1.9-1.4,2.9-3.6,2.8-5.9c0.1-2.3-0.9-4.4-2.6-5.8C2215,93.5,2211.8,92.1,2207.2,90.8z"/>
</g>
<g id="ea44fd35-013e-4c34-91d8-30cb9983eb9c">
	<path class="st18" d="M2243.5,1078c-4.5-2.6-9.3-4.5-14.3-5.7V927.7c29.2-6.9,47.2-36.2,40.3-65.4c-6.9-29.2-36.2-47.2-65.4-40.3
		c-10.3,2.5-19.7,7.9-27,15.6L2052,765.5c8.5-28.7-7.8-58.9-36.6-67.4s-58.9,7.8-67.4,36.6c-3,10-3,20.7,0,30.8l-125.2,72.3
		c-20.6-21.8-54.9-22.7-76.7-2.1c-21.8,20.6-22.7,54.9-2.1,76.7c7.2,7.7,16.6,13,26.8,15.5v144.6c-29.1,7-47.1,36.3-40.1,65.5
		s36.3,47.1,65.5,40.1c5.1-1.2,10-3.2,14.5-5.8c4.5-2.6,8.6-5.8,12.1-9.6l125.2,72.3c-8.5,28.7,8,58.9,36.7,67.4
		c28.7,8.5,58.9-8,67.4-36.7c3.1-10.6,2.9-21.9-0.5-32.4l124.4-71.8c19.9,22.4,54.2,24.3,76.6,4.4c22.4-19.9,24.3-54.2,4.4-76.6
		C2253.1,1084.6,2248.6,1080.9,2243.5,1078L2243.5,1078z M2000,888.5c61.9,0,112,50.1,112.1,111.9c0,52.5-36.4,97.9-87.6,109.4
		c0.2-3.4,0.6-6.7,1-10.1c1.7-12.3,4.3-24.5,7.9-36.4c3-10,6.5-20,10.2-29.8c0.6-1.5,1.1-3,1.7-4.5c1.6,1.5,3.6,2.6,5.7,3.3
		c1.7,0.4,3.4,0.8,5.1,1c1.6,0.4,3.2,0.9,4.7,1.6c6.4,2.4,13.4,1.2,19.9-0.2c5.9-1.3,12.2-3.7,15.3-9.3c1.6-2.8,1.7-6,1.9-9.1
		c0.1-2.4,0.2-6.4,3-7.4c1.4-0.4,2.2-1.9,1.8-3.4c-0.2-0.6-0.6-1.2-1.1-1.5c-8.4-5-20.7-0.3-27.8,5c-4.1,3-6.9,6.8-10,10.8
		c-2.2,2.8-7.9,5.5-11.4,3.7c-1.4-0.8-2.3-2.2-2.6-3.8c-0.6-2.8,0.6-4.5,1.5-7.1c0.9-2.9,1.6-5.9,2.2-8.8c1.3-6.8,2-13.7,1.9-20.6
		c-1.7-0.2-7-1-8.4-1v0.2c-1.2,3.8-1.2,8-3,11.5c-0.7,1.5-1.8,2.9-3.2,3.8c-3.4,1.8-18.3,2.2-21.6,0.5c-4.8-2.5-8.4-15.5-8.4-15.9
		h-9.6c0,0.4-3.6,13.4-8.4,15.9c-3.3,1.7-18.2,1.3-21.6-0.5c-1.4-0.9-2.5-2.2-3.2-3.8c-1.8-3.5-1.8-7.8-3-11.5c0,0,0-0.1,0-0.2
		c-1.2,0-7.9,0.8-7.9,0.8c-1.1,7.4-1.5,14.9-1.2,22.3c0.1,2.4,1.5,7.2,0.7,9.4c-0.6,1.6-3.8,2.8-5.3,3.3c-4.7,1.6-9.8,0.6-13.5-2.6
		c-4.1-3.6-7.4-7-12.7-8.9c-9.8-3.4-20.7-0.7-27.8,6.8c-1,1-1,2.7,0,3.7c0.1,0.1,0.2,0.2,0.4,0.3c0.6,0.7,1.6,0.9,2.5,0.6
		c2.4-0.8,4.2,1.9,5.7,3.5l5.5,6c2.9,3.2,5.7,7.2,9.7,9s8.6,1.9,12.7,1.7c2.5,0,5-0.7,7.2-2c1.7-0.8,3.3-1.8,4.9-2.8
		c2.3-1.2,4.4-2.7,6.5-4.2c1.2-1,3.2-5.3,5-4.8c1.7,0.5,2.3,5.6,2.5,6.9c2.7,15.3,5.5,30.6,10.4,45.4c4,12.1,8.4,24.2,15.3,35
		c-61.3-8.2-104.3-64.6-96.1-125.9C1896.6,930,1944,888.6,2000,888.5L2000,888.5z M1798.7,1073c-0.7-0.2-1.4-0.4-2.1-0.6V927.6
		c29-7.2,46.7-36.5,39.5-65.5c-0.2-0.7-0.3-1.3-0.5-2l125.4-72.4c0.5,0.5,1,1,1.5,1.5L1798.7,1073z M2040.1,1213.6
		c-20.2-22.1-54.6-23.7-76.7-3.5c-0.8,0.8-1.7,1.6-2.5,2.4l-125.2-72.3c0.2-0.7,0.4-1.4,0.6-2.1h327.5c0.3,1.2,0.6,2.4,1,3.6
		L2040.1,1213.6z M2203.4,1072.4c-0.7,0.2-1.4,0.4-2.1,0.6l-163.8-283.8c0.5-0.5,1-1,1.4-1.4l125.5,72.4
		c-8.2,28.7,8.4,58.7,37.1,66.9c0.6,0.2,1.3,0.3,1.9,0.5L2203.4,1072.4z"/>
	<path class="st18" d="M1956.9,966.3c1.2,0.1,2.3,0.2,3.5,0.2c-0.8,2.7-2.2,8.8-2.2,8.8s15.3-0.6,20.8-0.7
		c7.7-0.1,15.5,0.1,23.2,0.5c1.6,0.1,6.3,0,7.1,0c7.7-0.4,15.4-0.5,23.2-0.5c6,0.1,22.3,0.7,22.3,0.7s-0.4-4.3-0.7-6.2
		c1.9,0,3.8-0.3,4.8-1.5c1.8-2.1,1.3-6.5,1-9c-1.1-10-7.9-18.5-17.4-21.8c1-2.2,1.6-4.6,1.7-7.1c0.1-1.7-0.3-3.5-1.2-5
		c-3-5.2-10-7.8-14.9-8.9c0.3-3.1-0.1-6.2-1.4-9.1c-1.6-3.8-5.3-9.5-9.6-10.5c-4.7-1.1-8.1,4.7-10.6,8.2c-0.2-0.3-2.4-5.2-4.2-6.2
		s-3.7-0.6-5.5,0c-3.2,1-6.8,4.2-4.2,7.7c1.2,1.6,5.2,4.3,5.4,4.6c-3.1,1.5-6.6,1.9-9.9,2.8c-0.9,0.2-1.8,0.5-2.7,0.8
		c-3.4,1.2-6.4,3.2-8.7,5.9c-2.8,3.5-4.1,8.2-2.3,12.4c-5,3.6-9.4,8.1-12.9,13.2c-3.8,5.5-8.3,11.8-7,18.8
		C1954.7,965.4,1955.7,966.2,1956.9,966.3z"/>
	<g>
		<defs>
			<rect id="SVGID_13_" x="2000" y="689.5" width="304" height="621"/>
		</defs>
		<clipPath id="SVGID_14_">
			<use xlink:href="#SVGID_13_"  style="overflow:visible;"/>
		</clipPath>
		<g class="st19">
			<g class="st20">
				<path d="M2243.5,1078c-4.5-2.6-9.3-4.5-14.3-5.7V927.7c29.2-6.9,47.2-36.2,40.3-65.4c-6.9-29.2-36.2-47.2-65.4-40.3
					c-10.3,2.5-19.7,7.9-27,15.6L2052,765.5c8.5-28.7-7.8-58.9-36.6-67.4s-58.9,7.8-67.4,36.6c-3,10-3,20.7,0,30.8l-125.2,72.3
					c-20.6-21.8-54.9-22.7-76.7-2.1c-21.8,20.6-22.7,54.9-2.1,76.7c7.2,7.7,16.6,13,26.8,15.5v144.6c-29.1,7-47.1,36.3-40.1,65.5
					s36.3,47.1,65.5,40.1c5.1-1.2,10-3.2,14.5-5.8c4.5-2.6,8.6-5.8,12.1-9.6l125.2,72.3c-8.5,28.7,8,58.9,36.7,67.4
					c28.7,8.5,58.9-8,67.4-36.7c3.1-10.6,2.9-21.9-0.5-32.4l124.4-71.8c19.9,22.4,54.2,24.3,76.6,4.4c22.4-19.9,24.3-54.2,4.4-76.6
					C2253.1,1084.6,2248.6,1080.9,2243.5,1078L2243.5,1078z M2000,888.5c61.9,0,112,50.1,112.1,111.9c0,52.5-36.4,97.9-87.6,109.4
					c0.2-3.4,0.6-6.7,1-10.1c1.7-12.3,4.3-24.5,7.9-36.4c3-10,6.5-20,10.2-29.8c0.6-1.5,1.1-3,1.7-4.5c1.6,1.5,3.6,2.6,5.7,3.3
					c1.7,0.4,3.4,0.8,5.1,1c1.6,0.4,3.2,0.9,4.7,1.6c6.4,2.4,13.4,1.2,19.9-0.2c5.9-1.3,12.2-3.7,15.3-9.3c1.6-2.8,1.7-6,1.9-9.1
					c0.1-2.4,0.2-6.4,3-7.4c1.4-0.4,2.2-1.9,1.8-3.4c-0.2-0.6-0.6-1.2-1.1-1.5c-8.4-5-20.7-0.3-27.8,5c-4.1,3-6.9,6.8-10,10.8
					c-2.2,2.8-7.9,5.5-11.4,3.7c-1.4-0.8-2.3-2.2-2.6-3.8c-0.6-2.8,0.6-4.5,1.5-7.1c0.9-2.9,1.6-5.9,2.2-8.8
					c1.3-6.8,2-13.7,1.9-20.6c-1.7-0.2-7-1-8.4-1v0.2c-1.2,3.8-1.2,8-3,11.5c-0.7,1.5-1.8,2.9-3.2,3.8c-3.4,1.8-18.3,2.2-21.6,0.5
					c-4.8-2.5-8.4-15.5-8.4-15.9h-9.6c0,0.4-3.6,13.4-8.4,15.9c-3.3,1.7-18.2,1.3-21.6-0.5c-1.4-0.9-2.5-2.2-3.2-3.8
					c-1.8-3.5-1.8-7.8-3-11.5c0,0,0-0.1,0-0.2c-1.2,0-7.9,0.8-7.9,0.8c-1.1,7.4-1.5,14.9-1.2,22.3c0.1,2.4,1.5,7.2,0.7,9.4
					c-0.6,1.6-3.8,2.8-5.3,3.3c-4.7,1.6-9.8,0.6-13.5-2.6c-4.1-3.6-7.4-7-12.7-8.9c-9.8-3.4-20.7-0.7-27.8,6.8c-1,1-1,2.7,0,3.7
					c0.1,0.1,0.2,0.2,0.4,0.3c0.6,0.7,1.6,0.9,2.5,0.6c2.4-0.8,4.2,1.9,5.7,3.5l5.5,6c2.9,3.2,5.7,7.2,9.7,9s8.6,1.9,12.7,1.7
					c2.5,0,5-0.7,7.2-2c1.7-0.8,3.3-1.8,4.9-2.8c2.3-1.2,4.4-2.7,6.5-4.2c1.2-1,3.2-5.3,5-4.8c1.7,0.5,2.3,5.6,2.5,6.9
					c2.7,15.3,5.5,30.6,10.4,45.4c4,12.1,8.4,24.2,15.3,35c-61.3-8.2-104.3-64.6-96.1-125.9C1896.6,930,1944,888.6,2000,888.5
					L2000,888.5z M1798.7,1073c-0.7-0.2-1.4-0.4-2.1-0.6V927.6c29-7.2,46.7-36.5,39.5-65.5c-0.2-0.7-0.3-1.3-0.5-2l125.4-72.4
					c0.5,0.5,1,1,1.5,1.5L1798.7,1073z M2040.1,1213.6c-20.2-22.1-54.6-23.7-76.7-3.5c-0.8,0.8-1.7,1.6-2.5,2.4l-125.2-72.3
					c0.2-0.7,0.4-1.4,0.6-2.1h327.5c0.3,1.2,0.6,2.4,1,3.6L2040.1,1213.6z M2203.4,1072.4c-0.7,0.2-1.4,0.4-2.1,0.6l-163.8-283.8
					c0.5-0.5,1-1,1.4-1.4l125.5,72.4c-8.2,28.7,8.4,58.7,37.1,66.9c0.6,0.2,1.3,0.3,1.9,0.5L2203.4,1072.4z"/>
				<path d="M1956.9,966.3c1.2,0.1,2.3,0.2,3.5,0.2c-0.8,2.7-2.2,8.8-2.2,8.8s15.3-0.6,20.8-0.7c7.7-0.1,15.5,0.1,23.2,0.5
					c1.6,0.1,6.3,0,7.1,0c7.7-0.4,15.4-0.5,23.2-0.5c6,0.1,22.3,0.7,22.3,0.7s-0.4-4.3-0.7-6.2c1.9,0,3.8-0.3,4.8-1.5
					c1.8-2.1,1.3-6.5,1-9c-1.1-10-7.9-18.5-17.4-21.8c1-2.2,1.6-4.6,1.7-7.1c0.1-1.7-0.3-3.5-1.2-5c-3-5.2-10-7.8-14.9-8.9
					c0.3-3.1-0.1-6.2-1.4-9.1c-1.6-3.8-5.3-9.5-9.6-10.5c-4.7-1.1-8.1,4.7-10.6,8.2c-0.2-0.3-2.4-5.2-4.2-6.2s-3.7-0.6-5.5,0
					c-3.2,1-6.8,4.2-4.2,7.7c1.2,1.6,5.2,4.3,5.4,4.6c-3.1,1.5-6.6,1.9-9.9,2.8c-0.9,0.2-1.8,0.5-2.7,0.8c-3.4,1.2-6.4,3.2-8.7,5.9
					c-2.8,3.5-4.1,8.2-2.3,12.4c-5,3.6-9.4,8.1-12.9,13.2c-3.8,5.5-8.3,11.8-7,18.8C1954.7,965.4,1955.7,966.2,1956.9,966.3z"/>
			</g>
		</g>
	</g>
</g>
</svg>
