<svg id="a138ddb3-643b-4bf5-9972-b741c6fdabf5" data-name="Layer 1" xmlns="http://www.w3.org/2000/svg" viewBox="0 0 1200 600"><defs><style>.b79b4a3b-fec1-4ca1-9182-6f8cfa81cbc9{fill:#a2ddf8;}.b457ab13-2892-4014-8b67-bfb004d253d5{fill:#3a8ec1;}.ba4a5f12-6be4-4e59-a6f2-8368bb7ca69a{fill:#aed6e5;}.ab9b46bc-5c27-4e74-b841-15f0ef2dee9f{fill:#8cc945;}.fd492c84-8563-494a-8d09-404763b31bfc{fill:#f9a853;}.b9738474-2dab-4531-9b60-fece378df27e{fill:#fcf0be;}.bee76c24-78fd-4d67-a675-e8bf88ccb948{fill:#81c241;}.a8bedf3c-8c7d-45c8-808c-ade15110f3c2{fill:#f8b79d;}.a2171636-d369-4e92-9c4c-94f8eb35f93a{fill:#a7d388;}.fae1c637-9f40-4694-bced-3b9cdc51e39c{fill:#40bd0f;}.e9cd2400-1c77-4575-a597-0e58bc692bbd{fill:#ffe04a;}.fae71ba0-bd72-4042-a14d-d14433ffa42e{fill:#badfe8;}.bbf671cc-e3b0-4614-85a2-a592c0381b0d{fill:#f40010;}.a7df36ee-74b0-481d-b32b-831da46e3299{fill:#ee646b;}.ac29b43c-138c-45f5-9066-ed37724fb133{fill:#fff;}.b8711631-7b1c-4d89-b59e-d5ca32a80a2c{fill:#ec1c24;}.eb376a05-1dbd-4e80-885c-ebc840bd160b{fill:#1d93ff;}.ad8624ca-6b65-4c70-ae2b-d3fb1f17bb6f{fill:#c12d8c;}.aa9d54ce-edc4-4cef-98b0-a86604deda53{fill:#fff03b;}.a5c045cb-49ff-4826-9f04-688c17c5febc{fill:#ff4a1b;}.e1103db1-6ce2-4857-ad61-47aea3371b73{fill:#cbe3ac;}.aa11fb8c-3aa6-421d-8ee1-486161eb94ea{fill:#f79850;}.a6628388-5576-44fc-aaea-8c512f4b867c{fill:#524538;}.b5bd704e-450f-4a4e-bd49-34edc8bd6fe4{fill:#d6c4b1;}</style></defs><title>green_donut_banner</title><path class="b79b4a3b-fec1-4ca1-9182-6f8cfa81cbc9" d="M697.18,109.61a251,251,0,0,1,24.62,13.72c8.32,5.24,15.23,9.54,21.25,14.34a270,270,0,0,1,36.34,36.17c5.12,6.42,10.72,13.25,15.36,20.62,3.6,5.72,6,12.09,9,18.53.73,1.53,2.05,2.78,2.78,4.3,3.51,7.28,6.23,15.24,9.26,23.9.66,1.88,1.75,3.62,2.44,5.51,1.16,3.2,2.23,6.48,3.21,9.8a19,19,0,0,0-7.41,1.36c-2.74,1.12-5.5,2.24-8.15,3.55-5.26,2.61-10.09,1.86-14.71-1.5-2.11-1.54-4.25-3.06-6.47-4.43a12.59,12.59,0,0,0-7.09-1.81,9.46,9.46,0,0,0-1.46.1,43.34,43.34,0,0,0-14,5.28,102.63,102.63,0,0,0-22.6-12.18c-13.89-5.31-27.94-9.94-42.67-12.29-1.69-.27-3.46-.41-4.84-1.69.52-5.48,1.2-10.85,1.5-16.25.22-3.74.32-7.49.36-11.24,2.82-.7,5.17-2.07,5.41-4.78.41-4.71-2.1-7.59-5.62-9.16-.1-2.51-.22-5-.31-7.46.44-.29.58-.46.73-.47.7,0,1.4,0,2.09-.05,5.89-.26,7.52-1.58,7.63-7.56a70.08,70.08,0,0,0-1-15.13,49.46,49.46,0,0,0-23.27-33.44,53.57,53.57,0,0,0-5.48-3.07c-2-.93-4.08-1.61-6.32-2.46,1.36-2,2.64-3.63,3.71-5.42a17.36,17.36,0,0,0,1.32-16.09c-.1-.27-.22-.51-.34-.77l3.44,1.22A202.26,202.26,0,0,1,697.18,109.61Z"/><path class="b79b4a3b-fec1-4ca1-9182-6f8cfa81cbc9" d="M394.61,217.5a229.54,229.54,0,0,1,12.75-22.18c.79-1.25,1.46-2.57,2.24-3.83,3.72-6,6.95-12.55,11.3-18,5.63-7,12.17-13.34,17.59-18.76a233,233,0,0,1,19.39-16.81,230.63,230.63,0,0,1,20.75-15.07A227.69,227.69,0,0,1,501,110.2c6.58-3.17,14.17-5.5,24-9,7-2.45,14-4.8,20.06-6.46a44.07,44.07,0,0,0-14.37,17.69c-3.1,6.61-2.5,13.26,1.17,19.59.69,1.18,1.47,2.31,2.29,3.58-.93,1.12-1.81,2.2-2.71,3.25a95.6,95.6,0,0,0-14.18,22,49.56,49.56,0,0,0-3.82,11.95c-1.32,7.37.73,10.43,7.91,12.13,1.14.27,2.29.46,3.72.74-.07,1.65-.14,3.29-.2,4.92-.8.22-1.59.46-2.37.75a7.37,7.37,0,0,0-3.6,2.37c-1.09,1.54-1,3.61-.76,5.48a6.88,6.88,0,0,0,1.38,3.69,4.31,4.31,0,0,0,1.62,1.11,9.7,9.7,0,0,0,3.16.62l-.06,1.65c-.26,6.95,1,13.89.37,21.31-9.9,0-19.11,2.95-28.84,4.41a32.61,32.61,0,0,1,.64-11.46,20.16,20.16,0,0,0,3.52-1.77,3.57,3.57,0,0,0,1.28-4.21,4,4,0,0,0-3.38-2.9,14.21,14.21,0,0,0-2.61-.05c-2.27.13-4.54.32-6.81.46-6.26.41-12.51.8-19.24,1.22.58-1.66,1-3,1.47-4.2,1.94-4.69,3.92-9.35,5.86-14a15.73,15.73,0,0,0,1-3,4.1,4.1,0,0,0-2.75-5,4.06,4.06,0,0,0-4.94,1.88,29.79,29.79,0,0,0-1.65,3.84q-3.45,8.77-6.91,17.56c-.44,1.1-1,2.16-1.48,3.13-.76.14-1.27.28-1.79.33-6.08.66-12.17,1.21-18.23,2-3.63.46-7.25,1.14-10.83,1.9a3.48,3.48,0,0,0-3,3.74,3.78,3.78,0,0,0,3.31,3.54c1.3.25,2.65.35,4,.52.9,7.22,2.79,13.93,3.77,21-7.28,3.05-12.88,7.14-16.17,12.66a20.69,20.69,0,0,0-9.48-1.83,26.35,26.35,0,0,0-13.89,4.06A13.33,13.33,0,0,1,385,262.75a67.17,67.17,0,0,0-6.87-1.92,197.82,197.82,0,0,1,5.53-20.07C386.52,232.69,390.84,225.3,394.61,217.5Z"/><path class="b457ab13-2892-4014-8b67-bfb004d253d5" d="M828.07,342.18c-3.28,34.11-15.73,67-33.93,95.88a224.84,224.84,0,0,1-72,72.58c-27.8,17.5-63.33,30.6-96,34.25A216.06,216.06,0,0,1,602.29,546c-1,0-1-.3-1.92-.3-7.52,0-15.62-1.08-25.55-2.19a229.9,229.9,0,0,1-25.32-3.85,248.6,248.6,0,0,1-71-28.89,227.91,227.91,0,0,1-20.64-15.25,287.21,287.21,0,0,1-36.14-36.23,240.85,240.85,0,0,1-14.93-21.39,229.17,229.17,0,0,1-12.65-22.26,213.45,213.45,0,0,1-17.06-47.91c0-.14.05-.18,0-.32a222.94,222.94,0,0,1-3.86-25.32,229,229,0,0,1-1.61-25.56A232.38,232.38,0,0,1,372.72,291c.68-6.11,1.64-14.25,3.24-22.14a24.84,24.84,0,0,1,2.72.45c1.84.54,3.66,1.15,5.47,1.78A17.16,17.16,0,0,0,396,271c2.44-.89,4.77-2.1,7.13-3.22,5.09-2.43,10.45-3.47,15.34-1.4a34.58,34.58,0,0,0-.19,10.07,43.71,43.71,0,0,1-3.39,3.15c-4.45,3.75-6.55,8.35-8.27,13.75-.47,1.5-.95,3-1.46,4.48a35.34,35.34,0,0,0,.08,22.45,3.89,3.89,0,0,0-1,1.59,65.05,65.05,0,0,0,.74,45.81c5.42,13.49,15.05,23.9,26.68,32.37,21.22,15.46,45.47,23,71.07,26.87a800.33,800.33,0,0,0,93.64,8.69c29.49,1,58.94-1.95,88-6.62,28.12-4.5,53.14-11.55,76.56-28.6,11.63-8.47,21.6-19.22,27-32.71a63.68,63.68,0,0,0,4.42-19.79,53.21,53.21,0,0,0,4.92-28.29,88,88,0,0,0-4.15-20.51c-3.78-11.25-9.45-21.36-18.31-29.53-1.91-1.76-4.2-3.45-6.18-5.09a40,40,0,0,1,7.27-2.31,7.73,7.73,0,0,1,6,1.18c1.72,1.17,3.33,2.52,5.06,3.7,6.88,4.68,14.15,5.41,21.81,2.12,3-1.31,6-2.71,9.16-3.85a8.91,8.91,0,0,1,5.9-.38c0,.09.39.52.41.61,1.79,7.86,2.23,15.87,3.3,25.45A248.65,248.65,0,0,1,828.07,342.18Z"/><path class="ba4a5f12-6be4-4e59-a6f2-8368bb7ca69a" d="M458.73,445.12c.39-1,.83-2.37,1.31-4a30.64,30.64,0,0,0,1-4.15,25.33,25.33,0,0,0,.22-3.4,18.48,18.48,0,0,0-.2-2.92c-.14-.79-.34-1.81-.62-3a5.38,5.38,0,0,0-1.82-3,9.29,9.29,0,0,0-2.69-1.67,8.85,8.85,0,0,0-2.38-.54,16.15,16.15,0,0,0-2.2,0,13.88,13.88,0,0,0-3.12.76,14.81,14.81,0,0,0-3.33,1.56,13.18,13.18,0,0,0-2.59,2.35c-.85,1-1.69,2-2.52,3.08a31.75,31.75,0,0,0-2,2.91c-.53.87-1,1.65-1.34,2.35a69,69,0,0,0-2.45,7.7,46.84,46.84,0,0,0-2,8.89,18.85,18.85,0,0,0,.16,4.26,16.47,16.47,0,0,0,.8,3.07,14.8,14.8,0,0,0,1.25,2.56c.49.81,1,1.61,1.59,2.37s1.27,1.61,2.07,2.54,1.73,1.94,2.77,3a30.11,30.11,0,0,0,4.81,3.11,4.2,4.2,0,0,0,2.39.38,3.6,3.6,0,0,0,1.62-.66,4.6,4.6,0,0,0,1.14-1.92c.37-1,.68-1.73.93-2.24l2,.29a3.23,3.23,0,0,0,1.15-2.12,6,6,0,0,0-.54-3.7,18.13,18.13,0,0,0-1.64-3,9.21,9.21,0,0,0-1.64-1.71A26.26,26.26,0,0,0,447.4,456c-1.68-.92-2.74-1.16-3.16-.77a2.68,2.68,0,0,0-.82,1.34,3.62,3.62,0,0,0-.07,1.5,4.6,4.6,0,0,0,.69,1.66,13.44,13.44,0,0,0,1.49,1.89,2.46,2.46,0,0,1,.84,1.88c-.18,1.12-.6,1.82-.93,1.88a3.71,3.71,0,0,1-1.95-.74,9.75,9.75,0,0,1-2.85-2.78,8.13,8.13,0,0,1-1.64-3.54,14,14,0,0,1-.12-3.06,16.56,16.56,0,0,1,.51-3c.27-1,.56-2,.87-2.92s.66-2,1-3.15a17.39,17.39,0,0,1,1.63-3.53,4.58,4.58,0,0,1,5.63-2.25,9.2,9.2,0,0,1,2.71,1.42,3.44,3.44,0,0,1,1.41,1.94,5.19,5.19,0,0,1-.06,2.21,2.16,2.16,0,0,0,.08,1.68,2.11,2.11,0,0,0,1.45.71,4.64,4.64,0,0,0,1.78,0,3,3,0,0,0,1.46-1A7.56,7.56,0,0,0,458.73,445.12Z"/><path class="ba4a5f12-6be4-4e59-a6f2-8368bb7ca69a" d="M484.23,450.89a8.14,8.14,0,0,0-4.62.15c-1.47.4-2.9.85-4.27,1.33-1,.65-2.09,1.28-3.14,1.89q.81-4.81,1.62-9.69c-.69-3.61-1.64-5.28-2.86-5.09s-2.35,1.13-3.36,2.81-2.12,4.95-3.31,9.71-2.65,9.4-3.73,13.53c-2.18,8.39-2.46,13.9-1.71,15.73a5.27,5.27,0,0,0,2.67,2.83,8.74,8.74,0,0,0,3.57.64c1.27,0,2.74-1.33,3.41-3.45a50.2,50.2,0,0,0,1.23-6.8,51.46,51.46,0,0,0,.61-6.78l.51-2.56c2.23-.71,5.57-.26,7.37,1.61a14.31,14.31,0,0,1,3,5.48,3.53,3.53,0,0,0,1.71,2c.91.56,1.62.61,2.15.15a6.74,6.74,0,0,0,1.38-3.31,49,49,0,0,0,.91-7.11,39.49,39.49,0,0,0-.19-8C486.88,453.62,485.72,451.47,484.23,450.89Z"/><path class="ba4a5f12-6be4-4e59-a6f2-8368bb7ca69a" d="M517.49,463.86a17.68,17.68,0,0,0-4-7.26,19,19,0,0,0-5.89-3.8c-1.58-.74-3.35-1.44-5-1.09a10.66,10.66,0,0,0-4.7,2.4,12.77,12.77,0,0,0-3.59,5.36,66.25,66.25,0,0,0-2.62,9.13,109.48,109.48,0,0,0-2,13.12,64.5,64.5,0,0,0-.39,11.2,16.11,16.11,0,0,0,2.58,7.19,28.33,28.33,0,0,0,7.55,7.36c3.4,2,5.8,2.9,7.15,2.86a7.17,7.17,0,0,0,3.95-1.37,11.62,11.62,0,0,0,3.34-3.68,16,16,0,0,0,2-4.93,38,38,0,0,0,.71-4.93,8.55,8.55,0,0,0-.22-3.35,2.9,2.9,0,0,0-1.68-1.54,2.81,2.81,0,0,0-2.33-.09,8.28,8.28,0,0,0-2.42,2,17.6,17.6,0,0,0-2,2.66,3.9,3.9,0,0,1-2,1.68c-.88.37-1.87,0-2.95-1a8.84,8.84,0,0,1-2.33-3.38,22.37,22.37,0,0,1-1.09-4.61c-.26-1.82,0-7.33,1.33-8.43.67-.55,3.41-.06,4,.45a12.85,12.85,0,0,0,2.4,1.6,11.08,11.08,0,0,0,4.56,1,15.3,15.3,0,0,0,4.41-.23,4.2,4.2,0,0,0,2.57-2.69,20.26,20.26,0,0,0,.38-7.65A42.17,42.17,0,0,0,517.49,463.86Zm-6.09,7.94c-1.75.15-5.22-.4-10.34-1.79a11.7,11.7,0,0,1,.49-4.38c.42-1.32.92-2.07,1.47-2.24a9,9,0,0,1,2.69-.17,6.61,6.61,0,0,1,3.55,1.3,5.64,5.64,0,0,1,2.21,2.76A9.43,9.43,0,0,1,511.4,471.8Z"/><path class="ba4a5f12-6be4-4e59-a6f2-8368bb7ca69a" d="M549.88,472.26a17.79,17.79,0,0,0-4.43-7.28,18.27,18.27,0,0,0-6.21-3.44c-1.65-.63-3.51-1.21-5.18-.66a11.74,11.74,0,0,0-4.7,3.15,15.57,15.57,0,0,0-3.44,6.33,81.25,81.25,0,0,0-2.27,10.49,133.13,133.13,0,0,0-1.47,14.95,76.66,76.66,0,0,0,.13,12.6,16.18,16.18,0,0,0,3,7.52,23.94,23.94,0,0,0,8.24,6.57c3.64,1.44,6.18,2,7.57,1.64a8.73,8.73,0,0,0,4-2.3,15.45,15.45,0,0,0,3.25-4.62,19.91,19.91,0,0,0,1.74-5.65,42.48,42.48,0,0,0,.46-5.41,9.25,9.25,0,0,0-.4-3.54,2.56,2.56,0,0,0-1.81-1.37,2.8,2.8,0,0,0-2.4.31,10,10,0,0,0-2.38,2.58,21.24,21.24,0,0,0-2,3.24,5.12,5.12,0,0,1-1.95,2.19c-.9.56-1.93.39-3.1-.5a8.22,8.22,0,0,1-2.59-3.28,23.35,23.35,0,0,1-1.36-4.87c-.36-2-.54-8,1-9.47.7-.71,3.52-.59,4.11-.12a11.31,11.31,0,0,0,2.55,1.36,10.53,10.53,0,0,0,4.75.38,16.37,16.37,0,0,0,4.51-.95,5,5,0,0,0,2.48-3.27,22.93,22.93,0,0,0,0-8.22A45.65,45.65,0,0,0,549.88,472.26Zm-5.82,9.35c-1.79.41-5.38.32-10.72-.49a13.92,13.92,0,0,1,.28-4.87q.57-2.25,1.41-2.64a8.64,8.64,0,0,1,2.75-.52,6.12,6.12,0,0,1,3.71,1,5.42,5.42,0,0,1,2.41,2.69A10.64,10.64,0,0,1,544.06,481.61Z"/><path class="ba4a5f12-6be4-4e59-a6f2-8368bb7ca69a" d="M583.13,470.55c-1.78-1.7-3.37-2.58-4.8-2.64a24.77,24.77,0,0,0-4.76.35,7.09,7.09,0,0,0-4.51,2.83l-1.26,1.3c-.22-1.7-.44-3.39-.65-5.09-1.63-1.59-3.09-2.29-4.41-2.08a6.53,6.53,0,0,0-3.33,1.36c-.71.66-1.36,3.49-2,8.08q-.84,16.79-1.71,33.57-.25,6.35-.5,12.69c.31,3.79,1.39,6,3.22,6.66a7,7,0,0,0,5.7-.6,62.36,62.36,0,0,0,2.77-18.25q.21-10.43,1.32-20a2.47,2.47,0,0,1,2.8-1.19c1.18.26,2.64,1.71,4.41,4.33a20.18,20.18,0,0,1,1.59,6.6,71.62,71.62,0,0,1,.28,7.57c-.05,2.5-.13,5-.27,7.56a29.7,29.7,0,0,1-1.08,6.83q-.06,3-.26,6.13a8,8,0,0,0,1.49,5.43,31.51,31.51,0,0,1,3.7.65,3.76,3.76,0,0,0,3.48-.81c1.74-3.17,2.83-7.8,3.29-13.86s.78-10.87,1-14.44a90.19,90.19,0,0,0-1-15A73,73,0,0,0,583.13,470.55Z"/><path class="ba4a5f12-6be4-4e59-a6f2-8368bb7ca69a" d="M636.85,485.64q-.78-6.27-1.48-9.46c-.48-2.11-1.14-4.47-2-7.06s-1.79-5.36-2.85-8.31a48.08,48.08,0,0,0-2.86-6.69,24,24,0,0,0-3.55-4.7,28.1,28.1,0,0,0-3.42-3.27,6.75,6.75,0,0,0-3-1.13,17.41,17.41,0,0,0-4.57,0,6.69,6.69,0,0,0-3.93,1.44,6.29,6.29,0,0,0-1.66,2.71,16.76,16.76,0,0,0-.6,4c-.07,1.62,0,4.29.2,8s.6,13.35,1.18,28.9,1,25.66,1.12,30.32.5,7.5,1,8.51a7.52,7.52,0,0,0,2.22,2.59,5.73,5.73,0,0,0,3,1.21,18.45,18.45,0,0,0,3.59-.09,57.5,57.5,0,0,0,7.95-1.55,10.46,10.46,0,0,0,4.87-2.68,18.11,18.11,0,0,0,3-4.45,24.59,24.59,0,0,0,2-5.35,61.11,61.11,0,0,0,.92-9.57,102.84,102.84,0,0,0-.07-12C637.74,493.61,637.36,489.81,636.85,485.64Zm-8.48,16.92a20.37,20.37,0,0,1-1.58,5.9,10,10,0,0,1-2.78,3.28,6.41,6.41,0,0,1-3.68,1.75,2.93,2.93,0,0,1-2.62-1.93,13.23,13.23,0,0,1-1.34-4.36,48.93,48.93,0,0,1-.42-5c-.06-1.77-.26-6.85-.59-15.27s-.59-14.59-.77-18.54-.1-6.5.25-7.65,1.19-1.44,2.55-.89a8.77,8.77,0,0,1,3.65,2.91,24.48,24.48,0,0,1,2.78,4.52,42.45,42.45,0,0,1,2.38,7.29,66.21,66.21,0,0,1,1.57,7.53c.23,1.79.48,5,.77,9.57A53.75,53.75,0,0,1,628.37,502.56Z"/><path class="ba4a5f12-6be4-4e59-a6f2-8368bb7ca69a" d="M667.66,471.44A30.43,30.43,0,0,0,663,465c-1.5-1.47-3.35-2.74-4.61-2.74-1.62,0-4.14.8-6.38,1.05s-4.2,1.77-5.52,4.49a33.29,33.29,0,0,0-2.89,11.6,121.07,121.07,0,0,0-.53,13.26c.33,12.95,1.65,21.7,3.22,25.41s3,5.82,4.16,6.39a5.05,5.05,0,0,0,3.68.29,40.37,40.37,0,0,0,9.93-4.51c3.18-2,6.07-6.23,8.61-12.57a26,26,0,0,0,1.58-6.39,35.26,35.26,0,0,0-2.15-19.75A55,55,0,0,0,667.66,471.44Zm-8,36.53c-.51.69-1,1.37-1.54,2-2,.6-3.47-.14-4.42-2.19a17,17,0,0,1-1.58-6.42,18.42,18.42,0,0,1,.85-6.51c.67-2.12,1.56-3.46,2.69-4a4,4,0,0,1,3.06-.45,6.13,6.13,0,0,1,2.57,1.6q1.18,1.19,1.34,5.25C662.68,500,661.72,503.52,659.61,508Z"/><path class="ba4a5f12-6be4-4e59-a6f2-8368bb7ca69a" d="M707.94,476.61a57.5,57.5,0,0,0-3.1-11.27,45.5,45.5,0,0,0-6.79-12.56,6.76,6.76,0,0,0-4.76-.44,27.27,27.27,0,0,0-4.27,2,9,9,0,0,0-3.63,4.12l-.93,1.6c-.49-1.36-1-2.72-1.45-4.09-1.77-.75-3.24-.79-4.41-.1a8.16,8.16,0,0,0-2.84,2.51c-.54.88-.64,3.64-.38,8q2.24,15.24,4.47,30.28.92,5.66,1.84,11.27c1,3.09,2.31,4.35,4,3.8a10.56,10.56,0,0,0,4.87-3.87,57.6,57.6,0,0,0-.72-16.7,172.35,172.35,0,0,1-2.22-17.39,3.31,3.31,0,0,1,2.31-2.24c1.1-.3,2.64.28,4.64,1.64a12.15,12.15,0,0,1,2.47,4.66,49,49,0,0,1,1.46,6q.54,3,1,6.19a26,26,0,0,1,.17,6c.29,1.62.55,3.3.77,5a4.08,4.08,0,0,0,2.14,3.47,34.54,34.54,0,0,1,3.21-1.54,5.75,5.75,0,0,0,2.79-2.51,32.24,32.24,0,0,0,.68-12.29C708.75,483.29,708.3,479.45,707.94,476.61Z"/><path class="ba4a5f12-6be4-4e59-a6f2-8368bb7ca69a" d="M737.39,451.26c-.7-2.73-1.42-5.5-2.14-8.3-1-2.31-2.26-3.34-3.78-3a7.88,7.88,0,0,0-4.26,2.71,42.88,42.88,0,0,0,1.23,13.56A114.83,114.83,0,0,1,731,470.13a3.84,3.84,0,0,1-2.12,2.31c-1,.47-2.5.31-4.44-.58a8.68,8.68,0,0,1-2.45-3.8,39.29,39.29,0,0,1-1.5-5.23c-.39-1.79-.74-3.63-1.07-5.51a21.83,21.83,0,0,1-.29-5.34c-.32-1.46-.6-3-.86-4.53a4.69,4.69,0,0,0-2.11-3.41,26.84,26.84,0,0,1-3,.79,4,4,0,0,0-2.63,1.77c-.88,3-1,6.9-.49,11.68s1,8.56,1.39,11.34a50.64,50.64,0,0,0,3.1,10.82A27.51,27.51,0,0,0,721.27,491a7.16,7.16,0,0,0,4.68-1.11,39.51,39.51,0,0,0,4.1-3.22,13.32,13.32,0,0,0,3.39-4.68l.84-1.62c.48.94,1,1.86,1.44,2.77a6.24,6.24,0,0,0,4.1-1.65,13.23,13.23,0,0,0,2.54-3c.47-.86.49-2.9.12-5.95Q740,462.2,737.39,451.26Z"/><path class="ba4a5f12-6be4-4e59-a6f2-8368bb7ca69a" d="M761.6,431.48c-1.79.28-4,1.3-5.72,1.75a24.42,24.42,0,0,0-.26-5.06,30.85,30.85,0,0,0-1.18-3.25,7.88,7.88,0,0,0-2.79-3.48,9.47,9.47,0,0,0-4.43,1.37,2.87,2.87,0,0,0-1.2,2.49c0,1,.1,1.95.17,2.83.65,2.23,1.3,4.42,1.94,6.59a5.49,5.49,0,0,1-3.43-.16,4.61,4.61,0,0,0-3.71.26,3.88,3.88,0,0,0-2.28,2.23,4.56,4.56,0,0,0-.12,2.29c.16.66.38,1.58.67,2.75a4.7,4.7,0,0,0,2.09,2.85,4.07,4.07,0,0,0,3.83.22l4.31-1.61q2.14,8.42,4.13,16.28a19.44,19.44,0,0,0-.2,4.29,7.49,7.49,0,0,0,1.23,3.21,4.46,4.46,0,0,0,3,2.07,4,4,0,0,0,1.94-1.46c.49-.68.83-2.22,1-4.59a33.14,33.14,0,0,0-1-9.59c-.9-4.08-1.8-8.29-2.68-12.6l4.66-1.16a7.22,7.22,0,0,0,3.21-1.57c.87-.9.88-2.55,0-4.29S762.64,431.31,761.6,431.48Z"/><path class="ba4a5f12-6be4-4e59-a6f2-8368bb7ca69a" d="M405,319.57s-3.69,3.84-5.78,13.61c-1.65,7.71-1.64,18.2,1.44,30.29,2.36,9.21,8.23,19,17.33,29.29,13.17,14.94,35.56,26.84,64.77,34.21,24.32,6.13,53.59,8.77,84.16,10.72,38.79,2.47,80.28,1.16,116.28-4.67,30.24-4.91,56.33-12.61,76.37-27.72,9.7-7.31,20.87-16.72,28.19-31.44,5-10,6.71-16.73,3.59-29.52C778.77,292.66,405,319.57,405,319.57Z"/><path class="ab9b46bc-5c27-4e74-b841-15f0ef2dee9f" d="M780.67,351.89c-4,6.8-16.56,11.18-23.56,9.37a132.31,132.31,0,0,0-14.37-2.86c-5.18-.75-10.42-1.14-15.64-1.55-3.48-.27-7-.43-10.47-.37a54.79,54.79,0,0,0-18.47,3.38,64.46,64.46,0,0,0-19.92,11.4,41.81,41.81,0,0,1-18.42,9.54,41.07,41.07,0,0,1-21.72-.74,74.09,74.09,0,0,1-18.28-9,78.89,78.89,0,0,0-15.37-7.83,10.92,10.92,0,0,1-2.89-1.19c-3.7-2.8-8.08-3.34-12.42-3.44-5.22-.11-10.46.32-15.69.58-5.8.29-11.31,2-16.9,3.39-7.46,1.82-15,3.42-22.76,3.18A63.67,63.67,0,0,1,504.7,358a37.86,37.86,0,0,1-5.5-4c-4.48-3.64-8.85-7.4-13.35-11-8.27-6.64-17.78-8.56-28.11-7.12a75.28,75.28,0,0,1-16.71.77,38.3,38.3,0,0,1-21-8.71,20,20,0,0,1-4.14-5.33A26.92,26.92,0,0,1,412.54,301a42.1,42.1,0,0,1,8.73-16.68A21.31,21.31,0,0,1,423,286c6.78,8,15.55,10.86,25.77,9.89,2.78-.26,5.54-.67,8.33-.94a9.43,9.43,0,0,1,2.54.13c9.84,1.86,18.69-.74,26.9-6a10.07,10.07,0,0,0,5-8.11c.43-6.1,1.19-12.18,1.71-18.27.24-2.77.25-5.57.38-8.76,1.12.26,1.91.42,2.68.62a9.88,9.88,0,0,1,1,.41c10.18,4.09,9.44,4.41,21.53.17,2.6-.92,5.09-2.15,8-3.38.77,6.15,1.6,11.84,2.17,17.56a199.51,199.51,0,0,0,3.12,22.31,10.13,10.13,0,0,1-.22,6.18c-1.34,3.36-.06,6.16,2.29,8.57a28.63,28.63,0,0,0,12.43,7.53,141.44,141.44,0,0,0,14.76,3.54c9.8,1.76,19.69,2.78,29.64,3.56a243,243,0,0,0,30.4.63c13.79-.64,27.55-2,40.58-7.15,2.76-1.1,5.52-2.2,8.19-3.49a9.46,9.46,0,0,0,5.28-6.19c.27-1,.64-2.25.25-3-1.07-2.19-.22-4,.36-6.05,3.87-13.24,7.68-26.51,11.52-39.76.23-.79.55-1.56.85-2.39.78.12,1.39,0,1.75.28,4.44,3.15,7.63,7.12,8.4,12.72.47,3.46.79,7,1.6,10.34a28.36,28.36,0,0,0,3,7.76,45.85,45.85,0,0,0,29,21.71,22.31,22.31,0,0,0,7.78.3c4.86-.52,9.71-1.27,14.51-2.2,6.94-1.33,12.22,1.52,16.88,6.2a25,25,0,0,0,2.48,2.65,3.89,3.89,0,0,0,6.29-2.72,12.62,12.62,0,0,0-.76-5.63,49.33,49.33,0,0,0-4.8-9.27,84.42,84.42,0,0,0-29.93-26.54,48.18,48.18,0,0,0-14.8-5.07,26.47,26.47,0,0,1-5.55-1.5A84.92,84.92,0,0,1,708.1,254a39.81,39.81,0,0,1-9.48-9.31c.75-.32,1.18-.69,1.54-.63a70.72,70.72,0,0,1,8.73,1.64c12.22,3.63,24.43,7.25,35.93,12.92a73.4,73.4,0,0,1,14.26,8.76c1.76,1.44,3.52,2.87,5.32,4.26,13,10,20.05,23.48,23.14,39.29.73,3.77,1.24,7.58,1.83,11.38.87,5.7-.65,11.09-2.32,16.41A64.63,64.63,0,0,1,780.67,351.89Z"/><path class="fd492c84-8563-494a-8d09-404763b31bfc" d="M782,362.5a54.59,54.59,0,0,1-2.25,5.52c-5.74,12-15.6,21.39-26.57,28.65C722.55,417,688.94,421.45,653.12,426a358.51,358.51,0,0,1-56.83,2.36,805.76,805.76,0,0,1-99.37-9.62c-21.87-3.49-38.65-9.65-57.34-22C428.61,389.41,418.75,380,413,368a57,57,0,0,1-3.54-38.33c.41.6.83,1.18,1.27,1.74,8.74,11.18,25.12,15,38.72,14.17,3.66-.23,7.3-.77,10.93-1.27a25.67,25.67,0,0,1,20.15,5.42c3.57,2.82,7.36,5.42,10.56,8.61,6.93,6.91,15.5,10.65,24.61,13.35a69.56,69.56,0,0,0,26.5,2.26,113.8,113.8,0,0,0,21-4.29c7.13-2.06,14.44-2.49,21.77-2.83,4.61-.22,9,1,13.25,2.72a94.21,94.21,0,0,1,16.32,8.31,89,89,0,0,0,20.59,10.21c15.38,5,29.65,2.42,43.08-6.08a42.06,42.06,0,0,0,5-3.79A58,58,0,0,1,697,369.65a46.91,46.91,0,0,1,15.08-4c13.57-1.44,26.83.36,40,3.2a22.55,22.55,0,0,1,3.47,1.1c7.77,3.08,14.63-.7,21.29-3.95A23,23,0,0,0,782,362.5Z"/><path class="b9738474-2dab-4531-9b60-fece378df27e" d="M475.1,273.67c-2-.48-4.09-.92-6.16-1.21A27.73,27.73,0,0,1,457.33,268c-2.46-1.62-5.05-3-7.72-4.63-1.79-6.86-4.33-21.06-4.25-24a13.31,13.31,0,0,1,11.77-2.14c5.22,1.36,10.49,2.66,16,2.68,4.18,0,8.36.22,12.4-1.18.79,4.52-1.05,31.63-2.88,43.32a9,9,0,0,1-5.64,2.55c.63-1.22,1.07-2.26,1.66-3.2C480.59,278.3,478.69,274.51,475.1,273.67Z"/><path class="bee76c24-78fd-4d67-a675-e8bf88ccb948" d="M494.53,242.1c4.55-2.14,20.77-5.46,25.92-5.38a8.41,8.41,0,0,1-1.43,2,33.84,33.84,0,0,1-14.47,5.76C501.24,245,498,244.28,494.53,242.1Z"/><path class="a8bedf3c-8c7d-45c8-808c-ade15110f3c2" d="M533.26,187.13a10.26,10.26,0,0,1,.33-1.73,28.65,28.65,0,0,1,3.37-1c10.19-1.83,19.93-5.19,29.56-8.82a83.06,83.06,0,0,0,25.27-15.66c.39-.34.84-.61,1.57-1.13a14.63,14.63,0,0,1,2.79,1.87c1.56,1.65,2.87,3.53,4.4,5.21,6.13,6.69,13.67,11.37,21.87,15.07a19.05,19.05,0,0,0,10.27,1.34,10.28,10.28,0,0,0,8.7-6.65,27.58,27.58,0,0,0,1.21-4.54c.8-3.4,1.5-6.82,3.71-10.54A84.44,84.44,0,0,0,664.16,174c6.34,3.46,13.31,5.19,20.35,7.56a15.22,15.22,0,0,1,.73,3.37c0,1.65,0,3.3,0,5-2.23,0-4.42-.7-6.62-.69-1.85,0-3.69.32-5.58.27-4.68-.11-9.35-.39-14-.67s-9.08-.48-13.63-.73-9.08-.63-13.62-.77c-15.7-.48-31.17-.48-46.88,0-4.54.14-9.08.52-13.62.77s-9.09.45-13.63.73-9.29.56-13.94.67c-3.48.08-6.94,0-10.4,0C533.27,188.74,533.27,187.94,533.26,187.13Z"/><path class="a8bedf3c-8c7d-45c8-808c-ade15110f3c2" d="M544.33,227.44c2.45,5.61,7.2,8.5,13,9.09a86.69,86.69,0,0,0,26-1.35,8.92,8.92,0,0,0,5.54-3.22,66.85,66.85,0,0,0,4.67-6.82,59.14,59.14,0,0,0,3.25-7,10.66,10.66,0,0,1,7.26-6.46,14.21,14.21,0,0,1,8.56,0,10.66,10.66,0,0,1,7.26,6.46,59.14,59.14,0,0,0,3.25,7,65.37,65.37,0,0,0,4.68,6.82,8.88,8.88,0,0,0,5.53,3.22,86.69,86.69,0,0,0,26,1.35c5.78-.59,10.53-3.48,13-9.09,1.9-4.34,3.57-8.79,5.33-13.2,1.33-3.34,1.74-7.37,5.81-8a8.94,8.94,0,0,1,1.72-.09c0,2.73-.12,5.47-.25,8.21-.35,7.49-1.26,15-2.35,22.4a181.46,181.46,0,0,1-3.76,18.47c-2.17,8.46-4.73,16.81-7.15,25.2-.82,2.85-1.67,5.7-2.61,8.51-1.17,3.47-2.45,6.9-3.67,10.35-.58,1.64-1.14,3.28-1.8,5.15a66.77,66.77,0,0,1-17.64,5.79,177.33,177.33,0,0,1-39.14,3c-17.63-.68-35.25-2-52.5-6.11-3.72-.9-7.44-1.83-10.86-4.05-.19-1.5-.3-3-.61-4.55s-1-3-1.26-4.54c-1-5.31-2.25-10.6-2.92-16-1.46-11.62-2.69-23.27-3.88-34.92-.64-6.29-1.27-12.36-1.31-18.72l-.09-19c3.52,1.65,4.33,5.58,5.65,8.87C540.76,218.65,542.43,223.1,544.33,227.44Z"/><path class="a2171636-d369-4e92-9c4c-94f8eb35f93a" d="M608,94.7c1-.74,2-2,1.43-3.09s-2-1.13-3.06-1.61c-3.77-1.64-1.09-8-.71-11,3-1.48,6-2.85,8.86-4.41a85.23,85.23,0,0,0,16.62-11.84,16.56,16.56,0,0,1,6.17-3.86c2-.61,3.41-.35,4.54,1.36a12.38,12.38,0,0,1,1.7,3.78,31.41,31.41,0,0,1-1.81,21,64,64,0,0,1-8,12.72c-1,1.24-2.58,4.06-1.18,5.41,1,1,3.7.34,4.8-.12,3.27-1.35,5.7-3.95,9.13-5.09a30.84,30.84,0,0,1,10-1.23c5.91,0,10.73,8.39,8.54,13.07a24.07,24.07,0,0,1-2.29,4.09c-3.57,4.8-8.49,8.6-13.39,11.91-1,.69-2.14,1.24-3.09,2a4.55,4.55,0,0,0-1.82,3.1,1.6,1.6,0,0,0,.41,1.27,1.86,1.86,0,0,0,.62.33,8.38,8.38,0,0,0,5.07-.17,39.19,39.19,0,0,1,5-1.4c6.61-.95,12-.85,18,2.64,11.38,6.64,18.44,16.36,21.06,29.26a48.27,48.27,0,0,1,.52,12.07c-2.1-.44-3.48-.62-4.8-1-5.36-1.55-10.82-2.85-16-4.8a55.9,55.9,0,0,1-23.82-17.46c-.33-.41-.52-.93-.86-1.32a3.71,3.71,0,0,0-5.17-.61,14.65,14.65,0,0,0-2.84,3A43.57,43.57,0,0,0,634.28,169c-.35,1.53-.48,3.12-1.87,4.48a10.08,10.08,0,0,1-7.4-.78c-7.81-3.73-15-8.34-20.35-15.29a84.16,84.16,0,0,1-8.23-12.09c-1-1.8-2-3.77-3.78-4.68a2.66,2.66,0,0,0-2.62,0c-.95.63-1.09,1.95-1.08,3.09a30.14,30.14,0,0,1,0,4.25c-.41,3.42-2.85,5.68-5.39,7.72a79.45,79.45,0,0,1-26.12,14.12c-4.83,1.51-9.64,3.05-14.48,4.54A62.66,62.66,0,0,1,528,176.79c-1.9.11-3.86.3-5.79-.88a14.63,14.63,0,0,1,0-2.88,46.06,46.06,0,0,1,4.9-12.66c3.26-6.14,8-17.34,15.83-18.14a41.45,41.45,0,0,1,6.1.08,55.63,55.63,0,0,0,10-.43,6.26,6.26,0,0,0,2.94-.94,2.3,2.3,0,0,0,.87-2.73,3.36,3.36,0,0,0-2.63-1.35c-6.74-1.07-12.31-1.41-17.72-5.77-4.55-3.67-6.57-9.67-3.94-15.17,3.33-6.93,8.14-12.64,15-16.32a55.73,55.73,0,0,1,8.19-3.47c3.71-1.28,7.52-2.24,11.24-3.48,2.06-.69,3.86-2.12,6-2.6s5.37,1.29,2.49,3.33a6.65,6.65,0,0,0-.86.61c-3.23,3.39,5.73,4.43,6.81,4.48a61.43,61.43,0,0,0,10.68-.09A20.69,20.69,0,0,0,608,94.7Z"/><path class="ba4a5f12-6be4-4e59-a6f2-8368bb7ca69a" d="M388.44,319.22c-6,7.08-7.52,17.67-5.57,26.54a20.28,20.28,0,0,0,5.35,10.18,3.09,3.09,0,0,0,1.86,1.05,2.3,2.3,0,0,0,2.15-1.93c.48-2.2-.72-5.49-.83-7.81-.14-3-.26-6-.22-9,.1-5.57.6-11.46,3.18-16.5.73-1.43,1.82-3.07,1.07-4.49a2.68,2.68,0,0,0-2.88-1.18,5.82,5.82,0,0,0-2.81,1.72C389.28,318.25,388.85,318.73,388.44,319.22Z"/><path class="ba4a5f12-6be4-4e59-a6f2-8368bb7ca69a" d="M387.54,306.69a13.41,13.41,0,0,0-5.61,5.38,7.58,7.58,0,0,0-.15,6.27,1.4,1.4,0,0,0,.24.43c.37.38,1.05.17,1.39-.24a8.34,8.34,0,0,0,.73-1.39c2.13-3.77,7.27-2.76,8.16-8.35a2.55,2.55,0,0,0-1.12-2.7,3.34,3.34,0,0,0-2.77.2A8.59,8.59,0,0,0,387.54,306.69Z"/><path class="ba4a5f12-6be4-4e59-a6f2-8368bb7ca69a" d="M817.8,319.37a18.89,18.89,0,0,0-2.25-2.86,3.08,3.08,0,0,0-1.55-.91,1.2,1.2,0,0,0-1.4.86,1.86,1.86,0,0,0,.36,1.14c1.33,2.31,3.1,5.56,3.63,8.15a11.52,11.52,0,0,0,.51,2.18c1.1,2.69,4,1.42,4.07-1C821.28,324.39,819.16,321.39,817.8,319.37Z"/><path class="ba4a5f12-6be4-4e59-a6f2-8368bb7ca69a" d="M812.65,367.86a128.57,128.57,0,0,1-8.3,11.54c-1.57,1.92-12.34,11.09-10.4,13.36.6.71,1.72.62,2.63.4,9.2-2.15,16.24-10,19.83-18.73,1.4-3.41,2.37-7.29,1.08-10.75a1.4,1.4,0,0,0-.45-.7c-.69-.49-1.53.33-2,1C814.28,365.3,813.47,366.59,812.65,367.86Z"/><path class="ba4a5f12-6be4-4e59-a6f2-8368bb7ca69a" d="M406.24,395a125.85,125.85,0,0,1-8.67-11.27c-1.39-2.06-7.08-15-9.81-13.8-.86.37-1.09,1.46-1.14,2.4-.58,9.43,4.89,18.43,12.23,24.38,2.87,2.32,6.31,4.36,10,4.12a1.4,1.4,0,0,0,.81-.23c.66-.52.12-1.56-.43-2.18Q407.7,396.76,406.24,395Z"/><path class="ba4a5f12-6be4-4e59-a6f2-8368bb7ca69a" d="M807,365c6.67-6.7,9.13-17.34,7.9-26.53a20.67,20.67,0,0,0-4.6-10.8,3.06,3.06,0,0,0-1.8-1.23,2.35,2.35,0,0,0-2.35,1.79c-.66,2.19.27,5.64.19,8-.11,3.07-.24,6.13-.54,9.18-.56,5.66-1.57,11.61-4.61,16.51-.87,1.4-2.11,3-1.48,4.48a2.73,2.73,0,0,0,2.84,1.44,5.85,5.85,0,0,0,3-1.51C806.07,365.89,806.55,365.44,807,365Z"/><path class="fae1c637-9f40-4694-bced-3b9cdc51e39c" d="M441,270.61c3,.8,7.07,1.46,9.69,3.08a74.59,74.59,0,0,0,7.61,4.55,87.1,87.1,0,0,0,8.69,3,11.79,11.79,0,0,1-1.83,1.55A39.71,39.71,0,0,1,444,287.33a19.48,19.48,0,0,1-15.33-8.9,14.27,14.27,0,0,1-.13-15.16,18.18,18.18,0,0,1,4.36-5c.49-.4,5.9-3.67,5.91-3.62.44,2,.81,3.63,1.19,5.31.34,1.5,1.57,3.67,1,5.22-1.05,2.83-2.9-2.73-3.83.14S438.66,270,441,270.61Z"/><path class="e9cd2400-1c77-4575-a597-0e58bc692bbd" d="M472.91,274.76c-2-.48-4.09-.92-6.16-1.2a27.66,27.66,0,0,1-11.61-4.5c-2.45-1.62-5-3-7.72-4.62-1.78-6.87-4.33-21.07-4.25-24a13.34,13.34,0,0,1,11.77-2.14c5.23,1.37,10.49,2.66,16,2.68,4.18,0,8.36.23,12.41-1.18.78,4.52-1.05,31.64-2.89,43.32a9.11,9.11,0,0,1-5.64,2.56c.63-1.23,1.07-2.27,1.66-3.21C478.4,279.4,476.51,275.61,472.91,274.76Z"/><path class="fae71ba0-bd72-4042-a14d-d14433ffa42e" d="M474.36,231.43a120,120,0,0,1-13.92-2.21c-5.68-1.37-11-1.18-16.25,1.51a5.69,5.69,0,0,1-1.3.28,5,5,0,0,1-.67-1.13c-.35-1.7-.66-3.42-1-5.22,2-1.43,4.31-1.4,6.53-1.54,6.1-.39,12.2-.68,18.29-1.06,4.53-.27,9.05-.67,13.58-.9,2.59-.13,5.19,0,8.13,0,.55,2.27-.35,4.36-.45,6.15A15.56,15.56,0,0,1,474.36,231.43Z"/><path class="bbf671cc-e3b0-4614-85a2-a592c0381b0d" d="M537.64,190.41a10.64,10.64,0,0,1,.33-1.73,27.53,27.53,0,0,1,3.37-1c10.18-1.83,19.93-5.19,29.55-8.82a83.23,83.23,0,0,0,25.28-15.66c.38-.34.83-.61,1.56-1.13a14.7,14.7,0,0,1,2.8,1.87c1.56,1.65,2.86,3.53,4.39,5.21,6.14,6.69,13.68,11.37,21.87,15.07a19.08,19.08,0,0,0,10.27,1.34,10.26,10.26,0,0,0,8.7-6.65,26.62,26.62,0,0,0,1.21-4.54c.8-3.39,1.5-6.82,3.72-10.54a84.19,84.19,0,0,0,17.85,13.52c6.34,3.46,13.3,5.19,20.35,7.56a15.79,15.79,0,0,1,.72,3.37v5c-2.24,0-4.42-.7-6.63-.68-1.85,0-3.69.31-5.57.26-4.68-.11-9.36-.38-14-.67s-9.09-.48-13.63-.73-9.08-.63-13.63-.77c-15.69-.48-31.17-.48-46.87,0-4.55.14-9.08.52-13.63.77s-9.09.45-13.63.73-9.28.56-13.93.67c-3.49.08-6.95,0-10.41,0C537.65,192,537.64,191.22,537.64,190.41Z"/><path class="bbf671cc-e3b0-4614-85a2-a592c0381b0d" d="M537.89,231.12c0-1.14-.07-2.3-.07-3.46,0-3.51-2.1-17,.28-19.4,3.92-3.9,12.85,3.13,15,6,3.63,4.69,5.32,10.54,7.69,16a7.43,7.43,0,0,0,1.86,2.88c1.84,1.54,4.57,1.11,6.91.6L582,231a11.06,11.06,0,0,0,2.76-.86,10,10,0,0,0,3.56-3.83c5.69-9.19,9.54-20.86,19.46-25.14a3.89,3.89,0,0,1,2-.43,4.9,4.9,0,0,1,1.78.75,17.7,17.7,0,0,0,6.64,2.15c4,.47,6,12,7.5,14.65,2.45,4.46,8,5,12.7,2.72,4.23-2,7.33-5.8,10.28-9.46s6-7.44,10.18-9.56c4.69-2.37,10.18-2.35,15.44-2.27,4.19.05,8.63.19,12.14,2.48,5.72,3.73,3.16,9.91,2.9,15.4a224.64,224.64,0,0,1-2.35,22.4,178.78,178.78,0,0,1-3.76,18.47c-2.17,8.46-4.73,16.81-7.15,25.2-.82,2.85-1.66,5.7-2.61,8.51-1.16,3.47-2.44,6.9-3.66,10.35-.58,1.64-1.15,3.28-1.8,5.15a66.89,66.89,0,0,1-17.64,5.79,177.33,177.33,0,0,1-39.14,3c-17.64-.68-35.25-1.95-52.5-6.11-3.72-.9-7.45-1.83-10.87-4-.19-1.5-.29-3-.61-4.55s-.95-3-1.25-4.53c-1-5.32-2.26-10.61-2.93-16-1.46-11.62-2.68-23.27-3.87-34.92C538.6,241.24,538.09,236.25,537.89,231.12Z"/><path class="fae1c637-9f40-4694-bced-3b9cdc51e39c" d="M612.4,98c1-.74,2-2,1.44-3.09s-2-1.13-3.07-1.61c-3.76-1.64-1.09-8-.71-11,3-1.48,6-2.85,8.87-4.41A85.84,85.84,0,0,0,635.55,66a16.45,16.45,0,0,1,6.16-3.86c2-.61,3.42-.35,4.55,1.36A12.59,12.59,0,0,1,648,67.32a31.4,31.4,0,0,1-1.8,21.05,63.55,63.55,0,0,1-8,12.72c-1,1.24-2.57,4.06-1.17,5.41,1,1,3.69.34,4.8-.12,3.27-1.35,5.69-3.95,9.12-5.09a30.9,30.9,0,0,1,10-1.23c5.9,0,10.72,8.39,8.54,13.07a23.45,23.45,0,0,1-2.3,4.09c-3.57,4.8-8.48,8.6-13.38,11.91-1,.69-2.14,1.24-3.1,2a4.54,4.54,0,0,0-1.81,3.1,1.57,1.57,0,0,0,.41,1.27,1.72,1.72,0,0,0,.61.33,8.38,8.38,0,0,0,5.07-.17,39.34,39.34,0,0,1,5-1.4c6.61-.95,12-.85,18,2.64,11.37,6.64,18.43,16.36,21,29.26a47.78,47.78,0,0,1,.53,12.07c-2.11-.43-3.48-.62-4.81-1-5.36-1.55-10.82-2.85-16-4.8A56,56,0,0,1,654.76,155c-.33-.41-.51-.93-.86-1.31a3.7,3.7,0,0,0-5.17-.62,14.88,14.88,0,0,0-2.83,3,43.59,43.59,0,0,0-7.25,16.15c-.34,1.53-.47,3.12-1.87,4.48a10.09,10.09,0,0,1-7.4-.78c-7.8-3.73-14.94-8.34-20.34-15.29a85.05,85.05,0,0,1-8.24-12.09c-1-1.8-1.95-3.77-3.78-4.68a2.64,2.64,0,0,0-2.61,0c-.95.63-1.1,1.95-1.08,3.09a31.73,31.73,0,0,1,0,4.25c-.42,3.42-2.85,5.68-5.4,7.72A79.4,79.4,0,0,1,561.79,173c-4.83,1.51-9.65,3.05-14.48,4.54a62.74,62.74,0,0,1-15,2.49c-1.9.11-3.86.3-5.79-.88a14.63,14.63,0,0,1,0-2.88,46.7,46.7,0,0,1,4.9-12.66c3.27-6.14,8-17.34,15.83-18.14a41.41,41.41,0,0,1,6.1.08,55.7,55.7,0,0,0,10-.43,6.08,6.08,0,0,0,2.93-.94,2.28,2.28,0,0,0,.87-2.72c-.46-.92-1.61-1.2-2.63-1.36-6.73-1.07-12.3-1.41-17.71-5.77-4.55-3.67-6.58-9.67-3.94-15.17,3.32-6.93,8.13-12.64,15-16.32a55.73,55.73,0,0,1,8.19-3.47c3.71-1.28,7.52-2.24,11.24-3.48,2.06-.69,3.87-2.12,6-2.6s5.36,1.29,2.49,3.33a6,6,0,0,0-.86.61c-3.23,3.39,5.72,4.43,6.8,4.48a61.54,61.54,0,0,0,10.69-.09A20.66,20.66,0,0,0,612.4,98Z"/><path class="a7df36ee-74b0-481d-b32b-831da46e3299" d="M607.87,275.07a10.32,10.32,0,0,1-8.37-2,66,66,0,0,1-5.63-5.35,8.18,8.18,0,0,1-1-2.22c5.12-.16,9.63-.12,14.11-.49s8.84-1.12,13.61-1.76C618.36,269.64,614.62,274,607.87,275.07Z"/><path class="ac29b43c-138c-45f5-9066-ed37724fb133" d="M592.21,249.49a74.05,74.05,0,0,0,29.63-1.3c.12,2,.19,3.36.26,4.58-6,3.91-20.8,5.42-30.43,3.16A7.35,7.35,0,0,1,592.21,249.49Z"/><path class="b8711631-7b1c-4d89-b59e-d5ca32a80a2c" d="M542.11,198.73c4.46-.4,9-.93,13.5-1.17,17.77-1,35.6-2.22,53.39-2.59,17.19-.35,34.81,1.66,52,2.59,4.53.24,9,.77,13.5,1.17.12.57.36,1,.24,1.28-3.13,7.26-6.5,14.42-9.4,21.77-1.81,4.6-5.16,6.29-9.63,6.47a77.74,77.74,0,0,1-8.9-.1c-4.13-.3-8.25-.83-12.44-1.26a15.88,15.88,0,0,1-4.1-6.36c-.67-1.64-1.38-3.27-2-4.94-2.1-5.75-6.09-9.48-11.68-11.91a16,16,0,0,0-4.87-1.2,2.39,2.39,0,0,0-.65-.11l-1.28,0-1.49,0-1.49,0-1.28,0a2.46,2.46,0,0,0-.65.11,16,16,0,0,0-4.87,1.2c-5.59,2.43-9.58,6.16-11.68,11.91-.62,1.67-1.33,3.3-2,4.94a15.78,15.78,0,0,1-4.1,6.36c-4.19.43-8.31,1-12.44,1.26a77.74,77.74,0,0,1-8.9.1c-4.47-.18-7.82-1.87-9.63-6.47-2.9-7.35-6.26-14.51-9.4-21.77C541.75,199.73,542,199.3,542.11,198.73Z"/><path class="fae1c637-9f40-4694-bced-3b9cdc51e39c" d="M738.43,284.16a3.91,3.91,0,0,0-1.72-1.67q-5.84-3.72-11.68-7.43a4.52,4.52,0,0,1-1.69-1.55c-2-3.81,8.38-.35,9.72.11a61.85,61.85,0,0,1,11.87,5.52c7,4.17,13.5,9.65,18,16.46a69,69,0,0,0-19.86,1.94c-9.74,2.16-17.44-1.94-24.51-7.74a45.57,45.57,0,0,1-6.91-7.85c-.93-1.22-5.79-9.84-.85-8.51a5,5,0,0,1,2,1.36c2.87,2.7,5.76,5.53,9.39,7.07,4.52,1.92,9.8,1.65,14.19,3.86a2.13,2.13,0,0,0,1.1.33C738.34,286,738.73,284.92,738.43,284.16Z"/><path class="fae1c637-9f40-4694-bced-3b9cdc51e39c" d="M580.74,59.33c3.51-4.2,8.39-4.78,13.27-5.29,2.94,6.22,3.76,24.3,1.6,34.64h-4c-1.08-5.24-1-10.59-3.39-15.3S583.37,64.22,580.74,59.33Z"/><path class="eb376a05-1dbd-4e80-885c-ebc840bd160b" d="M670.47,321.16a3.7,3.7,0,0,0-3.47,1.91,4.92,4.92,0,0,0-.62,1.43c-1,3.71-2,7.41-2.88,11.13a5.87,5.87,0,0,0,0,2.57,3.58,3.58,0,0,0,5.39,2.18,3.34,3.34,0,0,0,1.39-1.48c1.38-4.3,2.7-8.63,3.91-13a5,5,0,0,0-.26-2.12C673.06,322.05,672,321.25,670.47,321.16Z"/><path class="ad8624ca-6b65-4c70-ae2b-d3fb1f17bb6f" d="M697.37,333.74c-2.62,1.72-5.09,3.69-7.61,5.58a17.7,17.7,0,0,0-2.41,2,3.41,3.41,0,0,0-.24,4.34,3.33,3.33,0,0,0,4.11,1.45,39.89,39.89,0,0,0,11.6-7.94A9.37,9.37,0,0,0,704,337a12.89,12.89,0,0,0-1.39-3C701.33,332.43,699.54,332.31,697.37,333.74Z"/><path class="aa9d54ce-edc4-4cef-98b0-a86604deda53" d="M620.89,351.53c-3.24-2.59-6.58-5.07-10-7.4a4.29,4.29,0,0,0-3-.22,3.4,3.4,0,0,0-1.57,5.75c3,2.81,6.42,5.24,9.66,7.82a3.37,3.37,0,0,0,.95.41c2.43.84,5-1,5.07-4.09C621.77,353.3,621.59,352.09,620.89,351.53Z"/><path class="aa9d54ce-edc4-4cef-98b0-a86604deda53" d="M731.68,332.09a2.84,2.84,0,0,0-1-.17,3.72,3.72,0,0,0-4,1.81,3.58,3.58,0,0,0,1,4.66c2.7,1.87,5.51,3.58,8.34,5.25a5.19,5.19,0,0,0,4.52.34,4.07,4.07,0,0,0,2.36-4.51c-.3-.43-.63-1.39-1.3-1.79C738.35,335.73,735,333.92,731.68,332.09Z"/><path class="a5c045cb-49ff-4826-9f04-688c17c5febc" d="M532.45,332.63c-.62,0-1.8-.45-2.62-.07a105.35,105.35,0,0,0-9.76,5,3.8,3.8,0,0,0,3.37,6.74,89.15,89.15,0,0,0,10-5.6C535.38,337.41,534.86,334.08,532.45,332.63Z"/><path class="ad8624ca-6b65-4c70-ae2b-d3fb1f17bb6f" d="M605.74,330.83a13.16,13.16,0,0,0-1.31-2.93,2.72,2.72,0,0,0-3.72-.84,26.19,26.19,0,0,0-9.11,9,3.16,3.16,0,0,0,.57,3.86A3.89,3.89,0,0,0,596,341a3.64,3.64,0,0,0,1.84-.88q3.5-3.47,6.83-7.09A10,10,0,0,0,605.74,330.83Z"/><path class="ac29b43c-138c-45f5-9066-ed37724fb133" d="M724.4,310.41a6.07,6.07,0,0,0-3.42.87,70.83,70.83,0,0,0-7.09,6.1,3.59,3.59,0,0,0-.28,5.16,3.53,3.53,0,0,0,5.14.43,89.73,89.73,0,0,0,7.32-5.85,7.43,7.43,0,0,0,1.41-2.55C727.54,312,726.25,310.4,724.4,310.41Z"/><path class="ad8624ca-6b65-4c70-ae2b-d3fb1f17bb6f" d="M501.52,324.65a3.58,3.58,0,0,0-4.8.07c-2.45,2.48-4.71,5.16-7,7.82a3.79,3.79,0,0,0-.54,2c-.18,2,1.45,3.75,4,3.88a7.52,7.52,0,0,0,2.71-1.35,84.43,84.43,0,0,0,6.3-7.69A3.43,3.43,0,0,0,501.52,324.65Z"/><path class="ac29b43c-138c-45f5-9066-ed37724fb133" d="M642.47,330.48a3,3,0,0,0-3.18-1.35c-3.46,1.14-6.84,2.49-10.24,3.79a2.67,2.67,0,0,0-.77.7,3.67,3.67,0,0,0,3.47,6.27c2.82-.88,5.62-1.87,8.34-3a9.07,9.07,0,0,0,2.32-1.87C643.37,333.16,643.3,331.54,642.47,330.48Z"/><path class="eb376a05-1dbd-4e80-885c-ebc840bd160b" d="M553.28,326.71a4.76,4.76,0,0,0-1-.2,4,4,0,0,0-3.36,2.05,3,3,0,0,0,.41,3.85,92.58,92.58,0,0,0,7.62,6.18,3.45,3.45,0,0,0,2.45.35,3.53,3.53,0,0,0,2.55-5.17C560,330.3,556.86,328.21,553.28,326.71Z"/><path class="ac29b43c-138c-45f5-9066-ed37724fb133" d="M577.13,340a20.16,20.16,0,0,0-8.3,6.09,3.53,3.53,0,0,0,.12,4.76,3.6,3.6,0,0,0,4.72.71,63.66,63.66,0,0,0,6.66-5,7.8,7.8,0,0,0,1.47-2.55C581.81,341,579.42,339.2,577.13,340Z"/><path class="aa9d54ce-edc4-4cef-98b0-a86604deda53" d="M522.2,271.51a87.89,87.89,0,0,0-6.58-5.92,3.33,3.33,0,0,0-4.31.36,3.67,3.67,0,0,0-.87,4.3c1.81,3,4.08,5.68,7.37,7.12,2.48,1.09,5.07-.77,5.13-3.86A4.53,4.53,0,0,0,522.2,271.51Z"/><path class="aa9d54ce-edc4-4cef-98b0-a86604deda53" d="M691.73,296.51a6.54,6.54,0,0,0-2-.82c-3.15-.15-5.07,2.54-3.89,5,1.42,2.92,3.91,4.85,6.63,6.49a3.34,3.34,0,0,0,1,.26,3.88,3.88,0,0,0,4.5-1.79,3.5,3.5,0,0,0-.79-4.31A70.5,70.5,0,0,0,691.73,296.51Z"/><path class="a5c045cb-49ff-4826-9f04-688c17c5febc" d="M752.16,317.23a3.18,3.18,0,0,0-2,3.36c.65,3.46,1.83,6.74,4.7,9.05a3.27,3.27,0,0,0,3.92.18c1.33-.77,2-1.92,1.88-4.28-1.24-2.2-2.24-5.39-4.55-7.83A3.23,3.23,0,0,0,752.16,317.23Z"/><path class="a5c045cb-49ff-4826-9f04-688c17c5febc" d="M651.58,350.71a5.27,5.27,0,0,0-1.91-.86c-3.1-.1-5.26,2.7-3.91,4.89a36.81,36.81,0,0,0,5.55,6.73,3.53,3.53,0,0,0,5.11-.35,3.44,3.44,0,0,0,.38-4.71A61.11,61.11,0,0,0,651.58,350.71Z"/><path class="a5c045cb-49ff-4826-9f04-688c17c5febc" d="M478.82,301.89a3.27,3.27,0,0,0-3.72,1.29c-.91,1.2-1.12,3.43,0,4.4a42.15,42.15,0,0,0,7,5.36c2.3,1.3,5.1-.75,5.18-3.75a3.69,3.69,0,0,0-.48-1.64A18.39,18.39,0,0,0,478.82,301.89Z"/><path class="ac29b43c-138c-45f5-9066-ed37724fb133" d="M523.36,315.55c-.6-2.15-1.44-4.25-2.22-6.35a4.52,4.52,0,0,0-.81-1.32,4.06,4.06,0,0,0-4.68-1.14,3.26,3.26,0,0,0-2,4.26,62,62,0,0,0,3.25,8.15,3,3,0,0,0,3.55,1.53,12.2,12.2,0,0,0,2.89-1.77A13,13,0,0,0,523.36,315.55Z"/><path class="eb376a05-1dbd-4e80-885c-ebc840bd160b" d="M509.62,293c1.37-1.92,1.12-3.79-.44-5.15a3.87,3.87,0,0,0-5.22.33,28.14,28.14,0,0,0-3.77,4.31,10.57,10.57,0,0,0-1.1,2.82,4.13,4.13,0,0,0,2.08,3.95,3.1,3.1,0,0,0,3.86-.6A55.61,55.61,0,0,0,509.62,293Z"/><path class="aa9d54ce-edc4-4cef-98b0-a86604deda53" d="M453.32,307.08a10,10,0,0,0-5.69,5.11c-1.13,2.27,1.09,5.19,3.64,4.94,2.2-.22,6.45-3.77,7-5.83a5.79,5.79,0,0,0,.07-1A3.75,3.75,0,0,0,453.32,307.08Z"/><path class="eb376a05-1dbd-4e80-885c-ebc840bd160b" d="M425.75,298.4a3.5,3.5,0,0,0-3.69,1.41,3.22,3.22,0,0,0-.21,3.91,18.67,18.67,0,0,0,3,3.55,3.14,3.14,0,0,0,3.91.15,9.26,9.26,0,0,0,1.83-2.28C430.72,302.06,428.12,298.78,425.75,298.4Z"/><path class="e1103db1-6ce2-4857-ad61-47aea3371b73" d="M446,325.45c-.93.06-1.87.08-2.8.06a25.09,25.09,0,0,1-18-8.58c-2.13-2.47-4.31-5.66-7.58-5.66a1.42,1.42,0,0,0-1.11.38,1.56,1.56,0,0,0-.23,1.2c.86,8.37,8.24,13.68,15.71,16.06,5.77,1.84,11.8,1.71,17.74.94,1.21-.16,14-1.19,12.46-3.38C459.17,322.27,450.21,325.19,446,325.45Z"/><path class="e1103db1-6ce2-4857-ad61-47aea3371b73" d="M782.29,322.33c-.84-3.81-6.51-3.42-7.4.19-.39,1.57.78,3.74.81,5.42a34.17,34.17,0,0,1-1.68,9.92,22.37,22.37,0,0,1-7.34,11.37c-.74.56-1.59,1.17-1.73,2.09a2.21,2.21,0,0,0,1.86,2.27,5.31,5.31,0,0,0,3.13-.59,21.29,21.29,0,0,0,10-9.79A32,32,0,0,0,782.29,322.33Z"/><path class="e1103db1-6ce2-4857-ad61-47aea3371b73" d="M666.93,365.14c-.43.29-.86.57-1.3.83a29.27,29.27,0,0,1-8.79,3.07c-5.44,1.15-10.89,1.53-16.26-.21-4-1.28-8-3.54-12.05-2.64-1.07.23-2.26.9-2.32,2-.06.94.74,1.7,1.49,2.27,7.64,5.79,17.64,7.76,27,6.57,10.69-1.36,17.81-7.09,26.08-13.5a3.78,3.78,0,0,0,1.34-1.5,2.44,2.44,0,0,0-1.46-2.91,5.25,5.25,0,0,0-3.52,0C673.34,360.17,670.27,362.93,666.93,365.14Z"/><path class="e1103db1-6ce2-4857-ad61-47aea3371b73" d="M545,354.68a85,85,0,0,1-28.37-3.39,7,7,0,0,0-3.43-.5,2.29,2.29,0,0,0-2,2.45,3.21,3.21,0,0,0,1.37,1.7,38.34,38.34,0,0,0,23.53,7.23c7.3-.11,17.8-.63,23.55-5.61a2.27,2.27,0,0,0,.86-1.23,1.68,1.68,0,0,0-1.24-1.72,5.2,5.2,0,0,0-2.29,0A119.86,119.86,0,0,1,545,354.68Z"/><path class="aa11fb8c-3aa6-421d-8ee1-486161eb94ea" d="M419,351.17c-2.81,0-2.82,4.38,0,4.38S421.86,351.17,419,351.17Z"/><path class="aa11fb8c-3aa6-421d-8ee1-486161eb94ea" d="M423.65,351.73v.41a1.09,1.09,0,0,0,2.18,0v-.41A1.09,1.09,0,0,0,423.65,351.73Z"/><path class="aa11fb8c-3aa6-421d-8ee1-486161eb94ea" d="M424.74,358.63c-4.22,0-4.23,6.56,0,6.56S429,358.63,424.74,358.63Z"/><path class="aa11fb8c-3aa6-421d-8ee1-486161eb94ea" d="M750.31,378.7a2.79,2.79,0,0,0-2.74,2.74v.4a2.74,2.74,0,1,0,5.47,0v-.4A2.77,2.77,0,0,0,750.31,378.7Z"/><path class="aa11fb8c-3aa6-421d-8ee1-486161eb94ea" d="M747.87,387.53a1.64,1.64,0,0,0,0,3.28A1.64,1.64,0,0,0,747.87,387.53Z"/><path class="aa11fb8c-3aa6-421d-8ee1-486161eb94ea" d="M743.39,378.31a1.09,1.09,0,0,0,0,2.18A1.09,1.09,0,0,0,743.39,378.31Z"/><path class="aa11fb8c-3aa6-421d-8ee1-486161eb94ea" d="M746.65,372.74c-2.82,0-2.82,4.37,0,4.37S749.47,372.74,746.65,372.74Z"/><path class="aa11fb8c-3aa6-421d-8ee1-486161eb94ea" d="M737.29,386.85h-.41a1.1,1.1,0,0,0,0,2.19h.41A1.1,1.1,0,0,0,737.29,386.85Z"/><path class="aa11fb8c-3aa6-421d-8ee1-486161eb94ea" d="M554.15,383.19a1.1,1.1,0,0,0,0,2.19A1.1,1.1,0,0,0,554.15,383.19Z"/><path class="aa11fb8c-3aa6-421d-8ee1-486161eb94ea" d="M559.44,376.81c-2.81,0-2.82,4.37,0,4.37S562.26,376.81,559.44,376.81Z"/><path class="aa11fb8c-3aa6-421d-8ee1-486161eb94ea" d="M563.11,385.08a1.67,1.67,0,0,0-1.64,1.64v.41a1.64,1.64,0,0,0,3.28,0v-.41A1.67,1.67,0,0,0,563.11,385.08Z"/><path class="aa11fb8c-3aa6-421d-8ee1-486161eb94ea" d="M569.21,378.84c-2.81,0-2.82,4.38,0,4.38S572,378.84,569.21,378.84Z"/><path class="aa11fb8c-3aa6-421d-8ee1-486161eb94ea" d="M572.87,389.14c-4.22,0-4.23,6.56,0,6.56S577.1,389.14,572.87,389.14Z"/><path class="aa11fb8c-3aa6-421d-8ee1-486161eb94ea" d="M559.85,394.85a1.67,1.67,0,0,0-1.64,1.64v.41a1.64,1.64,0,0,0,3.28,0v-.41A1.65,1.65,0,0,0,559.85,394.85Z"/><path class="aa11fb8c-3aa6-421d-8ee1-486161eb94ea" d="M612.35,418.85a1.64,1.64,0,0,0,0,3.28A1.64,1.64,0,0,0,612.35,418.85Z"/><path class="aa11fb8c-3aa6-421d-8ee1-486161eb94ea" d="M618.86,412.75a1.64,1.64,0,0,0,0,3.28A1.64,1.64,0,0,0,618.86,412.75Z"/><path class="aa11fb8c-3aa6-421d-8ee1-486161eb94ea" d="M622.93,419.8c-3.52,0-3.52,5.46,0,5.46S626.45,419.8,622.93,419.8Z"/><path class="aa11fb8c-3aa6-421d-8ee1-486161eb94ea" d="M630.66,415.05a2.24,2.24,0,0,0-2.19,2.19v.41a2.19,2.19,0,0,0,4.38,0v-.41A2.22,2.22,0,0,0,630.66,415.05Z"/><path class="eb376a05-1dbd-4e80-885c-ebc840bd160b" d="M696.53,277.83a3.48,3.48,0,0,0-2.34-3.18,3.19,3.19,0,0,0-3.82.84,18.38,18.38,0,0,0-2.62,3.84,3.14,3.14,0,0,0,.89,3.81,8.87,8.87,0,0,0,2.68,1.15C694.32,283.59,696.8,280.21,696.53,277.83Z"/><path class="a6628388-5576-44fc-aaea-8c512f4b867c" d="M601,283.1a17.94,17.94,0,0,0,4.11.69c9.27.33,16-4.05,20.88-11.59a29.35,29.35,0,0,0,4.5-18.49c-.16-2.09-.22-4.19-.49-6.27a27.74,27.74,0,0,0-1.09-5.1c-.84-2.58-2.55-3.39-5.27-2.74-1.87.44-3.71,1-5.59,1.34a59.65,59.65,0,0,1-26.45-.75,5.36,5.36,0,0,0-6.33,2.49,11.86,11.86,0,0,0-1.57,3.82,39.93,39.93,0,0,0,0,19.16A25.94,25.94,0,0,0,601,283.1Zm6.92-8a10.32,10.32,0,0,1-8.37-2,66,66,0,0,1-5.63-5.35,8.18,8.18,0,0,1-1-2.22c5.12-.16,9.63-.12,14.11-.49s8.84-1.12,13.61-1.76C618.36,269.64,614.62,274,607.87,275.07Zm-15.66-25.58a74.05,74.05,0,0,0,29.63-1.3c.12,2,.19,3.36.26,4.58-6,3.91-20.8,5.42-30.43,3.16A7.35,7.35,0,0,1,592.21,249.49Z"/><path class="a6628388-5576-44fc-aaea-8c512f4b867c" d="M836.59,290a225.85,225.85,0,0,0-4.65-26.23A165.06,165.06,0,0,0,825.78,244c-.68-1.86-.91-3.87-1.56-5.73-3.15-9-6.06-17.21-9.72-24.79-.73-1.5-1.68-2.9-2.39-4.41-3-6.39-6.07-13.09-10-19.25a292.33,292.33,0,0,0-33.54-41.45c-6.17-6.16-13.39-11.51-20.42-17.12-6.2-4.94-12.8-10.67-21.29-16-14.53-9.15-32-16.88-48.18-22.55a229,229,0,0,0-25.53-7.54l-2-.43c.06-.24.12-.48.2-.71a40.1,40.1,0,0,0,1.45-17.64,23.13,23.13,0,0,0-3.66-10.81c-3.63-5.16-8.69-6.77-14.7-4.75a25.41,25.41,0,0,0-8.87,5.43A117.23,117.23,0,0,1,608.7,68.61a21.88,21.88,0,0,1-3.08,1.22c-.35-3.55-.51-6.69-1-9.77a56.84,56.84,0,0,0-2.14-9.15,7.2,7.2,0,0,0-6.11-5.14c-7.41-.7-14.3,1-20.13,5.76-4.21,3.45-5.73,8-2.44,13.53,1.6,2.7,3.3,5.35,4.84,8.09a19.7,19.7,0,0,1,2.79,6.73l-.72.39q-3.56.32-6.88.69a199.6,199.6,0,0,0-22.76,4c-1.69.39-1.82-.17-3.52.22a241,241,0,0,0-25.64,7.17,222.24,222.24,0,0,0-24.56,10.32,223.87,223.87,0,0,0-23.48,12.59c-7.56,4.76-14.55,10.41-21.39,15.87a240.18,240.18,0,0,0-20,17.54c-5.59,5.59-12.26,12.15-18.15,19.53-4.68,5.85-8.58,12.3-12.43,18.47-.77,1.24-1.35,2.61-2.13,3.85-5.49,8.72-10.19,15.79-13.62,22.88a236.9,236.9,0,0,0-10.65,24.48,235.83,235.83,0,0,0-7.22,25.71c-2.16,9.5-3.07,19.13-3.88,26.38A240.68,240.68,0,0,0,363,316.56c0,9.27,0,18.26.93,26.63a237.21,237.21,0,0,0,4.77,26.23l.08.35a234.6,234.6,0,0,0,7.14,25.3c2.55,7.28,6,14.7,10.7,24.39A242.75,242.75,0,0,0,399.17,443a239.85,239.85,0,0,0,15.53,21.64,224.46,224.46,0,0,0,37.9,37.22c5.69,4.55,13.08,10.67,21.36,15.88a225.06,225.06,0,0,0,48.17,22.41c.15,0,.17,0,.33,0,32.73,11.41,70,16.66,104.55,12.81s70.19-16.71,99.74-35.31a244,244,0,0,0,41.68-33.06,239.07,239.07,0,0,0,17.53-20A229.19,229.19,0,0,0,801.59,443c5.1-8.09,8.76-16,12.41-23.55a233.89,233.89,0,0,0,10.11-24.5c.42-1.19.43-1.27.85-2.45A233.21,233.21,0,0,0,836.59,290ZM671.48,116.4a17.36,17.36,0,0,0,1.32-16.09c-.1-.27-.22-.51-.34-.77l3.44,1.22a202.26,202.26,0,0,1,21.28,8.85,251,251,0,0,1,24.62,13.72c8.32,5.24,15.23,9.54,21.25,14.34a270,270,0,0,1,36.34,36.17c5.12,6.42,10.72,13.25,15.36,20.62,3.6,5.72,6,12.09,9,18.53.73,1.53,2.05,2.78,2.78,4.3,3.51,7.28,6.23,15.24,9.26,23.9.66,1.88,1.75,3.62,2.44,5.51,1.16,3.2,2.23,6.48,3.21,9.8a19,19,0,0,0-7.41,1.36c-2.74,1.12-5.5,2.24-8.15,3.55-5.26,2.61-10.09,1.86-14.71-1.5-2.11-1.54-4.25-3.06-6.47-4.43a12.59,12.59,0,0,0-7.09-1.81,9.46,9.46,0,0,0-1.46.1,43.34,43.34,0,0,0-14,5.28,102.63,102.63,0,0,0-22.6-12.18c-13.89-5.31-27.94-9.94-42.67-12.29-1.69-.27-3.46-.41-4.84-1.69.52-5.48,1.2-10.85,1.5-16.25.22-3.74.32-7.49.36-11.24,2.82-.7,5.17-2.07,5.41-4.78.41-4.71-2.1-7.59-5.62-9.16-.1-2.51-.22-5-.31-7.46.44-.29.58-.46.73-.47.7,0,1.4,0,2.09-.05,5.89-.26,7.52-1.58,7.63-7.56a70.08,70.08,0,0,0-1-15.13,49.46,49.46,0,0,0-23.27-33.44,53.57,53.57,0,0,0-5.48-3.07c-2-.93-4.08-1.61-6.32-2.46C669.13,119.85,670.41,118.19,671.48,116.4ZM780.67,351.89c-4,6.8-16.56,11.18-23.56,9.37a132.31,132.31,0,0,0-14.37-2.86c-5.18-.75-10.42-1.14-15.64-1.55-3.48-.27-7-.43-10.47-.37a54.79,54.79,0,0,0-18.47,3.38,64.46,64.46,0,0,0-19.92,11.4,41.81,41.81,0,0,1-18.42,9.54,41.07,41.07,0,0,1-21.72-.74,74.09,74.09,0,0,1-18.28-9,78.89,78.89,0,0,0-15.37-7.83,10.92,10.92,0,0,1-2.89-1.19c-3.7-2.8-8.08-3.34-12.42-3.44-5.22-.11-10.46.32-15.69.58-5.8.29-11.31,2-16.9,3.39-7.46,1.82-15,3.42-22.76,3.18A63.67,63.67,0,0,1,504.7,358a37.86,37.86,0,0,1-5.5-4c-4.48-3.64-8.85-7.4-13.35-11-8.27-6.64-17.78-8.56-28.11-7.12a75.28,75.28,0,0,1-16.71.77,38.3,38.3,0,0,1-21-8.71,20,20,0,0,1-4.14-5.33A26.92,26.92,0,0,1,412.54,301a42.1,42.1,0,0,1,8.73-16.68A21.31,21.31,0,0,1,423,286c6.78,8,15.55,10.86,25.77,9.89,2.78-.26,5.54-.67,8.33-.94a9.43,9.43,0,0,1,2.54.13c9.84,1.86,18.69-.74,26.9-6a10.07,10.07,0,0,0,5-8.11c.43-6.1,1.19-12.18,1.71-18.27.24-2.77.25-5.57.38-8.76,1.12.26,1.91.42,2.68.62a9.88,9.88,0,0,1,1,.41c10.18,4.09,9.44,4.41,21.53.17,2.6-.92,5.09-2.15,8-3.38.77,6.15,1.6,11.84,2.17,17.56a199.51,199.51,0,0,0,3.12,22.31,10.13,10.13,0,0,1-.22,6.18c-1.34,3.36-.06,6.16,2.29,8.57a28.63,28.63,0,0,0,12.43,7.53,141.44,141.44,0,0,0,14.76,3.54c9.8,1.76,19.69,2.78,29.64,3.56a243,243,0,0,0,30.4.63c13.79-.64,27.55-2,40.58-7.15,2.76-1.1,5.52-2.2,8.19-3.49a9.46,9.46,0,0,0,5.28-6.19c.27-1,.64-2.25.25-3-1.07-2.19-.22-4,.36-6.05,3.87-13.24,7.68-26.51,11.52-39.76.23-.79.55-1.56.85-2.39.78.12,1.39,0,1.75.28,4.44,3.15,7.63,7.12,8.4,12.72.47,3.46.79,7,1.6,10.34a28.36,28.36,0,0,0,3,7.76,45.85,45.85,0,0,0,29,21.71,22.31,22.31,0,0,0,7.78.3c4.86-.52,9.71-1.27,14.51-2.2,6.94-1.33,12.22,1.52,16.88,6.2a25,25,0,0,0,2.48,2.65,3.89,3.89,0,0,0,6.29-2.72,12.62,12.62,0,0,0-.76-5.63,49.33,49.33,0,0,0-4.8-9.27,84.42,84.42,0,0,0-29.93-26.54,48.18,48.18,0,0,0-14.8-5.07,26.47,26.47,0,0,1-5.55-1.5A84.92,84.92,0,0,1,708.1,254a39.81,39.81,0,0,1-9.48-9.31c.75-.32,1.18-.69,1.54-.63a70.72,70.72,0,0,1,8.73,1.64c12.22,3.63,24.43,7.25,35.93,12.92a73.4,73.4,0,0,1,14.26,8.76c1.76,1.44,3.52,2.87,5.32,4.26,13,10,20.05,23.48,23.14,39.29.73,3.77,1.24,7.58,1.83,11.38.87,5.7-.65,11.09-2.32,16.41A64.63,64.63,0,0,1,780.67,351.89ZM782,362.5a54.59,54.59,0,0,1-2.25,5.52c-5.74,12-15.6,21.39-26.57,28.65C722.55,417,688.94,421.45,653.12,426a358.51,358.51,0,0,1-56.83,2.36,805.76,805.76,0,0,1-99.37-9.62c-21.87-3.49-38.65-9.65-57.34-22C428.61,389.41,418.75,380,413,368a57,57,0,0,1-3.54-38.33c.41.6.83,1.18,1.27,1.74,8.74,11.18,25.12,15,38.72,14.17,3.66-.23,7.3-.77,10.93-1.27a25.67,25.67,0,0,1,20.15,5.42c3.57,2.82,7.36,5.42,10.56,8.61,6.93,6.91,15.5,10.65,24.61,13.35a69.56,69.56,0,0,0,26.5,2.26,113.8,113.8,0,0,0,21-4.29c7.13-2.06,14.44-2.49,21.77-2.83,4.61-.22,9,1,13.25,2.72a94.21,94.21,0,0,1,16.32,8.31,89,89,0,0,0,20.59,10.21c15.38,5,29.65,2.42,43.08-6.08a42.06,42.06,0,0,0,5-3.79A58,58,0,0,1,697,369.65a46.91,46.91,0,0,1,15.08-4c13.57-1.44,26.83.36,40,3.2a22.55,22.55,0,0,1,3.47,1.1c7.77,3.08,14.63-.7,21.29-3.95A23,23,0,0,0,782,362.5ZM441,270.61c3,.8,7.07,1.46,9.69,3.08a74.59,74.59,0,0,0,7.61,4.55,87.1,87.1,0,0,0,8.69,3,11.79,11.79,0,0,1-1.83,1.55A39.71,39.71,0,0,1,444,287.33a19.48,19.48,0,0,1-15.33-8.9,14.27,14.27,0,0,1-.13-15.16,18.18,18.18,0,0,1,4.36-5c.49-.4,5.9-3.67,5.91-3.62.44,2,.81,3.63,1.19,5.31.34,1.5,1.57,3.67,1,5.22-1.05,2.83-2.9-2.73-3.83.14S438.66,270,441,270.61Zm34.1,3.06c-2-.48-4.09-.92-6.16-1.21A27.73,27.73,0,0,1,457.33,268c-2.46-1.62-5.05-3-7.72-4.63-1.79-6.86-4.33-21.06-4.25-24a13.31,13.31,0,0,1,11.77-2.14c5.22,1.36,10.49,2.66,16,2.68,4.18,0,8.36.22,12.4-1.18.79,4.52-1.05,31.63-2.88,43.32a9,9,0,0,1-5.64,2.55c.63-1.22,1.07-2.26,1.66-3.2C480.59,278.3,478.69,274.51,475.1,273.67Zm-.74-42.24c-1.63-.2-3.26-.39-4.89-.61-.17-3-.44-6-.81-8.93,3.65-.25,7.31-.54,11-.73,2.59-.13,5.19,0,8.13,0,.55,2.27-.35,4.36-.45,6.15A15.56,15.56,0,0,1,474.36,231.43Zm-14-9c.3,2.31.51,4.62.66,6.94l-.54-.12c-5.68-1.37-11-1.18-16.25,1.51a5.69,5.69,0,0,1-1.3.28,5,5,0,0,1-.67-1.13c-.35-1.7-.66-3.42-1-5.22,2-1.43,4.31-1.4,6.53-1.54C452,222.85,456.14,222.63,460.32,222.4Zm34.21,19.7c4.55-2.14,20.77-5.46,25.92-5.38a8.41,8.41,0,0,1-1.43,2,33.84,33.84,0,0,1-14.47,5.76C501.24,245,498,244.28,494.53,242.1Zm49.8-14.66c2.45,5.61,7.2,8.5,13,9.09a86.69,86.69,0,0,0,26-1.35,8.92,8.92,0,0,0,5.54-3.22,66.85,66.85,0,0,0,4.67-6.82,59.14,59.14,0,0,0,3.25-7,10.66,10.66,0,0,1,7.26-6.46,14.21,14.21,0,0,1,8.56,0,10.66,10.66,0,0,1,7.26,6.46,59.14,59.14,0,0,0,3.25,7,65.37,65.37,0,0,0,4.68,6.82,8.88,8.88,0,0,0,5.53,3.22,86.69,86.69,0,0,0,26,1.35c5.78-.59,10.53-3.48,13-9.09,1.9-4.34,3.57-8.79,5.33-13.2,1.33-3.34,1.74-7.37,5.81-8a8.94,8.94,0,0,1,1.72-.09c0,2.73-.12,5.47-.25,8.21-.35,7.49-1.26,15-2.35,22.4a181.46,181.46,0,0,1-3.76,18.47c-2.17,8.46-4.73,16.81-7.15,25.2-.82,2.85-1.67,5.7-2.61,8.51-1.17,3.47-2.45,6.9-3.67,10.35-.58,1.64-1.14,3.28-1.8,5.15a66.77,66.77,0,0,1-17.64,5.79,177.33,177.33,0,0,1-39.14,3c-17.63-.68-35.25-2-52.5-6.11-3.72-.9-7.44-1.83-10.86-4.05-.19-1.5-.3-3-.61-4.55s-1-3-1.26-4.54c-1-5.31-2.25-10.6-2.92-16-1.46-11.62-2.69-23.27-3.88-34.92-.64-6.29-1.27-12.36-1.31-18.72l-.09-19c3.52,1.65,4.33,5.58,5.65,8.87C540.76,218.65,542.43,223.1,544.33,227.44Zm134.28-38.21c-1.85,0-3.69.32-5.58.27-4.68-.11-9.35-.39-14-.67s-9.08-.48-13.63-.73-9.08-.63-13.62-.77c-15.7-.48-31.17-.48-46.88,0-4.54.14-9.08.52-13.62.77s-9.09.45-13.63.73-9.29.56-13.94.67c-3.48.08-6.94,0-10.4,0,0-.8,0-1.6,0-2.41a10.26,10.26,0,0,1,.33-1.73,28.65,28.65,0,0,1,3.37-1c10.19-1.83,19.93-5.19,29.56-8.82a83.06,83.06,0,0,0,25.27-15.66c.39-.34.84-.61,1.57-1.13a14.63,14.63,0,0,1,2.79,1.87c1.56,1.65,2.87,3.53,4.4,5.21,6.13,6.69,13.67,11.37,21.87,15.07a19.05,19.05,0,0,0,10.27,1.34,10.28,10.28,0,0,0,8.7-6.65,27.58,27.58,0,0,0,1.21-4.54c.8-3.4,1.5-6.82,3.71-10.54A84.44,84.44,0,0,0,664.16,174c6.34,3.46,13.31,5.19,20.35,7.56a15.22,15.22,0,0,1,.73,3.37c0,1.65,0,3.3,0,5C683,189.87,680.81,189.22,678.61,189.23Zm59.82,94.93a3.91,3.91,0,0,0-1.72-1.67q-5.84-3.72-11.68-7.43a4.52,4.52,0,0,1-1.69-1.55c-2-3.81,8.38-.35,9.72.11a61.85,61.85,0,0,1,11.87,5.52c7,4.17,13.5,9.65,18,16.46a69,69,0,0,0-19.86,1.94c-9.74,2.16-17.44-1.94-24.51-7.74a45.57,45.57,0,0,1-6.91-7.85c-.93-1.22-5.79-9.84-.85-8.51a5,5,0,0,1,2,1.36c2.87,2.7,5.76,5.53,9.39,7.07,4.52,1.92,9.8,1.65,14.19,3.86a2.13,2.13,0,0,0,1.1.33C738.34,286,738.73,284.92,738.43,284.16ZM580.74,59.33c3.51-4.2,8.39-4.78,13.27-5.29,2.94,6.22,3.76,24.3,1.6,34.64h-4c-1.08-5.24-1-10.59-3.39-15.3S583.37,64.22,580.74,59.33ZM553.56,99.6a55.73,55.73,0,0,1,8.19-3.47c3.71-1.28,7.52-2.24,11.24-3.48,2.06-.69,3.86-2.12,6-2.6s5.37,1.29,2.49,3.33a6.65,6.65,0,0,0-.86.61c-3.23,3.39,5.73,4.43,6.81,4.48a61.43,61.43,0,0,0,10.68-.09A20.69,20.69,0,0,0,608,94.7c1-.74,2-2,1.43-3.09s-2-1.13-3.06-1.61c-3.77-1.64-1.09-8-.71-11,3-1.48,6-2.85,8.86-4.41a85.23,85.23,0,0,0,16.62-11.84,16.56,16.56,0,0,1,6.17-3.86c2-.61,3.41-.35,4.54,1.36a12.38,12.38,0,0,1,1.7,3.78,31.41,31.41,0,0,1-1.81,21,64,64,0,0,1-8,12.72c-1,1.24-2.58,4.06-1.18,5.41,1,1,3.7.34,4.8-.12,3.27-1.35,5.7-3.95,9.13-5.09a30.84,30.84,0,0,1,10-1.23c5.91,0,10.73,8.39,8.54,13.07a24.07,24.07,0,0,1-2.29,4.09c-3.57,4.8-8.49,8.6-13.39,11.91-1,.69-2.14,1.24-3.09,2a4.55,4.55,0,0,0-1.82,3.1,1.6,1.6,0,0,0,.41,1.27,1.86,1.86,0,0,0,.62.33,8.38,8.38,0,0,0,5.07-.17,39.19,39.19,0,0,1,5-1.4c6.61-.95,12-.85,18,2.64,11.38,6.64,18.44,16.36,21.06,29.26a48.27,48.27,0,0,1,.52,12.07c-2.1-.44-3.48-.62-4.8-1-5.36-1.55-10.82-2.85-16-4.8a55.9,55.9,0,0,1-23.82-17.46c-.33-.41-.52-.93-.86-1.32a3.71,3.71,0,0,0-5.17-.61,14.65,14.65,0,0,0-2.84,3A43.57,43.57,0,0,0,634.28,169c-.35,1.53-.48,3.12-1.87,4.48a10.08,10.08,0,0,1-7.4-.78c-7.81-3.73-15-8.34-20.35-15.29a84.16,84.16,0,0,1-8.23-12.09c-1-1.8-2-3.77-3.78-4.68a2.66,2.66,0,0,0-2.62,0c-.95.63-1.09,1.95-1.08,3.09a30.14,30.14,0,0,1,0,4.25c-.41,3.42-2.85,5.68-5.39,7.72a79.45,79.45,0,0,1-26.12,14.12c-4.83,1.51-9.64,3.05-14.48,4.54A62.66,62.66,0,0,1,528,176.79c-1.9.11-3.86.3-5.79-.88a14.63,14.63,0,0,1,0-2.88,46.06,46.06,0,0,1,4.9-12.66c3.26-6.14,8-17.34,15.83-18.14a41.45,41.45,0,0,1,6.1.08,55.63,55.63,0,0,0,10-.43,6.26,6.26,0,0,0,2.94-.94,2.3,2.3,0,0,0,.87-2.73,3.36,3.36,0,0,0-2.63-1.35c-6.74-1.07-12.31-1.41-17.72-5.77-4.55-3.67-6.57-9.67-3.94-15.17C541.89,109,546.69,103.28,553.56,99.6ZM383.69,240.76c2.83-8.07,7.15-15.46,10.92-23.26a229.54,229.54,0,0,1,12.75-22.18c.79-1.25,1.46-2.57,2.24-3.83,3.72-6,6.95-12.55,11.3-18,5.63-7,12.17-13.34,17.59-18.76a233,233,0,0,1,19.39-16.81,230.63,230.63,0,0,1,20.75-15.07A227.69,227.69,0,0,1,501,110.2c6.58-3.17,14.17-5.5,24-9,7-2.45,14-4.8,20.06-6.46a44.07,44.07,0,0,0-14.37,17.69c-3.1,6.61-2.5,13.26,1.17,19.59.69,1.18,1.47,2.31,2.29,3.58-.93,1.12-1.81,2.2-2.71,3.25a95.6,95.6,0,0,0-14.18,22,49.56,49.56,0,0,0-3.82,11.95c-1.32,7.37.73,10.43,7.91,12.13,1.14.27,2.29.46,3.72.74-.07,1.65-.14,3.29-.2,4.92-.8.22-1.6.46-2.37.75a7.37,7.37,0,0,0-3.6,2.37c-1.09,1.54-1,3.61-.76,5.48a6.88,6.88,0,0,0,1.38,3.69,4.31,4.31,0,0,0,1.62,1.11,9.7,9.7,0,0,0,3.16.62l-.06,1.65c-.26,6.95,1,13.89.37,21.31-9.9,0-19.11,2.95-28.84,4.41a32.61,32.61,0,0,1,.64-11.46,20.16,20.16,0,0,0,3.52-1.77,3.57,3.57,0,0,0,1.28-4.21,4,4,0,0,0-3.38-2.9,14.21,14.21,0,0,0-2.61-.05c-2.27.13-4.54.32-6.81.46-6.26.41-12.51.8-19.24,1.22.58-1.66,1-3,1.47-4.2,1.94-4.69,3.92-9.35,5.86-14a15.73,15.73,0,0,0,1-3,4.1,4.1,0,0,0-2.75-5,4.06,4.06,0,0,0-4.94,1.88,29.79,29.79,0,0,0-1.65,3.84q-3.45,8.77-6.91,17.56c-.44,1.1-1,2.16-1.48,3.13-.76.14-1.27.28-1.79.33-6.08.66-12.17,1.21-18.23,2-3.63.46-7.25,1.14-10.83,1.9a3.48,3.48,0,0,0-3,3.74,3.78,3.78,0,0,0,3.31,3.54c1.3.25,2.65.35,4,.52.9,7.22,2.79,13.93,3.77,21-7.28,3.05-12.88,7.14-16.17,12.66a20.69,20.69,0,0,0-9.48-1.83,26.35,26.35,0,0,0-13.89,4.06A13.33,13.33,0,0,1,385,262.75a67.17,67.17,0,0,0-6.87-1.92A197.82,197.82,0,0,1,383.69,240.76Zm444,101.42c-3.28,34.11-15.72,67-33.93,95.88a223.57,223.57,0,0,1-14.67,21,221.4,221.4,0,0,1-57,51.22c-27.8,17.5-63.33,30.6-96,34.25a213.67,213.67,0,0,1-23.78,1.13c-1,0-1-.29-1.92-.29-7.52,0-15.62-1.09-25.55-2.19a237.78,237.78,0,0,1-96.31-32.74,227.91,227.91,0,0,1-20.64-15.25,216,216,0,0,1-50.73-57.28,229.17,229.17,0,0,1-12.65-22.26,206.7,206.7,0,0,1-17-48,2.68,2.68,0,0,1-.07-.27,220.82,220.82,0,0,1-3.87-25.32,242.22,242.22,0,0,1-.51-51.17c.68-6.11,1.63-13.9,3.23-21.8a18.15,18.15,0,0,1,2.38.45c1.84.54,3.66,1.15,5.47,1.78a17.16,17.16,0,0,0,11.82,0c2.44-.89,4.77-2.1,7.13-3.22,5.09-2.43,10.11-3.47,15-1.4a30,30,0,0,0-.19,9.38,42.39,42.39,0,0,1-3.05,3.16c-4.45,3.75-6.9,8.69-8.61,14.09-.47,1.5-.95,3-1.47,4.48a35.41,35.41,0,0,0,.09,22.45,3.89,3.89,0,0,0-1.05,1.59,65,65,0,0,0,.74,45.81c5.42,13.49,15.39,24.24,27,32.71,21.22,15.46,45.47,23,71.07,26.88A800.32,800.32,0,0,0,596.29,436c29.49,1,58.94-2,88-6.61,28.12-4.51,53.49-11.9,76.9-28.95,11.63-8.47,21.61-19.22,27-32.71a63.4,63.4,0,0,0,4.42-19.79,53.21,53.21,0,0,0,4.92-28.29,87.46,87.46,0,0,0-4.15-20.51c-3.78-11.25-9.45-21.36-18.31-29.53-1.91-1.76-3.85-3.45-5.84-5.09a32.76,32.76,0,0,1,6.59-2,7.73,7.73,0,0,1,6,1.18c1.72,1.18,3.33,2.53,5.06,3.7,6.88,4.68,14.15,5.42,21.81,2.12,3-1.31,6-2.7,9.16-3.84a8.85,8.85,0,0,1,5.9-.39,2.68,2.68,0,0,1,.07.27c1.79,7.86,2.23,15.87,3.3,25.45A248,248,0,0,1,827.72,342.18Z"/><path class="b5bd704e-450f-4a4e-bd49-34edc8bd6fe4" d="M666.05,208a2.67,2.67,0,0,0-.91.65A6.48,6.48,0,0,0,664,210.9a96.28,96.28,0,0,1-6.67,14.57,4.54,4.54,0,0,0-.71,1.91c-.15,3.42,5,2.52,6.21.61a36.57,36.57,0,0,0,5.79-16.72c.09-1.25-.06-2.83-1.23-3.29A1.8,1.8,0,0,0,666.05,208Z"/><path class="b5bd704e-450f-4a4e-bd49-34edc8bd6fe4" d="M585.41,208a2.67,2.67,0,0,0-.91.65,6.48,6.48,0,0,0-1.13,2.22,96.28,96.28,0,0,1-6.67,14.57,4.54,4.54,0,0,0-.71,1.91c-.15,3.42,5,2.52,6.21.61A36.57,36.57,0,0,0,588,211.27c.09-1.25-.06-2.83-1.23-3.29A1.8,1.8,0,0,0,585.41,208Z"/></svg>