<svg width="1198" height="566" viewBox="0 0 1198 566" fill="none" xmlns="http://www.w3.org/2000/svg">
<g clip-path="url(#clip0_2150_1919)">
<g opacity="0.12" filter="url(#filter0_f_2150_1919)">
<path d="M98.6639 229.067C99.583 148.396 227.457 84.4482 384.278 86.2349C541.1 88.0216 667.484 154.867 666.565 235.537C665.645 316.208 537.772 380.156 380.95 378.369C224.129 376.583 97.7448 309.738 98.6639 229.067Z" fill="url(#paint0_linear_2150_1919)" fill-opacity="0.6"/>
</g>
<g opacity="0.12" filter="url(#filter1_f_2150_1919)">
<path d="M649.994 96.2421C650.543 48.0596 726.919 9.86511 820.584 10.9322C914.25 11.9994 989.735 51.9241 989.186 100.107C988.637 148.289 912.262 186.484 818.596 185.416C724.931 184.349 649.445 144.425 649.994 96.2421Z" fill="url(#paint1_linear_2150_1919)" fill-opacity="0.6"/>
</g>
<g opacity="0.1" filter="url(#filter2_f_2150_1919)">
<path d="M238.366 77.0045C239.419 -15.4145 476.317 -87.6457 767.493 -84.3282C1058.67 -81.0108 1293.86 -3.4011 1292.81 89.0179C1291.75 181.437 1054.86 253.668 763.68 250.351C472.504 247.033 237.313 169.424 238.366 77.0045Z" fill="url(#paint2_linear_2150_1919)" fill-opacity="0.3"/>
</g>
<g opacity="0.12" filter="url(#filter3_f_2150_1919)">
<path d="M247.907 487.339C248.96 394.92 485.858 322.689 777.034 326.007C1068.21 329.324 1303.4 406.934 1302.35 499.353C1301.29 591.772 1064.4 664.003 773.221 660.686C482.045 657.368 246.854 579.759 247.907 487.339Z" fill="url(#paint3_linear_2150_1919)" fill-opacity="0.7"/>
</g>
<path d="M20.46 284.48V283.62L23.82 278.8H25.2V283.49H26.13V284.48H25.2V286H24.08V284.48H20.46ZM24.13 279.96L21.77 283.49H24.13V279.96ZM28.4746 284.63L27.2646 287.39H26.5246L27.2346 284.63H28.4746ZM29.3207 282.26C29.3207 281.107 29.514 280.207 29.9007 279.56C30.294 278.907 30.9674 278.58 31.9207 278.58C32.874 278.58 33.544 278.907 33.9307 279.56C34.324 280.207 34.5207 281.107 34.5207 282.26C34.5207 283.427 34.324 284.34 33.9307 285C33.544 285.653 32.874 285.98 31.9207 285.98C30.9674 285.98 30.294 285.653 29.9007 285C29.514 284.34 29.3207 283.427 29.3207 282.26ZM33.4007 282.26C33.4007 281.72 33.364 281.263 33.2907 280.89C33.224 280.517 33.084 280.213 32.8707 279.98C32.6574 279.74 32.3407 279.62 31.9207 279.62C31.5007 279.62 31.184 279.74 30.9707 279.98C30.7574 280.213 30.614 280.517 30.5407 280.89C30.474 281.263 30.4407 281.72 30.4407 282.26C30.4407 282.82 30.474 283.29 30.5407 283.67C30.6074 284.05 30.7474 284.357 30.9607 284.59C31.1807 284.823 31.5007 284.94 31.9207 284.94C32.3407 284.94 32.6574 284.823 32.8707 284.59C33.0907 284.357 33.234 284.05 33.3007 283.67C33.3674 283.29 33.4007 282.82 33.4007 282.26ZM35.727 282.26C35.727 281.107 35.9203 280.207 36.307 279.56C36.7003 278.907 37.3736 278.58 38.327 278.58C39.2803 278.58 39.9503 278.907 40.337 279.56C40.7303 280.207 40.927 281.107 40.927 282.26C40.927 283.427 40.7303 284.34 40.337 285C39.9503 285.653 39.2803 285.98 38.327 285.98C37.3736 285.98 36.7003 285.653 36.307 285C35.9203 284.34 35.727 283.427 35.727 282.26ZM39.807 282.26C39.807 281.72 39.7703 281.263 39.697 280.89C39.6303 280.517 39.4903 280.213 39.277 279.98C39.0636 279.74 38.747 279.62 38.327 279.62C37.907 279.62 37.5903 279.74 37.377 279.98C37.1636 280.213 37.0203 280.517 36.947 280.89C36.8803 281.263 36.847 281.72 36.847 282.26C36.847 282.82 36.8803 283.29 36.947 283.67C37.0136 284.05 37.1536 284.357 37.367 284.59C37.587 284.823 37.907 284.94 38.327 284.94C38.747 284.94 39.0636 284.823 39.277 284.59C39.497 284.357 39.6403 284.05 39.707 283.67C39.7736 283.29 39.807 282.82 39.807 282.26ZM42.1332 282.26C42.1332 281.107 42.3265 280.207 42.7132 279.56C43.1065 278.907 43.7799 278.58 44.7332 278.58C45.6865 278.58 46.3565 278.907 46.7432 279.56C47.1365 280.207 47.3332 281.107 47.3332 282.26C47.3332 283.427 47.1365 284.34 46.7432 285C46.3565 285.653 45.6865 285.98 44.7332 285.98C43.7799 285.98 43.1065 285.653 42.7132 285C42.3265 284.34 42.1332 283.427 42.1332 282.26ZM46.2132 282.26C46.2132 281.72 46.1765 281.263 46.1032 280.89C46.0365 280.517 45.8965 280.213 45.6832 279.98C45.4699 279.74 45.1532 279.62 44.7332 279.62C44.3132 279.62 43.9965 279.74 43.7832 279.98C43.5699 280.213 43.4265 280.517 43.3532 280.89C43.2865 281.263 43.2532 281.72 43.2532 282.26C43.2532 282.82 43.2865 283.29 43.3532 283.67C43.4199 284.05 43.5599 284.357 43.7732 284.59C43.9932 284.823 44.3132 284.94 44.7332 284.94C45.1532 284.94 45.4699 284.823 45.6832 284.59C45.9032 284.357 46.0465 284.05 46.1132 283.67C46.1799 283.29 46.2132 282.82 46.2132 282.26Z" fill="#B1A6B1"/>
<path d="M20.58 359.51C20.62 358.89 20.8567 358.407 21.29 358.06C21.73 357.713 22.29 357.54 22.97 357.54C23.4367 357.54 23.84 357.623 24.18 357.79C24.52 357.957 24.7767 358.183 24.95 358.47C25.1233 358.757 25.21 359.08 25.21 359.44C25.21 359.853 25.1 360.207 24.88 360.5C24.66 360.793 24.3967 360.99 24.09 361.09V361.13C24.4833 361.25 24.79 361.47 25.01 361.79C25.23 362.103 25.34 362.507 25.34 363C25.34 363.393 25.25 363.743 25.07 364.05C24.89 364.357 24.6233 364.6 24.27 364.78C23.9167 364.953 23.4933 365.04 23 365.04C22.28 365.04 21.6867 364.857 21.22 364.49C20.76 364.117 20.5133 363.583 20.48 362.89H21.58C21.6067 363.243 21.7433 363.533 21.99 363.76C22.2367 363.98 22.57 364.09 22.99 364.09C23.3967 364.09 23.71 363.98 23.93 363.76C24.15 363.533 24.26 363.243 24.26 362.89C24.26 362.423 24.11 362.093 23.81 361.9C23.5167 361.7 23.0633 361.6 22.45 361.6H22.19V360.66H22.46C23 360.653 23.41 360.563 23.69 360.39C23.9767 360.217 24.12 359.943 24.12 359.57C24.12 359.25 24.0167 358.997 23.81 358.81C23.6033 358.617 23.31 358.52 22.93 358.52C22.5567 358.52 22.2667 358.617 22.06 358.81C21.8533 358.997 21.73 359.23 21.69 359.51H20.58ZM27.9375 363.63L26.7275 366.39H25.9875L26.6975 363.63H27.9375ZM28.7836 361.26C28.7836 360.107 28.9769 359.207 29.3636 358.56C29.7569 357.907 30.4303 357.58 31.3836 357.58C32.3369 357.58 33.0069 357.907 33.3936 358.56C33.7869 359.207 33.9836 360.107 33.9836 361.26C33.9836 362.427 33.7869 363.34 33.3936 364C33.0069 364.653 32.3369 364.98 31.3836 364.98C30.4303 364.98 29.7569 364.653 29.3636 364C28.9769 363.34 28.7836 362.427 28.7836 361.26ZM32.8636 361.26C32.8636 360.72 32.8269 360.263 32.7536 359.89C32.6869 359.517 32.5469 359.213 32.3336 358.98C32.1203 358.74 31.8036 358.62 31.3836 358.62C30.9636 358.62 30.6469 358.74 30.4336 358.98C30.2203 359.213 30.0769 359.517 30.0036 359.89C29.9369 360.263 29.9036 360.72 29.9036 361.26C29.9036 361.82 29.9369 362.29 30.0036 362.67C30.0703 363.05 30.2103 363.357 30.4236 363.59C30.6436 363.823 30.9636 363.94 31.3836 363.94C31.8036 363.94 32.1203 363.823 32.3336 363.59C32.5536 363.357 32.6969 363.05 32.7636 362.67C32.8303 362.29 32.8636 361.82 32.8636 361.26ZM35.1898 361.26C35.1898 360.107 35.3832 359.207 35.7698 358.56C36.1632 357.907 36.8365 357.58 37.7898 357.58C38.7432 357.58 39.4132 357.907 39.7998 358.56C40.1932 359.207 40.3898 360.107 40.3898 361.26C40.3898 362.427 40.1932 363.34 39.7998 364C39.4132 364.653 38.7432 364.98 37.7898 364.98C36.8365 364.98 36.1632 364.653 35.7698 364C35.3832 363.34 35.1898 362.427 35.1898 361.26ZM39.2698 361.26C39.2698 360.72 39.2332 360.263 39.1598 359.89C39.0932 359.517 38.9532 359.213 38.7398 358.98C38.5265 358.74 38.2098 358.62 37.7898 358.62C37.3698 358.62 37.0532 358.74 36.8398 358.98C36.6265 359.213 36.4832 359.517 36.4098 359.89C36.3432 360.263 36.3098 360.72 36.3098 361.26C36.3098 361.82 36.3432 362.29 36.4098 362.67C36.4765 363.05 36.6165 363.357 36.8298 363.59C37.0498 363.823 37.3698 363.94 37.7898 363.94C38.2098 363.94 38.5265 363.823 38.7398 363.59C38.9598 363.357 39.1032 363.05 39.1698 362.67C39.2365 362.29 39.2698 361.82 39.2698 361.26ZM41.5961 361.26C41.5961 360.107 41.7894 359.207 42.1761 358.56C42.5694 357.907 43.2428 357.58 44.1961 357.58C45.1494 357.58 45.8194 357.907 46.2061 358.56C46.5994 359.207 46.7961 360.107 46.7961 361.26C46.7961 362.427 46.5994 363.34 46.2061 364C45.8194 364.653 45.1494 364.98 44.1961 364.98C43.2428 364.98 42.5694 364.653 42.1761 364C41.7894 363.34 41.5961 362.427 41.5961 361.26ZM45.6761 361.26C45.6761 360.72 45.6394 360.263 45.5661 359.89C45.4994 359.517 45.3594 359.213 45.1461 358.98C44.9328 358.74 44.6161 358.62 44.1961 358.62C43.7761 358.62 43.4594 358.74 43.2461 358.98C43.0328 359.213 42.8894 359.517 42.8161 359.89C42.7494 360.263 42.7161 360.72 42.7161 361.26C42.7161 361.82 42.7494 362.29 42.8161 362.67C42.8828 363.05 43.0228 363.357 43.2361 363.59C43.4561 363.823 43.7761 363.94 44.1961 363.94C44.6161 363.94 44.9328 363.823 45.1461 363.59C45.3661 363.357 45.5094 363.05 45.5761 362.67C45.6428 362.29 45.6761 361.82 45.6761 361.26Z" fill="#B1A6B1"/>
<path d="M21.23 444.45C21.87 443.897 22.3733 443.443 22.74 443.09C23.1133 442.73 23.4233 442.357 23.67 441.97C23.9167 441.583 24.04 441.197 24.04 440.81C24.04 440.41 23.9433 440.097 23.75 439.87C23.5633 439.643 23.2667 439.53 22.86 439.53C22.4667 439.53 22.16 439.657 21.94 439.91C21.7267 440.157 21.6133 440.49 21.6 440.91H20.5C20.52 440.15 20.7467 439.57 21.18 439.17C21.62 438.763 22.1767 438.56 22.85 438.56C23.5767 438.56 24.1433 438.76 24.55 439.16C24.9633 439.56 25.17 440.093 25.17 440.76C25.17 441.24 25.0467 441.703 24.8 442.15C24.56 442.59 24.27 442.987 23.93 443.34C23.5967 443.687 23.17 444.09 22.65 444.55L22.2 444.95H25.37V445.9H20.51V445.07L21.23 444.45ZM27.7715 444.63L26.5615 447.39H25.8215L26.5315 444.63H27.7715ZM28.6176 442.26C28.6176 441.107 28.8109 440.207 29.1976 439.56C29.5909 438.907 30.2642 438.58 31.2176 438.58C32.1709 438.58 32.8409 438.907 33.2276 439.56C33.6209 440.207 33.8176 441.107 33.8176 442.26C33.8176 443.427 33.6209 444.34 33.2276 445C32.8409 445.653 32.1709 445.98 31.2176 445.98C30.2642 445.98 29.5909 445.653 29.1976 445C28.8109 444.34 28.6176 443.427 28.6176 442.26ZM32.6976 442.26C32.6976 441.72 32.6609 441.263 32.5876 440.89C32.5209 440.517 32.3809 440.213 32.1676 439.98C31.9542 439.74 31.6376 439.62 31.2176 439.62C30.7976 439.62 30.4809 439.74 30.2676 439.98C30.0542 440.213 29.9109 440.517 29.8376 440.89C29.7709 441.263 29.7376 441.72 29.7376 442.26C29.7376 442.82 29.7709 443.29 29.8376 443.67C29.9042 444.05 30.0442 444.357 30.2576 444.59C30.4776 444.823 30.7976 444.94 31.2176 444.94C31.6376 444.94 31.9542 444.823 32.1676 444.59C32.3876 444.357 32.5309 444.05 32.5976 443.67C32.6642 443.29 32.6976 442.82 32.6976 442.26ZM35.0238 442.26C35.0238 441.107 35.2172 440.207 35.6038 439.56C35.9972 438.907 36.6705 438.58 37.6238 438.58C38.5772 438.58 39.2472 438.907 39.6338 439.56C40.0272 440.207 40.2238 441.107 40.2238 442.26C40.2238 443.427 40.0272 444.34 39.6338 445C39.2472 445.653 38.5772 445.98 37.6238 445.98C36.6705 445.98 35.9972 445.653 35.6038 445C35.2172 444.34 35.0238 443.427 35.0238 442.26ZM39.1038 442.26C39.1038 441.72 39.0672 441.263 38.9938 440.89C38.9272 440.517 38.7872 440.213 38.5738 439.98C38.3605 439.74 38.0438 439.62 37.6238 439.62C37.2038 439.62 36.8872 439.74 36.6738 439.98C36.4605 440.213 36.3172 440.517 36.2438 440.89C36.1772 441.263 36.1438 441.72 36.1438 442.26C36.1438 442.82 36.1772 443.29 36.2438 443.67C36.3105 444.05 36.4505 444.357 36.6638 444.59C36.8838 444.823 37.2038 444.94 37.6238 444.94C38.0438 444.94 38.3605 444.823 38.5738 444.59C38.7938 444.357 38.9372 444.05 39.0038 443.67C39.0705 443.29 39.1038 442.82 39.1038 442.26ZM41.4301 442.26C41.4301 441.107 41.6234 440.207 42.0101 439.56C42.4034 438.907 43.0767 438.58 44.0301 438.58C44.9834 438.58 45.6534 438.907 46.0401 439.56C46.4334 440.207 46.6301 441.107 46.6301 442.26C46.6301 443.427 46.4334 444.34 46.0401 445C45.6534 445.653 44.9834 445.98 44.0301 445.98C43.0767 445.98 42.4034 445.653 42.0101 445C41.6234 444.34 41.4301 443.427 41.4301 442.26ZM45.5101 442.26C45.5101 441.72 45.4734 441.263 45.4001 440.89C45.3334 440.517 45.1934 440.213 44.9801 439.98C44.7667 439.74 44.4501 439.62 44.0301 439.62C43.6101 439.62 43.2934 439.74 43.0801 439.98C42.8667 440.213 42.7234 440.517 42.6501 440.89C42.5834 441.263 42.5501 441.72 42.5501 442.26C42.5501 442.82 42.5834 443.29 42.6501 443.67C42.7167 444.05 42.8567 444.357 43.0701 444.59C43.2901 444.823 43.6101 444.94 44.0301 444.94C44.4501 444.94 44.7667 444.823 44.9801 444.59C45.2001 444.357 45.3434 444.05 45.4101 443.67C45.4767 443.29 45.5101 442.82 45.5101 442.26Z" fill="#B1A6B1"/>
<path d="M20.45 519.75V518.71H22.53V526H21.38V519.75H20.45ZM25.4961 524.63L24.2861 527.39H23.5461L24.2561 524.63H25.4961ZM26.3422 522.26C26.3422 521.107 26.5355 520.207 26.9222 519.56C27.3155 518.907 27.9889 518.58 28.9422 518.58C29.8955 518.58 30.5655 518.907 30.9522 519.56C31.3455 520.207 31.5422 521.107 31.5422 522.26C31.5422 523.427 31.3455 524.34 30.9522 525C30.5655 525.653 29.8955 525.98 28.9422 525.98C27.9889 525.98 27.3155 525.653 26.9222 525C26.5355 524.34 26.3422 523.427 26.3422 522.26ZM30.4222 522.26C30.4222 521.72 30.3855 521.263 30.3122 520.89C30.2455 520.517 30.1055 520.213 29.8922 519.98C29.6789 519.74 29.3622 519.62 28.9422 519.62C28.5222 519.62 28.2055 519.74 27.9922 519.98C27.7789 520.213 27.6355 520.517 27.5622 520.89C27.4955 521.263 27.4622 521.72 27.4622 522.26C27.4622 522.82 27.4955 523.29 27.5622 523.67C27.6289 524.05 27.7689 524.357 27.9822 524.59C28.2022 524.823 28.5222 524.94 28.9422 524.94C29.3622 524.94 29.6789 524.823 29.8922 524.59C30.1122 524.357 30.2555 524.05 30.3222 523.67C30.3889 523.29 30.4222 522.82 30.4222 522.26ZM32.7484 522.26C32.7484 521.107 32.9418 520.207 33.3284 519.56C33.7218 518.907 34.3951 518.58 35.3484 518.58C36.3018 518.58 36.9718 518.907 37.3584 519.56C37.7518 520.207 37.9484 521.107 37.9484 522.26C37.9484 523.427 37.7518 524.34 37.3584 525C36.9718 525.653 36.3018 525.98 35.3484 525.98C34.3951 525.98 33.7218 525.653 33.3284 525C32.9418 524.34 32.7484 523.427 32.7484 522.26ZM36.8284 522.26C36.8284 521.72 36.7918 521.263 36.7184 520.89C36.6518 520.517 36.5118 520.213 36.2984 519.98C36.0851 519.74 35.7684 519.62 35.3484 519.62C34.9284 519.62 34.6118 519.74 34.3984 519.98C34.1851 520.213 34.0418 520.517 33.9684 520.89C33.9018 521.263 33.8684 521.72 33.8684 522.26C33.8684 522.82 33.9018 523.29 33.9684 523.67C34.0351 524.05 34.1751 524.357 34.3884 524.59C34.6084 524.823 34.9284 524.94 35.3484 524.94C35.7684 524.94 36.0851 524.823 36.2984 524.59C36.5184 524.357 36.6618 524.05 36.7284 523.67C36.7951 523.29 36.8284 522.82 36.8284 522.26ZM39.1547 522.26C39.1547 521.107 39.348 520.207 39.7347 519.56C40.128 518.907 40.8014 518.58 41.7547 518.58C42.708 518.58 43.378 518.907 43.7647 519.56C44.158 520.207 44.3547 521.107 44.3547 522.26C44.3547 523.427 44.158 524.34 43.7647 525C43.378 525.653 42.708 525.98 41.7547 525.98C40.8014 525.98 40.128 525.653 39.7347 525C39.348 524.34 39.1547 523.427 39.1547 522.26ZM43.2347 522.26C43.2347 521.72 43.198 521.263 43.1247 520.89C43.058 520.517 42.918 520.213 42.7047 519.98C42.4914 519.74 42.1747 519.62 41.7547 519.62C41.3347 519.62 41.018 519.74 40.8047 519.98C40.5914 520.213 40.448 520.517 40.3747 520.89C40.308 521.263 40.2747 521.72 40.2747 522.26C40.2747 522.82 40.308 523.29 40.3747 523.67C40.4414 524.05 40.5814 524.357 40.7947 524.59C41.0147 524.823 41.3347 524.94 41.7547 524.94C42.1747 524.94 42.4914 524.823 42.7047 524.59C42.9247 524.357 43.068 524.05 43.1347 523.67C43.2014 523.29 43.2347 522.82 43.2347 522.26Z" fill="#B1A6B1"/>
<g filter="url(#filter4_b_2150_1919)">
<line x1="58" y1="442.5" x2="1182" y2="442.5" stroke="url(#paint4_linear_2150_1919)"/>
</g>
<g filter="url(#filter5_b_2150_1919)">
<line x1="58" y1="362.5" x2="1182" y2="362.5" stroke="url(#paint5_linear_2150_1919)"/>
</g>
<g filter="url(#filter6_b_2150_1919)">
<line x1="58" y1="282.5" x2="1182" y2="282.5" stroke="url(#paint6_linear_2150_1919)"/>
</g>
<g filter="url(#filter7_b_2150_1919)">
<path d="M753 42L753 522" stroke="url(#paint7_linear_2150_1919)" stroke-width="2"/>
</g>
<g filter="url(#filter8_b_2150_1919)">
<line x1="753" y1="202.5" x2="1182" y2="202.5" stroke="url(#paint8_linear_2150_1919)"/>
</g>
<g filter="url(#filter9_b_2150_1919)">
<line x1="753" y1="122.5" x2="1182" y2="122.5" stroke="url(#paint9_linear_2150_1919)"/>
</g>
<g filter="url(#filter10_b_2150_1919)">
<path d="M752 42.5L1182 42.5" stroke="url(#paint10_linear_2150_1919)"/>
</g>
<g filter="url(#filter11_b_2150_1919)">
<line x1="58" y1="522.5" x2="1182" y2="522.5" stroke="url(#paint11_linear_2150_1919)"/>
</g>
<g filter="url(#filter12_d_2150_1919)">
<path d="M58 523L159.954 441.085H210.931L278.9 416.611L332.376 441.085L384.352 396.132L426.333 318.213L479.809 283.749H549.277L594.257 318.213H650.232L690.713 283.749H753.185L835.648 201.335H915.612L993.076 123.916L1057.55 77.4641H1113.52L1148.01 43H1182" stroke="#2F98C5" stroke-width="2"/>
</g>
<g filter="url(#filter13_d_2150_1919)">
<path d="M1181.5 320H1147.5L1111 350.5H1058L993.5 376L915.5 442.5H834.5L752.5 411.5H691L648.5 465.5L593.5 442.5L549.5 465.5L481 442.5L428 486L384.5 501L333 491L210 509H160L60.5 523L58.5 523.5" stroke="#E38CDB" stroke-width="2"/>
</g>
<path style="mix-blend-mode:screen" d="M736.309 282.115C736.309 291.341 743.88 298.816 753.125 298.816C762.369 298.816 769.931 291.338 769.931 282.115C769.931 272.892 762.398 265.321 753.125 265.321C743.851 265.321 736.309 272.889 736.309 282.115Z" fill="url(#paint12_radial_2150_1919)"/>
<path style="mix-blend-mode:screen" d="M739.158 282.115C739.158 289.852 745.411 296.062 753.123 296.062C760.835 296.062 767.129 289.852 767.129 282.115C767.129 274.378 760.877 268.083 753.123 268.083C745.369 268.083 739.158 274.333 739.158 282.115Z" fill="url(#paint13_radial_2150_1919)"/>
<path style="mix-blend-mode:screen" d="M730 282.045C730 294.719 740.317 305 752.982 305C765.648 305 776 294.719 776 282.045C776 269.37 765.674 259 752.982 259C740.291 259 730 269.31 730 282.045Z" fill="url(#paint14_radial_2150_1919)" fill-opacity="0.6"/>
<path style="mix-blend-mode:screen" opacity="0.5" d="M741.456 282.044C741.456 288.369 746.646 293.492 752.982 293.492C759.318 293.492 764.502 288.366 764.502 282.044C764.502 275.723 759.341 270.533 752.982 270.533C746.624 270.533 741.456 275.72 741.456 282.044Z" fill="url(#paint15_radial_2150_1919)"/>
<g style="mix-blend-mode:screen">
<path d="M752.983 289.606C748.792 289.606 745.408 286.239 745.408 282.045C745.408 277.803 748.781 274.425 752.983 274.425C757.187 274.425 760.583 277.838 760.583 282.045C760.583 286.233 757.18 289.606 752.983 289.606Z" fill="url(#paint16_radial_2150_1919)" style="mix-blend-mode:screen"/>
<path d="M752.983 289.606C748.792 289.606 745.408 286.239 745.408 282.045C745.408 277.803 748.781 274.425 752.983 274.425C757.187 274.425 760.583 277.838 760.583 282.045C760.583 286.233 757.18 289.606 752.983 289.606Z" stroke="#3D3E4D" stroke-width="4"/>
</g>
<path style="mix-blend-mode:screen" d="M736.309 411.115C736.309 420.341 743.88 427.816 753.125 427.816C762.369 427.816 769.931 420.338 769.931 411.115C769.931 401.892 762.398 394.321 753.125 394.321C743.851 394.321 736.309 401.889 736.309 411.115Z" fill="url(#paint17_radial_2150_1919)"/>
<path style="mix-blend-mode:screen" d="M739.158 411.115C739.158 418.852 745.411 425.062 753.123 425.062C760.835 425.062 767.129 418.852 767.129 411.115C767.129 403.378 760.877 397.083 753.123 397.083C745.369 397.083 739.158 403.333 739.158 411.115Z" fill="url(#paint18_radial_2150_1919)"/>
<path style="mix-blend-mode:screen" d="M730 411.045C730 423.719 740.317 434 752.982 434C765.648 434 776 423.719 776 411.045C776 398.37 765.674 388 752.982 388C740.291 388 730 398.31 730 411.045Z" fill="url(#paint19_radial_2150_1919)" fill-opacity="0.6"/>
<path style="mix-blend-mode:screen" opacity="0.5" d="M741.456 411.044C741.456 417.369 746.646 422.492 752.982 422.492C759.318 422.492 764.502 417.366 764.502 411.044C764.502 404.723 759.341 399.533 752.982 399.533C746.624 399.533 741.456 404.72 741.456 411.044Z" fill="url(#paint20_radial_2150_1919)"/>
<g style="mix-blend-mode:screen">
<path d="M752.983 418.606C748.792 418.606 745.408 415.239 745.408 411.045C745.408 406.803 748.781 403.425 752.983 403.425C757.187 403.425 760.583 406.838 760.583 411.045C760.583 415.233 757.18 418.606 752.983 418.606Z" fill="url(#paint21_radial_2150_1919)" style="mix-blend-mode:screen"/>
<path d="M752.983 418.606C748.792 418.606 745.408 415.239 745.408 411.045C745.408 406.803 748.781 403.425 752.983 403.425C757.187 403.425 760.583 406.838 760.583 411.045C760.583 415.233 757.18 418.606 752.983 418.606Z" stroke="#3D3E4D" stroke-width="4"/>
</g>
<path style="mix-blend-mode:screen" d="M51.7432 522.05C51.7432 526.062 55.035 529.312 59.0545 529.312C63.0739 529.312 66.3616 526.06 66.3616 522.05C66.3616 518.04 63.0865 514.749 59.0545 514.749C55.0225 514.749 51.7432 518.039 51.7432 522.05Z" fill="url(#paint22_radial_2150_1919)"/>
<path style="mix-blend-mode:screen" d="M52.9824 522.05C52.9824 525.414 55.701 528.114 59.0541 528.114C62.4071 528.114 65.1438 525.414 65.1438 522.05C65.1438 518.686 62.4252 515.949 59.0541 515.949C55.6829 515.949 52.9824 518.667 52.9824 522.05Z" fill="url(#paint23_radial_2150_1919)"/>
<path style="mix-blend-mode:screen" opacity="0.5" d="M53.9805 522.02C53.9805 524.769 56.2372 526.997 58.9919 526.997C61.7467 526.997 64.0006 524.768 64.0006 522.02C64.0006 519.271 61.7565 517.015 58.9919 517.015C56.2274 517.015 53.9805 519.27 53.9805 522.02Z" fill="url(#paint24_radial_2150_1919)"/>
<g style="mix-blend-mode:screen">
<path d="M58.9929 524.177C57.7921 524.177 56.8301 523.216 56.8301 522.019C56.8301 520.794 57.7957 519.837 58.9929 519.837C60.1926 519.837 61.1668 520.811 61.1668 522.019C61.1668 523.209 60.2006 524.177 58.9929 524.177Z" fill="url(#paint25_radial_2150_1919)" style="mix-blend-mode:screen"/>
<path d="M58.9929 524.177C57.7921 524.177 56.8301 523.216 56.8301 522.019C56.8301 520.794 57.7957 519.837 58.9929 519.837C60.1926 519.837 61.1668 520.811 61.1668 522.019C61.1668 523.209 60.2006 524.177 58.9929 524.177Z" stroke="#3D3E4D" stroke-width="4"/>
</g>
<circle cx="753" cy="282" r="9" stroke="#2F98C5" stroke-width="4"/>
<circle cx="753" cy="411" r="9" stroke="#E38CDB" stroke-width="4"/>
<path d="M159.954 441.085L58 523H1182V43H1148.01L1113.52 77.4641H1057.55L993.076 123.916L915.612 201.335H835.648L753.185 283.749H690.713L650.232 318.213H594.257L549.277 283.749H479.809L426.333 318.213L384.352 396.132L332.376 441.085L278.9 416.611L210.931 441.085H159.954Z" fill="url(#paint26_linear_2150_1919)"/>
<path d="M160.5 509L61 523L59 523.5H1182V320H1148L1111.5 350.5H1058.5L994 376L916 442.5H835L753 411.5H691.5L649 465.5L594 442.5L550 465.5L481.5 442.5L428.5 486L385 501L333.5 491L210.5 509H160.5Z" fill="url(#paint27_linear_2150_1919)"/>
<g clip-path="url(#clip1_2150_1919)">
<path d="M792 227.5H978C984.351 227.5 989.5 232.649 989.5 239V325C989.5 331.351 984.351 336.5 978 336.5H792C785.649 336.5 780.5 331.351 780.5 325V239C780.5 232.649 785.649 227.5 792 227.5Z" fill="#252547" fill-opacity="0.9"/>
<path d="M792 227.5H978C984.351 227.5 989.5 232.649 989.5 239V325C989.5 331.351 984.351 336.5 978 336.5H792C785.649 336.5 780.5 331.351 780.5 325V239C780.5 232.649 785.649 227.5 792 227.5Z" fill="url(#paint28_linear_2150_1919)" fill-opacity="0.08"/>
<path d="M792 227.5H978C984.351 227.5 989.5 232.649 989.5 239V325C989.5 331.351 984.351 336.5 978 336.5H792C785.649 336.5 780.5 331.351 780.5 325V239C780.5 232.649 785.649 227.5 792 227.5Z" stroke="url(#paint29_linear_2150_1919)"/>
<g opacity="0.6" filter="url(#filter14_f_2150_1919)">
<path d="M952.458 266.014C952.711 243.915 978.885 226.295 1010.92 226.658C1042.95 227.021 1068.72 245.231 1068.47 267.33C1068.21 289.429 1042.04 307.05 1010 306.686C977.969 306.323 952.205 288.113 952.458 266.014Z" fill="url(#paint30_linear_2150_1919)" fill-opacity="0.6"/>
</g>
<g opacity="0.6" filter="url(#filter15_f_2150_1919)">
<path d="M834.676 364.13C823.008 308.83 773.803 272.405 724.774 282.772C675.746 293.14 645.459 346.374 657.128 401.675C668.797 456.975 718.001 493.401 767.03 483.033C816.059 472.665 846.345 419.431 834.676 364.13Z" fill="url(#paint31_linear_2150_1919)" fill-opacity="0.6"/>
</g>
</g>
<path d="M810.234 260.297C810.271 260.948 810.424 261.477 810.695 261.883C811.211 262.643 812.12 263.023 813.422 263.023C814.005 263.023 814.536 262.94 815.016 262.773C815.943 262.451 816.406 261.872 816.406 261.039C816.406 260.414 816.211 259.969 815.82 259.703C815.424 259.443 814.805 259.216 813.961 259.023L812.406 258.672C811.391 258.443 810.672 258.19 810.25 257.914C809.521 257.435 809.156 256.719 809.156 255.766C809.156 254.734 809.513 253.888 810.227 253.227C810.94 252.565 811.951 252.234 813.258 252.234C814.461 252.234 815.482 252.526 816.32 253.109C817.164 253.688 817.586 254.615 817.586 255.891H816.125C816.047 255.276 815.88 254.805 815.625 254.477C815.151 253.878 814.346 253.578 813.211 253.578C812.294 253.578 811.635 253.771 811.234 254.156C810.833 254.542 810.633 254.99 810.633 255.5C810.633 256.062 810.867 256.474 811.336 256.734C811.643 256.901 812.339 257.109 813.422 257.359L815.031 257.727C815.807 257.904 816.406 258.146 816.828 258.453C817.557 258.99 817.922 259.768 817.922 260.789C817.922 262.06 817.458 262.969 816.531 263.516C815.609 264.062 814.536 264.336 813.312 264.336C811.885 264.336 810.768 263.971 809.961 263.242C809.154 262.518 808.758 261.536 808.773 260.297H810.234ZM820.024 253.297H821.446V255.633H822.782V256.781H821.446V262.242C821.446 262.534 821.545 262.729 821.743 262.828C821.852 262.885 822.035 262.914 822.29 262.914C822.358 262.914 822.431 262.914 822.509 262.914C822.587 262.909 822.678 262.901 822.782 262.891V264C822.621 264.047 822.451 264.081 822.274 264.102C822.102 264.122 821.915 264.133 821.712 264.133C821.056 264.133 820.61 263.966 820.376 263.633C820.142 263.294 820.024 262.857 820.024 262.32V256.781H818.892V255.633H820.024V253.297ZM825.314 261.773C825.314 262.18 825.463 262.5 825.76 262.734C826.057 262.969 826.408 263.086 826.814 263.086C827.309 263.086 827.788 262.971 828.252 262.742C829.033 262.362 829.424 261.74 829.424 260.875V259.742C829.252 259.852 829.031 259.943 828.76 260.016C828.489 260.089 828.223 260.141 827.963 260.172L827.111 260.281C826.601 260.349 826.218 260.456 825.963 260.602C825.531 260.846 825.314 261.237 825.314 261.773ZM828.721 258.93C829.044 258.888 829.26 258.753 829.369 258.523C829.432 258.398 829.463 258.219 829.463 257.984C829.463 257.505 829.291 257.159 828.947 256.945C828.609 256.727 828.122 256.617 827.486 256.617C826.752 256.617 826.231 256.815 825.924 257.211C825.752 257.43 825.64 257.755 825.588 258.188H824.275C824.301 257.156 824.635 256.44 825.275 256.039C825.921 255.633 826.669 255.43 827.517 255.43C828.502 255.43 829.301 255.617 829.916 255.992C830.525 256.367 830.83 256.951 830.83 257.742V262.562C830.83 262.708 830.859 262.826 830.916 262.914C830.978 263.003 831.106 263.047 831.299 263.047C831.361 263.047 831.432 263.044 831.51 263.039C831.588 263.029 831.671 263.016 831.76 263V264.039C831.541 264.102 831.374 264.141 831.26 264.156C831.145 264.172 830.989 264.18 830.791 264.18C830.307 264.18 829.955 264.008 829.736 263.664C829.622 263.482 829.541 263.224 829.494 262.891C829.208 263.266 828.796 263.591 828.26 263.867C827.723 264.143 827.132 264.281 826.486 264.281C825.71 264.281 825.075 264.047 824.58 263.578C824.09 263.104 823.846 262.513 823.846 261.805C823.846 261.029 824.088 260.427 824.572 260C825.057 259.573 825.692 259.31 826.478 259.211L828.721 258.93ZM833.222 255.633H834.558V257.078C834.667 256.797 834.935 256.456 835.362 256.055C835.789 255.648 836.281 255.445 836.839 255.445C836.865 255.445 836.909 255.448 836.972 255.453C837.034 255.458 837.141 255.469 837.292 255.484V256.969C837.209 256.953 837.13 256.943 837.058 256.938C836.99 256.932 836.914 256.93 836.831 256.93C836.123 256.93 835.578 257.159 835.198 257.617C834.818 258.07 834.628 258.594 834.628 259.188V264H833.222V255.633ZM839.387 261.375C839.428 261.844 839.545 262.203 839.738 262.453C840.092 262.906 840.707 263.133 841.582 263.133C842.103 263.133 842.561 263.021 842.957 262.797C843.353 262.568 843.551 262.216 843.551 261.742C843.551 261.383 843.392 261.109 843.074 260.922C842.871 260.807 842.47 260.674 841.871 260.523L840.754 260.242C840.04 260.065 839.514 259.867 839.176 259.648C838.571 259.268 838.269 258.742 838.269 258.07C838.269 257.279 838.553 256.638 839.121 256.148C839.694 255.659 840.462 255.414 841.426 255.414C842.686 255.414 843.595 255.784 844.152 256.523C844.501 256.992 844.67 257.497 844.66 258.039H843.332C843.306 257.721 843.194 257.432 842.996 257.172C842.673 256.802 842.113 256.617 841.316 256.617C840.785 256.617 840.381 256.719 840.105 256.922C839.834 257.125 839.699 257.393 839.699 257.727C839.699 258.091 839.879 258.383 840.238 258.602C840.446 258.732 840.754 258.846 841.16 258.945L842.09 259.172C843.1 259.417 843.777 259.654 844.121 259.883C844.668 260.242 844.941 260.807 844.941 261.578C844.941 262.323 844.657 262.966 844.09 263.508C843.527 264.049 842.668 264.32 841.512 264.32C840.267 264.32 839.384 264.039 838.863 263.477C838.347 262.909 838.071 262.208 838.035 261.375H839.387Z" fill="#F9F9F9"/>
<path d="M813.625 307.672C814.151 307.672 814.583 307.617 814.922 307.508C815.526 307.305 816.021 306.914 816.406 306.336C816.714 305.872 816.935 305.279 817.07 304.555C817.148 304.122 817.188 303.721 817.188 303.352C817.188 301.93 816.904 300.826 816.336 300.039C815.773 299.253 814.865 298.859 813.609 298.859H810.852V307.672H813.625ZM809.289 297.523H813.938C815.516 297.523 816.74 298.083 817.609 299.203C818.385 300.214 818.773 301.508 818.773 303.086C818.773 304.305 818.544 305.406 818.086 306.391C817.279 308.13 815.891 309 813.922 309H809.289V297.523ZM823.954 308.094C824.886 308.094 825.524 307.742 825.868 307.039C826.217 306.331 826.392 305.544 826.392 304.68C826.392 303.898 826.267 303.263 826.017 302.773C825.621 302.003 824.938 301.617 823.97 301.617C823.11 301.617 822.485 301.945 822.095 302.602C821.704 303.258 821.509 304.049 821.509 304.977C821.509 305.867 821.704 306.609 822.095 307.203C822.485 307.797 823.105 308.094 823.954 308.094ZM824.009 300.391C825.087 300.391 825.998 300.75 826.743 301.469C827.488 302.188 827.86 303.245 827.86 304.641C827.86 305.99 827.532 307.104 826.876 307.984C826.22 308.865 825.201 309.305 823.821 309.305C822.67 309.305 821.756 308.917 821.079 308.141C820.402 307.359 820.063 306.312 820.063 305C820.063 303.594 820.42 302.474 821.134 301.641C821.847 300.807 822.806 300.391 824.009 300.391ZM830.228 300.633L831.838 307.227L833.471 300.633H835.049L836.689 307.188L838.4 300.633H839.807L837.377 309H835.916L834.213 302.523L832.564 309H831.103L828.689 300.633H830.228ZM841.182 300.633H842.518V301.82C842.914 301.331 843.334 300.979 843.776 300.766C844.219 300.552 844.711 300.445 845.253 300.445C846.44 300.445 847.242 300.859 847.659 301.688C847.888 302.141 848.003 302.789 848.003 303.633V309H846.573V303.727C846.573 303.216 846.498 302.805 846.347 302.492C846.097 301.971 845.643 301.711 844.987 301.711C844.654 301.711 844.38 301.745 844.167 301.812C843.781 301.927 843.443 302.156 843.151 302.5C842.917 302.776 842.763 303.062 842.69 303.359C842.623 303.651 842.589 304.07 842.589 304.617V309H841.182V300.633ZM850.168 297.523H851.574V309H850.168V297.523ZM857.052 308.094C857.984 308.094 858.622 307.742 858.966 307.039C859.315 306.331 859.489 305.544 859.489 304.68C859.489 303.898 859.364 303.263 859.114 302.773C858.718 302.003 858.036 301.617 857.067 301.617C856.208 301.617 855.583 301.945 855.192 302.602C854.802 303.258 854.606 304.049 854.606 304.977C854.606 305.867 854.802 306.609 855.192 307.203C855.583 307.797 856.203 308.094 857.052 308.094ZM857.106 300.391C858.184 300.391 859.096 300.75 859.841 301.469C860.585 302.188 860.958 303.245 860.958 304.641C860.958 305.99 860.63 307.104 859.973 307.984C859.317 308.865 858.299 309.305 856.919 309.305C855.768 309.305 854.854 308.917 854.177 308.141C853.499 307.359 853.161 306.312 853.161 305C853.161 303.594 853.518 302.474 854.231 301.641C854.945 300.807 855.903 300.391 857.106 300.391ZM863.756 306.773C863.756 307.18 863.904 307.5 864.201 307.734C864.498 307.969 864.849 308.086 865.256 308.086C865.75 308.086 866.23 307.971 866.693 307.742C867.474 307.362 867.865 306.74 867.865 305.875V304.742C867.693 304.852 867.472 304.943 867.201 305.016C866.93 305.089 866.664 305.141 866.404 305.172L865.553 305.281C865.042 305.349 864.659 305.456 864.404 305.602C863.972 305.846 863.756 306.237 863.756 306.773ZM867.162 303.93C867.485 303.888 867.701 303.753 867.81 303.523C867.873 303.398 867.904 303.219 867.904 302.984C867.904 302.505 867.732 302.159 867.388 301.945C867.05 301.727 866.563 301.617 865.928 301.617C865.193 301.617 864.672 301.815 864.365 302.211C864.193 302.43 864.081 302.755 864.029 303.188H862.717C862.743 302.156 863.076 301.44 863.717 301.039C864.362 300.633 865.11 300.43 865.959 300.43C866.943 300.43 867.743 300.617 868.357 300.992C868.967 301.367 869.271 301.951 869.271 302.742V307.562C869.271 307.708 869.3 307.826 869.357 307.914C869.42 308.003 869.547 308.047 869.74 308.047C869.803 308.047 869.873 308.044 869.951 308.039C870.029 308.029 870.112 308.016 870.201 308V309.039C869.982 309.102 869.816 309.141 869.701 309.156C869.586 309.172 869.43 309.18 869.232 309.18C868.748 309.18 868.396 309.008 868.178 308.664C868.063 308.482 867.982 308.224 867.935 307.891C867.649 308.266 867.237 308.591 866.701 308.867C866.164 309.143 865.573 309.281 864.928 309.281C864.151 309.281 863.516 309.047 863.021 308.578C862.532 308.104 862.287 307.513 862.287 306.805C862.287 306.029 862.529 305.427 863.013 305C863.498 304.573 864.133 304.31 864.92 304.211L867.162 303.93ZM872.514 304.914C872.514 305.81 872.704 306.56 873.085 307.164C873.465 307.768 874.074 308.07 874.913 308.07C875.564 308.07 876.098 307.792 876.514 307.234C876.936 306.672 877.147 305.867 877.147 304.82C877.147 303.763 876.931 302.982 876.499 302.477C876.066 301.966 875.533 301.711 874.897 301.711C874.189 301.711 873.613 301.982 873.171 302.523C872.733 303.065 872.514 303.862 872.514 304.914ZM874.632 300.484C875.272 300.484 875.809 300.62 876.241 300.891C876.491 301.047 876.775 301.32 877.092 301.711V297.484H878.444V309H877.178V307.836C876.85 308.352 876.462 308.724 876.014 308.953C875.566 309.182 875.053 309.297 874.475 309.297C873.543 309.297 872.736 308.906 872.053 308.125C871.371 307.339 871.03 306.294 871.03 304.992C871.03 303.773 871.34 302.719 871.96 301.828C872.585 300.932 873.475 300.484 874.632 300.484ZM881.406 306.375C881.448 306.844 881.565 307.203 881.757 307.453C882.112 307.906 882.726 308.133 883.601 308.133C884.122 308.133 884.58 308.021 884.976 307.797C885.372 307.568 885.57 307.216 885.57 306.742C885.57 306.383 885.411 306.109 885.093 305.922C884.89 305.807 884.489 305.674 883.89 305.523L882.773 305.242C882.06 305.065 881.534 304.867 881.195 304.648C880.591 304.268 880.289 303.742 880.289 303.07C880.289 302.279 880.573 301.638 881.14 301.148C881.713 300.659 882.481 300.414 883.445 300.414C884.705 300.414 885.614 300.784 886.172 301.523C886.521 301.992 886.69 302.497 886.679 303.039H885.351C885.325 302.721 885.213 302.432 885.015 302.172C884.692 301.802 884.132 301.617 883.336 301.617C882.804 301.617 882.401 301.719 882.125 301.922C881.854 302.125 881.718 302.393 881.718 302.727C881.718 303.091 881.898 303.383 882.257 303.602C882.466 303.732 882.773 303.846 883.179 303.945L884.109 304.172C885.119 304.417 885.797 304.654 886.14 304.883C886.687 305.242 886.961 305.807 886.961 306.578C886.961 307.323 886.677 307.966 886.109 308.508C885.547 309.049 884.687 309.32 883.531 309.32C882.286 309.32 881.403 309.039 880.882 308.477C880.367 307.909 880.091 307.208 880.054 306.375H881.406Z" fill="#F9F9F9"/>
</g>
<defs>
<filter id="filter0_f_2150_1919" x="-105.341" y="-117.802" width="975.911" height="700.208" filterUnits="userSpaceOnUse" color-interpolation-filters="sRGB">
<feFlood flood-opacity="0" result="BackgroundImageFix"/>
<feBlend mode="normal" in="SourceGraphic" in2="BackgroundImageFix" result="shape"/>
<feGaussianBlur stdDeviation="102" result="effect1_foregroundBlur_2150_1919"/>
</filter>
<filter id="filter1_f_2150_1919" x="445.991" y="-193.089" width="747.198" height="582.527" filterUnits="userSpaceOnUse" color-interpolation-filters="sRGB">
<feFlood flood-opacity="0" result="BackgroundImageFix"/>
<feBlend mode="normal" in="SourceGraphic" in2="BackgroundImageFix" result="shape"/>
<feGaussianBlur stdDeviation="102" result="effect1_foregroundBlur_2150_1919"/>
</filter>
<filter id="filter2_f_2150_1919" x="34.3623" y="-288.438" width="1462.45" height="742.898" filterUnits="userSpaceOnUse" color-interpolation-filters="sRGB">
<feFlood flood-opacity="0" result="BackgroundImageFix"/>
<feBlend mode="normal" in="SourceGraphic" in2="BackgroundImageFix" result="shape"/>
<feGaussianBlur stdDeviation="102" result="effect1_foregroundBlur_2150_1919"/>
</filter>
<filter id="filter3_f_2150_1919" x="43.9028" y="121.897" width="1462.45" height="742.898" filterUnits="userSpaceOnUse" color-interpolation-filters="sRGB">
<feFlood flood-opacity="0" result="BackgroundImageFix"/>
<feBlend mode="normal" in="SourceGraphic" in2="BackgroundImageFix" result="shape"/>
<feGaussianBlur stdDeviation="102" result="effect1_foregroundBlur_2150_1919"/>
</filter>
<filter id="filter4_b_2150_1919" x="10" y="394" width="1220" height="97" filterUnits="userSpaceOnUse" color-interpolation-filters="sRGB">
<feFlood flood-opacity="0" result="BackgroundImageFix"/>
<feGaussianBlur in="BackgroundImageFix" stdDeviation="24"/>
<feComposite in2="SourceAlpha" operator="in" result="effect1_backgroundBlur_2150_1919"/>
<feBlend mode="normal" in="SourceGraphic" in2="effect1_backgroundBlur_2150_1919" result="shape"/>
</filter>
<filter id="filter5_b_2150_1919" x="10" y="314" width="1220" height="97" filterUnits="userSpaceOnUse" color-interpolation-filters="sRGB">
<feFlood flood-opacity="0" result="BackgroundImageFix"/>
<feGaussianBlur in="BackgroundImageFix" stdDeviation="24"/>
<feComposite in2="SourceAlpha" operator="in" result="effect1_backgroundBlur_2150_1919"/>
<feBlend mode="normal" in="SourceGraphic" in2="effect1_backgroundBlur_2150_1919" result="shape"/>
</filter>
<filter id="filter6_b_2150_1919" x="10" y="234" width="1220" height="97" filterUnits="userSpaceOnUse" color-interpolation-filters="sRGB">
<feFlood flood-opacity="0" result="BackgroundImageFix"/>
<feGaussianBlur in="BackgroundImageFix" stdDeviation="24"/>
<feComposite in2="SourceAlpha" operator="in" result="effect1_backgroundBlur_2150_1919"/>
<feBlend mode="normal" in="SourceGraphic" in2="effect1_backgroundBlur_2150_1919" result="shape"/>
</filter>
<filter id="filter7_b_2150_1919" x="704" y="-6" width="98" height="576" filterUnits="userSpaceOnUse" color-interpolation-filters="sRGB">
<feFlood flood-opacity="0" result="BackgroundImageFix"/>
<feGaussianBlur in="BackgroundImageFix" stdDeviation="24"/>
<feComposite in2="SourceAlpha" operator="in" result="effect1_backgroundBlur_2150_1919"/>
<feBlend mode="normal" in="SourceGraphic" in2="effect1_backgroundBlur_2150_1919" result="shape"/>
</filter>
<filter id="filter8_b_2150_1919" x="705" y="154" width="525" height="97" filterUnits="userSpaceOnUse" color-interpolation-filters="sRGB">
<feFlood flood-opacity="0" result="BackgroundImageFix"/>
<feGaussianBlur in="BackgroundImageFix" stdDeviation="24"/>
<feComposite in2="SourceAlpha" operator="in" result="effect1_backgroundBlur_2150_1919"/>
<feBlend mode="normal" in="SourceGraphic" in2="effect1_backgroundBlur_2150_1919" result="shape"/>
</filter>
<filter id="filter9_b_2150_1919" x="705" y="74" width="525" height="97" filterUnits="userSpaceOnUse" color-interpolation-filters="sRGB">
<feFlood flood-opacity="0" result="BackgroundImageFix"/>
<feGaussianBlur in="BackgroundImageFix" stdDeviation="24"/>
<feComposite in2="SourceAlpha" operator="in" result="effect1_backgroundBlur_2150_1919"/>
<feBlend mode="normal" in="SourceGraphic" in2="effect1_backgroundBlur_2150_1919" result="shape"/>
</filter>
<filter id="filter10_b_2150_1919" x="704" y="-6" width="526" height="97" filterUnits="userSpaceOnUse" color-interpolation-filters="sRGB">
<feFlood flood-opacity="0" result="BackgroundImageFix"/>
<feGaussianBlur in="BackgroundImageFix" stdDeviation="24"/>
<feComposite in2="SourceAlpha" operator="in" result="effect1_backgroundBlur_2150_1919"/>
<feBlend mode="normal" in="SourceGraphic" in2="effect1_backgroundBlur_2150_1919" result="shape"/>
</filter>
<filter id="filter11_b_2150_1919" x="10" y="474" width="1220" height="97" filterUnits="userSpaceOnUse" color-interpolation-filters="sRGB">
<feFlood flood-opacity="0" result="BackgroundImageFix"/>
<feGaussianBlur in="BackgroundImageFix" stdDeviation="24"/>
<feComposite in2="SourceAlpha" operator="in" result="effect1_backgroundBlur_2150_1919"/>
<feBlend mode="normal" in="SourceGraphic" in2="effect1_backgroundBlur_2150_1919" result="shape"/>
</filter>
<filter id="filter12_d_2150_1919" x="23.3735" y="16" width="1192.63" height="549.78" filterUnits="userSpaceOnUse" color-interpolation-filters="sRGB">
<feFlood flood-opacity="0" result="BackgroundImageFix"/>
<feColorMatrix in="SourceAlpha" type="matrix" values="0 0 0 0 0 0 0 0 0 0 0 0 0 0 0 0 0 0 127 0" result="hardAlpha"/>
<feOffset dy="8"/>
<feGaussianBlur stdDeviation="17"/>
<feComposite in2="hardAlpha" operator="out"/>
<feColorMatrix type="matrix" values="0 0 0 0 0.12549 0 0 0 0 0.513726 0 0 0 0 0.796078 0 0 0 1 0"/>
<feBlend mode="normal" in2="BackgroundImageFix" result="effect1_dropShadow_2150_1919"/>
<feBlend mode="normal" in="SourceGraphic" in2="effect1_dropShadow_2150_1919" result="shape"/>
</filter>
<filter id="filter13_d_2150_1919" x="4.25732" y="269" width="1231.24" height="313.47" filterUnits="userSpaceOnUse" color-interpolation-filters="sRGB">
<feFlood flood-opacity="0" result="BackgroundImageFix"/>
<feColorMatrix in="SourceAlpha" type="matrix" values="0 0 0 0 0 0 0 0 0 0 0 0 0 0 0 0 0 0 127 0" result="hardAlpha"/>
<feOffset dy="4"/>
<feGaussianBlur stdDeviation="27"/>
<feComposite in2="hardAlpha" operator="out"/>
<feColorMatrix type="matrix" values="0 0 0 0 0.890196 0 0 0 0 0.54902 0 0 0 0 0.858824 0 0 0 1 0"/>
<feBlend mode="normal" in2="BackgroundImageFix" result="effect1_dropShadow_2150_1919"/>
<feBlend mode="normal" in="SourceGraphic" in2="effect1_dropShadow_2150_1919" result="shape"/>
</filter>
<filter id="filter14_f_2150_1919" x="799.252" y="73.4475" width="422.421" height="386.449" filterUnits="userSpaceOnUse" color-interpolation-filters="sRGB">
<feFlood flood-opacity="0" result="BackgroundImageFix"/>
<feBlend mode="normal" in="SourceGraphic" in2="BackgroundImageFix" result="shape"/>
<feGaussianBlur stdDeviation="76.6024" result="effect1_foregroundBlur_2150_1919"/>
</filter>
<filter id="filter15_f_2150_1919" x="450.627" y="77.0093" width="590.549" height="611.787" filterUnits="userSpaceOnUse" color-interpolation-filters="sRGB">
<feFlood flood-opacity="0" result="BackgroundImageFix"/>
<feBlend mode="normal" in="SourceGraphic" in2="BackgroundImageFix" result="shape"/>
<feGaussianBlur stdDeviation="102" result="effect1_foregroundBlur_2150_1919"/>
</filter>
<linearGradient id="paint0_linear_2150_1919" x1="418.821" y1="257.643" x2="71.4184" y2="332.383" gradientUnits="userSpaceOnUse">
<stop stop-color="#5D9CD7"/>
<stop offset="1" stop-color="#0B0822"/>
</linearGradient>
<linearGradient id="paint1_linear_2150_1919" x1="841.216" y1="113.31" x2="633.721" y2="157.95" gradientUnits="userSpaceOnUse">
<stop stop-color="#5D9CD7"/>
<stop offset="1" stop-color="#0B0822"/>
</linearGradient>
<linearGradient id="paint2_linear_2150_1919" x1="833.015" y1="112.338" x2="234.678" y2="324.844" gradientUnits="userSpaceOnUse">
<stop stop-color="#0A0721"/>
<stop offset="1" stop-color="#0B0822"/>
</linearGradient>
<linearGradient id="paint3_linear_2150_1919" x1="842.556" y1="522.673" x2="244.219" y2="735.179" gradientUnits="userSpaceOnUse">
<stop stop-color="#D685D1"/>
<stop offset="1" stop-color="#0B0822"/>
</linearGradient>
<linearGradient id="paint4_linear_2150_1919" x1="750.255" y1="442.773" x2="750.254" y2="444.297" gradientUnits="userSpaceOnUse">
<stop stop-color="#3D3A46"/>
<stop offset="1" stop-color="#222125"/>
</linearGradient>
<linearGradient id="paint5_linear_2150_1919" x1="750.255" y1="362.773" x2="750.254" y2="364.297" gradientUnits="userSpaceOnUse">
<stop stop-color="#3D3A46"/>
<stop offset="1" stop-color="#222125"/>
</linearGradient>
<linearGradient id="paint6_linear_2150_1919" x1="750.255" y1="282.773" x2="750.254" y2="284.297" gradientUnits="userSpaceOnUse">
<stop stop-color="#3D3A46"/>
<stop offset="1" stop-color="#222125"/>
</linearGradient>
<linearGradient id="paint7_linear_2150_1919" x1="752.227" y1="338.625" x2="750.703" y2="338.622" gradientUnits="userSpaceOnUse">
<stop stop-color="#3D3A46"/>
<stop offset="1" stop-color="#222125"/>
</linearGradient>
<linearGradient id="paint8_linear_2150_1919" x1="1017.21" y1="202.773" x2="1017.21" y2="204.297" gradientUnits="userSpaceOnUse">
<stop stop-color="#3D3A46"/>
<stop offset="1" stop-color="#222125"/>
</linearGradient>
<linearGradient id="paint9_linear_2150_1919" x1="1017.21" y1="122.773" x2="1017.21" y2="124.297" gradientUnits="userSpaceOnUse">
<stop stop-color="#3D3A46"/>
<stop offset="1" stop-color="#222125"/>
</linearGradient>
<linearGradient id="paint10_linear_2150_1919" x1="1017.21" y1="42.7732" x2="1017.21" y2="44.297" gradientUnits="userSpaceOnUse">
<stop stop-color="#3D3A46"/>
<stop offset="1" stop-color="#222125"/>
</linearGradient>
<linearGradient id="paint11_linear_2150_1919" x1="750.255" y1="522.773" x2="750.254" y2="524.297" gradientUnits="userSpaceOnUse">
<stop stop-color="#3D3A46"/>
<stop offset="1" stop-color="#222125"/>
</linearGradient>
<radialGradient id="paint12_radial_2150_1919" cx="0" cy="0" r="1" gradientUnits="userSpaceOnUse" gradientTransform="translate(753.1 282.053) scale(16.7503 16.7282)">
<stop offset="0.15" stop-color="white"/>
<stop offset="0.2" stop-color="white" stop-opacity="0.92"/>
<stop offset="0.37" stop-color="white" stop-opacity="0.65"/>
<stop offset="0.53" stop-color="white" stop-opacity="0.42"/>
<stop offset="0.68" stop-color="white" stop-opacity="0.24"/>
<stop offset="0.81" stop-color="white" stop-opacity="0.12"/>
<stop offset="0.92" stop-color="white" stop-opacity="0.04"/>
<stop offset="1" stop-color="white" stop-opacity="0.01"/>
</radialGradient>
<radialGradient id="paint13_radial_2150_1919" cx="0" cy="0" r="1" gradientUnits="userSpaceOnUse" gradientTransform="translate(753.099 282.053) scale(13.9857 13.9672)">
<stop offset="0.15" stop-color="white"/>
<stop offset="0.2" stop-color="white" stop-opacity="0.92"/>
<stop offset="0.37" stop-color="white" stop-opacity="0.65"/>
<stop offset="0.53" stop-color="white" stop-opacity="0.42"/>
<stop offset="0.68" stop-color="white" stop-opacity="0.24"/>
<stop offset="0.81" stop-color="white" stop-opacity="0.12"/>
<stop offset="0.92" stop-color="white" stop-opacity="0.04"/>
<stop offset="1" stop-color="white" stop-opacity="0.01"/>
</radialGradient>
<radialGradient id="paint14_radial_2150_1919" cx="0" cy="0" r="1" gradientUnits="userSpaceOnUse" gradientTransform="translate(752.936 282.053) scale(23.0926 23.0621)">
<stop stop-color="#250D0E"/>
<stop offset="0.73" stop-color="#2F98C5"/>
<stop offset="1" stop-color="#250D0E"/>
</radialGradient>
<radialGradient id="paint15_radial_2150_1919" cx="0" cy="0" r="1" gradientUnits="userSpaceOnUse" gradientTransform="translate(752.936 282.053) scale(11.5463 11.5311)">
<stop offset="0.15" stop-color="white"/>
<stop offset="0.21" stop-color="#D1D9E2"/>
<stop offset="0.29" stop-color="#9BADC0"/>
<stop offset="0.36" stop-color="#738DA6"/>
<stop offset="0.42" stop-color="#5A7997"/>
<stop offset="0.45" stop-color="#527292"/>
<stop offset="0.46" stop-color="#506E8D"/>
<stop offset="0.59" stop-color="#3D4456"/>
<stop offset="0.71" stop-color="#30262F"/>
<stop offset="0.79" stop-color="#281316"/>
<stop offset="0.85" stop-color="#250D0E"/>
<stop offset="0.86" stop-color="#26191E"/>
<stop offset="0.87" stop-color="#272933"/>
<stop offset="0.88" stop-color="#2A3F50"/>
<stop offset="0.89" stop-color="#307EA3"/>
<stop offset="0.9" stop-color="#35A6D7"/>
<stop offset="0.91" stop-color="#328BB4"/>
<stop offset="0.92" stop-color="#2E6A88"/>
<stop offset="0.93" stop-color="#2B4D62"/>
<stop offset="0.94" stop-color="#293643"/>
<stop offset="0.95" stop-color="#27232C"/>
<stop offset="0.97" stop-color="#26171B"/>
<stop offset="0.98" stop-color="#250F11"/>
<stop offset="1" stop-color="#250D0E"/>
</radialGradient>
<radialGradient id="paint16_radial_2150_1919" cx="0" cy="0" r="1" gradientUnits="userSpaceOnUse" gradientTransform="translate(752.936 282.053) scale(9.59482 9.58215)">
<stop offset="0.15" stop-color="white"/>
<stop offset="0.28" stop-color="#C3C3C3"/>
<stop offset="0.42" stop-color="#888888"/>
<stop offset="0.56" stop-color="#585858"/>
<stop offset="0.69" stop-color="#323232"/>
<stop offset="0.81" stop-color="#171717"/>
<stop offset="0.92" stop-color="#060606"/>
<stop offset="1" stop-color="#010101"/>
</radialGradient>
<radialGradient id="paint17_radial_2150_1919" cx="0" cy="0" r="1" gradientUnits="userSpaceOnUse" gradientTransform="translate(753.1 411.053) scale(16.7503 16.7282)">
<stop offset="0.15" stop-color="white"/>
<stop offset="0.2" stop-color="white" stop-opacity="0.92"/>
<stop offset="0.37" stop-color="white" stop-opacity="0.65"/>
<stop offset="0.53" stop-color="white" stop-opacity="0.42"/>
<stop offset="0.68" stop-color="white" stop-opacity="0.24"/>
<stop offset="0.81" stop-color="white" stop-opacity="0.12"/>
<stop offset="0.92" stop-color="white" stop-opacity="0.04"/>
<stop offset="1" stop-color="white" stop-opacity="0.01"/>
</radialGradient>
<radialGradient id="paint18_radial_2150_1919" cx="0" cy="0" r="1" gradientUnits="userSpaceOnUse" gradientTransform="translate(753.099 411.053) scale(13.9857 13.9672)">
<stop offset="0.15" stop-color="white"/>
<stop offset="0.2" stop-color="white" stop-opacity="0.92"/>
<stop offset="0.37" stop-color="white" stop-opacity="0.65"/>
<stop offset="0.53" stop-color="white" stop-opacity="0.42"/>
<stop offset="0.68" stop-color="white" stop-opacity="0.24"/>
<stop offset="0.81" stop-color="white" stop-opacity="0.12"/>
<stop offset="0.92" stop-color="white" stop-opacity="0.04"/>
<stop offset="1" stop-color="white" stop-opacity="0.01"/>
</radialGradient>
<radialGradient id="paint19_radial_2150_1919" cx="0" cy="0" r="1" gradientUnits="userSpaceOnUse" gradientTransform="translate(752.936 411.053) scale(23.0926 23.0621)">
<stop stop-color="#250D0E"/>
<stop offset="0.73" stop-color="#E38CDB"/>
<stop offset="1" stop-color="#250D0E"/>
</radialGradient>
<radialGradient id="paint20_radial_2150_1919" cx="0" cy="0" r="1" gradientUnits="userSpaceOnUse" gradientTransform="translate(752.936 411.053) scale(11.5463 11.5311)">
<stop offset="0.15" stop-color="white"/>
<stop offset="0.21" stop-color="#D1D9E2"/>
<stop offset="0.29" stop-color="#9BADC0"/>
<stop offset="0.36" stop-color="#738DA6"/>
<stop offset="0.42" stop-color="#5A7997"/>
<stop offset="0.45" stop-color="#527292"/>
<stop offset="0.46" stop-color="#506E8D"/>
<stop offset="0.59" stop-color="#3D4456"/>
<stop offset="0.71" stop-color="#30262F"/>
<stop offset="0.79" stop-color="#281316"/>
<stop offset="0.85" stop-color="#250D0E"/>
<stop offset="0.86" stop-color="#26191E"/>
<stop offset="0.87" stop-color="#272933"/>
<stop offset="0.88" stop-color="#2A3F50"/>
<stop offset="0.89" stop-color="#307EA3"/>
<stop offset="0.9" stop-color="#35A6D7"/>
<stop offset="0.91" stop-color="#328BB4"/>
<stop offset="0.92" stop-color="#2E6A88"/>
<stop offset="0.93" stop-color="#2B4D62"/>
<stop offset="0.94" stop-color="#293643"/>
<stop offset="0.95" stop-color="#27232C"/>
<stop offset="0.97" stop-color="#26171B"/>
<stop offset="0.98" stop-color="#250F11"/>
<stop offset="1" stop-color="#250D0E"/>
</radialGradient>
<radialGradient id="paint21_radial_2150_1919" cx="0" cy="0" r="1" gradientUnits="userSpaceOnUse" gradientTransform="translate(752.936 411.053) scale(9.59482 9.58215)">
<stop offset="0.15" stop-color="white"/>
<stop offset="0.28" stop-color="#C3C3C3"/>
<stop offset="0.42" stop-color="#888888"/>
<stop offset="0.56" stop-color="#585858"/>
<stop offset="0.69" stop-color="#323232"/>
<stop offset="0.81" stop-color="#171717"/>
<stop offset="0.92" stop-color="#060606"/>
<stop offset="1" stop-color="#010101"/>
</radialGradient>
<radialGradient id="paint22_radial_2150_1919" cx="0" cy="0" r="1" gradientUnits="userSpaceOnUse" gradientTransform="translate(59.0438 522.023) scale(7.28272 7.27312)">
<stop offset="0.15" stop-color="white"/>
<stop offset="0.2" stop-color="white" stop-opacity="0.92"/>
<stop offset="0.37" stop-color="white" stop-opacity="0.65"/>
<stop offset="0.53" stop-color="white" stop-opacity="0.42"/>
<stop offset="0.68" stop-color="white" stop-opacity="0.24"/>
<stop offset="0.81" stop-color="white" stop-opacity="0.12"/>
<stop offset="0.92" stop-color="white" stop-opacity="0.04"/>
<stop offset="1" stop-color="white" stop-opacity="0.01"/>
</radialGradient>
<radialGradient id="paint23_radial_2150_1919" cx="0" cy="0" r="1" gradientUnits="userSpaceOnUse" gradientTransform="translate(59.0434 522.023) scale(6.08072 6.0727)">
<stop offset="0.15" stop-color="white"/>
<stop offset="0.2" stop-color="white" stop-opacity="0.92"/>
<stop offset="0.37" stop-color="white" stop-opacity="0.65"/>
<stop offset="0.53" stop-color="white" stop-opacity="0.42"/>
<stop offset="0.68" stop-color="white" stop-opacity="0.24"/>
<stop offset="0.81" stop-color="white" stop-opacity="0.12"/>
<stop offset="0.92" stop-color="white" stop-opacity="0.04"/>
<stop offset="1" stop-color="white" stop-opacity="0.01"/>
</radialGradient>
<radialGradient id="paint24_radial_2150_1919" cx="0" cy="0" r="1" gradientUnits="userSpaceOnUse" gradientTransform="translate(58.9718 522.023) scale(5.02013 5.01351)">
<stop offset="0.15" stop-color="white"/>
<stop offset="0.21" stop-color="#D1D9E2"/>
<stop offset="0.29" stop-color="#9BADC0"/>
<stop offset="0.36" stop-color="#738DA6"/>
<stop offset="0.42" stop-color="#5A7997"/>
<stop offset="0.45" stop-color="#527292"/>
<stop offset="0.46" stop-color="#506E8D"/>
<stop offset="0.59" stop-color="#3D4456"/>
<stop offset="0.71" stop-color="#30262F"/>
<stop offset="0.79" stop-color="#281316"/>
<stop offset="0.85" stop-color="#250D0E"/>
<stop offset="0.86" stop-color="#26191E"/>
<stop offset="0.87" stop-color="#272933"/>
<stop offset="0.88" stop-color="#2A3F50"/>
<stop offset="0.89" stop-color="#307EA3"/>
<stop offset="0.9" stop-color="#35A6D7"/>
<stop offset="0.91" stop-color="#328BB4"/>
<stop offset="0.92" stop-color="#2E6A88"/>
<stop offset="0.93" stop-color="#2B4D62"/>
<stop offset="0.94" stop-color="#293643"/>
<stop offset="0.95" stop-color="#27232C"/>
<stop offset="0.97" stop-color="#26171B"/>
<stop offset="0.98" stop-color="#250F11"/>
<stop offset="1" stop-color="#250D0E"/>
</radialGradient>
<radialGradient id="paint25_radial_2150_1919" cx="0" cy="0" r="1" gradientUnits="userSpaceOnUse" gradientTransform="translate(58.9727 522.023) scale(4.17166 4.16615)">
<stop offset="0.15" stop-color="white"/>
<stop offset="0.28" stop-color="#C3C3C3"/>
<stop offset="0.42" stop-color="#888888"/>
<stop offset="0.56" stop-color="#585858"/>
<stop offset="0.69" stop-color="#323232"/>
<stop offset="0.81" stop-color="#171717"/>
<stop offset="0.92" stop-color="#060606"/>
<stop offset="1" stop-color="#010101"/>
</radialGradient>
<linearGradient id="paint26_linear_2150_1919" x1="620" y1="-560.5" x2="620" y2="523" gradientUnits="userSpaceOnUse">
<stop stop-color="#2F98C5" stop-opacity="0.4"/>
<stop offset="1" stop-color="#2F98C5" stop-opacity="0"/>
</linearGradient>
<linearGradient id="paint27_linear_2150_1919" x1="685.5" y1="35.5" x2="685.5" y2="532" gradientUnits="userSpaceOnUse">
<stop stop-color="#E38CDB" stop-opacity="0.4"/>
<stop offset="1" stop-color="#E38CDB" stop-opacity="0"/>
</linearGradient>
<linearGradient id="paint28_linear_2150_1919" x1="885" y1="227" x2="885" y2="337" gradientUnits="userSpaceOnUse">
<stop stop-color="#EFFAFF"/>
<stop offset="1" stop-color="#18121A"/>
</linearGradient>
<linearGradient id="paint29_linear_2150_1919" x1="909.336" y1="202.046" x2="838.761" y2="331.057" gradientUnits="userSpaceOnUse">
<stop stop-color="#3D3A46"/>
<stop offset="1" stop-color="#222125"/>
</linearGradient>
<linearGradient id="paint30_linear_2150_1919" x1="1017.84" y1="273.585" x2="945.339" y2="285.01" gradientUnits="userSpaceOnUse">
<stop stop-color="#E38BDB"/>
<stop offset="1" stop-color="#0B0822"/>
</linearGradient>
<linearGradient id="paint31_linear_2150_1919" x1="738.099" y1="402.401" x2="853.277" y2="390.292" gradientUnits="userSpaceOnUse">
<stop stop-color="#379DC8"/>
<stop offset="1" stop-color="#0B0822"/>
</linearGradient>
<clipPath id="clip0_2150_1919">
<rect width="1198" height="566" rx="12" fill="white"/>
</clipPath>
<clipPath id="clip1_2150_1919">
<rect x="780" y="227" width="210" height="110" rx="12" fill="white"/>
</clipPath>
</defs>
</svg>
