<svg width="1246" height="1153" viewBox="0 0 1246 1153" fill="none" xmlns="http://www.w3.org/2000/svg">
<g style="mix-blend-mode:screen" opacity="0.1">
<path d="M620.553 576.907L707.751 792.264L620.553 576.907L533.643 360.903L620.553 576.907L405.172 664.153L620.553 576.907L836.222 489.014L620.553 576.907L536.161 1001.39L620.553 576.907L705.233 152.741L620.553 576.907L196.027 492.179L620.553 576.907L1045.01 660.7L620.553 576.907L451.097 670.076L620.553 576.907L789.649 482.826L620.553 576.907L527.384 407.14L620.553 576.907L714.01 746.027L620.553 576.907L677.774 1091.72L620.553 576.907L563.332 62.2332L620.553 576.907L106.023 634.104L620.553 576.907L1135.37 519.063L620.553 576.907L617.387 599.738L620.553 576.907L623.647 553.477L620.553 576.907L597.123 573.742L620.553 576.907L644.271 579.425L620.553 576.907L539.255 1017.98L620.553 576.907L701.803 135.378L620.553 576.907L179.143 495.633L620.553 576.907L1062.25 658.182L620.553 576.907L757.154 997.62L620.553 576.907L483.953 156.338L620.553 576.907L199.84 713.46L620.553 576.907L1041.27 439.707L620.553 576.907L637.101 1132.37L620.553 576.907L604.317 20.9604L620.553 576.907L65.4216 592.855L620.553 576.907L1176 560.288L620.553 576.907L581.151 641.61L620.553 576.907L659.883 511.557L620.553 576.907L555.85 537.505L620.553 576.907L685.544 615.662L620.553 576.907L630.194 690.053L620.553 576.907L611.128 463.137L620.553 576.907L506.759 586.62L620.553 576.907L733.699 567.242L620.553 576.907L553.332 821.018L620.553 576.907L688.062 332.796L620.553 576.907L376.706 509.734L620.553 576.907L864.688 644.08L620.553 576.907L605.54 615.662L620.553 576.907L635.877 537.505L620.553 576.907L581.727 561.583L620.553 576.907L659.308 592.208L620.553 576.907L615.517 582.543L620.553 576.907L625.589 570.312L620.553 576.907L614.294 571.895L620.553 576.907L626.165 581.895L620.553 576.907L578.057 625.35L620.553 576.907L663.049 528.488L620.553 576.907L572.398 534.387L620.553 576.907L669.02 619.427L620.553 576.907L334.858 1077.7L620.553 576.907L906.536 75.687L620.553 576.907L119.764 290.228L620.553 576.907L1121.34 862.914L620.553 576.907Z" fill="white"/>
</g>
<path style="mix-blend-mode:screen" opacity="0.15" d="M381.166 576.907C381.166 709.119 488.653 816.342 620.577 816.342C752.501 816.342 860.323 709.119 860.323 576.907C860.323 444.695 752.764 336.537 620.577 336.537C488.389 336.537 381.166 444.048 381.166 576.907Z" fill="url(#paint0_radial_2084_1918)"/>
<g style="mix-blend-mode:screen" opacity="0.5">
<circle cx="619.86" cy="576.93" r="249.41" fill="url(#paint1_radial_2084_1918)"/>
</g>
<g style="mix-blend-mode:screen" opacity="0.5">
<circle cx="621.06" cy="575.73" r="221.83" fill="url(#paint2_radial_2084_1918)"/>
</g>
<g style="mix-blend-mode:screen" opacity="0.1">
<path d="M772.455 1133.62L625.591 596.572L639.045 650.699H638.397L621.13 579.425V584.389L624.943 640.986H624.296L620.555 578.13L567.435 762.286H566.787L619.26 580.648L529.903 790.992L617.389 583.118L419.827 970.736L619.26 578.777L297.327 981.696V981.12L609.331 590.336L547.362 664.152L546.786 663.505L614.943 583.118L239.172 981.12H238.596L618.036 578.777L602.089 591.559L601.513 590.984L613.648 581.895L250.755 831.641V830.994L592.088 595.996L261.091 816.989L614.943 580.024L400.785 702.236L400.138 701.3L616.166 578.777L582.447 593.478L617.389 577.554L64.1282 728.807V728.208L600.218 581.895L546.786 595.349V594.701L617.389 576.906L612.353 577.554L556.427 581.247V580.648L619.26 576.283L434.575 523.451L435.223 522.828L616.813 575.324L406.397 485.967V485.32L614.295 573.741L226.029 375.939H226.653L618.684 575.324L216.101 253.392V252.696L607.412 565.323L533.644 503.114L614.295 570.312L216.101 195.883L216.677 195.236L618.684 574.388L606.189 558.464L606.765 557.841L615.518 569.712L365.772 207.083H366.419L600.794 547.817L379.873 217.275L380.448 216.628L616.813 571.247L495.537 356.561L618.684 572.518L603.671 538.775L604.319 538.128L619.26 573.741L468.654 20.3123L615.518 556.594L602.089 503.114H603.024L619.907 573.741V568.465L616.166 511.868H616.813L620.555 575.324L674.034 390.64H674.61L621.778 573.165L711.566 362.773L623.648 570.312L820.851 182.429L821.57 182.861L621.778 575.036L944.069 172.261L632.138 562.853L693.675 489.661H694.323L626.166 569.712L1001.94 172.261V172.909L623.001 574.388L639.045 561.87L639.62 562.206L627.749 571.894L990.642 322.148L649.309 557.241L980.306 335.889V336.537L626.166 573.165L840.612 451.554H841.259L624.296 574.388L658.662 559.712V560.287L623.648 575.324L1177.29 424.382V425.006L640.843 571.247L694.323 558.464L623.001 576.283L628.397 575.635V576.283L684.898 572.518V573.165L621.778 576.906L806.893 630.362H806.174L624.296 578.13L834.64 667.246V667.846L626.814 579.425L1014.74 776.939V777.539L622.425 578.13L1025.37 899.798L1024.72 900.445L634.008 587.818L707.753 650.051V650.699L626.814 582.542L1025.37 957.93H1024.72L622.425 578.777L635.231 595.349H634.584L625.591 583.765L875.625 946.059L874.978 946.706L640.268 605.325L861.548 936.682H860.9L623.648 582.542L745.86 796.676H745.284L622.425 580.648L637.75 615.038H637.102L621.778 580.024L772.455 1132.97V1133.62Z" fill="white"/>
</g>
<g style="mix-blend-mode:overlay">
<path d="M620.578 576.356L637.797 808.068L620.578 576.356L603.839 344.139L620.578 576.356L388.841 593.622L620.578 576.356L852.794 558.585L620.578 576.356L410.497 954.741L620.578 576.356L830.851 198.378L620.578 576.356L242.264 365.963L620.578 576.356L999.131 785.861L620.578 576.356L430.762 613.288L620.578 576.356L810.346 538.464L620.578 576.356L583.766 386.252L620.578 576.356L657.893 765.956L620.578 576.356L517.744 1084.05L620.578 576.356L723.388 68.8281L620.578 576.356L113.194 473.593L620.578 576.356L1128.44 678.614L620.578 576.356L610.601 597.124L620.578 576.356L630.698 554.988L620.578 576.356L599.234 566.187L620.578 576.356L642.401 586.02L620.578 576.356L408.363 971.504L620.578 576.356L832.865 180.799L620.578 576.356L225.117 364.092L620.578 576.356L1016.33 788.739L620.578 576.356L622.065 1018.7L620.578 576.356L619.043 134.179L620.578 576.356L178.281 577.818L620.578 576.356L1063.09 574.293L620.578 576.356L466.566 1110.31L620.578 576.356L774.997 42.0643L620.578 576.356L87.126 421.913L620.578 576.356L1154.53 730.295L620.578 576.356L563.309 625.926L620.578 576.356L677.99 526.162L620.578 576.356L571.007 519.087L620.578 576.356L670.628 633.12L620.578 576.356L595.181 687.056L620.578 576.356L646.382 465.152L620.578 576.356L509.254 550.839L620.578 576.356L731.278 601.752L620.578 576.356L481.987 788.259L620.578 576.356L759.457 364.572L620.578 576.356L408.914 437.884L620.578 576.356L832.529 714.946L620.578 576.356L594.438 608.683L620.578 576.356L647.198 543.524L620.578 576.356L588.298 549.927L620.578 576.356L652.809 602.783L620.578 576.356L614.079 580.193L620.578 576.356L627.389 571.631L620.578 576.356L616.165 569.689L620.578 576.356L624.391 582.831L620.578 576.356L565.324 609.522L620.578 576.356L675.832 543.237L620.578 576.356L587.723 521.149L620.578 576.356L653.721 631.658L620.578 576.356L195.524 965.892L620.578 576.356L1046.06 186.507L620.578 576.356L231.353 150.366L620.578 576.356L1010.02 1001.75L620.578 576.356Z" fill="white"/>
</g>
<g style="mix-blend-mode:screen" opacity="0.15">
<circle cx="621.06" cy="575.73" r="327.35" fill="url(#paint3_radial_2084_1918)"/>
</g>
<g style="mix-blend-mode:screen" opacity="0.5">
<ellipse cx="623" cy="576.5" rx="188" ry="188.5" fill="url(#paint4_radial_2084_1918)"/>
</g>
<g style="mix-blend-mode:screen">
<circle cx="621.055" cy="575.725" r="188.255" fill="url(#paint5_radial_2084_1918)"/>
</g>
<g style="mix-blend-mode:screen" opacity="0.1">
<path d="M595.085 1152.88L619.379 596.62L615.637 652.282L615.014 652.09L620.362 578.945L618.851 583.67L605.181 638.732L604.558 638.54L620.218 577.53L513.355 736.626L512.731 736.434L618.203 579.521L468.845 752.526L615.685 581.32L309.126 890.014L618.779 577.746L189.121 863.01L189.288 862.459L605.805 585.732L524.243 637.077L523.883 636.286L613.359 580.576L133.914 844.688L133.363 844.52L617.628 577.387L598.514 584.677L598.131 583.958L612.496 579.017L190.607 705.905L190.823 705.306L587.651 585.852L204.949 695.113L614.294 577.626L373.013 628.54L372.701 627.461L615.829 576.811L579.233 580.504L617.388 576.02L44.3423 550.959L44.5341 550.383L599.689 574.916L544.723 571.391L544.915 570.768L617.58 575.396L612.592 574.485L558.201 560.911L558.393 560.335L619.546 575.396L459.827 468.629L460.643 468.245L617.508 573.717L444.455 424.335L444.647 423.711L615.589 571.439L306.344 264.448L306.943 264.639L619.283 574.293L334.331 144.73L334.546 144.083L611.608 561.319L560.383 479.541L616.645 568.201L351.909 89.9798L352.653 89.5242L619.57 573.406L612.52 554.412L613.263 554.004L617.988 567.986L491.004 146.385L491.627 146.577L610.649 542.637L501.316 160.367L502.059 159.935L618.755 569.856L568.897 328.359L620.146 571.607L616.165 534.891L616.956 534.459L620.314 572.95L646.046 0L621.993 555.491L625.542 500.453L626.429 500.741L620.937 573.166L622.544 568.13L636.286 513.115L636.885 513.307L621.057 574.869L728.448 415.341L728.975 415.533L622.88 573.19L772.694 400.305L625.542 571.055L931.838 261.978L932.389 262.601L622.328 574.964L1052.27 289.94L635.902 566.523L716.865 515.633L717.464 515.849L628.132 571.223L1107.38 307.639L1107.19 308.238L623.671 574.725L642.761 567.698L643.216 568.178L628.947 573.813L1050.84 446.901L653.984 566.427L1036.78 456.806L1036.57 457.429L627.077 574.533L868.43 524.267L869.029 524.459L624.918 575.108L662.114 571.655L661.946 572.206L624.007 575.804L1197.29 601.272L1197.1 601.872L641.61 577.195L696.456 581.344L623.096 576.523L628.42 577.555L628.228 578.178L683.194 591.848L683.002 592.471L621.753 576.739L781.688 684.202L780.992 683.986L623.767 578.682L796.82 727.801L796.652 728.376L625.782 580.672L934.788 887.304L934.596 887.879L621.993 578.106L907.352 1007.52L906.537 1007.96L630.05 590.888L681.252 672.666L681.06 673.29L624.822 583.646L889.606 1062.87L888.982 1062.68L621.801 578.706L628.923 598.395L628.3 598.203L623.288 584.437L750.631 1005.82L749.816 1006.23L630.65 609.45L740.079 992.584L739.48 992.392L621.801 582.687L672.738 823.92L672.187 823.752L621.225 580.504L625.278 617.94L624.679 617.724L620.793 579.713L595.301 1152.28L595.085 1152.88Z" fill="white"/>
</g>
<path style="mix-blend-mode:screen" opacity="0.26" d="M755.37 715.203C831.708 638.865 831.708 515.096 755.37 438.758C679.032 362.42 555.264 362.42 478.926 438.758C402.588 515.096 402.588 638.865 478.926 715.203C555.264 791.541 679.032 791.541 755.37 715.203Z" fill="url(#paint6_radial_2084_1918)"/>
<path style="mix-blend-mode:screen" opacity="0.15" d="M370.375 577.459C370.375 716.242 483.185 828.788 621.656 828.788C760.127 828.788 873.322 716.242 873.322 577.459C873.322 438.676 760.439 325.17 621.656 325.17C482.874 325.17 370.375 438.028 370.375 577.459Z" fill="url(#paint7_radial_2084_1918)"/>
<path style="mix-blend-mode:screen" d="M495.632 577.458C495.632 646.694 552.373 702.787 621.657 702.787C690.94 702.787 747.609 646.67 747.609 577.458C747.609 508.247 691.156 451.434 621.657 451.434C552.157 451.434 495.632 508.223 495.632 577.458Z" fill="url(#paint8_radial_2084_1918)"/>
<path style="mix-blend-mode:screen" d="M517 577.459C517 635.519 563.861 682.116 621.657 682.116C679.453 682.116 726.626 635.519 726.626 577.459C726.626 519.399 679.765 472.155 621.657 472.155C563.549 472.155 517 519.063 517 577.459Z" fill="url(#paint9_radial_2084_1918)"/>
<g style="mix-blend-mode:screen" opacity="0.54">
<path d="M620.601 576.931L683.338 731.853L620.601 576.931L558.057 421.528L620.601 576.931L465.631 639.691L620.601 576.931L775.764 513.691L620.601 576.931L559.879 882.339L620.601 576.931L681.539 271.762L620.601 576.931L315.169 515.969L620.601 576.931L925.986 637.197L620.601 576.931L498.678 643.96L620.601 576.931L742.261 509.23L620.601 576.931L553.572 454.767L620.601 576.931L687.847 698.614L620.601 576.931L661.778 947.33L620.601 576.931L579.425 206.627L620.601 576.931L250.418 618.06L620.601 576.931L991.001 535.322L620.601 576.931L618.323 593.334L620.601 576.931L622.832 560.071L620.601 576.931L603.742 574.652L620.601 576.931L637.653 578.729L620.601 576.931L562.086 894.282L620.601 576.931L679.045 259.267L620.601 576.931L303.01 518.439L620.601 576.931L938.385 635.398L620.601 576.931L718.879 879.605L620.601 576.931L522.324 274.328L620.601 576.931L317.903 675.16L620.601 576.931L923.276 478.197L620.601 576.931L632.496 976.564L620.601 576.931L608.898 176.938L620.601 576.931L221.184 588.394L620.601 576.931L1020.21 564.964L620.601 576.931L592.255 623.479L620.601 576.931L648.9 529.902L620.601 576.931L574.053 548.584L620.601 576.931L667.342 604.798L620.601 576.931L627.532 658.325L620.601 576.931L613.815 495.081L620.601 576.931L538.727 583.909L620.601 576.931L702.02 569.976L620.601 576.931L572.23 752.55L620.601 576.931L669.165 401.288L620.601 576.931L445.15 528.583L620.601 576.931L796.244 625.254L620.601 576.931L609.786 604.798L620.601 576.931L631.609 548.584L620.601 576.931L592.663 565.899L620.601 576.931L648.468 587.938L620.601 576.931L616.98 580.984L620.601 576.931L624.223 572.182L620.601 576.931L616.093 573.333L620.601 576.931L624.63 580.528L620.601 576.931L590.025 611.776L620.601 576.931L651.154 542.085L620.601 576.931L585.948 546.33L620.601 576.931L655.447 607.508L620.601 576.931L415.053 937.234L620.601 576.931L826.342 216.316L620.601 576.931L260.298 370.663L620.601 576.931L980.904 782.695L620.601 576.931Z" fill="white"/>
</g>
<path style="mix-blend-mode:screen" opacity="0.15" d="M448.364 576.931C448.364 672.043 525.681 749.192 620.601 749.192C715.521 749.192 793.102 672.043 793.102 576.931C793.102 481.819 715.713 403.998 620.601 403.998C525.489 403.998 448.364 481.363 448.364 576.931Z" fill="url(#paint10_radial_2084_1918)"/>
<path style="mix-blend-mode:screen" opacity="0.5" d="M534.219 576.931C534.219 624.391 573.118 662.834 620.602 662.834C668.086 662.834 706.936 624.367 706.936 576.931C706.936 529.495 668.254 490.549 620.602 490.549C572.95 490.549 534.219 529.471 534.219 576.931Z" fill="url(#paint11_radial_2084_1918)"/>
<path style="mix-blend-mode:screen" d="M548.848 576.931C548.848 616.741 580.96 648.684 620.602 648.684C660.244 648.684 692.547 616.741 692.547 576.931C692.547 537.121 660.435 504.745 620.602 504.745C580.768 504.745 548.848 536.881 548.848 576.931Z" fill="url(#paint12_radial_2084_1918)"/>
<g style="mix-blend-mode:screen" opacity="0.1">
<path d="M729.887 977.476L624.223 591.081L633.888 630.027H633.432L621.01 578.73V582.303L623.744 623.024H623.288L620.602 577.795L582.375 710.294H581.919L619.667 579.617L555.371 730.967L618.324 581.392L476.183 860.277L619.667 578.274L388.05 868.143V867.735L612.52 586.596L567.938 639.692L567.53 639.236L616.573 581.392L346.202 867.735H345.794L618.779 578.274L607.316 587.483L606.884 587.052L615.638 580.529L354.523 760.201V759.745L600.121 590.649L361.982 749.648L616.573 579.186L462.466 667.103L462.01 666.432L617.436 578.274L593.191 588.85L618.324 577.387L220.249 686.217V685.785L605.973 580.529L567.53 590.193V589.714L618.324 576.931L614.702 577.387L574.461 580.049V579.617L619.667 576.476L486.783 538.464L487.263 538.033L617.916 575.78L466.519 511.485V511.029L616.093 574.653L336.729 432.321H337.209L619.259 575.78L329.606 344.164V343.684L611.129 568.586L558.057 523.836L616.093 572.183L329.606 302.795L330.014 302.315L619.259 575.109L610.242 563.645L610.673 563.214L616.981 571.751L437.285 310.853H437.764L606.381 555.995L447.429 318.167L447.837 317.712L617.916 572.854L530.646 418.387L619.259 573.766L608.443 549.496L608.899 549.016L619.667 574.653L511.317 176.483L616.981 562.302L607.316 523.836H607.964L620.122 574.653V570.84L617.436 530.143H617.916L620.602 575.78L659.069 442.897H659.5L621.465 574.221L686.072 422.872L622.832 572.183L764.709 293.106L765.212 293.418L621.465 575.588L853.346 285.792L628.924 566.811L673.194 514.147H673.674L624.631 571.751L895.002 285.792V286.272L622.353 575.109L633.888 566.116L634.296 566.355L625.758 573.334L886.872 393.638L641.298 562.782L879.414 403.519V403.974L624.631 574.221L778.93 486.736H779.386L623.288 575.109L648.013 564.557V564.964L622.832 575.78L1021.15 467.19V467.622L635.183 572.854L673.674 563.645L622.353 576.476L626.238 576.02V576.476L666.887 573.766V574.221L621.465 576.931L754.66 615.374H754.157L623.288 577.795L774.637 641.922V642.354L625.087 578.73L904.211 720.846V721.278L621.945 577.795L911.861 809.243L911.382 809.699L630.267 584.773L683.338 629.547V630.027L625.087 580.984L911.861 851.068H911.382L621.945 578.274L631.154 590.193H630.674L624.223 581.872L804.111 842.53L803.655 842.986L634.775 597.388L793.967 835.767H793.511L622.832 580.984L710.75 735.044H710.342L621.945 579.617L632.953 604.367H632.497L621.465 579.186L729.887 977.02V977.476Z" fill="white"/>
</g>
<path style="mix-blend-mode:screen" d="M623 634.675C888.677 634.675 1104.05 614.188 1104.05 588.917C1104.05 563.646 888.677 543.16 623 543.16C357.322 543.16 141.948 563.646 141.948 588.917C141.948 614.188 357.322 634.675 623 634.675Z" fill="url(#paint13_radial_2084_1918)"/>
<path style="mix-blend-mode:screen" d="M623 612.876C842.983 612.876 1021.31 602.149 1021.31 588.918C1021.31 575.686 842.983 564.96 623 564.96C403.017 564.96 224.686 575.686 224.686 588.918C224.686 602.149 403.017 612.876 623 612.876Z" fill="url(#paint14_radial_2084_1918)"/>
<path style="mix-blend-mode:screen" d="M623.001 589.691C825.222 589.691 989.155 582.841 989.155 574.39C989.155 565.94 825.222 559.09 623.001 559.09C420.779 559.09 256.846 565.94 256.846 574.39C256.846 582.841 420.779 589.691 623.001 589.691Z" fill="url(#paint15_radial_2084_1918)"/>
<path style="mix-blend-mode:screen" d="M622.999 585.395C732.547 585.395 821.353 580.467 821.353 574.388C821.353 568.308 732.547 563.38 622.999 563.38C513.451 563.38 424.646 568.308 424.646 574.388C424.646 580.467 513.451 585.395 622.999 585.395Z" fill="url(#paint16_radial_2084_1918)"/>
<path style="mix-blend-mode:screen" d="M623 681.444C813.249 681.444 967.475 640.02 967.475 588.922C967.475 537.823 813.249 496.4 623 496.4C432.752 496.4 278.525 537.823 278.525 588.922C278.525 640.02 432.752 681.444 623 681.444Z" fill="url(#paint17_radial_2084_1918)"/>
<path style="mix-blend-mode:screen" d="M623 691.592C813.249 691.592 967.475 645.627 967.475 588.926C967.475 532.225 813.249 486.26 623 486.26C432.752 486.26 278.525 532.225 278.525 588.926C278.525 645.627 432.752 691.592 623 691.592Z" fill="url(#paint18_radial_2084_1918)"/>
<path style="mix-blend-mode:screen" d="M623 609.567C967.073 609.567 1246 600.322 1246 588.918C1246 577.515 967.073 568.27 623 568.27C278.927 568.27 0 577.515 0 588.918C0 600.322 278.927 609.567 623 609.567Z" fill="url(#paint19_radial_2084_1918)"/>
<path style="mix-blend-mode:screen" opacity="0.34" d="M370.375 577.627C370.375 716.41 483.186 828.956 621.657 828.956C760.128 828.956 873.322 716.41 873.322 577.627C873.322 438.844 760.44 325.338 621.657 325.338C482.874 325.338 370.375 438.196 370.375 577.627Z" fill="url(#paint20_radial_2084_1918)"/>
<defs>
<radialGradient id="paint0_radial_2084_1918" cx="0" cy="0" r="1" gradientUnits="userSpaceOnUse" gradientTransform="translate(620.254 575.777) scale(240.095 240.095)">
<stop stop-color="#250D0E"/>
<stop offset="0.73" stop-color="#2A5694"/>
<stop offset="1" stop-color="#250D0E"/>
</radialGradient>
<radialGradient id="paint1_radial_2084_1918" cx="0" cy="0" r="1" gradientUnits="userSpaceOnUse" gradientTransform="translate(619.86 576.93) rotate(90) scale(249.41)">
<stop stop-color="#F7F9FA"/>
<stop offset="0.0739684" stop-color="#EAEDF2"/>
<stop offset="0.130235" stop-color="#CDD6DF"/>
<stop offset="0.178812" stop-color="#B1C0CE"/>
<stop offset="0.306848" stop-color="#637B94"/>
<stop offset="0.337497" stop-color="#546A84"/>
<stop offset="0.413392" stop-color="#3D4355"/>
<stop offset="0.485144" stop-color="#312B36"/>
<stop offset="0.521404" stop-color="#2F2731"/>
<stop offset="0.55017" stop-color="#2D2832"/>
<stop offset="0.566944" stop-color="#272A37"/>
<stop offset="0.613141" stop-color="#242B39"/>
<stop offset="0.743719" stop-color="#242B39" stop-opacity="0"/>
</radialGradient>
<radialGradient id="paint2_radial_2084_1918" cx="0" cy="0" r="1" gradientUnits="userSpaceOnUse" gradientTransform="translate(621.06 575.73) rotate(90) scale(221.83)">
<stop stop-color="#F6F6F7"/>
<stop offset="0.0448425" stop-color="#F3F3F5"/>
<stop offset="0.0783023" stop-color="#EEEEF0"/>
<stop offset="0.123773" stop-color="#DBDBDF"/>
<stop offset="0.179191" stop-color="#DDDCE0" stop-opacity="0.911014"/>
<stop offset="0.285311" stop-color="white" stop-opacity="0.675462"/>
<stop offset="0.433528" stop-color="white" stop-opacity="0.339865"/>
<stop offset="0.536324" stop-color="white" stop-opacity="0.2"/>
<stop offset="0.708447" stop-color="white" stop-opacity="0"/>
</radialGradient>
<radialGradient id="paint3_radial_2084_1918" cx="0" cy="0" r="1" gradientUnits="userSpaceOnUse" gradientTransform="translate(621.06 575.73) rotate(90) scale(327.35)">
<stop stop-color="#250F13"/>
<stop offset="0.196739" stop-color="#272942"/>
<stop offset="0.319717" stop-color="#283353"/>
<stop offset="0.435009" stop-color="#283F69"/>
<stop offset="0.5503" stop-color="#2A538E"/>
<stop offset="0.594248" stop-color="#2A538E"/>
<stop offset="0.682222" stop-color="#273353"/>
<stop offset="0.727969" stop-color="#26151E"/>
<stop offset="0.802406" stop-color="#26151E" stop-opacity="0"/>
</radialGradient>
<radialGradient id="paint4_radial_2084_1918" cx="0" cy="0" r="1" gradientUnits="userSpaceOnUse" gradientTransform="translate(623 576.5) rotate(90) scale(188.5 188)">
<stop stop-color="white"/>
<stop offset="0.0913347" stop-color="white"/>
<stop offset="0.173942" stop-color="#FDFEFE"/>
<stop offset="0.226312" stop-color="#D9E0E9"/>
<stop offset="0.314027" stop-color="#AAB9CF"/>
<stop offset="0.396841" stop-color="#7B92B3"/>
<stop offset="0.467617" stop-color="#627DA4"/>
<stop offset="0.515246" stop-color="#5F7393"/>
<stop offset="0.561414" stop-color="#595F77"/>
<stop offset="0.573636" stop-color="#575D75" stop-opacity="0.945921"/>
<stop offset="0.620487" stop-color="#50546C" stop-opacity="0.754936"/>
<stop offset="0.67345" stop-color="#474A61" stop-opacity="0.512568"/>
<stop offset="0.783448" stop-color="#34344A" stop-opacity="0"/>
</radialGradient>
<radialGradient id="paint5_radial_2084_1918" cx="0" cy="0" r="1" gradientUnits="userSpaceOnUse" gradientTransform="translate(621.055 575.725) rotate(90) scale(188.255)">
<stop stop-color="white"/>
<stop offset="0.06" stop-color="white" stop-opacity="0.95"/>
<stop offset="0.1" stop-color="#EFEFF0" stop-opacity="0.97"/>
<stop offset="0.14" stop-color="#D7D6DA" stop-opacity="0.95"/>
<stop offset="0.22" stop-color="#CAC9CE" stop-opacity="0.69"/>
<stop offset="0.297198" stop-color="#BDBCC3" stop-opacity="0.45"/>
<stop offset="0.432103" stop-color="#BDBCC3" stop-opacity="0.15"/>
<stop offset="0.470803" stop-color="#D4D4D8" stop-opacity="0.0973844"/>
<stop offset="0.582872" stop-color="white" stop-opacity="0"/>
</radialGradient>
<radialGradient id="paint6_radial_2084_1918" cx="0" cy="0" r="1" gradientUnits="userSpaceOnUse" gradientTransform="translate(617.147 576.981) scale(195.476)">
<stop stop-color="#F874DC"/>
<stop offset="0.28" stop-color="#A44C91"/>
<stop offset="0.54" stop-color="#5D2B53"/>
<stop offset="0.75" stop-color="#2B1426"/>
<stop offset="0.91" stop-color="#0B050A"/>
<stop offset="1"/>
</radialGradient>
<radialGradient id="paint7_radial_2084_1918" cx="0" cy="0" r="1" gradientUnits="userSpaceOnUse" gradientTransform="translate(621.473 576.996) scale(251.064 251.064)">
<stop stop-color="#250D0E"/>
<stop offset="0.73" stop-color="#2A5694" stop-opacity="0"/>
<stop offset="0.84" stop-color="#29508A" stop-opacity="0.07"/>
<stop offset="0.91" stop-color="#283F6A" stop-opacity="0.31"/>
<stop offset="0.97" stop-color="#262134" stop-opacity="0.71"/>
<stop offset="1" stop-color="#250D0E"/>
</radialGradient>
<radialGradient id="paint8_radial_2084_1918" cx="0" cy="0" r="1" gradientUnits="userSpaceOnUse" gradientTransform="translate(621.474 576.996) scale(125.532 125.532)">
<stop offset="0.15" stop-color="white"/>
<stop offset="0.2" stop-color="white" stop-opacity="0.92"/>
<stop offset="0.37" stop-color="white" stop-opacity="0.65"/>
<stop offset="0.53" stop-color="white" stop-opacity="0.42"/>
<stop offset="0.68" stop-color="white" stop-opacity="0.24"/>
<stop offset="0.81" stop-color="white" stop-opacity="0.12"/>
<stop offset="0.92" stop-color="white" stop-opacity="0.04"/>
<stop offset="1" stop-color="white" stop-opacity="0.01"/>
</radialGradient>
<radialGradient id="paint9_radial_2084_1918" cx="0" cy="0" r="1" gradientUnits="userSpaceOnUse" gradientTransform="translate(621.474 576.996) scale(104.813 104.813)">
<stop offset="0.15" stop-color="white"/>
<stop offset="0.2" stop-color="white" stop-opacity="0.92"/>
<stop offset="0.37" stop-color="white" stop-opacity="0.65"/>
<stop offset="0.53" stop-color="white" stop-opacity="0.42"/>
<stop offset="0.68" stop-color="white" stop-opacity="0.24"/>
<stop offset="0.81" stop-color="white" stop-opacity="0.12"/>
<stop offset="0.92" stop-color="white" stop-opacity="0.04"/>
<stop offset="1" stop-color="white" stop-opacity="0.01"/>
</radialGradient>
<radialGradient id="paint10_radial_2084_1918" cx="0" cy="0" r="1" gradientUnits="userSpaceOnUse" gradientTransform="translate(620.254 576.995) scale(173.063 173.063)">
<stop stop-color="#250D0E"/>
<stop offset="0.73" stop-color="#2A5694"/>
<stop offset="1" stop-color="#250D0E"/>
</radialGradient>
<radialGradient id="paint11_radial_2084_1918" cx="0" cy="0" r="1" gradientUnits="userSpaceOnUse" gradientTransform="translate(620.255 576.996) scale(86.5317 86.5317)">
<stop offset="0.15" stop-color="white"/>
<stop offset="0.21" stop-color="#D1D9E2"/>
<stop offset="0.29" stop-color="#9BADC0"/>
<stop offset="0.36" stop-color="#738DA6"/>
<stop offset="0.42" stop-color="#5A7997"/>
<stop offset="0.45" stop-color="#527292"/>
<stop offset="0.46" stop-color="#506E8D"/>
<stop offset="0.59" stop-color="#3D4456"/>
<stop offset="0.71" stop-color="#30262F"/>
<stop offset="0.79" stop-color="#281316"/>
<stop offset="0.85" stop-color="#250D0E"/>
<stop offset="0.86" stop-color="#26191E"/>
<stop offset="0.87" stop-color="#272933"/>
<stop offset="0.88" stop-color="#2A3F50"/>
<stop offset="0.89" stop-color="#307EA3"/>
<stop offset="0.9" stop-color="#35A6D7"/>
<stop offset="0.91" stop-color="#328BB4"/>
<stop offset="0.92" stop-color="#2E6A88"/>
<stop offset="0.93" stop-color="#2B4D62"/>
<stop offset="0.94" stop-color="#293643"/>
<stop offset="0.95" stop-color="#27232C"/>
<stop offset="0.97" stop-color="#26171B"/>
<stop offset="0.98" stop-color="#250F11"/>
<stop offset="1" stop-color="#250D0E"/>
</radialGradient>
<radialGradient id="paint12_radial_2084_1918" cx="0" cy="0" r="1" gradientUnits="userSpaceOnUse" gradientTransform="translate(620.255 576.996) scale(71.9066 71.9067)">
<stop offset="0.15" stop-color="white"/>
<stop offset="0.28" stop-color="#C3C3C3"/>
<stop offset="0.42" stop-color="#888888"/>
<stop offset="0.56" stop-color="#585858"/>
<stop offset="0.69" stop-color="#323232"/>
<stop offset="0.81" stop-color="#171717"/>
<stop offset="0.92" stop-color="#060606"/>
<stop offset="1" stop-color="#010101"/>
</radialGradient>
<radialGradient id="paint13_radial_2084_1918" cx="0" cy="0" r="1" gradientUnits="userSpaceOnUse" gradientTransform="translate(623 592.059) scale(473.281 42.5953)">
<stop stop-color="#4CA1FF" stop-opacity="0.65"/>
<stop offset="0.915" stop-color="#0A0721" stop-opacity="0.75"/>
<stop offset="1" stop-color="#0A0721" stop-opacity="0"/>
</radialGradient>
<radialGradient id="paint14_radial_2084_1918" cx="0" cy="0" r="1" gradientUnits="userSpaceOnUse" gradientTransform="translate(622.525 532.597) scale(391.531 22.3024)">
<stop stop-color="#4CA1FF" stop-opacity="0.65"/>
<stop offset="0.915" stop-color="#0A0721" stop-opacity="0.75"/>
<stop offset="1" stop-color="#0A0721" stop-opacity="0"/>
</radialGradient>
<radialGradient id="paint15_radial_2084_1918" cx="0" cy="0" r="1" gradientUnits="userSpaceOnUse" gradientTransform="translate(623.055 577.471) scale(360.824 14.2431)">
<stop stop-color="#4CA1FF" stop-opacity="0.65"/>
<stop offset="0.915" stop-color="#0A0721" stop-opacity="0.75"/>
<stop offset="1" stop-color="#0A0721" stop-opacity="0"/>
</radialGradient>
<radialGradient id="paint16_radial_2084_1918" cx="0" cy="0" r="1" gradientUnits="userSpaceOnUse" gradientTransform="translate(618.841 577.687) scale(194.415 10.953)">
<stop stop-color="#4CA1FF" stop-opacity="0.65"/>
<stop offset="0.915" stop-color="#0A0721" stop-opacity="0.75"/>
<stop offset="1" stop-color="#0A0721" stop-opacity="0"/>
</radialGradient>
<radialGradient id="paint17_radial_2084_1918" cx="0" cy="0" r="1" gradientUnits="userSpaceOnUse" gradientTransform="translate(624.081 589.37) scale(339.492 81.7754)">
<stop stop-color="#4CA1FF" stop-opacity="0.65"/>
<stop offset="0.92" stop-color="#0A0721" stop-opacity="0.75"/>
<stop offset="1" stop-color="#0A0721" stop-opacity="0"/>
</radialGradient>
<radialGradient id="paint18_radial_2084_1918" cx="0" cy="0" r="1" gradientUnits="userSpaceOnUse" gradientTransform="translate(624.081 591.739) scale(339.492 91.6876)">
<stop stop-color="#4CA1FF" stop-opacity="0.65"/>
<stop offset="0.92" stop-color="#0A0721" stop-opacity="0.75"/>
<stop offset="1" stop-color="#0A0721" stop-opacity="0"/>
</radialGradient>
<radialGradient id="paint19_radial_2084_1918" cx="0" cy="0" r="1" gradientUnits="userSpaceOnUse" gradientTransform="translate(623.011 532.597) scale(612.981 19.2224)">
<stop stop-color="#4CA1FF" stop-opacity="0.65"/>
<stop offset="0.92" stop-color="#0A0721" stop-opacity="0.75"/>
<stop offset="1" stop-color="#0A0721" stop-opacity="0"/>
</radialGradient>
<radialGradient id="paint20_radial_2084_1918" cx="0" cy="0" r="1" gradientUnits="userSpaceOnUse" gradientTransform="translate(621.474 576.996) scale(251.064 251.064)">
<stop stop-color="#250D0E"/>
<stop offset="0.09" stop-color="#9F9495" stop-opacity="0.49"/>
<stop offset="0.16" stop-color="#E1DDDE" stop-opacity="0.22"/>
<stop offset="0.2" stop-color="#E4E0E1" stop-opacity="0.19"/>
<stop offset="0.45" stop-color="#F3F1F1" stop-opacity="0.09"/>
<stop offset="0.67" stop-color="#FBFBFB" stop-opacity="0.02"/>
<stop offset="0.86" stop-color="white" stop-opacity="0"/>
<stop offset="0.88" stop-color="#FBF9FD" stop-opacity="0.01"/>
<stop offset="0.89" stop-color="#F1E9F8" stop-opacity="0.06"/>
<stop offset="0.91" stop-color="#E0CDEF" stop-opacity="0.14"/>
<stop offset="0.92" stop-color="#A771D4" stop-opacity="0.39"/>
<stop offset="0.93" stop-color="#7D2DBF" stop-opacity="0.58"/>
<stop offset="0.94" stop-color="#6D38C7" stop-opacity="0.47"/>
<stop offset="0.96" stop-color="#4555DE" stop-opacity="0.19"/>
<stop offset="0.98" stop-color="#2A6AEE" stop-opacity="0"/>
</radialGradient>
</defs>
</svg>
