<svg version="1.1" id="Layer_1" xmlns="http://www.w3.org/2000/svg" x="0px" y="0px" viewBox="0 0 99.2 24.1">
	<g>
		<path class="st0" d="M11.2,13.3c0-2.5-2.8-3.7-5.2-3.7c-3.2,0-4.9,1.8-4.9,3.4c0,1.1,0.5,1.8,1.4,1.8c0.8,0,1.5-0.6,1.5-1.3
		c0-1.4-1-1.1-1-1.9c0-1.1,2.2-1.5,3.1-1.5c1.2,0,2.6,0.4,2.6,1.9v3.9H8c-3.2,0-8,0.9-8,4.4c0,2.1,1.5,3.4,4,3.4
		c2.1,0,3.5-0.5,4.6-2h0.1c0.2,1.1,1.3,2,2.8,2c1.4,0,2.2-0.7,2.8-1.7l-0.4-0.2c-0.5,0.7-0.9,1.3-1.6,1.3c-0.9,0-0.9-0.8-0.9-1.4
		C11.2,21.6,11.2,13.3,11.2,13.3z M8.6,16.4v4.1c0,0.6-1,2.4-3.4,2.4c-2,0-2.3-1.3-2.3-3.1c0-3.4,2.9-3.5,5.2-3.5L8.6,16.4L8.6,16.4
		z" />
		<path class="st0" d="M26.4,23.3h4.8v-0.5H29V0c-0.6,0.7-1.6,0.8-2.6,0.8h-2.5v0.5h2.5v11.5h-0.1c-0.6-1.5-2.1-3.2-4.4-3.2
		c-3.8,0-6.3,3.9-6.3,7c0,3.7,2.5,7,6.5,7c2.2,0,3.7-1.6,4.2-2.7h0.1L26.4,23.3L26.4,23.3z M26.4,18.7c0,2.6-2.1,4.4-4.2,4.4
		c-3.1,0-3.5-1.8-3.5-6.5c0-4.4,0.5-6.5,3.3-6.5c2.6,0,4.5,2.6,4.5,4.9V18.7z" />
		<path class="st0" d="M44.5,23.3h4.8v-0.5h-2.2V0c-0.6,0.7-1.6,0.8-2.6,0.8H42v0.5h2.5v11.5h-0.1c-0.6-1.5-2.1-3.2-4.4-3.2
		c-3.8,0-6.3,3.9-6.3,7c0,3.7,2.5,7,6.5,7c2.2,0,3.7-1.6,4.2-2.7h0.1L44.5,23.3L44.5,23.3z M44.5,18.7c0,2.6-2.1,4.4-4.2,4.4
		c-3.1,0-3.5-1.8-3.5-6.5c0-4.4,0.5-6.5,3.3-6.5c2.7,0,4.5,2.6,4.5,4.9C44.5,15,44.5,18.7,44.5,18.7z" />
		<path class="st0" d="M54.6,10.8h-2.5v-0.5h2.5c1,0,2-0.1,2.6-0.7v13.2h2.5v0.5h-7.7v-0.5h2.5L54.6,10.8L54.6,10.8z" />
		<path class="st0" d="M56,2.3c0.9,0,1.6,0.7,1.6,1.6S56.9,5.5,56,5.5s-1.6-0.7-1.6-1.6S55.1,2.3,56,2.3" />
		<path class="st0" d="M64.7,10.8H62v-0.5c3.3,0.1,4.5-1.3,5-4.4h0.4v4.4h4.4v0.5h-4.4v10.7c0,1.3,0.5,1.7,1.6,1.7
		c1.6,0,2.3-1.5,2.5-2l0.5,0.1c-0.2,0.8-1.1,2.4-3.5,2.4c-2.2,0-3.7-0.7-3.7-2.8L64.7,10.8L64.7,10.8z" />
		<path class="st0" d="M76.8,10.8h-2.5v-0.5h2.5c1,0,2-0.1,2.6-0.7v13.2H82v0.5h-7.7v-0.5h2.5V10.8z" />
		<path class="st0" d="M78.2,2.3c0.9,0,1.6,0.7,1.6,1.6s-0.7,1.6-1.6,1.6s-1.6-0.7-1.6-1.6C76.6,3,77.3,2.3,78.2,2.3" />
		<path class="st0" d="M85.5,10.8h-1.8v-0.5h7.2v0.5h-2.3l4,9.6l3.1-7.1c0.3-0.8,0.5-1.4,0.5-1.7c0-0.7-0.9-0.8-1.4-0.8h-1.1v-0.5
		h5.5v0.5c-1.5,0-1.8,0.1-2.5,1.6l-5.2,11.6h-0.2L85.5,10.8z" />
	</g>
</svg>