<svg id="a4c93c6e-eaf5-4add-9013-f2b65083dd3d" data-name="Layer 1" xmlns="http://www.w3.org/2000/svg" viewBox="0 0 341.17 74.23"><polygon points="64.41 64.79 64.39 0.25 44.55 0.25 0.32 64.72 20.2 64.73 47.94 24.29 47.94 48.28 47.92 48.28 37.55 48.28 37.58 64.79 64.41 64.79"/><rect x="73.37" y="0.28" width="39.88" height="16.45"/><rect x="73.38" y="24.26" width="39.88" height="16.45"/><rect x="122.43" y="0.29" width="16.45" height="64.49"/><path d="M167.93,7H168l3.71,11.82h-7.63Zm-5.5,17h11l1.92,6.19h6.79L171.65.25h-7.21L153.77,30.19h6.59Z"/><path d="M190.09,30.2h-5.81v-18h-3.21V8h3.21V6.22c0-4.58,2.49-6.34,6.48-6.34,1.71,0,2.5,0,3,.08V4.68h-1.63c-2,0-2,.62-2,2.45V8h3.79v4.18h-3.79Z"/><path d="M202,30.2h-5.81v-18H193V8h3.21V6.22c0-4.58,2.49-6.34,6.48-6.34,1.71,0,2.5,0,3,.08V4.68H204c-2,0-2,.62-2,2.45V8h3.79v4.18H202Z"/><path d="M213.51,8V30.2H207.7V8Zm0-2.63H207.7V0h5.81Z"/><path d="M223,30.2H217.2V.26H223Z"/><path d="M232.51,8V30.2H226.7V8Zm0-2.63H226.7V0h5.81Z"/><path d="M248.33,22.24c0,2.67-2.63,4.33-5.22,4.33a2.54,2.54,0,0,1-2.71-2.66c0-2.41,1.8-2.95,4-3.32,2.42-.37,3.38-.75,4-1.2v2.85ZM254,13.88c0-5.46-5.69-6.42-8.82-6.42-4.55,0-9.25,1-9.91,7.76h5.61c.17-1.29.67-3.08,3.59-3.08,1.5,0,3.84.13,3.84,2.58,0,1.25-1.13,1.62-2,1.75l-5.26.79c-3.7.54-6.44,2.75-6.44,7.08,0,4.55,3.4,6.43,6.73,6.43a9,9,0,0,0,7.18-3.22,10.09,10.09,0,0,0,.54,2.66h6.27v-.88c-.71-.25-1.29-.83-1.29-3.46v-12Z"/><path d="M263.87,8h3.63V12.2h-3.63v12c0,1.29,0,1.79,2.42,1.79.38,0,.79,0,1.21-.08v4.42c-.92,0-1.83.08-2.75.08H264c-5,0-5.94-1.92-5.94-4.8V12.19h-3V8h3V2h5.81Z"/><path d="M273.77,16.89c.33-2.9,1.8-4.64,4.55-4.64,1.88,0,4.18,1.08,4.51,4.64Zm8.81,6.78a3.76,3.76,0,0,1-3.76,2.4c-4.72,0-5.05-3.73-5.22-5.39h15.23v-1c0-10.11-6-12.19-10.43-12.19-9.72,0-10.64,8.53-10.64,11.19,0,9.1,4.79,12.11,11.05,12.11,3.8,0,8.22-1.75,9.76-7.08Z"/><path d="M296.19,19.27c0-3.49,1.25-6.77,4.95-6.77,4,0,5,3.57,5,7.1,0,3.28-1.46,6.35-5.16,6.35S296.19,21.88,296.19,19.27Zm15.5-19h-5.81V10.92h-.08a7.08,7.08,0,0,0-6.4-3.46c-4.87,0-9.2,3.76-9.2,11.4,0,6.06,2.75,11.9,9.33,11.9a7,7,0,0,0,6.4-3.38H306V30.2h5.69V.26Z"/><path d="M176.37,40.18H160.49v6.26h14.59v5.3H160.49V59.5h16.59v5.3H154.37V34.87h22Z"/><path d="M199.64,64.81h-5.81V51.36c0-1.62-.08-4.37-3.79-4.37-2.58,0-4.58,1.75-4.58,5.08V64.81h-5.81V42.62h5.56V45.9h.08A7.13,7.13,0,0,1,192,42.06c4.32,0,7.69,2.55,7.69,7.42V64.81Z"/><path d="M207.75,53.82c0-5.13,2.42-6.71,4.59-6.71,3.26,0,5,2.91,5,6.49,0,3-1,6.4-5,6.4C208.92,60,207.75,56.66,207.75,53.82Zm9.81-11.2V46h-.08A6.69,6.69,0,0,0,211,42.07c-4.88,0-9.21,3.76-9.21,11.41s4.21,11.45,9.55,11.45c3.51,0,5-1.63,5.93-3.34l.08.08v2.67c0,3.59-1.5,5.1-4.64,5.1-3.38,0-3.84-1.13-4.09-2.26h-6.33c.25,4.72,5.08,6.68,9.68,6.68,10.91,0,11.2-6.39,11.2-10.23v-21Z"/><path d="M232.13,42.62V64.81h-5.81V42.62Zm0-2.63h-5.81V34.56h5.81Z"/><path d="M255.7,64.81h-5.81V51.36c0-1.62-.08-4.37-3.79-4.37-2.58,0-4.58,1.75-4.58,5.08V64.81h-5.81V42.62h5.56V45.9h.08A7.13,7.13,0,0,1,248,42.06c4.32,0,7.69,2.55,7.69,7.42V64.81Z"/><path d="M263.47,51.5c.33-2.9,1.79-4.64,4.55-4.64,1.88,0,4.18,1.08,4.51,4.64Zm8.81,6.79a3.76,3.76,0,0,1-3.76,2.4c-4.72,0-5-3.73-5.22-5.39h15.23v-1c0-10.11-6-12.19-10.43-12.19-9.72,0-10.63,8.53-10.63,11.19,0,9.1,4.79,12.11,11,12.11,3.8,0,8.22-1.75,9.76-7.08Z"/><path d="M285.68,51.5c.33-2.9,1.8-4.64,4.55-4.64,1.88,0,4.18,1.08,4.51,4.64Zm8.82,6.79a3.76,3.76,0,0,1-3.76,2.4c-4.72,0-5.05-3.73-5.22-5.39h15.23v-1c0-10.11-6-12.19-10.43-12.19-9.72,0-10.64,8.53-10.64,11.19,0,9.1,4.79,12.11,11.05,12.11,3.8,0,8.22-1.75,9.76-7.08Z"/><path d="M302.73,42.62h5.56v3.82h.08c1.21-2.23,2.54-4.39,6.08-4.39a10.73,10.73,0,0,1,1.13.08V48a11.4,11.4,0,0,0-1.67-.08c-4.54,0-5.38,2.84-5.38,5.31V64.81h-5.81V42.62Z"/><path d="M329.63,49.4c-.25-1.41-.75-2.91-3.91-2.91s-3.59,1.21-3.59,2.16c0,3.49,13.88,1,13.88,9.1,0,6.44-6.23,7.61-9.7,7.61-5.05,0-10.51-1.75-10.68-7.65h6c0,1.86,1.17,3.23,4.84,3.23,3,0,3.72-1.45,3.72-2.28,0-3.69-13.75-.91-13.75-9.18,0-3.25,2-7.42,8.94-7.42,4.33,0,9.48,1.09,9.94,7.34Z"/><rect x="73.37" y="48.36" width="39.88" height="16.45"/><path d="M336.11,45.51a2.17,2.17,0,1,1,2.18,2.23A2.16,2.16,0,0,1,336.11,45.51Zm2.18,2.68a2.68,2.68,0,1,0-2.71-2.68A2.67,2.67,0,0,0,338.29,48.19Zm-.57-2.47h.54l.81,1.34h.52l-.88-1.36a.81.81,0,0,0,.8-.85c0-.61-.36-.88-1.09-.88h-1.17v3.08h.47V45.72Zm0-.39v-.95h.64c.33,0,.67.07.67.45s-.35.5-.75.5Z"/></svg>