<svg xmlns="http://www.w3.org/2000/svg" xmlns:xlink="http://www.w3.org/1999/xlink" viewBox="0 0 123 24">
  <path fill-rule="evenodd"
    d="M122.738 8.122a5.518 5.518 0 00-.358-.116 2.178 2.178 0 00-.607-.078c-.35 0-.627.08-.822.239-.2.164-.302.413-.302.745v6.96c-.105.02-.26.042-.466.066-.266.03-.621.046-1.056.046-1.126 0-1.931-.23-2.393-.684-.463-.45-.697-1.144-.697-2.06V8.217a.104.104 0 00-.066-.096 5.771 5.771 0 00-.359-.116 2.178 2.178 0 00-.606-.078c-.35 0-.626.08-.823.239-.2.164-.302.413-.302.745v4.533c0 1.118.268 2.028.798 2.706.426.536 1.01.952 1.735 1.232.722.277 1.672.418 2.826.418a23.484 23.484 0 002.204-.104c.315-.031.584-.058.805-.084a3.25 3.25 0 00.48-.079.103.103 0 00.075-.098V8.218a.104.104 0 00-.066-.096zm-10.678-.126a2.915 2.915 0 00-.795-.254 6.802 6.802 0 00-1.258-.095 6.98 6.98 0 00-1.556.161c-.457.107-.859.23-1.195.361-.337.133-.61.262-.81.383-.27.164-.339.22-.37.25a.1.1 0 00-.03.072v8.562c0 .056.047.102.105.102h1.947a.103.103 0 00.103-.102V9.923l.156-.088c.095-.054.226-.108.388-.16.164-.055.36-.103.6-.148.234-.042.507-.063.813-.063.442 0 .846.05 1.201.147.352.096.59.186.705.266.039.027.09.024.126-.005.085-.07.179-.188.288-.363.11-.179.166-.398.166-.654 0-.378-.197-.667-.584-.859zm-8.334.01a2.178 2.178 0 00-.606-.078c-.35 0-.627.08-.823.239-.2.164-.302.413-.302.745v6.96c-.104.02-.26.042-.465.066-.266.03-.622.046-1.056.046-1.126 0-1.932-.23-2.394-.684-.462-.45-.697-1.144-.697-2.06V8.217a.103.103 0 00-.066-.096 5.618 5.618 0 00-.358-.116 2.182 2.182 0 00-.606-.078c-.351 0-.628.08-.823.239-.2.164-.302.413-.302.745v4.533c0 1.118.268 2.028.797 2.706.426.536 1.01.952 1.737 1.232.72.277 1.671.418 2.825.418a23.46 23.46 0 002.203-.104c.315-.031.585-.058.805-.084.223-.025.384-.051.48-.079a.102.102 0 00.075-.098V8.218a.103.103 0 00-.065-.096 5.518 5.518 0 00-.359-.116zm-18.37-.672a4.232 4.232 0 011.484-.977 5.075 5.075 0 011.88-.34c.469 0 .902.05 1.29.147.388.097.735.216 1.03.35a3.796 3.796 0 011.214.856.105.105 0 00.13.02c.066-.04.147-.094.245-.166a1.724 1.724 0 00.532-.628c.07-.139.106-.293.106-.457 0-.167-.052-.344-.155-.528a1.616 1.616 0 00-.495-.513 4.642 4.642 0 00-.542-.307 5.375 5.375 0 00-.83-.317 8.907 8.907 0 00-2.469-.332c-1.014 0-1.965.16-2.823.476a6.54 6.54 0 00-2.247 1.37 6.345 6.345 0 00-1.49 2.162c-.356.84-.537 1.803-.537 2.86 0 1.133.187 2.14.557 2.99a5.95 5.95 0 001.539 2.145 6.457 6.457 0 002.334 1.286c.895.283 1.889.426 2.952.426a28.192 28.192 0 002.752-.131c.366-.037.667-.072.9-.104a6.16 6.16 0 00.436-.067.103.103 0 00.08-.1V11.46c0-.791-.44-1.21-1.276-1.21h-3.705a.102.102 0 00-.09.05 2.525 2.525 0 00-.158.353 1.636 1.636 0 00-.102.6c0 .441.186.965 1.069.965h2.07v3.598a9.297 9.297 0 01-.533.075c-.31.036-.752.056-1.311.056-.756 0-1.461-.1-2.096-.296a4.38 4.38 0 01-1.634-.896 4.038 4.038 0 01-1.06-1.536c-.252-.62-.38-1.364-.38-2.21 0-.784.12-1.493.352-2.108a4.485 4.485 0 01.98-1.567zm-8.11 6.745a3.181 3.181 0 01-.575 1.052 2.556 2.556 0 01-.909.684 2.923 2.923 0 01-1.213.244c-.462 0-.877-.082-1.233-.244a2.551 2.551 0 01-.909-.684 3.16 3.16 0 01-.577-1.052 4.298 4.298 0 01-.202-1.345c0-.489.069-.941.202-1.346.134-.403.328-.758.577-1.052.247-.293.553-.523.909-.685a2.96 2.96 0 011.233-.243c.449 0 .857.081 1.213.243.355.162.66.392.909.685.248.295.442.65.576 1.052.135.406.203.858.203 1.346 0 .487-.068.94-.203 1.345zm1.006-4.987A4.936 4.936 0 0076.63 8.02a5.401 5.401 0 00-2.081-.392 5.49 5.49 0 00-2.091.391 4.915 4.915 0 00-1.632 1.073 4.83 4.83 0 00-1.053 1.617 5.418 5.418 0 00-.376 2.025c0 .721.127 1.402.376 2.024.25.622.604 1.165 1.053 1.616a4.91 4.91 0 001.632 1.073 5.49 5.49 0 002.09.392c.753 0 1.454-.132 2.082-.392a4.953 4.953 0 001.622-1.073c.45-.45.804-.996 1.053-1.616a5.39 5.39 0 00.375-2.024 5.41 5.41 0 00-.375-2.025 4.841 4.841 0 00-1.053-1.617zm-10.203 6.434a.1.1 0 00-.067-.046.097.097 0 00-.08.016l-.127.083-.059.037a2.658 2.658 0 01-.782.323c-.168.042-.35.064-.542.064-.45 0-.81-.109-1.067-.323-.252-.21-.379-.615-.379-1.205v-4.73h2.996c.04 0 .077-.022.094-.058.025-.05.069-.15.126-.298a1.49 1.49 0 00.093-.552c0-.415-.173-.909-.993-.909h-2.316V5.295a.102.102 0 00-.066-.096 5.352 5.352 0 00-.358-.115 2.206 2.206 0 00-.606-.079c-.35 0-.63.08-.83.238-.208.163-.314.414-.314.746v8.73c0 .436.063.844.185 1.213.124.375.32.706.58.984.262.279.6.5 1.003.653.4.154.884.232 1.437.232a4.6 4.6 0 001.111-.125c.327-.083.609-.175.84-.277.233-.102.424-.211.57-.322.137-.105.231-.177.282-.214a.103.103 0 00.026-.138l-.757-1.199zm-7.767-7.52a2.178 2.178 0 00-.606-.078c-.35 0-.627.08-.822.239-.2.164-.302.413-.302.745v6.96c-.105.02-.26.042-.466.066-.266.03-.621.046-1.056.046-1.126 0-1.931-.23-2.394-.684-.462-.45-.697-1.144-.697-2.06V8.217a.104.104 0 00-.066-.096 5.518 5.518 0 00-.358-.116 2.178 2.178 0 00-.606-.078c-.35 0-.627.08-.823.239-.2.164-.302.413-.302.745v4.533c0 1.118.268 2.028.797 2.706.427.536 1.01.952 1.736 1.232.721.277 1.672.418 2.826.418a23.484 23.484 0 002.203-.104c.316-.031.585-.058.805-.084.223-.025.385-.051.48-.079a.103.103 0 00.076-.098V8.218a.104.104 0 00-.066-.096 5.518 5.518 0 00-.359-.116zm-18.455 4.267c.225-.57 2.342-5.553 2.461-5.805.019.04 2.189 5.254 2.398 5.805h-4.859zm7.497.592c.17.419.343.843.516 1.273a129.05 129.05 0 011.267 3.262.103.103 0 01-.097.139h-2.226a.103.103 0 01-.095-.06c-.064-.136-1.138-2.995-1.244-3.275h-6.379c-.273.672-1.114 2.93-1.24 3.268a.103.103 0 01-.097.066h-2.041a.102.102 0 01-.085-.044.1.1 0 01-.013-.094c.388-1.043.815-2.14 1.267-3.262l.516-1.273a139.586 139.586 0 011.73-4.21c.35-.81.687-1.566 1.003-2.25a29.206 29.206 0 01.326-.685 6.1 6.1 0 01.22-.432c.192-.338.389-.581.595-.74.269-.203.605-.313 1.002-.328h.2c.396.015.732.125 1 .329.208.158.404.401.597.74a5.486 5.486 0 01.235.466c.099.2.202.417.31.65.316.684.653 1.44 1.002 2.25.365.846.725 1.707 1.07 2.56.23.566.45 1.117.661 1.65zM0 2.845A11.638 11.638 0 017.625 0c2.873 0 5.507 1.047 7.55 2.78L13.847 5.1a9.066 9.066 0 00-6.22-2.472A9.067 9.067 0 001.333 5.17L0 2.845zm7.627 2.268c3.714 0 6.726 3.036 6.726 6.781V18.6l-2.486-1.442a6.666 6.666 0 01-4.24 1.518C3.912 18.676.9 15.639.9 11.894s3.012-6.781 6.727-6.781zm0 11.014c2.318 0 4.198-1.895 4.198-4.233 0-2.337-1.88-4.232-4.198-4.232-2.32 0-4.199 1.895-4.199 4.232 0 2.338 1.88 4.233 4.199 4.233zm21.79 2.49l1.333 2.327a11.638 11.638 0 01-7.625 2.844 11.637 11.637 0 01-7.55-2.779l1.329-2.322a9.066 9.066 0 006.22 2.472 9.066 9.066 0 006.294-2.541zm-6.293.059c-3.715 0-6.727-3.037-6.727-6.782s3.012-6.781 6.726-6.781h6.652l-1.43 2.506a6.786 6.786 0 011.505 4.275c0 3.745-3.012 6.782-6.726 6.782zm0-11.014c-2.32 0-4.199 1.895-4.199 4.232 0 2.338 1.88 4.233 4.199 4.233 2.318 0 4.198-1.895 4.198-4.233 0-2.337-1.88-4.232-4.198-4.232z" />
</svg>