<svg xmlns="http://www.w3.org/2000/svg" viewBox="0 0 2785.03 732.02">
  <path
    d="M1534,732c-6.57-1.27-13.15-2.49-19.7-3.81-49.4-10-87.68-37.2-117.51-76.89-28.19-37.53-38.57-80.21-36.09-126.79,4.7-88.2,75.54-157.86,145-173.51,68.09-15.34,129.45-2.14,181.43,46.44,5,4.64,9.45,9.81,14.79,15.39V.45h47c.07,1.61.21,3.35.21,5.1V727.47c0,1.5-.12,3-.18,4.49h-47V664.57c-4.92,4.83-9.15,9.07-13.48,13.2-27,25.71-58.35,43.24-95.16,50.37-7.74,1.5-15.57,2.56-23.36,3.82Zm168.17-193.61c0-82.76-65.61-148.34-148.45-148.37-81,0-148.19,67.16-148.62,148-.43,82.19,69.1,148.42,146.94,149.28C1633.82,688.12,1703.65,618.35,1702.17,538.35Z" />
  <path
    d="M880,732c.06-2.16.17-4.33.17-6.49V.47h44.64v413.2c2.3-2.24,3.65-3.47,4.9-4.8,25.37-27,55-47.61,91.16-56.67,69.58-17.42,132.34-4,185.93,45.09,30.53,28,51.5,62,58.72,103.1,12.66,71.92-7.45,133.3-62,182.62-31.77,28.75-69.06,45-111.93,48.21a5,5,0,0,0-1.64.78h-33a32.48,32.48,0,0,0-3.63-1c-8-1.27-16.18-2.08-24.13-3.78-39.57-8.49-72.21-28.91-99.38-58.52a53.21,53.21,0,0,1-3.55-4.91L924.77,665v17q.08,25,.18,50Zm344.17-193.61c-.05-82.79-66.25-148.37-149.71-148.34-81.53,0-149,67.34-149.33,148.45-.3,81.65,70,150.09,152.16,148.79C1155.84,686,1225.15,619,1224.17,538.35Z" />
  <path
    d="M2573,732c-8.44-1.43-16.95-2.56-25.31-4.35-38.83-8.32-71.12-28.15-98.29-56.69-27.6-29-45.44-63-50.81-102.9-8.25-61.26,7.32-115.41,50-160.94,28.43-30.34,62.47-51.44,103.77-58.44,70.92-12,132.49,5.83,181.83,60,1.12,1.23,2.25,2.45,3.41,3.65.19.19.54.22,1.34.52V345H2785V732h-47a15.4,15.4,0,0,0,.4-2.43V667.14a10.3,10.3,0,0,0-.41-2.06c-4.07,3.9-7.9,7.54-11.71,11.21-27.4,26.48-59.27,44.64-96.94,51.89-7.74,1.48-15.56,2.53-23.34,3.78ZM2441.58,538.29C2440,618,2508.9,686,2587.5,687.21c82.14,1.26,150.93-68.19,151.14-148,.21-82.12-66.12-149.28-148.68-149.37C2508.52,389.75,2440.28,459.35,2441.58,538.29Z" />
  <path
    d="M2244,732c.06-2,.17-4,.17-6,0-64.15-.25-128.3.16-192.44A110,110,0,0,0,2230.72,479,213.3,213.3,0,0,0,2189.29,425c-22.28-21-49.87-29.78-79.36-34-24.75-3.57-47.6,4.28-70.73,11.37-29.82,9.14-49.65,30-66.43,54.66-11.19,16.44-20.67,33.76-24.22,53.66a79.75,79.75,0,0,0-1.31,13.88q-.12,100.73-.06,201.45c0,2-.12,4-.18,6h-47c.06-2,.17-4,.17-6V345.27h46.91v67.59c6.91-6.64,13-12.88,19.49-18.68,27.16-24.29,58.32-41,94.58-46.21,79.55-11.5,144.81,12.75,192.06,79.45,16,22.65,29,47,34.21,74.7a95.36,95.36,0,0,1,1.69,17.36q.16,104.74.07,209.49c0,1-.12,2-.18,3Z" />
  <path
    d="M425,732c-3.23-1-6.44-2.05-9.68-3-17-5-30.09-14.73-37-31.53-11.25-27.52,5.38-54.76,35.11-55.81,25.4-.9,46,9.39,59.34,31.81,5.05,8.48,7.34,17.89,5.75,27.8C476,717.35,464,728.35,446.62,731a30.32,30.32,0,0,0-3.62,1Z" />
  <path
    d="M552,732c-4.9-1.36-9.9-2.41-14.66-4.14-18-6.53-30.35-18.56-35.52-37.38-5.22-19,4.44-36.35,23.47-42,29.88-8.86,65,10.32,73.77,40.25,6.45,22.1-3,37.77-25.48,42.39A5.67,5.67,0,0,0,572,732Z" />
  <path
    d="M0,158c.61-2.12,1.35-4.21,1.82-6.36,4.25-19.56,25.33-34.32,47.91-23,24.08,12.06,38.85,39.37,35.15,66-3.5,25.19-26.55,36.44-50.61,24.68C13.07,208.92,3.4,191.06,1.12,168.36A30.7,30.7,0,0,0,0,163.92Z" />
  <path
    d="M0,25a30.05,30.05,0,0,0,1.62-3.45C7.62,2.9,24.78-4.82,42.54,3.08c26.34,11.73,43.58,43.3,39.18,71.8C78.45,96,59.6,108.13,39.37,98.31,17.52,87.69,5,70.79,1,47.08A22.23,22.23,0,0,0,0,44Z" />
  <path
    d="M676,732c-5-1-10-1.8-14.9-3-19.58-4.88-32.82-16.76-39.44-35.94-4.23-12.23-1.21-22.62,8-31.32,10.71-10.16,23.63-12,37.64-9.55,22.26,3.89,39,15.12,49.08,35.8,10.56,21.67.79,39.94-23.22,43a34.34,34.34,0,0,0-4.12,1Z" />
  <path
    d="M173.38,610c-28.49.12-54.54-24.2-56.17-52.44-1.31-22.72,19.37-43.92,43.41-43.24,27.56.78,49.23,18.24,55.14,44.24C222.52,588.08,204.38,609.83,173.38,610Z" />
  <path
    d="M49,501.65c16.88.83,30.81,9,39.09,25.77a64.4,64.4,0,0,1,4.53,46.13c-6.46,24.62-27.37,35.66-51.7,27.54C8.11,590.09-7,548.52,12,520.68,20.36,508.35,32.2,501.82,49,501.65Z" />
  <path
    d="M1.81,291.55C1.81,273,12,257.36,27.87,251.64c11.81-4.26,22.6-1.42,32.79,4.94,20.93,13.06,33.12,45.76,26,69.42S59.25,358.68,36.8,348.35C16,338.79,1.86,315.83,1.81,291.55Z" />
  <path
    d="M296.15,616.23c-18-.53-34.45-5-45.55-20.44-9.5-13.16-13.19-28-7.85-43.9,4.76-14.19,19.22-24.58,34.14-25.11,30.57-1.1,54.42,19.08,58.35,49.38,2.81,21.58-9.89,37.55-31.55,39.63C301.21,616,298.71,616.09,296.15,616.23Z" />
  <path
    d="M162.52,374.58c-29-1.64-52-24.65-54.58-54.66-1.65-19.06,5.35-32.37,20.54-39.48,13.63-6.37,26.08-2.54,37.86,4.61,19.57,11.86,29.83,30,30.92,52.36C198.2,356.7,182.94,375.35,162.52,374.58Z" />
  <path
    d="M169.34,489c-26,0-49.18-17.41-55.68-41.8s10.72-48.52,35.18-47.83c27.47.76,55.2,20,58.2,52,2.06,22-11.54,37.16-33.7,37.66Z" />
  <path
    d="M43.32,379.86c20.82-.4,40,14.46,45.51,35.74,3.07,11.86,4.3,23.83-.58,35.71-6.67,16.23-22,24.84-39.26,21.85C23.39,468.72,5.35,450,2.78,425.28.45,402.79,20.52,380.29,43.32,379.86Z" />
  <path
    d="M394.52,540c21.93,1.32,40.9,8.56,53.62,27.73a48.51,48.51,0,0,1,8,24.88c.71,14.77-5.89,24.36-20.31,27.78-17.7,4.2-35.11,2.82-51.51-5.55-17.18-8.77-27.8-28.31-26.29-47.51,1.16-14.42,14.33-26.06,31-27.35C390.85,539.9,392.69,540,394.52,540Z" />
  <path
    d="M217.82,339.69c-.08-25.63,19.05-39.7,40.73-32.66,24.32,7.9,39.52,24.24,45,49.37,4.15,19.11-8.2,43.49-33.66,40.37a59.9,59.9,0,0,1-31.72-13.42C223.73,371.22,218.66,354.94,217.82,339.69Z" />
  <path
    d="M153.05,254.91c-11.22-.7-22.74-9.17-32.47-20.32s-16.3-23.84-18-38.73c-1.36-12.11,1.5-23,11.21-30.89,9.12-7.42,19.54-7.62,30.11-3.2,26.49,11.09,40.79,31.86,43.37,59.62C188.73,236.72,177.52,255.35,153.05,254.91Z" />
  <path
    d="M287,505.14c-25.48,0-48.73-15.43-55.4-37.28a53.52,53.52,0,0,1-2.32-16.19c.3-18.35,13.37-31.11,31.75-31.67A56.66,56.66,0,0,1,319,466.35C323.37,489,310.06,505.14,287,505.14Z" />
  <path
    d="M405,521.35c-18.81-.8-35.76-5.15-49.11-18.67-9.46-9.57-14-21.29-14-34.69,0-15.45,10.76-26.81,26.24-28,33-2.48,63,22,67.14,54.72,1.85,14.64-5.65,24.11-20.79,26.07C411.15,521.21,407.8,521.18,405,521.35Z" />
  <path
    d="M178.28,108.69c-.95,13.42-4.21,23.62-15.71,28.8-8.31,3.73-16.65,2.15-24.5-1.67-21.86-10.64-33.22-29.29-39-52-2.1-8.19-2.25-16.33.93-24.4,5.9-15,20.4-21.2,34.94-14.5,20.35,9.38,33.67,25.06,39.9,46.55C176.61,97.63,177.38,104.1,178.28,108.69Z" />
  <path
    d="M572.05,599.45c0,14.94-6.52,23.9-19.15,26.9C529,632,507.28,627.41,489.52,609.7c-8.25-8.24-12.43-18.86-13-30.53-.65-12.56,9.35-24.11,23.73-25.87,22.89-2.79,43.71,2.36,59.66,20.29C567.21,581.82,571.52,591.67,572.05,599.45Z" />
  <path
    d="M263.57,286C241.14,284.88,216,270.6,209,241.21c-2.1-8.88-4.3-17.79-2-27a25.5,25.5,0,0,1,30.87-18.65l.82.22c27.33,7.54,47.79,31.56,49.8,59.72a40.42,40.42,0,0,1-3.7,18.75C281,282.84,273.11,286.47,263.57,286Z" />
  <path
    d="M411.94,394c1.28,15.18-10.68,27.35-29.92,25-26.82-3.21-44.86-17.77-54.33-43-2.79-7.43-3.9-15.24-2.17-23,3.38-15.27,16.71-23.33,33.49-18.8,26.74,7.23,45.68,23.21,52.31,51.33a17,17,0,0,1,.59,2.92C412,390.28,411.94,392.12,411.94,394Z" />
  <path
    d="M546.41,512.64c-.29,12.07-6.59,20.13-17.74,23.21-14.27,4-27.74.33-40.63-5.55-16.76-7.64-28.65-19.8-32.43-38.46-3.19-15.74,6.73-29.12,22.58-30.89,28.51-3.18,59.45,17.62,67,45.13A60.6,60.6,0,0,1,546.41,512.64Z" />
  <path
    d="M273.05,150.73c.05,16-6.22,24.42-19.53,25.55-5.48.46-11.52-1.35-16.79-3.44-25-9.88-42.72-36.77-41.48-63.56a32,32,0,0,1,5.85-16.47c7.19-9.9,19.38-10.75,32.27-3.5,22.17,12.47,34.81,31.66,39.42,56.4A28.07,28.07,0,0,1,273.05,150.73Z" />
  <path
    d="M454.89,360.9c24.47.72,59.49,22,63.7,56.4,1.76,14.36-8.26,25.82-25.77,24.22-25.28-2.31-45.08-14.43-56.36-38A52.24,52.24,0,0,1,431.21,386C429.82,370,438.88,360.85,454.89,360.9Z" />
  <path
    d="M390.15,293c1,15.06-9.45,26.07-28.48,22.5-27.25-5.1-49.83-29.15-53.49-56.5a39.36,39.36,0,0,1,.34-13.39c2.63-11.92,13.81-18.07,26.73-15.31,26.7,5.71,49.5,29,54.46,55.74A55.83,55.83,0,0,1,390.15,293Z" />
  <path
    d="M658.25,635.47c-24.46-1.32-43.81-6.17-58-23.1-6.47-7.75-10.41-16.77-9.7-27.06.77-11,8.7-18.47,22-20,22-2.61,54.66,5.26,68.67,35.24a50.36,50.36,0,0,1,3.34,9.38c2.08,8.68-1.17,16.87-9.29,20.5C668.93,633.24,661.82,634.45,658.25,635.47Z" />
  <path
    d="M467.78,346c-11.65-.66-24.21-6.92-35.18-16.22-13.47-11.43-22.49-25.64-24.74-43.62-1.81-14.48,8.81-24.67,23.15-21.64,18.26,3.83,32.95,13.83,45.11,27.67,7.81,8.88,13.5,18.87,15,30.93C492.89,337.59,485.52,346,467.78,346Z" />
  <path
    d="M290.7,149.14c1.9-5.35,2.92-11.28,5.93-15.92,4.62-7.15,12-7.82,19.94-5.65,26.18,7.19,51.93,40.16,52.42,67.34.28,15.09-7.48,22.12-22.27,19-30.18-6.44-53.54-30.68-54.73-64.27Z" />
  <path
    d="M591.45,480.77c27.17,0,55.14,21.88,60.88,47.6,2.52,11.3-2.07,19.48-13.18,22.57-13.35,3.71-26,.71-38.22-4.9-14-6.45-25.34-16-32-30.14C559.65,496.07,569.52,480.77,591.45,480.77Z" />
  <path
    d="M385,187.16c-.05-15.77,9.14-23.23,22.54-18.26,28,10.38,47.77,29.65,55.8,58.67,4.57,16.51-6,26.48-23.79,21.62-29.17-8-46.84-28.3-54.26-57.52A18,18,0,0,1,385,187.16Z" />
  <path
    d="M596.18,462c-31-3.27-54.87-21.87-59.28-55-1.68-12.58,6.36-20.84,19-19.48,27.75,3,47.7,17.07,58.49,43.21,2.76,6.7,3.15,13.66.11,20.38C610.92,459,604.43,462.25,596.18,462Z" />
  <path
    d="M583.83,358.13c-.07,11.94-7.63,18.27-18.7,16.36-18.9-3.26-33.23-13.79-44.06-29.21-5.87-8.35-10.33-17.45-11.33-27.85-1.24-12.84,8.39-21.9,20.57-17.87,26.83,8.87,44.88,27,52.89,54.42A22.38,22.38,0,0,1,583.83,358.13Z" />
</svg>
