<svg id="ee0e569e-2503-4c6a-aa4f-b5bdf1ffaef3" xmlns="http://www.w3.org/2000/svg" viewBox="0 0 512 210">
  <path
    d="M129.62,13.17c.76-4.89,1.14-7.33,2-8.06a2.44,2.44,0,0,1,1.6-.72c1.07-.12,3.26,1.39,7.47,4.3a49.86,49.86,0,0,0,28.46,9.15,47.45,47.45,0,0,0,28.15-9.23c5.88-4.25,8.81-6.38,10.09-6.9,3.88-1.6,5.3-1.57,9.12.16,1.27.58,3.17,2.06,7,5,2.26,1.77,3.39,2.65,4.06,3.62a7.83,7.83,0,0,1,.66,7.66c-.49,1.08-1.46,2.16-3.41,4.33-11,12.22-32.66,36.76-59.31,68.58A38.52,38.52,0,0,1,176.71,93a95.63,95.63,0,0,1,14.5,6.3c7.22,3.67,13.61,6.92,24.13,6.92A56,56,0,0,0,236,102c-3-5.61-7.12-24.21-2.78-44.85,4.38-20.88,10.68-36,24.64-48.93,11.71-10.83,31.59-11.55,38.72,3.21,5.74,11.86,8.83,32.25-16.15,70.73a90.59,90.59,0,0,1-14.92,17.5c6.75,4.54,16.76,7.43,31.61,6.18a43.4,43.4,0,0,0,16.4-4.6c-2.95-6.38-6.57-24.29-2.41-44.09,4.38-20.88,10.68-36,24.64-48.93,11.71-10.83,31.59-11.55,38.72,3.21,5.74,11.86,8.83,32.25-16.15,70.73a78,78,0,0,1-15.81,18.13s4.64,6.42,16.12,6.42c29.66,0,39.6-48.25,43-80.35.63-5.88.94-8.82,2.13-11a11.73,11.73,0,0,1,2.59-3.26c1.83-1.63,4.41-2.47,9.56-4.17l3.86-1.26c5.71-1.87,8.56-2.81,10.52-2A5.74,5.74,0,0,1,433,6.92c1.2,1.8.94,5,.41,11.45-.93,11.28-.93,23.54-.93,23.54S443.14,4.46,480.41.3C519.23-4,511.34,40.21,511.34,40.21c-2.78,20.17-14.68,35.33-24.48,47.8-7.49,9.55-13.75,17.52-13.75,25s15.76,4,24.75,1.25c6.54-2,12.49-3.76,13.5-1.93,2.4,4.32-41.59,34.71-56.41,6.73-5.73-10.8,1.52-28,8.5-40.26S485.63,37.55,472.36,34c-5.25-1.41-10.32.06-14.78,3.57-43.67,34.41-32.9,131.3-31.32,159.84.16,2.9.24,4.35-.2,5.55a6,6,0,0,1-1.28,2.11c-.86.92-2.21,1.5-4.92,2.65-4.12,1.74-6.17,2.62-8,2.19a5.83,5.83,0,0,1-3.05-1.82c-1.27-1.42-1.56-3.75-2.16-8.41-4.87-37.95-6.6-72.69-5.27-104.64-14.51,26.49-30.07,35.44-48.92,35.44-12.61,0-21.73-6.27-28.05-13.39a82.78,82.78,0,0,1-38.63,13.2c-17,1.31-30.84-7.1-39.58-15.38-9.47,5.64-22.64,14-39.85,15.41-10.5.87-17.6-3.4-24.41-7.25-5.11-2.9-10.13-5.7-16.16-6.28-8.67-.83-18.92,1.34-26,6.08a28.9,28.9,0,0,1-4.56,2.8,6.68,6.68,0,0,1-7.16-1.36,24.56,24.56,0,0,1-3-3.8c-2-2.88-3-4.31-3.59-5.68a12.37,12.37,0,0,1,1.38-11.87c.85-1.2,2.23-2.39,5-4.79,40.69-35.35,57.81-57.57,57.81-57.57s-2.31,3.09-17.69,3.09c-9,0-19.61-5.61-26.91-10.27C119.35,108.85,98,130.46,68.7,130.46,54.87,130.46,45.27,122.9,39,115c-15.8,8.86-30.71,14.74-36.63,15.48-8.09,1,7.38-10.36,8.59-11.26C28.6,106,31.31,102.72,31.31,102.72c-3-5.38-7.75-24.66-3.37-45.54s10.68-36,24.64-48.93C64.29-2.58,84.17-3.3,91.31,11.46,97,23.32,100.13,43.71,75.15,82.19a78.6,78.6,0,0,1-16.08,18.37s4.26,6.18,15.77,6.18C105.07,106.74,124.14,48.31,129.62,13.17ZM66.49,33.52c-15.58-1.73-25,28.23-15.43,53.62C72.4,68.05,82.07,35.25,66.49,33.52Zm283.14,0c-15.58-1.73-25,28.23-15.43,53.62C355.54,68.05,365.2,35.25,349.63,33.52Zm-77.9,0c-15.57-1.73-25,28.23-15.43,53.62C277.64,68.05,287.31,35.25,271.73,33.52Z"
    fill-rule="evenodd" />
</svg>
