<svg xmlns="http://www.w3.org/2000/svg" viewBox="0 0 461 81">
  <path d="m267.7 62.3-4.4-2.5c-.2-.1-.5 0-.6.2-.2.4-.5.8-.7 1.2-.2.3-.4.5-.6.7-.3.4-.6.7-.9 1-.5.5-1 .9-1.5 1.3-.3.2-.7.5-1.1.7-2.3 1.3-4.8 1.9-7.7 1.9-2.3 0-4.4-.4-6.3-1.2l-.6-.3c-.3-.2-.7-.4-1-.6-1-.6-1.9-1.3-2.8-2.2-.4-.4-.8-.8-1.1-1.3-.1-.1-.2-.3-.3-.4-.1-.2-.3-.4-.4-.6-.1-.2-.3-.4-.4-.6-1.3-2.3-2-4.9-2-8 0-2.8.6-5.3 1.7-7.4.1-.2.2-.3.3-.5.6-1.1 1.4-2.1 2.3-3.1 2.8-2.9 6.4-4.3 10.7-4.3 1.2 0 2.3.1 3.4.4.2 0 .3.1.5.1 1.3.3 2.6.8 3.7 1.5 1 .6 1.9 1.3 2.6 2l.4.4.3.3c.6.7 1.1 1.5 1.5 2.3.1.2.4.3.6.2l4.2-2.4.3-.2 7.1-4.2c.2-.1.3-.4.2-.6-1.8-3.3-4.2-6.1-7.3-8.3-.4-.3-.9-.6-1.3-.9-.4-.3-.9-.6-1.4-.9-.5-.3-1-.6-1.5-.8-.2-.1-.3-.2-.5-.2-.5-.2-.9-.4-1.4-.6-.6-.2-1.2-.5-1.8-.7l-.9-.3c-.4-.1-.7-.2-1.1-.3l-1.5-.3c-.4-.1-.9-.2-1.4-.2-.5-.1-1.1-.1-1.6-.2-.3 0-.5 0-.8-.1-.8-.1-1.5-.1-2.3-.1-1.1 0-2.1 0-3.2.1-.4 0-.9.1-1.3.1h-.2c-.2 0-.5.1-.7.1-.7.1-1.4.2-2.1.4-.3.1-.6.2-1 .2-.9.2-1.8.5-2.6.9-3.7 1.4-7 3.6-9.9 6.5-2.8 2.8-4.9 5.9-6.3 9.4-1.4 3.5-2.1 7.4-2.1 11.6 0 4.2.7 8.1 2.1 11.6.2.5.5 1.1.7 1.6.2.3.3.7.5 1 .2.3.3.6.5.9.2.3.3.5.5.8 1.1 1.8 2.5 3.5 4 5.1l.6.6c2.7 2.5 5.6 4.5 8.9 5.8.2.1.4.2.7.3.7.2 1.3.5 2 .7.2.1.5.1.7.2 2.6.7 5.3 1 8.2 1 1.3 0 2.6-.1 3.9-.2.3 0 .5-.1.8-.1.7-.1 1.5-.3 2.2-.4 2.8-.6 5.5-1.7 8-3.2.9-.6 1.8-1.1 2.7-1.8 3.1-2.3 5.6-5.1 7.5-8.4.1-.2 0-.5-.2-.6l-7.5-4.1Z"/>
  <path d="M132.5 37.8c.2 0 .4-.2.4-.4V24.5c0-.2-.2-.4-.4-.4h-10.9c-.2 0-.4-.2-.4-.4v-.1c0-6.8 3.8-9.9 11.3-9.5.3 0 .5-.2.5-.4V.100001h-.8C123.9-.299999 117.7 1.5 113.4 5.5c-1.6 1.5-2.8 3.1-3.8 5.1-1.5 2.9-2.4 6.4-2.6 10.3-.1.8-.1 1.6-.1 2.5v.1c0 .2-.2.4-.4.4h-7.1c-.2 0-.4.2-.4.4v13c0 .2.2.4.4.4h7.1c.2 0 .4.2.4.4v41c0 .2.2.4.4.4h13.5c.2 0 .4-.2.4-.4v-41c0-.2.2-.4.4-.4h5.2l5.7.1Z"/>
  <path d="M191.9 24.4c0-.2-.2-.4-.4-.4H178c-.2 0-.4.2-.4.4V54c0 4.6-1.1 8.1-3.3 10.4-1.8 1.9-4.1 3-6.9 3.3-.6.1-1.3.1-2 .1-1.2 0-2.3-.1-3.3-.4-.1 0-.2-.1-.3-.1-.3-.1-.5-.1-.8-.2-.6-.2-1.1-.4-1.6-.7-.2-.1-.3-.2-.4-.3-.6-.4-1.1-.8-1.6-1.3-2-2-3-4.8-3-8.5V24h-13.9c-.2 0-.4.2-.4.4v33.7c0 2.8.3 5.4.9 7.7 0 .2.1.3.1.5.7 2.4 1.7 4.6 3.1 6.5.1.1.1.2.2.2.2.2.3.4.5.7.4.4.7.9 1.1 1.3.1.1.2.3.4.4 1.1 1.1 2.2 2 3.5 2.7.1.1.2.1.3.2.2.1.4.3.7.4.2.1.4.2.5.3.7.4 1.5.7 2.2.9h.1c2.3.8 4.7 1.2 7.4 1.2 2.4 0 4.6-.3 6.7-.8.3-.1.6-.2.8-.2.1 0 .2-.1.4-.1.4-.1.8-.3 1.2-.5.2-.1.3-.1.5-.2 1.4-.6 2.6-1.4 3.7-2.3.2-.2.5-.4.7-.6l.1-.1c.6-.6 1.2-1.2 1.8-1.9.3-.3.8-.1.8.3v4.4c0 .2.2.4.4.4h13.4c.2 0 .4-.2.4-.4l-.1-54.7Z"/>
  <path d="M215 .100002h-14.4V79.2c0 .2.2.4.4.4h13.5c.2 0 .4-.2.4-.4V.100002h.1Z"/>
  <path d="M303.9 24.5c-.2.1-.4.2-.7.3l-.6.3c-.3.2-.6.3-.9.5-1.3.8-2.5 1.7-3.5 2.8 0 0 0 .1-.1.1-.5.6-1 1.2-1.4 1.9-.1.1-.1.2-.2.3-.2.3-.4.7-.6 1-.2.4-.8.3-.8-.2v-7.1c0-.2-.2-.4-.4-.4h-13.5c-.2 0-.4.2-.4.4v54.8c0 .2.2.4.4.4h13.5c.2 0 .4-.2.4-.4V53c0-.7 0-1.3.1-1.9 0-.3.1-.6.1-.9.2-1.4.6-2.7 1.1-3.9 0 0 0-.1.1-.1.9-1.9 2.2-3.4 3.9-4.6.2-.1.4-.3.6-.4.1 0 .1-.1.2-.1.1-.1.3-.2.4-.2.1 0 .1-.1.2-.1.1-.1.3-.1.4-.2.1 0 .1-.1.2-.1.2-.1.3-.2.5-.2 0 0 .1 0 .1-.1l.6-.3c.1 0 .1 0 .2-.1.2-.1.3-.1.5-.2.1 0 .2 0 .2-.1.1 0 .3-.1.4-.1 2.1-.6 4.2-.8 6.5-.5.3 0 .5-.2.5-.4V23.3c0-.2-.2-.4-.4-.4-2.3 0-4.5.4-6.6 1.2-.3 0-.6.2-1 .4Z"/>
  <path d="M370.1 24.4c0-.2-.2-.4-.4-.4h-13.5c-.2 0-.4.2-.4.4V54c0 .6 0 1.1-.1 1.6 0 .3 0 .6-.1.9-.2 2-.7 3.8-1.4 5.3-.1.2-.2.5-.4.7-.4.7-.9 1.3-1.4 1.8-1.8 1.9-4.1 3-6.9 3.3-.6.1-1.3.1-2 .1h-1.2c-.4 0-.8-.1-1.2-.1-.2 0-.4-.1-.6-.1-.3-.1-.6-.2-.9-.2-.1 0-.2-.1-.2-.1-.4-.1-.9-.3-1.3-.5-.1-.1-.3-.1-.4-.2l-1.5-.9c-.1-.1-.3-.2-.4-.3-.1-.1-.3-.2-.4-.4-.3-.3-.6-.7-.9-1.1-.1-.1-.2-.2-.2-.4-.1-.1-.2-.2-.2-.4-.6-1-1.1-2.2-1.3-3.5-.1-.4-.1-.8-.2-1.3 0-.4-.1-.8-.1-1.2V24.2c0-.2-.2-.4-.4-.4h-13.5c-.2 0-.4.2-.4.4v33.7c0 7.2 2 12.8 6 16.9 4 4.1 9 6.1 15.1 6.1 2.4 0 4.5-.3 6.5-.8l1.2-.3c.6-.2 1.1-.4 1.6-.6l1.2-.6c.1-.1.3-.1.4-.2 1-.5 1.9-1.2 2.7-1.9.3-.2.6-.5.8-.8.5-.5 1-1 1.4-1.6.3-.3.8-.1.8.3v4.4c0 .2.2.4.4.4h13.5c.2 0 .4-.2.4-.4V24.4h-.1Z"/>
  <path d="M459.1 35.9c-.2-.5-.3-.9-.5-1.4-.1-.1-.1-.2-.2-.4s-.2-.4-.2-.5c-.2-.4-.4-.8-.6-1.1-.6-1.1-1.3-2.1-2.1-3.1-.2-.3-.5-.5-.7-.8l-.9-.9c-.2-.2-.4-.4-.6-.5-.3-.2-.5-.4-.8-.7-.3-.2-.5-.4-.8-.6l-.9-.6c-.3-.2-.6-.3-.9-.5-1.2-.6-2.5-1.2-3.8-1.6-.5-.2-1.1-.3-1.7-.4-.3-.1-.6-.1-1-.2-.5-.1-1.1-.2-1.7-.2-.4 0-.8-.1-1.2-.1h-1.2c-.9 0-1.8 0-2.7.1-.2 0-.5.1-.7.1-.6.1-1.1.2-1.7.3-.5.1-1 .2-1.5.4-.3.1-.7.2-1 .3-.5.2-.9.3-1.3.5l-.6.3-1.8.9c-.2.1-.3.2-.5.3-1.7 1.1-3.3 2.6-4.6 4.4-.2.2-.6.2-.7 0-.8-1.3-1.8-2.4-2.8-3.3-.9-.8-2-1.6-3.1-2.1-.3-.2-.6-.3-1-.5-.3-.1-.7-.3-1-.4-.5-.2-1-.4-1.6-.5-.2 0-.4-.1-.6-.1-.9-.2-1.9-.4-2.9-.4-.6 0-1.2-.1-1.9-.1s-1.3 0-1.9.1c-1.9.1-3.6.5-5.2 1-.2.1-.3.1-.5.2-2.2.8-4.2 2.1-5.8 3.7l-.6.6c-.3.3-.5.6-.7.9-.3.3-.8.2-.8-.3v-4.1c0-.2-.2-.4-.4-.4H378v55.7h13.9c.2 0 .4-.2.4-.4V48.3c0-3.1.5-5.6 1.6-7.6.3-.5.6-1 .9-1.4.1-.1.2-.3.3-.4.1-.1.2-.3.4-.4.2-.3.5-.5.8-.7 1.7-1.4 3.9-2.1 6.5-2.1.9 0 1.8.1 2.6.3.2 0 .3.1.5.1l1.5.6c.1.1.3.2.4.2.7.4 1.3.9 1.9 1.6l.2.2c.1.1.2.2.3.4 1.1 1.4 1.7 3.3 1.9 5.5.1.6.1 1.1.1 1.7v32.8c0 .2.2.4.4.4h13.5c.2 0 .4-.2.4-.4V48.3c0-2 .2-3.7.6-5.3 0-.1.1-.2.1-.3.1-.3.2-.6.3-.8.1-.2.2-.5.3-.7.2-.5.5-1 .8-1.4l.6-.9c.4-.5.9-1 1.4-1.3.9-.7 2-1.2 3.2-1.5.1 0 .2 0 .3-.1.8-.2 1.8-.3 2.7-.3.9 0 1.8.1 2.6.3.2 0 .3.1.5.1l1.5.6c.1.1.3.2.4.2.7.4 1.3.9 1.9 1.6l.2.2c.1.1.2.2.3.4.9 1.3 1.5 2.8 1.8 4.7 0 .3.1.5.1.8.1.6.1 1.1.1 1.7v32.8c0 .2.2.4.4.4h13.5c.2 0 .4-.2.4-.4V45.3c0-3.1-.4-5.8-1.1-8.3 0-.4-.1-.7-.3-1.1Z"/>
  <path d="M83.9 0h-14c-1.2 0-2.6.6-3.4 2.1l-5.8 10.6-.3.6-5.8 10.5-16 29.3-14 25.8c-.5.9-.1 2.3 1.1 2.3h14c1.2 0 2.6-.6 3.4-2.1l5.8-10.6.3-.6L55 57.4l16-29.3L84.9 2.3c.5-1 .1-2.3-1-2.3Z"/>
  <path d="M59.5 0h-14c-1.2 0-2.6.6-3.4 2.1l-5.8 10.6-.3.6-5.8 10.5-16 29.3L.199999 78.9c-.5.9-.0999998 2.3 1.100001 2.3h14c1.2 0 2.6-.6 3.4-2.1l5.8-10.6.3-.6 5.8-10.5 16-29.3 14-25.8c.4-1 0-2.3-1.1-2.3Z"/>
</svg>