<?xml version="1.0" encoding="utf-8"?>
<!-- Generator: Adobe Illustrator 25.4.1, SVG Export Plug-In . SVG Version: 6.00 Build 0)  -->
<svg version="1.1"
	xmlns="http://www.w3.org/2000/svg"
	xmlns:xlink="http://www.w3.org/1999/xlink" x="0px" y="0px" viewBox="0 0 351.7 292.7" style="enable-background:new 0 0 351.7 292.7;" xml:space="preserve">
	<style type="text/css">
	.st0{display:none;}
	.st1{display:inline;}
	.st2{fill:none;}
	</style>
	<g id="Logo">
		<g>
			<g>
				<polygon points="113.1,101.8 113.1,142.4 71.9,142.4 71.9,101.8 50.9,101.8 50.9,203.9 71.9,203.9 71.9,161.9 113.1,161.9 
				113.1,203.9 134.1,203.9 134.1,101.8"/>
				<path d="M162.2,76.4c7.1,0,12.7-5.6,12.7-12.7s-5.6-12.7-12.7-12.7c-7.1,0-12.7,5.6-12.7,12.7S155,76.4,162.2,76.4z"/>
				<rect x="151.7" y="127.3" width="21" height="76.6"/>
				<rect x="190.2" y="101.8" width="21" height="102.1"/>
				<path d="M262.6,125.3c-22.3,0-39.9,17.6-39.9,40.1s17.5,40.1,39.9,40.1s39.9-17.6,39.9-40.1S285,125.3,262.6,125.3z M262.6,186.4
				c-10.7,0-19.2-9.2-19.2-21s8.4-21,19.2-21s19.2,9.2,19.2,21S273.4,186.4,262.6,186.4z"/>
			</g>
			<g>
				<path d="M51,220.6h3.5v8.3c1.1-1.6,2.8-2.5,4.8-2.5c3.9,0,6.8,3.4,6.8,7.9c0,4.5-2.9,7.9-6.8,7.9c-2,0-3.8-1-4.9-2.6l-0.3,2.2H51
				V220.6z M58.5,239c2.3,0,4-2,4-4.8s-1.7-4.8-4-4.8c-2.4,0-4.2,1.9-4.2,4.8C54.3,237.1,56.2,239,58.5,239z"/>
				<path d="M74.6,241.8h-1.9l-5.1-15.1h3.8l4,12.7l4.1-12.7h3.7l-7,20.7h-3.6L74.6,241.8z"/>
				<path d="M93.1,221.5h3.6v8.4h9.3v-8.4h3.6v20.4h-3.6v-8.7h-9.3v8.7h-3.6V221.5z"/>
				<path d="M119.6,241.8h-1.9l-5.1-15.1h3.8l4,12.7l4.1-12.7h3.7l-7,20.7h-3.6L119.6,241.8z"/>
				<path d="M136.5,226.3c2,0,3.7,0.9,4.8,2.5v-8.2h3.5v21.2h-3.1l-0.2-2.2c-1.2,1.6-2.9,2.6-4.9,2.6c-3.9,0-6.8-3.5-6.8-7.9
				C129.8,229.8,132.6,226.3,136.5,226.3z M137.3,239c2.4,0,4.2-1.9,4.2-4.8c0-2.9-1.9-4.8-4.2-4.8c-2.3,0-4,2-4,4.8
				S135,239,137.3,239z"/>
				<path d="M149.4,226.7h3.1l0.3,2.9c0.7-1.7,2.4-2.9,4.4-2.9h0.9v3.5h-1.5c-2.4,0-3.8,1.2-3.8,4v7.5h-3.5V226.7z"/>
				<path d="M167.9,226.3c4.5,0,7.9,3.5,7.9,7.9c0,4.4-3.4,7.9-7.9,7.9c-4.5,0-7.9-3.5-7.9-7.9C160,229.8,163.4,226.3,167.9,226.3z
				 M167.9,239c2.3,0,4.4-2,4.4-4.7c0-2.8-2-4.7-4.4-4.7c-2.3,0-4.3,1.9-4.3,4.7C163.6,237.1,165.6,239,167.9,239z"/>
				<path d="M179.5,231.9h7.4v3.1h-7.4V231.9z"/>
				<path d="M201.1,221.1c6,0,10.4,4.6,10.4,10.5c0,2.8-1,5.4-2.7,7.2l4.2,4.6l-2.4,2.2l-4.2-4.8c-1.5,0.9-3.3,1.3-5.2,1.3
				c-6,0-10.4-4.6-10.4-10.5S195.1,221.1,201.1,221.1z M201.1,238.8c1,0,2-0.2,2.8-0.6l-4.3-4.7l2.5-2.2l4.2,4.9
				c0.9-1.2,1.4-2.8,1.4-4.5c0-4-2.7-7.2-6.7-7.2c-3.9,0-6.7,3.2-6.7,7.2S197.2,238.8,201.1,238.8z"/>
				<path d="M214.8,226.7h3.5v8.3c0,2.7,1.5,4,3.3,4c1.9,0,3.6-1.3,3.6-4v-8.3h3.5v15.1h-3.1l-0.3-2.2c-0.7,1.4-2.6,2.6-4.7,2.6
				c-3.2,0-5.7-2.3-5.7-6.7V226.7z"/>
				<path d="M240,226.3c4.4,0,7.2,3.3,7.2,7.7c0,0.4,0,0.8-0.1,1.2h-11.4c0.3,2.4,2,3.9,4.2,3.9c1.7,0,3.1-0.8,3.7-1.9l2.6,1.9
				c-1.1,1.8-3.6,3.1-6.4,3.1c-4.5,0-7.8-3.2-7.8-7.8S235.7,226.3,240,226.3z M235.9,232.7h7.9c-0.3-2.1-1.7-3.5-3.7-3.5
				C238.2,229.3,236.5,230.5,235.9,232.7z M241.3,220.6h3.6l-3.5,3.9h-2.7L241.3,220.6z"/>
				<path d="M250.8,220.6h3.5v8.3c1.1-1.6,2.8-2.5,4.8-2.5c3.9,0,6.8,3.4,6.8,7.9c0,4.5-2.9,7.9-6.8,7.9c-2,0-3.8-1-4.9-2.6l-0.3,2.2
				h-3.1V220.6z M258.3,239c2.3,0,4-2,4-4.8s-1.7-4.8-4-4.8c-2.4,0-4.2,1.9-4.2,4.8C254,237.1,255.9,239,258.3,239z"/>
				<path d="M276.2,226.3c4.4,0,7.2,3.3,7.2,7.7c0,0.4,0,0.8-0.1,1.2H272c0.3,2.4,2,3.9,4.2,3.9c1.7,0,3.1-0.8,3.7-1.9l2.6,1.9
				c-1.1,1.8-3.6,3.1-6.4,3.1c-4.5,0-7.8-3.2-7.8-7.8S271.9,226.3,276.2,226.3z M272.1,232.7h7.9c-0.3-2.1-1.7-3.5-3.7-3.5
				C274.4,229.3,272.7,230.5,272.1,232.7z"/>
				<path d="M293.7,226.3c3.2,0,5.8,1.9,7,4.9l-3.2,1.1c-0.5-1.9-1.9-2.9-3.7-2.9c-2.5,0-4.2,2-4.2,4.7s1.8,4.7,4.2,4.7
				c1.8,0,3.3-1,3.8-2.9l3.2,1.2c-1.1,3.1-3.9,4.9-7,4.9c-4.4,0-7.8-3.3-7.8-7.9S289.3,226.3,293.7,226.3z"/>
			</g>
		</g>
	</g>
	<g id="Safety" class="st0">
		<g class="st1">
			<path class="st2" d="M162.2,101.8c7.1,0,12.7-5.6,12.7-12.7s-5.6-12.7-12.7-12.7c-7.1,0-12.7,5.6-12.7,12.7S155,101.8,162.2,101.8
			z"/>
		</g>
		<g class="st1">
			<path class="st2" d="M162.2,50.9c7.1,0,12.7-5.6,12.7-12.7s-5.6-12.7-12.7-12.7c-7.1,0-12.7,5.6-12.7,12.7S155,50.9,162.2,50.9z" />
		</g>
		<g class="st1">
			<path class="st2" d="M162.2,25.5c7.1,0,12.7-5.6,12.7-12.7S169.3,0,162.2,0c-7.1,0-12.7,5.6-12.7,12.7S155,25.5,162.2,25.5z"/>
		</g>
		<g class="st1">
			<g>
				<g>
					<path class="st2" d="M162.2,267.2c7.1,0,12.7-5.6,12.7-12.7s-5.6-12.7-12.7-12.7c-7.1,0-12.7,5.6-12.7,12.7
					S155,267.2,162.2,267.2z"/>
				</g>
				<g>
					<path class="st2" d="M162.2,292.7c7.1,0,12.7-5.6,12.7-12.7s-5.6-12.7-12.7-12.7c-7.1,0-12.7,5.6-12.7,12.7
					S155,292.7,162.2,292.7z"/>
				</g>
			</g>
		</g>
		<g class="st1">
			<g>
				<g>
					<path class="st2" d="M25.5,152.9c0-7.1-5.6-12.7-12.7-12.7S0,145.7,0,152.9c0,7.1,5.6,12.7,12.7,12.7S25.5,160,25.5,152.9z"/>
				</g>
				<g>
					<path class="st2" d="M50.9,152.9c0-7.1-5.6-12.7-12.7-12.7s-12.7,5.6-12.7,12.7c0,7.1,5.6,12.7,12.7,12.7S50.9,160,50.9,152.9z" />
				</g>
			</g>
		</g>
		<g class="st1">
			<g>
				<g>
					<path class="st2" d="M326.2,152.9c0-7.1-5.6-12.7-12.7-12.7s-12.7,5.6-12.7,12.7c0,7.1,5.6,12.7,12.7,12.7
					S326.2,160,326.2,152.9z"/>
				</g>
				<g>
					<path class="st2" d="M351.7,152.9c0-7.1-5.6-12.7-12.7-12.7s-12.7,5.6-12.7,12.7c0,7.1,5.6,12.7,12.7,12.7
					S351.7,160,351.7,152.9z"/>
				</g>
			</g>
		</g>
	</g>
</svg>
