<svg id="ad20c127-13c1-40cb-a8ee-7246078b1cf0" xmlns="http://www.w3.org/2000/svg" viewBox="0 0 384.24 75.35">
  <path
    d="M83.49,21.55A23.45,23.45,0,0,0,42.63,7.83,23.45,23.45,0,0,0,9,28.45v.07a21.43,21.43,0,0,0,21.31,37,17.12,17.12,0,0,1-4.16.4A17.55,17.55,0,0,1,16.45,34v-.08a19,19,0,0,1,19.4-18.59,19.22,19.22,0,0,1,7,1.51A19,19,0,0,1,75.78,25.4a19,19,0,0,1-5.25,37.38,19.93,19.93,0,0,1-2.67-.25c-3.38,3.58-9.3,7.2-15.41,5.51-2.36-.65-6.22-2.6-6.76-8.35-.65-6.93,5.56-11.58,5.56-11.58L58.4,58.66,62,22.86,28.06,34.69,40,39.18s-7.84,6.64-7.25,15.34a19.93,19.93,0,0,0,3.38,9.89A23.43,23.43,0,0,0,73.6,67.34a24.44,24.44,0,0,0,3.42.33,23.45,23.45,0,0,0,6.49-46.12"
    transform="translate(0.16 0)" fill-rule="evenodd" />
  <polygon points="128.04 9.39 135.93 9.39 135.93 67.15 128.04 67.15 128.04 9.39 128.04 9.39" />
  <path
    d="M177.05,67.15V39a10.3,10.3,0,0,0-1.51-6c-1-1.45-2.85-2.17-5.51-2.17a9.35,9.35,0,0,0-4.21,1A17.45,17.45,0,0,0,162.35,34a18.29,18.29,0,0,0-2.47,2.43l-1.3,1.6V67.21H151.3V25.43h7.28v5.81a25.28,25.28,0,0,1,1.87-2A17.34,17.34,0,0,1,163.31,27a17.69,17.69,0,0,1,3.86-1.82,15.07,15.07,0,0,1,4.94-.74,14,14,0,0,1,5.64,1,10.61,10.61,0,0,1,3.81,2.78,10.78,10.78,0,0,1,2.17,4.16,18.44,18.44,0,0,1,.7,5.12V67.14Z"
    transform="translate(0.16 0)" />
  <path
    d="M226.84,64.12c-.46.34-1.06.75-1.78,1.21a15.69,15.69,0,0,1-2.69,1.34,20.58,20.58,0,0,1-3.77,1.09,25.56,25.56,0,0,1-4.94.43,18.57,18.57,0,0,1-8.33-1.78,18,18,0,0,1-6.12-4.77,21.12,21.12,0,0,1-3.77-7,26.72,26.72,0,0,1-1.3-8.41,26.46,26.46,0,0,1,1.56-9.41A19.35,19.35,0,0,1,200,30a18.35,18.35,0,0,1,6.29-4.17A20.6,20.6,0,0,1,214,24.4a23.52,23.52,0,0,1,4.59.39,21.17,21.17,0,0,1,3.56,1,18,18,0,0,1,2.69,1.3,20.71,20.71,0,0,1,1.91,1.3l-3.13,5.38a23.6,23.6,0,0,0-3.81-2.26,13.74,13.74,0,0,0-5.81-1,11.15,11.15,0,0,0-5.38,1.22A10.82,10.82,0,0,0,204.86,35,14.34,14.34,0,0,0,202.69,40a27.8,27.8,0,0,0,0,12.31,15.25,15.25,0,0,0,2.21,5.08,10.66,10.66,0,0,0,9.24,4.73,15.24,15.24,0,0,0,3.56-.4,19.51,19.51,0,0,0,2.9-.91,14.62,14.62,0,0,0,2.17-1.08,15,15,0,0,0,1.34-.91l2.78,5.38Z"
    transform="translate(0.16 0)" />
  <polygon points="236.54 4.71 243.91 4.71 243.91 67.15 236.54 67.15 236.54 4.71 236.54 4.71" />
  <path
    d="M285.9,46.34a23.4,23.4,0,0,0-.78-6.12,15.31,15.31,0,0,0-2.34-5.07,11.56,11.56,0,0,0-3.86-3.43,11.11,11.11,0,0,0-5.42-1.26,11,11,0,0,0-5.33,1.22A9.67,9.67,0,0,0,264.61,35a15.84,15.84,0,0,0-2,5,28.84,28.84,0,0,0,0,12.36,15.26,15.26,0,0,0,2.17,5.08,10.45,10.45,0,0,0,9.11,4.68,11.13,11.13,0,0,0,5.37-1.21A10.46,10.46,0,0,0,283,57.54a15,15,0,0,0,2.17-5,26.54,26.54,0,0,0,.69-6.15m7.81-.18a27.81,27.81,0,0,1-1.13,7.64A22.08,22.08,0,0,1,289.06,61a18.32,18.32,0,0,1-6.2,5.24,21.41,21.41,0,0,1-18.13,0,18.08,18.08,0,0,1-6.07-5.16A21.49,21.49,0,0,1,255.23,54a28.52,28.52,0,0,1-1.08-7.63,29.08,29.08,0,0,1,1-7.59,21.77,21.77,0,0,1,3.34-7.07,17.92,17.92,0,0,1,6-5.25,18.38,18.38,0,0,1,9.06-2,19.43,19.43,0,0,1,9.11,2,18.63,18.63,0,0,1,6.24,5.16,22.06,22.06,0,0,1,3.6,7,26.08,26.08,0,0,1,1.17,7.59"
    transform="translate(0.16 0)" />
  <path
    d="M310.71,25.43V53.62a10.1,10.1,0,0,0,1.52,5.94q1.51,2.13,5.59,2.13a9.24,9.24,0,0,0,4.12-1,16.94,16.94,0,0,0,3.43-2.16,16.42,16.42,0,0,0,2.43-2.43c.63-.81,1.07-1.36,1.3-1.65v-29h7.37V57.7c0,2,.09,3.8.26,5.51a29.07,29.07,0,0,0,.61,3.94H330a24.55,24.55,0,0,1-.39-2.69c-.15-1.27-.25-2.4-.31-3.38a25.23,25.23,0,0,1-2,2.26,15.8,15.8,0,0,1-2.86,2.29,17.73,17.73,0,0,1-3.86,1.83,15.12,15.12,0,0,1-4.86.73,14,14,0,0,1-5.72-1,10.16,10.16,0,0,1-3.82-2.82A11.51,11.51,0,0,1,304,60.21a18.77,18.77,0,0,1-.69-5.16V25.43Z"
    transform="translate(0.16 0)" />
  <path
    d="M354.51,46.25a29.86,29.86,0,0,0,.61,6.33,14,14,0,0,0,2,4.9,9.27,9.27,0,0,0,3.47,3.17,10.71,10.71,0,0,0,5.07,1.12,9.6,9.6,0,0,0,3.56-.65,16.41,16.41,0,0,0,2.95-1.51,12.78,12.78,0,0,0,2.17-1.78,17.09,17.09,0,0,0,1.3-1.52V34.11a19.24,19.24,0,0,0-3.6-2.39,12.47,12.47,0,0,0-5.86-1.17,10.46,10.46,0,0,0-5,1.17A10.71,10.71,0,0,0,357.54,35a15,15,0,0,0-2.21,5,25.48,25.48,0,0,0-.74,6.33m-7.89.09a26.75,26.75,0,0,1,1.43-9A21.63,21.63,0,0,1,352,30.4a16.91,16.91,0,0,1,5.86-4.47,17.09,17.09,0,0,1,7.28-1.56A15.06,15.06,0,0,1,372,25.63a24.62,24.62,0,0,1,3.65,2.21v-23H383V58a33.24,33.24,0,0,0,.44,5.55c.29,1.68.52,2.89.69,3.64h-7.37c-.12-.46-.26-1.17-.44-2.12a26.3,26.3,0,0,1-.34-2.65,16.39,16.39,0,0,1-4.73,4A13.9,13.9,0,0,1,364,68.2a16.53,16.53,0,0,1-7-1.43,14.88,14.88,0,0,1-5.47-4.25,20.27,20.27,0,0,1-3.55-6.89,31.31,31.31,0,0,1-1.26-9.28"
    transform="translate(0.16 0)" />
</svg>
