<svg id="a97d0944-184a-4109-9569-8ffe1790a43b" xmlns="http://www.w3.org/2000/svg" viewBox="0 0 1513 163.41">
  <path
    d="M1438.89,30.25h-37v102.9h37q16.63,0,29.24-6.46a46.59,46.59,0,0,0,19.46-18.09q6.86-11.64,6.85-26.9t-6.85-26.9a46.61,46.61,0,0,0-19.47-18.09Q1455.52,30.24,1438.89,30.25ZM1066.59,29a54.77,54.77,0,0,0-27.28,6.85,49.81,49.81,0,0,0-19.19,18.91,55.62,55.62,0,0,0,0,53.8,49.79,49.79,0,0,0,19.17,18.87,54.77,54.77,0,0,0,27.28,6.85,53.71,53.71,0,0,0,27.09-6.85,50.19,50.19,0,0,0,19-18.87,55.62,55.62,0,0,0,0-53.8,50.19,50.19,0,0,0-19-18.87A53.77,53.77,0,0,0,1066.59,29Zm372.53-15.81H1442q20,.54,35.66,8.57A63.24,63.24,0,0,1,1503.71,46Q1513,61.6,1513,81.74t-9.29,35.7a63.3,63.3,0,0,1-26.11,24.16q-15.7,8-35.66,8.57h-60.57V13.23Zm-564.49,0V133.15h74.12v17H855V13.23Zm-385.77,0L571,115.35V13.23h19.55V150.17h-16L492.33,48V150.17H472.77V13.23Zm-102.27,0V150.17H367V13.23Zm831.51,0v79q.84,42.08,38.51,42.08,18.78,0,28.75-10.86,9.45-10.27,10-30.84V13.23h19v80.4q-.64,27.68-15.23,42.55-15.26,15.56-42.64,15.55T1213.75,136q-14.6-15-15.23-42.46V13.23Zm-151.46-1.56a76.19,76.19,0,0,1,37.16,9.09,66.82,66.82,0,0,1,26,25,73.32,73.32,0,0,1,0,71.8,66.75,66.75,0,0,1-26,25,76.09,76.09,0,0,1-37.16,9.1q-20.73,0-37.35-9.1a67.14,67.14,0,0,1-26.17-25.06,72.29,72.29,0,0,1,0-71.6,67.26,67.26,0,0,1,26.11-25.14q16.63-9.09,37.36-9.09Zm-335.82,0A77.5,77.5,0,0,1,760.12,17a60.17,60.17,0,0,1,21.09,14.22L782.8,33,770.12,45.32l-1.49-1.51Q753.52,29,731.55,29A55.64,55.64,0,0,0,704,35.89a49.64,49.64,0,0,0-19.27,18.87,55.62,55.62,0,0,0,0,53.8A49.64,49.64,0,0,0,704,127.43a55.64,55.64,0,0,0,27.57,6.85q21.8,0,37-14.9l1.51-1.53,12.71,12.32-1.59,1.73A61.07,61.07,0,0,1,760,146.21a76.86,76.86,0,0,1-29.44,5.48q-20.53,0-37.06-9.1a66.93,66.93,0,0,1-25.91-25,73.32,73.32,0,0,1,0-71.8,66.82,66.82,0,0,1,26-25,76.11,76.11,0,0,1,37.19-9.12ZM128.05,146.93a42.13,42.13,0,0,0,31.28-14.22,37.47,37.47,0,0,0,6.77.61c46.23-1.27,51.91-65.75,7-75.35a40.89,40.89,0,0,0-72.43-21.28c-25.63-18.36-62,2-59.4,33.7C1,89.3,18.71,149.25,63.32,142.56A46.57,46.57,0,0,1,23.2,58.82c2-37.38,43.41-61.41,77-44.53a52.64,52.64,0,0,1,88.45,33.26,50.38,50.38,0,0,1,38.91,49C228,128.41,197,153,166.06,145.68a50.44,50.44,0,0,1-68.33,7.82C74,136.15,70.48,101.33,89.93,79.68l-25.16-9.8,74.91-21.43-9.35,76.45-14.11-23.22A24.06,24.06,0,0,0,128,146.9Z" />
</svg>
