<svg id="Layer_1" xmlns="http://www.w3.org/2000/svg" viewBox="0 0 700.6 350.81">
    <path class="cls-1" d="M509,139a6.29,6.29,0,0,0-2-4.6,5.6,5.6,0,0,0-4.4-1.8,5.94,5.94,0,0,0-4.5,1.8,6.19,6.19,0,0,0-1.9,4.6,6.35,6.35,0,0,0,1.9,4.6,5.66,5.66,0,0,0,4,1.8h.5a5.88,5.88,0,0,0,4.4-1.8A6.46,6.46,0,0,0,509,139Z" />
    <path class="cls-1" d="M486.4,130.55l-11.1,2.8v55.5c-.2,7,2.3,10.5,7.4,10.5,4.2-.1,7.1-1.7,8.8-4.9-3.6-1.3-5.2-4.8-5.1-10.5Z" />
    <path class="cls-1" d="M575.1,150.05c-5,0-9,1.2-12,3.4-3.2,2.3-4.7,5.5-4.7,9.7,0,6,4.1,10.8,12.3,14.2,3.8,1.5,6.4,2.8,7.5,4a6.28,6.28,0,0,1,2,4.5c-.1,3-2.2,4.6-6.4,4.6a18,18,0,0,1-11.3-3.9l-4,8.9a44,44,0,0,0,7.4,3.1,30.37,30.37,0,0,0,7.6.8c5.5,0,10-1.3,13.3-3.9a10.91,10.91,0,0,0,3.9-5,12.41,12.41,0,0,0,1-5.4,13.29,13.29,0,0,0-2.8-8.4c-1.8-2.4-4.7-4.3-8.9-6-4.6-1.9-7.4-3.3-8.1-3.9a4,4,0,0,1-2-3.3c0-3.1,2-4.6,5.8-4.6,4.4,0,7.8,1.1,10.1,3.1l3.3-8.6A30.69,30.69,0,0,0,575.1,150.05Z" />
    <path class="cls-1" d="M524.9,154.15V151h-11v66h11v-19.7a22.42,22.42,0,0,0,9.6,2.1c7.3-.1,13.1-2.2,17.2-6.4s6.2-10.1,6.2-17.9c0-16.7-7.6-25-22.7-25A14.26,14.26,0,0,0,524.9,154.15Zm18.2,8.7c2.1,2.3,3.2,6.3,3.2,11.8s-1.1,9.3-3.2,11.6c-2.2,2.5-5.9,3.7-11,3.7a12,12,0,0,1-7.2-2.4v-25a10.19,10.19,0,0,1,7.2-3.1C537.1,159.45,540.8,160.55,543.1,162.85Z" />
    <path class="cls-1" d="M508.1,151H490.7v9.1h6.1v38.4h11.3Z" />
    <path class="cls-2" d="M306.5,133.45H294.9v65h11.6Z" />
    <path class="cls-2" d="M376.2,143.15a6,6,0,0,1,5.1-2.7,16.2,16.2,0,0,1,5.7,1.2l3.3-8.5a32.42,32.42,0,0,0-9.6-1.8,15.5,15.5,0,0,0-12.4,5.4,21.43,21.43,0,0,0-5.1,14.2h-7v9.1h7v38.4h11v-38.4h9.6V151H374v-1.2A9.75,9.75,0,0,1,376.2,143.15Z" />
    <path class="cls-2" d="M190.8,119.05a11.63,11.63,0,0,0-8-3.3,11.28,11.28,0,0,0-8,3.3,10.41,10.41,0,0,0-3.3,8.1,10.57,10.57,0,0,0,3.3,7.9,11.28,11.28,0,0,0,8,3.3,11.81,11.81,0,0,0,8-3.3,11.35,11.35,0,0,0,0-16Z" />
    <path class="cls-2" d="M430.5,174.55c0-6-1.3-10.9-3.7-14.7a20.35,20.35,0,0,0-1.8-2.7c-.3-.3-.5-.5-.6-.5l-2.4-2.3a23.57,23.57,0,0,0-14.3-4.3c-7,0-12.5,2.3-16.7,6.9-4.2,4.4-6.2,10.3-6.2,17.6,0,7.6,2,13.5,6,18s9.5,6.8,16.9,6.8c5.7-.1,10.5-1.6,14.3-4.6q2-1.65,2.4-2.1l.6-.7a15.73,15.73,0,0,0,1.8-2.7A27.61,27.61,0,0,0,430.5,174.55Zm-34.1,0c0-4.8,1.1-8.6,3.1-11.4a8.9,8.9,0,0,1,8.2-4c7.5-.2,11.2,5,11.2,15.4,0,5-1,8.9-3.1,11.6a9.36,9.36,0,0,1-8.1,4.1C400,190.25,396.2,185.05,396.4,174.55Z" />
    <path class="cls-2" d="M333.8,159.25c3.6,0,6.1,1,7.7,2.8s2.2,4.8,2.2,8.9v27.5h11.2v-29.1c-.1-6.2-1.7-11-4.9-14.2-3.4-3.4-7.9-5.1-13.4-5.1-5.9,0-10.4,1.8-13.3,5.4l-2.1-4.5h-8v47.5h11.1v-34.3a10.3,10.3,0,0,1,4.3-3.4A10.06,10.06,0,0,1,333.8,159.25Z" />
    <path d="M243.5,129.05a67.92,67.92,0,0,0-6-6.7c-14.3-14.3-31.4-21.6-51.3-22.1h-3.8c-19.7.5-36.9,7.7-51.4,22l-.1.1c-14.3,14.5-21.7,31.8-22,52.1v1.3c0,20.6,7.3,38.3,22.1,53.1a72.94,72.94,0,0,0,42.9,21.7l8.2-19.3a52.54,52.54,0,0,1-36.8-16.2c-10.8-10.7-16.2-23.7-16.2-39.2v-1.4a54.58,54.58,0,0,1,16.2-37.7,56.5,56.5,0,0,1,17.9-12.2l.5-2.1a19.91,19.91,0,0,1,5.3-9.2,19.09,19.09,0,0,1,27.6,0,19.84,19.84,0,0,1,4.8,8.1c.1.4.3,1,.5,1.9a55.43,55.43,0,0,1,21.6,13.5c.7.8,1.3,1.4,1.6,1.8a58.46,58.46,0,0,1,7.4,9.8,52.94,52.94,0,0,1,7.2,25.9v.2a31,31,0,0,1-9.4,22.8h-.2a30.67,30.67,0,0,1-22.8,9.6,14.1,14.1,0,0,1-10.6-4.4h-.1a13.55,13.55,0,0,1-4.3-9.4v-44.7H161.4v16.1h10.9v33.8a28.36,28.36,0,0,0,9,18.4c6.8,7,15.2,10.4,25.2,10.4,15.2,0,27.8-5.1,37.9-15.3h.1a49.4,49.4,0,0,0,9.6-13.2,4.43,4.43,0,0,0,.6-1,50.48,50.48,0,0,0,4.5-15,73.22,73.22,0,0,0,.5-8.3v-.1c-.1-3.7-.3-6.4-.5-8.2a66,66,0,0,0-4.5-17.6v-.2l-.4-1.2q-1.35-3-1.5-3.3a48.5,48.5,0,0,0-2.8-5.1A59.25,59.25,0,0,0,243.5,129.05Z" />
    <path class="cls-1" d="M431.3,145.65a14.83,14.83,0,0,0-.5,4.1,18.24,18.24,0,0,0,.5,4.5,10.29,10.29,0,0,0,1,2.9,12.48,12.48,0,0,0,3.9,5.8,33.56,33.56,0,0,0,6,4l4,2.1q1.8.9,3.9,2.1a26.91,26.91,0,0,1,6.1,4.7,11.4,11.4,0,0,1,2.3,6.4c-.1,4.3-2.9,6.5-8.4,7h-1.8a21.46,21.46,0,0,1-6.1-.9,35.77,35.77,0,0,1-7.2-3.8l-4.4,10.3.7.3a28.73,28.73,0,0,0,10.9,4c2.2.2,3.8.3,4.9.3h3a24.38,24.38,0,0,0,13.6-5,16.15,16.15,0,0,0,6.3-13.1,18.71,18.71,0,0,0-1.5-7.8,16.91,16.91,0,0,0-4.5-6.3c-1.8-1.8-5-3.8-9.3-5.9-3-1.6-4.5-2.4-4.6-2.5-5.2-3.1-7.7-6.2-7.7-9.2a6.53,6.53,0,0,1,2.2-5.3,7.09,7.09,0,0,1,5.5-2.1h.6a21.36,21.36,0,0,1,12.7,4.3l3.6-9.9c-3.4-2.9-8.9-4.4-16.5-4.4h-.4a19.53,19.53,0,0,0-7.9,1.5,15.67,15.67,0,0,0-5.9,3.6A14.25,14.25,0,0,0,431.3,145.65Z" />
</svg>