<svg id="a2199b2e-3c7f-4f04-9622-2c922dc52a63" data-name="Layer 1" xmlns="http://www.w3.org/2000/svg" xmlns:xlink="http://www.w3.org/1999/xlink" viewBox="0 0 387.12 78.73"><defs><clipPath id="be6e9fc1-7060-42f9-b9f4-8bd48bb965e5"><rect x="-38.71" y="-15.45" width="113.82" height="113.82" fill="none"/></clipPath><clipPath id="fba7f6ec-f63a-4d45-b29a-3d9525528e97"><rect x="-29.16" y="-5.35" width="85.14" height="85.14" fill="none"/></clipPath></defs><g clip-path="url(#be6e9fc1-7060-42f9-b9f4-8bd48bb965e5)"><path d="M53.73,25,34.64,5.94A20.24,20.24,0,0,0,6,34.57,13.49,13.49,0,0,1,24.58,15c.18.15.35.3.51.46l19.1,19.09a6.75,6.75,0,0,1,0,9.54l-13.5,13.5L25.1,63.2c-.16.16-.34.32-.51.46A13.49,13.49,0,0,1,6,44.11,20.24,20.24,0,0,0,34.64,72.74L53.73,53.65a20.23,20.23,0,0,0,0-28.62"/></g><g clip-path="url(#fba7f6ec-f63a-4d45-b29a-3d9525528e97)"><path d="M24.59,15A13.49,13.49,0,0,0,6,34.57l4.77,4.77L6,44.11A13.49,13.49,0,0,0,24.59,63.66a6.75,6.75,0,0,1-9-10L29.88,39.34,15.56,25a6.75,6.75,0,0,1,9-10"/></g><path d="M375.51,31.18l-4.64,18.91-6.08-18.91H356l-6.07,19-4.64-19h-11.6l10.92,33.11h9.83l6-19.25,5.94,19.25h9.83l10.92-33.11ZM315,38.49c3.75,0,6.14,1.64,6.69,5.53H307.93c.89-3.35,3.14-5.53,7-5.53m17,8.12c0-10-7.37-16.31-17.27-16.31-10.24,0-17.27,7.37-17.27,17.41s7.24,17.48,18.09,17.48c7.78,0,13.93-4,15.91-10.51h-11.2c-1,1.23-2.46,1.78-4.91,1.78-4.51,0-6.76-2.66-7.51-6.08h24a23.89,23.89,0,0,0,.2-3.77M280.25,64.29h11.06V31.18H280.25ZM285.71,26a6.25,6.25,0,1,0-6.48-6.21A6.29,6.29,0,0,0,285.71,26M264,31.18,256.1,50.29l-7.92-19.11H236.51l14.34,33.11h10.51l14.33-33.11ZM221,64.29H232.1V31.18H221ZM226.5,26A6.25,6.25,0,1,0,220,19.79,6.29,6.29,0,0,0,226.5,26M213.62,53.64A16,16,0,0,1,207.75,55c-3.21,0-5.19-1.57-5.19-5V40.68h11.26V31.19H202.56V19.92H191.5V31.18H185v9.49h6.48v9.69c0,8.94,5.46,14.81,14.47,14.81a23.65,23.65,0,0,0,8.87-1.64Zm-49.5,2.19c-4.64,0-7.71-3.41-7.71-8s3.07-8.12,7.71-8.12,7.65,3.62,7.65,8.12-3.08,8-7.65,8m0-25.53c-10.51,0-18.23,7.44-18.23,17.41s7.71,17.48,18.23,17.48,18.16-7.37,18.16-17.48S174.56,30.3,164.12,30.3m-37.39,0a16.38,16.38,0,0,0-11.81,4.37,13.19,13.19,0,0,0-10.17-4.37,11.5,11.5,0,0,0-8.12,2.8V31.19H85.5V64.3H96.63V43.06a6.23,6.23,0,0,1,4.91-2.73c3.62,0,5.94,2.12,5.94,6.83V64.29h11.06V45.38c0-.82-.07-1.64-.14-2.39a6.35,6.35,0,0,1,5-2.66c3.62,0,5.94,2.12,5.94,6.83V64.29h11.06V45.38c0-9.42-5.8-15.08-13.72-15.08"/></svg>