<svg xmlns="http://www.w3.org/2000/svg" viewBox="0 0 372.16 94.79">
  <path
    d="M319.66,33.5V68.84a.44.44,0,0,0,.43.44H329a.44.44,0,0,0,.44-.44h0V33.5a.44.44,0,0,0-.44-.43h-8.92a.43.43,0,0,0-.43.43m-121,7.73V33.31a.43.43,0,0,0-.42-.44h-2.79q-6.37,0-10,4.11a.43.43,0,0,1-.61,0h0a.45.45,0,0,1-.11-.17l-1.36-3.5A.45.45,0,0,0,183,33h-5.52a.44.44,0,0,0-.44.43V68.84a.44.44,0,0,0,.44.44h8.92a.44.44,0,0,0,.43-.44V50.45c0-3,.6-5.11,1.79-6.4s3.16-1.94,5.91-1.95h3.35a.87.87,0,0,0,.87-.87m75.69,6H258a.44.44,0,0,1-.43-.45h0v-.12a9.09,9.09,0,0,1,3-4.47,8.54,8.54,0,0,1,5.5-1.8,9,9,0,0,1,5.61,1.77,9.45,9.45,0,0,1,3.13,4.48.43.43,0,0,1-.26.56h-.15m10.29,5.89A20.74,20.74,0,0,0,284.8,51a19.9,19.9,0,0,0-2.33-9.53,17.62,17.62,0,0,0-6.65-6.89,19.77,19.77,0,0,0-19.36-.08,17.78,17.78,0,0,0-6.75,6.88,20.57,20.57,0,0,0,0,19.48,18,18,0,0,0,6.76,6.89,19.58,19.58,0,0,0,20.71-1A18.35,18.35,0,0,0,283.76,58a.44.44,0,0,0-.27-.56h-9.32a.87.87,0,0,0-.74.42,7.91,7.91,0,0,1-2.88,2.66A9.13,9.13,0,0,1,266,61.58a8.39,8.39,0,0,1-8.78-7.14.44.44,0,0,1,.35-.51h26.19a.86.86,0,0,0,.86-.79m28.79-11.9V33.31a.44.44,0,0,0-.44-.44H310.2q-6.37,0-10.05,4.11a.43.43,0,0,1-.61,0h0a.36.36,0,0,1-.11-.16l-1.36-3.5a.45.45,0,0,0-.41-.27h-5.52a.43.43,0,0,0-.43.43V68.84a.44.44,0,0,0,.43.44h8.92a.44.44,0,0,0,.44-.44h0V50.45c0-3,.59-5.11,1.78-6.4s3.16-1.94,5.91-1.95h3.36a.87.87,0,0,0,.87-.87m58.73,27.61V47.34q0-6.9-3.63-11a12.47,12.47,0,0,0-9.79-4.11A16,16,0,0,0,352,33.64a15,15,0,0,0-4.78,3.41.45.45,0,0,1-.61,0,.4.4,0,0,1-.1-.15L345,33.33a.44.44,0,0,0-.4-.26h-6a.43.43,0,0,0-.43.43V68.84a.44.44,0,0,0,.43.44h8.92a.44.44,0,0,0,.44-.44h0V50.26a10.31,10.31,0,0,1,2.17-6.93,7.44,7.44,0,0,1,5.94-2.54q6.33,0,6.32,8.12V68.84a.44.44,0,0,0,.44.44h8.92a.44.44,0,0,0,.43-.44" />
  <path
    d="M160.69,51.2a9.52,9.52,0,1,1-9.52-9.52,9.52,9.52,0,0,1,9.52,9.52h0m9.63,0a19.16,19.16,0,1,0-19.16,19.16h0a19.15,19.15,0,0,0,19.15-19.15h0" />
  <path
    d="M329.92,25.73a6.59,6.59,0,0,0,0-6.33,5.73,5.73,0,0,0-2.23-2.22,6.62,6.62,0,0,0-6.32,0,5.84,5.84,0,0,0-2.23,2.21,6.66,6.66,0,0,0,0,6.34A5.86,5.86,0,0,0,321.37,28a6.62,6.62,0,0,0,6.32,0,5.83,5.83,0,0,0,2.23-2.23" />
  <path
    d="M231.37,51.21a10.07,10.07,0,1,1-15.66-8.36h.06a10,10,0,0,1,15.6,8.39m8.85,17.63v-51a.44.44,0,0,0-.44-.44h-8.92a.44.44,0,0,0-.43.44V34.24a.45.45,0,0,1-.45.43.39.39,0,0,1-.21-.06,17.49,17.49,0,0,0-9.29-2.56,19.8,19.8,0,0,0-7.6,1.46,17.69,17.69,0,0,0-10,10.05,20,20,0,0,0-1.44,7.61,18.73,18.73,0,0,0,5.4,13.72,18.37,18.37,0,0,0,13.63,5.47,17,17,0,0,0,10.89-3.71.45.45,0,0,1,.61,0,.54.54,0,0,1,.07.13l.83,2.17a.42.42,0,0,0,.4.28h6.5a.44.44,0,0,0,.44-.44h0" />
  <path
    d="M48.68,0H47.31a47.4,47.4,0,0,0,.08,94.79S22.79,64,22.79,50.38a24.61,24.61,0,1,1,49.21,0C72,64,47.39,94.79,47.39,94.79A47.4,47.4,0,0,0,48.68,0Z" />
  <circle cx="47.39" cy="49.84" r="9.17" />
</svg>
