<svg xmlns="http://www.w3.org/2000/svg" viewBox="0 0 1503 1061">
    <defs>
        <style>.cls-3{mix-blend-mode:overlay;fill:url(#linear-gradient);}.cls-4{fill:#fff;}</style>
        <linearGradient id="linear-gradient" x1="552.02" y1="35.44" x2="942.17" y2="562.73" gradientUnits="userSpaceOnUse">
            <stop offset="0" stop-color="#fff"/>
            <stop offset="1"/>
        </linearGradient>
    </defs>
    <g class="cls-1">
        <g id="Layer_1" data-name="Layer 1">
            <path class="cls-2" d="M983.81,76.83v564.1a60.65,60.65,0,0,1-60.64,60.65H576.84a60.65,60.65,0,0,1-60.65-60.65V76.83a60.64,60.64,0,0,1,60.65-60.65H923.17A60.64,60.64,0,0,1,983.81,76.83Z"/>
            <path class="cls-3" d="M983.81,201v440a60.65,60.65,0,0,1-60.64,60.65H791.6c-.24-.23-214.82-214.9-214.82-214.9a14.45,14.45,0,0,1,20.44-20.44L732.85,601.87A26,26,0,0,0,768.52,564c-.28-.29-.55-.58-.8-.88L634,429.45a204.36,204.36,0,0,1,144.54-349h.06a204,204,0,0,1,144.6,59.91C923.37,140.48,983.72,200.85,983.81,201Z"/>
            <path class="cls-4" d="M923.22,140.34a204,204,0,0,0-144.6-59.91h-.06A204.4,204.4,0,0,0,634,429.45l133.7,133.7c.25.3.52.59.8.87a26,26,0,0,1-36.13,37.45q-.32-.36-.66-.72L597.22,466.24a14.45,14.45,0,0,0-20.44,20.44L710.41,620.31q.4.5.87,1A54.93,54.93,0,0,0,790,544.61a13.7,13.7,0,0,0-1-1.06L654.46,409a175.53,175.53,0,0,1,124.1-299.68h.05a174.51,174.51,0,0,1,124.17,51.44,14.45,14.45,0,1,0,20.44-20.44Z"/>
            <path class="cls-4" d="M691.25,197.51a123.66,123.66,0,0,0,0,174.7L825.76,506.72a14.45,14.45,0,0,0,20.44-20.44L711.69,351.77a94.62,94.62,0,1,1,133.93.09,14.45,14.45,0,1,0,20.44,20.44c48.16-48.15,48.12-126.53-.07-174.73S739.41,149.35,691.25,197.51Z"/>
            <path class="cls-2" d="M145.82,828.64q0,28.9-19.64,44.32T70.54,888.37H39.72v82.36H25.81V771.36H74.63Q145.82,771.36,145.82,828.64ZM39.72,876.37H67.13q33.69,0,48.69-11.12t15-36.07q0-23-14.19-34.16T72.72,783.91h-33Z"/>
            <path class="cls-2" d="M291.61,896.41q0,36.29-17.59,56.66t-48.55,20.39q-19.5,0-34.36-9.41t-22.78-27q-7.91-17.59-7.91-40.64,0-36.27,17.59-56.52t48.28-20.25q30.54,0,47.93,20.52T291.61,896.41Zm-117,0q0,30.55,13.43,47.66t38,17.12q24.54,0,38-17.12t13.44-47.66q0-30.67-13.57-47.59t-38.12-16.91q-24.54,0-37.84,16.84T174.61,896.41Z"/>
            <path class="cls-2" d="M434.4,970.73l-32.46-99.14q-3.13-10.08-8-29.59h-.82l-2.86,10.09-6.14,19.78-33,98.86H337.72L295.31,822.5h14.45l23.73,85.91q8.31,31.92,10.91,46.91h.82q8-31.91,11.72-42.41l30.55-90.41h12.27l29.05,90.14q9.81,32,12,42.41h.82q1.08-8.87,10.91-47.46l22.63-85.09h13.64L448.58,970.73Z"/>
            <path class="cls-2" d="M563.37,973.46q-32.31,0-50.39-19.91t-18.06-55.77q0-35.46,17.45-56.8t47-21.34q26.18,0,41.32,18.27t15.13,49.64v10.91H509.1q.27,30.54,14.25,46.63t40,16.1a123.36,123.36,0,0,0,22.3-1.78q9.62-1.77,24.34-7.63v12.27a108.57,108.57,0,0,1-23.18,7.43A128.59,128.59,0,0,1,563.37,973.46Zm-4-141.82q-21.42,0-34.37,14.11t-15.13,40.71h91.63q0-25.79-11.18-40.3T559.42,831.64Z"/>
            <path class="cls-2" d="M696,819.64a115.4,115.4,0,0,1,20.19,1.91l-2.6,13a79.22,79.22,0,0,0-19.22-2.32q-19,0-31.09,16.09t-12.14,40.64v81.82h-13.5V822.5h11.45l1.37,26.73h.95q9.14-16.37,19.5-23T696,819.64Z"/>
            <path class="cls-2" d="M789.41,973.46q-32.32,0-50.39-19.91T721,897.78q0-35.46,17.46-56.8t47.05-21.34q26.17,0,41.31,18.27t15.14,49.64v10.91H735.14q.27,30.54,14.25,46.63t40,16.1a123.44,123.44,0,0,0,22.3-1.78q9.62-1.77,24.34-7.63v12.27a108.57,108.57,0,0,1-23.18,7.43A128.67,128.67,0,0,1,789.41,973.46Zm-3.95-141.82q-21.42,0-34.37,14.11T736,886.46h91.64q0-25.79-11.18-40.3T785.46,831.64Z"/>
            <path class="cls-2" d="M920.34,819.64q16.08,0,27.82,5.86t21,20H970q-.83-17.19-.82-33.69V758.55h13.36V970.73h-8.86l-3.41-22.64h-1.09q-16.92,25.36-48.55,25.37-30.68,0-46.91-19.09t-16.23-55.64q0-38.46,16.09-58.77T920.34,819.64Zm0,12.27q-24.27,0-36.48,17.05t-12.2,49.5q0,63,49,63,25.1,0,36.82-14.59t11.73-48.14v-2.32q0-34.36-11.53-49.43T920.34,831.91Z"/>
            <path class="cls-5" d="M1165,912.91q0,28.77-19.16,44.66t-53.94,15.89a144.71,144.71,0,0,1-25.43-2,80.75,80.75,0,0,1-20.66-6.61V941.69a99.48,99.48,0,0,0,46.37,11.45q22.08,0,35-10.3t13-28.29A27.51,27.51,0,0,0,1133,895.8q-7.17-8.12-26.66-19.16-20.59-11.6-28.57-23.18t-8-27.41q0-25.5,18-41.53t47.32-16a116.32,116.32,0,0,1,25.16,2.59A113.37,113.37,0,0,1,1184.9,780l-9,20.46a83.81,83.81,0,0,0-20.18-8.18,79.9,79.9,0,0,0-20.59-3q-18.27,0-29.39,9.48t-11.11,25.7A31,31,0,0,0,1097,837a30,30,0,0,0,7.36,9.89q5,4.64,19.37,13,20,12,27.06,18.81A44.67,44.67,0,0,1,1165,912.91Z"/>
            <path class="cls-5" d="M1251.6,819.36q25.92,0,40.91,15.35t15,42.2a121.05,121.05,0,0,1-9.81,48.41q-9.83,22.78-26.6,35.18a62.09,62.09,0,0,1-37.91,12.41q-26.18,0-41-15.41t-14.87-42.13a120.58,120.58,0,0,1,10-48.75q9.94-22.85,26.86-35A62.62,62.62,0,0,1,1251.6,819.36Zm32.19,54.42q0-15.69-8.53-25.44t-23.11-9.75a39.94,39.94,0,0,0-26.66,10.09q-11.79,10.1-18.27,28t-6.48,39.88q0,17.86,8.66,27.62t24.89,9.75q14.18,0,25.5-10t17.66-28.29Q1283.78,897.37,1283.79,873.78Z"/>
            <path class="cls-5" d="M1289.67,1037.82a48.21,48.21,0,0,1-17.05-2.86v-19.23a48,48,0,0,0,15.27,3,18,18,0,0,0,16-8.45q5.6-8.46,9-24.14l31-147.55h-26.31l1.77-9.13,28.09-9,3.14-13.64q6.27-27.27,17.38-38.52t32.94-11.25a71,71,0,0,1,13.36,1.56,62.47,62.47,0,0,1,12.27,3.48l-5.86,17.59q-10.36-3.95-18.68-3.95-11.87,0-18.21,6.61t-10.29,24.21L1370,821.27h45.51L1399,838.59h-32.32l-31.63,149.73q-5.32,25.77-16.37,37.64T1289.67,1037.82Z"/>
            <path class="cls-5" d="M1428.37,954.78q7.5,0,19.63-3.55v17.59a62.36,62.36,0,0,1-11.45,3.28,59.42,59.42,0,0,1-10.91,1.36q-17,0-26.11-8.11t-9.07-24.21a99.1,99.1,0,0,1,2.45-20.45l17.32-82.1h-23.45l1.91-10L1413.91,818l17-31.09h13.36l-7.5,34.36h37.37l-3.55,17.32h-37.23L1415.82,921q-2.44,11.87-2.45,18,0,7.63,4,11.73T1428.37,954.78Z"/>
        </g>
    </g>
</svg>