<svg xmlns="http://www.w3.org/2000/svg" viewBox="0 0 1448.33 1021.64">
  <path
    d="M897.36,0H551a60.64,60.64,0,0,0-60.63,60.65v564.1h0A60.64,60.64,0,0,0,551,685.4H897.36A60.66,60.66,0,0,0,958,624.75V60.65h0A60.64,60.64,0,0,0,897.36,0ZM840.25,356.12a14.45,14.45,0,0,1-20.44-20.44,94.62,94.62,0,1,0-133.93-.09L820.39,470.1A14.45,14.45,0,1,1,800,490.54L665.44,356a123.66,123.66,0,0,1,0-174.7c48.16-48.16,126.55-48.14,174.74.06S888.41,308,840.25,356.12Zm57.16-211.54a14.46,14.46,0,0,1-20.44,0A174.49,174.49,0,0,0,752.8,93.14h0a175.53,175.53,0,0,0-124.1,299.68L763.19,527.37a14.26,14.26,0,0,1,1,1.06,55,55,0,0,1-78.72,76.7c-.31-.33-.6-.67-.87-1L551,470.5a14.45,14.45,0,0,1,20.44-20.44L705.9,584.57q.35.36.66.72a26,26,0,1,0,36.13-37.45c-.28-.28-.55-.57-.8-.87l-133.7-133.7a204.37,204.37,0,0,1-60-144.73c.06-112.89,91.62-204.35,204.51-204.29h.06a204,204,0,0,1,144.6,59.91v0A14.46,14.46,0,0,1,897.41,144.58Z" />
  <path
    d="M120,812.46q0,28.9-19.64,44.32T44.73,872.19H13.91v82.36H0V755.18H48.82Q120,755.18,120,812.46ZM13.91,860.19H41.32Q75,860.19,90,849.07T105,813q0-23-14.19-34.16T46.91,767.73h-33Z" />
  <path
    d="M265.8,880.23q0,36.28-17.59,56.66t-48.55,20.39q-19.5,0-34.36-9.41t-22.78-27q-7.91-17.6-7.91-40.64,0-36.27,17.59-56.52t48.28-20.25q30.54,0,47.93,20.52T265.8,880.23Zm-117,0q0,30.56,13.43,47.66t38,17.12q24.54,0,38-17.12t13.44-47.66q0-30.68-13.57-47.59T200,815.73q-24.54,0-37.84,16.84T148.8,880.23Z" />
  <path
    d="M408.59,954.55l-32.46-99.14q-3.13-10.08-8-29.59h-.82l-2.86,10.09-6.14,19.78-33,98.86h-13.4L269.5,806.32H284l23.73,85.91q8.31,31.92,10.91,46.91h.82q8-31.9,11.72-42.41l30.55-90.41H374L403,896.46q9.81,32,12,42.41h.82q1.08-8.86,10.91-47.46l22.63-85.09H463L422.77,954.55Z" />
  <path
    d="M537.56,957.28q-32.31,0-50.39-19.91T469.11,881.6q0-35.46,17.45-56.8t47-21.34q26.18,0,41.32,18.27T590,871.37v10.91H483.29q.27,30.54,14.25,46.63t40,16.1a123.42,123.42,0,0,0,22.3-1.78q9.61-1.77,24.34-7.63v12.27A108.39,108.39,0,0,1,561,955.3,128.8,128.8,0,0,1,537.56,957.28Zm-4-141.82q-21.42,0-34.37,14.11t-15.13,40.71h91.63q0-25.78-11.18-40.3t-30.9-14.52Z" />
  <path
    d="M670.19,803.46a114.94,114.94,0,0,1,20.19,1.91l-2.6,13a78.8,78.8,0,0,0-19.22-2.32q-19,0-31.09,16.09t-12.14,40.64V954.6h-13.5V806.32h11.45l1.37,26.73h1q9.14-16.37,19.5-23T670.19,803.46Z" />
  <path
    d="M763.6,957.28q-32.33,0-50.39-19.91t-18-55.77q0-35.46,17.46-56.8t47.05-21.34q26.17,0,41.31,18.27t15.14,49.64v10.91H709.33q.27,30.54,14.25,46.63t40,16.1a123.42,123.42,0,0,0,22.3-1.78q9.61-1.77,24.34-7.63v12.27A108.39,108.39,0,0,1,787,955.3,128.8,128.8,0,0,1,763.6,957.28Zm-4-141.82q-21.42,0-34.37,14.11t-15.09,40.71h91.64q0-25.78-11.18-40.3t-31-14.52Z" />
  <path
    d="M894.53,803.46q16.08,0,27.82,5.86t21,20h.84q-.83-17.19-.82-33.69V742.37h13.36V954.55h-8.86l-3.41-22.64h-1.09q-16.92,25.37-48.55,25.37-30.68,0-46.91-19.09t-16.23-55.64q0-38.46,16.09-58.77T894.53,803.46Zm0,12.27q-24.27,0-36.48,17t-12.2,49.5q0,63,49,63,25.1,0,36.82-14.59t11.73-48.14v-2.32q0-34.37-11.53-49.43t-37.34-15.07Z" />
  <path
    d="M1139.19,896.73q0,28.77-19.16,44.66t-53.94,15.89a145.38,145.38,0,0,1-25.43-2,80.74,80.74,0,0,1-20.66-6.61V925.51A99.37,99.37,0,0,0,1066.37,937q22.08,0,35-10.3t13-28.29a27.53,27.53,0,0,0-7.18-18.75q-7.17-8.11-26.66-19.16-20.6-11.6-28.57-23.18t-8-27.41q0-25.5,18-41.53t47.32-16a116.25,116.25,0,0,1,25.16,2.59,113.27,113.27,0,0,1,24.65,8.89l-9,20.46a84,84,0,0,0-20.18-8.18,80.13,80.13,0,0,0-20.59-3q-18.27,0-29.39,9.48t-11.11,25.7a31,31,0,0,0,2.37,12.54,30,30,0,0,0,7.36,9.89q5,4.63,19.37,13,20,12,27.06,18.81A44.68,44.68,0,0,1,1139.19,896.73Z" />
  <path
    d="M1225.79,803.18q25.92,0,40.91,15.35t15,42.2a121.12,121.12,0,0,1-9.81,48.41q-9.83,22.79-26.6,35.18a62.09,62.09,0,0,1-37.91,12.41q-26.18,0-41-15.41t-14.87-42.13a120.58,120.58,0,0,1,10-48.75q9.95-22.85,26.86-35A62.66,62.66,0,0,1,1225.79,803.18ZM1258,857.6q0-15.69-8.53-25.44t-23.11-9.75a39.92,39.92,0,0,0-26.66,10.09q-11.79,10.1-18.27,28t-6.48,39.88q0,17.86,8.66,27.62t24.89,9.75q14.18,0,25.5-10t17.66-28.29q6.33-18.27,6.34-41.86Z" />
  <path
    d="M1263.86,1021.64a48.3,48.3,0,0,1-17-2.86V999.55a48,48,0,0,0,15.27,3,18,18,0,0,0,16-8.45q5.6-8.46,9-24.14l31-147.55h-26.31l1.77-9.13,28.09-9,3.14-13.64q6.27-27.27,17.38-38.52t32.94-11.25a71.45,71.45,0,0,1,13.36,1.56,62.23,62.23,0,0,1,12.27,3.48l-5.86,17.59q-10.36-3.94-18.68-4-11.87,0-18.21,6.61t-10.29,24.21l-3.49,14.72h45.51l-16.51,17.32h-32.32l-31.63,149.73q-5.33,25.77-16.37,37.64T1263.86,1021.64Z" />
  <path
    d="M1402.56,938.6q7.5,0,19.63-3.55v17.59a62.39,62.39,0,0,1-11.45,3.28,59.84,59.84,0,0,1-10.91,1.36q-17,0-26.11-8.11T1364.65,925a99.14,99.14,0,0,1,2.45-20.45l17.32-82.1H1361l1.91-10,25.22-10.59,17-31.09h13.36l-7.5,34.36h37.37l-3.55,17.32h-37.23L1390,904.82q-2.44,11.86-2.45,18,0,7.63,4,11.73T1402.56,938.6Z" />
</svg>
