<svg id="bfcc702b-51a9-40df-b137-79bf19b6e616" xmlns="http://www.w3.org/2000/svg" viewBox="0 0 250 68">
  <path id="b61df965-f47c-49ba-844b-0066307247d6"
    d="M34,0A34,34,0,1,1,0,34,34,34,0,0,1,34,0Zm0,2.36A31.64,31.64,0,1,0,65.57,34,31.62,31.62,0,0,0,34,2.36ZM232.24,27.63l6.08,16,6.25-16H250L239.7,52.57c-2.19,5.26-4.62,7.41-8.4,7.41a7.37,7.37,0,0,1-3.09-.64h0v-4.5a5.8,5.8,0,0,0,2.31.45c1.84,0,3-.89,4.07-3.4h0l.95-2.31-8.88-21.95ZM189,27.08c6.12,0,10.85,5.05,10.83,11.65S195.09,50.41,189,50.41a9.17,9.17,0,0,1-7.53-3.59h0v12.5h-5.21V27.61h5.21V30.8A9.22,9.22,0,0,1,189,27.08Zm-74.43.55V40c0,3.46,1.78,5.54,4.81,5.54s5.17-2.4,5.17-6.22h0V27.63h5.26V49.88h-5.26v-3a7.72,7.72,0,0,1-6.76,3.5c-5.26,0-8.48-3.63-8.48-9.41h0V27.63Zm98.06-.55a9.17,9.17,0,0,1,7.53,3.59h0v-3h5.22V49.9h-5.22V46.71a9.25,9.25,0,0,1-7.53,3.72c-6.1,0-10.83-5-10.83-11.68S206.48,27.08,212.6,27.08Zm-71,0a15.13,15.13,0,0,1,7.2,2h0v5.5a11.46,11.46,0,0,0-7.39-2.86c-2.14,0-3.54.78-3.54,2.14,0,3.86,12,1,12,9.21,0,4.82-4,7.41-8.72,7.41a15.36,15.36,0,0,1-8.24-2.15h0V42.62a13,13,0,0,0,8,3.18c2.12,0,3.71-.7,3.71-2.46,0-4.14-11.93-.87-11.93-9.09C132.73,29.9,136.35,27.08,141.57,27.08Zm105.76,18a2.66,2.66,0,1,1-2.65,2.65A2.64,2.64,0,0,1,247.33,45.12Zm0,.28a2.39,2.39,0,1,0,2.37,2.37A2.36,2.36,0,0,0,247.31,45.4ZM157.57,18.1V30.58a7.77,7.77,0,0,1,6.81-3.5c5.4,0,8.63,3.63,8.6,9.42h0V49.9h-5.25V37.5C167.73,34,166,32,162.79,32s-5.22,2.4-5.22,6.22h0V49.9h-5.26V18.1ZM95,18.1c7.39,0,12.08,4.4,12.08,10.91,0,7.18-5.7,11-12.7,11H91.28V49.9H85.83V18.1Zm-53.26,0c8.06,0,11.62,4.67,11.62,10.17C53.4,35.8,47.68,40,40.83,40H34.68l-1.84,9.89H27.39L33.54,18.1Zm-11.49,0-6.1,31.78H21.6L27.75,18.1Zm-5.78,0L18.38,49.88H15.81L21.94,18.1Zm223,28.21c.63,0,1.06.34,1.06.89a.88.88,0,0,1-.62.85h0l.75,1h-.64l-.68-1h-.57v1h-.53V46.31Zm0,.49h-.68v.87h.68c.36,0,.55-.17.55-.43s-.21-.44-.55-.44ZM187.89,31.88a6.7,6.7,0,0,0-6.68,6.9,6.67,6.67,0,1,0,13.33,0A6.68,6.68,0,0,0,187.89,31.88Zm25.8,0a6.7,6.7,0,0,0-6.68,6.9,6.67,6.67,0,1,0,13.33,0A6.68,6.68,0,0,0,213.69,31.88ZM42,23H38L35.64,35.12h4.77c4.11,0,7.54-2.27,7.56-6.68C48,24.7,45.28,23,42,23Zm52.78,0H91.28V35.12h3.54c4.41,0,6.72-2.58,6.72-6,0-3.78-2.18-6.13-6.72-6.13Z" />
</svg>
