<svg xmlns="http://www.w3.org/2000/svg" viewBox="0 0 639.045 104.214">
  <path d="M140.273 0h193.069l-42.684 103.879H97.586L140.273 0"/>
  <path d="M0 71.921h9.174l3.439-16.304h8.647c3.624 0 6.019.996 6.019 5.029 0 2.803-.471 5.663-.471 8.469 0 .934.177 1.805.414 2.801h8.941c-.471-1.232-.586-2.978-.586-4.85 0-2.566.289-5.367.289-7.236 0-3.276-.875-6.316-4.319-7.361v-.113c5.61-.821 9.578-5.549 9.578-11.219 0-8.059-4.908-11.042-12.442-10.919H8.764L0 71.921M16.474 37.34h8.703c3.624 0 6.783.643 6.783 5.141 0 4.676-4.617 6.545-9.466 6.6h-8.476l2.456-11.741z"/>
  <path d="M60.861 60.357c-.932 3.269-2.627 6.834-7.771 6.834-2.394 0-4.556-1.105-4.556-3.389 0-3.791 2.976-4.556 6.13-4.906 2.396-.177 4.911-.231 7.013-1.464l-.816 2.925m-8.937-9.464c.528-3.037 3.155-4.438 6.134-4.438 2.101 0 5.258.702 5.258 3.682 0 3.852-3.681 3.44-11.503 4.379-7.185.874-11.571 4.496-11.571 10.279 0 4.207 3.218 7.946 9.816 7.946 3.386 0 6.951-1.228 9.229-3.794v2.978h8.293c-.173-.525-.289-1.228-.289-1.753 0-1.17.116-3.042.406-4.09l2.692-12.156c.349-1.862.637-3.789.637-5.076.118-6.776-7.182-7.946-12.561-7.946-6.833 0-13.258 2.393-14.312 9.985h7.771v.004z"/>
  <path d="M72.903 71.921h8.351l6.427-30.207h-8.352l-6.426 30.207m17.229-41.708h-8.35l-1.522 6.836h8.354l1.518-6.836z"/>
  <path d="M88.023 71.921h8.294l8.879-41.703h-8.293l-8.88 41.703"/>
  <path fill="#fff" d="M172.135 42.774c.238-10.167-7.066-15.484-16.702-15.484-14.083 0-22.786 11.745-22.786 25.238 0 11.74 6.833 18.462 18.519 18.462 9.053 0 15.36-4.384 19.102-16.01h-9.174c-.815 4.387-4.729 8.295-9.808 8.295-6.661 0-9.466-5.021-9.466-10.747 0-8.004 4.271-17.528 13.671-17.528 4.383 0 7.477 2.634 7.477 7.774h9.167"/>
  <path fill="#fff" d="M192.816 58.426c-.932 3.269-2.627 6.836-7.77 6.836-2.395 0-4.557-1.11-4.557-3.386 0-3.799 2.978-4.561 6.13-4.909 2.396-.182 4.911-.236 7.012-1.464l-.815 2.923m-8.935-9.46c.529-3.037 3.153-4.441 6.13-4.441 2.106 0 5.26.702 5.26 3.68 0 3.854-3.677 3.445-11.505 4.379-7.182.884-11.567 4.501-11.567 10.284 0 4.207 3.215 7.946 9.812 7.946 3.392 0 6.951-1.228 9.23-3.794v2.978h8.293c-.173-.525-.29-1.228-.29-1.753 0-1.17.117-3.037.41-4.093l2.688-12.146c.35-1.867.644-3.797.644-5.084.112-6.776-7.188-7.946-12.56-7.946-6.836 0-13.265 2.395-14.316 9.99h7.771z"/>
  <path fill="#fff" d="M205.735 69.994h8.292l2.799-13.376c1.111-5.138 3.393-9.933 9.761-9.933 1.165 0 2.334.294 3.5.525l1.699-8.063c-.877-.117-1.695-.172-2.573-.172-4.435 0-8.526 2.218-10.394 6.368l-.116-.117 1.228-5.435h-7.887l-6.309 30.203"/>
  <path fill="#fff" d="M246.904 45.222c4.029 0 5.95 2.748 5.95 6.545 0 5.141-2.862 11.506-8.816 11.506-3.854 0-5.609-3.092-5.609-6.654.004-4.852 2.925-11.397 8.475-11.397m16.706-5.43h-7.952l-.928 4.618h-.116c-1.697-3.976-5.08-5.435-9.231-5.435-9.694 0-15.248 9.402-15.248 18.223 0 7.419 4.436 12.325 11.628 12.325 3.384 0 6.131-1.401 8.293-4.267l.113.114c-1.632 5.902-3.15 10.516-8.411 10.516-2.691 0-5.553-1.287-5.437-4.324h-8.296c0 7.244 6.783 9.881 12.913 9.881 9.99 0 14.603-3.861 16.651-13.035l6.021-28.616z"/>
  <path fill="#fff" d="M265.415 57.783c0 8.644 5.436 13.027 13.845 13.027 10.981 0 17.583-8.417 17.583-19.047 0-8.703-5.782-12.792-14.079-12.792-10.747 0-17.349 8.591-17.349 18.812m8.293 0c0-5.081 2.691-12.562 8.766-12.562 4.32 0 6.076 2.629 6.076 6.659 0 5.089-2.688 12.679-8.88 12.679-3.918.001-5.962-3.205-5.962-6.776z"/>
  <path d="M345.098 39.207h.11l2.048 16.595h-11.151l8.993-16.595m-27.579 32.714h9.702l5.254-9.293h15.598l1.346 9.293h9.115l-6.957-41.703h-9.401l-24.657 41.703z"/>
  <path d="M395.084 41.719h-8.291l-3.391 16.064c-.879 4.21-3.445 8.42-8.468 8.42-1.93 0-3.975-1.287-3.975-3.1 0-.816.295-2.806.526-3.682l3.68-17.7h-8.291l-3.743 17.7c-.235 1.056-.875 3.973-.875 5.2 0 5.266 3.096 8.123 8.825 8.123 4.315 0 7.879-1.695 10.57-5.023h.11l-.935 4.207h7.946l6.312-30.209"/>
  <path d="M424.223 50.544c.113-7.77-5.78-9.638-12.388-9.638-5.839 0-13.373 2.454-13.373 9.579 0 4.732 2.394 6.368 6.541 7.71l6.365 2.044c1.813.585 2.981 1.229 2.981 3.331 0 2.743-2.75 3.627-5.262 3.627-2.856 0-5.952-1.35-5.952-4.101v-.988h-7.711v1.228c0 7.07 6.953 9.4 12.847 9.4 6.949 0 14.369-2.796 14.369-10.279 0-5.089-3.5-7.189-7.945-8.641l-4.147-1.342c-2.802-.883-3.791-1.698-3.791-3.04 0-2.163 2.158-2.982 5.078-2.982 3.158 0 4.614 1.519 4.677 4.088h7.711"/>
  <path d="M444.944 32.553h-8.299l-1.868 9.169h-5.316l-1.279 5.554h5.431l-3.387 16.177c-.239 1.056-.412 2.104-.412 2.86-.117 4.914 4.026 6.134 7.888 6.134 1.754 0 3.5-.114 5.202-.291l1.401-6.428c-.997.119-1.985.182-2.982.182-1.224 0-2.798-.063-2.798-2.221 0-.239.114-.762.235-1.409l3.097-15.009h5.897l1.283-5.552h-5.953l1.86-9.166"/>
  <path d="M448.326 71.921h8.295l2.798-13.373c1.11-5.144 3.395-9.931 9.759-9.931 1.169 0 2.331.289 3.5.525l1.703-8.063c-.887-.117-1.703-.173-2.578-.173-4.438 0-8.53 2.222-10.398 6.37l-.113-.119 1.224-5.438h-7.879l-6.311 30.202"/>
  <path d="M471.622 71.921h8.351l6.423-30.207h-8.342l-6.432 30.207m17.23-41.708h-8.35l-1.519 6.836h8.35l1.519-6.836z"/>
  <path d="M507.074 60.357c-.938 3.269-2.629 6.834-7.777 6.834-2.394 0-4.556-1.105-4.556-3.389 0-3.791 2.979-4.556 6.138-4.906 2.394-.177 4.9-.231 7.004-1.464l-.809 2.925m-8.938-9.464c.533-3.037 3.151-4.438 6.129-4.438 2.111 0 5.266.702 5.266 3.682 0 3.852-3.681 3.44-11.512 4.379-7.185.874-11.568 4.496-11.568 10.279 0 4.207 3.218 7.946 9.813 7.946 3.395 0 6.953-1.228 9.233-3.794v2.978h8.29c-.172-.525-.289-1.228-.289-1.753 0-1.17.117-3.042.411-4.09l2.691-12.156c.351-1.862.637-3.789.637-5.076.114-6.776-7.181-7.946-12.557-7.946-6.835 0-13.263 2.393-14.314 9.985h7.77v.004z"/>
  <path d="M622.481 103.751h9.358c1.311 0 3.614-.197 5.039-1.425 1.849-1.589 2.166-3.292 2.166-4.379 0-2.473-1.259-4.296-2.48-5.234 1.511-1.256 1.963-3.014 1.963-4.27 0-.855-.397-5.435-7.483-5.435h-8.563v20.743m4.27-17.18h5.063c1.482 0 2.645.569 2.645 2.363 0 1.646-1.051 2.361-2.873 2.361h-4.834v-4.724zm0 8.28h5.801c.796 0 2.421.111 2.421 2.441 0 2.845-1.935 2.904-3.214 2.904h-5.008v-5.345z"/>
  <path d="M601.624 103.751h9.361c1.303 0 3.606-.197 5.031-1.425 1.852-1.589 2.166-3.292 2.166-4.379 0-2.473-1.261-4.296-2.48-5.234 1.506-1.256 1.961-3.014 1.961-4.27 0-.855-.398-5.435-7.479-5.435h-8.568l.008 20.743m4.26-17.18h5.07c1.479 0 2.642.569 2.642 2.363 0 1.646-1.048 2.361-2.873 2.361h-4.839v-4.724zm0 8.28h5.809c.793 0 2.416.111 2.416 2.441 0 2.845-1.93 2.904-3.214 2.904h-5.011v-5.345z"/>
  <path d="m584.657 90.131 6.6-7.182h4.766l-6.584 7.182h-4.782"/>
  <path d="m595.02 86.576-2.931 3.3c.611 1.024.902 2.158.902 3.386 0 1.778-.694 3.442-1.947 4.704-1.259 1.253-2.926 1.947-4.707 1.947-1.775 0-3.445-.699-4.706-1.947-1.251-1.259-1.942-2.926-1.942-4.704 0-3.409 2.512-6.246 5.824-6.623l3.531-3.952c-.899-.239-1.758-.372-2.707-.372-6.035 0-10.949 4.912-10.949 10.952 0 2.918 1.139 5.674 3.211 7.736 2.063 2.072 4.818 3.211 7.738 3.211 2.926 0 5.674-1.139 7.744-3.211 2.072-2.063 3.211-4.818 3.211-7.736-.008-2.478-.774-4.78-2.272-6.691"/>
  <path d="M317.455 103.845V86.348H327.5v2.127h-7.24v5.372h6.898v2.098h-6.898v5.773h7.503v2.127h-10.308"/>
  <path d="M333.75 88.024h-2.625v-2.548h2.625v2.548zm0 15.821h-2.625V90.727h2.625v13.118z"/>
  <path d="M346.149 103.845v-7.741c0-1.838-.337-3.591-2.594-3.591-2.437 0-3.197 2.122-3.197 4.191v7.136h-2.629v-10.1c0-.996-.024-2.021-.126-3.017h2.46l.087 2.26c.891-1.656 2.361-2.52 4.245-2.52 3.261 0 4.414 2.075 4.414 5.089v8.292h-2.66"/>
  <path d="M367.503 104.131c-4.112 0-6.87-2.335-6.87-6.581V86.345h2.86v11.15c0 2.543 1.311 4.402 4.041 4.402 2.7 0 4.065-1.836 4.065-4.402v-11.15h2.856v11.124c.001 4.228-2.855 6.662-6.952 6.662"/>
  <path d="M386.938 103.845v-7.741c0-1.838-.341-3.591-2.593-3.591-2.441 0-3.202 2.122-3.202 4.191v7.136h-2.621v-10.1c0-.996-.027-2.021-.134-3.017h2.469l.074 2.26c.895-1.656 2.37-2.52 4.257-2.52 3.249 0 4.407 2.075 4.407 5.089v8.292h-2.657"/>
  <path d="M397.905 104.131c-2.81 0-3.331-1.938-3.331-4.485v-7.031h-2.413v-1.888h2.417v-2.832l2.645-.863v3.695h2.935v1.888h-2.935v7.346c0 1.131.29 2.096 1.624 2.096.502 0 .97-.102 1.444-.314l.125 1.942c-.78.29-1.702.446-2.511.446"/>
  <path d="M405.07 97.966c0 2.421 1.515 4.329 4.064 4.329 1.178 0 2.751-.341 3.799-.915l.157 2.044c-1.311.499-2.967.707-4.38.707-4.3 0-6.349-2.809-6.349-6.898 0-3.591 2.284-6.769 5.934-6.769 3.908 0 5.478 3.014 5.478 6.719v.78h-8.703m3.245-5.69c-2.226 0-3.276 2.393-3.276 4.072h6.215c0-1.866-.71-4.072-2.939-4.072z"/>
  <path d="M423.869 93.062c-.338-.13-.71-.156-1.079-.156-2.57 0-3.253 2.645-3.253 4.693v6.246h-2.617v-10.1c0-.998-.031-2.021-.133-3.019h2.46l.082 2.52c.554-1.394 1.892-2.777 3.571-2.777.364 0 .737 0 1.099.102l-.13 2.491"/>
  <path d="M434.962 103.845v-7.741c0-1.838-.338-3.591-2.598-3.591-2.437 0-3.194 2.122-3.194 4.191v7.136h-2.625v-10.1c0-.996-.027-2.021-.133-3.017h2.468l.074 2.26c.899-1.656 2.366-2.52 4.258-2.52 3.249 0 4.406 2.075 4.406 5.089v8.292h-2.656"/>
  <path d="M443.516 97.966c0 2.421 1.519 4.329 4.073 4.329 1.177 0 2.751-.341 3.798-.915l.153 2.044c-1.307.499-2.954.707-4.379.707-4.305 0-6.345-2.809-6.345-6.898 0-3.591 2.283-6.769 5.933-6.769 3.908 0 5.474 3.014 5.474 6.719v.78h-8.707m3.249-5.69c-2.229 0-3.276 2.393-3.276 4.072h6.22c-.001-1.866-.712-4.072-2.944-4.072z"/>
  <path d="M463.794 103.845v-7.741c0-1.861-.345-3.591-2.598-3.591-2.417 0-3.201 2.122-3.201 4.166v7.161h-2.625V84.931h2.625v7.97c.816-1.628 2.229-2.437 4.064-2.437 3.147 0 4.384 2.096 4.384 5.089v8.292h-2.649"/>
  <path d="M486.191 103.845v-8.42c0-1.599-.498-2.912-2.334-2.912-2.146 0-2.916 2.15-2.916 4.166v7.161h-2.617v-8.42c0-1.597-.502-2.912-2.339-2.912-2.146 0-2.931 2.15-2.931 4.168v7.156h-2.625V93.737c0-.998-.023-2.021-.13-3.019h2.465l.078 2.26c.871-1.678 2.236-2.518 4.018-2.518 2.072 0 3.434 1.235 3.826 2.676.632-1.625 2.335-2.676 4.014-2.676 2.857 0 4.144 1.938 4.144 4.637v8.734h-2.652"/>
  <path d="M494.741 97.966c0 2.421 1.519 4.329 4.069 4.329 1.178 0 2.755-.341 3.803-.915l.152 2.044c-1.311.499-2.966.707-4.379.707-4.301 0-6.349-2.809-6.349-6.898 0-3.591 2.283-6.769 5.933-6.769 3.912 0 5.478 3.014 5.478 6.719v.78h-8.707m3.253-5.69c-2.232 0-3.28 2.393-3.28 4.072h6.216c0-1.866-.706-4.072-2.936-4.072z"/>
  <path d="M515.012 103.845v-7.741c0-1.838-.341-3.591-2.593-3.591-2.441 0-3.202 2.122-3.202 4.191v7.136h-2.621v-10.1c0-.996-.027-2.021-.134-3.017h2.469l.074 2.26c.902-1.656 2.37-2.52 4.257-2.52 3.25 0 4.407 2.075 4.407 5.089v8.292h-2.657"/>
  <path d="m538.331 103.845-.156-2.179c-.809 1.648-2.304 2.462-4.116 2.462-3.96 0-5.427-3.435-5.427-6.896 0-3.492 1.459-6.769 5.427-6.769 1.628 0 3.308.887 3.96 2.437v-7.973h2.616v14.978c0 1.443.06 2.704.133 3.935h-2.437m-3.589-11.356c-2.701 0-3.276 2.574-3.276 4.771 0 2.15.622 4.854 3.3 4.854 2.554 0 3.334-2.777 3.334-4.854 0-2.095-.817-4.771-3.358-4.771z"/>
  <path d="M546.54 97.966c0 2.421 1.523 4.329 4.069 4.329 1.181 0 2.751-.341 3.802-.915l.158 2.044c-1.311.499-2.964.707-4.387.707-4.293 0-6.35-2.809-6.35-6.898 0-3.591 2.288-6.769 5.937-6.769 3.908 0 5.481 3.014 5.481 6.719v.78h-8.711m3.254-5.69c-2.226 0-3.276 2.393-3.276 4.072h6.223c-.009-1.866-.714-4.072-2.947-4.072z"/>
  <path d="M565.348 93.062c-.341-.13-.71-.156-1.079-.156-2.571 0-3.253 2.645-3.253 4.693v6.246h-2.626v-10.1c0-.998-.023-2.021-.125-3.019h2.465l.081 2.52c.551-1.394 1.888-2.777 3.567-2.777.369 0 .738 0 1.1.102l-.13 2.491"/>
</svg>