<svg xmlns="http://www.w3.org/2000/svg" viewBox="0 0 639.045 104.214">
  <path d="M0,71.9h9.2l3.4-16.3h8.6c3.6,0,6,1,6,5c0,2.8-0.5,5.7-0.5,8.5c0,0.9,0.2,1.8,0.4,2.8h8.9c-0.5-1.2-0.6-3-0.6-4.8
	c0-2.6,0.3-5.4,0.3-7.2c0-3.3-0.9-6.3-4.3-7.4v-0.1c5.6-0.8,9.6-5.5,9.6-11.2c0-8.1-4.9-11-12.4-10.9H8.8L0,71.9 M16.5,37.3h8.7
	c3.6,0,6.8,0.6,6.8,5.1c0,4.7-4.6,6.5-9.5,6.6H14C14,49.1,16.5,37.3,16.5,37.3z" />
  <path d="M60.9,60.4c-0.9,3.3-2.6,6.8-7.8,6.8c-2.4,0-4.6-1.1-4.6-3.4c0-3.8,3-4.6,6.1-4.9c2.4-0.2,4.9-0.2,7-1.5L60.9,60.4
	 M51.9,50.9c0.5-3,3.2-4.4,6.1-4.4c2.1,0,5.3,0.7,5.3,3.7c0,3.9-3.7,3.4-11.5,4.4c-7.2,0.9-11.6,4.5-11.6,10.3
	c0,4.2,3.2,7.9,9.8,7.9c3.4,0,7-1.2,9.2-3.8v3h8.3c-0.2-0.5-0.3-1.2-0.3-1.8c0-1.2,0.1-3,0.4-4.1l2.7-12.2c0.3-1.9,0.6-3.8,0.6-5.1
	c0.1-6.8-7.2-7.9-12.6-7.9c-6.8,0-13.3,2.4-14.3,10L51.9,50.9C51.9,50.9,51.9,50.9,51.9,50.9z" />
  <path d="M72.9,71.9h8.4l6.4-30.2h-8.4L72.9,71.9 M90.1,30.2h-8.3L80.3,37h8.4C88.6,37,90.1,30.2,90.1,30.2z" />
  <path d="M88,71.9h8.3l8.9-41.7h-8.3L88,71.9" />
  <g>
    <path
      d="M282.5,45.2c-6.1,0-8.8,7.5-8.8,12.6c0,3.6,2,6.8,6,6.8c6.2,0,8.9-7.6,8.9-12.7C288.5,47.8,286.8,45.2,282.5,45.2z" />
    <path
      d="M246.9,45.2c-5.6,0-8.5,6.5-8.5,11.4c0,3.6,1.8,6.7,5.6,6.7c6,0,8.8-6.4,8.8-11.5C252.9,48,250.9,45.2,246.9,45.2z" />
    <path d="M180.5,61.9c0,2.3,2.2,3.4,4.6,3.4c5.1,0,6.8-3.6,7.8-6.8l0.8-2.9c-2.1,1.2-4.6,1.3-7,1.5
		C183.5,57.3,180.5,58.1,180.5,61.9z" />
    <path d="M140.3,0L97.6,103.9h193.1L333.3,0H140.3z M151.3,63.3c5.1,0,9-3.9,9.8-8.3h9.2c-3.7,11.6-10,16-19.1,16
		c-11.7,0-18.5-6.7-18.5-18.5c0-13.5,8.7-25.2,22.8-25.2c9.6,0,16.9,5.3,16.7,15.5H163c0-5.1-3.1-7.8-7.5-7.8
		c-9.4,0-13.7,9.5-13.7,17.5C141.8,58.3,144.6,63.3,151.3,63.3z M202.3,52l-2.7,12.1c-0.3,1.1-0.4,2.9-0.4,4.1
		c0,0.5,0.1,1.2,0.3,1.8h-8.3v-3c-2.3,2.6-5.8,3.8-9.2,3.8c-6.6,0-9.8-3.7-9.8-7.9c0-5.8,4.4-9.4,11.6-10.3
		c7.8-0.9,11.5-0.5,11.5-4.4c0-3-3.2-3.7-5.3-3.7c-3,0-5.6,1.4-6.1,4.4h-7.8c1.1-7.6,7.5-10,14.3-10c5.4,0,12.7,1.2,12.6,7.9
		C203,48.2,202.7,50.1,202.3,52z M216.8,56.6L214,70h-8.3l6.3-30.2h7.9l-1.2,5.4l0.1,0.1c1.9-4.2,6-6.4,10.4-6.4
		c0.9,0,1.7,0.1,2.6,0.2l-1.7,8.1c-1.2-0.2-2.3-0.5-3.5-0.5C220.2,46.7,217.9,51.5,216.8,56.6z M257.6,68.4c-2,9.2-6.7,13-16.7,13
		c-6.1,0-12.9-2.6-12.9-9.9h8.3c-0.1,3,2.7,4.3,5.4,4.3c5.3,0,6.8-4.6,8.4-10.5l-0.1-0.1c-2.2,2.9-4.9,4.3-8.3,4.3
		c-7.2,0-11.6-4.9-11.6-12.3c0-8.8,5.6-18.2,15.2-18.2c4.2,0,7.5,1.5,9.2,5.4h0.1l0.9-4.6h8L257.6,68.4z M279.3,70.8
		c-8.4,0-13.8-4.4-13.8-13v0c0-10.2,6.6-18.8,17.3-18.8c8.3,0,14.1,4.1,14.1,12.8C296.8,62.4,290.2,70.8,279.3,70.8z" />
  </g>
  <path
    d="M345.1,39.2h0.1l2,16.6h-11.2L345.1,39.2 M317.5,71.9h9.7l5.3-9.3h15.6l1.3,9.3h9.1l-7-41.7h-9.4L317.5,71.9L317.5,71.9z" />
  <path d="M395.1,41.7h-8.3l-3.4,16.1c-0.9,4.2-3.4,8.4-8.5,8.4c-1.9,0-4-1.3-4-3.1c0-0.8,0.3-2.8,0.5-3.7l3.7-17.7h-8.3l-3.7,17.7
	c-0.2,1.1-0.9,4-0.9,5.2c0,5.3,3.1,8.1,8.8,8.1c4.3,0,7.9-1.7,10.6-5h0.1l-0.9,4.2h7.9L395.1,41.7" />
  <path d="M424.2,50.5c0.1-7.8-5.8-9.6-12.4-9.6c-5.8,0-13.4,2.5-13.4,9.6c0,4.7,2.4,6.4,6.5,7.7l6.4,2c1.8,0.6,3,1.2,3,3.3
	c0,2.7-2.8,3.6-5.3,3.6c-2.9,0-6-1.3-6-4.1v-1h-7.7v1.2c0,7.1,7,9.4,12.8,9.4c6.9,0,14.4-2.8,14.4-10.3c0-5.1-3.5-7.2-7.9-8.6
	l-4.1-1.3c-2.8-0.9-3.8-1.7-3.8-3c0-2.2,2.2-3,5.1-3c3.2,0,4.6,1.5,4.7,4.1L424.2,50.5" />
  <path d="M444.9,32.6h-8.3l-1.9,9.2h-5.3l-1.3,5.6h5.4l-3.4,16.2c-0.2,1.1-0.4,2.1-0.4,2.9c-0.1,4.9,4,6.1,7.9,6.1
	c1.8,0,3.5-0.1,5.2-0.3l1.4-6.4c-1,0.1-2,0.2-3,0.2c-1.2,0-2.8-0.1-2.8-2.2c0-0.2,0.1-0.8,0.2-1.4l3.1-15h5.9l1.3-5.6h-6L444.9,32.6
	" />
  <path d="M448.3,71.9h8.3l2.8-13.4c1.1-5.1,3.4-9.9,9.8-9.9c1.2,0,2.3,0.3,3.5,0.5l1.7-8.1c-0.9-0.1-1.7-0.2-2.6-0.2
	c-4.4,0-8.5,2.2-10.4,6.4l-0.1-0.1l1.2-5.4h-7.9L448.3,71.9" />
  <path d="M471.6,71.9h8.4l6.4-30.2h-8.3L471.6,71.9 M488.9,30.2h-8.4L479,37h8.4C487.3,37,488.9,30.2,488.9,30.2z" />
  <path d="M507.1,60.4c-0.9,3.3-2.6,6.8-7.8,6.8c-2.4,0-4.6-1.1-4.6-3.4c0-3.8,3-4.6,6.1-4.9c2.4-0.2,4.9-0.2,7-1.5L507.1,60.4
	 M498.1,50.9c0.5-3,3.2-4.4,6.1-4.4c2.1,0,5.3,0.7,5.3,3.7c0,3.9-3.7,3.4-11.5,4.4c-7.2,0.9-11.6,4.5-11.6,10.3
	c0,4.2,3.2,7.9,9.8,7.9c3.4,0,7-1.2,9.2-3.8v3h8.3c-0.2-0.5-0.3-1.2-0.3-1.8c0-1.2,0.1-3,0.4-4.1l2.7-12.2c0.4-1.9,0.6-3.8,0.6-5.1
	c0.1-6.8-7.2-7.9-12.6-7.9c-6.8,0-13.3,2.4-14.3,10L498.1,50.9L498.1,50.9L498.1,50.9z" />
  <path d="M622.5,103.8h9.4c1.3,0,3.6-0.2,5-1.4c1.8-1.6,2.2-3.3,2.2-4.4c0-2.5-1.3-4.3-2.5-5.2c1.5-1.3,2-3,2-4.3
	c0-0.9-0.4-5.4-7.5-5.4h-8.6L622.5,103.8 M626.8,86.6h5.1c1.5,0,2.6,0.6,2.6,2.4c0,1.6-1.1,2.4-2.9,2.4h-4.8L626.8,86.6L626.8,86.6z
	 M626.8,94.9h5.8c0.8,0,2.4,0.1,2.4,2.4c0,2.8-1.9,2.9-3.2,2.9h-5L626.8,94.9L626.8,94.9z" />
  <path d="M601.6,103.8h9.4c1.3,0,3.6-0.2,5-1.4c1.9-1.6,2.2-3.3,2.2-4.4c0-2.5-1.3-4.3-2.5-5.2c1.5-1.3,2-3,2-4.3
	c0-0.9-0.4-5.4-7.5-5.4h-8.6L601.6,103.8 M605.9,86.6h5.1c1.5,0,2.6,0.6,2.6,2.4c0,1.6-1,2.4-2.9,2.4h-4.8L605.9,86.6L605.9,86.6z
	 M605.9,94.9h5.8c0.8,0,2.4,0.1,2.4,2.4c0,2.8-1.9,2.9-3.2,2.9h-5L605.9,94.9L605.9,94.9z" />
  <path d="M584.7,90.1l6.6-7.2h4.8l-6.6,7.2H584.7" />
  <path d="M595,86.6l-2.9,3.3c0.6,1,0.9,2.2,0.9,3.4c0,1.8-0.7,3.4-1.9,4.7c-1.3,1.3-2.9,1.9-4.7,1.9c-1.8,0-3.4-0.7-4.7-1.9
	c-1.3-1.3-1.9-2.9-1.9-4.7c0-3.4,2.5-6.2,5.8-6.6l3.5-4c-0.9-0.2-1.8-0.4-2.7-0.4c-6,0-10.9,4.9-10.9,11c0,2.9,1.1,5.7,3.2,7.7
	c2.1,2.1,4.8,3.2,7.7,3.2c2.9,0,5.7-1.1,7.7-3.2c2.1-2.1,3.2-4.8,3.2-7.7C597.3,90.8,596.5,88.5,595,86.6" />
  <path d="M317.5,103.8V86.3h10v2.1h-7.2v5.4h6.9v2.1h-6.9v5.8h7.5v2.1H317.5" />
  <path d="M333.8,88h-2.6v-2.5h2.6V88z M333.8,103.8h-2.6V90.7h2.6V103.8z" />
  <path d="M346.1,103.8v-7.7c0-1.8-0.3-3.6-2.6-3.6c-2.4,0-3.2,2.1-3.2,4.2v7.1h-2.6V93.7c0-1,0-2-0.1-3h2.5l0.1,2.3
	c0.9-1.7,2.4-2.5,4.2-2.5c3.3,0,4.4,2.1,4.4,5.1v8.3L346.1,103.8" />
  <path d="M367.5,104.1c-4.1,0-6.9-2.3-6.9-6.6V86.3h2.9v11.2c0,2.5,1.3,4.4,4,4.4c2.7,0,4.1-1.8,4.1-4.4V86.3h2.9v11.1
	C374.5,101.7,371.6,104.1,367.5,104.1" />
  <path d="M386.9,103.8v-7.7c0-1.8-0.3-3.6-2.6-3.6c-2.4,0-3.2,2.1-3.2,4.2v7.1h-2.6V93.7c0-1,0-2-0.1-3h2.5l0.1,2.3
	c0.9-1.7,2.4-2.5,4.3-2.5c3.2,0,4.4,2.1,4.4,5.1v8.3L386.9,103.8" />
  <path d="M397.9,104.1c-2.8,0-3.3-1.9-3.3-4.5v-7h-2.4v-1.9h2.4v-2.8l2.6-0.9v3.7h2.9v1.9h-2.9v7.3c0,1.1,0.3,2.1,1.6,2.1
	c0.5,0,1-0.1,1.4-0.3l0.1,1.9C399.6,104,398.7,104.1,397.9,104.1" />
  <path d="M405.1,98c0,2.4,1.5,4.3,4.1,4.3c1.2,0,2.8-0.3,3.8-0.9l0.2,2c-1.3,0.5-3,0.7-4.4,0.7c-4.3,0-6.3-2.8-6.3-6.9
	c0-3.6,2.3-6.8,5.9-6.8c3.9,0,5.5,3,5.5,6.7V98L405.1,98 M408.3,92.3c-2.2,0-3.3,2.4-3.3,4.1h6.2C411.3,94.5,410.5,92.3,408.3,92.3z
	" />
  <path d="M423.9,93.1c-0.3-0.1-0.7-0.2-1.1-0.2c-2.6,0-3.3,2.6-3.3,4.7v6.2h-2.6V93.7c0-1,0-2-0.1-3h2.5l0.1,2.5
	c0.6-1.4,1.9-2.8,3.6-2.8c0.4,0,0.7,0,1.1,0.1L423.9,93.1" />
  <path d="M435,103.8v-7.7c0-1.8-0.3-3.6-2.6-3.6c-2.4,0-3.2,2.1-3.2,4.2v7.1h-2.6V93.7c0-1,0-2-0.1-3h2.5L429,93
	c0.9-1.7,2.4-2.5,4.3-2.5c3.2,0,4.4,2.1,4.4,5.1v8.3L435,103.8" />
  <path
    d="M443.5,98c0,2.4,1.5,4.3,4.1,4.3c1.2,0,2.8-0.3,3.8-0.9l0.2,2c-1.3,0.5-3,0.7-4.4,0.7c-4.3,0-6.3-2.8-6.3-6.9
	c0-3.6,2.3-6.8,5.9-6.8c3.9,0,5.5,3,5.5,6.7V98L443.5,98 M446.8,92.3c-2.2,0-3.3,2.4-3.3,4.1h6.2C449.7,94.5,449,92.3,446.8,92.3z" />
  <path d="M463.8,103.8v-7.7c0-1.9-0.3-3.6-2.6-3.6c-2.4,0-3.2,2.1-3.2,4.2v7.2h-2.6V84.9h2.6v8c0.8-1.6,2.2-2.4,4.1-2.4
	c3.1,0,4.4,2.1,4.4,5.1v8.3H463.8" />
  <path d="M486.2,103.8v-8.4c0-1.6-0.5-2.9-2.3-2.9c-2.1,0-2.9,2.2-2.9,4.2v7.2h-2.6v-8.4c0-1.6-0.5-2.9-2.3-2.9
	c-2.1,0-2.9,2.2-2.9,4.2v7.2h-2.6V93.7c0-1,0-2-0.1-3h2.5l0.1,2.3c0.9-1.7,2.2-2.5,4-2.5c2.1,0,3.4,1.2,3.8,2.7
	c0.6-1.6,2.3-2.7,4-2.7c2.9,0,4.1,1.9,4.1,4.6v8.7L486.2,103.8" />
  <path
    d="M494.7,98c0,2.4,1.5,4.3,4.1,4.3c1.2,0,2.8-0.3,3.8-0.9l0.2,2c-1.3,0.5-3,0.7-4.4,0.7c-4.3,0-6.3-2.8-6.3-6.9
	c0-3.6,2.3-6.8,5.9-6.8c3.9,0,5.5,3,5.5,6.7V98L494.7,98 M498,92.3c-2.2,0-3.3,2.4-3.3,4.1h6.2C500.9,94.5,500.2,92.3,498,92.3z" />
  <path d="M515,103.8v-7.7c0-1.8-0.3-3.6-2.6-3.6c-2.4,0-3.2,2.1-3.2,4.2v7.1h-2.6V93.7c0-1,0-2-0.1-3h2.5L509,93
	c0.9-1.7,2.4-2.5,4.3-2.5c3.2,0,4.4,2.1,4.4,5.1v8.3L515,103.8" />
  <path d="M538.3,103.8l-0.2-2.2c-0.8,1.6-2.3,2.5-4.1,2.5c-4,0-5.4-3.4-5.4-6.9c0-3.5,1.5-6.8,5.4-6.8c1.6,0,3.3,0.9,4,2.4v-8h2.6v15
	c0,1.4,0.1,2.7,0.1,3.9L538.3,103.8 M534.7,92.5c-2.7,0-3.3,2.6-3.3,4.8c0,2.2,0.6,4.9,3.3,4.9c2.6,0,3.3-2.8,3.3-4.9
	C538.1,95.2,537.3,92.5,534.7,92.5z" />
  <path
    d="M546.5,98c0,2.4,1.5,4.3,4.1,4.3c1.2,0,2.8-0.3,3.8-0.9l0.2,2c-1.3,0.5-3,0.7-4.4,0.7c-4.3,0-6.3-2.8-6.3-6.9
	c0-3.6,2.3-6.8,5.9-6.8c3.9,0,5.5,3,5.5,6.7V98L546.5,98 M549.8,92.3c-2.2,0-3.3,2.4-3.3,4.1h6.2C552.7,94.5,552,92.3,549.8,92.3z" />
  <path d="M565.3,93.1c-0.3-0.1-0.7-0.2-1.1-0.2c-2.6,0-3.3,2.6-3.3,4.7v6.2h-2.6V93.7c0-1,0-2-0.1-3h2.5l0.1,2.5
	c0.6-1.4,1.9-2.8,3.6-2.8c0.4,0,0.7,0,1.1,0.1L565.3,93.1" />
</svg>
