<svg id="ae219f3f-8429-4237-824e-bcad4f939eb3" data-name="Logo_block" xmlns="http://www.w3.org/2000/svg"
  viewBox="0 0 495.1 235.9">
  <g id="f5438fb5-79ef-4ba4-8dfa-49b68084854b" data-name="Logo_block">
    <g id="a870fd7b-bfc7-4631-9b61-0430653c22e7" data-name="Schrift_Pfade">
      <path
        d="M18.4,225c3.5,0,6-.4,7.6-1.2a4.44,4.44,0,0,0,2.4-4.3,5.63,5.63,0,0,0-2.5-4.7,36.8,36.8,0,0,0-8.4-4,69,69,0,0,1-6.6-2.8,21.58,21.58,0,0,1-5.1-3.4,14.54,14.54,0,0,1-3.4-4.7,16.9,16.9,0,0,1-1.2-6.8,14.82,14.82,0,0,1,5.7-12.3q5.7-4.5,15.6-4.5a48.62,48.62,0,0,1,9.5.9,42,42,0,0,1,6.8,1.8l-2.4,10.6a32.24,32.24,0,0,0-5.5-1.8,35.32,35.32,0,0,0-7.8-.8,13.62,13.62,0,0,0-6.5,1.4,4.41,4.41,0,0,0-2.5,4.2,6.55,6.55,0,0,0,.5,2.5,5.21,5.21,0,0,0,1.7,2,17,17,0,0,0,3.1,1.8c1.3.6,2.9,1.2,4.8,1.9,3.1,1.2,5.7,2.3,7.9,3.4a20.66,20.66,0,0,1,5.4,3.8,13.67,13.67,0,0,1,3.1,4.8,18.13,18.13,0,0,1,1,6.5q0,8.1-6,12.3c-4,2.8-9.7,4.2-17.2,4.2a48.23,48.23,0,0,1-12-1.2,57.42,57.42,0,0,1-6.4-2l2.3-10.9a57.54,57.54,0,0,0,7,2.3A40.84,40.84,0,0,0,18.4,225Z" />
      <path
        d="M46.3,206.3a34.91,34.91,0,0,1,2.2-13.1,26.94,26.94,0,0,1,5.9-9.4,23.76,23.76,0,0,1,8.5-5.6,25.52,25.52,0,0,1,9.8-1.9c7.8,0,13.9,2.4,18.3,7.3s6.6,12.1,6.6,21.7a20.93,20.93,0,0,1-.1,2.4,16.59,16.59,0,0,1-.2,2.4H59.9c.4,4.6,2,8.1,4.8,10.6s7,3.7,12.4,3.7a38.76,38.76,0,0,0,8.7-.9,44.68,44.68,0,0,0,6.2-1.8l1.7,10.7a16.23,16.23,0,0,1-3,1.1,38.3,38.3,0,0,1-4.3,1.1c-1.6.3-3.4.6-5.3.8a54.41,54.41,0,0,1-5.7.3,34.37,34.37,0,0,1-13-2.2A24.08,24.08,0,0,1,48,218,38.88,38.88,0,0,1,46.3,206.3Zm38-5.8a17,17,0,0,0-.8-5.1,12,12,0,0,0-2.2-4.2,11,11,0,0,0-3.6-2.8,11.17,11.17,0,0,0-5-1,12.53,12.53,0,0,0-5.3,1.1,11.26,11.26,0,0,0-3.8,3,12.45,12.45,0,0,0-2.4,4.2,20.65,20.65,0,0,0-1.2,4.9H84.3Z" />
      <path
        d="M121.6,234.4c-3.6-7.4-7.3-16-11.2-25.6a321.38,321.38,0,0,1-10.4-31h14c.8,3.2,1.7,6.6,2.8,10.2s2.2,7.3,3.4,10.9,2.4,7.2,3.7,10.6,2.4,6.5,3.5,9.3c1.1-2.7,2.2-5.8,3.5-9.3s2.4-7,3.6-10.6,2.3-7.3,3.4-10.9,2-7.1,2.8-10.2h13.5a312.39,312.39,0,0,1-10.4,31c-3.8,9.6-7.5,18.2-11.2,25.6Z" />
      <path
        d="M155.2,206.3a34.91,34.91,0,0,1,2.2-13.1,26.94,26.94,0,0,1,5.9-9.4,23.76,23.76,0,0,1,8.5-5.6,25.52,25.52,0,0,1,9.8-1.9c7.8,0,13.9,2.4,18.3,7.3s6.6,12.1,6.6,21.7a20.93,20.93,0,0,1-.1,2.4,16.59,16.59,0,0,1-.2,2.4H168.8c.4,4.6,2,8.1,4.8,10.6s7,3.7,12.4,3.7a38.76,38.76,0,0,0,8.7-.9,44.68,44.68,0,0,0,6.2-1.8l1.7,10.7a16.23,16.23,0,0,1-3,1.1,38.3,38.3,0,0,1-4.3,1.1c-1.6.3-3.4.6-5.3.8a54.41,54.41,0,0,1-5.7.3,34.37,34.37,0,0,1-13-2.2A24.08,24.08,0,0,1,156.9,218,36,36,0,0,1,155.2,206.3Zm38-5.8a17,17,0,0,0-.8-5.1,12,12,0,0,0-2.2-4.2,11,11,0,0,0-3.6-2.8,11.17,11.17,0,0,0-5-1,12.53,12.53,0,0,0-5.3,1.1,11.26,11.26,0,0,0-3.8,3,12.45,12.45,0,0,0-2.4,4.2,20.65,20.65,0,0,0-1.2,4.9h24.3Z" />
      <path
        d="M215.8,179.6q3.75-1,9.9-2.1a78.64,78.64,0,0,1,13.4-1,30.29,30.29,0,0,1,11.6,1.9,17.86,17.86,0,0,1,7.4,5.3,21.53,21.53,0,0,1,3.9,8.2,43.7,43.7,0,0,1,1.1,10.6v31.9H250V204.6a42.21,42.21,0,0,0-.6-7.7,12.31,12.31,0,0,0-2-5.2,7.68,7.68,0,0,0-3.7-2.9,16.24,16.24,0,0,0-5.7-.9,46.66,46.66,0,0,0-5.2.3c-1.8.2-3.1.4-4,.5v45.7H215.7V179.6Z" />
      <path
        d="M313,191a14.68,14.68,0,0,1-1.3,6.2,27.23,27.23,0,0,1-3.3,5.7,56.25,56.25,0,0,1-4.6,5.3c-1.7,1.7-3.4,3.3-5,4.8-.8.8-1.8,1.7-2.8,2.7s-1.9,2-2.8,3-1.7,2-2.4,2.8a7.71,7.71,0,0,0-1.3,2.2h25.3v10.6H275.6a14.36,14.36,0,0,1-.2-2.4v-2a20.39,20.39,0,0,1,1.3-7.5,27.23,27.23,0,0,1,3.4-6.3,35.72,35.72,0,0,1,4.8-5.5c1.8-1.7,3.6-3.4,5.3-5.1,1.4-1.3,2.6-2.5,3.8-3.7a45.67,45.67,0,0,0,3.1-3.4,15.15,15.15,0,0,0,2.1-3.3,8.08,8.08,0,0,0,.8-3.4c0-2.5-.7-4.2-2.1-5.3a9,9,0,0,0-5.3-1.5,12.13,12.13,0,0,0-4.3.7,19.89,19.89,0,0,0-3.6,1.7,16.93,16.93,0,0,0-2.8,2c-.8.7-1.4,1.2-1.8,1.6l-6.3-8.8a32.76,32.76,0,0,1,8.7-5.7,25.63,25.63,0,0,1,10.7-2.2,29,29,0,0,1,8.9,1.2,16.86,16.86,0,0,1,6.2,3.4,13.16,13.16,0,0,1,3.6,5.3A20.8,20.8,0,0,1,313,191Z" />
      <path
        d="M378.7,206a35.87,35.87,0,0,1-2,12.2,27.44,27.44,0,0,1-5.5,9.4,26.4,26.4,0,0,1-8.6,6.1,28.91,28.91,0,0,1-11.1,2.2,27.17,27.17,0,0,1-11.1-2.2,25,25,0,0,1-8.6-6.1,28.3,28.3,0,0,1-5.6-9.4,36.72,36.72,0,0,1-2-12.2,36.29,36.29,0,0,1,2-12.2,27.66,27.66,0,0,1,5.6-9.4,24.73,24.73,0,0,1,8.6-6,27.86,27.86,0,0,1,10.9-2.1,28.37,28.37,0,0,1,11,2.1,23.84,23.84,0,0,1,8.6,6,28.3,28.3,0,0,1,5.6,9.4A31.93,31.93,0,0,1,378.7,206Zm-13.5,0c0-5.6-1.2-10.1-3.6-13.4a12.86,12.86,0,0,0-20.2,0c-2.4,3.3-3.6,7.7-3.6,13.4s1.2,10.2,3.6,13.5a12.7,12.7,0,0,0,20.2,0Q365.2,214.55,365.2,206Z" />
      <path
        d="M387.9,179.6q3.75-1,9.9-2.1a78.64,78.64,0,0,1,13.4-1,30.29,30.29,0,0,1,11.6,1.9,17.86,17.86,0,0,1,7.4,5.3,21.53,21.53,0,0,1,3.9,8.2,43.7,43.7,0,0,1,1.1,10.6v31.9H422.1V204.6a42.21,42.21,0,0,0-.6-7.7,12.31,12.31,0,0,0-2-5.2,7.68,7.68,0,0,0-3.7-2.9,16.24,16.24,0,0,0-5.7-.9,46.66,46.66,0,0,0-5.2.3c-1.8.2-3.1.4-4,.5v45.7H387.8V179.6Z" />
      <path
        d="M443.8,206.3a34.91,34.91,0,0,1,2.2-13.1,26.94,26.94,0,0,1,5.9-9.4,23.76,23.76,0,0,1,8.5-5.6,25.52,25.52,0,0,1,9.8-1.9c7.8,0,13.9,2.4,18.3,7.3s6.6,12.1,6.6,21.7a20.93,20.93,0,0,1-.1,2.4,16.59,16.59,0,0,1-.2,2.4H457.4c.4,4.6,2,8.1,4.8,10.6s7,3.7,12.4,3.7a38.76,38.76,0,0,0,8.7-.9,44.68,44.68,0,0,0,6.2-1.8l1.7,10.7a16.23,16.23,0,0,1-3,1.1,38.3,38.3,0,0,1-4.3,1.1c-1.6.3-3.4.6-5.3.8a54.41,54.41,0,0,1-5.7.3,34.37,34.37,0,0,1-13-2.2A24.08,24.08,0,0,1,445.5,218,38.88,38.88,0,0,1,443.8,206.3Zm38-5.8a17,17,0,0,0-.8-5.1,12,12,0,0,0-2.2-4.2,11,11,0,0,0-3.6-2.8,11.17,11.17,0,0,0-5-1,12.53,12.53,0,0,0-5.3,1.1,11.26,11.26,0,0,0-3.8,3,12.45,12.45,0,0,0-2.4,4.2,20.65,20.65,0,0,0-1.2,4.9h24.3Z" />
    </g>
    <g id="b962c75d-3e1d-448c-a730-c49567575200" data-name="Logo">
      <circle cx="196" cy="15.8" r="15.8" />
      <circle cx="196" cy="66.7" r="15.8" />
      <circle cx="196" cy="117.5" r="15.8" />
      <circle cx="247.4" cy="117.5" r="15.8" />
      <circle cx="298.9" cy="117.5" r="15.8" />
      <circle cx="247.4" cy="66.7" r="15.8" />
      <circle cx="298.9" cy="66.7" r="15.8" />
    </g>
  </g>
</svg>