<svg id="e3497601-72a7-4c91-b45b-bbf6b70ded5e" xmlns="http://www.w3.org/2000/svg" viewBox="0 0 560.42 159">
  <path
    d="M158.91,79.5A79.46,79.46,0,1,0,42.19,149.81V116.27H52.74V154.4a105.76,105.76,0,0,0,10.55,3.07V95.16H73.84v63.67c1.87.17,3.74.17,5.62.17,1.7,0,3.4,0,5.1-.17v-85H95.11v83.59a73.48,73.48,0,0,0,10.55-2.9V52.6h10.55V150A79.92,79.92,0,0,0,158.91,79.5Z" />
  <path
    d="M226.35,72.85c-1.19-.5-2.2-1-3.39-1.51-6.61-3.2-11.53-5.38-11.53-9.09s4.07-6.73,9.16-6.73c8.47,0,15.59,4.88,15.59,4.88l.85.51,5.76-8.58-.68-.51c-.17,0-9-7.06-19.83-7.06-11,0-22.2,5.55-22.2,17.66,0,9.59,8.47,14.14,20.34,19.52,8,3.53,12.2,6.39,12.2,10.77,0,4.71-4.91,7.91-11.86,7.91-9.16,0-17.29-6.23-17.46-6.23l-.85-.67-5.25,9.92.67.51c.17,0,10,7.4,23.39,7.4,14.58,0,22.38-9.93,22.38-19.18C243.47,81.94,236.35,77.73,226.35,72.85Z" />
  <path
    d="M286.69,44.92c-9.83,0-18.14,3.54-24.58,10.77a32.63,32.63,0,0,0-8.81,22.89,33.13,33.13,0,0,0,9.32,23.21c6.27,6.57,14.41,9.93,24.07,9.93s17.8-3.36,24.07-9.93a32.69,32.69,0,0,0,9.32-23.21,33.41,33.41,0,0,0-8.81-22.89C304.83,48.46,296.52,44.92,286.69,44.92Zm19,45.1a20.34,20.34,0,0,1-8,8.07,22.66,22.66,0,0,1-22,0,20.34,20.34,0,0,1-8-8.07,21.91,21.91,0,0,1-2.89-11.28,22.27,22.27,0,0,1,6.45-16,21.4,21.4,0,0,1,30.84,0,21.59,21.59,0,0,1,6.44,16A24.21,24.21,0,0,1,305.67,90Z" />
  <path d="M343.13,27.26H331.77V110h11.36Z" />
  <path d="M382.62,89.68,365.84,46.1h-12l22.54,57.38L364,131.74h12l37.8-85.64h-12.2Z" />
  <path
    d="M552.46,90.86s-8.31,9.93-22,9.93c-13.9,0-23.56-8.75-23.56-21.54,0-13.46,10.17-23.39,23.56-23.39a28.41,28.41,0,0,1,22,10.1l7.62-7.58a39.92,39.92,0,0,0-29.66-13.46c-23,0-34.74,18.18-34.74,34.33,0,18.17,15.08,32.47,35.42,32.47A39.54,39.54,0,0,0,560.42,98.6Z" />
  <path
    d="M452.62,101.29c-8.3,0-9.83-4.21-9.83-15V55.52h15.77V46.1H442.79V27.26H431.61V46.1H423v9.42h8.65V91.87c0,11.61,5.76,19.85,19.66,19.85a36.12,36.12,0,0,0,7.29-.84V100.45A21,21,0,0,1,452.62,101.29Z" />
  <path d="M483.3,45.93H472v63.94H483.3Z" />
  <path d="M483.3,27.26H472V38.53H483.3Z" />
</svg>
