<svg id="b0116a8b-7542-455a-b517-8d7667a1e404" data-name="Layer 1" xmlns="http://www.w3.org/2000/svg" viewBox="0 0 457 96.72"><path d="M41.12,28.48c-.49-3.1-1.23-8.92-8.43-8.92-4.08,0-8.06,2.85-8.06,7.18,0,5.45,2.48,6.56,18.94,14C60.67,48.43,65,56.34,65,67c0,13.37-7.69,28.11-31.94,28.11C6.56,95.1,0,77.76,0,66V63H23.29c0,10.66,6.56,12.51,9.53,12.51a8.84,8.84,0,0,0,8.92-8.79c0-6.07-3.83-7.56-18-13.49C17.34,50.64,1.35,44.2,1.35,27S18.06,0,33.44,0c9,0,18.82,3.34,24.77,10.39,5.45,6.68,5.82,12.87,6.07,18.08H41.12Z" transform="translate(0.5 0.5)" stroke="#fff" stroke-miterlimit="10"/><path d="M111.26,22.41c25,0,37,19.68,37,36.53s-12,36.53-37,36.53-37-19.68-37-36.53S86.25,22.41,111.26,22.41Zm0,53.87c8.92,0,16.46-7.3,16.46-17.34S120.16,41.6,111.26,41.6,94.78,48.9,94.78,58.94,102.34,76.28,111.26,76.28Z" transform="translate(0.5 0.5)" stroke="#fff" stroke-miterlimit="10"/><path d="M159.76,24.64H179v7.3h.25c2.11-3.34,6.44-9.66,18.7-9.66,6.56,0,13.88,2.73,17.59,5.95s7.93,8.67,7.93,22.16v43H202.86V55.84c0-4.84,0-14.25-10.76-14.25-11.77,0-11.77,10.15-11.77,14.37V93.35H159.77V24.64Z" transform="translate(0.5 0.5)" stroke="#fff" stroke-miterlimit="10"/><path d="M259.73,93.38H239.17V24.64h20.56Z" transform="translate(0.5 0.5)" stroke="#fff" stroke-miterlimit="10"/><path d="M275.84,1.72H296.4V49.53h.25l19.07-24.89h24.4L314.25,54.86l25.13,38.52H316.09L296.66,60.31h-.25V93.38H275.85V1.72Z" transform="translate(0.5 0.5)" stroke="#fff" stroke-miterlimit="10"/><path d="M417.87,93.38H397.31V85.94h-.25c-3.46,6.68-12,9.78-20.07,9.78-21.79,0-34.54-17.1-34.54-36.78,0-22.53,16.22-36.66,34.54-36.66,11.28,0,17.59,5.45,20.07,9.66h.25v-7.3h20.56ZM380.11,76.53c12.87,0,17.22-10.91,17.22-17.59,0-8.3-5.7-17.47-17.34-17.47s-17,9.9-17,17.71C363,65.62,367.72,76.53,380.11,76.53Z" transform="translate(0.5 0.5)" stroke="#fff" stroke-miterlimit="10"/><path d="M456,93.38H434.58v-21H456Z" transform="translate(0.5 0.5)" stroke="#fff" stroke-miterlimit="10"/></svg>