<svg xmlns="http://www.w3.org/2000/svg" viewBox="0 -25 434.5 171.4">
  <path d="M245.3 98.4V1.2s-35.9 58.7-36.8 60.2h-8.2v6.7h12s21.6-35.4 26.4-43.1v101s43.9-87.5 49.1-98.1v40.3H300l3.1-6.6h-8.6V.7l-49.2 97.7z"/>
  <path d="M23.9 23.7c-2.4-1-5.1-1.5-7.7-1.5-5.3 0-10.6 3.3-10.6 9.2 0 8.9 11 7.8 11 14.3 0 2.7-2.1 5.7-7 5.7-2.3 0-4.9-.8-6.8-2l-1.5 4.2c2.6 1 5.3 1.8 9 1.8 7.7 0 11.1-5.5 11.1-10.3 0-8.4-11-8.5-11-13.9 0-3.8 3.3-5 6.4-5 2.4 0 4.3.6 5.9 1.6l1.2-4.1z"/>
  <path d="M23.5 64.6h4.3l2.8-13.2h.1c1.1 2.7 3.5 4.1 7.7 4.1 7.8 0 11.8-7.1 11.8-15.7 0-5.1-3.1-8.9-8.4-8.9-3.3 0-6.6 1.2-8.3 4.1h-.1l.8-3.6h-4.1c-.3 2.6-.8 5.2-1.2 7.8l-5.4 25.4zM32 45.8c0-5.8 3.4-11.4 8.4-11.4 3 0 5.3 1.8 5.3 5.8 0 5.9-2.9 11.8-7.8 11.8-4.1-.1-5.9-3-5.9-6.2"/>
  <path d="M60.5 40.9c.9-3.5 3.6-6.5 7.2-6.5 3.3 0 5 2 5 4.7 0 .6 0 1.1-.1 1.8H60.5zm13.3 9.6c-2.1.9-4.5 1.4-6.6 1.4-4.2 0-7.2-1.4-7.2-6.4 0-.5 0-1 .1-1.5h16.5c.2-1.4.4-2.7.4-4.3 0-5.6-3.2-9-8.8-9-8.3 0-12.9 7.5-12.9 14 0 8.3 5.1 10.6 10.8 10.6 2.3 0 4.7-.4 7-1l.7-3.8z"/>
  <path d="M100.5 31.8c-1.7-.6-3.6-.9-6.1-.9-8.2 0-12.8 6.8-12.8 14.8 0 6.5 4.2 9.8 10.4 9.8 1.5 0 3.1-.1 4.5-.6l.8-4c-1.4.6-3.3 1.1-4.7 1.1-4.1 0-6.4-2.6-6.4-7 0-5.7 3.5-10.6 9-10.6 1.2 0 2.7.3 4.2 1.2l1.1-3.8z"/>
  <path d="M103.3 34.9h5.2l-2 9.8c-.3 1.3-.8 4-.8 5.5 0 2.5 1.5 5.2 5.6 5.2 1.2 0 3.3-.1 4.2-.5l.6-3.6c-.8.4-2.1.6-3 .6-2.2 0-3.1-.9-3.1-2.5 0-.8.5-3.4.7-4.4l2.2-10.1h6.5l.7-3.5h-6.5l1.5-7.1-4.7 1.6-1.2 5.4H104l-.7 3.6z"/>
  <path d="M120.8 54.9h4.3l2.4-11.6c.6-2.9 3.2-8.7 8.6-8.7.3 0 1 .1 1.8.5l1-3.8c-.8-.3-1.6-.4-2-.4-4.1 0-6.6 2.1-8 4.3h-.1l.7-3.7h-4.1c-.2 1.4-.5 2.6-.6 3.6l-4 19.8z"/>
  <path d="M164.7 31.4h-4.3l-2.5 11.8c-.6 2.9-3.2 8.7-8.6 8.7-2.7 0-4.3-1.8-4.3-4.3 0-.5.1-1.4.2-2.2l2.9-14.1h-4.3l-2.6 12.4c-.3 1.3-.6 2.9-.6 4.3 0 5 3.3 7.4 7.8 7.4 4.1 0 6.6-2.1 8-4.3h.1l-.7 3.7h4.1c.2-1.4.5-2.6.6-3.6l4.2-19.8z"/>
  <path d="M168.3 54.9h4.3l2.6-11.8c.8-3.6 3.2-8.8 7.6-8.8 2.2 0 3.5 1.5 3.5 3.5 0 .5-.1 1.3-.3 2.2l-3.1 14.9h4.3l2.6-11.8c.8-3.6 3.2-8.8 7.6-8.8 2.2 0 3.5 1.5 3.5 3.5 0 .5-.1 1.3-.3 2.2l-3.1 14.9h4.3l2.7-13c.4-1.7.7-3.5.7-4.9 0-3.6-2.7-6.1-6.5-6.1-3.6 0-6 1.4-8.3 4.1-.8-2.8-3.5-4.1-6.2-4.1-3.1 0-5.8 1.3-7.5 3.8h-.1l.6-3.2H173c-.2 1-.3 1.8-.5 2.7l-4.2 20.7z"/>
  <path d="M310.1 40.9c.9-3.5 3.6-6.5 7.2-6.5 3.3 0 5 2 5 4.7 0 .6 0 1.1-.1 1.8h-12.1zm13.3 9.6c-2.1.9-4.5 1.4-6.6 1.4-4.2 0-7.2-1.4-7.2-6.4 0-.5 0-1 .1-1.5h16.5c.2-1.4.4-2.7.4-4.3 0-5.6-3.2-9-8.8-9-8.3 0-12.9 7.5-12.9 14 0 8.3 5.1 10.6 10.8 10.6 2.3 0 4.7-.4 7-1l.7-3.8z"/>
  <path d="M358.5 20.3h-4.3l-3.2 15h-.1c-1.3-3-4.4-4.4-7.6-4.4-8 0-12.2 7.4-12.2 14.7 0 5.3 3 9.9 8.7 9.9 3.5 0 6.4-1 8-4.1h.1c-.4 1.2-.6 2.5-.8 3.6h4.1c.3-2.6.8-5.2 1.3-7.8l6-26.9zm-22.7 25c0-4.4 2.7-10.9 7.8-10.9 3.8 0 5.9 2.9 5.9 6.4 0 4.4-2.5 11.2-7.9 11.2-4-.1-5.8-3-5.8-6.7"/>
  <path d="M359.8 54.9h4.3l5-23.5h-4.3l-5 23.5zm11.7-33.6h-4.9l-1 4.9h4.9l1-4.9z"/>
  <path d="M392.5 31.8c-1.8-.6-3.6-.9-6.1-.9-8.2 0-12.8 6.8-12.8 14.8 0 6.5 4.2 9.8 10.4 9.8 1.5 0 3.1-.1 4.5-.6l.8-4c-1.4.6-3.3 1.1-4.7 1.1-4.1 0-6.4-2.6-6.4-7 0-5.7 3.5-10.6 9-10.6 1.2 0 2.7.3 4.2 1.2l1.1-3.8z"/>
  <path d="M398.4 36.3c1.9-1.2 4.7-2 7.2-2 3.2 0 5.4 1.3 5.4 4.7 0 .5-.1 1.1-.2 1.5-1.1 0-2.2-.1-3.1-.1-7.9 0-13.9 1.9-13.9 8.6 0 4.4 3.5 6.5 7.5 6.5 3.1 0 6.2-1.7 7.7-4.5h.1c-.3 1.4-.6 2.8-.8 3.9h4c.6-4.1 1.6-8.5 2.4-12.9.2-1.1.4-2.6.4-3.7 0-5.6-4.6-7.5-9.3-7.5-1.7 0-4.5.5-6.5 1.2l-.9 4.3zm3.8 15.6c-2.1 0-3.9-1.1-3.9-3.2 0-4.3 4.9-5.2 8.2-5.2h3.3c-.4 4.1-3.2 8.4-7.6 8.4"/>
  <path d="M420.7 54.9h4.4l7.3-34.6h-4.3z"/>
</svg>