<svg version="1.1" xmlns="http://www.w3.org/2000/svg" viewBox="0 0 1881 1024">
<path d="M1625.943 743.359h4.435c1.521 0 2.662 0.254 3.296 0.824s0.951 1.521 0.951 2.852v4.247h3.612v-4.625c0-1.204-0.19-2.217-0.697-3.041-0.442-0.824-1.204-1.395-2.217-1.775 1.14-0.38 1.965-0.951 2.472-1.775s0.824-1.837 0.824-3.106c0-1.965-0.634-3.422-1.837-4.373s-3.106-1.395-5.766-1.395h-8.68v20.023h3.612v-7.857zM1625.943 734.172h4.373c1.649 0 2.852 0.254 3.549 0.697 0.697 0.507 1.077 1.267 1.077 2.282 0 1.14-0.38 1.901-1.14 2.408s-1.965 0.761-3.549 0.761h-4.309v-6.146z"></path>
<path d="M1615.173 748.935c1.204 2.788 3.106 4.944 5.703 6.462s5.703 2.282 9.313 2.282c3.612 0 6.714-0.761 9.25-2.282s4.499-3.676 5.766-6.462c0.507-1.14 0.887-2.282 1.14-3.486 0.19-1.204 0.316-2.662 0.316-4.247s-0.126-2.978-0.316-4.247c-0.19-1.204-0.571-2.408-1.14-3.486-1.267-2.788-3.169-5.007-5.766-6.524-2.534-1.521-5.64-2.282-9.25-2.282s-6.714 0.761-9.313 2.282c-2.598 1.521-4.499 3.676-5.703 6.462-0.507 1.14-0.951 2.282-1.14 3.549-0.254 1.267-0.38 2.662-0.38 4.183s0.126 2.915 0.38 4.119c0.254 1.33 0.634 2.534 1.14 3.676zM1616.819 737.467c0.19-1.014 0.507-2.027 0.951-2.978 1.014-2.344 2.598-4.119 4.689-5.325s4.689-1.775 7.793-1.775c3.041 0 5.577 0.571 7.667 1.775s3.676 2.978 4.689 5.325c0.442 0.951 0.761 1.965 0.951 3.041s0.316 2.282 0.316 3.676c0 1.33-0.126 2.534-0.316 3.612s-0.507 2.091-0.951 3.041c-1.077 2.344-2.662 4.119-4.689 5.325-2.091 1.204-4.625 1.837-7.667 1.837-3.106 0-5.64-0.634-7.729-1.837s-3.612-2.978-4.689-5.325c-0.442-0.951-0.761-1.965-0.951-2.978s-0.254-2.217-0.254-3.612c-0.064-1.521 0-2.724 0.19-3.802z"></path>
<path d="M1654.075 143.205c0 0 0 0 0 0-41.881-39.030-90.416-70.965-143.702-94.029-0.507-0.19-0.951-0.442-1.458-0.634-2.852-1.204-5.766-2.408-8.616-3.612-0.824-0.316-1.649-0.697-2.472-1.014-2.662-1.077-5.388-2.091-8.047-3.169-1.077-0.38-2.091-0.824-3.169-1.204-2.534-0.951-5.133-1.837-7.667-2.788-1.267-0.442-2.472-0.887-3.738-1.33-2.472-0.824-4.88-1.649-7.349-2.472-1.395-0.442-2.788-0.887-4.183-1.33-2.344-0.761-4.753-1.458-7.096-2.217-1.521-0.442-3.041-0.887-4.563-1.33-2.282-0.697-4.563-1.33-6.905-1.965-1.649-0.442-3.232-0.887-4.88-1.33-2.217-0.571-4.499-1.14-6.714-1.711-1.711-0.442-3.422-0.824-5.199-1.267-2.156-0.507-4.373-1.014-6.524-1.521-1.837-0.38-3.612-0.824-5.451-1.204-2.156-0.442-4.309-0.887-6.398-1.33-1.901-0.38-3.802-0.761-5.703-1.077-2.091-0.38-4.183-0.761-6.272-1.14-1.965-0.316-3.993-0.697-5.956-1.014-2.027-0.316-4.119-0.697-6.146-0.951-2.091-0.316-4.119-0.571-6.208-0.887-2.027-0.254-3.993-0.571-6.018-0.824-2.156-0.254-4.309-0.507-6.462-0.761-1.965-0.19-3.866-0.442-5.829-0.634-2.282-0.254-4.563-0.442-6.843-0.634-1.837-0.19-3.738-0.316-5.577-0.442-2.472-0.19-4.88-0.316-7.349-0.442-1.711-0.126-3.422-0.254-5.199-0.316-2.788-0.126-5.514-0.254-8.299-0.316-1.458-0.064-2.852-0.126-4.309-0.126-4.247-0.126-8.425-0.19-12.672-0.19-6.843 0-13.686 0.126-20.465 0.442-2.282 0.064-4.563 0.254-6.843 0.38-4.499 0.254-8.996 0.442-13.433 0.824-2.724 0.19-5.388 0.507-8.109 0.824-3.993 0.38-7.983 0.761-11.976 1.204-2.852 0.316-5.703 0.761-8.554 1.204-3.802 0.507-7.539 1.014-11.279 1.649-2.915 0.442-5.829 1.014-8.744 1.585-3.612 0.634-7.222 1.267-10.835 2.027-2.978 0.571-5.892 1.267-8.806 1.901-3.486 0.761-7.032 1.521-10.455 2.408-2.978 0.697-5.892 1.521-8.806 2.282-3.422 0.887-6.843 1.775-10.2 2.788-2.978 0.824-5.892 1.775-8.806 2.662-3.296 1.014-6.653 2.027-9.884 3.106-2.915 0.951-5.829 1.965-8.744 2.978-3.232 1.14-6.462 2.282-9.694 3.486-2.915 1.077-5.766 2.217-8.616 3.359-3.169 1.267-6.334 2.534-9.441 3.802-2.852 1.204-5.703 2.408-8.554 3.676-3.106 1.33-6.146 2.724-9.187 4.119-2.852 1.33-5.64 2.662-8.425 3.993-2.978 1.458-5.956 2.915-8.934 4.435-2.788 1.395-5.514 2.852-8.299 4.309-2.915 1.585-5.829 3.169-8.68 4.753-2.724 1.521-5.451 3.041-8.109 4.625-2.852 1.649-5.64 3.359-8.49 5.070-2.662 1.649-5.325 3.296-7.919 4.944-2.788 1.775-5.514 3.549-8.237 5.388-2.598 1.711-5.199 3.486-7.793 5.262-2.662 1.837-5.325 3.738-7.983 5.703-2.534 1.837-5.070 3.676-7.603 5.577-2.598 1.965-5.133 3.928-7.729 5.956-2.472 1.901-4.944 3.866-7.412 5.829-2.534 2.027-5.007 4.119-7.476 6.208-2.408 2.027-4.815 4.057-7.159 6.082-2.408 2.156-4.815 4.309-7.222 6.524-2.344 2.091-4.689 4.247-6.969 6.398-2.344 2.217-4.625 4.499-6.969 6.779-2.217 2.217-4.499 4.373-6.714 6.653-2.282 2.282-4.435 4.689-6.714 7.032-2.156 2.282-4.373 4.563-6.462 6.843-2.156 2.408-4.309 4.88-6.398 7.286-2.091 2.344-4.183 4.689-6.208 7.096-2.091 2.534-4.183 5.070-6.208 7.667-1.965 2.408-3.928 4.753-5.829 7.222-2.282 2.915-4.435 5.892-6.653 8.87-3.359 4.499-6.653 9.123-9.884 13.751-1.901 2.724-3.802 5.451-5.703 8.173-1.775 2.662-3.422 5.388-5.133 8.047-1.711 2.724-3.486 5.388-5.199 8.109-1.649 2.724-3.296 5.514-4.88 8.299-1.649 2.788-3.296 5.514-4.815 8.299-1.585 2.788-3.106 5.703-4.625 8.49s-3.041 5.64-4.499 8.49c-1.458 2.852-2.852 5.766-4.309 8.68-1.395 2.852-2.852 5.766-4.183 8.68-1.395 2.915-2.662 5.892-3.928 8.87-1.33 2.978-2.598 5.892-3.866 8.87s-2.408 6.018-3.612 8.996c-0.887 2.156-1.775 4.309-2.598 6.462h75.778c68.176-150.481 219.799-255.47 395.497-255.47 124.061 0 236.084 52.335 315.284 136.035 5.64-14.257 11.152-28.258 16.602-42.135 88.515 86.423 143.576 206.937 143.576 340.057 0 248.311-191.413 452.776-434.402 473.622-8.806 0.571-161.126 9.060-287.721-82.243-152.508-110.058-173.671-246.855-176.523-278.789l727.127-0.254c22.873-2.344 43.402-65.198 53.983-92.381l64.691-166.194h-65.832c-8.237-0.316-12.356 2.915-15.968 12.482-10.835 28.955-38.4 96.688-49.551 125.455-5.514 14.193-13.813 21.733-26.169 20.655-10.2-0.887-12.672-6.334-7.919-18.564 4.625-11.911 55.123-140.026 55.123-140.026h-106.318l24.584 15.525c-16.35 40.424-44.671 110.501-58.864 147.759-4.373 11.595-1.775 19.704 9.378 19.768h91.556c-9.123 27.627-6.969 49.677-26.991 50.244l-788.398-0.316 54.933 40.298c56.392 216.63 253.633 377.059 487.687 377.059 4.247 0 8.425-0.064 12.608-0.19 3.738-0.064 7.476-0.254 11.215-0.442 0.38 0 0.761 0 1.14-0.064 266.306-13.116 478.882-233.802 478.882-503.275 0.126-145.539-61.84-276.759-160.744-368.824z"></path>
<path d="M471.383 480.351c5.388-6.588 10.139-15.017 14.257-25.090l16.032-39.79c2.534-6.334 4.183-11.721 5.007-16.094 1.267-6.779 1.14-12.292-0.316-16.602s-3.549-7.729-6.334-10.139c-2.788-2.408-6.082-4.119-9.82-5.133-3.738-0.951-7.286-1.775-10.517-1.837h-132.805l-80.912 202.058h65.388l24.584-61.017 63.296 0.254c5.325 0 11.024-0.824 17.106-2.472 6.146-1.649 12.166-4.435 18.057-8.299 5.956-3.928 11.595-9.187 16.98-15.842zM439.385 406.659c-0.507 2.724-1.521 6.018-3.106 9.82l-15.46 38.208c-2.852 7.159-5.829 11.849-8.87 14.067s-6.779 3.296-11.279 3.296l-31.046-0.126 29.271-72.99 32.821 0.126c3.232 0 5.451 0.571 6.653 1.585 1.267 1.077 1.521 3.106 1.014 6.018z"></path>
<path d="M538.988 524.894c0.316-1.711 0.951-3.676 1.901-6.018l15.334-38.841h54.109l13.686-34.089h-54.109l12.23-30.349c1.901-4.815 4.309-8.744 7.286-11.659s6.334-4.435 10.327-4.373l52.525 0.19 13.369-34.025h-97.13c-12.292-0.064-22.873 3.993-31.68 12.482s-15.904 19.198-21.162 32.060l-44.987 112.466c-2.534 6.334-4.247 11.785-5.070 16.476-1.585 8.616-0.761 15.525 2.472 20.719s9.758 7.793 19.451 7.857h97.13l13.623-33.392-49.74-0.19c-7.476-0.126-10.707-3.232-9.568-9.313z"></path>
<path d="M683.642 524.894c0.316-1.711 0.951-3.676 1.901-6.018l15.334-38.841h54.109l13.686-34.089h-54.109l12.23-30.349c1.901-4.815 4.309-8.744 7.286-11.659 2.915-2.915 6.334-4.435 10.327-4.373l52.525 0.19 13.369-34.025h-97.13c-12.292-0.064-22.873 3.993-31.68 12.482s-15.904 19.198-21.099 32.060l-44.987 112.466c-2.534 6.334-4.247 11.785-5.070 16.476-1.585 8.616-0.761 15.525 2.472 20.719s9.758 7.793 19.451 7.857h97.13l13.623-33.392-49.74-0.19c-7.539-0.126-10.707-3.232-9.631-9.313z"></path>
<path d="M925.743 556.381c8.744-7.983 15.904-18.944 21.542-32.821l44.987-112.466c2.472-6.082 4.183-11.469 5.007-16.094 1.649-8.87 0.761-15.904-2.662-21.036-3.422-5.199-9.82-8.173-19.198-8.237h-148.137l-80.912 202.058h148.137c12.040-0.064 22.492-3.422 31.236-11.405zM874.675 531.163c-3.106 2.282-7.096 3.422-12.040 3.422l-36.369-0.126 54.3-135.213 38.967 0.126c2.724 0 4.625 0.951 5.766 2.852 1.077 1.901 1.395 4.435 0.761 7.603-0.19 1.077-0.634 2.662-1.395 4.753l-42.071 104.925c-2.217 5.451-4.815 9.378-7.919 11.659z"></path>
<path d="M263.939 453.737c-23.887-0.064-47.838 0-71.727-0.064-8.744 0-11.469-5.64-7.729-15.778 3.486-9.504 7.159-18.88 10.835-28.322 6.714-17.043 18.88-24.393 32.821-19.451 3.993 1.395 5.451 5.64 4.563 10.835-0.507 2.915-1.585 5.829-2.598 8.616-2.091 5.829-4.247 12.356-6.588 18.564l73.561-0.126c1.649 0 4.309-2.344 5.133-4.309 3.928-9.313 7.539-18.754 10.835-28.322 6.334-18.564 0.887-29.715-14.954-29.779-19.135-0.064-204.844 0.064-204.844 0.064l34.532 18.628c-5.703 13.941-15.144 37.701-19.578 49.551-2.662 7.222-5.577 14.573-7.096 22.050-2.534 12.482 3.106 21.226 13.243 22.24 2.408 0.254 4.88 0.316 7.286 0.316 21.986 0 43.973 0 65.958 0.064 11.087 0 13.751 5.325 9.060 17.931-3.041 8.237-6.208 16.476-9.378 24.712-6.843 17.487-15.080 23.38-30.033 21.542-7.983-0.951-10.327-6.146-6.969-15.652 2.598-7.222 5.325-15.080 8.173-22.747h-73.181c-3.169 0-4.88 2.534-5.703 4.499-3.866 9.313-7.476 18.754-10.835 28.258-6.462 18.31-0.442 30.604 15.397 30.604h136.163c15.27-0.064 28.068-9.631 35.735-25.978 9.060-19.261 16.41-39.663 23.38-60.003 5.514-16.224-1.521-27.942-15.46-27.942z"></path>
<path d="M952.355 567.659h246.917c17.359 0 31.362-11.976 39.79-33.392 20.023-51.005 62.472-162.837 64.247-168.604h-60.32c-8.299-0.38-12.292 3.802-15.904 13.243-17.741 46.19-35.99 92.191-54.173 138.19-9.631 24.458-14.89 27.879-36.814 23.634 22.492-57.659 45.367-116.329 68.303-175.129h-72.231c-1.965 4.753-42.325 107.333-60.51 153.333-8.68 21.986-17.359 26.929-35.735 20.149 22.366-57.279 44.732-114.81 67.669-173.481h-99.476l22.050 11.785c-0.064 0.126-38.334 98.589-57.533 147.631l-16.284 42.641z"></path>
<path d="M1433.072 567.659c3.296-0.126 8.87-3.993 10.455-7.919 21.036-52.272 42.895-106.508 63.234-159.1 9.187-23.887 3.612-34.848-16.854-35.039h-123.808c-22.811-0.064-35.99 9.694-46.253 36.053-16.476 42.071-59.812 152.192-65.136 166.004h69.318c3.232-0.126 8.425-4.815 10.265-8.87 6.334-14.003 11.721-28.448 17.106-42.957 2.788-7.476 6.272-10.835 12.989-10.074h24.077l-24.205 61.902h68.811zM1365.469 480.031c10.391-26.106 19.325-49.232 28.764-72.105 5.577-13.433 15.080-16.854 25.535-15.525 7.729 1.014 10.771 6.588 7.096 16.224-8.109 21.289-16.35 42.515-25.219 63.487-1.521 3.549-6.588 7.476-9.948 7.919h-26.233z"></path>
<path d="M1122.605 690.199c-0.064 0.38-0.254 0.887-0.571 1.521l-25.219 64.438 35.355 0.064 21.036-53.541c1.458-3.612 2.534-6.843 3.296-9.631s1.33-5.325 1.649-7.603c0.571-3.738 0.571-6.714 0-8.996s-1.585-3.928-2.978-5.133c-1.395-1.204-3.169-2.027-5.262-2.472-2.156-0.442-4.373-0.634-6.779-0.634l-154.347-0.126 22.366 11.911c0 0 0 0 0 0l-29.779 76.097 35.419 0.064 25.219-64.438c1.775-4.247 4.183-6.398 7.222-6.334h12.798c2.408 0 3.422 1.267 3.041 3.738l-0.19 1.14c-0.064 0.38-0.254 0.887-0.571 1.521l-25.219 64.438 35.419 0.064 25.219-64.438c1.775-4.247 4.183-6.398 7.222-6.398h12.798c2.408 0 3.422 1.267 3.041 3.738l-0.19 1.014z"></path>
<path d="M1161.699 756.158l60.32 0.064c4.373 0 8.173-0.507 11.469-1.585s6.208-2.662 8.744-4.88c2.534-2.156 4.815-4.944 6.779-8.237 2.027-3.296 3.928-7.286 5.703-11.911l13.686-34.848c2.027-5.133 3.232-9.25 3.738-12.356 0.761-4.88-0.064-8.49-2.408-10.771-2.344-2.344-6.779-3.486-13.243-3.486l-60.32-0.064c-4.373 0-8.173 0.507-11.469 1.585s-6.208 2.662-8.744 4.88c-2.534 2.156-4.815 4.944-6.779 8.237s-3.928 7.286-5.703 11.911l-13.686 34.848c-2.027 5.133-3.232 9.25-3.738 12.356-0.761 4.88 0.064 8.49 2.408 10.771 2.408 2.344 6.779 3.486 13.243 3.486zM1187.679 731.826l15.334-39.345c0.951-2.472 2.027-4.309 3.232-5.451s2.915-1.711 5.070-1.711h16.094c3.169 0 4.563 1.267 4.183 3.738-0.126 1.014-0.507 2.156-1.014 3.359l-15.334 39.345c-0.951 2.472-2.027 4.309-3.296 5.451s-3.041 1.649-5.325 1.649h-16.032c-2.915 0-4.247-1.267-3.802-3.738 0-0.761 0.316-1.901 0.887-3.296z"></path>
<path d="M1301.535 731.952l18.122-46.443h24.267l6.843-17.233h-24.267l7.412-19.070-38.652-0.064-31.236 79.581c-1.649 4.119-2.724 7.729-3.169 10.835-0.507 3.232-0.442 5.956 0.126 8.173 0.571 2.156 1.585 3.928 3.041 5.133 1.458 1.267 3.232 2.156 5.325 2.598 2.091 0.507 4.435 0.761 6.905 0.761l42.135 0.064 6.779-17.233h-18.69c-2.534 0-4.247-0.19-5.133-0.697-0.887-0.442-1.267-1.33-1.077-2.724 0.064-0.507 0.254-1.077 0.442-1.711 0.19-0.507 0.442-1.204 0.824-1.965z"></path>
<path d="M1347.537 756.348l60.32 0.064c4.373 0 8.173-0.507 11.469-1.585s6.208-2.662 8.68-4.88c2.534-2.156 4.815-4.944 6.779-8.237 2.027-3.296 3.928-7.286 5.703-11.911l13.686-34.848c2.027-5.133 3.232-9.25 3.738-12.356 0.761-4.88-0.064-8.49-2.408-10.771-2.344-2.344-6.779-3.486-13.243-3.486l-60.32-0.064c-4.373 0-8.173 0.507-11.469 1.585s-6.208 2.662-8.744 4.88c-2.534 2.217-4.815 4.944-6.779 8.237s-3.928 7.286-5.703 11.911l-13.686 34.848c-2.027 5.133-3.232 9.25-3.738 12.356-0.761 4.88 0.064 8.49 2.408 10.771 2.408 2.344 6.843 3.486 13.306 3.486zM1373.451 732.017l15.334-39.345c0.951-2.472 2.027-4.309 3.232-5.451s2.915-1.711 5.133-1.711h16.094c3.169 0 4.563 1.267 4.183 3.738-0.126 1.014-0.507 2.156-1.014 3.359l-15.334 39.345c-0.951 2.534-2.027 4.309-3.296 5.451s-3.041 1.711-5.325 1.711h-16.094c-2.915 0-4.247-1.267-3.802-3.738 0-0.824 0.38-1.965 0.887-3.359z"></path>
<path d="M1505.938 692.987c1.077-2.724 2.282-4.625 3.612-5.703s3.169-1.585 5.577-1.585h20.149l6.779-17.233-42.451-0.064c-9.187 0-16.917 2.852-23.127 8.616-6.272 5.766-11.279 13.56-15.144 23.38l-21.923 56.010 41.627 0.064 24.902-63.487z"></path>
<path d="M1585.709 687.665c1.204-1.267 3.486-1.837 6.779-1.837h17.043l6.779-17.233-52.082-0.064c-3.486 0-6.779 0.507-9.82 1.521s-6.146 3.296-9.378 6.905c-3.866 4.373-6.208 9.25-7.032 14.573-0.507 3.359-0.442 6.398 0.254 8.996l7.032 28.132c0.254 1.014 0.38 2.027 0.19 2.978-0.254 1.775-1.14 3.486-2.662 5.133-1.521 1.711-3.676 2.534-6.524 2.534h-17.55l-6.779 17.233 54.871 0.064c3.486 0 6.714-0.634 9.694-1.837s5.892-3.676 8.744-7.286c1.901-2.344 3.296-4.625 4.057-6.714 0.824-2.091 1.395-4.183 1.711-6.208s0.38-3.866 0.316-5.514c-0.126-1.711-0.507-3.738-1.077-6.082l-6.524-27.182c-0.126-0.38-0.254-0.887-0.316-1.585s0-1.33 0.064-1.965c0.254-1.837 0.951-3.296 2.217-4.563z"></path>
</svg>
