<svg xmlns="http://www.w3.org/2000/svg" viewBox="0 0 1748.66 1008.01">
  <path
    d="M1559.77,735.37h4.44a5.06,5.06,0,0,1,3.3.82,3.69,3.69,0,0,1,1,2.85v4.25h3.61v-4.63a5.68,5.68,0,0,0-.7-3,3.93,3.93,0,0,0-2.22-1.77,4.36,4.36,0,0,0,2.48-1.78,5.84,5.84,0,0,0,.82-3.1,5.24,5.24,0,0,0-1.84-4.38c-1.2-1-3.1-1.39-5.76-1.39h-8.68v20h3.61v-7.86Zm0-9.19h4.38a6.89,6.89,0,0,1,3.55.7,3,3,0,0,1-.07,4.69,6.62,6.62,0,0,1-3.55.76h-4.3v-6.15Z" />
  <path
    d="M1549,740.94a13.52,13.52,0,0,0,5.71,6.46,18.1,18.1,0,0,0,9.31,2.28,17.75,17.75,0,0,0,9.25-2.28,14.28,14.28,0,0,0,5.77-6.46,18,18,0,0,0,1.14-3.49,27.66,27.66,0,0,0,.31-4.24,28.41,28.41,0,0,0-.31-4.25,11.35,11.35,0,0,0-1.14-3.49,14.14,14.14,0,0,0-5.77-6.52,17.72,17.72,0,0,0-9.25-2.28,18.12,18.12,0,0,0-9.31,2.28,13.56,13.56,0,0,0-5.71,6.46,13.9,13.9,0,0,0-1.14,3.55,21.64,21.64,0,0,0-.38,4.18,20.42,20.42,0,0,0,.38,4.12,17.38,17.38,0,0,0,1.14,3.68Zm1.65-11.47a12.92,12.92,0,0,1,.95-3,11.11,11.11,0,0,1,4.69-5.32,15.35,15.35,0,0,1,7.79-1.78,15.14,15.14,0,0,1,7.67,1.78,11,11,0,0,1,4.69,5.32,12.45,12.45,0,0,1,1,3,20.86,20.86,0,0,1,0,7.28,12.45,12.45,0,0,1-1,3,11.75,11.75,0,0,1-4.69,5.32,17,17,0,0,1-15.4,0,11.35,11.35,0,0,1-4.68-5.32,12.48,12.48,0,0,1-1-3,20.27,20.27,0,0,1-.25-3.62,17.69,17.69,0,0,1,.19-3.8Z" />
  <path
    d="M1587.91,135.21h0a505.21,505.21,0,0,0-143.71-94c-.5-.19-1-.44-1.45-.63-2.86-1.21-5.77-2.41-8.62-3.61-.82-.32-1.65-.7-2.47-1-2.66-1.07-5.39-2.09-8.05-3.17-1.08-.38-2.09-.82-3.17-1.2-2.53-.95-5.13-1.84-7.66-2.79-1.27-.44-2.48-.89-3.74-1.33-2.47-.82-4.88-1.65-7.35-2.47l-4.18-1.33c-2.35-.76-4.76-1.46-7.1-2.22l-4.56-1.33c-2.29-.69-4.57-1.33-6.91-2l-4.88-1.33-6.71-1.71c-1.71-.45-3.42-.83-5.2-1.27l-6.53-1.52c-1.83-.38-3.61-.83-5.45-1.21-2.15-.44-4.31-.88-6.39-1.33-1.91-.38-3.81-.76-5.71-1.07l-6.27-1.14c-2-.32-4-.7-6-1s-4.11-.69-6.14-.95-4.12-.57-6.21-.88-4-.58-6-.83L1301,3.1c-2-.19-3.87-.44-5.83-.63-2.28-.26-4.56-.45-6.84-.64-1.84-.19-3.74-.31-5.58-.44-2.47-.19-4.88-.32-7.35-.44-1.71-.13-3.42-.26-5.2-.32-2.78-.12-5.51-.25-8.3-.31-1.45-.07-2.85-.13-4.3-.13-4.25-.13-8.43-.19-12.68-.19-6.84,0-13.68.13-20.46.44-2.28.07-4.56.26-6.84.38-4.5.26-9,.44-13.44.83-2.72.19-5.39.5-8.11.82-4,.38-8,.76-12,1.2-2.85.32-5.71.77-8.56,1.21-3.8.51-7.54,1-11.28,1.65-2.91.44-5.82,1-8.74,1.58-3.61.64-7.22,1.27-10.83,2-3,.57-5.9,1.27-8.81,1.9-3.49.76-7,1.52-10.46,2.41-3,.7-5.89,1.52-8.8,2.28-3.42.89-6.84,1.78-10.2,2.79-3,.82-5.89,1.77-8.81,2.66-3.29,1-6.65,2-9.88,3.11-2.92.95-5.83,2-8.75,3-3.23,1.14-6.46,2.29-9.69,3.49-2.91,1.08-5.77,2.22-8.62,3.36-3.16,1.27-6.33,2.53-9.44,3.8-2.85,1.21-5.7,2.41-8.55,3.68-3.11,1.33-6.15,2.72-9.19,4.12-2.85,1.33-5.64,2.66-8.42,4-3,1.46-6,2.91-8.94,4.43-2.78,1.4-5.51,2.86-8.3,4.31s-5.82,3.17-8.68,4.76-5.45,3-8.1,4.62c-2.86,1.65-5.64,3.36-8.49,5.07-2.67,1.65-5.33,3.3-7.92,5-2.79,1.77-5.52,3.54-8.24,5.38s-5.2,3.49-7.79,5.27-5.33,3.73-8,5.7-5.07,3.67-7.6,5.58-5.13,3.92-7.73,6-4.94,3.87-7.41,5.83-5,4.12-7.48,6.21-4.81,4.06-7.16,6.08-4.81,4.31-7.22,6.52-4.69,4.25-7,6.4-4.62,4.5-7,6.78-4.49,4.37-6.71,6.65-4.43,4.69-6.71,7-4.38,4.56-6.47,6.84-4.3,4.88-6.39,7.29-4.19,4.68-6.21,7.09-4.18,5.07-6.21,7.67c-2,2.41-3.93,4.75-5.83,7.22-2.28,2.91-4.43,5.89-6.65,8.87-3.36,4.5-6.65,9.12-9.89,13.75l-5.7,8.17c-1.77,2.67-3.42,5.39-5.13,8.05s-3.49,5.39-5.2,8.11-3.3,5.51-4.88,8.3-3.3,5.51-4.82,8.3-3.1,5.7-4.62,8.49-3,5.64-4.5,8.49-2.85,5.76-4.31,8.68-2.85,5.76-4.18,8.68-2.66,5.89-3.93,8.87-2.6,5.89-3.87,8.87-2.4,6-3.61,9c-.88,2.16-1.77,4.31-2.6,6.47h75.78C917.63,174.94,1069.25,70,1245,70,1369,70,1481,122.29,1560.23,206c5.64-14.26,11.16-28.26,16.61-42.13,88.51,86.42,143.57,206.93,143.57,340.05,0,248.31-191.41,452.78-434.4,473.62-8.81.58-161.13,9.06-287.72-82.24C845.78,785.23,824.62,648.44,821.77,616.5l727.12-.25c22.88-2.35,43.4-65.2,54-92.38l64.69-166.2h-65.84c-8.23-.31-12.35,2.92-16,12.49-10.84,28.95-38.4,96.68-49.55,125.45-5.52,14.19-13.82,21.73-26.17,20.66-10.2-.89-12.68-6.34-7.92-18.57,4.62-11.91,55.12-140,55.12-140H1450.93l24.59,15.52c-16.35,40.43-44.67,110.5-58.87,147.76-4.37,11.59-1.77,19.7,9.38,19.77h91.56c-9.13,27.62-7,49.67-27,50.24l-788.4-.31L757.13,631C813.52,847.58,1010.76,1008,1244.82,1008c4.24,0,8.42-.06,12.61-.19,3.73-.06,7.47-.25,11.21-.44a7.26,7.26,0,0,0,1.14-.06C1536.09,994.2,1748.66,773.51,1748.66,504c.13-145.54-61.84-276.76-160.74-368.82Z" />
  <path
    d="M405.21,472.36c5.39-6.59,10.14-15,14.26-25.09l16-39.79a88.61,88.61,0,0,0,5-16.1c1.27-6.78,1.14-12.29-.32-16.6a22.56,22.56,0,0,0-6.33-10.14,24.66,24.66,0,0,0-9.82-5.13,48.24,48.24,0,0,0-10.52-1.84H280.72L199.81,559.73h65.38l24.59-61,63.29.26a65.88,65.88,0,0,0,17.11-2.47,62.57,62.57,0,0,0,18.06-8.3,75.92,75.92,0,0,0,17-15.85Zm-32-73.7a50,50,0,0,1-3.11,9.83l-15.46,38.2c-2.85,7.16-5.83,11.85-8.87,14.07a18.56,18.56,0,0,1-11.28,3.3l-31-.13,29.27-73,32.82.13c3.23,0,5.45.57,6.65,1.58s1.52,3.11,1,6Z" />
  <path
    d="M472.82,516.9a32.1,32.1,0,0,1,1.9-6L490.05,472h54.11L557.85,438H503.74L516,407.6a33.13,33.13,0,0,1,7.29-11.66,14,14,0,0,1,10.32-4.37l52.53.19,13.37-34H502.35c-12.29-.07-22.88,4-31.68,12.48s-15.91,19.2-21.16,32.06l-45,112.46a85,85,0,0,0-5.07,16.48q-2.38,12.93,2.47,20.72c3.23,5.19,9.76,7.79,19.45,7.86H518.5l13.62-33.4-49.74-.19c-7.47-.12-10.7-3.23-9.56-9.31Z" />
  <path
    d="M617.47,516.9a32.1,32.1,0,0,1,1.9-6L634.71,472h54.11L702.5,438H648.39l12.23-30.35a33.27,33.27,0,0,1,7.29-11.66,13.88,13.88,0,0,1,10.33-4.37l52.52.19,13.37-34H647c-12.29-.07-22.87,4-31.68,12.48s-15.9,19.2-21.1,32.06l-45,112.46a85,85,0,0,0-5.07,16.48q-2.38,12.93,2.47,20.72c3.23,5.19,9.76,7.79,19.45,7.86h97.13l13.62-33.4-49.74-.19c-7.54-.12-10.71-3.23-9.63-9.31Z" />
  <path
    d="M859.57,548.39q13.13-12,21.55-32.82l45-112.47a81.89,81.89,0,0,0,5-16.09c1.65-8.87.76-15.91-2.66-21s-9.82-8.17-19.2-8.24H761.11L680.2,559.79H828.34c12-.06,22.49-3.42,31.23-11.4Zm-51.06-25.22c-3.11,2.28-7.1,3.42-12,3.42l-36.37-.12,54.3-135.22,39,.13c2.73,0,4.63.95,5.77,2.85s1.4,4.44.76,7.6a30.19,30.19,0,0,1-1.39,4.76L816.43,511.51c-2.22,5.45-4.82,9.38-7.92,11.66Z" />
  <path
    d="M197.77,445.74c-23.89-.06-47.84,0-71.73-.06-8.74,0-11.47-5.64-7.73-15.78,3.49-9.5,7.16-18.88,10.84-28.32,6.71-17,18.88-24.39,32.82-19.45,4,1.39,5.45,5.64,4.56,10.83a51.45,51.45,0,0,1-2.59,8.62c-2.1,5.83-4.25,12.36-6.59,18.56l73.56-.12c1.65,0,4.31-2.35,5.13-4.31q5.9-14,10.84-28.32c6.33-18.57.88-29.72-15-29.78-19.13-.07-204.84.06-204.84.06L61.61,376.3C55.91,390.24,46.47,414,42,425.85c-2.66,7.22-5.57,14.57-7.09,22-2.54,12.48,3.1,21.23,13.24,22.24a71.11,71.11,0,0,0,7.29.32q33,0,66,.06c11.09,0,13.75,5.33,9.06,17.93-3,8.24-6.2,16.48-9.37,24.71-6.85,17.49-15.08,23.38-30,21.54-8-1-10.32-6.14-7-15.65,2.6-7.22,5.33-15.08,8.18-22.74H19.1c-3.17,0-4.88,2.53-5.71,4.49q-5.79,14-10.83,28.26C-3.9,547.37,2.12,559.67,18,559.67H154.12c15.27-.07,28.07-9.63,35.73-26,9.06-19.26,16.41-39.66,23.38-60,5.52-16.23-1.52-27.95-15.46-27.95Z" />
  <path
    d="M886.19,559.66H1133.1c17.36,0,31.37-12,39.79-33.39,20-51,62.48-162.83,64.25-168.6h-60.32c-8.3-.38-12.29,3.8-15.9,13.24-17.74,46.19-36,92.19-54.18,138.19-9.63,24.46-14.89,27.88-36.81,23.64l68.3-175.13H1066c-2,4.75-42.32,107.33-60.51,153.33-8.68,22-17.36,26.93-35.73,20.15,22.36-57.28,44.73-114.81,67.67-173.48H938l22,11.78c-.06.13-38.33,98.59-57.53,147.63l-16.29,42.64Z" />
  <path
    d="M1366.9,559.66c3.3-.12,8.87-4,10.46-7.91,21-52.28,42.89-106.51,63.23-159.1,9.19-23.89,3.61-34.85-16.85-35H1299.93c-22.81-.07-36,9.69-46.25,36.05-16.48,42.07-59.81,152.19-65.14,166h69.32c3.23-.12,8.42-4.81,10.26-8.87,6.34-14,11.73-28.44,17.11-42.95,2.79-7.48,6.27-10.84,13-10.08h24.08l-24.21,61.9ZM1299.3,472c10.39-26.11,19.33-49.23,28.76-72.11,5.58-13.43,15.08-16.85,25.54-15.52,7.73,1,10.77,6.59,7.1,16.22-8.11,21.29-16.35,42.52-25.22,63.49-1.52,3.55-6.59,7.47-10,7.92Z" />
  <path
    d="M1056.44,682.2a6.5,6.5,0,0,1-.57,1.53l-25.22,64.43,35.35.07,21-53.54a87.9,87.9,0,0,0,3.29-9.63,60.79,60.79,0,0,0,1.65-7.61,23.5,23.5,0,0,0,0-9,9.58,9.58,0,0,0-3-5.14,11.64,11.64,0,0,0-5.26-2.47,33.51,33.51,0,0,0-6.78-.63l-154.34-.13L945,672h0L915.2,748.1l35.42.06,25.22-64.43c1.78-4.25,4.18-6.4,7.22-6.34h12.8c2.41,0,3.42,1.27,3,3.74l-.19,1.14a5.55,5.55,0,0,1-.57,1.52l-25.22,64.44,35.42.06,25.22-64.43c1.78-4.25,4.18-6.4,7.22-6.4h12.8c2.41,0,3.42,1.26,3,3.74l-.19,1Z" />
  <path
    d="M1095.53,748.16l60.32.07a36.84,36.84,0,0,0,11.47-1.59,24.47,24.47,0,0,0,8.74-4.88,32.5,32.5,0,0,0,6.78-8.23,72.92,72.92,0,0,0,5.71-11.91l13.68-34.85a63.06,63.06,0,0,0,3.74-12.36c.76-4.88-.06-8.49-2.41-10.77s-6.78-3.49-13.24-3.49l-60.32-.06a37.15,37.15,0,0,0-11.47,1.58,24.78,24.78,0,0,0-8.74,4.88,32.73,32.73,0,0,0-6.78,8.24,77.75,77.75,0,0,0-5.71,11.91l-13.68,34.85a62.86,62.86,0,0,0-3.74,12.36c-.76,4.88.06,8.49,2.41,10.77S1089.07,748.16,1095.53,748.16Zm26-24.33,15.33-39.34a14.85,14.85,0,0,1,3.24-5.45,7.06,7.06,0,0,1,5.07-1.72h16.09c3.17,0,4.56,1.27,4.18,3.74a12.77,12.77,0,0,1-1,3.36l-15.33,39.35a14.18,14.18,0,0,1-3.3,5.45,7.67,7.67,0,0,1-5.33,1.65h-16c-2.91,0-4.24-1.27-3.8-3.74a9.94,9.94,0,0,1,.89-3.3Z" />
  <path
    d="M1235.37,724l18.12-46.44h24.27l6.84-17.24h-24.27l7.41-19.07-38.65-.06-31.23,79.58a48.32,48.32,0,0,0-3.17,10.83,20.41,20.41,0,0,0,.12,8.18,9.8,9.8,0,0,0,3,5.13,11.65,11.65,0,0,0,5.33,2.6,29.35,29.35,0,0,0,6.9.76l42.14.06,6.78-17.23h-18.69c-2.54,0-4.25-.19-5.14-.7s-1.26-1.33-1.07-2.72a10.8,10.8,0,0,1,.44-1.71,18.93,18.93,0,0,1,.82-2Z" />
  <path
    d="M1281.37,748.35l60.32.07a36.84,36.84,0,0,0,11.47-1.59,23.8,23.8,0,0,0,8.68-4.88,32.93,32.93,0,0,0,6.78-8.23,73.77,73.77,0,0,0,5.7-11.91L1388,687a62.9,62.9,0,0,0,3.73-12.36c.76-4.88-.06-8.49-2.4-10.77s-6.78-3.49-13.25-3.49l-60.32-.06a37.15,37.15,0,0,0-11.47,1.58,25,25,0,0,0-8.74,4.88,34.06,34.06,0,0,0-6.78,8.24,77.77,77.77,0,0,0-5.7,11.91l-13.69,34.85a62.86,62.86,0,0,0-3.74,12.36c-.76,4.88.07,8.49,2.41,10.77s6.84,3.48,13.31,3.48ZM1307.28,724l15.34-39.34a14.8,14.8,0,0,1,3.23-5.45,7.16,7.16,0,0,1,5.13-1.71h16.1c3.16,0,4.56,1.26,4.18,3.73a13.21,13.21,0,0,1-1,3.36L1334.91,724a13.61,13.61,0,0,1-3.3,5.45,7.66,7.66,0,0,1-5.32,1.71H1310.2c-2.92,0-4.25-1.27-3.81-3.74a11.5,11.5,0,0,1,.89-3.36Z" />
  <path
    d="M1439.77,685a13.88,13.88,0,0,1,3.61-5.7,8.59,8.59,0,0,1,5.58-1.59h20.15l6.78-17.23-42.45-.06c-9.19,0-16.92,2.85-23.13,8.61s-11.28,13.56-15.15,23.38l-21.92,56,41.63.07,24.9-63.49Z" />
  <path
    d="M1519.54,679.67c1.2-1.27,3.49-1.84,6.78-1.84h17l6.78-17.23-52.08-.06a30.75,30.75,0,0,0-9.82,1.52c-3,1-6.15,3.29-9.38,6.9a28.3,28.3,0,0,0-7,14.58,22.24,22.24,0,0,0,.25,9l7,28.13a6.92,6.92,0,0,1,.19,3,9.61,9.61,0,0,1-2.67,5.14c-1.52,1.71-3.67,2.53-6.52,2.53h-17.55l-6.78,17.23,54.87.07a25.73,25.73,0,0,0,9.7-1.84c3-1.2,5.89-3.68,8.74-7.29a24.25,24.25,0,0,0,4.06-6.71,29.74,29.74,0,0,0,1.71-6.21,28.3,28.3,0,0,0,.31-5.51,37.83,37.83,0,0,0-1.07-6.08l-6.53-27.19a7.05,7.05,0,0,1-.31-1.58,9.85,9.85,0,0,1,.06-2,7.59,7.59,0,0,1,2.22-4.56Z" />
</svg>
