<svg xmlns="http://www.w3.org/2000/svg" viewBox="0 0 3531.08 669.94">
  <path id="path20"
    d="M304.45,307.66H152.89V459.21H304.45Zm.46,152.28v152c-1.24.08-2.27.2-3.29.21-50.08,0-100.16.11-150.24,0A152.24,152.24,0,0,1,10.14,514.68,149.87,149.87,0,0,1,0,460.3q0-74.78,0-149.55c0-1,.1-2.07.18-3.49H152V159.6H.37V0C1.17,1.14,4.56,6.09,5,6.82,19.64,30.59,33.39,44.25,51.13,65.9c9,10.92,39.59,41.24,54.64,53.94,14,10.53,30.5,23.75,35.67,27.32,7.67,4.9,10.61,7.17,11.44,7.48,49.49,0,101.82,0,151.31.05,70,.12,130,46.22,148.16,113.87a151,151,0,0,1,4.92,39.3q0,74.06.09,148.12c0,3.46-1.21,4-4.3,4q-71.56-.13-143.13-.06Z" />
  <g id="g22">
    <path id="path24"
      d="M736.74,534.64c-70.6,0-120.34-41.72-123-95.2h63.11C679,463.5,702,483.29,735.67,483.29c35.29,0,54-15,54-35.29,0-57.76-171.14-24.61-171.14-132.64,0-47.06,43.86-85,113.38-85,66.85,0,110.71,35.83,113.92,94.66h-61c-2.14-25.67-21.93-43.32-55.09-43.32-32.62,0-49.73,13.37-49.73,33.16,0,59.36,166.32,26.2,169.53,132.63,0,49.74-43.32,87.18-112.84,87.18" />
  </g>
  <g id="g26">
    <path id="path28"
      d="M1044.25,283.27c-45.46,0-89.31,35.84-89.31,98.94,0,63.65,43.85,99.48,89.31,99.48,46,0,89.85-36.9,89.85-100.55s-43.86-97.87-89.85-97.87m13.37-52.94c77.55,0,138.52,59.9,138.52,150.81s-61,153.49-138.52,153.49A133.23,133.23,0,0,1,954.94,487v182.9H894V235.14h61v43.32c18.71-24.6,54.55-48.13,102.68-48.13" />
  </g>
  <path id="path30" d="M1235.17,134.06h61V529.82h-61Z" />
  <g id="g32">
    <path id="path34"
      d="M1486.53,283.27c-45.46,0-89.31,34.23-89.31,97.87s43.85,100.55,89.31,100.55c46,0,89.31-35.83,89.31-99.48,0-63.1-43.32-98.94-89.31-98.94m-12.84-52.94c49.74,0,84,23.53,102.15,47.6V235.14h61.51V529.82h-61.51V486c-18.71,25.13-54,48.66-103.21,48.66-76.48,0-138-62.57-138-153.49s61.51-150.81,139-150.81" />
  </g>
  <g id="g36">
    <path id="path38"
      d="M1803.13,534.64c-70.59,0-120.33-41.72-123-95.2h63.11c2.14,24.06,25.13,43.85,58.82,43.85,35.3,0,54-15,54-35.29,0-57.76-171.14-24.61-171.14-132.64,0-47.06,43.86-85,113.38-85,66.85,0,110.71,35.83,113.92,94.66h-61c-2.14-25.67-21.93-43.32-55.09-43.32-32.62,0-49.74,13.37-49.74,33.16,0,59.36,166.33,26.2,169.54,132.63,0,49.74-43.32,87.18-112.85,87.18" />
  </g>
  <g id="g40">
    <path id="path42"
      d="M1960.37,134.06h61V269.37c20.33-24.6,53.48-39,91.46-39,65.78,0,117.12,43.32,117.12,125.68V529.82h-60.43V365.1c0-54-29.42-81.83-73.81-81.83-44.92,0-74.34,27.81-74.34,81.83V529.82h-61Z" />
  </g>
  <g id="g44">
    <path id="path46"
      d="M2436.34,283.27c-45.46,0-89.31,35.84-89.31,98.94,0,63.65,43.85,99.48,89.31,99.48,46,0,89.85-36.9,89.85-100.55s-43.86-97.87-89.85-97.87m13.37-52.94c78.08,0,138.52,59.9,138.52,150.81s-61,153.49-138.52,153.49c-48.67,0-83.43-21.92-102.68-47.59v42.78h-61V134.06h61V279c19.25-26.74,56.15-48.66,102.68-48.66" />
  </g>
  <g id="g48">
    <path id="path50"
      d="M2769.52,283.27c-45.46,0-89.31,34.23-89.31,97.87s43.85,100.55,89.31,100.55c46,0,89.31-35.83,89.31-99.48,0-63.1-43.31-98.94-89.31-98.94m-12.83-52.94c49.73,0,84,23.53,102.14,47.6V235.14h61.51V529.82h-61.51V486c-18.71,25.13-54,48.66-103.21,48.66-76.48,0-138-62.57-138-153.49s61.5-150.81,139.05-150.81" />
  </g>
  <g id="g52">
    <path id="path54"
      d="M3103.24,230.33c72.2,0,119.26,35.83,135.84,97.87H3173.3c-10.16-28.35-33.69-46.53-70.06-46.53-49.2,0-81.83,36.37-81.83,100.54,0,64.72,32.63,101.08,81.83,101.08,36.37,0,58.83-16,70.06-46.53h65.78c-16.58,57.76-63.64,97.88-135.84,97.88-84.5,0-144.4-59.9-144.4-152.43,0-92,59.9-151.88,144.4-151.88" />
  </g>
  <g id="g56">
    <path id="path58"
      d="M3278.65,134.06h61V364l107-128.89h84.5L3395.24,382.75l135.84,147.07h-82.36l-109.1-126.75V529.82h-61Z" />
  </g>
</svg>
