<svg xmlns="http://www.w3.org/2000/svg" viewBox="0 0 4105.2402 1049.3253">
  <g transform="matrix(1.3333333,0,0,-1.3333333,0,1049.3253)" id="g10">
    <g id="g12">
      <g clip-path="url(#clipPath18)" id="g14">
        <path id="path20" d="M 448.34,413.07 H 334.672 V 299.404 H 448.34 Z m 0.343,-114.21 V 184.869 c -0.93,-0.062 -1.698,-0.156 -2.465,-0.157 -37.56,-0.006 -75.12,-0.085 -112.679,0.018 -46.87,0.129 -89.091,29.335 -105.932,73.074 -5.055,13.13 -7.609,26.714 -7.605,40.787 0.01,37.386 10e-4,74.773 0.006,112.158 0,0.778 0.079,1.557 0.137,2.621 H 334.01 V 524.112 H 220.276 v 119.702 c 0.604,-0.854 3.143,-4.566 3.483,-5.118 10.972,-17.827 21.282,-28.068 34.588,-44.309 6.779,-8.187 29.697,-30.926 40.986,-40.454 10.517,-7.899 22.869,-17.811 26.749,-20.491 5.755,-3.672 7.957,-5.372 8.583,-5.608 37.115,-0.028 76.364,0.027 113.479,-0.036 52.534,-0.088 97.484,-34.668 111.119,-85.406 2.591,-9.648 3.692,-19.494 3.694,-29.47 0.006,-37.031 -0.024,-74.062 0.063,-111.093 0.006,-2.595 -0.909,-3.018 -3.22,-3.014 -35.785,0.064 -71.568,0.045 -107.352,0.045 z" />
        <g transform="translate(772.5545,242.8373)" id="g22">
          <path id="path24" d="m 0,0 c -52.946,0 -90.25,31.287 -92.255,71.397 h 47.33 c 1.605,-18.049 18.853,-32.89 44.122,-32.89 26.474,0 40.512,11.23 40.512,26.473 0,43.32 -128.355,18.451 -128.355,99.475 0,35.297 32.892,63.776 85.036,63.776 50.138,0 83.029,-26.874 85.436,-70.996 H 36.1 c -1.605,19.253 -16.446,32.49 -41.315,32.49 -24.468,0 -37.303,-10.028 -37.303,-24.869 0,-44.523 124.745,-19.655 127.152,-99.475 C 84.634,28.078 52.144,0 0,0" />
        </g>
        <g transform="translate(1003.1893,431.3588)" id="g26">
          <path id="path28" d="m 0,0 c -34.094,0 -66.984,-26.874 -66.984,-74.205 0,-47.733 32.89,-74.607 66.984,-74.607 34.495,0 67.387,27.677 67.387,75.409 C 67.387,-25.671 34.495,0 0,0 m 10.028,39.709 c 58.16,0 103.887,-44.923 103.887,-113.112 0,-68.189 -45.727,-115.118 -103.887,-115.118 -36.501,0 -62.573,18.451 -77.012,35.699 v -137.179 h -45.727 V 36.1 h 45.727 V 3.61 c 14.038,18.451 40.912,36.099 77.012,36.099" />
        </g>
        <path id="path30" d="m 1146.382,543.268 h 45.727 v -296.82 h -45.727 z" />
        <g transform="translate(1334.9001,431.3588)" id="g32">
          <path id="path34" d="m 0,0 c -34.095,0 -66.985,-25.671 -66.985,-73.403 0,-47.732 32.89,-75.409 66.985,-75.409 34.495,0 66.984,26.874 66.984,74.607 C 66.984,-26.874 34.495,0 0,0 m -9.627,39.709 c 37.303,0 62.974,-17.648 76.611,-35.698 V 36.1 h 46.128 V -184.911 H 66.984 v 32.89 c -14.038,-18.851 -40.511,-36.5 -77.413,-36.5 -57.358,0 -103.486,46.929 -103.486,115.118 0,68.189 46.128,113.112 104.288,113.112" />
        </g>
        <g transform="translate(1572.3533,242.8373)" id="g36">
          <path id="path38" d="m 0,0 c -52.946,0 -90.249,31.287 -92.255,71.397 h 47.331 c 1.605,-18.049 18.852,-32.89 44.121,-32.89 26.474,0 40.513,11.23 40.513,26.473 0,43.32 -128.355,18.451 -128.355,99.475 0,35.297 32.891,63.776 85.035,63.776 50.138,0 83.029,-26.874 85.436,-70.996 H 36.1 c -1.605,19.253 -16.446,32.49 -41.315,32.49 -24.467,0 -37.303,-10.028 -37.303,-24.869 0,-44.523 124.745,-19.655 127.152,-99.475 C 84.634,28.078 52.144,0 0,0" />
        </g>
        <g transform="translate(1690.2761,543.2679)" id="g40">
          <path id="path42" d="m 0,0 h 45.727 v -101.48 c 15.242,18.451 40.11,29.28 68.588,29.28 49.337,0 87.843,-32.489 87.843,-94.26 v -130.36 h -45.325 v 123.541 c 0,40.512 -22.061,61.37 -55.353,61.37 -33.693,0 -55.753,-20.858 -55.753,-61.37 V -296.82 l -45.727,0 z" />
        </g>
        <g transform="translate(2047.2566,431.3588)" id="g44">
          <path id="path46" d="m 0,0 c -34.094,0 -66.984,-26.874 -66.984,-74.205 0,-47.733 32.89,-74.607 66.984,-74.607 34.496,0 67.387,27.677 67.387,75.409 C 67.387,-25.671 34.496,0 0,0 m 10.028,39.709 c 58.562,0 103.887,-44.923 103.887,-113.112 0,-68.189 -45.727,-115.118 -103.887,-115.118 -36.501,0 -62.573,16.445 -77.012,35.699 v -32.089 h -45.727 v 296.82 h 45.727 V 3.209 c 14.439,20.055 42.116,36.5 77.012,36.5" />
        </g>
        <g transform="translate(2297.1443,431.3588)" id="g48">
          <path id="path50" d="m 0,0 c -34.095,0 -66.985,-25.671 -66.985,-73.403 0,-47.732 32.89,-75.409 66.985,-75.409 34.495,0 66.984,26.874 66.984,74.607 C 66.984,-26.874 34.495,0 0,0 m -9.627,39.709 c 37.303,0 62.974,-17.648 76.611,-35.698 V 36.1 h 46.128 V -184.911 H 66.984 v 32.89 c -14.038,-18.851 -40.511,-36.5 -77.413,-36.5 -57.358,0 -103.486,46.929 -103.486,115.118 0,68.189 46.128,113.112 104.288,113.112" />
        </g>
        <g transform="translate(2547.4324,471.0683)" id="g52">
          <path id="path54" d="M 0,0 C 54.15,0 89.447,-26.874 101.882,-73.403 H 52.546 C 44.925,-52.144 27.275,-38.506 0,-38.506 c -36.901,0 -61.369,-27.275 -61.369,-75.409 0,-48.534 24.468,-75.809 61.369,-75.809 27.275,0 44.122,12.033 52.546,34.896 h 49.336 C 89.447,-198.148 54.15,-228.231 0,-228.231 c -63.375,0 -108.299,44.925 -108.299,114.316 C -108.299,-44.924 -63.375,0 0,0" />
        </g>
        <g transform="translate(2678.9919,543.2679)" id="g56">
          <path id="path58" d="m 0,0 h 45.727 v -172.477 l 80.221,96.667 h 63.375 L 87.441,-186.516 189.323,-296.82 h -61.77 l -81.826,95.062 v -95.062 l -45.727,0 z" />
        </g>
      </g>
    </g>
  </g>
</svg>