<svg id="b5929471-477e-43a4-b3f2-271d292d98ba" xmlns="http://www.w3.org/2000/svg" viewBox="0 0 445.1 226.39">
  <path
    d="M81.78,42.92a30.87,30.87,0,0,0,18-11Q105,25.29,105,19.86q0-11.79-9.09-11.8-4.34,0-9.08,5.7-6.37,7.73-5.56,21,.54,8.55.54,8.14M95.88.06a20.38,20.38,0,0,1,13.84,3.8Q117,9,117,19.46q0,9.48-10.44,18.64a52.28,52.28,0,0,1-24.41,12Q83,69.63,78.66,78.86,66,105.44,33,105.44q-18.18,0-26.86-9.22A22.18,22.18,0,0,1,0,80.48,22.07,22.07,0,0,1,4.07,67.33a15.44,15.44,0,0,1,12.07-6.92,12.22,12.22,0,0,1,9.63,3.26,10.65,10.65,0,0,1,3.39,7.73,6.88,6.88,0,0,1-1.36,4.34l-4.61,5.42A7.6,7.6,0,0,0,21.56,86q0,9.22,9.5,9.23c.81,0,1.67,0,2.57-.14q13.42-1.5,17.77-8.81,4.88-8.41,4.88-33.91v-3.8Q39.6,43.74,32.14,32.2,28.75,27.06,28.75,23q0-3.66,3.12-4.2a10,10,0,0,1,1.63-.14,4.55,4.55,0,0,1,4.34,2.71q.94,2.71,1.9,5.56Q43.13,36.68,57,41.29,59.68,21.36,71.2,10.5A38.39,38.39,0,0,1,95.88.06"
    transform="translate(0 0)" />
  <path
    d="M149.59,83.6a21.27,21.27,0,0,1-1.63-10q.4-8.82,7.19-19.94,7.46-12.21,14.78-12.21a6.36,6.36,0,0,1,5.43,2.85A8.86,8.86,0,0,1,177,50.65q-1.22,12.48-12.74,28.75c.18.72,1.13,1.08,2.84,1.08,1.09,0,3-1.9,5.84-5.69q2-2.72,4.34-2.72c1.89,0,2.84.91,2.84,2.72,0,.81-.81,2.17-2.44,4.06a43,43,0,0,1-6.23,6.65,18.19,18.19,0,0,1-11.53,4.21,12.8,12.8,0,0,1-4.75-.82,49.56,49.56,0,0,1-10,9.9q-6.24,4.75-10.85,4.75-8.13,0-10.17-9.9-11.94,9.23-19.26,9.22A11.79,11.79,0,0,1,96,99.54a11.46,11.46,0,0,1-3.26-8.34,17.3,17.3,0,0,1,2.31-8.41q4.34-7.73,10.58-20.35-15.06,18-17,18c-1.89,0-2.84-.9-2.84-2.72,0-1.63,1.08-3.54,3.25-5.71q9.23-10.76,23.19-25.86,5.29-4.77,11.12-4.77,4.89,0,6.79,3A6.29,6.29,0,0,1,131.28,48q0,1.77-2.85,8.16-3,6.81-12.88,24.9a8,8,0,0,0-1.09,4.07q0,3.54,2.85,3.54,2.31,0,6.24-3a9.07,9.07,0,0,1,.34-2,9.63,9.63,0,0,0,.34-2,49.64,49.64,0,0,1,9.49-21,7.74,7.74,0,0,1,6.51-3.26c3.71,0,5.56,2,5.56,6.11q0,4.74-4.75,12.2a56.08,56.08,0,0,1-8.68,10.58q.13,6.91,5.57,6.92,4.88,0,11.66-9.5"
    transform="translate(0 0)" />
  <path
    d="M206.69,70.72q2.16,0,9.22-7.46,4.2-4.47,4.2-9.36c0-1.44-.54-2.17-1.63-2.17q-2.56,0-9.22,8.82-4.6,5.55-4.61,8.41c0,1.17.68,1.76,2,1.76m-9.23,13.7q-.68,7.45,5.43,7.59,3.8.13,9.63-3.25a47.21,47.21,0,0,0,9.22-7.33q5.14-5.55,7-6.71A7.53,7.53,0,0,1,231,73.57a5.28,5.28,0,0,1,2.71,1.08,1.66,1.66,0,0,1,.68,1.36q0,3-9.49,11.8Q207.37,104,192.85,104a15.92,15.92,0,0,1-7.87-1.9,17.32,17.32,0,0,1-7.18-8q-2.18-4.47-1.63-7.59.54-3.39.81-4.47A9.41,9.41,0,0,1,180,78c-2.35,2.36-4,3.53-5,3.53a2.93,2.93,0,0,1-2.24-1.22,3.84,3.84,0,0,1-1-2.44c0-1.09.91-2.26,2.72-3.53q1.49-1.08,9-10a92,92,0,0,1,15.39-14.78q11.12-8.4,19.8-8.41a12.28,12.28,0,0,1,9.09,3.39q3.79,3.81,3.79,8.14,0,6.51-8.13,15.19a60.1,60.1,0,0,1-25.91,16.55"
    transform="translate(0 0)" />
  <path
    d="M261.75,70.72q2.16,0,9.22-7.46,4.2-4.47,4.2-9.36c0-1.44-.54-2.17-1.63-2.17q-2.57,0-9.22,8.82-4.6,5.55-4.61,8.41c0,1.17.68,1.76,2,1.76m-9.23,13.7Q251.84,91.88,258,92q3.8.13,9.63-3.25a47.21,47.21,0,0,0,9.22-7.33q5.15-5.55,7-6.71A7.53,7.53,0,0,1,286,73.57a5.3,5.3,0,0,1,2.72,1.08,1.68,1.68,0,0,1,.67,1.36q0,3-9.49,11.8Q262.41,104,247.91,104a15.85,15.85,0,0,1-7.86-1.9,17.24,17.24,0,0,1-7.19-8q-2.18-4.47-1.63-7.59.54-3.39.81-4.47A9.41,9.41,0,0,1,235,78c-2.35,2.36-4,3.53-5,3.53a2.92,2.92,0,0,1-2.24-1.22,3.87,3.87,0,0,1-1-2.44c0-1.09.9-2.26,2.71-3.53q1.49-1.08,9-10a91.6,91.6,0,0,1,15.39-14.78q11.12-8.4,19.8-8.41a12.28,12.28,0,0,1,9.09,3.39q3.8,3.81,3.79,8.14,0,6.51-8.13,15.19a60.1,60.1,0,0,1-25.91,16.55"
    transform="translate(0 0)" />
  <path
    d="M306.09,48.75q-4.33,0-4.34-3.39a5.55,5.55,0,0,1,.68-2.44q1.5-2.58,10.44-2.58c1.09-1.27,1.9-2.26,2.45-3q.94-1.63,10-16.69c1-1.62,2.08-2.44,3.26-2.44s2.35.82,3.79,2.44q1.77,2,3.39,4.07a9.77,9.77,0,0,1,1.9,5.7,17.52,17.52,0,0,1-1.9,7.32,28.45,28.45,0,0,0-1.49,2.85q11.4,0,11.39,2.31a3.61,3.61,0,0,1-.67,1.76l-2.44,3.53c-.64.54-1.95.81-3.94.81H330q-5.15,8.86-6.51,10.85a19,19,0,0,1,1.63-3q-11.25,21.42-11.8,23-1.77,4.62.41,5.83c.45.27,1.35.21,2.71-.2a7.28,7.28,0,0,0,3.12-1.7q5.14-4.07,11.93-9.9a5.06,5.06,0,0,1,3.8-1.76q2.85,0,2.85,2.58,0,1.21-2.44,4.07Q330.23,85.37,319,93.5q-13.16,9.36-19.67,9.36a10.56,10.56,0,0,1-8.54-3.93,8.69,8.69,0,0,1-2.44-7.19q1.21-9.36,12.48-28.62-5.3,6.8-13.3,16c-1.72,1.72-3.34,2-4.88.81q-2.44-1.48,0-4.2,9.5-10.58,23.46-27"
    transform="translate(0 0)" />
  <path
    d="M134.21,148.14q-8.42,13.56-8.41,16.68c0,.81.63,1.49,1.9,2a7.31,7.31,0,0,0,2.3.41q5.7,0,12.62-12.48,6.78-12.06,6.78-15.86a2,2,0,0,0-1.36-2,3.13,3.13,0,0,0-1.63-.41q-5,0-12.2,11.67m-20.14,63.2q3.86-6.65,7.93-15.46-12.21,5-16,12.34a14.89,14.89,0,0,0-1.9,6.37c0,2.26.81,3.39,2.44,3.39q3.66,0,7.53-6.64m.74-20.07q3.25-1.64,11.13-4.62a18.46,18.46,0,0,0,1.35-3.39,29.81,29.81,0,0,1-12.88,3.26q-8.14,0-11.26-4.75c-1-1.53-1.49-3.84-1.49-6.91q0-8.82,3.66-12.48a9,9,0,0,1-4.47,1.9q-2-1.36-2-2.85a2.57,2.57,0,0,1,.68-1.63q3-3.8,10.17-12.07,10-11,12.48-13.16,10.85-9.75,18.31-9.76,15.31,0,15.32,4.75,5.56-14,9.5-14,2.43,0,5.56,4.74,1.35,1.9,2.71,3.94,1.62,2.72,1.22,4.47-6.37,13.44-21.7,46.12a44,44,0,0,0,7.05-5.43q9.36-9.36,10.17-10,3.66-3.52,5.43-3.52c1.63,0,2.44.9,2.44,2.71q0,2.31-3,5.7Q165,175.53,148.58,184.35,131.5,221.24,115.9,225a46.09,46.09,0,0,1-10.72,1.36q-8.13,0-12.61-3.73t-3.8-10.78q.69-7,9.36-12.34,8.28-4.06,16.68-8.27"
    transform="translate(0 0)" />
  <path
    d="M205.13,154.24q2.18,0,9.23-7.46,4.2-4.47,4.2-9.36c0-1.44-.54-2.17-1.63-2.17q-2.58,0-9.22,8.82-4.61,5.56-4.61,8.41c0,1.17.68,1.76,2,1.76m-9.22,13.7c-.45,5,1.36,7.51,5.43,7.59q3.79.14,9.63-3.25a46.85,46.85,0,0,0,9.22-7.33q5.16-5.55,7-6.71a7.41,7.41,0,0,1,2.24-1.15,5.33,5.33,0,0,1,2.72,1.08,1.72,1.72,0,0,1,.67,1.36q0,3-9.49,11.8-17.49,16.14-32,16.14a15.74,15.74,0,0,1-7.86-1.9,17.26,17.26,0,0,1-7.19-8q-2.17-4.48-1.63-7.6.54-3.39.81-4.47a9.41,9.41,0,0,1,3-3.94c-2.35,2.36-4,3.53-5,3.53a2.93,2.93,0,0,1-2.24-1.22,3.81,3.81,0,0,1-1-2.44c0-1.09.91-2.26,2.72-3.53q1.48-1.08,9-10a91.66,91.66,0,0,1,15.39-14.79q11.11-8.4,19.8-8.41a12.29,12.29,0,0,1,9.09,3.4q3.79,3.8,3.79,8.13,0,6.51-8.13,15.19a60,60,0,0,1-25.91,16.55"
    transform="translate(0 0)" />
  <path
    d="M260.2,154.24q2.16,0,9.22-7.46,4.2-4.47,4.2-9.36c0-1.44-.54-2.17-1.63-2.17q-2.57,0-9.22,8.82-4.61,5.56-4.61,8.41c0,1.17.68,1.76,2,1.76M251,167.94c-.45,5,1.36,7.51,5.43,7.59q3.8.14,9.63-3.25a46.85,46.85,0,0,0,9.22-7.33q5.16-5.55,7-6.71a7.41,7.41,0,0,1,2.24-1.15,5.3,5.3,0,0,1,2.72,1.08,1.72,1.72,0,0,1,.67,1.36q0,3-9.49,11.8-17.49,16.14-32,16.14a15.77,15.77,0,0,1-7.86-1.9,17.31,17.31,0,0,1-7.19-8q-2.17-4.48-1.63-7.6.54-3.39.81-4.47a9.41,9.41,0,0,1,3-3.94c-2.35,2.36-4,3.53-5,3.53a2.93,2.93,0,0,1-2.24-1.22,3.8,3.8,0,0,1-1-2.44c0-1.09.9-2.26,2.71-3.53q1.49-1.08,9-10a91.66,91.66,0,0,1,15.39-14.79q11.11-8.4,19.8-8.41a12.29,12.29,0,0,1,9.09,3.4q3.79,3.8,3.8,8.13,0,6.51-8.14,15.19A60,60,0,0,1,251,167.94"
    transform="translate(0 0)" />
  <path
    d="M282.84,164.82c-1.9,0-2.85-1-2.85-3a3.64,3.64,0,0,1,.28-1.36q1.22-2.31,11.39-13.16a182.52,182.52,0,0,0,14.24-17.9c6.87-9.76,16.26-30.2,19-36.8,4.25-10.4,7.64-20.71,10.17-20.71q4.06,0,8.82,8.68c1.9,3.44,2.12,11.44.68,13.79-.46.91-11.74,27.18-24.67,54.3q24.67-25.1,32.55-24t7.86,6.92q0,3.12-2.44,7.6-3.39,6.1-8.27,6.1a16.88,16.88,0,0,1-4.88-1.22l-2.58-1.42a2.85,2.85,0,0,0-2.17-.48q-3.12,1.37-8.68,6.38a37.67,37.67,0,0,1,6.1-.68q3.94,0,4.48,2a10.91,10.91,0,0,1,0,4.21q-.4,2-.81,4.2-.69,5.3.81,6.51a3.25,3.25,0,0,0,2.17.81q3.12,0,6.51-4.47,3.93-5.16,6-5.16a2.42,2.42,0,0,1,1.83,1.16,3.73,3.73,0,0,1,.88,2.23,3,3,0,0,1-.95,2.17l-8,8.82q-7.47,8-12.07,11-7.87,5.16-14.51,5.16t-7.46-6.64q-.29-2.17,1.29-8a37.78,37.78,0,0,0,1.55-8.27c0-1.63-.36-2.44-1.08-2.44s-1.81.85-3.25,2.55l-9.63,11.67q-7.06,8.33-9.23,9.73a10.57,10.57,0,0,1-5.83,1.41q-6.37,0-6.37-4.32,0-5.12,20.34-41.38-18,24-21.16,24"
    transform="translate(0 0)" />
  <path
    d="M378.05,167.67q-9.09-1.09-10.31-.28a3.89,3.89,0,0,0-2.17,3.26,4.17,4.17,0,0,0,2.58,3.8,4.78,4.78,0,0,0,1.9.41q4.47,0,8-7.19m21.43-6.24a15.77,15.77,0,0,0,5.15-3.94,4.89,4.89,0,0,1,3.8-1.89c1.9,0,2.85.9,2.85,2.71,0,.81-.82,2.17-2.44,4.07a17.31,17.31,0,0,1-10.85,6.1q-3.66,10.17-11.67,14.78a22,22,0,0,1-11.12,3.12q-12.88,0-16.55-6.64a16.45,16.45,0,0,1-2.3-8.14q0-6.78,5.29-9.36a20.64,20.64,0,0,1,8.81-2,85.72,85.72,0,0,1,9.63.95q.68-3.39.41-11.94a40.43,40.43,0,0,1,1.08-11.66q-3.93,2.31-12.34,11.93Q358.39,162,357.71,162.65q-2.44,2.44-4.89.81-2.29-1.62,0-4.2,6.38-7.45,21.3-24.28a55.71,55.71,0,0,1,13.29-10.58q7.18-4.07,12.34-4.07,9.09,0,9.09,7.74a6.67,6.67,0,0,1-2.31,5,7.06,7.06,0,0,1-4.88,2.17,6.89,6.89,0,0,1-1.36-.13c-2.71-.72-4.57-.59-5.56.41a4.67,4.67,0,0,0-1.49,3.39,33.82,33.82,0,0,0,1.62,7.45c.19.46,1.18,2.94,3,7.46a20.7,20.7,0,0,1,1.63,7.6"
    transform="translate(0 0)" />
  <path d="M445.1,111.8v81.51H421.3v-5.62h11.64V117.42H421.3V111.8Z" transform="translate(0 0)" />
  <path d="M58.81,193.31V111.8h23.8v5.62H71v70.27H82.61v5.62Z" transform="translate(0 0)" />
</svg>
