<svg id="ff6ef19d-ffc5-4cd8-88cf-2f5fcedf9557" data-name="Ebene 1" xmlns="http://www.w3.org/2000/svg"
  viewBox="0 0 167.08 116.41">
  <path
    d="M122.15,34.58a.65.65,0,0,0-.18-.45.47.47,0,0,0-.33-.13c-2.38-.2-5-.27-7.94-.24C96.94,34,75.54,38.21,66.07,47.47a16.8,16.8,0,0,0-4.95,16.79C63,72.12,69.51,75.62,73.57,76.73a11.14,11.14,0,0,0,3.63.44s.29,0,.33-.12-.24-.28-.24-.28a15.29,15.29,0,0,1-1.17-1.11,8.39,8.39,0,0,1-1-1.3,14.59,14.59,0,0,1-1.78-4A10.41,10.41,0,0,1,76.23,60C81,55,91.41,51.78,109.66,51.81l10,.18s.32,0,.44-.1.08-.07.19-.38a39.25,39.25,0,0,0,1.87-8.62A41.35,41.35,0,0,0,122.15,34.58Zm-3.34,9.92h-4v4h-3.5v-4h-4V41h4V37h3.5v4h4Z" />
  <path
    d="M88.59.36a38.8,38.8,0,0,0-15.51,1c-.18.06-.32.07-.41.16a.77.77,0,0,0-.16.31C71.05,7,63,12.6,61,14.27a84,84,0,0,0-7.76,7.05,43.43,43.43,0,0,0-5.63,7.38,23.3,23.3,0,0,0-2.74,7.93,24.64,24.64,0,0,0-.31,5.88h0s0,.35,0,.5a14.62,14.62,0,0,0,.67,3.45c.07.2.13.42.29.42s.19-.27.24-.45.29-1.1.51-1.83.4-1.35.67-2.19a25.85,25.85,0,0,1,5.44-9C61.88,23,72.12,21,80.73,13.09A31,31,0,0,0,89,1c.07-.16.16-.29.07-.41S88.8.4,88.59.36Z" />
  <path
    d="M121.62,31.23a38.24,38.24,0,0,0-4.06-11c-.35-.73-1.09-1.86-1.52-2.55-.17-.29-.14-.19-.25-.3a1,1,0,0,0-.57-.17c-1.07-.13-3.56-.24-6.51-.24h0a95.78,95.78,0,0,0-18.75,2c-10.56,2.05-19.71,5.56-27.13,10.37-8,5.19-13.86,11-16.14,20.41-.36,1.48.58,4.13,1.6,6.23a27.41,27.41,0,0,0,1.95,3.27c.09.13.2.27.3.22s.09-.11.12-.28a20.6,20.6,0,0,1,1-3.83c1.23-3.32,4-10.36,16.08-16.16,8-3.86,16.72-5.71,24.68-6.65C105,31,114.58,30.9,121.18,31.62c.18,0,.39.06.44,0a.55.55,0,0,0,0-.36Z" />
  <path
    d="M17.43,114.4c-1.39,1-3.49,2-7.78,2a62.55,62.55,0,0,1-7.33-.67c-.53,0-.58.41-1.07.41s-.49-.14-.58-.81C.4,113.46,0,109.71,0,108.51c0-.41.27-.9,1.07-.9.32,0,.36.27.45.72A7.23,7.23,0,0,0,4,112.75a10.14,10.14,0,0,0,6.08,1.83c3.31,0,5.81-2.1,5.81-5.23s-2.06-4.2-6.66-6.25c-3.48-1.57-4.74-2.15-6.08-3.49a6.28,6.28,0,0,1-1.92-4.69c0-4.56,3.4-7.82,9.79-7.82,1.16,0,2.68.09,3.93.22s2.19.27,2.32.27a.79.79,0,0,0,.45-.18,1.28,1.28,0,0,1,.45,0c.27,0,.31.18.31.44a33.94,33.94,0,0,0,.05,3.67c.09.89.22,2.19.22,2.41,0,.45-.58.58-1,.58s-.32-.13-.54-.8a6.53,6.53,0,0,0-2.41-3.76,7.54,7.54,0,0,0-4.34-1.2c-3,0-5.27,1.83-5.27,4.87,0,3.31,2.1,4.2,7.28,6.48,3.58,1.56,7.82,3.4,7.82,8.45a7.27,7.27,0,0,1-2.9,5.89Z" />
  <path
    d="M51.88,98.23c-1,.49-2.63,3.39-3.75,5.49s-2.91,6-4.34,9.08c-.31.76-1,2.28-1.11,2.54a1,1,0,0,1-.9.63l-1.11.13c-.32.05-.36,0-.63-1-.54-2-1.74-5.77-3.31-10.15-3,5.9-3.71,7.33-5.09,10.46-.18.49-.18.49-.49.53l-1.57.23c-.18,0-.22-.14-.49-.85-1.52-4.38-4.11-11.22-5.76-14.79-.67-1.39-1.08-2-1.48-2.19s-.58-.27-.58-.81c0-.36.09-.49.49-.49.94,0,2.82,0,3.53,0,1.57,0,3,0,4.38,0,.18,0,.23.27.23.58,0,.54,0,.58-.59.63-1.42.13-1.83.58-1.83,1.34a24.61,24.61,0,0,0,1.43,4.69c.72,1.83,1.43,3.75,2.91,7.46.8-1.65,3.3-6.83,4.24-8.85a26.08,26.08,0,0,0-1.83-4.11c-.4-.44-.67-.49-1.52-.62-.27,0-.31-.23-.31-.49,0-.45.09-.63.54-.63,1.2,0,3.48,0,4.29,0l4,0c.44,0,.49.18.49.58s-.05.58-.58.67c-1.39.09-2.15.14-2.15,1.21,0,.8,3,9.74,3.8,12.15,1.34-2.9,2.91-6.3,3.8-8.44a13.71,13.71,0,0,0,1.16-3.67c0-1.16-1.07-1.34-2.1-1.38-.58,0-.62,0-.62-.54s0-.58.4-.58,2.1,0,3.53,0c1.07,0,2.37,0,3,0,.31,0,.4.18.4.49s-.13.54-.45.72Z" />
  <path
    d="M63.5,116c-.62,0-2.64-.09-4.83-.09-1.74,0-4.24.09-5.09.09-.31,0-.4-.09-.4-.49s.09-.58.71-.72c1.48-.27,2-.62,2.33-1.61s.35-4.78.35-7.37c0-4.65,0-5.27-2.14-5.54-.72-.14-.76-.14-.76-.63s.22-.53.62-.76c.85-.36,3.62-1.7,4.7-2.14a2.4,2.4,0,0,1,1.11-.32c.32,0,.45.14.45.41,0,.62-.13,2-.18,2.68,0,1-.13,3-.13,6.48,0,1.38,0,6.3.22,7.28.23,1.25,1.07,1.39,2.82,1.48.62,0,.71.13.71.62s-.13.63-.49.63ZM58.76,90.41a2.57,2.57,0,0,1-2.23-2.24,2.74,2.74,0,0,1,2.37-2.41A2.6,2.6,0,0,1,61.18,88a2.63,2.63,0,0,1-2.42,2.37Z" />
  <path
    d="M72,116.37a24.73,24.73,0,0,1-4.2-.4c-.41,0-.76-.14-.94-.14s-.45.09-.63.09-.36-.22-.36-.58.05-1.25.05-2.19c0-.71-.18-2.28-.18-2.68s.36-.45.85-.45c.27,0,.31.09.49.76a5.52,5.52,0,0,0,5.54,4.07c2.86,0,3.53-1.88,3.53-3,0-1.92-1.56-2.86-4.51-4.25-2.5-1.16-5.18-2.46-5.18-5.63,0-2.06,1.43-5.32,7.28-5.32a38.3,38.3,0,0,1,3.84.36c.14,0,.45-.09.63-.09s.31.09.4.76c.09,1,.31,3,.31,3.75,0,.41-.09.54-.89.54-.22,0-.31-.09-.49-.58a5,5,0,0,0-4.6-3.22c-2.69,0-3.09,1.88-3.09,2.73,0,1.74,1.21,2.5,4.65,4.11,2.41,1.12,5.45,2.55,5.45,5.9,0,4.65-5.36,5.45-8,5.45Z" />
  <path
    d="M88.57,116.37a24.73,24.73,0,0,1-4.2-.4c-.4,0-.76-.14-.94-.14s-.45.09-.62.09-.36-.22-.36-.58,0-1.25,0-2.19c0-.71-.18-2.28-.18-2.68s.36-.45.85-.45c.27,0,.32.09.49.76a5.54,5.54,0,0,0,5.55,4.07c2.86,0,3.53-1.88,3.53-3,0-1.92-1.57-2.86-4.52-4.25C85.71,106.45,83,105.15,83,102c0-2.06,1.43-5.32,7.28-5.32,1.61,0,3.53.36,3.85.36.13,0,.44-.09.62-.09s.31.09.4.76c.09,1,.32,3,.32,3.75,0,.41-.09.54-.9.54-.22,0-.31-.09-.49-.58a5,5,0,0,0-4.6-3.22c-2.68,0-3.09,1.88-3.09,2.73,0,1.74,1.21,2.5,4.65,4.11,2.42,1.12,5.45,2.55,5.45,5.9,0,4.65-5.36,5.45-8,5.45Z" />
  <path
    d="M121.24,114.76c-.27.94-.36,1.3-.81,1.3-.94,0-1.7-.23-10.05-.23-7.73,0-9.52.23-10.06.23s-.53-.14-.53-.58c0-.63,0-.63.76-.72,2.59-.22,2.81-1.7,3-3.26.27-2.77.27-8.36.27-12V93c0-3-.23-3.89-2.5-4.25-1-.13-1.12-.18-1.12-.58,0-.62.09-.67.49-.67,1.39,0,4,.18,5.27.18,1.66,0,4.52-.18,5.63-.18.32,0,.5.14.5.49,0,.63,0,.67-.81.76-2,.14-2.77.58-3,2.06-.36,1.7-.4,8.85-.4,11.75,0,4.07,0,8.85.36,10.19.22,1.07.94,1.12,2.81,1.12,2.77,0,5.86,0,7.42-.94a6.51,6.51,0,0,0,2.5-3.8c.18-.62.27-1,.54-1,.85,0,1,.18,1,.49a29.49,29.49,0,0,1-1.2,6.12Z" />
  <path
    d="M134.42,116c-.63,0-2.64-.09-4.83-.09-1.74,0-4.24.09-5.09.09-.31,0-.4-.09-.4-.49s.09-.58.71-.72c1.48-.27,2-.62,2.32-1.61s.36-4.78.36-7.37c0-4.65,0-5.27-2.14-5.54-.72-.14-.76-.14-.76-.63s.22-.53.62-.76c.85-.36,3.62-1.7,4.7-2.14a2.4,2.4,0,0,1,1.11-.32c.31,0,.45.14.45.41-.05.62-.14,2-.18,2.68,0,1-.13,3-.13,6.48,0,1.38,0,6.3.22,7.28.22,1.25,1.07,1.39,2.82,1.48.62,0,.71.13.71.62s-.13.63-.49.63Zm-4.74-25.56a2.56,2.56,0,0,1-2.23-2.24,2.74,2.74,0,0,1,2.37-2.41,2.33,2.33,0,1,1-.14,4.65Z" />
  <path
    d="M153.55,89.16c-.27,0-.54-.32-1.08-.76a5.53,5.53,0,0,0-4-1.26c-4.83,0-5.05,3-5.05,10h6.25c.45,0,.4.13.4,1.12s0,1.11-.58,1.11h-6.07c0,4.16,0,9.79.08,12.47.09,2.5.94,2.86,3.94,2.86.58,0,.62.14.62.63s-.09.71-.89.71-3.93-.09-6-.09c-1.52,0-3.4.09-4.12.09-.22,0-.26-.27-.26-.58,0-.53,0-.58.58-.67,1.88-.27,2.19-.71,2.28-3.22.09-3,.09-8.93.09-12.15h-2.33c-.26,0-.26-.09-.26-.45,0-.53,0-.58.22-.71l2.41-1.08c.09-3.88.14-5.63,2.15-8.22a11.44,11.44,0,0,1,8.75-4.56C154,84.37,156,86,156,87.23c0,1-2.06,1.93-2.41,1.93Z" />
  <path
    d="M166.55,113.51a12.42,12.42,0,0,1-7.73,2.86c-6.44,0-7.78-5.5-7.78-8.89,0-7,4.74-10.82,9-10.82a6.73,6.73,0,0,1,6.61,5c.27,1.08.49,2.42.27,2.46-4,.63-8,1.39-12,2.19.13,3.13,1.34,7.46,6,7.46a9.63,9.63,0,0,0,5.72-2c.14-.14.23-.18.27,0s.09.53.13.85-.13.49-.53.8Zm-7.78-15.24c-2.63,0-3.84,3.4-3.89,6.71,1.88-.32,3-.59,6.26-1.39,1.39-.36,1.61-.72,1.61-1.16,0-1.61-1.74-4.16-4-4.16Z" />
</svg>