<?xml version="1.0" encoding="UTF-8"?><svg id="uuid-8b84b138-7b03-4a07-a800-cdcd4bf9a11a" xmlns="http://www.w3.org/2000/svg" viewBox="0 0 167.1 116.37"><path d="m113.7,33.97c-16.9.2-38.1,4.5-47.4,13.6-4.7,4.6-6.4,10.2-4.9,16.5,1.7,7,7.4,10.9,12.2,12.2,1.7.5,3,.5,3.4.4-.3-.2-1.1-1-1.1-1l-1-1.3c-.8-1.2-1.4-2.6-1.8-4.1-.3-1-.4-1.9-.4-2.9,0-2.8,1.2-5.5,3.4-7.8,5.3-5.5,16.6-8.3,33.6-8.2l10.1.2h.2l.1-.3c.3-.9,1.4-4.2,1.8-8.6.3-2.5.2-5.2-.1-8.2l-.1-.3-.2-.1c-2.2,0-4.8-.1-7.8-.1ZM80,.37c-2.4.2-5,.7-6.7,1.2h-.1l-.2.1-.1.2c-1.3,4.4-7.4,9.2-10.3,11.6l-1.2,1-1,.9c-2.4,2-4.6,3.9-6.7,6.1-1.7,1.8-4,4.5-5.6,7.3-1.3,2.3-2.2,4.9-2.7,7.8-.2,1.4-.4,2.9-.4,4.2,0,.5,0,1.1.1,1.6v.5c.1,1.4.4,2.6.6,3.4,0-.1.1-.3.1-.3l.4-1.5.1-.4.5-1.8c1.2-3.4,3-6.4,5.5-9.2,5.3-5.9,10.9-9.1,16.4-12.2,4.2-2.4,8.2-4.7,11.9-8.1,5-4.6,6.8-8.9,7.9-11.4l.3-.8h-.2c-2.2-.3-5.8-.4-8.6-.2Z" stroke-width="0"/><path d="m90.1,19.17c-10.5,2-19.6,5.5-27,10.3-9.2,6-14,12-16,20.2,0,.2-.1.4-.1.7,0,1.3.6,3.2,1.6,5.4.6,1.2,1.2,2.1,1.8,3,0,0,.1.1.1.2v-.3c.1-.8.4-1.9.9-3.5,1.2-3.2,3.9-10.4,16.3-16.4,6.9-3.3,15-5.5,24.8-6.7,11.5-1.4,21.4-1.6,28.8-.8h.1v-.1c-.7-3.6-2.3-7.9-4-11l-1.2-2-.3-.5-.1-.2-.1-.1-.4-.1c-1-.1-3.3-.2-6.5-.2-5.4,0-11.8.7-18.7,2.1Zm31.3,12.1q.1,0,0,0,.1,0,0,0ZM1.6,94.87c0,1.8.6,3.3,1.8,4.5,1.3,1.3,2.5,1.8,6,3.4,4.6,2.1,6.8,3.2,6.8,6.5s-2.6,5.5-6.1,5.5c-2.4,0-4.7-.7-6.2-1.9-1.3-1.1-2.2-2.6-2.6-4.6l-.1-.5c-.8,0-.8.5-.8.6,0,1.2.4,5,.7,6.8,0,.2.1.5.1.5h.2l.3-.1.7-.3,1.3.2c1.3.2,3.5.5,6,.5,4.4,0,6.4-1,7.6-2,1.7-1.3,2.8-3.4,2.8-5.7,0-4.8-4-6.6-7.6-8.2-.1,0-.2-.1-.2-.1-5.2-2.3-7.3-3.2-7.3-6.7,0-3.1,2.2-5.2,5.6-5.2,1.8,0,3.4.4,4.5,1.3,1.6,1,2.1,2.6,2.5,3.9l.2.6c.3,0,.7-.1.7-.3l-.2-2v-.4c-.1-.9-.1-2.7-.1-3.4v-.5l-.4.1c.1,0-.5.2-.5.2l-.9-.1-1.5-.2c-1.3-.1-2.8-.2-3.9-.2-5.7.2-9.4,3.1-9.4,7.8h0Zm43.9,2.4c-.1,0-.1.3-.1.3v.3h.3c.7,0,2.4.1,2.4,1.7,0,.9-.6,2.4-1.1,3.6l-.1.1-3.8,8.5c0,.1-.2.2-.3.2s-.2-.1-.3-.2c-.6-1.8-3.8-11.3-3.8-12.2,0-1.3,1-1.4,2.4-1.5l.3-.1v-.6h-8.5c-.2,0-.3,0-.3.3v.2c.9.1,1.3.2,1.7.7.4.6,1,2,1.9,4.2v.2l-4.2,8.8c0,.1-.2.2-.3.2s-.2-.1-.3-.2l-2.2-5.6-.7-1.8-.2-.5c-.7-1.8-1.3-3.6-1.3-4.3,0-1,.6-1.5,2.1-1.6h.3v-.6h-8v.2q0,.3.4.5c.5.2.9.8,1.7,2.4,1.6,3.6,4.2,10.3,5.8,14.8,0,.1.3.7.3.7l1.5-.2h.1l.1-.3c1.4-3.3,2.1-4.7,5.1-10.5.1-.1.2-.2.3-.2s.2.1.3.2c1.7,4.7,2.8,8.4,3.3,10.2.1.3.2.8.3.8l1.2-.2c.4,0,.5-.2.7-.4l1.1-2.5.4-.8c1.4-3,2.9-6.3,4-8.3,1.3-2.5,2.8-5.1,3.9-5.6.3-.1.3-.2.3-.5v-.2h-5.6l-1.1-.2Zm11.4-9.2c0,.9,1.1,1.9,1.9,1.9,1,0,2.1-1.1,2.1-2.1,0-.9-1.1-2-2-2-.8.1-2,1.2-2,2.2Zm2.3,8.8l-2.7,1.2-2,.9-.1.1q-.3.2-.3.4v.2l.5.1c2.4.3,2.4,1.1,2.4,5.8,0,2.7,0,6.3-.4,7.5-.3,1.1-1,1.5-2.5,1.8q-.5.1-.5.4v.2h1.8l3.4-.1,3.7.1h1.3v-.6l-.4-.1c-1.7-.1-2.8-.2-3.1-1.7-.2-.7-.2-3.1-.2-7.3l.1-6.4c0-.1.2-2.7.2-2.7,0-.1-.2-.1-.2-.1-.3,0-.6.1-1,.3Zm7.6,5c0,3,2.7,4.3,5,5.4,2.8,1.3,4.7,2.4,4.7,4.5,0,1.5-1,3.3-3.8,3.3-.8,0-4.7-.2-5.8-4.3l-.2-.6c-.4,0-.6.1-.6.2l.1,1,.1,1.7v2.4h.6l.5.1.6.1c.8.1,2.3.4,4,.4,1.3,0,7.7-.2,7.7-5.2,0-3.2-2.9-4.5-5.3-5.6-3.4-1.6-4.8-2.4-4.8-4.4,0-.5.2-3,3.4-3,2.2,0,3.8,1.2,4.9,3.4l.2.4c.5,0,.6-.1.6-.1v-.2l-.2-2.7-.1-1.1c0-.1-.1-.5-.1-.5l-.3.1h-.3l-.7-.1c-.8-.1-2-.3-3.1-.3-6.8.1-7.1,4.3-7.1,5.1h0Zm16.6,0c0,3,2.7,4.3,5,5.4,2.8,1.3,4.7,2.4,4.7,4.5,0,1.5-1,3.3-3.8,3.3-.8,0-4.7-.2-5.8-4.3l-.2-.6c-.4,0-.6.1-.6.2l.1,1,.1,1.7v2.4h.6l.5.1.6.1c.8.1,2.3.4,4,.4,1.3,0,7.7-.2,7.7-5.2,0-3.2-2.9-4.5-5.3-5.6-3.4-1.6-4.8-2.4-4.8-4.4,0-.5.2-3,3.4-3,2.2,0,3.8,1.2,4.9,3.4l.2.4c.5,0,.6-.1.6-.1v-.2l-.2-2.7-.1-1.1c0-.1-.1-.5-.1-.5l-.3.1h-.3l-.7-.1c-.8-.1-2-.3-3.1-.3-6.8.1-7.1,4.3-7.1,5.1h0Zm25.9-14.1l-3.3.1-5.3-.2h-.2v.5c.1.1.6.1.9.2,2.5.4,2.7,1.5,2.7,4.5v6.5c0,3.7,0,9.3-.3,12-.2,1.5-.4,3.3-3.3,3.5l-.5.1v.6h.7c1-.1,3.4-.2,9.5-.2s8.3.1,9.3.2h.8c.2,0,.3-.1.5-1,1-3.5,1.2-5.5,1.2-6.1,0-.1,0-.2-.7-.2-.1,0-.2.4-.2.7-.4,1.4-1.2,3.2-2.7,4-1.6,1-4.8,1-7.6,1-1.8,0-2.8,0-3.1-1.3-.3-1.4-.4-6.2-.4-10.2,0-2.3,0-10,.4-11.8.3-1.7,1.4-2.2,3.3-2.3l.5-.1v-.4q0-.2-.2-.2s-2,.1-2,.1Zm18.5.3c0,.9,1.1,1.9,1.9,1.9,1,0,2.1-1.1,2.1-2.1,0-.9-1.1-2-2-2-.8.1-2,1.2-2,2.2Zm2.3,8.8l-2.7,1.2-2,.9-.1.1q-.3.2-.3.4v.2l.5.1c2.4.3,2.4,1.1,2.4,5.8,0,2.7,0,6.3-.4,7.5-.3,1.1-1,1.5-2.5,1.8q-.5.1-.5.4v.2h1.8l3.4-.1,3.7.1h1.3v-.6l-.4-.1c-1.7-.1-2.8-.2-3.1-1.7-.2-.7-.2-3.1-.2-7.3l.1-6.5.2-2.7c0-.1-.2-.1-.2-.1-.3.1-.7.2-1,.4Zm12.1-7.8c-2,2.5-2,4.3-2.1,8.1,0,.1-.1.2-.2.3l-2.4,1.1-.1.5v.2l2.3-.1q.1,0,.2.1t.1.2l-.1,12.2c-.1,2.5-.4,3.2-2.5,3.5l-.3.1v.6l1.3-.1,2.8-.1,4.5.1h1.6q.6,0,.6-.4v-.3h-.3c-3.1,0-4.1-.4-4.2-3.1l-.1-12.5q0-.1.1-.2.1-.1.2-.1h6.1q.3,0,.3-.8v-.8h-6.3c-.2,0-.3-.1-.3-.3,0-6.9.2-10.2,5.3-10.2,2.3,0,3.5.8,4.2,1.3l.4.3c.2.2.4.4.5.4.3,0,2.1-.8,2.1-1.6,0-1.1-1.8-2.6-5-2.6-4-.3-7.1,2-8.7,4.2h0Zm9.2,18.3c0,2,.5,8.6,7.5,8.6,3.2,0,6.1-1.5,7.5-2.8.4-.3.4-.4.4-.6l-.1-.4s-.1-.2-.1-.1c-2.3,1.7-4.8,1.9-5.7,1.9-5.4,0-6.2-5.4-6.3-7.7,0-.1.1-.3.2-.3,3.2-.7,7.4-1.5,11.8-2.2v-.1c0-.3-.1-1.1-.4-2.1-1-3.6-4-4.8-6.3-4.8-4.1.1-8.5,4-8.5,10.6h0Zm3.3-2.3q-.1-.1-.1-.2c0-3.5,1.4-7,4.2-7,2.4,0,4.3,2.7,4.3,4.4,0,.7-.5,1.1-1.8,1.4-3.2.8-4.4,1.1-6.3,1.4-.1.1-.2.1-.3,0h0Z" stroke-width="0"/><path d="m122.2,42.87c.3-2.6.2-5.4-.1-8.3,0-.2-.1-.3-.2-.4-.1-.1-.2-.1-.3-.1-2.4-.2-5-.3-7.9-.2-16.7.1-38.1,4.3-47.6,13.6-4.4,4.3-6.6,9.9-4.9,16.8,1.8,7.8,8.4,11.3,12.4,12.4,2.1.6,3.6.4,3.6.4,0,0,.3,0,.3-.1s-.2-.3-.2-.3c0,0-.7-.6-1.2-1.1-.4-.5-.7-.8-1-1.3-.6-1-1.3-2.3-1.8-4.1-1.1-3.8.1-7.5,2.9-10.3,4.7-4.9,15.2-8.2,33.4-8.1l10.1.2s.3,0,.4-.1.1-.1.2-.4c.7-1.7,1.6-4.9,1.9-8.6ZM88.6.37c-2.2-.4-5.8-.5-8.7-.2-2.3.2-5,.7-6.8,1.2-.2.1-.3.1-.4.2-.1,0-.1.1-.1.3-1.5,5.1-9.5,10.7-11.5,12.4-2.8,2.4-5.4,4.5-7.8,7-2,2.2-4.2,4.8-5.6,7.4-1.5,2.7-2.3,5.3-2.7,7.9-.4,2.2-.4,4.3-.3,5.9v.5c.2,2.3.6,3.3.7,3.5.1.2.1.4.3.4s.2-.3.2-.5c.1-.2.3-1.1.5-1.8.3-.9.4-1.3.7-2.2.8-2.3,2.3-5.6,5.4-9,9.4-10.4,19.7-12.5,28.3-20.3,5.4-5,7.1-9.6,8.2-12.1.1-.2.2-.3.1-.4-.1-.2-.2-.2-.5-.2Z" stroke-width="0"/><path d="m121.7,31.17c-.7-3.4-2.2-7.8-4.1-11-.4-.7-1.1-1.9-1.5-2.6-.2-.3-.1-.2-.2-.3-.2-.2-.6-.2-.6-.2-1.1-.1-3.6-.2-6.5-.2-5.2-.1-11.6.6-18.7,2-10.5,2-19.7,5.6-27.1,10.4-8,5.2-13.9,11-16.1,20.4-.4,1.5.6,4.1,1.6,6.2.6,1.3,1.3,2.3,2,3.3.1.1.2.3.3.2.1,0,.1-.1.1-.3.1-.7.3-2,1-3.8,1.2-3.3,4.1-10.4,16.1-16.2,8-3.9,16.7-5.7,24.7-6.6,12.6-1.5,22.2-1.6,28.8-.8.2,0,.4.1.4,0-.2-.2-.2-.3-.2-.5h0Z" stroke-width="0"/><path d="m114.8,36.97h-3.5v4h-4v3.5h4v4h3.5v-4h4.1v-3.5h-4.1v-4Z" stroke-width="0"/><path d="m17.5,114.27c-1.4,1-3.5,2-7.8,2-3.6,0-6.6-.7-7.3-.7-.5,0-.6.4-1.1.4-.4,0-.5-.1-.6-.8-.3-1.9-.7-5.6-.7-6.8,0-.4.3-.9,1.1-.9.3,0,.4.3.4.7.4,1.8,1.2,3.4,2.5,4.4,1.5,1.2,3.7,1.8,6.1,1.8,3.3,0,5.8-2.1,5.8-5.2s-2.1-4.2-6.7-6.3c-3.5-1.6-4.7-2.1-6.1-3.5-1.6-1.5-1.9-3.3-1.9-4.7,0-4.6,3.4-7.8,9.8-7.8,1.2,0,2.7.1,3.9.2,1.2.1,2.2.3,2.3.3.2,0,.3-.1.4-.2h.4c.3,0,.3.2.3.4,0,.3-.1,2.5,0,3.7.1.9.2,2.2.2,2.4,0,.4-.6.6-1,.6-.3,0-.3-.1-.5-.8-.4-1.3-.9-2.8-2.4-3.8-1.1-.8-2.7-1.2-4.3-1.2-3,0-5.3,1.8-5.3,4.9,0,3.3,2.1,4.2,7.3,6.5,3.6,1.6,7.8,3.4,7.8,8.4.3,2.9-1.1,4.9-2.6,6Zm34.5-16.1c-1,.5-2.6,3.4-3.8,5.5-1.1,2.1-2.9,6-4.3,9.1-.3.8-1,2.3-1.1,2.5-.2.4-.5.6-.9.6l-1.1.1c-.3,0-.4,0-.6-1-.5-2-1.7-5.8-3.3-10.1-3,5.9-3.7,7.3-5.1,10.5q-.2.5-.5.5l-1.6.2c-.2,0-.2-.1-.5-.8-1.5-4.4-4.1-11.2-5.8-14.8-.7-1.4-1.1-2-1.5-2.2-.5-.3-.6-.3-.6-.8,0-.4.1-.5.5-.5h7.9c.2,0,.2.3.2.6,0,.5,0,.6-.6.6-1.4.1-1.8.6-1.8,1.3,0,.8.8,2.8,1.4,4.7.7,1.8,1.4,3.8,2.9,7.5.8-1.7,3.3-6.8,4.2-8.8-.8-2.1-1.4-3.6-1.8-4.1-.4-.4-.7-.5-1.5-.6-.3,0-.3-.2-.3-.5,0-.4.1-.6.5-.6h8.3c.4,0,.5.2.5.6,0,.5,0,.6-.6.7-1.4.1-2.1.1-2.1,1.2,0,.8,2.9,9.7,3.8,12.1,1.3-2.9,2.9-6.3,3.8-8.4.5-1.2,1.2-2.8,1.2-3.7,0-1.2-1.1-1.3-2.1-1.4q-.6,0-.6-.5c0-.4,0-.6.4-.6h6.4c.3,0,.4.2.4.5.1.3,0,.4-.3.6h0Zm11.6,17.7c-.6,0-2.6-.1-4.8-.1-1.7,0-4.2.1-5.1.1-.3,0-.4-.1-.4-.5,0-.5.1-.6.7-.7,1.5-.3,2-.6,2.3-1.6.4-1.1.4-4.8.4-7.4,0-4.6,0-5.3-2.1-5.5-.7-.1-.8-.1-.8-.6s.2-.5.6-.8c.8-.4,3.6-1.7,4.7-2.1.4-.2.8-.3,1.1-.3s.4.1.4.4c0,.6-.1,2-.2,2.7,0,1-.1,3-.1,6.5,0,1.4,0,6.3.2,7.3.2,1.3,1.1,1.4,2.8,1.5.6,0,.7.1.7.6.1.4-.1.5-.4.5Zm-4.8-25.5c-1,0-2.2-1.2-2.2-2.2,0-1.2,1.4-2.4,2.4-2.4s2.3,1.2,2.3,2.3c-.1,1-1.3,2.3-2.5,2.3Zm13.2,25.9c-1.9,0-3.4-.3-4.2-.4-.4,0-.8-.1-.9-.1s-.4.1-.6.1c-.3,0-.4-.2-.4-.6v-2.2c0-.7-.2-2.3-.2-2.7s.4-.4.8-.4c.3,0,.3.1.5.8.9,3.4,3.9,4.1,5.5,4.1,2.9,0,3.5-1.9,3.5-3,0-1.9-1.6-2.9-4.5-4.2-2.5-1.2-5.2-2.5-5.2-5.6,0-2.1,1.4-5.3,7.3-5.3,1.6,0,3.5.4,3.8.4.1,0,.4-.1.6-.1.3,0,.3.1.4.8.1,1,.3,3,.3,3.8,0,.4-.1.5-.9.5-.2,0-.3-.1-.5-.6-.5-1.1-1.7-3.2-4.6-3.2-2.7,0-3.1,1.9-3.1,2.7,0,1.7,1.2,2.5,4.6,4.1,2.4,1.1,5.4,2.5,5.4,5.9.4,4.4-5,5.2-7.6,5.2h0Zm16.6,0c-1.9,0-3.4-.3-4.2-.4-.4,0-.8-.1-.9-.1s-.4.1-.6.1c-.3,0-.4-.2-.4-.6v-2.2c0-.7-.2-2.3-.2-2.7s.4-.4.8-.4c.3,0,.3.1.5.8.9,3.4,3.9,4.1,5.5,4.1,2.9,0,3.5-1.9,3.5-3,0-1.9-1.6-2.9-4.5-4.2-2.5-1.2-5.2-2.5-5.2-5.6,0-2.1,1.4-5.3,7.3-5.3,1.6,0,3.5.4,3.8.4.1,0,.4-.1.6-.1.3,0,.3.1.4.8.1,1,.3,3,.3,3.8,0,.4-.1.5-.9.5-.2,0-.3-.1-.5-.6-.5-1.1-1.7-3.2-4.6-3.2-2.7,0-3.1,1.9-3.1,2.7,0,1.7,1.2,2.5,4.6,4.1,2.4,1.1,5.4,2.5,5.4,5.9.4,4.4-5,5.2-7.6,5.2h0Zm32.7-1.6c-.3.9-.4,1.3-.8,1.3-.9,0-1.7-.2-10.1-.2-7.7,0-9.5.2-10,.2-.4,0-.5-.1-.5-.6q0-.6.8-.7c2.6-.2,2.8-1.7,3-3.3.3-2.8.3-8.4.3-12v-6.5c0-3-.2-3.9-2.5-4.2-1-.1-1.1-.2-1.1-.6,0-.6.1-.7.5-.7,1.4,0,4,.2,5.3.2,1.7,0,4.5-.2,5.6-.2.3,0,.5.1.5.5,0,.6,0,.7-.8.8-2,.1-2.8.6-3,2.1-.4,1.7-.4,8.8-.4,11.7,0,4.1,0,8.8.4,10.2.2,1.1.9,1.1,2.8,1.1,2.8,0,5.9,0,7.4-.9,1.2-.7,2-2.2,2.5-3.8.2-.6.3-1,.5-1,.8,0,1,.2,1,.5-.2.7-.5,2.7-1.4,6.1Zm13.1,1.2c-.6,0-2.6-.1-4.8-.1-1.7,0-4.2.1-5.1.1-.3,0-.4-.1-.4-.5,0-.5.1-.6.7-.7,1.5-.3,2-.6,2.3-1.6.4-1.1.4-4.8.4-7.4,0-4.6,0-5.3-2.1-5.5-.7-.1-.8-.1-.8-.6s.2-.5.6-.8c.8-.4,3.6-1.7,4.7-2.1.4-.2.8-.3,1.1-.3s.4.1.4.4c0,.6-.1,2-.2,2.7,0,1-.1,3-.1,6.5,0,1.4,0,6.3.2,7.3.2,1.3,1.1,1.4,2.8,1.5.6,0,.7.1.7.6.1.4,0,.5-.4.5h0Zm-4.7-25.5c-1,0-2.2-1.2-2.2-2.2,0-1.2,1.4-2.4,2.4-2.4s2.3,1.2,2.3,2.3c-.1,1-1.3,2.3-2.5,2.3Zm23.9-1.3c-.3,0-.5-.3-1.1-.8s-1.7-1.3-4-1.3c-4.8,0-5,2.9-5,10h6.3c.4,0,.4.1.4,1.1,0,.9,0,1.1-.6,1.1h-6.1c0,4.2,0,9.8.1,12.5.1,2.5.9,2.9,3.9,2.9.6,0,.6.1.6.6,0,.6-.1.7-.9.7-.7,0-3.9-.1-6-.1-1.5,0-3.4.1-4.1.1-.2,0-.3-.3-.3-.6,0-.5,0-.6.6-.7,1.9-.3,2.2-.7,2.3-3.2.1-2.9.1-8.9.1-12.1h-2.3c-.3,0-.3-.1-.3-.4,0-.5,0-.6.2-.7l2.4-1.1c.1-3.9.1-5.6,2.1-8.2,1.9-2.5,5.2-4.6,8.8-4.6,3.4,0,5.3,1.6,5.3,2.9,0,1-2.1,1.9-2.4,1.9Z" stroke-width="0"/><path d="m166.6,113.47c-1.7,1.5-4.6,2.9-7.7,2.9-6.4,0-7.8-5.5-7.8-8.9,0-7,4.7-10.8,9-10.8,2.1,0,5.5,1.1,6.6,5,.3,1.1.5,2.4.3,2.5-4,.6-8,1.4-12,2.2.1,3.1,1.3,7.5,6,7.5,1.4,0,3.7-.4,5.7-2,.1-.1.2-.2.3,0,0,.3.1.5.1.8s-.1.4-.5.8h0Zm-7.8-15.3c-2.6,0-3.8,3.4-3.9,6.7,1.9-.3,3-.6,6.3-1.4,1.4-.4,1.6-.7,1.6-1.2,0-1.5-1.8-4.1-4-4.1h0Z" stroke-width="0"/></svg>