<svg xmlns="http://www.w3.org/2000/svg" viewBox="0 0 395.25 57.21">
  <path
    d="M313.08.21c-2.36.21-2.75.63-1.22,1.31.48.22,1.17.54,1.54.73l.68.33,0,1.27c0,.7-.05,1.34-.06,1.42-.18,1,.3,1.16.87.35a3.27,3.27,0,0,1,.49-.62c.06,0,.6-.84,1.19-1.75S317.79,1.4,318,1.18c1.06-1.2,0-1.41-4.9-1m-2.75,2.91a12.2,12.2,0,0,0-1.83,1.35c-.14.12-.7.56-1.25,1a75,75,0,0,0-10.81,10.79c-.35.47-.89,1.13-1.21,1.47a3.39,3.39,0,0,0-.56.72,12,12,0,0,1-.89,1.3,56.73,56.73,0,0,0-3.7,5.61c-.35.6-.89,1.48-1.19,2a4.82,4.82,0,0,0-.56,1,.71.71,0,0,1-.21.37,26.78,26.78,0,0,0-1.36,2.47c-.62,1.24-1.19,2.33-1.27,2.42-.32.41-3,6.7-3.57,8.34-.34,1-.67,1.9-.73,2a1.23,1.23,0,0,0-.11.42.9.9,0,0,1-.11.42c-.74,1.16-1.75,9.58-1.14,9.58a2.17,2.17,0,0,1,.31.78c.66,2.46,3.3,2.78,7.13.85,1.9-1,3.75-2,4-2.17.12-.09.21-.1.21,0s.06.06.13,0a9.4,9.4,0,0,1,2.18-1.41.18.18,0,0,0,.19-.15c0-.08.13-.19.29-.25a8.67,8.67,0,0,0,1.29-.85c.55-.41,1.41-1,1.92-1.35s.95-.66,1-.71A31.5,31.5,0,0,1,301,47a8.81,8.81,0,0,0,.91-.83c1-1,.92-1.17-.91-1.17h-1.39l-1.31,1a19.45,19.45,0,0,1-2.12,1.39l-2.14,1.1a21.2,21.2,0,0,1-4.58,1.74c0-.06-.11,0-.24.1a6.62,6.62,0,0,1-3.23.19c-1.74-.93-1.29-7,.88-11.93.12-.28.27-.69.34-.92s.35-.9.62-1.5.63-1.38.8-1.75a16.41,16.41,0,0,1,1.46-3c.14-.16.2-.29.13-.29s0-.2.2-.46a12.85,12.85,0,0,0,.66-1.12A23.41,23.41,0,0,1,292.55,27a8,8,0,0,0,.61-1c.45-.84,3.24-5.06,3.8-5.75l.55-.75a5.86,5.86,0,0,1,.7-.85c.15-.15.23-.32.18-.38s0-.11.08-.11a.2.2,0,0,0,.2-.21,2.87,2.87,0,0,1,.57-.87l2.31-2.75a73.32,73.32,0,0,1,6.68-6.92l1-.83a23.48,23.48,0,0,1,2-1.47,1.07,1.07,0,0,0,0-1.77c-.47-.36-.5-.37-.9-.22M298.5,6.84c-1.85.43-3.84.84-3.94.82a.26.26,0,0,0-.21.12,3.13,3.13,0,0,1-.85.46,9.49,9.49,0,0,0-1.21.63c-.25.18-.46.27-.46.21s-.16.06-.36.24a1.24,1.24,0,0,1-.55.34,1.08,1.08,0,0,0-.51.3,7.72,7.72,0,0,1-.7.55,20,20,0,0,0-3,3l-1.05,1.29c-1.42,1.76-2.92,6.26-3.09,9.31-.22,3.76,1.2,9.63,2.05,8.48a27.38,27.38,0,0,0,2-3.67.83.83,0,0,1,.34-.53c.12-.05.19-.15.14-.22a.17.17,0,0,1,.07-.24c.44-.27.84-1.58.92-3a14,14,0,0,1,2.59-7.48,19.89,19.89,0,0,1,3.07-2.91.88.88,0,0,0,.49-.31c.27-.29.6-.46,2.86-1.44a7,7,0,0,0,2.34-1.81c.73-.76,2-2,2.74-2.67,1-.88,1.35-1.33,1.21-1.42a23.14,23.14,0,0,0-4.87,0m8.11,3.4c-2.28,2.22-2.3,2.28-.69,2.91A13,13,0,0,1,308.25,36a4.63,4.63,0,0,0-.72.49c-2.31,2.14-10.65,2.06-13.11-.12a4.69,4.69,0,0,0-.61-.45,10.36,10.36,0,0,1-2.44-2.13.73.73,0,0,0-.42-.26A15.69,15.69,0,0,0,289.13,38c0,.07,0,.12-.13.12-.46,0-.15,1,.46,1.45l.71.55a7.73,7.73,0,0,0,1.23.84,5.61,5.61,0,0,1,.86.49,5.36,5.36,0,0,0,1.25.59,7,7,0,0,1,1.16.44c5.54,2.67,14.09.89,19.19-4a18.54,18.54,0,0,0,3.62-22,19.14,19.14,0,0,0-5.9-6.67c-.55-.36-1-.69-1.08-.75a7,7,0,0,0-1.72-.82,16.38,16.38,0,0,0-2.17,1.91M252.08,9a1.5,1.5,0,0,1-.7.06c-.21,0-.38,0-.38.11s-.13.17-.29.17a9.3,9.3,0,0,0-2.8,1.06.93.93,0,0,1-.39.27,14.57,14.57,0,0,0-2.64,2.75c-.13.28-.38.77-.55,1.09a4.55,4.55,0,0,0-.43,1.2c-.06.35-.16.63-.22.63a18.37,18.37,0,0,0-.17,4.67,10.47,10.47,0,0,0,2.54,5.12c1.26,1.23,1.61,1.54,1.7,1.54a2.54,2.54,0,0,1,.54.23c2.64,1.35,3.25,1.42,12.29,1.43,7.61,0,8,0,8.68.35s1.55,1.51,1.45,1.87c0,.07,0,.12.14.12s.16.42.12,1.29A3.23,3.23,0,0,1,269.29,36l-.71.38-12.37.05-12.38,0V43l12.88,0,12.87-.06,1.25-.46c4.58-1.69,6.68-4.76,6.67-9.75,0-2.2-.84-5-1.82-6-3.49-3.79-4.27-4-14.9-4-4.36,0-8-.07-8.45-.16-2.37-.51-3.16-3.93-1.39-6,.22-.26.39-.41.39-.34s.11,0,.24-.2.59-.32,11.54-.4l11.31-.09,0-2.91c0-1.61,0-3.09,0-3.3l-.09-.37h-11c-6,0-11.1.07-11.29.15M328,9a2.19,2.19,0,0,0-.79.4,1.27,1.27,0,0,1-.49.29c-.09,0-.35.4-.59.88l-.42.88,0,15.75,0,15.74h6.33l.05-13.71,0-13.7h12.16c11.85,0,12.16,0,12.33-.33a15.26,15.26,0,0,0,.17-3,15.42,15.42,0,0,0-.17-3c-.17-.32-27.33-.49-28.7-.18m34,.23c-.05.21-.07,1.69,0,3.3l.05,2.91,6.7.05,6.71,0,0,13.71.05,13.7,3.2.05,3.21,0V15.5l6.71,0,6.71-.05V8.91l-16.62,0L362,8.83l-.1.37M334.37,22.77c-.31.13-.29,6.11,0,6.37s2.89.18,9.88.15l9.65,0v-6.5l-9.67,0c-5.32,0-9.76,0-9.88.05" />
  <path
    d="M0,12.16V15.5H13.5V43h6.67V15.5h13.5V8.83H0v3.33M43,9c0,.1-.06.16-.13.14a2.08,2.08,0,0,0-1.29.86c0,.19-.16.34-.24.34-.46,0-.51,1.44-.51,16.86V43H47.5V15.5H57.72c7.72,0,10.26.05,10.41.2.37.36.26,5.9-.12,6.71a4.54,4.54,0,0,1-2.87,2.48l-1.28.44H49.33l0,3.37.05,3.38,2.23.05a7.07,7.07,0,0,1,2.54.27,21.37,21.37,0,0,1,2.36,2.05,2.08,2.08,0,0,0,.67.55c.16,0,.42.22,1.64,1.38.31.28,1.06.94,1.67,1.44s2.21,1.88,3.56,3L66.55,43h5c5.67,0,5.78,0,4.19-1.24-.44-.32-1.43-1.16-2.21-1.85s-1.87-1.63-2.42-2.09-1.22-1-1.5-1.3-.87-.79-1.33-1.18S67,34.26,66.47,33.8s-1.15-1-1.39-1.17c-.5-.39-.21-.78.59-.79A10.05,10.05,0,0,0,69,30.78a9.79,9.79,0,0,1,1.13-.61c.3-.12.55-.27.55-.35s.14-.18.3-.23c1.28-.41,3.5-4.09,3.85-6.38a51.21,51.21,0,0,0,0-9c-.46-1.91-2.15-4.05-3.55-4.5a5.15,5.15,0,0,1-1-.47C69.66,8.86,43,8.67,43,9M97.58,9a.66.66,0,0,1-.46,0,.37.37,0,0,0-.34.09,6.22,6.22,0,0,1-1.58.43,11.69,11.69,0,0,0-3.87,1.57c-.23.16-.68.43-1,.62a15.76,15.76,0,0,0-4,3.91c-.24.42-.65,1.05-.9,1.4a3,3,0,0,0-.47.81,5.23,5.23,0,0,1-.42,1c-1,2-1.16,3.9-1.16,14.47v9.58l3.2.05,3.21,0V34.83H111V43h6.67V27.2c0-8.86-.07-15.87-.15-16a3.06,3.06,0,0,1-.35-.79,1.42,1.42,0,0,0-.73-.9,2.15,2.15,0,0,1-.64-.45c-.15-.22-17.69-.33-18.22-.11m26.09.16a20.12,20.12,0,0,0,1.84,4,.27.27,0,0,1,.16.26,7.7,7.7,0,0,0,.56,1.36c.31.63.73,1.55.94,2a2.56,2.56,0,0,0,.49.87c.07,0,.26.34.41.75a8.43,8.43,0,0,0,.69,1.34,2.6,2.6,0,0,1,.41.82,29.41,29.41,0,0,0,2.17,4.35.49.49,0,0,1,.16.39,24.72,24.72,0,0,0,1.81,3.78,5.73,5.73,0,0,1,.43.83c.15.36.87,1.86,1.59,3.33s1.59,3.26,1.93,4a10,10,0,0,0,.72,1.41,13.28,13.28,0,0,1,.76,1.5c1,2.12,1.18,2.42,2,2.84l1.08.52c.4.2,1.3.18,1.3,0s.17-.17.39-.17a3.58,3.58,0,0,0,2.13-1.75c.12-.32.26-.58.32-.58s.21-.25.33-.55.55-1.23.94-2.08a14.89,14.89,0,0,0,.72-1.69.23.23,0,0,1,.14-.21,10.89,10.89,0,0,0,.93-1.72c.43-.92,1-2,1.18-2.42,1.08-2.07,3.42-6.91,3.42-7.08a.8.8,0,0,1,.23-.35,4.94,4.94,0,0,0,.6-1.2,6.68,6.68,0,0,1,.56-1.2,8.07,8.07,0,0,0,.61-1.17,5.2,5.2,0,0,1,.53-1,7.19,7.19,0,0,0,.8-1.92.88.88,0,0,1,.26-.48,5.8,5.8,0,0,0,.69-1.31,5.17,5.17,0,0,1,.55-1.12,18,18,0,0,0,1.11-2.17c.54-1.15,1-2.2,1.14-2.33a4.6,4.6,0,0,0,.75-1.79V8.83h-3.67c-3,0-3.66,0-3.66.23a1.47,1.47,0,0,1-.31.62,7.85,7.85,0,0,0-.7,1.36,3,3,0,0,1-.5,1,3.78,3.78,0,0,0-.57,1c-.25.57-1,2.16-1.71,3.54s-1.43,3-1.66,3.5a5.48,5.48,0,0,1-.55,1.08,19,19,0,0,0-.91,1.75c-.89,1.88-3,6.14-4,8.21-.81,1.62-.82,1.63-1.18.5a8.94,8.94,0,0,0-.58-1.37c-.61-1-4.51-8.94-5.35-10.88a2.4,2.4,0,0,0-.52-.87.15.15,0,0,1-.14-.15,12.07,12.07,0,0,0-.65-1.55c-.35-.76-.77-1.68-.92-2.05a3,3,0,0,0-.4-.75,6.25,6.25,0,0,1-.53-1,6.79,6.79,0,0,0-.7-1.23,1.19,1.19,0,0,1-.3-.65,4.14,4.14,0,0,0-.87-1.81c-.07,0-.13-.11-.13-.25s-.52-.25-3.67-.25c-3.52,0-3.66,0-3.66.32M169.83,9c0,.09-.05.15-.12.13C169.4,9,168.2,10,168,10.52c-.43,1-.33,25.61.11,26.81A9,9,0,0,0,172,42c1.94,1,2.14,1,15.1,1h11.76V36.33H187.44c-8.07,0-11.55-.06-11.93-.19-1-.35-1-.27-1-11V15.5h24.33V8.83h-14.5c-9.55,0-14.5.06-14.5.17m36,15.87,0,16,.47.72c.93,1.44-.11,1.36,16.4,1.36h14.54V36.33H212.5V8.83h-6.67l0,16m-94.87-3v6.33H89.78l.11-2.2a10.39,10.39,0,0,1,.28-2.37.76.76,0,0,0,.16-.47A9,9,0,0,1,91.69,20a2.75,2.75,0,0,0,.48-.72c0-.51,2.32-2.19,3.83-2.77.5-.2,1.08-.44,1.29-.54.73-.38,1.73-.44,7.67-.45l6,0v6.33m65.33,4.08v3.42h19.84l0-3.38,0-3.37-9.87,0-9.88-.05v3.42" />
</svg>
