<svg id="svg" version="1.1" xmlns="http://www.w3.org/2000/svg" viewBox="0, 0, 400,57.2265625"><path id="path0" d="M313.750 0.214 C 311.383 0.425,310.999 0.839,312.531 1.528 C 313.006 1.742,313.700 2.068,314.072 2.252 L 314.750 2.588 314.715 3.857 C 314.696 4.555,314.668 5.192,314.654 5.272 C 314.478 6.234,314.960 6.430,315.522 5.625 C 315.730 5.327,315.951 5.046,316.013 5.000 C 316.075 4.954,316.614 4.167,317.210 3.250 C 317.806 2.333,318.453 1.403,318.647 1.183 C 319.703 -0.015,318.656 -0.223,313.750 0.214 M311.000 3.121 C 310.770 3.208,309.772 3.944,309.170 4.471 C 309.030 4.593,308.467 5.032,307.917 5.446 C 304.926 7.697,299.349 13.264,297.109 16.234 C 296.757 16.701,296.213 17.361,295.901 17.701 C 295.589 18.041,295.333 18.365,295.333 18.422 C 295.333 18.478,294.934 19.063,294.445 19.721 C 293.036 21.618,292.014 23.169,290.747 25.333 C 290.398 25.929,289.862 26.809,289.556 27.289 C 289.250 27.769,289.000 28.232,289.000 28.319 C 289.000 28.405,288.903 28.575,288.784 28.696 C 288.665 28.818,288.056 29.929,287.431 31.167 C 286.806 32.404,286.235 33.492,286.162 33.583 C 285.835 33.997,283.140 40.281,282.585 41.923 C 282.246 42.928,281.920 43.825,281.861 43.917 C 281.803 44.008,281.753 44.196,281.750 44.333 C 281.747 44.471,281.697 44.659,281.637 44.752 C 280.897 45.910,279.891 54.333,280.493 54.333 C 280.551 54.333,280.691 54.682,280.805 55.109 C 281.464 57.573,284.109 57.889,287.934 55.963 C 289.839 55.004,291.692 54.004,291.958 53.792 C 292.073 53.701,292.168 53.691,292.169 53.771 C 292.171 53.851,292.227 53.837,292.294 53.739 C 292.473 53.479,294.252 52.333,294.476 52.333 C 294.581 52.333,294.667 52.267,294.667 52.186 C 294.667 52.105,294.798 51.992,294.958 51.936 C 295.119 51.879,295.700 51.497,296.250 51.087 C 296.800 50.677,297.662 50.067,298.167 49.732 C 298.671 49.397,299.121 49.076,299.167 49.019 C 299.318 48.831,301.619 47.000,301.703 47.000 C 301.749 47.000,302.159 46.627,302.614 46.171 C 303.646 45.140,303.537 45.000,301.708 45.000 L 300.316 45.000 299.002 45.989 C 298.279 46.532,297.326 47.159,296.885 47.381 C 296.444 47.602,295.483 48.100,294.750 48.486 C 293.466 49.162,290.167 50.409,290.167 50.219 C 290.167 50.168,290.057 50.217,289.923 50.328 C 289.575 50.617,287.149 50.758,286.697 50.516 C 284.958 49.586,285.408 43.463,287.574 38.583 C 287.696 38.308,287.852 37.896,287.920 37.667 C 287.989 37.438,288.268 36.762,288.541 36.167 C 288.814 35.571,289.170 34.783,289.333 34.417 C 290.232 32.394,290.564 31.721,290.795 31.458 C 290.936 31.298,290.997 31.167,290.931 31.167 C 290.865 31.167,290.953 30.960,291.126 30.708 C 291.299 30.456,291.595 29.950,291.783 29.583 C 292.501 28.182,293.017 27.256,293.218 27.008 C 293.333 26.866,293.608 26.412,293.829 26.000 C 294.277 25.164,297.067 20.942,297.630 20.250 C 297.704 20.158,297.949 19.821,298.174 19.500 C 298.399 19.180,298.713 18.797,298.872 18.650 C 299.031 18.503,299.112 18.334,299.053 18.275 C 298.993 18.215,299.032 18.167,299.139 18.167 C 299.246 18.167,299.334 18.073,299.335 17.958 C 299.337 17.844,299.593 17.450,299.906 17.083 C 300.219 16.717,301.258 15.479,302.215 14.333 C 304.081 12.100,307.565 8.494,308.901 7.412 C 309.351 7.048,309.802 6.675,309.905 6.583 C 310.249 6.276,311.412 5.410,311.875 5.116 C 312.508 4.715,312.518 3.836,311.894 3.345 C 311.430 2.981,311.395 2.972,311.000 3.121 M299.167 6.841 C 297.320 7.269,295.324 7.686,295.230 7.664 C 295.170 7.650,295.075 7.703,295.019 7.782 C 294.963 7.861,294.579 8.070,294.167 8.246 C 293.754 8.421,293.210 8.706,292.958 8.877 C 292.706 9.049,292.500 9.144,292.500 9.088 C 292.500 9.033,292.336 9.140,292.135 9.327 C 291.935 9.514,291.686 9.667,291.583 9.667 C 291.480 9.667,291.251 9.801,291.073 9.964 C 290.895 10.128,290.584 10.377,290.381 10.517 C 289.669 11.010,288.239 12.427,287.369 13.500 C 286.886 14.096,286.415 14.677,286.322 14.793 C 284.893 16.553,283.397 21.049,283.224 24.101 C 283.011 27.860,284.430 33.729,285.275 32.583 C 285.750 31.938,287.158 29.341,287.267 28.909 C 287.327 28.669,287.479 28.434,287.604 28.386 C 287.729 28.338,287.793 28.236,287.746 28.161 C 287.700 28.085,287.731 27.980,287.816 27.927 C 288.262 27.652,288.662 26.341,288.741 24.893 C 288.892 22.134,289.974 19.004,291.325 17.417 C 292.216 16.369,294.183 14.500,294.394 14.500 C 294.516 14.500,294.739 14.363,294.891 14.195 C 295.155 13.904,295.487 13.736,297.750 12.756 C 298.510 12.427,299.070 11.991,300.083 10.941 C 300.817 10.181,302.052 8.979,302.829 8.271 C 303.788 7.396,304.175 6.941,304.035 6.855 C 303.757 6.683,299.897 6.672,299.167 6.841 M307.274 10.244 C 304.992 12.459,304.978 12.520,306.583 13.151 C 313.560 15.889,316.749 24.266,313.362 30.958 C 312.342 32.973,310.440 35.121,308.922 35.973 C 308.650 36.125,308.323 36.346,308.197 36.463 C 305.886 38.604,297.549 38.526,295.083 36.341 C 294.900 36.178,294.629 35.979,294.481 35.898 C 293.809 35.529,292.628 34.499,292.035 33.766 C 291.917 33.620,291.729 33.502,291.618 33.504 C 291.341 33.510,289.687 37.635,289.799 38.042 C 289.818 38.110,289.758 38.167,289.667 38.167 C 289.205 38.167,289.521 39.165,290.125 39.616 C 290.469 39.872,290.787 40.119,290.833 40.166 C 290.998 40.332,291.988 41.000,292.071 41.000 C 292.117 41.000,292.503 41.221,292.929 41.491 C 293.354 41.761,293.916 42.028,294.177 42.086 C 294.439 42.143,294.962 42.339,295.339 42.522 C 300.873 45.196,309.424 43.415,314.530 38.526 C 320.477 32.832,321.999 23.598,318.149 16.569 C 316.642 13.816,314.435 11.322,312.250 9.901 C 311.700 9.544,311.212 9.209,311.167 9.158 C 311.010 8.983,309.657 8.333,309.449 8.333 C 309.336 8.333,308.357 9.193,307.274 10.244 M252.750 8.990 C 252.567 9.063,252.248 9.094,252.042 9.058 C 251.835 9.023,251.667 9.070,251.667 9.163 C 251.667 9.257,251.535 9.335,251.375 9.337 C 250.890 9.343,248.865 10.111,248.578 10.398 C 248.430 10.546,248.256 10.667,248.191 10.667 C 247.954 10.667,245.778 12.930,245.547 13.417 C 245.416 13.692,245.167 14.179,244.994 14.500 C 244.820 14.821,244.628 15.365,244.568 15.708 C 244.507 16.052,244.409 16.333,244.351 16.333 C 244.154 16.333,244.023 19.800,244.175 21.000 C 244.378 22.604,245.565 24.996,246.715 26.120 C 247.975 27.352,248.323 27.667,248.418 27.663 C 248.465 27.661,248.709 27.765,248.960 27.894 C 251.597 29.243,252.208 29.314,261.245 29.328 C 268.862 29.339,269.273 29.355,269.923 29.670 C 270.549 29.973,271.482 31.179,271.372 31.542 C 271.351 31.610,271.416 31.667,271.518 31.667 C 271.642 31.667,271.681 32.087,271.637 32.958 C 271.559 34.529,271.057 35.450,269.959 36.038 L 269.250 36.417 256.875 36.462 L 244.500 36.508 244.500 39.760 L 244.500 43.012 257.375 42.959 L 270.250 42.907 271.500 42.445 C 276.074 40.757,278.173 37.686,278.164 32.694 C 278.160 30.493,277.326 27.720,276.348 26.659 C 272.858 22.871,272.076 22.661,261.450 22.658 C 257.085 22.656,253.425 22.584,253.000 22.492 C 250.628 21.979,249.841 18.561,251.607 16.446 C 251.823 16.186,252.000 16.032,252.000 16.102 C 252.000 16.173,252.106 16.085,252.237 15.907 C 252.466 15.594,252.830 15.581,263.778 15.500 L 275.083 15.417 275.131 12.500 C 275.157 10.896,275.137 9.415,275.086 9.208 L 274.994 8.833 264.038 8.845 C 258.013 8.851,252.933 8.917,252.750 8.990 M328.628 8.978 C 328.378 9.036,328.020 9.215,327.834 9.375 C 327.648 9.535,327.428 9.667,327.344 9.667 C 327.260 9.667,326.998 10.062,326.761 10.545 L 326.332 11.424 326.374 27.170 L 326.417 42.917 329.583 42.917 L 332.750 42.917 332.793 29.208 L 332.835 15.500 344.995 15.500 C 356.847 15.500,357.159 15.492,357.327 15.178 C 357.426 14.994,357.500 13.701,357.500 12.167 C 357.500 10.632,357.426 9.340,357.327 9.156 C 357.153 8.831,329.993 8.662,328.628 8.978 M362.581 9.208 C 362.530 9.414,362.510 10.896,362.536 12.500 L 362.583 15.417 369.291 15.460 L 375.998 15.504 376.041 29.210 L 376.083 42.917 379.292 42.962 L 382.500 43.007 382.500 29.255 L 382.500 15.504 389.208 15.460 L 395.917 15.417 395.917 12.167 L 395.917 8.917 379.295 8.874 L 362.673 8.832 362.581 9.208 M335.042 22.776 C 334.727 22.904,334.745 28.886,335.060 29.148 C 335.225 29.284,337.948 29.324,344.935 29.293 L 354.583 29.250 354.583 26.000 L 354.583 22.750 344.917 22.721 C 339.600 22.705,335.156 22.730,335.042 22.776 "></path><path id="path1" d="M0.667 12.167 L 0.667 15.500 7.417 15.500 L 14.167 15.500 14.167 29.250 L 14.167 43.000 17.500 43.000 L 20.833 43.000 20.833 29.250 L 20.833 15.500 27.583 15.500 L 34.333 15.500 34.333 12.167 L 34.333 8.833 17.500 8.833 L 0.667 8.833 0.667 12.167 M43.667 8.996 C 43.667 9.090,43.610 9.151,43.542 9.132 C 43.276 9.060,42.352 9.680,42.251 9.998 C 42.192 10.183,42.082 10.333,42.005 10.333 C 41.543 10.333,41.500 11.772,41.500 27.192 L 41.500 43.000 44.833 43.000 L 48.167 43.000 48.167 29.250 L 48.167 15.500 58.383 15.500 C 66.107 15.500,68.649 15.549,68.800 15.700 C 69.167 16.067,69.062 21.604,68.673 22.417 C 68.076 23.664,67.209 24.413,65.807 24.895 L 64.531 25.333 57.262 25.333 L 49.993 25.333 50.038 28.708 L 50.083 32.083 52.312 32.130 C 53.839 32.162,54.642 32.247,54.860 32.400 C 55.439 32.805,56.702 33.908,57.219 34.458 C 57.499 34.756,57.802 35.000,57.892 35.000 C 58.049 35.000,58.311 35.221,59.531 36.379 C 59.835 36.668,60.582 37.319,61.192 37.827 C 61.802 38.335,63.406 39.706,64.757 40.875 L 67.213 43.000 72.190 43.000 C 77.855 43.000,77.966 42.967,76.375 41.767 C 75.940 41.439,74.946 40.605,74.167 39.914 C 73.387 39.224,72.300 38.285,71.750 37.828 C 71.200 37.371,70.525 36.783,70.250 36.522 C 69.975 36.260,69.375 35.729,68.917 35.340 C 68.458 34.952,67.655 34.261,67.132 33.805 C 66.609 33.349,65.987 32.823,65.749 32.636 C 65.248 32.242,65.536 31.849,66.334 31.839 C 67.029 31.830,69.017 31.199,69.653 30.786 C 69.981 30.572,70.494 30.299,70.792 30.178 C 71.090 30.058,71.333 29.899,71.333 29.824 C 71.333 29.750,71.472 29.645,71.642 29.591 C 72.917 29.186,75.135 25.507,75.484 23.218 C 75.743 21.515,75.710 15.315,75.435 14.167 C 74.978 12.255,73.287 10.109,71.889 9.665 C 71.537 9.554,71.063 9.340,70.833 9.190 C 70.331 8.861,43.667 8.670,43.667 8.996 M98.250 8.989 C 98.067 9.064,97.857 9.090,97.784 9.048 C 97.712 9.006,97.562 9.046,97.451 9.138 C 97.340 9.230,96.629 9.423,95.870 9.567 C 94.605 9.806,93.059 10.433,91.994 11.137 C 91.762 11.291,91.320 11.567,91.012 11.750 C 89.822 12.459,87.690 14.560,87.038 15.667 C 86.795 16.079,86.387 16.709,86.132 17.067 C 85.876 17.424,85.667 17.788,85.667 17.876 C 85.667 17.963,85.480 18.406,85.252 18.860 C 84.235 20.886,84.083 22.759,84.083 33.333 L 84.083 42.917 87.292 42.962 L 90.500 43.007 90.500 38.920 L 90.500 34.833 101.083 34.833 L 111.667 34.833 111.667 38.917 L 111.667 43.000 115.000 43.000 L 118.333 43.000 118.333 27.200 C 118.333 18.345,118.269 11.330,118.187 11.242 C 118.106 11.155,117.950 10.801,117.840 10.455 C 117.703 10.028,117.471 9.741,117.111 9.557 C 116.821 9.408,116.530 9.204,116.464 9.102 C 116.322 8.880,98.782 8.771,98.250 8.989 M124.333 9.158 C 124.333 9.548,125.963 13.060,126.181 13.139 C 126.265 13.169,126.333 13.286,126.333 13.399 C 126.333 13.511,126.588 14.124,126.899 14.760 C 127.209 15.396,127.631 16.310,127.836 16.792 C 128.040 17.273,128.263 17.667,128.331 17.667 C 128.399 17.667,128.582 18.001,128.739 18.410 C 128.895 18.819,129.205 19.422,129.428 19.751 C 129.651 20.079,129.833 20.452,129.833 20.578 C 129.833 20.876,131.788 24.786,132.003 24.919 C 132.093 24.974,132.167 25.151,132.167 25.311 C 132.167 25.584,133.661 28.708,133.977 29.094 C 134.056 29.191,134.249 29.566,134.405 29.927 C 134.561 30.288,135.279 31.783,136.000 33.250 C 136.722 34.717,137.587 36.517,137.924 37.250 C 138.260 37.983,138.585 38.621,138.646 38.667 C 138.707 38.712,139.048 39.387,139.403 40.167 C 140.368 42.283,140.584 42.580,141.457 43.003 C 141.893 43.213,142.380 43.449,142.539 43.526 C 142.940 43.721,143.833 43.703,143.833 43.500 C 143.833 43.408,144.010 43.333,144.226 43.333 C 144.811 43.333,146.109 42.267,146.356 41.584 C 146.472 41.263,146.618 41.000,146.680 41.000 C 146.742 41.000,146.891 40.756,147.011 40.458 C 147.131 40.160,147.552 39.222,147.948 38.374 C 148.343 37.525,148.667 36.763,148.667 36.680 C 148.667 36.596,148.729 36.503,148.806 36.472 C 148.882 36.442,149.299 35.667,149.733 34.750 C 150.166 33.833,150.697 32.746,150.912 32.333 C 151.995 30.259,154.333 25.420,154.333 25.254 C 154.333 25.193,154.440 25.036,154.571 24.905 C 154.702 24.774,154.970 24.236,155.167 23.708 C 155.364 23.181,155.617 22.637,155.729 22.500 C 155.841 22.363,156.116 21.837,156.340 21.333 C 156.563 20.829,156.799 20.378,156.863 20.330 C 157.027 20.207,157.667 18.684,157.667 18.415 C 157.667 18.291,157.784 18.073,157.928 17.929 C 158.072 17.785,158.380 17.199,158.613 16.625 C 158.845 16.052,159.096 15.545,159.170 15.499 C 159.244 15.453,159.743 14.478,160.279 13.333 C 160.815 12.187,161.326 11.137,161.415 11.000 C 161.837 10.341,162.167 9.560,162.167 9.215 L 162.167 8.833 158.500 8.833 C 155.513 8.833,154.833 8.875,154.833 9.061 C 154.833 9.186,154.696 9.467,154.528 9.686 C 154.360 9.904,154.046 10.515,153.831 11.042 C 153.615 11.569,153.388 12.000,153.325 12.000 C 153.263 12.000,153.007 12.469,152.756 13.042 C 152.505 13.615,151.738 15.208,151.051 16.583 C 150.365 17.958,149.614 19.533,149.383 20.083 C 149.152 20.633,148.908 21.121,148.842 21.167 C 148.775 21.212,148.365 22.000,147.930 22.917 C 147.038 24.797,144.964 29.058,143.934 31.123 C 143.125 32.746,143.119 32.749,142.754 31.625 C 142.598 31.144,142.337 30.525,142.173 30.250 C 141.567 29.229,137.672 21.310,136.824 19.375 C 136.613 18.894,136.379 18.500,136.304 18.500 C 136.228 18.500,136.167 18.432,136.167 18.350 C 136.167 18.267,135.875 17.574,135.519 16.808 C 135.162 16.043,134.747 15.119,134.596 14.756 C 134.444 14.392,134.266 14.055,134.200 14.006 C 134.134 13.957,133.896 13.516,133.671 13.026 C 133.446 12.536,133.128 11.980,132.964 11.792 C 132.800 11.603,132.667 11.312,132.667 11.146 C 132.667 10.767,131.981 9.333,131.800 9.333 C 131.727 9.333,131.667 9.221,131.667 9.083 C 131.667 8.869,131.148 8.833,128.000 8.833 C 124.476 8.833,124.333 8.846,124.333 9.158 M170.500 9.000 C 170.500 9.092,170.444 9.151,170.375 9.131 C 170.070 9.043,168.866 10.019,168.651 10.527 C 168.218 11.555,168.318 36.134,168.761 37.333 C 169.479 39.279,171.007 41.106,172.633 41.963 C 174.575 42.986,174.777 43.000,187.741 43.000 L 199.500 43.000 199.500 39.667 L 199.500 36.333 188.108 36.333 C 180.038 36.333,176.558 36.278,176.174 36.144 C 175.159 35.790,175.167 35.876,175.167 25.172 L 175.167 15.500 187.333 15.500 L 199.500 15.500 199.500 12.167 L 199.500 8.833 185.000 8.833 C 175.444 8.833,170.500 8.890,170.500 9.000 M206.539 24.875 L 206.583 40.917 207.052 41.638 C 207.988 43.078,206.947 42.992,223.458 42.996 L 238.000 43.000 238.000 39.667 L 238.000 36.333 225.583 36.333 L 213.167 36.333 213.167 22.583 L 213.167 8.833 209.831 8.833 L 206.495 8.833 206.539 24.875 M111.667 21.833 L 111.667 28.167 101.058 28.167 L 90.449 28.167 90.560 25.964 C 90.621 24.753,90.745 23.688,90.836 23.598 C 90.926 23.507,91.000 23.292,91.000 23.120 C 91.000 22.586,91.860 20.613,92.359 20.004 C 92.620 19.685,92.833 19.362,92.833 19.286 C 92.833 18.772,95.157 17.089,96.667 16.509 C 97.171 16.316,97.750 16.073,97.953 15.970 C 98.690 15.596,99.685 15.538,105.625 15.519 L 111.667 15.500 111.667 21.833 M177.000 25.915 L 177.000 29.333 186.920 29.333 L 196.840 29.333 196.795 25.958 L 196.750 22.583 186.875 22.540 L 177.000 22.497 177.000 25.915 "></path></svg>