<svg xmlns="http://www.w3.org/2000/svg" viewBox="0 0 150 39.52">
  <polygon points="83.91 8.74 79.89 0 66.11 0 74.58 17.48 83.91 8.74" />
  <path
    d="M116.59,0H92L58.31,39.52H71.72L80.52,29l4.85,10.5h23.11l3.11-17.61,2.8,9.72,8.39-10.09ZM97.72,36.37l-8.2-17.45,14.17-16.4Z" />
  <polygon points="137.61 0 115.11 34.14 126.4 34.14 134.96 20.78 131.65 39.52 143.03 39.52 150 0 137.61 0" />
  <path
    d="M51.45,0H17.86c0,.49-.07,1-.12,1.44A29.2,29.2,0,0,0,17.49,7c.26,2.61,1.89,3.95,4,4.78a4.32,4.32,0,0,0,2.42.44,2.73,2.73,0,0,0,.91-.51,6.46,6.46,0,0,1,2.68-1,11.25,11.25,0,0,1,4.31.54,15.94,15.94,0,0,1,3.58,1.34,3.45,3.45,0,0,1,1.19,1.27c.5.83.7,2.25,1.82,2.5a20.34,20.34,0,0,0,.1-3.66A22.58,22.58,0,0,1,39,9.31c.32-1.54.72-3.05,1.19-4.55.07-.23.28-1.39.72-1.23.2.07.16.55.15.8,0,1-.11,1.68-.18,2.64A26.5,26.5,0,0,0,41.09,14a11.16,11.16,0,0,1,.4,3.4,7.56,7.56,0,0,1-.25,1.05,6.51,6.51,0,0,1-.07.76,5.74,5.74,0,0,1-.65,1.16c-.07.1-.19.32-.33.58s-.34.34-.33.58A2.07,2.07,0,0,0,41,22.76c1.61.46,3.41.71,4.38,1.67a3.69,3.69,0,0,1,1.11,2.33,4.58,4.58,0,0,1-.55,2.35c-.22.52-.44,1.81-.83,2.06s-.75.07-1.08.26a8.74,8.74,0,0,0-.37,1.33,13.48,13.48,0,0,1-1,1c.09.86-.45,1.08-1.16,1.12-2.12,1.73-6.32.59-8.11-.58-.89.64-1.88,1.17-1.77,2.79a11.67,11.67,0,0,0,2.28,1.23c1.2.4,2.69.19,3.47.91.06,0,.12.13.18.19h6.06l17.22-20Z" />
  <path
    d="M20.25,18.91a11.11,11.11,0,0,1-3.38-2.15,5.77,5.77,0,0,1-1.59-4.38,7.57,7.57,0,0,1-1.28-4,15.2,15.2,0,0,1,.91-4.42c.37-1.29.75-2.59,1.15-3.9H8.51L0,39.41H1.8a.74.74,0,0,1,.2-.19,12.63,12.63,0,0,1,4.2-2.61,14.29,14.29,0,0,0,3.36-1.74,2.72,2.72,0,0,1,1.23-.76,7.27,7.27,0,0,1,2.61.44A4.69,4.69,0,0,0,17.86,33a6.07,6.07,0,0,0,1.41-1.74,9.22,9.22,0,0,0,.21-3.14c0-2.26.85-3.85.87-5.94A28.87,28.87,0,0,1,20.25,18.91Z" />
</svg>
