<svg xmlns="http://www.w3.org/2000/svg" viewBox="0 0 150 40">
	<g>
		<polygon points="83.91,8.98 79.89,0.24 66.11,0.24 74.58,17.72 	"/>
		<path d="M116.59,0.24H92L58.31,39.76h13.41l8.8-10.5l4.85,10.5h23.11l3.11-17.61l2.8,9.72l8.39-10.09L116.59,0.24z
		 M97.72,36.61l-8.2-17.45l14.17-16.4L97.72,36.61z"/>
		<polygon points="137.61,0.24 115.11,34.38 126.4,34.38 134.96,21.02 131.65,39.76 143.03,39.76 150,0.24 	"/>
		<path d="M51.45,0.26H17.86c-0.04,0.49-0.07,0.97-0.12,1.44c-0.26,1.83-0.34,3.68-0.25,5.53c0.26,2.61,1.89,3.95,4,4.78
		c0.75,0.38,1.59,0.53,2.42,0.44c0.33-0.11,0.64-0.28,0.91-0.51c0.81-0.53,1.72-0.87,2.68-1c1.46-0.1,2.92,0.08,4.31,0.54
		c1.24,0.3,2.44,0.75,3.58,1.34c0.5,0.32,0.91,0.75,1.19,1.27c0.5,0.83,0.7,2.25,1.82,2.5c0.14-1.21,0.18-2.44,0.1-3.66
		c0.08-1.14,0.25-2.27,0.5-3.38C39.32,8.01,39.72,6.5,40.19,5c0.07-0.23,0.28-1.39,0.72-1.23c0.2,0.07,0.16,0.55,0.15,0.8
		c0,1-0.11,1.68-0.18,2.64c-0.25,2.35-0.17,4.73,0.21,7.06c0.31,1.11,0.44,2.25,0.4,3.4c0,0.32-0.19,0.7-0.25,1.05
		c-0.01,0.25-0.03,0.51-0.07,0.76c-0.17,0.41-0.39,0.8-0.65,1.16c-0.07,0.1-0.19,0.32-0.33,0.58c-0.14,0.26-0.34,0.34-0.33,0.58
		c0.2,0.54,0.61,0.98,1.14,1.2c1.61,0.46,3.41,0.71,4.38,1.67c0.64,0.62,1.03,1.44,1.11,2.33c0.03,0.82-0.16,1.63-0.55,2.35
		c-0.22,0.52-0.44,1.81-0.83,2.06s-0.75,0.07-1.08,0.26c-0.16,0.43-0.28,0.88-0.37,1.33c-0.27,0.38-0.68,0.64-1,1
		c0.09,0.86-0.45,1.08-1.16,1.12c-2.12,1.73-6.32,0.59-8.11-0.58c-0.89,0.64-1.88,1.17-1.77,2.79c0.71,0.49,1.48,0.91,2.28,1.23
		c1.2,0.4,2.69,0.19,3.47,0.91c0.06,0,0.12,0.13,0.18,0.19h6.06l17.22-20L51.45,0.26z"/>
		<path d="M20.25,19.15C19,18.64,17.86,17.92,16.87,17c-1.12-1.17-1.7-2.76-1.59-4.38c-0.8-1.2-1.25-2.6-1.28-4.04
		c0.08-1.51,0.39-3,0.91-4.42c0.37-1.29,0.75-2.59,1.15-3.9H8.51L0,39.65h1.8c0.05-0.06,0.1-0.13,0.2-0.19
		c1.21-1.14,2.64-2.02,4.2-2.61c1.19-0.43,2.32-1.01,3.36-1.74c0.33-0.36,0.76-0.62,1.23-0.76c0.89-0.01,1.77,0.13,2.61,0.44
		c1.67,0.31,3.37-0.3,4.46-1.6c0.58-0.49,1.05-1.08,1.41-1.74c0.25-1.03,0.32-2.09,0.21-3.14c0-2.26,0.85-3.85,0.87-5.94
		C20.26,21.3,20.22,20.22,20.25,19.15z"/>
	</g>
</svg>
