<svg id="f04a6ef6-5328-4a40-959a-f05caa83d530" data-name="Layer 1" xmlns="http://www.w3.org/2000/svg"
  viewBox="0 0 125 38.94">
  <path
    d="M10.21,38l-3.44-.72a3.91,3.91,0,0,1-3-4.63,4,4,0,0,1,.55-1.34L17.12,14a.1.1,0,0,0,0-.14l-.06,0H3.71a.09.09,0,0,1-.1-.1h0v-3A3.11,3.11,0,0,1,6.74,7.62h19.1c.1,0,.11-.11.07-.17a2.21,2.21,0,0,0-1.54-1L3.9,3.58A3.5,3.5,0,0,0,0,6.66c0,.1,0,.21,0,.31v28.6a3.52,3.52,0,0,0,3.66,3.37H3.8l6.42-.76C10.34,38.15,10.36,38,10.21,38Z" />
  <path
    d="M28.47,3.16,21.75,4c-.16,0-.13.18,0,.2L25.62,5a4,4,0,0,1,2.82,4.85,3.83,3.83,0,0,1-.57,1.25l-12.61,17a.1.1,0,0,0,0,.15l0,0H28.66a.1.1,0,0,1,.11.08v3a3.13,3.13,0,0,1-3.14,3.1H6.33A2.2,2.2,0,0,0,8,35.65L28.44,38.5a3.49,3.49,0,0,0,3.9-3,2.19,2.19,0,0,0,0-.36V6.42a3.52,3.52,0,0,0-3.74-3.28ZM94.91,8.21a15.44,15.44,0,0,0-8.37-2.07,15.42,15.42,0,0,0-7.4,1.58,7.27,7.27,0,0,0-4,5.23,8.16,8.16,0,0,0,.84,5.4,8.34,8.34,0,0,0,4.7,3.77,29.69,29.69,0,0,0,6,1.09,8.51,8.51,0,0,1,3.67.92A2.3,2.3,0,0,1,91.5,26.7c-.26,1.58-1.87,2.4-4.89,2.4a8.62,8.62,0,0,1-4.38-.93l-.32-.27a5.62,5.62,0,0,0-1-.71,3.84,3.84,0,0,0-3.08.16l-2.92,1.26s-.09.07,0,.15a10.48,10.48,0,0,0,3.35,3.83,15.62,15.62,0,0,0,8.37,2.07A15.53,15.53,0,0,0,94,33.08a7.37,7.37,0,0,0,3.92-5.24,7.75,7.75,0,0,0-.77-5.4,8.33,8.33,0,0,0-4.76-3.76,24.33,24.33,0,0,0-6-1.09,7.82,7.82,0,0,1-3.66-1,2.26,2.26,0,0,1-1.16-2.51c.25-1.58,1.93-2.4,5-2.4a8.24,8.24,0,0,1,4.31.92c.07.06.2.11.33.22.51.39.83.66,1,.77a3.81,3.81,0,0,0,3-.22l2.92-1.22c.07,0,.07-.08,0-.14a10.12,10.12,0,0,0-3.29-3.82Zm-26.4.44A14.22,14.22,0,0,0,60,6.14a14.24,14.24,0,0,0-8.5,2.51c-2.57,1.8-3.86,4-3.86,6.65V25.5q0,4,3.86,6.71A14.65,14.65,0,0,0,60,34.66a14.86,14.86,0,0,0,8.56-2.45,8.07,8.07,0,0,0,3.8-6.71V15.3C72.37,12.62,71.09,10.44,68.51,8.65ZM65.74,25.5a2.75,2.75,0,0,1-1.41,2.34A7.51,7.51,0,0,1,60,29.09a7.14,7.14,0,0,1-4.25-1.25,2.83,2.83,0,0,1-1.48-2.34V15.3A2.83,2.83,0,0,1,55.77,13,7.12,7.12,0,0,1,60,11.75,7.51,7.51,0,0,1,64.33,13a2.75,2.75,0,0,1,1.41,2.35ZM43.55,9.23a5.24,5.24,0,0,1-6.29,0c-.12-.08-.18,0-.18.08v22c0,2,.93,2.94,3.31,2.94s3.32-1,3.32-2.94v-22a.1.1,0,0,0-.08-.1A.08.08,0,0,0,43.55,9.23Zm73.19,9.28L125,7.37a.1.1,0,0,0,0-.14.08.08,0,0,0-.08,0h-5.45a3.58,3.58,0,0,0-3.09,1.29L110,17.22a2.14,2.14,0,0,1-1.67,1H108c-.06,0-.1,0-.1-.12V.1a.1.1,0,0,0-.11-.1H104.9c-2.39,0-3.6,1-3.6,2.9V31.31c0,1.94,1.22,2.91,3.6,2.91h2.92a.1.1,0,0,0,.1-.1V23.84a.1.1,0,0,1,.09-.11h3.32a1.78,1.78,0,0,1,1.8,1l3.34,7.64c.52,1.24,1.74,1.83,3.67,1.83h4.22c.1,0,.11-.08.09-.14L119.24,22.6A7.16,7.16,0,0,0,116,19.44a.1.1,0,0,1,0-.13l0,0a7.46,7.46,0,0,0,.72-.77ZM40.41,0a3.73,3.73,0,0,0-3.73,3.72h0A3.73,3.73,0,1,0,40.41,0Z" />
</svg>
