<?xml version="1.0" encoding="UTF-8"?><svg id="uuid-61e7d4a7-5a64-4942-bb0d-ece224fe32a9" xmlns="http://www.w3.org/2000/svg" viewBox="0 0 512 512"><circle cx="256" cy="256" r="256" fill="#fff"/><path id="uuid-30f0dd45-9337-405e-9269-29da5217c2b4" d="M256,17.04C123.45,17.04,16,124.49,16,257.04c0,121.78,90.72,222.38,208.25,237.91-14.83-22.97-24.31-49.06-32.78-74.9-10.37-31.68-16.51-64.54-22.27-97.32-.5-2.9-1.82-13.87-5.42-14.86-3.91-1.08-8.23,8.11-10.8,10.22-4.3,3.53-9.1,6.29-13.87,9.1-3.26,1.92-6.74,4.51-10.42,6.05-4.44,2.81-10.01,3.96-15.41,4.2-8.98.43-19.06.24-27.31-3.67-8.52-4.06-14.54-12.58-20.76-19.39-3.91-4.3-7.85-8.59-11.76-12.91-3.07-3.36-6.96-9.12-12.17-7.49-2.28.72-4.13.05-5.35-1.27-2.45-1.92-3.6-5.64-.82-8.52,15.29-15.79,38.74-22.03,59.62-14.52,11.28,4.06,18.53,11.35,27.22,19.15,7.8,6.98,19.18,9,29.02,5.62,3.26-1.13,10.13-3.72,11.38-7.15,1.75-4.75-1.22-15.02-1.44-20.23-.61-15.98.25-31.98,2.57-47.81,0,0,14.33-1.8,16.9-1.8.01.11.04.23.07.34,2.54,8.06,2.5,17.06,6.43,24.67,1.56,3,3.67,6.46,6.79,8.11,7.2,3.84,39.17,4.75,46.25,1.13,10.39-5.33,18.05-33.17,18.1-34.01,1.99,0,18.55.02,20.54,0,.05.84,7.7,28.68,18.1,34.01,7.08,3.65,39.05,2.71,46.25-1.13,3.12-1.66,5.23-5.11,6.79-8.11,3.94-7.61,3.89-16.61,6.43-24.67.04-.11.06-.22.07-.34,2.98.02,14.45,1.66,17.98,2.16.22,14.84-1.13,29.66-4.03,44.21-1.27,6.36-2.71,12.79-4.73,18.98-1.75,5.4-4.34,9.07-3.14,15.12.67,3.31,2.54,6.53,5.57,8.06,7.63,3.86,19.73-1.82,24.5-7.87,6.72-8.5,12.58-16.51,21.41-23.04,15.26-11.3,41.71-21.43,59.64-10.73,4.46,2.66,3.12,8.76-1.37,10.44-5.88,2.18-6.14,10.7-6.38,15.84-.31,6.74-.65,13.51-3.98,19.56-6.58,12-20.06,17.16-32.71,19.99-13.94,3.12-28.82,5.66-42.6.5-3.38-1.27-6.55-2.64-10.13-3.31-3.62-.67-7.32-.89-10.85-2.04-4.54-1.49-8.71-3.93-12.24-7.15-1.2,3.19-2.42,6.38-3.62,9.58-7.94,21.05-15.41,42.29-21.82,63.84-7.58,25.54-13.63,51.6-16.99,78.05-.91,7.18-1.62,14.38-2.11,21.62,107.26-23.98,187.44-119.74,187.44-234.24,0-132.53-107.45-239.98-240-239.98ZM382.12,186.41c-2.28,2.64-6.24,3.36-10.39,3.34.58,3.94,1.51,13.2,1.51,13.2,0,0-34.9-1.3-47.71-1.46-16.58-.22-33.14.1-49.68.96-1.7.07-11.86.14-15.22,0-16.56-.82-33.12-1.14-49.68-.96-11.76.14-44.54,1.49-44.54,1.49,0,0,3.02-13.08,4.73-18.89-2.52,0-5.06-.14-7.56-.38-2.4-.24-4.99-1.56-5.5-4.2-2.9-14.98,6.96-28.54,15-40.32,7.47-10.99,16.82-20.57,27.62-28.3-3.84-9.07-1.2-19.03,4.92-26.54,5.23-6.53,13.32-10.66,18.72-12.58,1.88-.7,3.79-1.3,5.74-1.8,7.13-1.85,14.57-2.74,21.29-5.95-.53-.74-9.05-6.48-11.62-9.86-5.64-7.46,2.21-14.4,9.05-16.49,3.84-1.15,8.18-1.92,11.86.1,3.94,2.16,8.74,12.62,9.1,13.34,5.45-7.34,12.82-19.73,22.78-17.47,9.19,2.06,17.18,14.33,20.64,22.44,2.64,6.22,3.7,12.91,2.93,19.46,10.46,2.28,25.54,7.85,31.99,19.08,1.97,3.82,2.52,6.77,2.52,10.7s-1.63,10.58-3.72,15.12c12.89,4.85,24,13.78,30.67,25.97,3.49,6.43,5.73,13.47,6.6,20.74.67,5.4,1.85,14.76-2.04,19.27Z"/></svg>