<?xml version="1.0" encoding="utf-8"?>
<!-- Generator: Adobe Illustrator 24.2.3, SVG Export Plug-In . SVG Version: 6.00 Build 0)  -->
<svg version="1.1" id="_x36_088ba52-b752-42bb-ac91-0a74df332082"
	 xmlns="http://www.w3.org/2000/svg" xmlns:xlink="http://www.w3.org/1999/xlink" x="0px" y="0px" viewBox="0 0 900.9 787"
	 style="enable-background:new 0 0 900.9 787;" xml:space="preserve">
<style type="text/css">
	.st0{opacity:0.2;fill:#F40010;enable-background:new    ;}
	.st1{fill:#F40010;}
	.st2{fill:none;stroke:#535461;stroke-width:2;stroke-miterlimit:10;}
	.st3{opacity:0.2;fill:#F5F5F5;enable-background:new    ;}
	.st4{fill:url(#SVGID_1_);}
	.st5{fill:#E14B5A;}
	.st6{fill:#F7C4A7;}
	.st7{opacity:0.1;enable-background:new    ;}
	.st8{fill:#575988;}
	.st9{opacity:0.1;}
	.st10{fill:#632652;}
	.st11{fill:#535461;}
	.st12{opacity:0.1;fill:none;stroke:#000000;stroke-miterlimit:10;enable-background:new    ;}
	.st13{fill:#6A5C99;}
	.st14{fill:#FFD037;}
	.st15{fill:#D6D6E3;}
	.st16{fill:#FFFFFF;}
</style>
<rect x="763.6" y="283" class="st0" width="52" height="27"/>
<rect x="767.6" y="316" class="st0" width="52" height="27"/>
<rect x="724.6" y="87" class="st0" width="52" height="27"/>
<rect x="761.6" y="118" class="st0" width="52" height="27"/>
<rect x="661.6" y="89" class="st0" width="52" height="27"/>
<rect x="828.6" y="149" class="st0" width="52" height="27"/>
<rect x="765.6" y="151" class="st0" width="52" height="27"/>
<rect x="698.6" y="120" class="st0" width="52" height="27"/>
<rect x="825.6" y="357" class="st0" width="52" height="27"/>
<rect x="762.6" y="359" class="st0" width="52" height="27"/>
<path class="st1" d="M130.8,276c0,0,73.3,73.3,31.9,182s70.9,289.6,70.9,289.6s-1.2-0.2-3.4-0.6C79.6,720.5,4.8,548.3,88.6,420.5
	C119.7,372.9,145.2,317.1,130.8,276z"/>
<path class="st2" d="M130.8,276c0,0,41.4,89.8,0,163.1s-7.1,279,102.8,308.5"/>
<path class="st1" d="M0.2,572.4c0,0,83.6-13.3,91.2,61.6s160.8,85.3,160.8,85.3s-1,0.7-2.9,1.9C122.9,804.3,2,774.2,20.2,663.9
	C27,623,26.4,581.8,0.2,572.4z"/>
<path class="st3" d="M0.2,572.4c0,0,83.6-13.3,91.2,61.6s160.8,85.3,160.8,85.3s-1,0.7-2.9,1.9C122.9,804.3,2,774.2,20.2,663.9
	C27,623,26.4,581.8,0.2,572.4z"/>
<path class="st2" d="M0.2,572.4c0,0,64.9,14.2,59.6,73.3s96.4,129.8,192.5,73.7"/>
<rect x="0.6" y="284" class="st0" width="52" height="27"/>
<rect x="37.6" y="315" class="st0" width="52" height="27"/>
<rect x="318.6" class="st0" width="52" height="27"/>
<rect x="728.6" y="498" class="st0" width="52" height="27"/>
<rect x="41.6" y="348" class="st0" width="52" height="27"/>
<rect x="355.6" y="31" class="st0" width="52" height="27"/>
<rect x="165.6" y="214" class="st0" width="52" height="27"/>
<rect x="202.6" y="245" class="st0" width="52" height="27"/>
<rect x="301.6" y="228" class="st0" width="52" height="27"/>
<rect x="206.6" y="278" class="st0" width="52" height="27"/>
<rect x="798.6" y="498" class="st0" width="52" height="27"/>
<linearGradient id="SVGID_1_" gradientUnits="userSpaceOnUse" x1="611.0538" y1="142.05" x2="611.0538" y2="684.5" gradientTransform="matrix(1 0 0 -1 -149.42 731.5)">
	<stop  offset="0" style="stop-color:#808080;stop-opacity:0.25"/>
	<stop  offset="0.54" style="stop-color:#808080;stop-opacity:0.12"/>
	<stop  offset="1" style="stop-color:#808080;stop-opacity:0.1"/>
</linearGradient>
<path class="st4" d="M720.7,391.1c-3.4-18.7-5.4-37.7-6.2-56.7l0,0c-1.4-32.1-22.8-59.9-53.5-69.4c-5.5-1.7-11.5-3.2-18.1-4.7
	c-58.2-12.4-75.9-1.6-77.9-0.1c-1.7-3.1-3.2-6.3-4.4-9.6c-0.1-0.3-0.2-0.7-0.3-1c11.5-12.3,18.5-28.1,19.9-44.9
	c9.7-9.8,15.4-21.7,15.4-34.5c0-11-4.2-21.3-11.5-30.2v-17.4c0-41.7-33.8-75.6-75.6-75.6l0,0h-6.1c-41.7,0-75.6,33.8-75.6,75.6l0,0
	v18.7c-6.7,8.6-10.5,18.4-10.5,28.9c0,12.5,5.4,24.2,14.8,33.9c1.3,17.4,8.6,33.8,20.7,46.3c0.4,2.8,0.8,5.9,1.2,9.1l-104.1,22
	c0,0-40.1,1.6-66,55c-21.9,45.2-65.4,161.3-78.3,195.8l0,0c-2.3,6.3-3.6,9.8-3.6,9.8s0.4-0.4,1.2-1.2l-1.2,3.4c0,0,0.6-0.6,1.8-1.7
	c-1.8,14.5-2.1,39.3,16.9,42.4c15.9,2.6,56.8,3.7,87.7,4.1l0,0h2.1c20.5,0.3,36.1,0.3,36.1,0.3v-0.3h332.4v-3.4c0-3.1-0.6-6.2-1.8-9
	l0.5-0.6c1.8,2.3,3,5.1,3.5,8c0,0.3-0.1,0.6-0.2,0.8l0.2-0.5c0.1,0.9,0,1.8-0.2,2.7c0,0,42.7-109.9,42.2-175.5
	C722.3,404.8,721.8,397.9,720.7,391.1z M454.8,274.4c-0.6-3.1-0.9-6.3-1.1-9.5c0,0,0-0.1,0-0.1C454.1,267.9,454.5,271.1,454.8,274.4
	z M325.6,510.4v26.2l-16.4,3.5L325.6,510.4z"/>
<path class="st5" d="M503.7,57.6L503.7,57.6c41.7,0,75.6,33.8,75.6,75.6v32.2l0,0H428.1l0,0v-32.2C428.1,91.4,462,57.6,503.7,57.6z"
	/>
<ellipse class="st5" cx="504.2" cy="175.9" rx="86.1" ry="59.2"/>
<path class="st6" d="M449,233.3c0,0,18,94.1,0,119.4s55,35.4,55,35.4l75.6-27.5l10.6-67.6c0,0-46-25.9-36.5-78.2L449,233.3z"/>
<path class="st6" d="M672,550.4c0,0,4.8,20.6-21.1,24.3c-15.3,2.2-30.8,2.1-46.1-0.5l-5.7-51.8h60.2L672,550.4z"/>
<path class="st6" d="M214.7,524c0,0-11.4,46.5,14.5,50.7s121,4.2,121,4.2v-55l-43.1,9.2l-40.4-38.8L214.7,524z"/>
<path class="st7" d="M454.6,263.7l-101.2,21.4c0,0-38.6,1.6-63.4,52.9s-78.8,197.7-78.8,197.7s46-46.5,99.9,3.2l35.9-65l-7.9,103.1
	h278.5v-48.6c0,0,58.1,31.2,53.9,48.6c0,0,49.8-128.2,39-186.4c-3.2-18-5.2-36.2-5.9-54.5l0,0c-1.3-30.9-21.9-57.6-51.4-66.7
	c-5.2-1.6-11-3.1-17.4-4.5c-59.7-12.7-75,0-75,0s-11.6,37.6-11.4,54.7c0.3,21.9-31.2,36.5-31.2,36.5s-46.5-11.1-48.6-20.1
	S450.9,274.2,454.6,263.7z"/>
<path class="st8" d="M454.6,261.6L353.4,283c0,0-38.6,1.6-63.4,52.9s-78.8,197.7-78.8,197.7s46-46.5,99.9,3.2l35.9-65l-7.9,103
	h278.5v-48.6c0,0,58.1,31.2,53.9,48.6c0,0,49.8-128.2,39-186.4c-3.2-18-5.2-36.2-5.9-54.5l0,0c-1.3-30.9-21.9-57.6-51.4-66.7
	c-5.2-1.6-11-3.1-17.4-4.5c-59.7-12.7-75,0-75,0s-11.6,37.6-11.4,54.7c0.3,21.9-31.2,36.5-31.2,36.5s-46.5-11.1-48.6-20.1
	S450.9,272.1,454.6,261.6z"/>
<path class="st7" d="M558,257.1c-4.3-12-5.2-25-2.8-37.5L450.6,238c0,0,1.5,7.9,3.2,19.8c27.5,28.6,73,29.4,101.6,1.9
	C556.3,258.8,557.1,258,558,257.1L558,257.1z"/>
<path class="st6" d="M575.9,203.2c-0.2,39.7-32.5,71.7-72.2,71.6c-38.8-0.2-70.4-31.1-71.5-69.8c0-0.6,0-1.2,0-1.7
	c0-27.5,15.6-52.5,40.3-64.6c2.2-1.1,4.4-2,6.6-2.8c11.8-4.3,24.6-5.5,37-3.4l0,0c32.8,5.6,57.4,32.9,59.6,66.1
	C575.8,200,575.9,201.6,575.9,203.2z"/>
<g class="st9">
	<path d="M478.9,137.4L478.9,137.4c-2.2,0.8-4.4,1.7-6.5,2.8c-24.7,12.1-40.3,37.1-40.3,64.6c0,0.6,0,1.2,0,1.7
		c2.2-0.1,4.4-0.6,6.5-1.5c17.5-8.2,28-33.2,32.2-50.6C472.2,148.1,473.6,141.1,478.9,137.4z"/>
	<path d="M534,139.4c-5.7-2.6-11.7-4.5-17.9-5.5c5.1,1.2,9.6,4,12.8,8.1c1.6,2.2,2.9,4.5,3.9,7c-19.4-8.5-41.5-8-60.5,1.2
		c4.5,9.9,18.5,15.3,27.8,18.9c10.2,3.9,20.6,7.6,31,10.8l-9.2-7.5l20.9,3.3c0.2-4.2-0.3-8.3-1.5-12.3c4,3.2,9.3,4.3,13.6,7
		c8.1,5.1,11.5,15,16,23.6c1.2,2.3,2.5,4.6,4.7,6C573.9,173.7,557.9,150.5,534,139.4z"/>
</g>
<path class="st10" d="M478.9,135.8L478.9,135.8c-2.2,0.8-4.4,1.7-6.5,2.8c-24.7,12.1-40.3,37.1-40.3,64.6c0,0.6,0,1.2,0,1.7
	c2.2-0.1,4.4-0.6,6.5-1.5c17.5-8.2,28-33.2,32.2-50.6C472.2,146.5,473.6,139.4,478.9,135.8z"/>
<path class="st10" d="M534,137.8c-5.7-2.6-11.7-4.5-17.9-5.5c5.1,1.2,9.6,4,12.8,8.1c1.6,2.2,2.9,4.5,3.9,7
	c-19.4-8.5-41.5-8-60.5,1.2c4.5,9.9,18.5,15.3,27.8,18.9c10.2,3.9,20.6,7.6,31,10.8l-9.2-7.5l20.9,3.3c0.2-4.2-0.3-8.3-1.5-12.3
	c4,3.2,9.3,4.3,13.6,7c8.1,5.1,11.5,15,16,23.6c1.2,2.3,2.5,4.6,4.7,6C573.9,172.1,557.9,148.8,534,137.8z"/>
<path class="st7" d="M423.9,191.3c0,0,74-92,159.6,0l-7.4-20.6c0,0-40.2-58.7-68.7-46s-56.5,21.7-56.5,21.7L423.9,191.3z"/>
<path class="st5" d="M423.9,189.7c0,0,74-92,159.6,0l-7.4-20.6c0,0-40.2-58.7-68.7-46s-56.5,21.7-56.5,21.7L423.9,189.7z"/>
<path class="st7" d="M363.1,387.9c0,0-15.9,42.3,6.3,80.3s-19.5,53.9-19.5,53.9"/>
<path class="st7" d="M620,349.8c0,0,27.5,34.9,9.5,66.1s-16.9,106.2-16.9,106.2"/>
<path class="st11" d="M338.8,553.3h305.5c14,0,25.4,11.4,25.4,25.4l0,0l0,0H313.5l0,0l0,0C313.5,564.7,324.8,553.3,338.8,553.3z"/>
<path class="st11" d="M369.9,378.9h243.3c21.5,0,39,17.5,39,39v141.2l0,0H330.9l0,0V417.9C330.9,396.4,348.4,378.9,369.9,378.9z"/>
<path class="st12" d="M428.1,148.2c0,0,72.7-72.7,151.1-1.3"/>
<rect x="590.4" y="143.6" class="st13" width="7.3" height="41.4"/>
<path class="st14" d="M580.6,170.4L580.6,170.4c13.9,0,25.2,11.3,25.2,25.2v1.6c0,13.9-11.3,25.2-25.2,25.2l0,0l0,0V170.4
	L580.6,170.4z"/>
<path class="st13" d="M581.4,167.9L581.4,167.9c3.1,0,5.7,2.5,5.7,5.7v45.5c0,3.1-2.5,5.7-5.7,5.7l0,0c-3.1,0-5.7-2.5-5.7-5.7v-45.5
	C575.8,170.5,578.3,167.9,581.4,167.9z"/>
<rect x="409" y="144.4" class="st13" width="7.3" height="41.4"/>
<path class="st14" d="M426.1,223.1L426.1,223.1c-13.9,0-25.2-11.3-25.2-25.2v-1.6c0-13.9,11.3-25.2,25.2-25.2l0,0l0,0V223.1
	L426.1,223.1z"/>
<path class="st13" d="M425.2,225.5L425.2,225.5c-3.1,0-5.7-2.5-5.7-5.7v-45.5c0-3.1,2.5-5.7,5.7-5.7l0,0c3.1,0,5.7,2.5,5.7,5.7v45.5
	C430.9,223,428.4,225.5,425.2,225.5z"/>
<path class="st14" d="M589.5,99.3c-9.9-20.6-31.4-45.4-77.9-47.4v-0.1h-0.6l0,0l-16.5,0.8v0.1c-46.1,2.1-67.6,26.9-77.4,47.4
	c-6.6,13.9-10.1,29-10.2,44.4l5.7-0.1l5.7-0.1c0.2-13.7,3.4-27.1,9.2-39.5C440.1,79,463.1,65.3,496,64.1l0,0l14.5-0.8l0,0
	c32.9,1.3,56,14.9,68.5,40.7c5.8,12.4,9,25.9,9.2,39.5l5.7,0.1l5.7,0.1C599.5,128.4,596.1,113.2,589.5,99.3z"/>
<rect x="74.3" y="579" class="st15" width="774.7" height="208"/>
<rect x="74.3" y="593" class="st7" width="774.7" height="27"/>
<rect x="22.3" y="576" class="st15" width="878.6" height="27"/>
<path id="bfde7e65-6737-4d51-a25f-6171b6d5abc0" class="st16" d="M491.3,458c-10.5,0-19,8.5-19,19c0,9.7,7.2,17.6,16.5,18.9
	c-1.2-1.8-1.9-3.9-2.6-5.9c-0.8-2.5-1.3-5.1-1.8-7.7c0-0.2-0.1-1.1-0.4-1.2c-0.3-0.1-0.7,0.6-0.9,0.8c-0.3,0.3-0.7,0.5-1.1,0.7
	c-0.3,0.2-0.5,0.4-0.8,0.5c-0.4,0.2-0.8,0.3-1.2,0.3c-0.7,0-1.5,0-2.2-0.3c-0.7-0.3-1.2-1-1.6-1.5c-0.3-0.3-0.6-0.7-0.9-1
	c-0.2-0.3-0.6-0.7-1-0.6c-0.2,0.1-0.3,0-0.4-0.1c-0.2-0.2-0.3-0.4-0.1-0.7c1.2-1.3,3.1-1.7,4.7-1.2c0.9,0.3,1.5,0.9,2.2,1.5
	c0.6,0.6,1.5,0.7,2.3,0.4c0.3-0.1,0.8-0.3,0.9-0.6c0.1-0.4-0.1-1.2-0.1-1.6c0-1.3,0-2.5,0.2-3.8c0,0,1.1-0.1,1.3-0.1c0,0,0,0,0,0
	c0.2,0.6,0.2,1.4,0.5,2c0.1,0.2,0.3,0.5,0.5,0.6c0.6,0.3,3.1,0.4,3.7,0.1c0.8-0.4,1.4-2.6,1.4-2.7c0.2,0,1.5,0,1.6,0
	c0,0.1,0.6,2.3,1.4,2.7c0.6,0.3,3.1,0.2,3.7-0.1c0.2-0.1,0.4-0.4,0.5-0.6c0.3-0.6,0.3-1.3,0.5-2c0,0,0,0,0,0c0.2,0,1.1,0.1,1.4,0.2
	c0,1.2-0.1,2.4-0.3,3.5c-0.1,0.5-0.2,1-0.4,1.5c-0.1,0.4-0.3,0.7-0.2,1.2c0.1,0.3,0.2,0.5,0.4,0.6c0.6,0.3,1.6-0.1,1.9-0.6
	c0.5-0.7,1-1.3,1.7-1.8c1.2-0.9,3.3-1.7,4.7-0.9c0.4,0.2,0.2,0.7-0.1,0.8c-0.5,0.2-0.5,0.8-0.5,1.3c0,0.5-0.1,1.1-0.3,1.6
	c-0.5,1-1.6,1.4-2.6,1.6c-1.1,0.2-2.3,0.4-3.4,0c-0.3-0.1-0.5-0.2-0.8-0.3c-0.3-0.1-0.6-0.1-0.9-0.2c-0.4-0.1-0.7-0.3-1-0.6
	c-0.1,0.3-0.2,0.5-0.3,0.8c-0.6,1.7-1.2,3.4-1.7,5.1c-0.6,2-1.1,4.1-1.3,6.2c-0.1,0.6-0.1,1.1-0.2,1.7c8.5-1.9,14.9-9.5,14.9-18.6
	C510.3,466.5,501.8,458,491.3,458z M501.3,471.4c-0.2,0.2-0.5,0.3-0.8,0.3c0,0.3,0.1,1,0.1,1s-2.8-0.1-3.8-0.1c-1.3,0-2.6,0-3.9,0.1
	c-0.1,0-0.9,0-1.2,0c-1.3-0.1-2.6-0.1-3.9-0.1c-0.9,0-3.5,0.1-3.5,0.1s0.2-1,0.4-1.5c-0.2,0-0.4,0-0.6,0c-0.2,0-0.4-0.1-0.4-0.3
	c-0.2-1.2,0.6-2.3,1.2-3.2c0.6-0.9,1.3-1.6,2.2-2.2c-0.3-0.7-0.1-1.5,0.4-2.1c0.4-0.5,1.1-0.8,1.5-1c0.1-0.1,0.3-0.1,0.5-0.1
	c0.6-0.1,1.2-0.2,1.7-0.5c0-0.1-0.7-0.5-0.9-0.8c-0.4-0.6,0.2-1.1,0.7-1.3c0.3-0.1,0.6-0.2,0.9,0c0.3,0.2,0.7,1,0.7,1.1
	c0.4-0.6,1-1.6,1.8-1.4c0.7,0.2,1.4,1.1,1.6,1.8c0.2,0.5,0.3,1,0.2,1.5c0.8,0.2,2,0.6,2.5,1.5c0.2,0.3,0.2,0.5,0.2,0.8
	c0,0.3-0.1,0.8-0.3,1.2c1,0.4,1.9,1.1,2.4,2.1c0.3,0.5,0.5,1.1,0.5,1.6C501.5,470.3,501.6,471.1,501.3,471.4z"/>
</svg>
