<svg xmlns="http://www.w3.org/2000/svg" viewBox="0 0 144.22 24.19">
  <path d="M36.8,6.3a2.54,2.54,0,0,0,2.56-2.52,2.55,2.55,0,1,0-5.09,0A2.51,2.51,0,0,0,36.8,6.3Z"/>
  <path d="M64.77,8H60.19l-2.3,10.88a7.43,7.43,0,0,0-.16,1,4.28,4.28,0,0,1-2.31,1.19c-1.24,0-1.6-.48-1.6-1.19a6.48,6.48,0,0,1,.16-1L57.66,1.6l-4.73.64L49.38,18.88c0,.14-.05.27-.07.41-1,.89-2.13,1.8-3,1.8-1.25,0-1.6-.48-1.6-1.19a6.48,6.48,0,0,1,.16-1L48.51,1.6l-4.73.64L40.22,18.88c0,.26-.09.5-.12.73a5,5,0,0,1-2.66,1.48c-1.28,0-1.6-.52-1.6-1.22a5.39,5.39,0,0,1,.13-1L38.27,8H33.66l-2.3,10.88a8.81,8.81,0,0,0-.17,1.33,3.58,3.58,0,0,1-1.91.88c-1.25,0-1.6-.48-1.6-1.19a4.18,4.18,0,0,1,.16-1l1.31-6.11a3.38,3.38,0,0,0,.06-.77,4.11,4.11,0,0,0-3.67-4,7.74,7.74,0,0,0-4.16,1.7L23.1,1.6l-4.73.64L14.83,18.82a6.92,6.92,0,0,1-5.58,2.49c-3.46,0-4.23-1.79-4.23-6C5,9.63,7.55,1.5,11.49,1.5a2.1,2.1,0,0,1,2.2,2.28c0,.8-.6,2.4-1.4,2.62a2.31,2.31,0,0,0,1.82.83c1.63,0,2.24-1.25,2.24-2.94C16.35,1.18,13.76,0,10.78,0,2.27,0,0,9.06,0,16c0,6.56,3.74,8.16,7,8.16a9.67,9.67,0,0,0,7.27-2.79L13.73,24h4.61l2.75-12.93a3.2,3.2,0,0,1,2-.67c.87,0,1.47.73,1.47,1.89a4.2,4.2,0,0,1-.09.83l-1.22,5.76A7.64,7.64,0,0,0,23,20.51c0,2.4,1.47,3.49,4,3.49,1.28,0,2.86-1.13,4.29-2.42.41,1.65,1.81,2.42,3.87,2.42,1.47,0,3.32-1.48,4.9-3,.21,2,1.65,3,3.93,3,1.56,0,3.56-1.67,5.2-3.28C49.29,23,50.77,24,53.15,24c1.38,0,3.1-1.3,4.61-2.71A3,3,0,0,0,61,24c1.09,0,2.43-.19,3.33-2.95a2.48,2.48,0,0,1-.83.1c-.9,0-1.16-.51-1.16-1.18a4.71,4.71,0,0,1,.16-1.09Z"/>
  <path d="M63.14,1.22a2.54,2.54,0,0,0-2.53,2.56,2.54,2.54,0,0,0,5.08,0A2.56,2.56,0,0,0,63.14,1.22Z"/>
  <path d="M94.37,10.05A2,2,0,0,0,92.06,8a6.36,6.36,0,0,0-3.77,1.6L88.64,8H84L81.85,18.28l-.09,0a6.72,6.72,0,0,1-6,3.07c-3.45,0-4.22-1.79-4.22-6C71.55,9.63,74.08,1.5,78,1.5a2.1,2.1,0,0,1,2.21,2.28c0,.8-.61,2.4-1.41,2.62a2.33,2.33,0,0,0,1.83.83c1.63,0,2.24-1.25,2.24-2.94C82.88,1.18,80.29,0,77.31,0,68.8,0,66.53,9.06,66.53,16c0,6.56,3.74,8.16,7,8.16,2.46,0,5.75-.64,7.79-3.42L80.64,24h4.61L87.9,11.46a2.93,2.93,0,0,1,2.21-1c1,0,.06,2.11,1.86,2.11A2.45,2.45,0,0,0,94.37,10.05Z"/>
  <path d="M143.39,21.15c-.93,0-1.19-.45-1.19-1,0-.71,1.38-6.34,1.54-7.39a6.15,6.15,0,0,0,.06-.74,4.09,4.09,0,0,0-3.68-4,8.35,8.35,0,0,0-4.63,2.05A3.9,3.9,0,0,0,132.35,8a7.56,7.56,0,0,0-4.13,1.7l.35-1.7H124l-2.65,12.47a2.93,2.93,0,0,1-1.55.62c-1.28,0-1.6-.52-1.6-1.22a6.42,6.42,0,0,1,.13-1L120.61,8H116l-.19.83a3.5,3.5,0,0,0-2.15-.8c-5.75,0-7.93,5.33-8.31,10.41-1.3,1.88-3.46,3.25-4.81,3.25a2.46,2.46,0,0,1-2.62-2.75A12.18,12.18,0,0,1,98,17.57c3-.39,7.24-2.63,7.24-6.53,0-2.24-1.48-3.33-4.1-3.33-5.82,0-7.55,7.14-7.55,11.2,0,2.75,1.66,5.09,4.73,5.09a9.34,9.34,0,0,0,7-3.57,3.63,3.63,0,0,0,4,3.76,5.57,5.57,0,0,0,4.35-2.62c.41,1.66,1.82,2.43,3.9,2.43a6.26,6.26,0,0,0,3.43-1.68L120.57,24h4.61l2.75-12.93a3.14,3.14,0,0,1,2-.67c.86,0,1.47.73,1.47,1.89a3.61,3.61,0,0,1-.1.83L129,24h4.64L136,12.77a5.2,5.2,0,0,0,.06-.68,4.62,4.62,0,0,0-.16-1.15,3.22,3.22,0,0,1,1.79-.54c.86,0,1.47.73,1.47,1.89a4.2,4.2,0,0,1-.09.83l-1.22,5.76a7.64,7.64,0,0,0-.19,1.63c0,2.4,1.18,3.49,3.26,3.49,1.09,0,2.43-.19,3.33-2.95A2.48,2.48,0,0,1,143.39,21.15ZM102.21,9.41c1,0,1.12,1.12,1.12,1.79A5.17,5.17,0,0,1,98.27,16C98.94,13,100.41,9.41,102.21,9.41Zm11.48,9.47a7.84,7.84,0,0,0-.19,1.05c-.61.9-1.31,1.6-2,1.6s-1.85-.35-1.85-2.27c0-4.35,1.92-9.44,4.32-9.44a2.4,2.4,0,0,1,1.57.58Z"/>
</svg>
