<svg width="131" height="5383" viewBox="0 0 131 5383" fill="none" xmlns="http://www.w3.org/2000/svg">
    <g clip-path="url(#clip0_2294_3340)">
        <g filter="url(#filter0_d_2294_3340)">
            <path d="M120.5 1897L120.5 2831.5" stroke="#E38CDB" />
        </g>
        <g filter="url(#filter1_d_2294_3340)">
            <path d="M51 1759H89C106.673 1759 121 1773.33 121 1791L121 1860" stroke="#E38CDB" />
        </g>
        <g filter="url(#filter2_d_2294_3340)">
            <path d="M51 3064H88.6392C106.256 3064 120.56 3049.76 120.639 3032.14L121 2951.37L121 2868.5"
                stroke="#E38CDB" />
        </g>
        <g filter="url(#filter3_d_2294_3340)">
            <path
                d="M32.5009 114L32.5009 897M32.5006 9209L32.5003 14779M32.5008 934L32.5008 1740M32.5008 1777L32.5008 3046M32.5008 3083L32.5008 3509L32.5007 4041M32.5007 4078C32.5007 4078 32.5007 4589.43 32.5007 5349"
                stroke="#E38CDB" />
        </g>
        <g filter="url(#filter4_d_2294_3340)">
            <circle cx="32.5" cy="915.5" r="10.5" fill="#E38CDB" />
        </g>
        <g filter="url(#filter5_d_2294_3340)">
            <circle cx="32.5" cy="1758.5" r="10.5" fill="#E38CDB" />
        </g>
        <g filter="url(#filter6_d_2294_3340)">
            <circle cx="120.5" cy="1878.5" r="9.5" stroke="#E38CDB" stroke-width="2" shape-rendering="crispEdges" />
        </g>
        <g filter="url(#filter7_d_2294_3340)">
            <path
                d="M129.988 2850C129.988 2855.25 125.735 2859.5 120.488 2859.5C115.242 2859.5 110.988 2855.25 110.988 2850C110.988 2844.75 115.242 2840.5 120.488 2840.5C125.735 2840.5 129.988 2844.75 129.988 2850Z"
                stroke="#E38CDB" stroke-width="2" shape-rendering="crispEdges" />
        </g>
        <g filter="url(#filter8_d_2294_3340)">
            <circle cx="32.5" cy="3064.5" r="10.5" fill="#E38CDB" />
        </g>
        <g filter="url(#filter9_d_2294_3340)">
            <circle cx="32.5" cy="4059.5" r="10.5" fill="#E38CDB" />
        </g>
        <g filter="url(#filter10_d_2294_3340)">
            <circle cx="32.5" cy="5367.5" r="10.5" fill="#E38CDB" />
        </g>
        <g clip-path="url(#clip1_2294_3340)">
            <rect width="66" height="114" rx="12" fill="#211837" />
            <g clip-path="url(#clip2_2294_3340)">
                <path
                    d="M35.6484 29.1949C35.6484 29.2613 35.7226 29.3145 35.8161 29.3145C35.9226 29.3244 35.9968 29.2713 35.9968 29.1949C35.9968 29.1285 35.9226 29.0754 35.829 29.0754C35.7323 29.0654 35.6484 29.1186 35.6484 29.1949ZM36.6516 29.0455C36.6742 29.1119 36.6097 29.1883 36.5129 29.2082C36.429 29.2414 36.3323 29.2082 36.3129 29.1418C36.2935 29.0754 36.3548 28.999 36.4516 28.9691C36.5355 28.9459 36.629 28.9791 36.6516 29.0455ZM35.2258 28.9891C35.3194 29.0123 35.3839 29.0754 35.3742 29.1518C35.3645 29.2182 35.2806 29.2613 35.1839 29.2381C35.0903 29.2148 35.0258 29.1518 35.0355 29.0854C35.0452 29.0223 35.1323 28.9791 35.2258 28.9891ZM33.1032 16.2656C37.5774 16.2656 41 19.7619 41 24.3672C41 28.0494 38.7484 31.2004 35.5323 32.3094C35.1194 32.3857 34.9742 32.1234 34.9742 31.9076C34.9742 31.7018 34.9839 30.5662 34.9839 29.8689C34.9839 29.8689 37.2419 30.367 37.7161 28.8795C37.7161 28.8795 38.0839 27.9133 38.6129 27.6643C38.6129 27.6643 39.3516 27.143 38.5613 27.1529C38.5613 27.1529 37.7581 27.2193 37.3161 28.0096C36.6097 29.2912 35.4258 28.9227 34.9645 28.7035C34.8903 28.1723 34.6806 27.8037 34.4484 27.5846C36.2516 27.3787 38.071 27.1098 38.071 23.9156C38.071 23.0025 37.8258 22.5443 37.3097 21.96C37.3935 21.7441 37.6677 20.8543 37.2258 19.7055C36.5516 19.4896 35 20.602 35 20.602C34.3548 20.416 33.6613 20.3197 32.9742 20.3197C32.2871 20.3197 31.5935 20.416 30.9484 20.602C30.9484 20.602 29.3968 19.4863 28.7226 19.7055C28.2806 20.8576 28.5548 21.7441 28.6387 21.96C28.1226 22.5477 27.8065 23.0059 27.8065 23.9156C27.8065 27.1197 29.7065 27.3754 31.5097 27.5846C31.2129 27.8469 30.9613 28.3449 30.9613 29.1252C30.9613 30.2441 30.971 31.6287 30.971 31.901C30.971 32.1168 30.8226 32.3791 30.4129 32.3027C27.1871 31.2004 25 28.0494 25 24.3672C25 19.7619 28.629 16.2656 33.1032 16.2656ZM37.8645 27.7174C37.9065 27.7506 37.8968 27.827 37.8419 27.89C37.7903 27.9432 37.7161 27.9664 37.6742 27.9232C37.6323 27.89 37.6419 27.8137 37.6968 27.7506C37.7484 27.6975 37.8226 27.6742 37.8645 27.7174ZM38.2129 27.4484C38.2355 27.4916 38.2032 27.5447 38.1387 27.5779C38.0871 27.6111 38.0226 27.6012 38 27.5547C37.9774 27.5115 38.0097 27.4584 38.0742 27.4252C38.1387 27.4053 38.1903 27.4152 38.2129 27.4484ZM37.1677 28.6305C37.2194 28.6736 37.2 28.7732 37.1258 28.8363C37.0516 28.9127 36.9581 28.9227 36.9161 28.8695C36.8742 28.8264 36.8935 28.7268 36.9581 28.6637C37.029 28.5873 37.1258 28.5773 37.1677 28.6305ZM37.5355 28.1424C37.5871 28.1756 37.5871 28.2619 37.5355 28.3383C37.4839 28.4146 37.3968 28.4479 37.3548 28.4146C37.3032 28.3715 37.3032 28.2852 37.3548 28.2088C37.4 28.1324 37.4839 28.0992 37.5355 28.1424Z"
                    fill="url(#paint0_linear_2294_3340)" />
            </g>
            <path
                d="M25.6938 50C25.6281 49.9992 25.5629 50.0113 25.5019 50.0357C25.4409 50.0601 25.3854 50.0962 25.3384 50.1421C25.2913 50.1879 25.2538 50.2426 25.2279 50.3029C25.2021 50.3633 25.1883 50.4281 25.1875 50.4938C25.188 50.523 25.1901 50.5523 25.1937 50.5813L27.3156 63.4594C27.3421 63.6173 27.4233 63.7609 27.545 63.8649C27.6667 63.9689 27.8212 64.0267 27.9813 64.0282H38.1594C38.279 64.0298 38.3953 63.9884 38.487 63.9115C38.5788 63.8347 38.6399 63.7275 38.6594 63.6094L40.7812 50.5844C40.802 50.4539 40.7703 50.3205 40.693 50.2134C40.6157 50.1062 40.4991 50.034 40.3687 50.0125C40.3397 50.0088 40.3105 50.0067 40.2812 50.0063L25.6938 50ZM34.6281 59.3063H31.3781L30.5 54.7125H35.4156L34.6281 59.3063Z"
                fill="url(#paint1_linear_2294_3340)" />
            <g clip-path="url(#clip3_2294_3340)">
                <path
                    d="M40.7391 87.8544L40.7172 87.7968L38.5384 81.9756C38.4947 81.8635 38.4165 81.7642 38.3134 81.7002C38.2383 81.649 38.1539 81.6201 38.0633 81.6105C37.9726 81.6009 37.8851 81.6137 37.8007 81.6458C37.7163 81.6778 37.6413 81.729 37.5788 81.7995C37.5194 81.8667 37.4756 81.9468 37.4506 82.0364L35.9814 86.6473H30.0266L28.5543 82.0364C28.5293 81.9468 28.4855 81.8667 28.4261 81.7995C28.3636 81.7322 28.2886 81.6778 28.2042 81.6458C28.1229 81.6137 28.0323 81.6009 27.9416 81.6105C27.8541 81.6201 27.7666 81.649 27.6915 81.7002C27.5884 81.7642 27.5102 81.8635 27.4665 81.9756L25.2908 87.7968L25.2658 87.8544C24.9533 88.6933 24.9157 89.6155 25.1564 90.48C25.4003 91.3414 25.9098 92.1035 26.61 92.6446L26.6162 92.651L26.635 92.6638L29.9484 95.2094L31.5927 96.4806L32.593 97.2555C32.7086 97.3163 32.8524 97.3931 32.9993 97.3931C33.1462 97.3931 33.29 97.3163 33.4057 97.2555L34.406 96.4806L36.0502 95.2094L39.3855 92.651L39.3949 92.6414C40.0951 92.1003 40.6046 91.3414 40.8203 90.48C41.0892 89.6155 41.0517 88.6933 40.7391 87.8544Z"
                    fill="url(#paint2_linear_2294_3340)" />
            </g>
            <g filter="url(#filter11_f_2294_3340)">
                <ellipse cx="33.3691" cy="-0.571986" rx="23.3073" ry="22.0885"
                    transform="rotate(168.073 33.3691 -0.571986)" fill="url(#paint3_linear_2294_3340)" />
            </g>
            <g filter="url(#filter12_f_2294_3340)">
                <ellipse cx="33.2438" cy="103.756" rx="23.8745" ry="9.54032" transform="rotate(179.048 33.2438 103.756)"
                    fill="url(#paint4_linear_2294_3340)" />
            </g>
            <g filter="url(#filter13_f_2294_3340)">
                <ellipse cx="103.632" cy="63.8884" rx="103.632" ry="63.8884"
                    transform="matrix(-0.992136 0.125162 -0.333444 -0.94277 226.24 19.4648)"
                    fill="url(#paint5_linear_2294_3340)" />
            </g>
            <g filter="url(#filter14_f_2294_3340)">
                <ellipse cx="103.632" cy="64.719" rx="103.632" ry="64.719"
                    transform="matrix(-0.992136 0.125162 -0.333444 -0.94277 160.24 194.465)"
                    fill="url(#paint6_linear_2294_3340)" />
            </g>
        </g>
        <rect x="0.5" y="0.5" width="65" height="113" rx="11.5" stroke="url(#paint7_linear_2294_3340)" />
    </g>
    <defs>
        <filter id="filter0_d_2294_3340" x="116" y="1893" width="9" height="942.5" filterUnits="userSpaceOnUse"
            color-interpolation-filters="sRGB">
            <feFlood flood-opacity="0" result="BackgroundImageFix" />
            <feColorMatrix in="SourceAlpha" type="matrix" values="0 0 0 0 0 0 0 0 0 0 0 0 0 0 0 0 0 0 127 0"
                result="hardAlpha" />
            <feOffset />
            <feGaussianBlur stdDeviation="2" />
            <feComposite in2="hardAlpha" operator="out" />
            <feColorMatrix type="matrix" values="0 0 0 0 0.686275 0 0 0 0 0.431373 0 0 0 0 0.690196 0 0 0 1 0" />
            <feBlend mode="normal" in2="BackgroundImageFix" result="effect1_dropShadow_2294_3340" />
            <feBlend mode="normal" in="SourceGraphic" in2="effect1_dropShadow_2294_3340" result="shape" />
        </filter>
        <filter id="filter1_d_2294_3340" x="47" y="1754.5" width="78.5" height="109.5" filterUnits="userSpaceOnUse"
            color-interpolation-filters="sRGB">
            <feFlood flood-opacity="0" result="BackgroundImageFix" />
            <feColorMatrix in="SourceAlpha" type="matrix" values="0 0 0 0 0 0 0 0 0 0 0 0 0 0 0 0 0 0 127 0"
                result="hardAlpha" />
            <feOffset />
            <feGaussianBlur stdDeviation="2" />
            <feComposite in2="hardAlpha" operator="out" />
            <feColorMatrix type="matrix" values="0 0 0 0 0.686275 0 0 0 0 0.431373 0 0 0 0 0.690196 0 0 0 1 0" />
            <feBlend mode="normal" in2="BackgroundImageFix" result="effect1_dropShadow_2294_3340" />
            <feBlend mode="normal" in="SourceGraphic" in2="effect1_dropShadow_2294_3340" result="shape" />
        </filter>
        <filter id="filter2_d_2294_3340" x="47" y="2864.5" width="78.5" height="204" filterUnits="userSpaceOnUse"
            color-interpolation-filters="sRGB">
            <feFlood flood-opacity="0" result="BackgroundImageFix" />
            <feColorMatrix in="SourceAlpha" type="matrix" values="0 0 0 0 0 0 0 0 0 0 0 0 0 0 0 0 0 0 127 0"
                result="hardAlpha" />
            <feOffset />
            <feGaussianBlur stdDeviation="2" />
            <feComposite in2="hardAlpha" operator="out" />
            <feColorMatrix type="matrix" values="0 0 0 0 0.686275 0 0 0 0 0.431373 0 0 0 0 0.690196 0 0 0 1 0" />
            <feBlend mode="normal" in2="BackgroundImageFix" result="effect1_dropShadow_2294_3340" />
            <feBlend mode="normal" in="SourceGraphic" in2="effect1_dropShadow_2294_3340" result="shape" />
        </filter>
        <filter id="filter3_d_2294_3340" x="28" y="110" width="9.00098" height="5383" filterUnits="userSpaceOnUse"
            color-interpolation-filters="sRGB">
            <feFlood flood-opacity="0" result="BackgroundImageFix" />
            <feColorMatrix in="SourceAlpha" type="matrix" values="0 0 0 0 0 0 0 0 0 0 0 0 0 0 0 0 0 0 127 0"
                result="hardAlpha" />
            <feOffset />
            <feGaussianBlur stdDeviation="2" />
            <feComposite in2="hardAlpha" operator="out" />
            <feColorMatrix type="matrix" values="0 0 0 0 0.686275 0 0 0 0 0.431373 0 0 0 0 0.690196 0 0 0 1 0" />
            <feBlend mode="normal" in2="BackgroundImageFix" result="effect1_dropShadow_2294_3340" />
            <feBlend mode="normal" in="SourceGraphic" in2="effect1_dropShadow_2294_3340" result="shape" />
        </filter>
        <filter id="filter4_d_2294_3340" x="18" y="901" width="29" height="29" filterUnits="userSpaceOnUse"
            color-interpolation-filters="sRGB">
            <feFlood flood-opacity="0" result="BackgroundImageFix" />
            <feColorMatrix in="SourceAlpha" type="matrix" values="0 0 0 0 0 0 0 0 0 0 0 0 0 0 0 0 0 0 127 0"
                result="hardAlpha" />
            <feOffset />
            <feGaussianBlur stdDeviation="2" />
            <feComposite in2="hardAlpha" operator="out" />
            <feColorMatrix type="matrix" values="0 0 0 0 0.686275 0 0 0 0 0.431373 0 0 0 0 0.690196 0 0 0 1 0" />
            <feBlend mode="normal" in2="BackgroundImageFix" result="effect1_dropShadow_2294_3340" />
            <feBlend mode="normal" in="SourceGraphic" in2="effect1_dropShadow_2294_3340" result="shape" />
        </filter>
        <filter id="filter5_d_2294_3340" x="18" y="1744" width="29" height="29" filterUnits="userSpaceOnUse"
            color-interpolation-filters="sRGB">
            <feFlood flood-opacity="0" result="BackgroundImageFix" />
            <feColorMatrix in="SourceAlpha" type="matrix" values="0 0 0 0 0 0 0 0 0 0 0 0 0 0 0 0 0 0 127 0"
                result="hardAlpha" />
            <feOffset />
            <feGaussianBlur stdDeviation="2" />
            <feComposite in2="hardAlpha" operator="out" />
            <feColorMatrix type="matrix" values="0 0 0 0 0.686275 0 0 0 0 0.431373 0 0 0 0 0.690196 0 0 0 1 0" />
            <feBlend mode="normal" in2="BackgroundImageFix" result="effect1_dropShadow_2294_3340" />
            <feBlend mode="normal" in="SourceGraphic" in2="effect1_dropShadow_2294_3340" result="shape" />
        </filter>
        <filter id="filter6_d_2294_3340" x="106" y="1864" width="29" height="29" filterUnits="userSpaceOnUse"
            color-interpolation-filters="sRGB">
            <feFlood flood-opacity="0" result="BackgroundImageFix" />
            <feColorMatrix in="SourceAlpha" type="matrix" values="0 0 0 0 0 0 0 0 0 0 0 0 0 0 0 0 0 0 127 0"
                result="hardAlpha" />
            <feOffset />
            <feGaussianBlur stdDeviation="2" />
            <feComposite in2="hardAlpha" operator="out" />
            <feColorMatrix type="matrix" values="0 0 0 0 0.686275 0 0 0 0 0.431373 0 0 0 0 0.690196 0 0 0 1 0" />
            <feBlend mode="normal" in2="BackgroundImageFix" result="effect1_dropShadow_2294_3340" />
            <feBlend mode="normal" in="SourceGraphic" in2="effect1_dropShadow_2294_3340" result="shape" />
        </filter>
        <filter id="filter7_d_2294_3340" x="105.988" y="2835.5" width="29" height="29" filterUnits="userSpaceOnUse"
            color-interpolation-filters="sRGB">
            <feFlood flood-opacity="0" result="BackgroundImageFix" />
            <feColorMatrix in="SourceAlpha" type="matrix" values="0 0 0 0 0 0 0 0 0 0 0 0 0 0 0 0 0 0 127 0"
                result="hardAlpha" />
            <feOffset />
            <feGaussianBlur stdDeviation="2" />
            <feComposite in2="hardAlpha" operator="out" />
            <feColorMatrix type="matrix" values="0 0 0 0 0.686275 0 0 0 0 0.431373 0 0 0 0 0.690196 0 0 0 1 0" />
            <feBlend mode="normal" in2="BackgroundImageFix" result="effect1_dropShadow_2294_3340" />
            <feBlend mode="normal" in="SourceGraphic" in2="effect1_dropShadow_2294_3340" result="shape" />
        </filter>
        <filter id="filter8_d_2294_3340" x="18" y="3050" width="29" height="29" filterUnits="userSpaceOnUse"
            color-interpolation-filters="sRGB">
            <feFlood flood-opacity="0" result="BackgroundImageFix" />
            <feColorMatrix in="SourceAlpha" type="matrix" values="0 0 0 0 0 0 0 0 0 0 0 0 0 0 0 0 0 0 127 0"
                result="hardAlpha" />
            <feOffset />
            <feGaussianBlur stdDeviation="2" />
            <feComposite in2="hardAlpha" operator="out" />
            <feColorMatrix type="matrix" values="0 0 0 0 0.686275 0 0 0 0 0.431373 0 0 0 0 0.690196 0 0 0 1 0" />
            <feBlend mode="normal" in2="BackgroundImageFix" result="effect1_dropShadow_2294_3340" />
            <feBlend mode="normal" in="SourceGraphic" in2="effect1_dropShadow_2294_3340" result="shape" />
        </filter>
        <filter id="filter9_d_2294_3340" x="18" y="4045" width="29" height="29" filterUnits="userSpaceOnUse"
            color-interpolation-filters="sRGB">
            <feFlood flood-opacity="0" result="BackgroundImageFix" />
            <feColorMatrix in="SourceAlpha" type="matrix" values="0 0 0 0 0 0 0 0 0 0 0 0 0 0 0 0 0 0 127 0"
                result="hardAlpha" />
            <feOffset />
            <feGaussianBlur stdDeviation="2" />
            <feComposite in2="hardAlpha" operator="out" />
            <feColorMatrix type="matrix" values="0 0 0 0 0.686275 0 0 0 0 0.431373 0 0 0 0 0.690196 0 0 0 1 0" />
            <feBlend mode="normal" in2="BackgroundImageFix" result="effect1_dropShadow_2294_3340" />
            <feBlend mode="normal" in="SourceGraphic" in2="effect1_dropShadow_2294_3340" result="shape" />
        </filter>
        <filter id="filter10_d_2294_3340" x="18" y="5353" width="29" height="29" filterUnits="userSpaceOnUse"
            color-interpolation-filters="sRGB">
            <feFlood flood-opacity="0" result="BackgroundImageFix" />
            <feColorMatrix in="SourceAlpha" type="matrix" values="0 0 0 0 0 0 0 0 0 0 0 0 0 0 0 0 0 0 127 0"
                result="hardAlpha" />
            <feOffset />
            <feGaussianBlur stdDeviation="2" />
            <feComposite in2="hardAlpha" operator="out" />
            <feColorMatrix type="matrix" values="0 0 0 0 0.686275 0 0 0 0 0.431373 0 0 0 0 0.690196 0 0 0 1 0" />
            <feBlend mode="normal" in2="BackgroundImageFix" result="effect1_dropShadow_2294_3340" />
            <feBlend mode="normal" in="SourceGraphic" in2="effect1_dropShadow_2294_3340" result="shape" />
        </filter>
        <filter id="filter11_f_2294_3340" x="-193.892" y="-226.719" width="454.521" height="452.293"
            filterUnits="userSpaceOnUse" color-interpolation-filters="sRGB">
            <feFlood flood-opacity="0" result="BackgroundImageFix" />
            <feBlend mode="normal" in="SourceGraphic" in2="BackgroundImageFix" result="shape" />
            <feGaussianBlur stdDeviation="102" result="effect1_foregroundBlur_2294_3340" />
        </filter>
        <filter id="filter12_f_2294_3340" x="-194.628" y="-109.791" width="455.743" height="427.094"
            filterUnits="userSpaceOnUse" color-interpolation-filters="sRGB">
            <feFlood flood-opacity="0" result="BackgroundImageFix" />
            <feBlend mode="normal" in="SourceGraphic" in2="BackgroundImageFix" result="shape" />
            <feGaussianBlur stdDeviation="102" result="effect1_foregroundBlur_2294_3340" />
        </filter>
        <filter id="filter13_f_2294_3340" x="-206.901" y="-293.422" width="618.043" height="531.252"
            filterUnits="userSpaceOnUse" color-interpolation-filters="sRGB">
            <feFlood flood-opacity="0" result="BackgroundImageFix" />
            <feBlend mode="normal" in="SourceGraphic" in2="BackgroundImageFix" result="shape" />
            <feGaussianBlur stdDeviation="102" result="effect1_foregroundBlur_2294_3340" />
        </filter>
        <filter id="filter14_f_2294_3340" x="-273.235" y="-119.971" width="618.157" height="532.783"
            filterUnits="userSpaceOnUse" color-interpolation-filters="sRGB">
            <feFlood flood-opacity="0" result="BackgroundImageFix" />
            <feBlend mode="normal" in="SourceGraphic" in2="BackgroundImageFix" result="shape" />
            <feGaussianBlur stdDeviation="102" result="effect1_foregroundBlur_2294_3340" />
        </filter>
        <linearGradient id="paint0_linear_2294_3340" x1="41.8972" y1="16.2656" x2="23.2056" y2="16.2656"
            gradientUnits="userSpaceOnUse">
            <stop stop-color="#E3FFF7" />
            <stop offset="0.5" stop-color="#F2F2F2" />
        </linearGradient>
        <linearGradient id="paint1_linear_2294_3340" x1="24.3127" y1="50" x2="42.537" y2="50"
            gradientUnits="userSpaceOnUse">
            <stop offset="0.523546" stop-color="#F2F2F2" />
            <stop offset="1" stop-color="#F5DFFF" />
        </linearGradient>
        <linearGradient id="paint2_linear_2294_3340" x1="24.1028" y1="81.6074" x2="42.7944" y2="81.6074"
            gradientUnits="userSpaceOnUse">
            <stop stop-color="#E3FFF7" />
            <stop offset="0.523546" stop-color="#F2F2F2" />
            <stop offset="1" stop-color="#F5DFFF" />
        </linearGradient>
        <linearGradient id="paint3_linear_2294_3340" x1="18.738" y1="-9.35698" x2="93.5285" y2="93.3562"
            gradientUnits="userSpaceOnUse">
            <stop />
            <stop offset="1" stop-color="#9D90FF" />
        </linearGradient>
        <linearGradient id="paint4_linear_2294_3340" x1="35.0496" y1="96.8724" x2="31.6393" y2="132.919"
            gradientUnits="userSpaceOnUse">
            <stop stop-color="#6900FF" />
            <stop offset="0.975" stop-color="#4630EC" />
        </linearGradient>
        <linearGradient id="paint5_linear_2294_3340" x1="90.3138" y1="52.9865" x2="218.689" y2="28.6613"
            gradientUnits="userSpaceOnUse">
            <stop stop-color="#2995C4" />
            <stop offset="1" stop-color="#0B0822" />
        </linearGradient>
        <linearGradient id="paint6_linear_2294_3340" x1="90.3138" y1="53.6754" x2="218.802" y2="29.6411"
            gradientUnits="userSpaceOnUse">
            <stop stop-color="#99609C" />
            <stop offset="1" stop-color="#0B0822" />
        </linearGradient>
        <linearGradient id="paint7_linear_2294_3340" x1="33" y1="-55" x2="33" y2="114" gradientUnits="userSpaceOnUse">
            <stop stop-color="#DDDDEB" />
            <stop offset="1" stop-color="#D684D0" />
        </linearGradient>
        <clipPath id="clip0_2294_3340">
            <rect width="131" height="5383" fill="white" />
        </clipPath>
        <clipPath id="clip1_2294_3340">
            <rect width="66" height="114" rx="12" fill="white" />
        </clipPath>
        <clipPath id="clip2_2294_3340">
            <rect width="16" height="17" fill="white" transform="matrix(-1 0 0 1 41 16)" />
        </clipPath>
        <clipPath id="clip3_2294_3340">
            <rect width="16" height="17" fill="white" transform="translate(25 81)" />
        </clipPath>
    </defs>
</svg>