<?xml version="1.0" encoding="utf-8"?>
<!-- Generator: Adobe Illustrator 24.1.0, SVG Export Plug-In . SVG Version: 6.00 Build 0)  -->
<svg version="1.1" id="Layer_1" xmlns="http://www.w3.org/2000/svg" xmlns:xlink="http://www.w3.org/1999/xlink" x="0px" y="0px"
	 viewBox="0 0 3000 2000" style="enable-background:new 0 0 3000 2000;" xml:space="preserve">
<style type="text/css">
	.st0{fill:#FFFFFF;}
	.st1{fill:none;stroke:#E535AB;stroke-width:12;stroke-linecap:round;stroke-miterlimit:10;stroke-dasharray:0,25;}
	.st2{fill:#E535AB;}
	.st3{fill:none;stroke:#488FCD;stroke-width:12;stroke-linecap:round;stroke-miterlimit:10;stroke-dasharray:0,25;}
	.st4{fill:#488FCD;}
	.st5{fill:none;stroke:#E535AB;stroke-width:12;stroke-miterlimit:10;}
	.st6{fill:none;stroke:#E535AB;stroke-width:12;stroke-miterlimit:10;stroke-dasharray:11.96,11.96;}
	.st7{fill:none;stroke:#488FCD;stroke-width:12;stroke-miterlimit:10;}
	.st8{fill:none;stroke:#488FCD;stroke-width:12;stroke-miterlimit:10;stroke-dasharray:12.32,12.32;}
	.st9{fill:none;stroke:#E535AB;stroke-width:12;stroke-miterlimit:10;stroke-dasharray:11.78,11.78;}
	.st10{fill:none;stroke:#E535AB;stroke-width:12;stroke-miterlimit:10;stroke-dasharray:11.88,11.88;}
	.st11{clip-path:url(#SVGID_2_);}
	.st12{opacity:0.1;enable-background:new    ;}
	.st13{fill:#4B5256;}
	.st14{font-family:'Roboto-Regular';}
	.st15{font-size:72px;}
	.st16{fill:#3EB53E;}
	.st17{fill:#FFFFFF;stroke:#FFFFFF;stroke-width:8;stroke-miterlimit:10;}
	.st18{fill:none;stroke:#FFFFFF;stroke-width:8;stroke-miterlimit:10;}
	.st19{clip-path:url(#SVGID_4_);}
	.st20{clip-path:url(#SVGID_6_);}
	.st21{fill:#FF892A;}
	.st22{clip-path:url(#SVGID_8_);}
	.st23{letter-spacing:-4;}
	.st24{letter-spacing:-2;}
	.st25{fill:#A3AFB7;}
	.st26{clip-path:url(#SVGID_10_);}
	.st27{fill:#2B2B2B;}
	.st28{clip-path:url(#SVGID_12_);}
	.st29{opacity:0.1;fill:#FFFFFF;enable-background:new    ;}
	.st30{fill:#F40010;}
	.st31{clip-path:url(#SVGID_14_);}
	.st32{opacity:0.1;}
</style>
<rect class="st0" width="3000" height="2000"/>
<g id="ae4f3aef-5110-4dbd-9067-c537297c70a6">
	<line class="st1" x1="1222" y1="820" x2="1009.5" y2="607.5"/>
	<circle class="st0" cx="1108" cy="706.8" r="60"/>
	<path class="st2" d="M1147.2,719.3c-0.7-0.4-1.5-0.7-2.3-0.9v-23.3c0.8-0.2,1.6-0.5,2.3-0.9c4.3-2.3,5.9-7.6,3.6-11.8
		c-2.3-4.3-7.6-5.9-11.8-3.6c-0.2,0.1-0.3,0.2-0.5,0.3c-0.7,0.4-1.4,1-2,1.6l-20.1-11.6c0.2-0.8,0.4-1.7,0.4-2.5
		c0-4.8-3.9-8.7-8.8-8.7c-4.8,0-8.7,3.9-8.7,8.7c0,0.8,0.1,1.7,0.4,2.5l-20.2,11.6c-0.6-0.6-1.3-1.1-2-1.6
		c-4.3-2.3-9.6-0.7-11.8,3.6c-2.2,4.1-0.8,9.1,3.1,11.5c0.7,0.4,1.5,0.7,2.3,0.9v23.3c-4.7,1.1-7.6,5.9-6.4,10.6
		c1.1,4.7,5.9,7.6,10.6,6.4c0.8-0.2,1.6-0.5,2.3-0.9c0.7-0.4,1.4-0.9,2-1.5l20.2,11.6c-0.2,0.8-0.4,1.6-0.4,2.5
		c-0.1,4.8,3.8,8.8,8.6,8.8s8.8-3.8,8.8-8.6c0-1-0.1-2-0.5-3l20-11.6c0.6,0.7,1.3,1.3,2.2,1.8c4.3,2.3,9.6,0.7,11.8-3.6
		C1152.4,726.8,1151,721.8,1147.2,719.3L1147.2,719.3z M1081.6,724.9c-0.2-0.8-0.5-1.6-0.9-2.3c-0.4-0.7-0.9-1.4-1.5-2l26.4-45.7
		c1.6,0.5,3.3,0.5,4.9,0l26.4,45.7c-0.6,0.6-1.1,1.3-1.5,2c-0.4,0.7-0.7,1.5-0.9,2.3L1081.6,724.9z M1134.4,684.2
		c-1.3,4.6,1.3,9.5,6,10.8c0.1,0,0.2,0.1,0.3,0.1v23.3l-0.3,0.1l-26.4-45.7l0.2-0.2L1134.4,684.2z M1101.7,672.6l0.2,0.2l-26.4,45.7
		c-0.1,0-0.2-0.1-0.3-0.1v-23.3c4.7-1.2,7.5-5.9,6.4-10.5c0-0.1-0.1-0.2-0.1-0.3L1101.7,672.6z M1114.4,741.2
		c-3.3-3.6-8.8-3.8-12.4-0.6c-0.1,0.1-0.3,0.2-0.4,0.4l-20.2-11.7l0.1-0.3h52.8c0,0.2,0.1,0.4,0.2,0.6L1114.4,741.2z"/>
	<line class="st3" x1="1013.6" y1="1388.6" x2="1222" y2="1180.2"/>
	<circle class="st0" cx="1110" cy="1293" r="45"/>
	<circle class="st4" cx="1110" cy="1293" r="27"/>
	<line class="st5" x1="1500" y1="1617" x2="1500" y2="1611"/>
	<line class="st6" x1="1500" y1="1599" x2="1500" y2="1342"/>
	<line class="st5" x1="1500" y1="1336" x2="1500" y2="1330"/>
	<circle class="st0" cx="1500" cy="1473.3" r="60"/>
	<path class="st2" d="M1539.2,1485.8c-0.7-0.4-1.5-0.7-2.3-0.9v-23.3c4.7-1.1,7.6-5.9,6.4-10.6c-0.2-0.8-0.5-1.6-0.9-2.3
		c-2.4-4.2-7.8-5.6-12-3.2c0,0,0,0,0,0c-0.7,0.4-1.4,1-2,1.6l-20.2-11.6c0.2-0.8,0.4-1.7,0.4-2.5c0-4.8-3.9-8.7-8.8-8.7
		c-4.8,0-8.7,3.9-8.7,8.7c0,0.8,0.1,1.7,0.4,2.5l-20.2,11.6c-0.6-0.6-1.3-1.1-2-1.6c-4.1-2.6-9.5-1.3-12.1,2.8
		c-2.6,4.1-1.3,9.5,2.8,12.1c0.2,0.1,0.3,0.2,0.5,0.3c0.7,0.4,1.5,0.7,2.3,0.9v23.3c-0.8,0.2-1.6,0.5-2.3,0.9
		c-4.2,2.4-5.7,7.7-3.3,11.9c2.4,4.2,7.7,5.7,11.9,3.3c0.8-0.4,1.4-1,2-1.6l20.2,11.6c-0.2,0.8-0.4,1.6-0.4,2.5
		c0,4.8,3.9,8.7,8.8,8.7c4.8,0,8.7-3.9,8.7-8.7c0-0.9-0.2-1.9-0.4-2.8l20-11.6c0.6,0.7,1.3,1.3,2.2,1.8c4.3,2.3,9.6,0.7,11.8-3.6
		c2.2-4.1,0.8-9.1-3.1-11.5H1539.2z M1473.6,1491.3c-0.2-0.8-0.5-1.6-0.9-2.3c-0.4-0.7-0.9-1.4-1.5-2l26.4-45.7
		c1.6,0.5,3.3,0.5,4.9,0l26.4,45.7c-1.2,1.2-2.1,2.6-2.4,4.3L1473.6,1491.3z M1526.5,1450.7c-1.3,4.6,1.3,9.5,6,10.8
		c0.1,0,0.2,0.1,0.3,0.1v23.3l-0.3,0.1l-26.4-45.7l0.2-0.2L1526.5,1450.7z M1493.7,1439.1l0.2,0.2l-26.4,45.7l-0.3-0.1v-23.3
		c2.3-0.6,4.3-2.1,5.5-4.1c1.2-2.1,1.5-4.5,0.8-6.8L1493.7,1439.1z M1506.5,1507.7c-3.3-3.6-8.8-3.8-12.4-0.6
		c-0.1,0.1-0.3,0.2-0.4,0.4l-20.2-11.7c0-0.1,0.1-0.2,0.1-0.3h52.8c0,0.2,0.1,0.4,0.2,0.6L1506.5,1507.7z"/>
	<line class="st7" x1="1987.9" y1="1388.1" x2="1983.6" y2="1383.9"/>
	<line class="st8" x1="1974.9" y1="1375.2" x2="1787.6" y2="1187.8"/>
	<line class="st7" x1="1783.2" y1="1183.5" x2="1779" y2="1179.2"/>
	<circle class="st0" cx="1893" cy="1292" r="45"/>
	<circle class="st4" cx="1893" cy="1292" r="27"/>
	<line class="st5" x1="1778" y1="822" x2="1782.2" y2="817.8"/>
	<line class="st9" x1="1790.6" y1="809.4" x2="1969.6" y2="630.4"/>
	<line class="st5" x1="1973.8" y1="626.2" x2="1978" y2="622"/>
	<circle class="st0" cx="1878" cy="723" r="60"/>
	<path class="st2" d="M1917.2,735.6c-0.7-0.4-1.5-0.7-2.3-0.9v-23.3c0.8-0.2,1.6-0.5,2.3-0.9c4.3-2.3,5.9-7.6,3.6-11.8
		c-2.3-4.3-7.6-5.9-11.8-3.6c-0.2,0.1-0.3,0.2-0.5,0.3c-0.7,0.4-1.4,1-2,1.6l-20.2-11.6c0.2-0.8,0.4-1.7,0.4-2.5
		c0-4.8-3.9-8.7-8.7-8.7c-4.8,0-8.7,3.9-8.7,8.7c0,0.8,0.1,1.7,0.4,2.5l-20.2,11.7c-0.6-0.6-1.3-1.1-2-1.6
		c-4.1-2.6-9.5-1.3-12.1,2.8c-2.6,4.1-1.3,9.5,2.8,12.1c0.2,0.1,0.3,0.2,0.5,0.3c0.7,0.4,1.5,0.7,2.3,0.9v23.3
		c-0.8,0.2-1.6,0.5-2.3,0.9c-4.2,2.4-5.7,7.7-3.3,11.9c2.4,4.2,7.7,5.7,11.9,3.3c0.8-0.4,1.4-1,2-1.6l20.2,11.6
		c-1.4,4.6,1.3,9.5,5.9,10.9c4.6,1.4,9.5-1.3,10.9-5.9c0.2-0.8,0.4-1.7,0.4-2.5c0-0.9-0.1-1.9-0.4-2.8l20-11.6
		c0.6,0.7,1.4,1.3,2.2,1.8c4.3,2.3,9.6,0.7,11.8-3.6C1922.4,743.1,1921.1,738,1917.2,735.6L1917.2,735.6z M1851.6,741.1
		c-0.2-0.8-0.5-1.6-0.9-2.3c-0.4-0.7-0.9-1.4-1.5-2l26.4-45.7c1.6,0.5,3.3,0.5,4.9,0l26.4,45.7c-0.6,0.6-1.1,1.3-1.5,2
		c-0.4,0.7-0.7,1.5-0.9,2.3L1851.6,741.1z M1904.5,700.5c-1.3,4.6,1.3,9.5,6,10.8c0.1,0,0.2,0.1,0.3,0.1v23.3l-0.3,0.1L1884,689
		l0.2-0.2L1904.5,700.5z M1871.7,688.8l0.2,0.2l-26.4,45.7l-0.3-0.1v-23.3c4.7-1.2,7.5-5.9,6.4-10.6c0-0.1-0.1-0.2-0.1-0.3
		L1871.7,688.8z M1884.5,757.4c-3.2-3.6-8.8-3.8-12.3-0.6c-0.1,0.1-0.3,0.3-0.4,0.4l-20.2-11.7c0-0.1,0.1-0.2,0.1-0.3h52.8
		c0,0.2,0.1,0.4,0.2,0.6L1884.5,757.4z"/>
	<line class="st5" x1="1500" y1="664" x2="1500" y2="658"/>
	<line class="st10" x1="1500" y1="646.1" x2="1500" y2="366.9"/>
	<line class="st5" x1="1500" y1="361" x2="1500" y2="355"/>
	<circle class="st0" cx="1500" cy="497.8" r="60"/>
	<path class="st2" d="M1539.2,510.4c-0.7-0.4-1.5-0.7-2.3-0.9v-23.3c4.7-1.1,7.6-5.9,6.4-10.6c-0.2-0.8-0.5-1.6-0.9-2.3
		c-2.4-4.2-7.8-5.6-12-3.2c0,0,0,0,0,0c-0.7,0.4-1.4,1-2,1.6l-20.1-11.6c0.2-0.8,0.4-1.7,0.4-2.5c0-4.8-3.9-8.7-8.8-8.7
		c-4.8,0-8.7,3.9-8.7,8.7c0,0.8,0.1,1.7,0.4,2.5l-20.2,11.6c-0.6-0.6-1.3-1.1-2-1.6c-4.1-2.6-9.5-1.3-12.1,2.8
		c-2.6,4.1-1.3,9.5,2.8,12.1c0.2,0.1,0.3,0.2,0.5,0.3c0.7,0.4,1.5,0.7,2.3,0.9v23.3c-0.8,0.2-1.6,0.5-2.3,0.9
		c-4.2,2.5-5.5,7.8-3.1,12c2.5,4.2,7.8,5.5,12,3.1c0.7-0.4,1.3-0.9,1.8-1.4l20.2,11.6c-0.2,0.8-0.4,1.6-0.4,2.5
		c0,4.8,3.9,8.7,8.8,8.7c4.8,0,8.7-3.9,8.7-8.7c0-0.9-0.2-1.9-0.4-2.8l20-11.6c0.6,0.7,1.3,1.3,2.2,1.8c4.3,2.3,9.6,0.7,11.8-3.6
		C1544.5,517.9,1543.1,512.8,1539.2,510.4L1539.2,510.4z M1473.6,515.9c-0.2-0.8-0.5-1.6-0.9-2.3c-0.4-0.7-0.9-1.4-1.5-2l26.4-45.7
		c1.6,0.5,3.3,0.5,4.9,0l26.4,45.7c-1.2,1.2-2.1,2.6-2.4,4.3H1473.6z M1526.5,475.2c-1.3,4.6,1.3,9.5,6,10.8c0.1,0,0.2,0.1,0.3,0.1
		v23.3l-0.3,0.1l-26.4-45.7l0.2-0.2L1526.5,475.2z M1493.7,463.6l0.2,0.2l-26.4,45.7c-0.1,0-0.2-0.1-0.3-0.1v-23.3
		c4.7-1.2,7.5-5.9,6.4-10.6c0-0.1-0.1-0.2-0.1-0.3L1493.7,463.6z M1506.5,532.2c-3.3-3.6-8.8-3.8-12.4-0.6c-0.1,0.1-0.3,0.2-0.4,0.4
		l-20.2-11.7c0-0.1,0.1-0.2,0.1-0.3h52.8c0,0.2,0.1,0.4,0.2,0.6L1506.5,532.2z"/>
</g>
<g id="b037835d-f478-487f-8e83-548890ccbf82">
	<path class="st4" d="M925.5,428.2c-52.1,0-94.3,42.2-94.3,94.3s42.2,94.3,94.3,94.3s94.3-42.2,94.3-94.3
		C1019.8,470.4,977.6,428.2,925.5,428.2C925.5,428.2,925.5,428.2,925.5,428.2z M956.8,564.2c-1.5,1.5-3,3-4.3,4.3
		c-1.1,1.1-1.9,2.5-2.3,4.1c-0.6,2.2-1,4.3-1.8,6.4l-6.6,17.8c-5.3,1.2-10.8,1.8-16.2,1.8v-10.4c0.6-4.8-2.9-13.8-8.6-19.5
		c-2.3-2.3-3.6-5.4-3.6-8.6v-12.2c0-4.4-2.4-8.5-6.3-10.6c-5.5-3-13.2-7.2-18.6-9.9c-4.3-2.2-8.4-5-12-8.3l-0.3-0.3
		c-2.6-2.3-4.9-5-6.9-7.9c-3.6-5.2-9.4-13.9-13.1-19.5c7.8-17.4,21.8-31.2,39.2-38.8l9.1,4.6c3,1.5,6.7,0.3,8.2-2.7
		c0.4-0.8,0.6-1.8,0.6-2.7v-4.3c3.1-0.5,6.2-0.8,9.3-0.9l10.8,10.8c2.4,2.4,2.4,6.2,0,8.6c0,0,0,0,0,0l-1.8,1.8l-3.9,3.9
		c-1.2,1.2-1.2,3.1,0,4.3l1.8,1.8c1.2,1.2,1.2,3.1,0,4.3l-3,3c-0.6,0.6-1.3,0.9-2.2,0.9h-3.4c-0.8,0-1.6,0.3-2.1,0.9l-3.8,3.7
		c-1,0.9-1.2,2.4-0.6,3.5l5.9,11.9c0.8,1.5,0.1,3.3-1.4,4.1c-0.4,0.2-0.9,0.3-1.3,0.3h-2.2c-0.7,0-1.4-0.3-2-0.8l-3.5-3.1
		c-1.6-1.4-3.9-1.9-5.9-1.2l-11.9,4c-2.4,0.8-3.7,3.4-2.9,5.7c0.4,1.2,1.2,2.1,2.3,2.6l4.2,2.1c3.6,1.8,7.5,2.7,11.5,2.7
		c4,0,8.6,10.4,12.2,12.2h25.4c3.2,0,6.3,1.3,8.6,3.6l5.2,5.2c2.2,2.2,3.4,5.1,3.4,8.2C962,556.4,960.1,560.9,956.8,564.2
		L956.8,564.2z M989.8,529.4c-2.2-0.5-4.1-1.9-5.4-3.8l-6.8-10.3c-2-3.1-2-7.1,0-10.1l7.4-11.2c0.9-1.3,2.1-2.4,3.5-3.1l4.9-2.5
		c6.9,13.5,9.5,28.7,7.4,43.7L989.8,529.4z"/>
	<g>
		<defs>
			
				<rect id="SVGID_1_" x="890.3" y="484.8" transform="matrix(0.5562 -0.8311 0.8311 0.5562 -35.0518 1085.0283)" width="216" height="181"/>
		</defs>
		<clipPath id="SVGID_2_">
			<use xlink:href="#SVGID_1_"  style="overflow:visible;"/>
		</clipPath>
		<g class="st11">
			<path class="st12" d="M925.5,428.2c-52.1,0-94.3,42.2-94.3,94.3s42.2,94.3,94.3,94.3s94.3-42.2,94.3-94.3
				C1019.8,470.4,977.6,428.2,925.5,428.2C925.5,428.2,925.5,428.2,925.5,428.2z M956.8,564.2c-1.5,1.5-3,3-4.3,4.3
				c-1.1,1.1-1.9,2.5-2.3,4.1c-0.6,2.2-1,4.3-1.8,6.4l-6.6,17.8c-5.3,1.2-10.8,1.8-16.2,1.8v-10.4c0.6-4.8-2.9-13.8-8.6-19.5
				c-2.3-2.3-3.6-5.4-3.6-8.6v-12.2c0-4.4-2.4-8.5-6.3-10.6c-5.5-3-13.2-7.2-18.6-9.9c-4.3-2.2-8.4-5-12-8.3l-0.3-0.3
				c-2.6-2.3-4.9-5-6.9-7.9c-3.6-5.2-9.4-13.9-13.1-19.5c7.8-17.4,21.8-31.2,39.2-38.8l9.1,4.6c3,1.5,6.7,0.3,8.2-2.7
				c0.4-0.8,0.6-1.8,0.6-2.7v-4.3c3.1-0.5,6.2-0.8,9.3-0.9l10.8,10.8c2.4,2.4,2.4,6.2,0,8.6c0,0,0,0,0,0l-1.8,1.8l-3.9,3.9
				c-1.2,1.2-1.2,3.1,0,4.3l1.8,1.8c1.2,1.2,1.2,3.1,0,4.3l-3,3c-0.6,0.6-1.3,0.9-2.1,0.9h-3.4c-0.8,0-1.6,0.3-2.1,0.9l-3.8,3.7
				c-1,0.9-1.2,2.4-0.6,3.5l5.9,11.9c0.8,1.5,0.1,3.3-1.4,4.1c-0.4,0.2-0.9,0.3-1.4,0.3h-2.2c-0.7,0-1.4-0.3-2-0.8l-3.5-3.1
				c-1.6-1.4-3.9-1.9-5.9-1.2l-11.8,4c-2.4,0.8-3.7,3.4-2.9,5.7c0.4,1.2,1.2,2.1,2.3,2.6l4.2,2.1c3.6,1.8,7.5,2.7,11.5,2.7
				c4,0,8.6,10.4,12.2,12.2h25.4c3.2,0,6.3,1.3,8.6,3.6l5.2,5.2c2.2,2.2,3.4,5.1,3.4,8.2C962,556.4,960.1,560.9,956.8,564.2
				L956.8,564.2z M989.8,529.4c-2.2-0.5-4.1-1.9-5.4-3.8l-6.8-10.3c-2-3.1-2-7.1,0-10.1l7.4-11.2c0.9-1.3,2.1-2.4,3.5-3.1l4.9-2.5
				c6.9,13.5,9.5,28.7,7.4,43.7L989.8,529.4z"/>
		</g>
	</g>
	<text transform="matrix(1 0 0 1 756.73 384.84)" class="st13 st14 st15">WEB APPS</text>
</g>
<g id="a0def7d7-1494-4cf1-a746-7168bff291da">
	<circle class="st16" cx="919.8" cy="1471.8" r="98.2"/>
	<circle class="st17" cx="903.6" cy="1477.6" r="16.1"/>
	<circle class="st17" cx="904.7" cy="1430.7" r="11.2"/>
	<circle class="st17" cx="965.8" cy="1491.8" r="11.2"/>
	<path class="st17" d="M885.6,1517.3c0,6.2-5,11.2-11.2,11.2c-6.2,0-11.2-5-11.2-11.2c0-6.2,5-11.2,11.2-11.2c1.5,0,3,0.3,4.3,0.9
		C882.9,1508.7,885.6,1512.8,885.6,1517.3z"/>
	<circle class="st17" cx="965.8" cy="1424.7" r="11.2"/>
	<line class="st18" x1="904.7" y1="1442.3" x2="904" y2="1461.4"/>
	<line class="st18" x1="917.2" y1="1466.9" x2="957.1" y2="1432.8"/>
	<line class="st18" x1="918.5" y1="1482.5" x2="954.8" y2="1490.3"/>
	<line class="st18" x1="893.7" y1="1491.2" x2="881.1" y2="1507.5"/>
	<g>
		<defs>
			
				<rect id="SVGID_3_" x="890.9" y="1434.4" transform="matrix(0.5562 -0.8311 0.8311 0.5562 -823.9479 1506.9685)" width="216" height="181"/>
		</defs>
		<clipPath id="SVGID_4_">
			<use xlink:href="#SVGID_3_"  style="overflow:visible;"/>
		</clipPath>
		<g class="st19">
			<circle class="st12" cx="919.8" cy="1471.8" r="98.2"/>
			<circle class="st17" cx="903.6" cy="1477.6" r="16.1"/>
			<circle class="st17" cx="904.7" cy="1430.7" r="11.2"/>
			<circle class="st17" cx="965.8" cy="1491.8" r="11.2"/>
			<path class="st17" d="M885.6,1517.3c0,6.2-5,11.2-11.2,11.2c-6.2,0-11.2-5-11.2-11.2c0-6.2,5-11.2,11.2-11.2c1.5,0,3,0.3,4.3,0.9
				C882.9,1508.7,885.6,1512.8,885.6,1517.3z"/>
			<circle class="st17" cx="965.8" cy="1424.7" r="11.2"/>
			<line class="st18" x1="904.7" y1="1442.3" x2="904" y2="1461.4"/>
			<line class="st18" x1="917.1" y1="1466.9" x2="957.1" y2="1432.8"/>
			<line class="st18" x1="918.5" y1="1482.5" x2="954.8" y2="1490.3"/>
			<line class="st18" x1="893.6" y1="1491.2" x2="881.1" y2="1507.5"/>
		</g>
	</g>
	<text transform="matrix(1 0 0 1 678.37 1639.27)" class="st13 st14 st15">APIS</text>
</g>
<g id="e74f97c2-20d0-4608-9820-575e25a70a6b">
	<path class="st2" d="M1581.5,1806.5l-71.5,41.3c-6.2,3.6-13.8,3.6-20,0l-71.5-41.3c-6.2-3.6-10-10.2-10-17.3v-82.6
		c0-7.1,3.8-13.7,10-17.3l71.5-41.3c6.2-3.6,13.8-3.6,20,0l71.5,41.3c6.2,3.6,10,10.2,10,17.3v82.6
		C1591.5,1796.3,1587.7,1802.9,1581.5,1806.5z"/>
	<path class="st0" d="M1565.8,1769c-1.2-0.7-2.5-1.2-3.9-1.5v-39.1c7.9-2,12.6-9.9,10.6-17.8s-9.9-12.6-17.8-10.6
		c-1.3,0.3-2.5,0.8-3.6,1.4c-1.2,0.7-2.4,1.6-3.3,2.6l-33.8-19.5c0.4-1.4,0.6-2.8,0.6-4.2c0-8.1-6.6-14.7-14.7-14.6
		c-8.1,0-14.7,6.6-14.6,14.7c0,1.4,0.2,2.8,0.6,4.1l-33.8,19.5c-5.6-5.9-14.9-6.1-20.7-0.5c-5.9,5.6-6.1,14.9-0.5,20.7
		c1.9,2,4.4,3.5,7.1,4.1v39.1c-1.4,0.3-2.7,0.8-3.9,1.5c-7,4-9.5,13-5.5,20s13,9.5,20,5.5c1.3-0.7,2.4-1.6,3.4-2.7l33.8,19.5
		c-2.3,7.8,2.2,15.9,10,18.2c7.8,2.3,15.9-2.2,18.2-10c0.8-2.8,0.8-5.9-0.1-8.7l33.6-19.4c5.4,6,14.7,6.6,20.7,1.2
		c6-5.4,6.6-14.7,1.2-20.7C1568.4,1770.8,1567.2,1769.8,1565.8,1769L1565.8,1769z M1455.8,1778.2c-0.7-2.7-2.1-5.2-4.1-7.1
		l44.3-76.7c2.7,0.8,5.5,0.8,8.2,0l44.3,76.7c-2,1.9-3.5,4.4-4.1,7.2L1455.8,1778.2z M1544.4,1710.1c-2.2,7.8,2.3,15.9,10,18.1
		c0.2,0,0.3,0.1,0.5,0.1v39.1l-0.6,0.2l-44.3-76.7l0.4-0.4L1544.4,1710.1z M1489.4,1690.5l0.4,0.4l-44.3,76.7l-0.6-0.2v-39.1
		c7.8-1.9,12.6-9.9,10.7-17.7c0-0.2-0.1-0.4-0.1-0.5L1489.4,1690.5z M1510.8,1805.6c-5.5-6-14.8-6.4-20.7-0.9
		c-0.2,0.2-0.4,0.4-0.7,0.6l-33.9-19.5c0.1-0.2,0.1-0.4,0.2-0.6h88.5c0.1,0.3,0.2,0.7,0.3,1L1510.8,1805.6z"/>
	<g>
		<defs>
			<rect id="SVGID_5_" x="1500" y="1625" width="175" height="251"/>
		</defs>
		<clipPath id="SVGID_6_">
			<use xlink:href="#SVGID_5_"  style="overflow:visible;"/>
		</clipPath>
		<g class="st20">
			<path class="st12" d="M1581.5,1806.5l-71.5,41.3c-6.2,3.6-13.8,3.6-20,0l-71.5-41.3c-6.2-3.6-10-10.2-10-17.3v-82.6
				c0-7.1,3.8-13.7,10-17.3l71.5-41.3c6.2-3.6,13.8-3.6,20,0l71.5,41.3c6.2,3.6,10,10.2,10,17.3v82.6
				C1591.5,1796.3,1587.7,1802.9,1581.5,1806.5z"/>
			<path class="st0" d="M1565.8,1769c-1.2-0.7-2.5-1.2-3.9-1.5v-39.1c7.9-2,12.6-9.9,10.6-17.8s-9.9-12.6-17.8-10.6
				c-1.3,0.3-2.5,0.8-3.6,1.4c-1.2,0.7-2.4,1.6-3.3,2.6l-33.8-19.5c0.4-1.4,0.6-2.8,0.6-4.2c0-8.1-6.6-14.7-14.7-14.6
				c-8.1,0-14.7,6.6-14.6,14.7c0,1.4,0.2,2.8,0.6,4.1l-33.8,19.5c-5.6-5.9-14.9-6.1-20.7-0.5c-5.9,5.6-6.1,14.9-0.5,20.7
				c1.9,2,4.4,3.5,7.1,4.1v39.1c-1.4,0.3-2.7,0.8-3.9,1.5c-7,4-9.5,13-5.5,20s13,9.5,20,5.5c1.3-0.7,2.4-1.6,3.4-2.7l33.8,19.5
				c-2.3,7.8,2.2,15.9,10,18.2c7.8,2.3,15.9-2.2,18.2-10c0.8-2.8,0.8-5.9-0.1-8.7l33.6-19.4c5.4,6,14.7,6.6,20.7,1.2
				c6-5.4,6.6-14.7,1.2-20.7C1568.4,1770.8,1567.2,1769.8,1565.8,1769L1565.8,1769z M1455.8,1778.2c-0.7-2.7-2.1-5.2-4.1-7.1
				l44.3-76.7c2.7,0.8,5.5,0.8,8.2,0l44.3,76.7c-2,1.9-3.5,4.4-4.1,7.2L1455.8,1778.2z M1544.4,1710.1c-2.2,7.8,2.3,15.9,10,18.1
				c0.2,0,0.3,0.1,0.5,0.1v39.1l-0.6,0.2l-44.3-76.7l0.4-0.4L1544.4,1710.1z M1489.4,1690.5l0.4,0.4l-44.3,76.7l-0.6-0.2v-39.1
				c7.8-1.9,12.6-9.9,10.7-17.7c0-0.2-0.1-0.4-0.1-0.5L1489.4,1690.5z M1510.8,1805.6c-5.5-6-14.8-6.4-20.7-0.9
				c-0.2,0.2-0.4,0.4-0.7,0.6l-33.9-19.5c0.1-0.2,0.1-0.4,0.2-0.6h88.5c0.1,0.3,0.2,0.7,0.3,1L1510.8,1805.6z"/>
		</g>
	</g>
	<text transform="matrix(1 0 0 1 1250.6 1944.84)" class="st13 st14 st15">GRAPHQL APIS</text>
</g>
<g id="ea1330d9-f2ac-4618-9f5d-8cccdb803c79">
	<path class="st21" d="M2141.7,1419.1v14.2c0,12.5-31.1,22.7-69.4,22.7c-38.3,0-69.4-10.2-69.4-22.7v-14.2
		c0-12.5,31.1-22.6,69.4-22.6C2110.6,1396.5,2141.7,1406.6,2141.7,1419.1z M2141.7,1451v31.8c0,12.5-31.1,22.7-69.4,22.7
		c-38.3,0-69.4-10.2-69.4-22.7V1451c14.9,10.3,42.2,15,69.4,15C2099.5,1466,2126.8,1461.2,2141.7,1451L2141.7,1451z M2141.7,1500.5
		v31.8c0,12.5-31.1,22.7-69.4,22.7c-38.3,0-69.4-10.2-69.4-22.7v-31.8c14.9,10.3,42.2,15,69.4,15
		C2099.5,1515.5,2126.8,1510.8,2141.7,1500.5z"/>
	<g>
		<defs>
			
				<rect id="SVGID_7_" x="2016.5" y="1458.7" transform="matrix(0.7569 -0.6536 0.6536 0.7569 -486.2688 1760.2643)" width="212.8" height="150"/>
		</defs>
		<clipPath id="SVGID_8_">
			<use xlink:href="#SVGID_7_"  style="overflow:visible;"/>
		</clipPath>
		<g class="st22">
			<path class="st12" d="M2141.7,1419.1v14.2c0,12.5-31.1,22.7-69.4,22.7s-69.4-10.2-69.4-22.7v-14.2c0-12.5,31.1-22.6,69.4-22.6
				S2141.7,1406.6,2141.7,1419.1z M2141.7,1451v31.8c0,12.5-31.1,22.7-69.4,22.7s-69.4-10.2-69.4-22.7V1451
				c14.9,10.3,42.2,15,69.4,15S2126.8,1461.2,2141.7,1451L2141.7,1451z M2141.7,1500.5v31.8c0,12.5-31.1,22.7-69.4,22.7
				s-69.4-10.2-69.4-22.7v-31.8c14.9,10.3,42.2,15,69.4,15S2126.8,1510.8,2141.7,1500.5z"/>
		</g>
	</g>
	<text transform="matrix(1 0 0 1 1878.48 1649.84)" class="st13 st14 st15">D</text>
	<text transform="matrix(1 0 0 1 1924.96 1649.84)" class="st13 st14 st15 st23">A</text>
	<text transform="matrix(1 0 0 1 1967.39 1649.84)" class="st13 st14 st15 st24">T</text>
	<text transform="matrix(1 0 0 1 2007.5699 1649.84)" class="st13 st14 st15">ABASES</text>
</g>
<g id="ab06f7d8-63ce-45fb-a078-c3f56759dd93">
	<path class="st25" d="M2173.7,570.7H2097c-0.2,6.3-4.7,10.1-10.4,10.1h-19.2c-5.9,0-10.5-5.5-10.4-10.1h-75.7
		c-2.8,0-5.1,2.3-5.1,5.1v5.1c0,11.2,9.1,20.2,20.2,20.2h162.1c11.2,0,20.2-9.1,20.3-20.3v-5.1
		C2178.8,572.9,2176.5,570.7,2173.7,570.7z M2158.5,454.2c0-8.4-6.8-15.1-15.2-15.2h-131.7c-8.4,0-15.2,6.8-15.2,15.2v106.3h162.1
		V454.2z M2138.3,540.3h-121.6v-81h121.6V540.3z"/>
	<g>
		<defs>
			
				<rect id="SVGID_9_" x="1990.6" y="489.4" transform="matrix(0.7436 -0.6686 0.6686 0.7436 169.2568 1570.281)" width="283" height="150"/>
		</defs>
		<clipPath id="SVGID_10_">
			<use xlink:href="#SVGID_9_"  style="overflow:visible;"/>
		</clipPath>
		<g class="st26">
			<path class="st12" d="M2173.7,570.6H2097c-0.2,6.3-4.7,10.1-10.4,10.1h-19.2c-5.9,0-10.4-5.5-10.4-10.1h-75.7
				c-2.8,0-5.1,2.3-5.1,5.1v5.1c0,11.2,9.1,20.2,20.2,20.2h162.1c11.2,0,20.2-9.1,20.3-20.3v-5.1
				C2178.8,572.9,2176.5,570.7,2173.7,570.6z M2158.5,454.2c0-8.4-6.8-15.1-15.2-15.2h-131.7c-8.4,0-15.2,6.8-15.2,15.2v106.3h162.1
				V454.2z M2138.3,540.3h-121.6v-81h121.6V540.3z"/>
		</g>
	</g>
	<text transform="matrix(1 0 0 1 1824.71 399.6)" class="st13 st14 st15">DESK</text>
	<text transform="matrix(1 0 0 1 2000.7 399.6)" class="st13 st14 st15">T</text>
	<text transform="matrix(1 0 0 1 2042.6799 399.6)" class="st13 st14 st15">OP APPS</text>
</g>
<g id="ede0a161-b87d-4e31-ba99-d6db580c5bda">
	<path class="st27" d="M1538,158.6h-76c-9,0-16.3,7.3-16.3,16.3v141.2c0,9,7.3,16.3,16.3,16.3h76c9,0,16.3-7.3,16.3-16.3v0V174.9
		C1554.3,165.9,1547,158.6,1538,158.6L1538,158.6z M1500,321.5c-6,0-10.9-4.9-10.9-10.9c0-6,4.9-10.9,10.9-10.9s10.9,4.9,10.9,10.9
		v0C1510.9,316.6,1506,321.5,1500,321.5C1500,321.5,1500,321.5,1500,321.5z"/>
	<g>
		<defs>
			
				<rect id="SVGID_11_" x="1455.3" y="208.4" transform="matrix(0.4983 -0.867 0.867 0.4983 540.8994 1501.9766)" width="225.8" height="150.5"/>
		</defs>
		<clipPath id="SVGID_12_">
			<use xlink:href="#SVGID_11_"  style="overflow:visible;"/>
		</clipPath>
		<g class="st28">
			<path class="st29" d="M1538,158.1h-76c-9,0-16.3,7.3-16.3,16.3v141.2c0,9,7.3,16.3,16.3,16.3h76c9,0,16.3-7.3,16.3-16.3v0V174.4
				C1554.3,165.4,1547,158.1,1538,158.1L1538,158.1z M1500,321c-6,0-10.9-4.9-10.9-10.9s4.9-10.9,10.9-10.9s10.9,4.9,10.9,10.9v0
				C1510.9,316.1,1506,321,1500,321C1500,321,1500,321,1500,321z"/>
		</g>
	</g>
	<text transform="matrix(1 0 0 1 1274.11 113.6)" class="st13 st14 st15">MOBILE APPS</text>
</g>
<g id="a5870fc8-fe04-493f-850f-9cdaf44778c7">
	<path class="st30" d="M1743.5,1078c-4.5-2.6-9.3-4.5-14.3-5.7V927.7c29.2-6.9,47.2-36.2,40.3-65.4c-6.9-29.2-36.2-47.2-65.4-40.3
		c-10.3,2.5-19.7,7.9-27,15.6L1552,765.5c8.5-28.7-7.8-58.9-36.6-67.4s-58.9,7.8-67.4,36.6c-3,10-3,20.7,0,30.8l-125.2,72.3
		c-20.6-21.8-54.9-22.7-76.7-2.1c-21.8,20.6-22.7,54.9-2.1,76.7c7.2,7.7,16.6,13,26.8,15.5v144.6c-29.1,7-47.1,36.3-40.1,65.5
		s36.3,47.1,65.5,40.1c5.1-1.2,10-3.2,14.5-5.8c4.5-2.6,8.6-5.8,12.1-9.6l125.2,72.3c-8.5,28.7,8,58.9,36.7,67.4
		c28.7,8.5,58.9-8,67.4-36.7c3.1-10.6,2.9-21.9-0.5-32.4l124.4-71.8c19.9,22.4,54.2,24.3,76.6,4.4c22.4-19.9,24.3-54.2,4.4-76.6
		C1753.1,1084.6,1748.6,1080.9,1743.5,1078L1743.5,1078z M1500,888.5c61.9,0,112,50.1,112.1,111.9c0,52.5-36.4,97.9-87.6,109.4
		c0.2-3.4,0.6-6.7,1-10.1c1.7-12.3,4.3-24.5,7.9-36.4c3-10,6.5-20,10.2-29.8c0.6-1.5,1.1-3,1.7-4.5c1.6,1.5,3.6,2.6,5.7,3.3
		c1.7,0.4,3.4,0.8,5.1,1c1.6,0.4,3.2,0.9,4.7,1.6c6.4,2.4,13.4,1.2,19.9-0.2c5.9-1.3,12.2-3.7,15.3-9.3c1.6-2.8,1.7-6,1.9-9.1
		c0.1-2.4,0.2-6.4,3-7.4c1.4-0.4,2.2-1.9,1.8-3.4c-0.2-0.6-0.6-1.2-1.1-1.5c-8.4-5-20.7-0.3-27.8,5c-4.1,3-6.9,6.8-10,10.8
		c-2.2,2.8-7.9,5.5-11.4,3.7c-1.4-0.8-2.3-2.2-2.6-3.8c-0.6-2.8,0.7-4.5,1.5-7.1c0.9-2.9,1.6-5.9,2.2-8.8c1.3-6.8,2-13.7,1.9-20.6
		c-1.7-0.2-7-1-8.4-1v0.2c-1.2,3.8-1.2,8-3,11.5c-0.7,1.5-1.8,2.9-3.2,3.8c-3.4,1.8-18.3,2.2-21.6,0.5c-4.8-2.5-8.4-15.5-8.4-15.9
		h-9.6c0,0.4-3.6,13.4-8.4,15.9c-3.3,1.7-18.2,1.3-21.6-0.5c-1.4-0.9-2.5-2.2-3.2-3.8c-1.8-3.5-1.8-7.8-3-11.5c0,0,0-0.1,0-0.2
		c-1.2,0-7.9,0.8-7.9,0.8c-1.1,7.4-1.5,14.9-1.2,22.3c0.1,2.4,1.5,7.2,0.7,9.4c-0.6,1.6-3.8,2.8-5.3,3.3c-4.7,1.6-9.8,0.6-13.5-2.6
		c-4.1-3.6-7.4-7-12.7-8.9c-9.8-3.4-20.7-0.7-27.8,6.8c-1,1-1,2.7,0,3.7c0.1,0.1,0.2,0.2,0.4,0.3c0.6,0.7,1.6,0.9,2.5,0.6
		c2.4-0.8,4.2,1.9,5.7,3.5l5.5,6c2.9,3.2,5.7,7.2,9.7,9s8.6,1.9,12.7,1.7c2.5,0,5-0.7,7.2-2c1.7-0.8,3.3-1.8,4.9-2.8
		c2.3-1.2,4.4-2.7,6.5-4.2c1.2-1,3.2-5.3,5-4.8c1.7,0.5,2.3,5.6,2.5,6.9c2.7,15.3,5.5,30.6,10.4,45.4c4,12.1,8.4,24.2,15.3,35
		c-61.3-8.2-104.3-64.6-96.1-125.9C1396.6,930,1444,888.6,1500,888.5L1500,888.5z M1298.7,1073c-0.7-0.2-1.4-0.4-2.1-0.6V927.6
		c29-7.2,46.7-36.5,39.5-65.5c-0.2-0.7-0.3-1.3-0.5-2l125.4-72.4c0.5,0.5,1,1,1.5,1.5L1298.7,1073z M1540.1,1213.6
		c-20.2-22.1-54.6-23.7-76.7-3.5c-0.8,0.8-1.7,1.6-2.5,2.4l-125.2-72.3c0.2-0.7,0.4-1.4,0.6-2.1h327.5c0.3,1.2,0.6,2.4,1,3.6
		L1540.1,1213.6z M1703.4,1072.4c-0.7,0.2-1.4,0.4-2.1,0.6l-163.8-283.8c0.5-0.5,1-1,1.4-1.4l125.5,72.4
		c-8.2,28.7,8.4,58.7,37.1,66.9c0.6,0.2,1.3,0.3,1.9,0.5L1703.4,1072.4z"/>
	<path class="st30" d="M1456.9,966.3c1.2,0.1,2.3,0.2,3.5,0.2c-0.8,2.7-2.2,8.8-2.2,8.8s15.3-0.6,20.8-0.7
		c7.7-0.1,15.5,0.1,23.2,0.5c1.6,0.1,6.3,0,7.1,0c7.7-0.4,15.4-0.5,23.2-0.5c6,0.1,22.3,0.7,22.3,0.7s-0.4-4.3-0.7-6.2
		c1.9,0,3.8-0.3,4.8-1.5c1.8-2.1,1.3-6.5,1-9c-1.1-10-7.9-18.5-17.4-21.8c1-2.2,1.6-4.6,1.7-7.1c0.1-1.7-0.3-3.5-1.2-5
		c-3-5.2-10-7.8-14.9-8.9c0.3-3.1-0.1-6.2-1.4-9.1c-1.6-3.8-5.3-9.5-9.6-10.5c-4.7-1.1-8.1,4.7-10.6,8.2c-0.2-0.3-2.4-5.2-4.2-6.2
		s-3.7-0.6-5.5,0c-3.2,1-6.8,4.2-4.2,7.7c1.2,1.6,5.2,4.3,5.4,4.6c-3.1,1.5-6.6,1.9-9.9,2.8c-0.9,0.2-1.8,0.5-2.7,0.8
		c-3.4,1.2-6.4,3.2-8.7,5.9c-2.8,3.5-4.1,8.2-2.3,12.4c-5,3.6-9.4,8.1-12.9,13.2c-3.8,5.5-8.3,11.8-7,18.8
		C1454.7,965.4,1455.7,966.2,1456.9,966.3z"/>
	<g>
		<defs>
			<rect id="SVGID_13_" x="1500" y="689.5" width="304" height="621"/>
		</defs>
		<clipPath id="SVGID_14_">
			<use xlink:href="#SVGID_13_"  style="overflow:visible;"/>
		</clipPath>
		<g class="st31">
			<g class="st32">
				<path d="M1743.5,1078c-4.5-2.6-9.3-4.5-14.3-5.7V927.7c29.2-6.9,47.2-36.2,40.3-65.4c-6.9-29.2-36.2-47.2-65.4-40.3
					c-10.3,2.5-19.7,7.9-27,15.6L1552,765.5c8.5-28.7-7.8-58.9-36.6-67.4s-58.9,7.8-67.4,36.6c-3,10-3,20.7,0,30.8l-125.2,72.3
					c-20.6-21.8-54.9-22.7-76.7-2.1c-21.8,20.6-22.7,54.9-2.1,76.7c7.2,7.7,16.6,13,26.8,15.5v144.6c-29.1,7-47.1,36.3-40.1,65.5
					s36.3,47.1,65.5,40.1c5.1-1.2,10-3.2,14.5-5.8c4.5-2.6,8.6-5.8,12.1-9.6l125.2,72.3c-8.5,28.7,8,58.9,36.7,67.4
					c28.7,8.5,58.9-8,67.4-36.7c3.1-10.6,2.9-21.9-0.5-32.4l124.4-71.8c19.9,22.4,54.2,24.3,76.6,4.4c22.4-19.9,24.3-54.2,4.4-76.6
					C1753.1,1084.6,1748.6,1080.9,1743.5,1078L1743.5,1078z M1500,888.5c61.9,0,112,50.1,112.1,111.9c0,52.5-36.4,97.9-87.6,109.4
					c0.2-3.4,0.6-6.7,1-10.1c1.7-12.3,4.3-24.5,7.9-36.4c3-10,6.5-20,10.2-29.8c0.6-1.5,1.1-3,1.7-4.5c1.6,1.5,3.6,2.6,5.7,3.3
					c1.7,0.4,3.4,0.8,5.1,1c1.6,0.4,3.2,0.9,4.7,1.6c6.4,2.4,13.4,1.2,19.9-0.2c5.9-1.3,12.2-3.7,15.3-9.3c1.6-2.8,1.7-6,1.9-9.1
					c0.1-2.4,0.2-6.4,3-7.4c1.4-0.4,2.2-1.9,1.8-3.4c-0.2-0.6-0.6-1.2-1.1-1.5c-8.4-5-20.7-0.3-27.8,5c-4.1,3-6.9,6.8-10,10.8
					c-2.2,2.8-7.9,5.5-11.4,3.7c-1.4-0.8-2.3-2.2-2.6-3.8c-0.6-2.8,0.7-4.5,1.5-7.1c0.9-2.9,1.6-5.9,2.2-8.8
					c1.3-6.8,2-13.7,1.9-20.6c-1.7-0.2-7-1-8.4-1v0.2c-1.2,3.8-1.2,8-3,11.5c-0.7,1.5-1.8,2.9-3.2,3.8c-3.4,1.8-18.3,2.2-21.6,0.5
					c-4.8-2.5-8.4-15.5-8.4-15.9h-9.6c0,0.4-3.6,13.4-8.4,15.9c-3.3,1.7-18.2,1.3-21.6-0.5c-1.4-0.9-2.5-2.2-3.2-3.8
					c-1.8-3.5-1.8-7.8-3-11.5c0,0,0-0.1,0-0.2c-1.2,0-7.9,0.8-7.9,0.8c-1.1,7.4-1.5,14.9-1.2,22.3c0.1,2.4,1.5,7.2,0.7,9.4
					c-0.6,1.6-3.8,2.8-5.3,3.3c-4.7,1.6-9.8,0.6-13.5-2.6c-4.1-3.6-7.4-7-12.7-8.9c-9.8-3.4-20.7-0.7-27.8,6.8c-1,1-1,2.7,0,3.7
					c0.1,0.1,0.2,0.2,0.4,0.3c0.6,0.7,1.6,0.9,2.5,0.6c2.4-0.8,4.2,1.9,5.7,3.5l5.5,6c2.9,3.2,5.7,7.2,9.7,9s8.6,1.9,12.7,1.7
					c2.5,0,5-0.7,7.2-2c1.7-0.8,3.3-1.8,4.9-2.8c2.3-1.2,4.4-2.7,6.5-4.2c1.2-1,3.2-5.3,5-4.8c1.7,0.5,2.3,5.6,2.5,6.9
					c2.7,15.3,5.5,30.6,10.4,45.4c4,12.1,8.4,24.2,15.3,35c-61.3-8.2-104.3-64.6-96.1-125.9C1396.6,930,1444,888.6,1500,888.5
					L1500,888.5z M1298.7,1073c-0.7-0.2-1.4-0.4-2.1-0.6V927.6c29-7.2,46.7-36.5,39.5-65.5c-0.2-0.7-0.3-1.3-0.5-2l125.4-72.4
					c0.5,0.5,1,1,1.5,1.5L1298.7,1073z M1540.1,1213.6c-20.2-22.1-54.6-23.7-76.7-3.5c-0.8,0.8-1.7,1.6-2.5,2.4l-125.2-72.3
					c0.2-0.7,0.4-1.4,0.6-2.1h327.5c0.3,1.2,0.6,2.4,1,3.6L1540.1,1213.6z M1703.4,1072.4c-0.7,0.2-1.4,0.4-2.1,0.6l-163.8-283.8
					c0.5-0.5,1-1,1.4-1.4l125.5,72.4c-8.2,28.7,8.4,58.7,37.1,66.9c0.6,0.2,1.3,0.3,1.9,0.5L1703.4,1072.4z"/>
				<path d="M1456.9,966.3c1.2,0.1,2.3,0.2,3.5,0.2c-0.8,2.7-2.2,8.8-2.2,8.8s15.3-0.6,20.8-0.7c7.7-0.1,15.5,0.1,23.2,0.5
					c1.6,0.1,6.3,0,7.1,0c7.7-0.4,15.4-0.5,23.2-0.5c6,0.1,22.3,0.7,22.3,0.7s-0.4-4.3-0.7-6.2c1.9,0,3.8-0.3,4.8-1.5
					c1.8-2.1,1.3-6.5,1-9c-1.1-10-7.9-18.5-17.4-21.8c1-2.2,1.6-4.6,1.7-7.1c0.1-1.7-0.3-3.5-1.2-5c-3-5.2-10-7.8-14.9-8.9
					c0.3-3.1-0.1-6.2-1.4-9.1c-1.6-3.8-5.3-9.5-9.6-10.5c-4.7-1.1-8.1,4.7-10.6,8.2c-0.2-0.3-2.4-5.2-4.2-6.2s-3.7-0.6-5.5,0
					c-3.2,1-6.8,4.2-4.2,7.7c1.2,1.6,5.2,4.3,5.4,4.6c-3.1,1.5-6.6,1.9-9.9,2.8c-0.9,0.2-1.8,0.5-2.7,0.8c-3.4,1.2-6.4,3.2-8.7,5.9
					c-2.8,3.5-4.1,8.2-2.3,12.4c-5,3.6-9.4,8.1-12.9,13.2c-3.8,5.5-8.3,11.8-7,18.8C1454.7,965.4,1455.7,966.2,1456.9,966.3z"/>
			</g>
		</g>
	</g>
</g>
</svg>
