<svg xmlns="http://www.w3.org/2000/svg" xmlns:xlink="http://www.w3.org/1999/xlink" viewBox="0 0 1200 600"><defs><clipPath id="e781c961-8356-4beb-b0bc-83a9198d86f4"><rect width="1200" height="600" fill="none"/></clipPath><radialGradient id="f9fca5e2-1c25-433d-8505-dc9600bbd452" cx="600.15" cy="299.81" r="674" gradientTransform="translate(-23.3 -11.38) scale(1.04)" gradientUnits="userSpaceOnUse"><stop offset="0.25" stop-color="#ffda1d"/><stop offset="0.3" stop-color="#ffd01d"/><stop offset="0.47" stop-color="#ffb51e"/><stop offset="0.64" stop-color="#ffa21e"/><stop offset="0.81" stop-color="#ff971e"/><stop offset="1" stop-color="#ff931e"/></radialGradient><radialGradient id="a90bbbe4-d668-42ad-9494-d2ab109bf7d9" cx="600" cy="300" r="700" gradientUnits="userSpaceOnUse"><stop offset="0" stop-color="#fff"/><stop offset="0.65" stop-color="#ffda1d"/></radialGradient></defs><g id="ab1352c4-3fd8-4f50-b49e-5eb2207c4f5a" data-name="Layer 3"><g clip-path="url(#e781c961-8356-4beb-b0bc-83a9198d86f4)"><circle cx="600" cy="300" r="700" fill="url(#f9fca5e2-1c25-433d-8505-dc9600bbd452)"/><path d="M600-400h-7.92l-1,0h-1.33l-1,0h-.3l-.75,0h-.28l-1,0h-.25l-.76,0h-.33l-.88,0h-.17l-.9,0h-1.36l-.93,0h-.33l-.68,0h-.35l-.92,0h-.33l-.67,0h-.38l-.77,0h-.34l-.79,0H575l-.65,0-.35,0-.89,0h-.42l-.57,0h-.42l-.84,0-.45,0-.56,0-.46,0-.58,0-.65,0-.58,0-.48,0-.5,0-.61,0-.7,0-.5,0-.45,0-.52,0-.62,0-.65,0-.52,0-.49,0-.51,0-.76,0-.51,0-.5,0-.48,0-.6,0-.71,0-.49,0-.48,0-.49,0-.56,0-.76.05-.46,0-.5,0-.53,0-.69,0-.57,0-.48,0-.52,0-.44,0-.86.07-.41,0-.56,0-.44,0-.8.06-.46,0-.56,0-.45,0-.63.05-.49,0-.71.06-.4,0-.65,0-.33,0-.9.07-.35,0-.67.06-.33,0-.92.07-.26,0-.75.06-.31,0-.89.08h-.08l-1,.09-.25,0-.83.08-.18,0-1,.09-.15,0-.9.08-.16,0-2.09.2h-.12l-2.12.21h-.07c-9.4.95-18.78,2.1-28.07,3.42l96,673.2A26.08,26.08,0,0,1,600,280V-400ZM402.67-371.8l-.31.09-.34.1-.83.25-.32.09-.6.18-.42.12-.51.16-.41.12-.81.24-.41.12-.49.15-.43.13-.51.16-.65.19-.55.17-.46.14-.43.14-.48.14-.44.14-.83.25-.38.12-.53.17-.36.11-.5.16-.51.16-.74.23-.42.13-.48.15-.41.13-.69.22-.56.18-.48.15-.41.14-.49.15-.45.15-.73.23-.46.15-.49.16-.42.14-.47.15-.56.19-.64.21-.47.15-.44.14-.49.17-.41.13-.81.27-.36.12-.53.18-.41.14-.54.18-.51.17-.66.22-.4.14-.52.18-.37.12-.78.26-.29.1-.69.24-.32.11-.6.21-.33.11-.85.3-.25.08-.68.24-.29.1-.74.26-.16.06-.9.31-.23.08-.74.26-.2.08-1.87.66-.17.06-.81.29-.14,0-1.92.69-.11,0-1.94.71-.05,0-.93.34-.07,0q-25.08,9.22-49.21,20.28L592,281.48a14.72,14.72,0,0,1,2-.76L402.67-371.8ZM221.42-288.89q-6.45,4.15-12.8,8.44h0q-25.27,17.08-49,36.28l-.06,0L158-242.86l-.12.1-.66.54-.12.1-1.5,1.23-.2.16-.55.46-.21.17-.71.59-.16.12-.57.48-.25.21-.49.41-.26.21-.66.55-.28.24-.44.37-.32.27-.38.31-.35.3-.56.46-.47.41-.25.21-.47.39-.16.14-1.59,1.35-.13.11q-2.35,2-4.68,4L587.11,284.69a21.82,21.82,0,0,1,2.57-1.93L221.42-288.89ZM70.85-158.28l-.12.15-.09.1-.54.63-.15.16-.57.67-.11.13-.54.62-.26.31-.31.36-.32.37-.27.31-.63.75-.19.22-.42.49-.11.13A703.32,703.32,0,0,0,10.94-78.32l571.81,368a25.24,25.24,0,0,1,1.93-2.56L70.85-158.28ZM-37,9.35Q-42.31,21-47.22,32.86l0,0c-.27.67-.55,1.33-.82,2l-.08.2-.24.59-.1.24-.4,1-.13.3-.18.46c-.06.14-.12.3-.18.45s-.11.27-.17.41-.16.41-.24.59l-.15.39c-.09.23-.19.48-.29.71l-.11.29-.26.66-.1.24-.36.91v0c-.13.31-.23.57-.35.88l-.07.17Q-63,72.6-71.89,103L580.72,294a14.6,14.6,0,0,1,.76-2L-37,9.35ZM-93,200.63a702.26,702.26,0,0,0-6.49,72.3v0c0,.75-.05,1.47-.08,2.22v0c0,.74-.05,1.46-.07,2.2v0c0,.38,0,.72,0,1.1h0l0,1.12h0l0,1.06v.09L-99.8,283v.17c0,.71,0,1.39,0,2.1v.18c0,.33,0,.6,0,.93v.12c0,.36,0,.7,0,1v.15c0,.3,0,.59,0,.89v.22c0,.35,0,.67,0,1v.11c0,.3,0,.61,0,.91v.25c0,.66,0,1.38,0,2v.24c0,.28,0,.58,0,.87v.17c0,.33,0,.67,0,1v1.3c0,.33,0,.68,0,1V300H580a27.58,27.58,0,0,1,.23-3.7L-93,200.63ZM580.24,303.71-92.91,400c.07.51.15,1,.22,1.55v0c.1.73.21,1.46.32,2.2l0,.21c0,.22.07.44.1.66l0,.13L-92,406l0,.35.09.56c0,.14,0,.25.06.38l.12.77c0,.2,0,.37.09.57s0,.31.07.47,0,.36.08.52,0,.28.07.43.07.45.11.69.05.32.07.47.07.45.11.68l0,.33c0,.23.08.49.12.71l0,.27c.05.32.1.61.15.93l0,.29.12.69,0,.31c0,.32.1.63.16,1v0l.16.94,0,.25c0,.27.1.56.14.83l0,.15c0,.31.11.68.17,1l0,.17c0,.26.1.58.14.85l0,.19.35,2,0,.16c0,.31.1.59.16.9l0,.12c.12.67.24,1.36.37,2l0,.16c.13.67.25,1.36.38,2l0,.13.18.93v.09l.39,2.05,0,.13c.13.67.26,1.38.39,2.05l0,.1c.06.31.12.62.19.94l0,.11c.13.67.27,1.36.4,2l0,.13.41,2.05,0,.09c.06.31.13.63.19.94l0,.11c.14.66.28,1.36.42,2l0,.13c.14.69.27,1.35.42,2l0,.08c.06.31.13.63.19.94l0,.12.43,2,0,.09.45,2.07v0c.08.34.15.67.22,1l0,.09c.15.69.3,1.37.46,2.05v.08c.08.33.15.66.22,1v0c.16.68.31,1.38.47,2.06l0,.09c.15.66.31,1.38.47,2l0,.09c.07.33.15.66.23,1v0c.17.71.32,1.38.49,2.09v0c.41,1.76.83,3.49,1.26,5.25h0c2.56,10.47,5.34,20.81,8.36,31.09L580.72,306a14.89,14.89,0,0,1-.48-2.27Zm1.24,4.3L-36.73,591.22a698.75,698.75,0,0,0,34.25,65.4l0,0,1.06,1.78,0,.06.45.75.13.21.43.72.07.11.48.8.16.27.32.52.21.34.28.47.39.64.23.38.28.47.18.29c.11.17.21.34.31.51l.08.13L3.78,667l0,.06q3.66,6,7.46,11.82L582.76,310.33a20.58,20.58,0,0,1-1.28-2.32Zm3.21,4.88L71.26,758.75a703.27,703.27,0,0,0,70.7,70.6l445.17-514a24.44,24.44,0,0,1-2.44-2.44Zm5,4.36L222,889.23q1.92,1.24,3.86,2.47l.13.08.58.37.13.08c.36.23.72.46,1.09.68l.14.09.5.32.27.17.48.3.3.19.74.46.41.26.38.23.45.28.33.21.76.46.17.11.62.39.29.17.59.37.21.13.82.5.11.06.72.44.19.12.72.44.11.07.87.52,0,0,.84.5.09.06q25.29,15.26,51.92,28.4h0l2.77,1.36.16.08.76.36.15.08.87.42.2.1.63.3.34.16.55.27.31.15.78.37.37.18.45.21.44.21.36.17,1,.48.17.08.6.28.16.08c2.58,1.21,5.16,2.41,7.76,3.6L592,318.53a19.11,19.11,0,0,1-2.32-1.28Zm4.35,2L403.28,972a693.22,693.22,0,0,0,74.32,17.35h0l2.26.39.08,0,2.27.39h0l.71.12.15,0,2.1.35.23,0,.64.11.21,0,1.19.2.24,0,.58.1.35.05,1.9.3.37.06.54.09.42.06.86.14.45.06.51.08.47.07.45.07.85.13.39.06.58.08.41.06.65.1.29,0,.92.14.31,0,.72.1.27,0,.92.14,95.37-673.28a16.49,16.49,0,0,1-2.27-.49Zm9.68.48A25.69,25.69,0,0,1,600,320l.6,680c2.78,0,5.55,0,8.33-.06h.15l2.07,0h.26l.86,0h.17l1,0h.33l.67,0h.37l.88,0h1l.46,0h.57l.76,0h.47l.51,0h.48l.83,0,.48,0h.54l.41,0h.87l1,0h.38l.58,0h.34l1,0h.34l.6,0h.34l1,0h.33l.59,0H630l.58,0h.25l1.1-.05h.39l.56,0,.36,0,1,0,.39,0,.54,0,.42,0,.85,0,.51,0,.47,0,.53,0,.43,0,.87,0,.4,0,.59,0,.42,0,.81-.05.33,0,.74,0,.36,0,.76-.05h.22l1-.06.28,0,.79-.05.22,0,1-.06h.11l1-.06h.15l2.14-.15h0q25.14-1.79,49.76-5.33L603.72,319.76Zm4.29-1.25a14.67,14.67,0,0,1-2,.77L797.93,971.63a694.34,694.34,0,0,0,93.57-35L608,318.51Zm4.89-3.21a22,22,0,0,1-2.56,1.93L979.11,888.55c2-1.32,4.08-2.65,6.12-4l0,0,.81-.53.07,0,1.66-1.1.16-.11.7-.47.12-.08.83-.56,0,0,.75-.5.23-.15.57-.39.26-.17.74-.5.24-.17.53-.36.31-.21.52-.36.26-.17.73-.5.27-.19.51-.34.31-.21.52-.37.26-.17.73-.5.29-.21.46-.32.35-.24.48-.33.28-.2.72-.49.3-.22.46-.32.33-.23.47-.33.46-.32.54-.38.34-.24.42-.29.36-.26.48-.34.44-.32.52-.36.36-.26.4-.29.36-.25.47-.34.51-.36.47-.34.34-.24.42-.3.34-.25.69-.5.22-.16c.2-.14.36-.25.55-.4l.31-.22.47-.34.29-.21.68-.49.31-.23.49-.36.29-.21.49-.36.28-.21.72-.52.21-.16.55-.41.28-.2.55-.41.2-.15.74-.55.19-.14.59-.44.23-.17.61-.45.16-.12.76-.57.15-.11.64-.49.17-.13,1.57-1.18.11-.08.7-.53.11-.09,1.6-1.22.07,0,.73-.56.09-.07c.54-.41,1.09-.83,1.62-1.25l0,0q16.29-12.55,31.78-26L612.9,315.3Zm4.36-5a22,22,0,0,1-1.93,2.56L1129.56,757.8l.36-.41.09-.11.64-.74.09-.11c.19-.21.37-.42.55-.64l.13-.15.58-.67.06-.07.65-.76.07-.08.56-.67.12-.13c.42-.5.85-1,1.27-1.51l.11-.12.55-.65.09-.11c.43-.5.87-1,1.29-1.54l.07-.08.59-.7.07-.08,1.28-1.55.08-.1.59-.7,0-.07c.44-.52.86-1,1.29-1.56l.08-.09.6-.74,0,0,1.29-1.58.07-.08,1.93-2.38,0-.05c.64-.8,1.29-1.6,1.93-2.41l0,0,1.94-2.43v0l1.92-2.44,0-.06c.64-.8,1.28-1.63,1.92-2.44v0c.64-.83,1.27-1.63,1.91-2.47l0,0,1.26-1.63.05-.06.59-.77,0,0,1.25-1.64,0,0c.21-.28.39-.53.61-.81h0l1.24-1.65,0-.06,1.84-2.46,0-.07,1.81-2.43.09-.13.58-.78h0l.61-.83,0-.06.54-.73.1-.15.54-.73,0-.06.59-.8.08-.12c.16-.21.33-.45.48-.66l.14-.19.56-.77h0l.57-.8.13-.18.44-.6.15-.22c.16-.21.32-.45.48-.66l.1-.15c.17-.23.35-.48.51-.72l.2-.27.34-.48a3.71,3.71,0,0,0,.23-.32l.42-.6.21-.29.41-.58.23-.33c.11-.14.21-.29.31-.43l.24-.35c.12-.16.23-.31.34-.48l.38-.54c.1-.15.2-.28.3-.42l.26-.38.26-.37.28-.4.25-.35.5-.73.23-.32.31-.46.18-.26c.12-.16.23-.32.34-.49h0c.26-.38.53-.76.79-1.15l.12-.18.38-.55.07-.1,1.27-1.85,0,0q5.28-7.76,10.35-15.65L617.26,310.3Zm2-4.34a15.1,15.1,0,0,1-.76,2l618.73,282.1a696.47,696.47,0,0,0,34.81-93.66L619.29,306ZM1300,300H620a27.27,27.27,0,0,1-.23,3.68l673.32,95.07q3.79-26.85,5.52-54.31h0c.05-.76.1-1.52.14-2.27v-.09l.12-2.19v-.14c0-.23,0-.47,0-.7v-.14c0-.44,0-.87.07-1.3v-.18l0-.66v-.22c0-.68.07-1.37.1-2.06l0-.27.09-2c0-.11,0-.24,0-.36s0-.38,0-.56l0-.43c0-.3,0-.59,0-.89l0-.42c0-.18,0-.36,0-.54l0-.48,0-.74c0-.19,0-.35,0-.54s0-.34,0-.51l0-.5v-.45l0-.86c0-.14,0-.28,0-.42s0-.39,0-.58,0-.27,0-.41l0-.87c0-.13,0-.26,0-.39s0-.41,0-.62v-.4c0-.28,0-.53,0-.81v-.36c0-.23,0-.49,0-.72V319c0-.24,0-.47,0-.7v-.37l0-.85v-.36c0-.23,0-.47,0-.71v-.28c0-.31,0-.63,0-.94v-.33c0-.24,0-.46,0-.7v-.33c0-.31,0-.65,0-.95v-.23c0-.26,0-.51,0-.77v-.33c0-.3,0-.63,0-.94v-.15c0-.29,0-.59,0-.87v-.32c0-.28,0-.56,0-.84v-.15c0-.33,0-.66,0-1v-.27c0-.28,0-.53,0-.82v-.22c0-.33,0-.66,0-1v-1.3c0-.33,0-.67,0-1V300Zm-28.46-198.23L619.27,294a15,15,0,0,1,.49,2.26l673.06-96.88q-3.15-21.87-7.63-43.31v0l-.15-.72,0-.09-.45-2.12,0-.21c0-.22-.09-.43-.14-.65l0-.14-.27-1.25,0-.2c0-.2-.09-.41-.14-.61s0-.19-.06-.3l-.42-1.9-.07-.33c0-.19-.09-.37-.13-.56l-.07-.33c-.08-.33-.15-.66-.22-1l-.08-.34-.12-.53-.09-.4c0-.16-.08-.33-.11-.5l-.15-.65-.15-.62c0-.13-.06-.3-.09-.43l-.12-.5-.11-.47-.15-.65c0-.19-.09-.39-.14-.58s-.07-.31-.1-.46l-.12-.49c0-.15-.06-.29-.1-.43s-.13-.55-.2-.83l-.08-.37c0-.2-.09-.36-.13-.55l-.11-.43c0-.19-.08-.35-.13-.55s-.07-.29-.11-.44-.12-.51-.18-.78-.06-.26-.1-.39l-.12-.52c0-.14-.07-.28-.11-.42s-.12-.51-.19-.77l-.09-.4-.15-.6-.1-.4c0-.19-.09-.38-.14-.57l-.09-.35-.21-.84c0-.13-.06-.26-.1-.39l-.14-.57-.09-.37-.2-.77-.09-.37-.16-.63c0-.13-.07-.26-.1-.39s-.1-.36-.15-.56-.06-.26-.1-.39-.14-.56-.21-.82l-.1-.4c0-.18-.09-.34-.13-.51l-.12-.43-.15-.6c0-.19-.11-.39-.16-.59s-.09-.36-.14-.53l-.12-.46-.12-.47-.12-.44-.21-.78c0-.17-.09-.34-.13-.51l-.11-.38c0-.17-.09-.35-.14-.52l-.09-.35c-.09-.32-.18-.65-.26-1l-.09-.3-.15-.56-.08-.31-.54-2,0-.18c-.06-.22-.12-.45-.19-.67v-.06c-.2-.73-.41-1.45-.61-2.18v0q-1.16-4.09-2.35-8.17ZM1188.38-79.37l-571.15,369a19.21,19.21,0,0,1,1.28,2.33l618-283.77c-1.79-3.9-3.6-7.75-5.46-11.62l-.08-.16-.38-.79,0-.1c-.15-.3-.29-.6-.43-.89l-.07-.14-.36-.74-.11-.22c-.12-.24-.24-.49-.35-.73l-.08-.15c-.13-.28-.27-.56-.41-.84l-.12-.25-.3-.61-.15-.31-.32-.63-.12-.26-.37-.74-.19-.37-.24-.48-.18-.38-.27-.53c-.09-.19-.19-.37-.28-.56l-.25-.5c-.07-.13-.13-.26-.2-.4l-.22-.43-.21-.43-.2-.38c-.13-.27-.27-.54-.41-.81l-.16-.33c-.09-.16-.17-.32-.25-.48l-.17-.33c-.29-.58-.59-1.16-.89-1.74l-.11-.23c-.1-.18-.19-.36-.28-.54l-.13-.24-.93-1.8-.1-.2-.3-.57-.09-.18-1-1.84-.1-.19-.31-.59-.05-.09c-.34-.66-.69-1.31-1-2l0-.08c-.48-.9-1-1.8-1.44-2.69l0-.07q-13.47-25.12-28.9-49Zm-130.82-150.4L612.85,284.66a24.34,24.34,0,0,1,2.44,2.43l513-446.31a704.52,704.52,0,0,0-70.77-70.55ZM889.79-337.39,608,281.47a19,19,0,0,1,2.32,1.27L977.52-289.57a697.71,697.71,0,0,0-87.73-47.82ZM698.43-393.13,603.67,280.23a16.66,16.66,0,0,1,2.28.48L796.12-372.15q-25-7.29-50.77-12.74h0l-3.16-.66-.06,0-2.06-.42-.11,0-.93-.19-.11,0-1-.21h0l-1-.19-.19,0-1-.19h0l-1-.2-.2,0-.8-.15-.24-.05-.94-.18-.18,0-.78-.15-.31-.06-.73-.14-.24,0-.91-.17-.33-.07-.62-.11-.39-.07-.75-.14-.44-.08-.61-.11-.44-.08-.51-.1-.43-.07-.81-.15-.5-.09-.44-.08-.51-.09-.4-.07-1-.17-.3,0-.6-.11-.28,0L718-390.1l-.14,0-.71-.12h0q-9.29-1.56-18.67-2.88Z" fill="url(#a90bbbe4-d668-42ad-9494-d2ab109bf7d9)"/></g></g><g id="b87ab349-2297-4546-a754-16649e904532" data-name="Layer 1"><path d="M445.57,182,575,107.24a50,50,0,0,1,50,0L754.43,182a50,50,0,0,1,25,43.3V374.73a50,50,0,0,1-25,43.3L625,492.76a50,50,0,0,1-50,0L445.57,418a50,50,0,0,1-25-43.3V225.27A50,50,0,0,1,445.57,182Z" fill="#ffed90"/><path d="M747.32,347.24a32.72,32.72,0,0,0-8.65-3.45V256.24a32.83,32.83,0,0,0,20.79-48.37,32.82,32.82,0,0,0-52.33-6.14L631.34,158A32.84,32.84,0,1,0,567,148.59a33,33,0,0,0,1.35,9.33l-75.8,43.77a32.86,32.86,0,1,0-31.51,54.55v87.54a32.87,32.87,0,1,0,31.53,54.6l75.77,43.74A32.84,32.84,0,1,0,631,441.06l75.33-43.49a32.39,32.39,0,0,0,8.11,6.6,32.86,32.86,0,1,0,32.84-56.93ZM599.87,232.47a67.83,67.83,0,0,1,14.85,134q.21-3.06.59-6.11a138.5,138.5,0,0,1,4.81-22.05c1.81-6.09,3.92-12.1,6.16-18,.34-.91.69-1.81,1-2.71a9.46,9.46,0,0,0,3.45,2,23.06,23.06,0,0,0,3.07.58,16.76,16.76,0,0,1,2.86.93c3.9,1.46,8.1.74,12-.14,3.57-.8,7.39-2.26,9.24-5.65a12.2,12.2,0,0,0,1.13-5.53c.07-1.45.14-3.86,1.8-4.47a1.64,1.64,0,0,0,.39-2.95c-5.07-3-12.54-.17-16.85,3-2.5,1.84-4.15,4.11-6.05,6.51-1.35,1.71-4.77,3.32-6.93,2.22a3.22,3.22,0,0,1-1.57-2.28c-.34-1.7.39-2.74.89-4.27a47.67,47.67,0,0,0,1.33-5.36,58.88,58.88,0,0,0,1.14-12.5c-1-.14-4.24-.6-5.08-.61a.3.3,0,0,1,0,.1c-.72,2.28-.7,4.82-1.81,7a5.24,5.24,0,0,1-1.92,2.29c-2,1.09-11.07,1.35-13.07.32-2.94-1.5-5.1-9.37-5.12-9.61h-5.8c0,.24-2.18,8.11-5.12,9.61-2,1-11,.77-13.06-.32a5.11,5.11,0,0,1-1.92-2.29c-1.12-2.15-1.1-4.69-1.82-7a.3.3,0,0,1,0-.1c-.73,0-4.78.51-4.78.51a74.47,74.47,0,0,0-.72,13.51c.06,1.47.9,4.38.4,5.72-.35,1-2.29,1.7-3.21,2a8.32,8.32,0,0,1-8.2-1.59c-2.45-2.2-4.5-4.26-7.69-5.41A16.07,16.07,0,0,0,537.44,308a1.58,1.58,0,0,0,.23,2.4,1.38,1.38,0,0,0,1.52.36c1.47-.46,2.57,1.17,3.43,2.12L546,316.5c1.75,1.92,3.46,4.33,5.86,5.48a16.62,16.62,0,0,0,7.72,1,9,9,0,0,0,4.36-1.19,27.23,27.23,0,0,0,2.94-1.71,29.07,29.07,0,0,0,3.92-2.57c.73-.6,2-3.2,3-2.89s1.39,3.38,1.53,4.2c1.63,9.26,3.37,18.55,6.3,27.5,2.39,7.3,5.07,14.68,9.26,21.17a67.83,67.83,0,0,1,9-135.06ZM478,344.17c-.42-.12-.85-.24-1.28-.34V256.16a32.77,32.77,0,0,0,23.61-40.89l75.95-43.85c.3.31.61.62.93.92Zm146.18,85.12a32.87,32.87,0,0,0-47.94-.67l-75.84-43.79c.12-.42.23-.84.34-1.27H699c.17.73.37,1.45.59,2.16Zm98.9-85.47c-.43.1-.85.22-1.27.34L622.57,172.32c.3-.28.59-.57.88-.87l76,43.86a32.77,32.77,0,0,0,23.63,40.85Z" fill="#f40010"/><path d="M573.75,279.57c.7.07,1.42.11,2.13.11-.48,1.64-1.33,5.33-1.33,5.33s9.26-.37,12.59-.42q7-.07,14,.28c1,0,3.82,0,4.3,0q7-.37,14-.28c3.62.05,13.49.42,13.49.42s-.27-2.62-.43-3.73a3.83,3.83,0,0,0,2.94-.94c1.09-1.28.76-3.92.57-5.45a15.87,15.87,0,0,0-10.53-13.2,12.17,12.17,0,0,0,1.05-4.27,6.05,6.05,0,0,0-.71-3c-1.83-3.17-6.09-4.74-9-5.39a10.89,10.89,0,0,0-.83-5.5c-1-2.29-3.23-5.76-5.83-6.34-2.82-.64-4.9,2.86-6.44,4.94-.1-.21-1.46-3.16-2.57-3.77a4.32,4.32,0,0,0-3.35,0c-1.93.59-4.15,2.55-2.56,4.66a30.72,30.72,0,0,0,3.29,2.79,32.21,32.21,0,0,1-6,1.68,15.22,15.22,0,0,0-1.62.51,12.35,12.35,0,0,0-5.29,3.55,7.33,7.33,0,0,0-1.39,7.5,31.92,31.92,0,0,0-7.81,8c-2.27,3.33-5.06,7.16-4.24,11.39A1.65,1.65,0,0,0,573.75,279.57Z" fill="#f40010"/><g opacity="0.1"><path d="M779.43,225.27a50,50,0,0,0-25-43.3L625,107.24a50,50,0,0,0-25-6.7V499.46a50,50,0,0,0,25-6.7L754.43,418a50,50,0,0,0,25-43.3Z"/></g></g></svg>