<svg id="fe511506-3f47-450f-96e9-2956e39744a5" data-name="d000d172-d3f6-4067-9bff-b7a6a8e5b081" xmlns="http://www.w3.org/2000/svg" xmlns:xlink="http://www.w3.org/1999/xlink" viewBox="0 0 1161.12 712.38"><defs><linearGradient id="f4e92ec8-6788-4184-874d-523c1530c1d2" x1="697.17" y1="-68.55" x2="697.17" y2="457.83" gradientTransform="matrix(1, 0, 0, -1, -19.44, 620.19)" gradientUnits="userSpaceOnUse"><stop offset="0" stop-color="gray" stop-opacity="0.25"/><stop offset="0.54" stop-color="gray" stop-opacity="0.12"/><stop offset="1" stop-color="gray" stop-opacity="0.1"/></linearGradient><linearGradient id="eaa07ddf-2b0c-4860-b68d-30f25dfee6ef" x1="319.33" y1="-69.14" x2="319.33" y2="484.84" xlink:href="#f4e92ec8-6788-4184-874d-523c1530c1d2"/></defs><path d="M1160.92,175.84c-.08,1.49-.19,3-.33,4.44a127.51,127.51,0,0,1-9.36,37.64c-16.85,40-50.48,70.43-86.41,94.87l-2.27,1.53c-6.5,4.37-13.11,8.59-19.76,12.72l-.53.33-.4.25-1.21.74c-1,.6-1.91,1.18-2.86,1.77l-1.59,1-7.3,4.44-6.43,3.87h0l-12.19,7.35c-13.56,8.16-27,16.44-40.1,25.37l-2,1.4c-1,.65-1.89,1.31-2.82,2q-7.35,5.16-14.46,10.67c-.93.71-1.86,1.44-2.78,2.19-9.41,7.54-18.49,16.12-25.31,25.88-5.79,8.31-9.93,17.47-11.17,27.59-2,16,3.5,31.43,11.17,46.5,4.94,9.69,10.8,19.24,16.17,28.74,1.75,3.11,3.45,6.21,5,9.31a129.78,129.78,0,0,1,7.47,16.95c4.28,12.41,5.53,24.85.61,37.53-5.39,13.91-16.3,22.82-29.3,30-7,3.85-14.53,7.19-22.17,10.55-10.92,4.78-22,9.6-31.67,15.89q-.92.58-1.8,1.2-1.89,1.28-3.7,2.65h0c-2,1.52-3.92,3.14-5.78,4.82q-1.65,1.51-3.24,3.1c-.84.82-1.68,1.67-2.5,2.54-1.58,1.65-3.12,3.35-4.63,5.07l-1.19,1.38c-1.11,1.33-2.21,2.65-3.3,3.94-1.42,1.72-2.81,3.46-4.2,5.21-2,2.5-4,5-5.94,7.5-.58.72-1.15,1.43-1.71,2.15-3.26,4-6.53,8-10,11.7l-.41.44c-8.22,8.8-17.31,16.24-28.77,20.22-27.63,9.6-55-4.72-81.55-20h0l-.74-.44-.33-.19h0l-2.28-1.32-1.07-.62c-2.71-1.58-5.42-3.16-8.12-4.7l-.65-.38c-3.81-2.17-7.59-4.28-11.35-6.27q-3.4-1.8-6.87-3.44a192.05,192.05,0,0,0-23.58-9.46A202.92,202.92,0,0,0,623,654.69q-6.68-1.07-13.43-1.67c-2.9-.26-5.82-.47-8.74-.61a206.19,206.19,0,0,0-70.09,8.52c-3.09.94-6.17,2-9.21,3.06-.57.19-1.13.4-1.68.6-2.82,1-5.61,2.13-8.37,3.3l-1,.41h0l-.15.08c-14.24,6.12-28,13.93-42.19,20-1.26.54-2.52,1.07-3.8,1.59a111.59,111.59,0,0,1-27.58,7.66,103.08,103.08,0,0,1-29.4-.74,207.46,207.46,0,0,1-25.92-6.08h-.09l-.54-.17c-.79-.23-1.59-.46-2.38-.71l-1.06-.31-1.39-.43c-20-6.12-40.05-13.38-60.67-15.37-1-.09-2-.18-3-.25a128,128,0,0,0-19.19.14c-19.16,1.48-38.22,6.66-57.18,12.11l-1.18.33c-1,.3-2.06.59-3.09.9l-2.23.64L225.06,689l-1,.28h0c-31.26,9-62.2,16.69-92.75,7.78-13.39-3.91-25.41-10.73-36.42-19.2A199.45,199.45,0,0,1,72.73,657.7C66.28,651,60.13,644,54.17,637,34.31,613.59,14.69,588.8,6,559.39A151.39,151.39,0,0,1,.63,527.48C.17,520.92,0,514.32,0,507.71q0-6.58.19-13.15c.07-3.19.18-6.37.27-9.55v-1.53c.06-1.48.1-3,.14-4.44q1.29-41.42,2.56-82.83c.57-18.4,1.18-37.09,6.86-54.6.65-2,1.38-4,2.15-6,.59-1.5,1.22-3,1.86-4.44,12.64-28.41,37-51.76,58.64-75.64a283.09,283.09,0,0,0,22.16-27.08c10.33-14.76,17.8-30.42,19.45-48.11.14-1.47.24-2.94.29-4.44s.06-3,0-4.59c-.53-25.62-14.17-50.19-19.77-74.84-2.52-11-3.43-22.08-.82-33.25.24-1.07.52-2.11.82-3.14,9.75-33.24,47.76-50.68,82.45-56.33,36-5.85,72.67-4.16,108.62,1q3.56.51,7.1,1.1c7.44,1.21,14.82,2.64,22.17,4.18,17.83,3.73,35.49,8.12,53.4,11.75,22.95,4.66,43.72.21,66.61-3q17.55-2.46,35.26-3.42,14.74-.81,29.51-.58A415,415,0,0,1,616.83,33.34c25.45,7.93,50.51,18.4,76.38,24.11a170.4,170.4,0,0,0,26.88,3.89c.71.06,1.43.1,2.15.13,61.24,2.72,117.52-33.86,178.32-40.72l2.05-.22a190.36,190.36,0,0,1,20.12-1c56.68.25,111.64,24.63,163.7,48.68,15.86,7.32,32,14.85,44.89,26.63C1153.48,115.09,1162.64,145.59,1160.92,175.84Z" fill="#f40010" opacity="0.1" style="isolation:isolate"/><path d="M622.9,479V335.55h39.53l-1-.93-.26-.23-.58-.51c-.25-.22-.49-.43-.75-.63l-.63-.5-.69-.54q-.53-.43-1.11-.84l-.27-.2H622.9v-7.85c-.32.16-.62.33-.93.5l-1,.62a.05.05,0,0,1-.06.05l-.21.13-.61.46c-.2.14-.41.29-.61.45-.61.45-1.21,1-1.8,1.47l-.59.53-1.16,1.05c-1.55,1.45-3.07,2.95-4.64,4.34-.4.35-.79.7-1.2,1a30.48,30.48,0,0,1-2.64,2c-.37.26-.75.51-1.14.73l-.66.33-.59.3h0a22.39,22.39,0,0,1-4.33,1.56V479H541.37a2.22,2.22,0,0,0,.12.46c.33,1.34.65,2.65,1,4h58.27V637.19h.91l1,.07,1.89.16,3,.35a9.16,9.16,0,0,1,1.38.19l1.62.23h.22l2.65.45a3,3,0,0,1,.57.11l1.27.23,1.85.37h0l4.44-.16h0l.61.14.75.17v-156h91.64v-.33a1.82,1.82,0,0,0,0-.33c.12-1.23.23-2.44.35-3.66a.24.24,0,0,1,0-.12ZM760,479h-4v4.47h4.56Zm-45,0a.24.24,0,0,0,0,.12c-.12,1.22-.23,2.43-.35,3.66a1.82,1.82,0,0,1,0,.33v.33H749.1v-.24l2.46-4.18ZM94.05,63.19c-2.61,11.17-1.7,22.22.82,33.25V60C94.56,61.05,94.29,62.09,94.05,63.19ZM661.4,334.62c-.07-1.12-.15-2.29-.2-3.51h-9.54a5.4,5.4,0,0,0,.09.58c.12.67.21,1.32.31,2,.07.47.14.92.19,1.37l.06.51h9.14ZM587.88,481.4h0c-.7-.41-1.09-.62-1.09-.62,1.08-.65,2.13-1.24,3.15-1.79H376.85a9.4,9.4,0,0,0,.39,1c.08.19.18.4.28.61s.23.47.37.72.42.77.66,1.18.38.63.58,1H591.24C589.81,482.54,588.66,481.85,587.88,481.4ZM315.1,373l.11.26V373ZM315,351.51a4.56,4.56,0,0,1-1.1,1s.43.48,1.05,1.33a3.38,3.38,0,0,1-.11.34c-.05.14-.11.29-.17.43l-.1.19a2.5,2.5,0,0,1-.23.39.57.57,0,0,1-.12.15,4.7,4.7,0,0,1-.34.44l-.22.21a4.19,4.19,0,0,1-.45.39l-.13.09H313l.06.06.09.11a22.79,22.79,0,0,1,2.07,2.9v-8.35l-.24.32ZM586.24,479h-30.9c8.19,3,21.29,2,30,.75l1.71-.25C586.73,479.26,586.43,479.1,586.24,479Zm66.65,4.43a3.11,3.11,0,0,0-.23-.28,1.42,1.42,0,0,0-.24-.25,5.54,5.54,0,0,1-.81-1c-.14-.2-.26-.4-.38-.61-.24-.44-.5-.92-.76-1.46,0-.06-.06-.13-.1-.2s-.2-.42-.29-.64H622.9V335.55h29.42l-.06-.51c-.06-.44-.13-.9-.19-1.37-.1-.63-.19-1.28-.31-2a4.09,4.09,0,0,0-.09-.58H622.9V220.74h-.07a1.33,1.33,0,0,0-.4,0,2.46,2.46,0,0,0-.47.1l-.35.13-.45.18-.29.12c-.72.32-1.56.76-2.56,1.24-1.43.67-2.89,1.33-4.36,1.94l-.87.36-1.08.42c-.71.29-1.43.55-2.15.79q-.71.26-1.44.48c-.86.27-1.74.52-2.61.73-.43.12-.86.21-1.3.3s-.86.18-1.29.25-.86.15-1.3.2-.78.11-1.18.14V331.11H315.21V205l-.6.36c-3.57,2-8.25,1.63-11.35,4.27-4,3.37-3.29,9.6-1.94,14.6.12.44.25.87.36,1.32a2.62,2.62,0,0,0,.11.42h0a.43.43,0,0,0,.08.3,5.73,5.73,0,0,1,.16.69l.12.57.06.37v.19a4.1,4.1,0,0,1,.06.49,5.46,5.46,0,0,1,.07.9v.1a9,9,0,0,1-6.15,7.88,8.73,8.73,0,0,1-3.17.36v93.27H274.78l.41,4.44H293V479H260.89c-.12.74-.25,1.5-.43,2.26-.08.33-.16.66-.26,1s-.23.8-.35,1.2H293v30h3.4l2.1-.07h.93c1.25-.06,2.39-.13,3.39-.19l1.34-.1.85-.06,1.23-.11H307l.64.12h.23c.44.07,1,.17,1.8.27l1,.14.53.07,1.5.2h.2l2.34.29V483.43h285.5V490c.8.61,1.63,1.26,2.44,1.91l1.22,1c1.45,1.21,2.89,2.5,4.27,3.82l1.13,1.11c.47.47.94,1,1.38,1.43l.18.19q.54.58,1,1.17l.72.84c.41.51.81,1,1.19,1.51s.75,1,1.09,1.52.69,1,1,1.54a18.75,18.75,0,0,1,1,1.9h2.12l.19.4c.09.16.15.32.22.47.29.65.53,1.28.74,1.91.08.26.17.51.23.77a7.44,7.44,0,0,1,.2.78,5.42,5.42,0,0,0,.14.7c0,.23.07.47.1.69a3.7,3.7,0,0,1,.07.57v.53a11.77,11.77,0,0,1,0,1.68,13.78,13.78,0,0,0,1.43-.31V483.43h30ZM315.21,479V335.55H600.73V479Zm274.72,0H552.08c.94.38,1.75.75,2.4,1.09,7.86,4,22.31,2.91,31.71,1.57l1.68-.25c-.7-.41-1.09-.62-1.09-.62C587.86,480.13,588.91,479.54,589.93,479Zm-458.55,0c.93,1.52,1.91,3,2.92,4.44H259.85c.12-.4.25-.8.35-1.2s.18-.65.26-1c.18-.76.31-1.52.43-2.26Zm454.86,0h-30.9c8.19,3,21.29,2,30,.75l1.71-.25C586.73,479.26,586.43,479.1,586.24,479Zm-454.86,0c.93,1.52,1.91,3,2.92,4.44H259.85c.12-.4.25-.8.35-1.2s.18-.65.26-1c.18-.76.31-1.52.43-2.26Zm521.51,4.43a3.11,3.11,0,0,0-.23-.28,1.42,1.42,0,0,0-.24-.25,5.54,5.54,0,0,1-.81-1c-.14-.2-.26-.4-.38-.61-.24-.44-.5-.92-.76-1.46,0-.06-.06-.13-.1-.2s-.2-.42-.29-.64H622.9V335.55h29.42l-.06-.51c-.06-.44-.13-.9-.19-1.37-.1-.63-.19-1.28-.31-2a4.09,4.09,0,0,0-.09-.58H622.9V220.74h-.07a1.33,1.33,0,0,0-.4,0,2.46,2.46,0,0,0-.47.1l-.35.13-.45.18-.29.12c-.72.32-1.56.76-2.56,1.24-1.43.67-2.89,1.33-4.36,1.94l-.87.36-1.08.42c-.71.29-1.43.55-2.15.79q-.71.26-1.44.48c-.86.27-1.74.52-2.61.73-.43.12-.86.21-1.3.3s-.86.18-1.29.25-.86.15-1.3.2-.78.11-1.18.14V331.11H315.21V205l-.6.36c-3.57,2-8.25,1.63-11.35,4.27-4,3.37-3.29,9.6-1.94,14.6.12.44.25.87.36,1.32a2.62,2.62,0,0,0,.11.42h0a.58.58,0,0,0,.08.3,5.73,5.73,0,0,1,.16.69l.12.57.06.37a.8.8,0,0,0,.05.34,1.93,1.93,0,0,1,0,.34,5.46,5.46,0,0,1,.07.9v.1a9,9,0,0,1-6.15,7.88,8.73,8.73,0,0,1-3.17.36v93.27H274.78l.41,4.44H293V479H260.89c-.12.74-.25,1.5-.43,2.26-.08.33-.16.66-.26,1s-.23.8-.35,1.2H293v30h3.4l2.1-.07h.93c1.25-.06,2.39-.13,3.39-.19l1.34-.1.85-.06,1.23-.11H307l.64.12h.23c.44.07,1,.17,1.8.27l1,.14.53.07,1.5.2h.2l2.34.29V483.43h67a48,48,0,0,1-2.84-4.44h-64.2V335.55H600.73V479h-10.8c-1,.55-2.07,1.14-3.15,1.79,0,0,.39.21,1.09.62h0c.78.45,1.93,1.14,3.36,2h9.49v6.54c.8.61,1.63,1.26,2.44,1.91l1.22,1c1.45,1.21,2.89,2.5,4.27,3.82l1.13,1.11c.47.47.94,1,1.38,1.43l.18.19q.54.59,1,1.17l.72.84c.41.51.81,1,1.19,1.51s.75,1,1.09,1.52.69,1,1,1.54a18.75,18.75,0,0,1,1,1.9h2.12l.19.4c.09.16.15.32.22.47.29.65.53,1.28.74,1.91.08.26.17.51.23.77a7.44,7.44,0,0,1,.2.78,5.42,5.42,0,0,0,.14.7c0,.23.07.47.1.69a3.7,3.7,0,0,1,.07.57v.53a11.78,11.78,0,0,1,0,1.68,13.78,13.78,0,0,0,1.43-.31V483.43h30.06ZM586.24,479h-30.9c8.19,3,21.29,2,30,.75l1.71-.25C586.73,479.26,586.43,479.1,586.24,479ZM661.4,334.62c-.07-1.12-.15-2.29-.2-3.51h-9.54a5.4,5.4,0,0,0,.09.58c.12.67.21,1.32.31,2,.07.47.14.92.19,1.37l.06.51h9.14ZM131.4,479c.93,1.52,1.91,3,2.92,4.44H259.85c.12-.4.25-.8.35-1.2s.18-.65.26-1c.18-.76.31-1.52.43-2.26Zm521.51,4.43a3.11,3.11,0,0,0-.23-.28,1.42,1.42,0,0,0-.24-.25,5.54,5.54,0,0,1-.81-1c-.14-.2-.26-.4-.38-.61-.24-.44-.5-.92-.76-1.46,0-.06-.06-.13-.1-.2s-.2-.42-.29-.64H622.9V335.55h29.42l-.06-.51c-.06-.44-.13-.9-.19-1.37-.1-.63-.19-1.28-.31-2a4.09,4.09,0,0,0-.09-.58H622.9V220.74h-.07a1.33,1.33,0,0,0-.4,0,2.46,2.46,0,0,0-.47.1l-.35.13-.45.18-.29.12c-.72.32-1.56.76-2.56,1.24-1.43.67-2.89,1.33-4.36,1.94l-.87.36-1.08.42c-.71.29-1.43.55-2.15.79q-.71.26-1.44.48c-.86.27-1.74.52-2.61.73-.43.12-.86.21-1.3.3s-.86.18-1.29.25-.86.15-1.3.2-.78.11-1.18.14V331.11H315.21V205l-.6.36c-3.57,2-8.25,1.63-11.35,4.27-4,3.37-3.29,9.6-1.94,14.6.12.44.25.87.36,1.32a2.62,2.62,0,0,0,.11.42h0a1.73,1.73,0,0,0,.07.31,5.73,5.73,0,0,1,.16.69l.12.57.06.37a.8.8,0,0,0,.05.34,1.93,1.93,0,0,1,0,.34,5.46,5.46,0,0,1,.07.9v.1a9,9,0,0,1-6.15,7.88,8.73,8.73,0,0,1-3.17.36V331.1H274.78l.41,4.44H293V479H260.89c-.12.74-.25,1.5-.43,2.26-.08.33-.16.66-.26,1s-.23.8-.35,1.2H293v30h3.4l2.1-.07h.93c1.25-.06,2.39-.13,3.39-.19l1.34-.1.85-.06,1.23-.11H307l.64.12h.23c.44.07,1,.17,1.8.27l1,.14.53.07,1.5.2h.2l2.34.29V483.43h67a48,48,0,0,1-2.84-4.44h-64.2V335.55H600.73V479h-10.8c-1,.55-2.07,1.14-3.15,1.79,0,0,.39.21,1.09.62h0c.78.45,1.93,1.14,3.36,2h9.49v6.54c.8.61,1.63,1.26,2.44,1.91l1.22,1c1.45,1.21,2.89,2.5,4.27,3.82l1.13,1.11c.47.47.94,1,1.38,1.43l.18.19q.54.59,1,1.17l.72.84c.41.51.81,1,1.19,1.51s.75,1,1.09,1.52.69,1,1,1.54a18.75,18.75,0,0,1,1,1.9h2.12l.19.4c.09.16.15.32.22.47.29.65.53,1.28.74,1.91.08.26.17.51.23.77a7.44,7.44,0,0,1,.2.78,5.42,5.42,0,0,0,.14.7c0,.23.07.47.1.69a3.7,3.7,0,0,1,.07.57v.53a11.78,11.78,0,0,1,0,1.68,13.78,13.78,0,0,0,1.43-.31V483.43h30.08Zm8.51-148.8c-.07-1.12-.15-2.29-.2-3.51h-9.56a5.4,5.4,0,0,0,.09.58c.12.67.21,1.32.31,2,.07.47.14.92.19,1.37l.06.51h9.14ZM131.42,479c.93,1.52,1.91,3,2.92,4.44H259.85c.12-.4.25-.8.35-1.2s.18-.65.26-1c.18-.76.31-1.52.43-2.26Zm521.51,4.43a3.11,3.11,0,0,0-.23-.28,1.42,1.42,0,0,0-.24-.25,5.54,5.54,0,0,1-.81-1c-.14-.2-.26-.4-.38-.61-.24-.44-.5-.92-.76-1.46,0-.06-.06-.13-.1-.2s-.2-.42-.29-.64H622.9V335.55h29.42l-.06-.51c-.06-.44-.13-.9-.19-1.37-.1-.63-.19-1.28-.31-2a4.09,4.09,0,0,0-.09-.58H622.9V220.74h-.07a1.33,1.33,0,0,0-.4,0,2.46,2.46,0,0,0-.47.1l-.35.13-.45.18-.29.12c-.72.32-1.56.76-2.56,1.24-1.43.67-2.89,1.33-4.36,1.94l-.87.36-1.08.42c-.71.29-1.43.55-2.15.79q-.71.26-1.44.48c-.86.27-1.74.52-2.61.73-.43.12-.86.21-1.3.3s-.86.18-1.29.25-.86.15-1.3.2-.78.11-1.18.14V331.11H315.21V205l-.6.36c-3.57,2-8.25,1.63-11.35,4.27-4,3.37-3.29,9.6-1.94,14.6.12.44.25.87.36,1.32a2.62,2.62,0,0,0,.11.42h0a1.73,1.73,0,0,0,.07.31,5.73,5.73,0,0,1,.16.69l.12.57.06.37a.8.8,0,0,0,.05.34,1.93,1.93,0,0,1,0,.34,5.46,5.46,0,0,1,.07.9v.1a9,9,0,0,1-6.15,7.88,8.73,8.73,0,0,1-3.17.36V331.1H274.78l.41,4.44H293V479H260.89c-.12.74-.25,1.5-.43,2.26-.08.33-.16.66-.26,1s-.23.8-.35,1.2H293v30h3.4l2.1-.07h.93c1.25-.06,2.39-.13,3.39-.19l1.34-.1.85-.06,1.23-.11H307l.64.12h.23c.44.07,1,.17,1.8.27l1,.14.53.07,1.5.2h.2l2.34.29V483.43h67a48,48,0,0,1-2.84-4.44h-64.2V335.55H600.73V479h-10.8c-1,.55-2.07,1.14-3.15,1.79,0,0,.39.21,1.09.62h0c.78.45,1.93,1.14,3.36,2h9.49v6.54c.8.61,1.63,1.26,2.44,1.91l1.22,1c1.45,1.21,2.89,2.5,4.27,3.82l1.13,1.11c.47.47.94,1,1.38,1.43l.18.19q.54.59,1,1.17l.72.84c.41.51.81,1,1.19,1.51s.75,1,1.09,1.52.69,1,1,1.54a18.75,18.75,0,0,1,1,1.9h2.12l.19.4c.09.16.15.32.22.47.29.65.53,1.28.74,1.91.08.26.17.51.23.77a7.44,7.44,0,0,1,.2.78,5.42,5.42,0,0,0,.14.7c0,.23.07.47.1.69a3.7,3.7,0,0,1,.07.57v.53a11.78,11.78,0,0,1,0,1.68,13.78,13.78,0,0,0,1.43-.31V483.43h30.1Zm8.51-148.8c-.07-1.12-.15-2.29-.2-3.51h-9.58a5.4,5.4,0,0,0,.09.58c.12.67.21,1.32.31,2,.07.47.14.92.19,1.37l.06.51h9.14ZM131.44,479c.93,1.52,1.91,3,2.92,4.44H259.85c.12-.4.25-.8.35-1.2s.18-.65.26-1c.18-.76.31-1.52.43-2.26ZM653,483.42a3.11,3.11,0,0,0-.23-.28,1.42,1.42,0,0,0-.24-.25,5.54,5.54,0,0,1-.81-1c-.14-.2-.26-.4-.38-.61-.24-.44-.5-.92-.76-1.46,0-.06-.06-.13-.1-.2s-.2-.42-.29-.64H622.9V335.55h29.42l-.06-.51c-.06-.44-.13-.9-.19-1.37-.1-.63-.19-1.28-.31-2a4.09,4.09,0,0,0-.09-.58H622.9V220.74h-.07a1.33,1.33,0,0,0-.4,0,2.46,2.46,0,0,0-.47.1l-.35.13-.45.18-.29.12c-.72.32-1.56.76-2.56,1.24-1.43.67-2.89,1.33-4.36,1.94l-.87.36-1.08.42c-.71.29-1.43.55-2.15.79q-.71.26-1.44.48c-.86.27-1.74.52-2.61.73-.43.12-.86.21-1.3.3s-.86.18-1.29.25-.86.15-1.3.2-.78.11-1.18.14V331.11H315.21V205l-.6.36c-3.57,2-8.25,1.63-11.35,4.27-4,3.37-3.29,9.6-1.94,14.6.12.44.25.87.36,1.32a2.62,2.62,0,0,0,.11.42h0a1.73,1.73,0,0,0,.07.31,5.73,5.73,0,0,1,.16.69l.12.57.06.37a.8.8,0,0,0,.05.34,1.93,1.93,0,0,1,0,.34,5.46,5.46,0,0,1,.07.9v.1a9,9,0,0,1-6.15,7.88,8.73,8.73,0,0,1-3.17.36V331.1H274.78l.41,4.44H293V479H260.89c-.12.74-.25,1.5-.43,2.26-.08.33-.16.66-.26,1s-.23.8-.35,1.2H293v30h3.4l2.1-.07h.93c1.25-.06,2.39-.13,3.39-.19l1.34-.1.85-.06,1.23-.11H307l.64.12h.23c.44.07,1,.17,1.8.27l1,.14.53.07,1.5.2h.2l2.34.29V483.43h67a48,48,0,0,1-2.84-4.44h-64.2V335.55H600.73V479h-10.8c-1,.55-2.07,1.14-3.15,1.79,0,0,.39.21,1.09.62h0c.78.45,1.93,1.14,3.36,2h9.49v6.54c.8.61,1.63,1.26,2.44,1.91l1.22,1c1.45,1.21,2.89,2.5,4.27,3.82l1.13,1.11c.47.47.94,1,1.38,1.43l.18.19q.54.59,1,1.17l.72.84c.41.51.81,1,1.19,1.51s.75,1,1.09,1.52.69,1,1,1.54a18.75,18.75,0,0,1,1,1.9h2.12l.19.4c.09.16.15.32.22.47.29.65.53,1.28.74,1.91.08.26.17.51.23.77a7.44,7.44,0,0,1,.2.78,5.42,5.42,0,0,0,.14.7c0,.23.07.47.1.69a3.7,3.7,0,0,1,.07.57v.53a11.78,11.78,0,0,1,0,1.68,13.78,13.78,0,0,0,1.43-.31V483.43H653Zm8.51-148.8c-.07-1.12-.15-2.29-.2-3.51h-9.6a5.4,5.4,0,0,0,.09.58c.12.67.21,1.32.31,2,.07.47.14.92.19,1.37l.06.51h9.14ZM131.46,479c.93,1.52,1.91,3,2.92,4.44H259.85c.12-.4.25-.8.35-1.2s.18-.65.26-1c.18-.76.31-1.52.43-2.26ZM653,483.42a3.11,3.11,0,0,0-.23-.28,1.42,1.42,0,0,0-.24-.25,5.54,5.54,0,0,1-.81-1c-.14-.2-.26-.4-.38-.61-.24-.44-.5-.92-.76-1.46,0-.06-.06-.13-.1-.2s-.2-.42-.29-.64H622.9V335.55h29.42l-.06-.51c-.06-.44-.13-.9-.19-1.37-.1-.63-.19-1.28-.31-2a4.09,4.09,0,0,0-.09-.58H622.9V220.74h-.07a1.33,1.33,0,0,0-.4,0,2.46,2.46,0,0,0-.47.1l-.35.13-.45.18-.29.12c-.72.32-1.56.76-2.56,1.24-1.43.67-2.89,1.33-4.36,1.94l-.87.36-1.08.42c-.71.29-1.43.55-2.15.79q-.71.26-1.44.48c-.86.27-1.74.52-2.61.73-.43.12-.86.21-1.3.3s-.86.18-1.29.25-.86.15-1.3.2-.78.11-1.18.14V331.11H315.21V205l-.6.36c-3.57,2-8.25,1.63-11.35,4.27-4,3.37-3.29,9.6-1.94,14.6.12.44.25.87.36,1.32a2.62,2.62,0,0,0,.11.42h0a1.73,1.73,0,0,0,.07.31,5.73,5.73,0,0,1,.16.69l.12.57.06.37a.8.8,0,0,0,.05.34,1.93,1.93,0,0,1,0,.34,5.46,5.46,0,0,1,.07.9v.1a9,9,0,0,1-6.15,7.88,8.73,8.73,0,0,1-3.17.36V331.1H274.78l.41,4.44H293V479H260.89c-.12.74-.25,1.5-.43,2.26-.08.33-.16.66-.26,1s-.23.8-.35,1.2H293v30h3.4l2.1-.07h.93c1.25-.06,2.39-.13,3.39-.19l1.34-.1.85-.06,1.23-.11H307l.64.12h.23c.44.07,1,.17,1.8.27l1,.14.53.07,1.5.2h.2l2.34.29V483.43h67a48,48,0,0,1-2.84-4.44h-64.2V335.55H600.73V479h-10.8c-1,.55-2.07,1.14-3.15,1.79,0,0,.39.21,1.09.62h0c.78.45,1.93,1.14,3.36,2h9.49v6.54c.8.61,1.63,1.26,2.44,1.91l1.22,1c1.45,1.21,2.89,2.5,4.27,3.82l1.13,1.11c.47.47.94,1,1.38,1.43l.18.19q.54.59,1,1.17l.72.84c.41.51.81,1,1.19,1.51s.75,1,1.09,1.52.69,1,1,1.54a18.75,18.75,0,0,1,1,1.9h2.12l.19.4c.09.16.15.32.22.47.29.65.53,1.28.74,1.91.08.26.17.51.23.77a7.44,7.44,0,0,1,.2.78,5.42,5.42,0,0,0,.14.7c0,.23.07.47.1.69a3.7,3.7,0,0,1,.07.57v.53a11.78,11.78,0,0,1,0,1.68,13.78,13.78,0,0,0,1.43-.31V483.43H653Zm8.51-148.8c-.07-1.12-.15-2.29-.2-3.51h-9.62a5.4,5.4,0,0,0,.09.58c.12.67.21,1.32.31,2,.07.47.14.92.19,1.37l.06.51h9.14ZM131.48,479c.93,1.52,1.91,3,2.92,4.44H259.85c.12-.4.25-.8.35-1.2s.18-.65.26-1c.18-.76.31-1.52.43-2.26ZM653,483.42a3.11,3.11,0,0,0-.23-.28,1.42,1.42,0,0,0-.24-.25,5.54,5.54,0,0,1-.81-1c-.14-.2-.26-.4-.38-.61-.24-.44-.5-.92-.76-1.46,0-.06-.06-.13-.1-.2s-.2-.42-.29-.64H622.9V335.55h29.42l-.06-.51c-.06-.44-.13-.9-.19-1.37-.1-.63-.19-1.28-.31-2a4.09,4.09,0,0,0-.09-.58H622.9V220.74h-.07a1.33,1.33,0,0,0-.4,0,2.46,2.46,0,0,0-.47.1l-.35.13-.45.18-.29.12c-.72.32-1.56.76-2.56,1.24-1.43.67-2.89,1.33-4.36,1.94l-.87.36-1.08.42c-.71.29-1.43.55-2.15.79q-.71.26-1.44.48c-.86.27-1.74.52-2.61.73-.43.12-.86.21-1.3.3s-.86.18-1.29.25-.86.15-1.3.2-.78.11-1.18.14V331.11H315.21V205l-.6.36c-3.57,2-8.25,1.63-11.35,4.27-4,3.37-3.29,9.6-1.94,14.6.12.44.25.87.36,1.32a2.62,2.62,0,0,0,.11.42h0a1.73,1.73,0,0,0,.07.31,5.73,5.73,0,0,1,.16.69l.12.57.06.37a.8.8,0,0,0,.05.34,1.93,1.93,0,0,1,0,.34,5.46,5.46,0,0,1,.07.9v.1a9,9,0,0,1-6.15,7.88,8.73,8.73,0,0,1-3.17.36V331.1H274.78l.41,4.44H293V479H260.89c-.12.74-.25,1.5-.43,2.26-.08.33-.16.66-.26,1s-.23.8-.35,1.2H293v30h3.4l2.1-.07h.93c1.25-.06,2.39-.13,3.39-.19l1.34-.1.85-.06,1.23-.11H307l.64.12h.23c.44.07,1,.17,1.8.27l1,.14.53.07,1.5.2h.2l2.34.29V483.43h67a48,48,0,0,1-2.84-4.44h-64.2V335.55H600.73V479h-10.8c-1,.55-2.07,1.14-3.15,1.79,0,0,.39.21,1.09.62h0c.78.45,1.93,1.14,3.36,2h9.49v6.54c.8.61,1.63,1.26,2.44,1.91l1.22,1c1.45,1.21,2.89,2.5,4.27,3.82l1.13,1.11c.47.47.94,1,1.38,1.43l.18.19q.54.59,1,1.17l.72.84c.41.51.81,1,1.19,1.51s.75,1,1.09,1.52.69,1,1,1.54a18.75,18.75,0,0,1,1,1.9h2.12l.19.4c.09.16.15.32.22.47.29.65.53,1.28.74,1.91.08.26.17.51.23.77a7.44,7.44,0,0,1,.2.78,5.42,5.42,0,0,0,.14.7c0,.23.07.47.1.69a3.7,3.7,0,0,1,.07.57v.53a11.78,11.78,0,0,1,0,1.68,13.78,13.78,0,0,0,1.43-.31V483.43H653Zm8.51-148.8c-.07-1.12-.15-2.29-.2-3.51h-9.64a5.4,5.4,0,0,0,.09.58c.12.67.21,1.32.31,2,.07.47.14.92.19,1.37l.06.51h9.14ZM131.5,479c.93,1.52,1.91,3,2.92,4.44H259.85c.12-.4.25-.8.35-1.2s.18-.65.26-1c.18-.76.31-1.52.43-2.26ZM653,483.42a3.11,3.11,0,0,0-.23-.28,1.42,1.42,0,0,0-.24-.25,5.54,5.54,0,0,1-.81-1c-.14-.2-.26-.4-.38-.61-.24-.44-.5-.92-.76-1.46,0-.06-.06-.13-.1-.2s-.2-.42-.29-.64H622.9V335.55h29.42l-.06-.51c-.06-.44-.13-.9-.19-1.37-.1-.63-.19-1.28-.31-2a4.09,4.09,0,0,0-.09-.58H622.9V220.74h-.07a1.33,1.33,0,0,0-.4,0,2.46,2.46,0,0,0-.47.1l-.35.13-.45.18-.29.12c-.72.32-1.56.76-2.56,1.24-1.43.67-2.89,1.33-4.36,1.94l-.87.36-1.08.42c-.71.29-1.43.55-2.15.79q-.71.26-1.44.48c-.86.27-1.74.52-2.61.73-.43.12-.86.21-1.3.3s-.86.18-1.29.25-.86.15-1.3.2-.78.11-1.18.14V331.11H315.21V205l-.6.36c-3.57,2-8.25,1.63-11.35,4.27-4,3.37-3.29,9.6-1.94,14.6.12.44.25.87.36,1.32a2.62,2.62,0,0,0,.11.42h0a1.73,1.73,0,0,0,.07.31,5.73,5.73,0,0,1,.16.69l.12.57.06.37a.8.8,0,0,0,.05.34,1.93,1.93,0,0,1,0,.34,5.46,5.46,0,0,1,.07.9v.1a9,9,0,0,1-6.15,7.88,8.73,8.73,0,0,1-3.17.36V331.1H274.78l.41,4.44H293V479H260.89c-.12.74-.25,1.5-.43,2.26-.08.33-.16.66-.26,1s-.23.8-.35,1.2H293v30h3.4l2.1-.07h.93c1.25-.06,2.39-.13,3.39-.19l1.34-.1.85-.06,1.23-.11H307l.64.12h.23c.44.07,1,.17,1.8.27l1,.14.53.07,1.5.2h.2l2.34.29V483.43h67a48,48,0,0,1-2.84-4.44h-64.2V335.55H600.73V479h-10.8c-1,.55-2.07,1.14-3.15,1.79,0,0,.39.21,1.09.62h0c.78.45,1.93,1.14,3.36,2h9.49v6.54c.8.61,1.63,1.26,2.44,1.91l1.22,1c1.45,1.21,2.89,2.5,4.27,3.82l1.13,1.11c.47.47.94,1,1.38,1.43l.18.19q.54.59,1,1.17l.72.84c.41.51.81,1,1.19,1.51s.75,1,1.09,1.52.69,1,1,1.54a18.75,18.75,0,0,1,1,1.9h2.12l.19.4c.09.16.15.32.22.47.29.65.53,1.28.74,1.91.08.26.17.51.23.77a7.44,7.44,0,0,1,.2.78,5.42,5.42,0,0,0,.14.7c0,.23.07.47.1.69a3.7,3.7,0,0,1,.07.57v.53a11.78,11.78,0,0,1,0,1.68,13.78,13.78,0,0,0,1.43-.31V483.43H653Zm8.51-148.8c-.07-1.12-.15-2.29-.2-3.51h-9.66a5.4,5.4,0,0,0,.09.58c.12.67.21,1.32.31,2,.07.47.14.92.19,1.37l.06.51h9.14ZM131.52,479c.93,1.52,1.91,3,2.92,4.44H259.85c.12-.4.25-.8.35-1.2s.18-.65.26-1c.18-.76.31-1.52.43-2.26ZM653,483.42a3.11,3.11,0,0,0-.23-.28,1.42,1.42,0,0,0-.24-.25,5.54,5.54,0,0,1-.81-1c-.14-.2-.26-.4-.38-.61-.24-.44-.5-.92-.76-1.46,0-.06-.06-.13-.1-.2s-.2-.42-.29-.64H622.9V335.55h29.42l-.06-.51c-.06-.44-.13-.9-.19-1.37-.1-.63-.19-1.28-.31-2a4.09,4.09,0,0,0-.09-.58H622.9V220.74h-.07a1.33,1.33,0,0,0-.4,0,2.46,2.46,0,0,0-.47.1l-.35.13-.45.18-.29.12c-.72.32-1.56.76-2.56,1.24-1.43.67-2.89,1.33-4.36,1.94-.28.13-.58.25-.87.36s-.72.3-1.08.42c-.71.29-1.43.55-2.15.79q-.71.26-1.44.48c-.86.27-1.74.52-2.61.73-.43.12-.86.21-1.3.3s-.86.18-1.29.25-.86.15-1.3.2-.78.11-1.18.14V331.11H315.21V205l-.6.36c-3.57,2-8.25,1.63-11.35,4.27-4,3.37-3.29,9.6-1.94,14.6.12.44.25.87.36,1.32a3.25,3.25,0,0,1,.11.42h0a1.73,1.73,0,0,0,.07.31,5.73,5.73,0,0,1,.16.69l.12.57.06.37a.8.8,0,0,0,.05.34,1.93,1.93,0,0,1,0,.34,5.46,5.46,0,0,1,.07.9v.1a9,9,0,0,1-6.15,7.88,8.73,8.73,0,0,1-3.17.36V331.1H274.78l.41,4.44H293V479H260.89c-.12.74-.25,1.5-.43,2.26-.08.33-.16.66-.26,1s-.23.8-.35,1.2H293v30h3.4l2.1-.07h.93c1.25-.06,2.39-.13,3.39-.19l1.34-.1.85-.06,1.23-.11H307l.64.12h.23c.44.07,1,.17,1.8.27l1,.14.53.07,1.5.2h.2l2.34.29V483.43h67a48,48,0,0,1-2.84-4.44h-64.2V335.55H600.73V479h-10.8c-1,.55-2.07,1.14-3.15,1.79,0,0,.39.21,1.09.62h0c.78.45,1.93,1.14,3.36,2h9.49v6.54c.8.61,1.63,1.26,2.44,1.91l1.22,1c1.45,1.21,2.89,2.5,4.27,3.82.38.36.76.73,1.13,1.11s.94,1,1.38,1.43l.18.19q.54.59,1,1.17l.72.84c.41.51.81,1,1.19,1.51s.75,1,1.09,1.52.69,1,1,1.54a18.75,18.75,0,0,1,1,1.9h2.12l.19.4c.09.16.15.32.22.47.29.65.53,1.28.74,1.91.08.26.17.51.23.77a7.44,7.44,0,0,1,.2.78,5.42,5.42,0,0,0,.14.7,5.46,5.46,0,0,1,.1.69,3.7,3.7,0,0,1,.07.57v.53a11.78,11.78,0,0,1,0,1.68,13.78,13.78,0,0,0,1.43-.31V483.43H653Zm8.51-148.8c-.07-1.12-.15-2.29-.2-3.51h-9.68a5.4,5.4,0,0,0,.09.58c.12.67.21,1.32.31,2,.07.47.14.92.19,1.37l.06.51h9.14ZM922.77,175.84V19.58a190.36,190.36,0,0,0-20.12,1l-2,.22v155H629.45l-.68-.84,1-1.27h0l4.43-5.52,4.44-5.52h0L720.1,61.3a170.4,170.4,0,0,1-26.88-3.89L622.86,145V39.46q-11.1-2.16-22.17-4.81V140.12L500,14.72q-14.75-.24-29.51.58L594.87,170.11l3.22,4,.7.87-.7.84H315.21V10C307.86,8.43,300.48,7,293,5.79v170H114.61c0,1.5-.15,3-.29,4.44H293V331.11H94.87V228.39a283.09,283.09,0,0,1-22.16,27.08v75.64H14.07c-.64,1.47-1.27,2.94-1.86,4.44h60.5V479H.64c0,1.49-.08,3-.14,4.44H72.71V657.65a199.45,199.45,0,0,0,22.16,20.14V483.43H293V673.71a128,128,0,0,1,19.19-.14c1,.07,2,.16,3,.25V483.43h285.5v169c2.92.14,5.84.35,8.74.61q6.75.6,13.43,1.67V483.43H900.56v138c7.64-3.36,15.2-6.7,22.17-10.55V488.34c-7.67-15.07-13.15-30.46-11.17-46.5,1.24-10.12,5.38-19.28,11.17-27.59v-78.7h106.13l7.3-4.44H922.77V180.28h237.79c.14-1.48.25-2.95.33-4.44Zm-22.21,4.44V331.11H622.9V184.32l.21-.22,3.69-3.82Zm-585.39,0H600.73V331.11H315.21ZM94.87,479V335.55H293V479Zm220.34,0V335.55H600.73V479Zm307.69,0V335.55H900.56V479Zm38.5-144.37c-.07-1.12-.15-2.29-.2-3.51h-9.54a5.4,5.4,0,0,0,.09.58c.12.67.21,1.32.31,2,.07.47.14.92.19,1.37l.06.51h9.14Zm-8.51,148.8a3.11,3.11,0,0,0-.23-.28,1.42,1.42,0,0,0-.24-.25,5.54,5.54,0,0,1-.81-1c-.14-.2-.26-.4-.38-.61-.24-.44-.5-.92-.76-1.46,0-.06-.06-.13-.1-.2s-.2-.42-.29-.64H622.9V335.55h29.42l-.06-.51c-.06-.44-.13-.9-.19-1.37-.1-.63-.19-1.28-.31-2a4.09,4.09,0,0,0-.09-.58H622.9V220.74h-.07a1.33,1.33,0,0,0-.4,0,2.46,2.46,0,0,0-.47.1l-.35.13-.45.18-.29.12c-.72.32-1.56.76-2.56,1.24-1.43.67-2.89,1.33-4.36,1.94l-.87.36-1.08.42c-.71.29-1.43.55-2.15.79q-.71.26-1.44.48c-.86.27-1.74.52-2.61.73-.43.12-.86.21-1.3.3s-.86.18-1.29.25-.86.15-1.3.2-.78.11-1.18.14V331.11H315.21V205l-.6.36c-3.57,2-8.25,1.63-11.35,4.27-4,3.37-3.29,9.6-1.94,14.6.12.44.25.87.36,1.32a2.62,2.62,0,0,0,.11.42h0a1.73,1.73,0,0,0,.07.31,5.73,5.73,0,0,1,.16.69l.12.57.06.37a.8.8,0,0,0,.05.34,1.93,1.93,0,0,1,0,.34,5.46,5.46,0,0,1,.07.9v.1a9,9,0,0,1-6.15,7.88,8.73,8.73,0,0,1-3.17.36V331.1H274.78l.41,4.44H293V479H260.89c-.12.74-.25,1.5-.43,2.26-.08.33-.16.66-.26,1s-.23.8-.35,1.2H293v30h3.4l2.1-.07h.93c1.25-.06,2.39-.13,3.39-.19l1.34-.1.85-.06,1.23-.11H307l.64.12h.23c.44.07,1,.17,1.8.27l1,.14.53.07,1.5.2h.2l2.34.29V483.43h67a48,48,0,0,1-2.84-4.44h-64.2V335.55H600.73V479h-10.8c-1,.55-2.07,1.14-3.15,1.79,0,0,.39.21,1.09.62h0c.78.45,1.93,1.14,3.36,2h9.49v6.54c.8.61,1.63,1.26,2.44,1.91l1.22,1c1.45,1.21,2.89,2.5,4.27,3.82l1.13,1.11c.47.47.94,1,1.38,1.43l.18.19q.54.59,1,1.17l.72.84c.41.51.81,1,1.19,1.51s.75,1,1.09,1.52.69,1,1,1.54a18.75,18.75,0,0,1,1,1.9h2.12l.19.4c.09.16.15.32.22.47.29.65.53,1.28.74,1.91.08.26.17.51.23.77a7.44,7.44,0,0,1,.2.78,5.42,5.42,0,0,0,.14.7c0,.23.07.47.1.69a3.7,3.7,0,0,1,.07.57v.53a11.78,11.78,0,0,1,0,1.68,13.78,13.78,0,0,0,1.43-.31V483.43h30.06ZM131.38,479c.93,1.52,1.91,3,2.92,4.44H259.85c.12-.4.25-.8.35-1.2s.18-.65.26-1c.18-.76.31-1.52.43-2.26Zm530-144.37c-.07-1.12-.15-2.29-.2-3.51h-9.52a5.4,5.4,0,0,0,.09.58c.12.67.21,1.32.31,2,.07.47.14.92.19,1.37l.06.51h9.14Zm-8.51,148.8a3.11,3.11,0,0,0-.23-.28,1.42,1.42,0,0,0-.24-.25,5.54,5.54,0,0,1-.81-1c-.14-.2-.26-.4-.38-.61-.24-.44-.5-.92-.76-1.46,0-.06-.06-.13-.1-.2s-.2-.42-.29-.64H622.9V335.55h29.42l-.06-.51c-.06-.44-.13-.9-.19-1.37-.1-.63-.19-1.28-.31-2a4.09,4.09,0,0,0-.09-.58H622.9V220.74h-.07a1.33,1.33,0,0,0-.4,0,2.46,2.46,0,0,0-.47.1l-.35.13-.45.18-.29.12c-.72.32-1.56.76-2.56,1.24-1.43.67-2.89,1.33-4.36,1.94l-.87.36-1.08.42c-.71.29-1.43.55-2.15.79q-.71.26-1.44.48c-.86.27-1.74.52-2.61.73-.43.12-.86.21-1.3.3s-.86.18-1.29.25-.86.15-1.3.2-.78.11-1.18.14V331.11H315.21V205l-.6.36c-3.57,2-8.25,1.63-11.35,4.27-4,3.37-3.29,9.6-1.94,14.6.12.44.25.87.36,1.32a2.62,2.62,0,0,0,.11.42h0a1.73,1.73,0,0,0,.07.31,5.73,5.73,0,0,1,.16.69l.12.57.06.37a.8.8,0,0,0,.05.34,1.93,1.93,0,0,1,0,.34,5.46,5.46,0,0,1,.07.9v.1a9,9,0,0,1-6.15,7.88,8.73,8.73,0,0,1-3.17.36V331.1H274.78l.41,4.44H293V479H260.89c-.12.74-.25,1.5-.43,2.26-.08.33-.16.66-.26,1s-.23.8-.35,1.2H293v30h3.4l2.1-.07h.93c1.25-.06,2.39-.13,3.39-.19l1.34-.1.85-.06,1.23-.11H307l.64.12h.23c.44.07,1,.17,1.8.27l1,.14.53.07,1.5.2h.2l2.34.29V483.43h67a48,48,0,0,1-2.84-4.44h-64.2V335.55H600.73V479h-10.8c-1,.55-2.07,1.14-3.15,1.79,0,0,.39.21,1.09.62h0c.78.45,1.93,1.14,3.36,2h9.49v6.54c.8.61,1.63,1.26,2.44,1.91l1.22,1c1.45,1.21,2.89,2.5,4.27,3.82l1.13,1.11c.47.47.94,1,1.38,1.43l.18.19q.54.59,1,1.17l.72.84c.41.51.81,1,1.19,1.51s.75,1,1.09,1.52.69,1,1,1.54a18.75,18.75,0,0,1,1,1.9h2.12l.19.4c.09.16.15.32.22.47.29.65.53,1.28.74,1.91.08.26.17.51.23.77a7.44,7.44,0,0,1,.2.78,5.42,5.42,0,0,0,.14.7c0,.23.07.47.1.69a3.7,3.7,0,0,1,.07.57v.53a11.78,11.78,0,0,1,0,1.68,13.78,13.78,0,0,0,1.43-.31V483.43h30ZM131.38,479c.93,1.52,1.91,3,2.92,4.44H259.85c.12-.4.25-.8.35-1.2s.18-.65.26-1c.18-.76.31-1.52.43-2.26Zm530-144.37c-.07-1.12-.15-2.29-.2-3.51h-9.52a5.4,5.4,0,0,0,.09.58c.12.67.21,1.32.31,2,.07.47.14.92.19,1.37l.06.51h9.14Zm-8.51,148.8a3.11,3.11,0,0,0-.23-.28,1.42,1.42,0,0,0-.24-.25,5.54,5.54,0,0,1-.81-1c-.14-.2-.26-.4-.38-.61-.24-.44-.5-.92-.76-1.46,0-.06-.06-.13-.1-.2s-.2-.42-.29-.64H622.9V335.55h29.42l-.06-.51c-.06-.44-.13-.9-.19-1.37-.1-.63-.19-1.28-.31-2a4.09,4.09,0,0,0-.09-.58H622.9V220.74h-.07a1.33,1.33,0,0,0-.4,0,2.46,2.46,0,0,0-.47.1l-.35.13-.45.18-.29.12c-.72.32-1.56.76-2.56,1.24-1.43.67-2.89,1.33-4.36,1.94l-.87.36-1.08.42c-.71.29-1.43.55-2.15.79q-.71.26-1.44.48c-.86.27-1.74.52-2.61.73-.43.12-.86.21-1.3.3s-.86.18-1.29.25-.86.15-1.3.2-.78.11-1.18.14V331.11H315.21V205l-.6.36c-3.57,2-8.25,1.63-11.35,4.27-4,3.37-3.29,9.6-1.94,14.6.12.44.25.87.36,1.32a2.62,2.62,0,0,0,.11.42h0a1.73,1.73,0,0,0,.07.31,5.73,5.73,0,0,1,.16.69l.12.57.06.37a.8.8,0,0,0,.05.34,1.93,1.93,0,0,1,0,.34,5.46,5.46,0,0,1,.07.9v.1a9,9,0,0,1-6.15,7.88,8.73,8.73,0,0,1-3.17.36V331.1H274.78l.41,4.44H293V479H260.89c-.12.74-.25,1.5-.43,2.26-.08.33-.16.66-.26,1s-.23.8-.35,1.2H293v30h3.4l2.1-.07h.93c1.25-.06,2.39-.13,3.39-.19l1.34-.1.85-.06,1.23-.11H307l.64.12h.23c.44.07,1,.17,1.8.27l1,.14.53.07,1.5.2h.2l2.34.29V483.43h67a48,48,0,0,1-2.84-4.44h-64.2V335.55H600.73V479h-10.8c-1,.55-2.07,1.14-3.15,1.79,0,0,.39.21,1.09.62h0c.78.45,1.93,1.14,3.36,2h9.49v6.54c.8.61,1.63,1.26,2.44,1.91l1.22,1c1.45,1.21,2.89,2.5,4.27,3.82l1.13,1.11c.47.47.94,1,1.38,1.43l.18.19q.54.59,1,1.17l.72.84c.41.51.81,1,1.19,1.51s.75,1,1.09,1.52.69,1,1,1.54a18.75,18.75,0,0,1,1,1.9h2.12l.19.4c.09.16.15.32.22.47.29.65.53,1.28.74,1.91.08.26.17.51.23.77a7.44,7.44,0,0,1,.2.78,5.42,5.42,0,0,0,.14.7c0,.23.07.47.1.69a3.7,3.7,0,0,1,.07.57v.53a11.78,11.78,0,0,1,0,1.68,13.78,13.78,0,0,0,1.43-.31V483.43h30ZM131.38,479c.93,1.52,1.91,3,2.92,4.44H259.85c.12-.4.25-.8.35-1.2s.18-.65.26-1c.18-.76.31-1.52.43-2.26Zm530-144.37c-.07-1.12-.15-2.29-.2-3.51h-9.52a5.4,5.4,0,0,0,.09.58c.12.67.21,1.32.31,2,.07.47.14.92.19,1.37l.06.51h9.14Zm-8.51,148.8a3.11,3.11,0,0,0-.23-.28,1.42,1.42,0,0,0-.24-.25,5.54,5.54,0,0,1-.81-1c-.14-.2-.26-.4-.38-.61-.24-.44-.5-.92-.76-1.46,0-.06-.06-.13-.1-.2s-.2-.42-.29-.64H622.9V335.55h29.42l-.06-.51c-.06-.44-.13-.9-.19-1.37-.1-.63-.19-1.28-.31-2a4.09,4.09,0,0,0-.09-.58H622.9V220.74h-.07a1.33,1.33,0,0,0-.4,0,2.46,2.46,0,0,0-.47.1l-.35.13-.45.18-.29.12c-.72.32-1.56.76-2.56,1.24-1.43.67-2.89,1.33-4.36,1.94l-.87.36-1.08.42c-.71.29-1.43.55-2.15.79q-.71.26-1.44.48c-.86.27-1.74.52-2.61.73-.43.12-.86.21-1.3.3s-.86.18-1.29.25-.86.15-1.3.2-.78.11-1.18.14V331.11H315.21V205l-.6.36c-3.57,2-8.25,1.63-11.35,4.27-4,3.37-3.29,9.6-1.94,14.6.12.44.25.87.36,1.32a2.62,2.62,0,0,0,.11.42h0a1.73,1.73,0,0,0,.07.31,5.73,5.73,0,0,1,.16.69l.12.57.06.37a.8.8,0,0,0,.05.34,1.93,1.93,0,0,1,0,.34,5.46,5.46,0,0,1,.07.9v.1a9,9,0,0,1-6.15,7.88,8.73,8.73,0,0,1-3.17.36V331.1H274.78l.41,4.44H293V479H260.89c-.12.74-.25,1.5-.43,2.26-.08.33-.16.66-.26,1s-.23.8-.35,1.2H293v30h3.4l2.1-.07h.93c1.25-.06,2.39-.13,3.39-.19l1.34-.1.85-.06,1.23-.11H307l.64.12h.23c.44.07,1,.17,1.8.27l1,.14.53.07,1.5.2h.2l2.34.29V483.43h67a48,48,0,0,1-2.84-4.44h-64.2V335.55H600.73V479h-10.8c-1,.55-2.07,1.14-3.15,1.79,0,0,.39.21,1.09.62h0c.78.45,1.93,1.14,3.36,2h9.49v6.54c.8.61,1.63,1.26,2.44,1.91l1.22,1c1.45,1.21,2.89,2.5,4.27,3.82l1.13,1.11c.47.47.94,1,1.38,1.43l.18.19q.54.59,1,1.17l.72.84c.41.51.81,1,1.19,1.51s.75,1,1.09,1.52.69,1,1,1.54a18.75,18.75,0,0,1,1,1.9h2.12l.19.4c.09.16.15.32.22.47.29.65.53,1.28.74,1.91.08.26.17.51.23.77a7.44,7.44,0,0,1,.2.78,5.42,5.42,0,0,0,.14.7c0,.23.07.47.1.69a3.7,3.7,0,0,1,.07.57v.53a11.78,11.78,0,0,1,0,1.68,13.78,13.78,0,0,0,1.43-.31V483.43h30ZM131.38,479c.93,1.52,1.91,3,2.92,4.44H259.85c.12-.4.25-.8.35-1.2s.18-.65.26-1c.18-.76.31-1.52.43-2.26Zm530-144.37c-.07-1.12-.15-2.29-.2-3.51h-9.52a5.4,5.4,0,0,0,.09.58c.12.67.21,1.32.31,2,.07.47.14.92.19,1.37l.06.51h9.14Zm-8.51,148.8a3.11,3.11,0,0,0-.23-.28,1.42,1.42,0,0,0-.24-.25,5.54,5.54,0,0,1-.81-1c-.14-.2-.26-.4-.38-.61-.24-.44-.5-.92-.76-1.46,0-.06-.06-.13-.1-.2s-.2-.42-.29-.64H622.9V335.55h29.42l-.06-.51c-.06-.44-.13-.9-.19-1.37-.1-.63-.19-1.28-.31-2a4.09,4.09,0,0,0-.09-.58H622.9V220.74h-.07a1.33,1.33,0,0,0-.4,0,2.46,2.46,0,0,0-.47.1l-.35.13-.45.18-.29.12c-.72.32-1.56.76-2.56,1.24-1.43.67-2.89,1.33-4.36,1.94l-.87.36-1.08.42c-.71.29-1.43.55-2.15.79q-.71.26-1.44.48c-.86.27-1.74.52-2.61.73-.43.12-.86.21-1.3.3s-.86.18-1.29.25-.86.15-1.3.2-.78.11-1.18.14V331.11H315.21V205l-.6.36c-3.57,2-8.25,1.63-11.35,4.27-4,3.37-3.29,9.6-1.94,14.6.12.44.25.87.36,1.32a2.62,2.62,0,0,0,.11.42h0a1.73,1.73,0,0,0,.07.31,5.73,5.73,0,0,1,.16.69l.12.57.06.37a.8.8,0,0,0,.05.34,1.93,1.93,0,0,1,0,.34,5.46,5.46,0,0,1,.07.9v.1a9,9,0,0,1-6.15,7.88,8.73,8.73,0,0,1-3.17.36V331.1H274.78l.41,4.44H293V479H260.89c-.12.74-.25,1.5-.43,2.26-.08.33-.16.66-.26,1s-.23.8-.35,1.2H293v30h3.4l2.1-.07h.93c1.25-.06,2.39-.13,3.39-.19l1.34-.1.85-.06,1.23-.11H307l.64.12h.23c.44.07,1,.17,1.8.27l1,.14.53.07,1.5.2h.2l2.34.29V483.43h67a48,48,0,0,1-2.84-4.44h-64.2V335.55H600.73V479h-10.8c-1,.55-2.07,1.14-3.15,1.79,0,0,.39.21,1.09.62h0c.78.45,1.93,1.14,3.36,2h9.49v6.54c.8.61,1.63,1.26,2.44,1.91l1.22,1c1.45,1.21,2.89,2.5,4.27,3.82l1.13,1.11c.47.47.94,1,1.38,1.43l.18.19q.54.59,1,1.17l.72.84c.41.51.81,1,1.19,1.51s.75,1,1.09,1.52.69,1,1,1.54a18.75,18.75,0,0,1,1,1.9h2.12l.19.4c.09.16.15.32.22.47.29.65.53,1.28.74,1.91.08.26.17.51.23.77a7.44,7.44,0,0,1,.2.78,5.42,5.42,0,0,0,.14.7c0,.23.07.47.1.69a3.7,3.7,0,0,1,.07.57v.53a11.78,11.78,0,0,1,0,1.68,13.78,13.78,0,0,0,1.43-.31V483.43h30ZM131.38,479c.93,1.52,1.91,3,2.92,4.44H259.85c.12-.4.25-.8.35-1.2s.18-.65.26-1c.18-.76.31-1.52.43-2.26Zm530-144.37c-.07-1.12-.15-2.29-.2-3.51h-9.52a5.4,5.4,0,0,0,.09.58c.12.67.21,1.32.31,2,.07.47.14.92.19,1.37l.06.51h9.14Zm-8.51,148.8a3.11,3.11,0,0,0-.23-.28,1.42,1.42,0,0,0-.24-.25,5.54,5.54,0,0,1-.81-1c-.14-.2-.26-.4-.38-.61-.24-.44-.5-.92-.76-1.46,0-.06-.06-.13-.1-.2s-.2-.42-.29-.64H622.9V335.55h29.42l-.06-.51c-.06-.44-.13-.9-.19-1.37-.1-.63-.19-1.28-.31-2a4.09,4.09,0,0,0-.09-.58H622.9V220.74h-.07a1.33,1.33,0,0,0-.4,0,2.46,2.46,0,0,0-.47.1l-.35.13-.45.18-.29.12c-.72.32-1.56.76-2.56,1.24-1.43.67-2.89,1.33-4.36,1.94l-.87.36-1.08.42c-.71.29-1.43.55-2.15.79q-.71.26-1.44.48c-.86.27-1.74.52-2.61.73-.43.12-.86.21-1.3.3s-.86.18-1.29.25-.86.15-1.3.2-.78.11-1.18.14V331.11H315.21V205l-.6.36c-3.57,2-8.25,1.63-11.35,4.27-4,3.37-3.29,9.6-1.94,14.6.12.44.25.87.36,1.32a2.62,2.62,0,0,0,.11.42h0a1.73,1.73,0,0,0,.07.31,5.73,5.73,0,0,1,.16.69l.12.57.06.37a.8.8,0,0,0,.05.34,1.93,1.93,0,0,1,0,.34,5.46,5.46,0,0,1,.07.9v.1a9,9,0,0,1-6.15,7.88,8.73,8.73,0,0,1-3.17.36V331.1H274.78l.41,4.44H293V479H260.89c-.12.74-.25,1.5-.43,2.26-.08.33-.16.66-.26,1s-.23.8-.35,1.2H293v30h3.4l2.1-.07h.93c1.25-.06,2.39-.13,3.39-.19l1.34-.1.85-.06,1.23-.11H307l.64.12h.23c.44.07,1,.17,1.8.27l1,.14.53.07,1.5.2h.2l2.34.29V483.43h67a48,48,0,0,1-2.84-4.44h-64.2V335.55H600.73V479h-10.8c-1,.55-2.07,1.14-3.15,1.79,0,0,.39.21,1.09.62h0c.78.45,1.93,1.14,3.36,2h9.49v6.54c.8.61,1.63,1.26,2.44,1.91l1.22,1c1.45,1.21,2.89,2.5,4.27,3.82l1.13,1.11c.47.47.94,1,1.38,1.43l.18.19q.54.59,1,1.17l.72.84c.41.51.81,1,1.19,1.51s.75,1,1.09,1.52.69,1,1,1.54a18.75,18.75,0,0,1,1,1.9h2.12l.19.4c.09.16.15.32.22.47.29.65.53,1.28.74,1.91.08.26.17.51.23.77a7.44,7.44,0,0,1,.2.78,5.42,5.42,0,0,0,.14.7c0,.23.07.47.1.69a3.7,3.7,0,0,1,.07.57v.53a11.78,11.78,0,0,1,0,1.68,13.78,13.78,0,0,0,1.43-.31V483.43h30ZM131.38,479c.93,1.52,1.91,3,2.92,4.44H259.85c.12-.4.25-.8.35-1.2s.18-.65.26-1c.18-.76.31-1.52.43-2.26Zm530-144.37c-.07-1.12-.15-2.29-.2-3.51h-9.52a5.4,5.4,0,0,0,.09.58c.12.67.21,1.32.31,2,.07.47.14.92.19,1.37l.06.51h9.14Zm-8.51,148.8a3.11,3.11,0,0,0-.23-.28,1.42,1.42,0,0,0-.24-.25,5.54,5.54,0,0,1-.81-1c-.14-.2-.26-.4-.38-.61-.24-.44-.5-.92-.76-1.46,0-.06-.06-.13-.1-.2s-.2-.42-.29-.64H622.9V335.55h29.42l-.06-.51c-.06-.44-.13-.9-.19-1.37-.1-.63-.19-1.28-.31-2a4.09,4.09,0,0,0-.09-.58H622.9V220.74h-.07a1.33,1.33,0,0,0-.4,0,2.46,2.46,0,0,0-.47.1l-.35.13-.45.18-.29.12c-.72.32-1.56.76-2.56,1.24-1.43.67-2.89,1.33-4.36,1.94l-.87.36-1.08.42c-.71.29-1.43.55-2.15.79q-.71.26-1.44.48c-.86.27-1.74.52-2.61.73-.43.12-.86.21-1.3.3s-.86.18-1.29.25-.86.15-1.3.2-.78.11-1.18.14V331.11H315.21V205l-.6.36c-3.57,2-8.25,1.63-11.35,4.27-4,3.37-3.29,9.6-1.94,14.6.12.44.25.87.36,1.32a2.62,2.62,0,0,0,.11.42h0a1.73,1.73,0,0,0,.07.31,5.73,5.73,0,0,1,.16.69l.12.57.06.37a.8.8,0,0,0,.05.34,1.93,1.93,0,0,1,0,.34,5.46,5.46,0,0,1,.07.9v.1a9,9,0,0,1-6.15,7.88,8.73,8.73,0,0,1-3.17.36V331.1H274.78l.41,4.44H293V479H260.89c-.12.74-.25,1.5-.43,2.26-.08.33-.16.66-.26,1s-.23.8-.35,1.2H293v30h3.4l2.1-.07h.93c1.25-.06,2.39-.13,3.39-.19l1.34-.1.85-.06,1.23-.11H307l.64.12h.23c.44.07,1,.17,1.8.27l1,.14.53.07,1.5.2h.2l2.34.29V483.43h67a48,48,0,0,1-2.84-4.44h-64.2V335.55H600.73V479h-10.8c-1,.55-2.07,1.14-3.15,1.79,0,0,.39.21,1.09.62h0c.78.45,1.93,1.14,3.36,2h9.49v6.54c.8.61,1.63,1.26,2.44,1.91l1.22,1c1.45,1.21,2.89,2.5,4.27,3.82l1.13,1.11c.47.47.94,1,1.38,1.43l.18.19q.54.59,1,1.17l.72.84c.41.51.81,1,1.19,1.51s.75,1,1.09,1.52.69,1,1,1.54a18.75,18.75,0,0,1,1,1.9h2.12l.19.4c.09.16.15.32.22.47.29.65.53,1.28.74,1.91.08.26.17.51.23.77a7.44,7.44,0,0,1,.2.78,5.42,5.42,0,0,0,.14.7c0,.23.07.47.1.69a3.7,3.7,0,0,1,.07.57v.53a11.78,11.78,0,0,1,0,1.68,13.78,13.78,0,0,0,1.43-.31V483.43h30ZM131.38,479c.93,1.52,1.91,3,2.92,4.44H259.85c.12-.4.25-.8.35-1.2s.18-.65.26-1c.18-.76.31-1.52.43-2.26Zm530-144.37c-.07-1.12-.15-2.29-.2-3.51h-9.52a5.4,5.4,0,0,0,.09.58c.12.67.21,1.32.31,2,.07.47.14.92.19,1.37l.06.51h9.14Zm-8.51,148.8a3.11,3.11,0,0,0-.23-.28,1.42,1.42,0,0,0-.24-.25,5.54,5.54,0,0,1-.81-1c-.14-.2-.26-.4-.38-.61-.24-.44-.5-.92-.76-1.46,0-.06-.06-.13-.1-.2s-.2-.42-.29-.64H622.9V335.55h29.42l-.06-.51c-.06-.44-.13-.9-.19-1.37-.1-.63-.19-1.28-.31-2a4.09,4.09,0,0,0-.09-.58H622.9V220.74h-.07a1.33,1.33,0,0,0-.4,0,2.46,2.46,0,0,0-.47.1l-.35.13-.45.18-.29.12c-.72.32-1.56.76-2.56,1.24-1.43.67-2.89,1.33-4.36,1.94l-.87.36-1.08.42c-.71.29-1.43.55-2.15.79q-.71.26-1.44.48c-.86.27-1.74.52-2.61.73-.43.12-.86.21-1.3.3s-.86.18-1.29.25-.86.15-1.3.2-.78.11-1.18.14V331.11H315.21V205l-.6.36c-3.57,2-8.25,1.63-11.35,4.27-4,3.37-3.29,9.6-1.94,14.6.12.44.25.87.36,1.32a2.62,2.62,0,0,0,.11.42h0a.43.43,0,0,0,.08.3,5.73,5.73,0,0,1,.16.69l.12.57.06.37a.8.8,0,0,0,.05.34,1.93,1.93,0,0,1,0,.34,5.46,5.46,0,0,1,.07.9v.1a9,9,0,0,1-6.15,7.88,8.73,8.73,0,0,1-3.17.36v93.27H274.78l.41,4.44H293V479H260.89c-.12.74-.25,1.5-.43,2.26-.08.33-.16.66-.26,1s-.23.8-.35,1.2H293v30h3.4l2.1-.07h.93c1.25-.06,2.39-.13,3.39-.19l1.34-.1.85-.06,1.23-.11H307l.64.12h.23c.44.07,1,.17,1.8.27l1,.14.53.07,1.5.2h.2l2.34.29V483.43h67a48,48,0,0,1-2.84-4.44h-64.2V335.55H600.73V479H552.08c.94.38,1.75.75,2.4,1.09,7.86,4,22.31,2.91,31.71,1.57l1.68-.25h0c.78.45,1.93,1.14,3.36,2h9.49v6.54c.8.61,1.63,1.26,2.44,1.91l1.22,1c1.45,1.21,2.89,2.5,4.27,3.82l1.13,1.11c.47.47.94,1,1.38,1.43l.18.19q.54.59,1,1.17l.72.84c.41.51.81,1,1.19,1.51s.75,1,1.09,1.52.69,1,1,1.54a18.75,18.75,0,0,1,1,1.9h2.12l.19.4c.09.16.15.32.22.47.29.65.53,1.28.74,1.91.08.26.17.51.23.77a7.44,7.44,0,0,1,.2.78,5.42,5.42,0,0,0,.14.7c0,.23.07.47.1.69a3.7,3.7,0,0,1,.07.57v.53a11.78,11.78,0,0,1,0,1.68,13.78,13.78,0,0,0,1.43-.31V483.43h30ZM131.38,479c.93,1.52,1.91,3,2.92,4.44H259.85c.12-.4.25-.8.35-1.2s.18-.65.26-1c.18-.76.31-1.52.43-2.26Zm458.55,0H552.08c.94.38,1.75.75,2.4,1.09,7.86,4,22.31,2.91,31.71,1.57l1.68-.25c-.7-.41-1.09-.62-1.09-.62C587.86,480.13,588.91,479.54,589.93,479Zm33,0V335.55h39.53l-1-.93-.26-.23-.58-.51c-.25-.22-.49-.43-.75-.63l-.63-.5-.69-.54q-.52-.43-1.11-.84l-.27-.2H622.9v-7.85c-.32.16-.62.33-.93.5l-1,.62a.05.05,0,0,1-.06.05l-.21.13-.61.46c-.2.14-.41.29-.61.45-.61.45-1.21,1-1.8,1.47l-.59.53-1.16,1.05c-1.55,1.45-3.07,2.95-4.64,4.34-.4.35-.79.7-1.2,1a30.48,30.48,0,0,1-2.64,2c-.37.26-.75.51-1.14.73l-.66.33-.59.3h0a22.39,22.39,0,0,1-4.33,1.56V479H541.37a2.22,2.22,0,0,0,.12.46c.33,1.33.66,2.66,1,4h58.26V637.19a3.53,3.53,0,0,1,.46,0h.45l1,.07,1.89.16,3,.35a9.16,9.16,0,0,1,1.38.19l1.63.23h.22l2.65.45a3,3,0,0,1,.57.11l1.27.23,1.85.37h0l4.44-.16h0l.61.14.75.17v-156h89.21c.14-1.48.28-3,.42-4.44Zm89.63,0c-.14,1.49-.28,3-.42,4.44h38.32l2.62-4.44ZM760,479h-4v4.47h4.53Zm-137.1,0V335.55h39.53l-1-.93-.26-.23-.58-.51c-.25-.22-.49-.43-.75-.63l-.63-.5-.69-.54q-.52-.43-1.11-.84l-.27-.2H622.9v-7.85c-.32.16-.62.33-.93.5l-1,.62a.05.05,0,0,1-.06.05l-.21.13-.61.46c-.2.14-.41.29-.61.45-.61.45-1.21,1-1.8,1.47l-.59.53-1.16,1.05c-1.55,1.45-3.07,2.95-4.64,4.34-.4.35-.79.7-1.2,1a30.48,30.48,0,0,1-2.64,2c-.37.26-.75.51-1.14.73l-.66.33-.59.3h0a22.39,22.39,0,0,1-4.33,1.56V479H541.37a2.22,2.22,0,0,0,.12.46c.33,1.34.65,2.65,1,4h58.27V637.19h.91l1,.07,1.89.16,3,.35a9.16,9.16,0,0,1,1.38.19l1.62.23h.22l2.65.45a3,3,0,0,1,.57.11l1.27.23,1.85.37h0l4.44-.16h0l.61.14.75.17v-156h91.64v-.33a1.82,1.82,0,0,0,0-.33c.12-1.23.23-2.44.35-3.66a.24.24,0,0,1,0-.12ZM715,479a.24.24,0,0,0,0,.12c-.12,1.22-.23,2.43-.35,3.66a1.82,1.82,0,0,1,0,.33v.33h34.45v-.24L751.6,479Zm45,0h-4v4.47h4.52Z" fill="#f40010" opacity="0.1" style="isolation:isolate"/><path d="M951.46,543.34l-28.69-.47-22.21-.38-45.4-.76h-2L815,541.09h0l-76.39-1.31-41.42-.69L692,539h-2l-3.88-.06h-2l-21.49-.43-12.32-.21-3.3-.06h-1.41L623,537.86l-22.17-.36-178.59-3h-2.44L352,533.37l-4.24-.08h0l-32.49-.53-22.17-.37-20-.34h-1.71l-78.94-1.32h0l-26.2-.54L94.87,529l-7.23-.12h-.08l-14.83-.25-72.1-1.2C.17,520.86,0,514.26,0,507.65q0-6.58.19-13.15l72.52,1.58,14,.31H87l7.91.17,33.31.72,17.89.39,106,2.3,7.42.16,33.57.73,4.18.09,7.44.17,9.8.21h.75l31.8.69,45.47,1,2.82.06,108.73,2.36h1.78l94.92,2.06,14.58.32,2.13.05h2.12l3.34.07,4.18.1h0l18.75.4h2.07l5.91.13h2.43l2.32.05,13,.29,46.43,1h2.09l3.13.07,127.92,2.77h1.93l47.48,1,19.81.43,2.36.33,16.17,2.27c1.75,3.11,3.45,6.21,5,9.31A129.44,129.44,0,0,1,951.46,543.34Z" fill="#fff"/><path d="M951.46,543.34l-28.69-.47-22.21-.38-45.4-.76h-2L815,541.09h0l-76.39-1.31-41.42-.69L692,539h-2l-3.88-.06h-2l-21.49-.43-12.32-.21-3.3-.06h-1.41L623,537.86l-22.17-.36-178.59-3h-2.44L352,533.37l-4.24-.08h0l-32.49-.53-22.17-.37-20-.34h-1.71l-78.94-1.32h0l-26.2-.54L94.87,529l-7.23-.12h-.08l-14.83-.25-72.1-1.2C.17,520.86,0,514.26,0,507.65l72.71,1.45,15,.29H88l6.93.14,42.09.83,23.77.48,40.15.8,39.82.79h0l22.87.45h.48l25.09.49h.92l3,.07,22.17.44h.45l11.49.22,3.91.09,7.15.13h0l65.23,1.3h2.62l194.65,3.86,22.17.45,18.92.37h2.49l15.49.3,2.88.07H665l46.76.93h2.08l3.27.06,55.6,1.11h0l60.86,1.2h0l17.16.34h1.63l48.18,1,22.17.44,21.22.42A129.68,129.68,0,0,1,951.46,543.34Z" fill="#d0d0db"/><path d="M868.93,637.31q-.91.59-1.8,1.2-1.89,1.28-3.7,2.65h0c-2,1.52-3.92,3.14-5.78,4.82q-1.65,1.51-3.24,3.1c-.84.82-1.68,1.67-2.5,2.54-1.58,1.65-3.12,3.35-4.63,5.07l-1.19,1.38c-1.11,1.33-2.21,2.65-3.3,3.94-1.42,1.72-2.81,3.46-4.2,5.21-2,2.5-4,5-5.94,7.5-.58.72-1.15,1.43-1.71,2.15-3.26,4-6.53,8-10,11.7l-87.43.17H709.43l-.33-.19h0l-2.28-1.32-1.07-.62c-2.71-1.58-5.42-3.16-8.12-4.7l-.65-.38c-3.81-2.17-7.59-4.28-11.35-6.27q-3.4-1.8-6.87-3.44a192.05,192.05,0,0,0-23.58-9.46,202.92,202.92,0,0,0-32.26-7.77q-6.67-1.07-13.43-1.67c-2.9-.26-5.82-.47-8.74-.61a206.19,206.19,0,0,0-70.09,8.52c-3.09.94-6.17,2-9.21,3.06-.57.19-1.13.4-1.68.6.1-.51.21-1,.32-1.53.83-3.82,4.28-8,9.06-12.21,2-24.49,22.48-44,22.48-44l48.52-21,.6-.4c8.46-5.68,17.43-10.25,22.17-11.93a12.44,12.44,0,0,1,2.06-.6c8.87-1.77,16.66-8.85,23-12.73,2.78-1.7,3.28-7.8,2.94-14.16a8.94,8.94,0,0,0-.08-1.47l-1.44.08-.28-.74-.36-1c-.06-.17-.11-.33-.17-.49h-1.33c-.57-1.49-1.09-2.91-1.55-4.27a83.39,83.39,0,0,1-3.26-11.92,3.4,3.4,0,0,1-.08-.46,35.48,35.48,0,0,1-.58-5.44,20.13,20.13,0,0,1,.24-4.1,12.79,12.79,0,0,1,.41-1.73l-.92.09h0l-2.4.21-.73.06-.32.21-15.19,1.35-1.45.13-.74.06v-.19l-1.4.13-.75.06a13.88,13.88,0,0,0,.27-1.59l-1.57.15-.58.05a115.46,115.46,0,0,1-16-.2c-20.8-1.4-45.93-6.19-45.93-6.19s-28.42,6.36-49-3.42a36.19,36.19,0,0,1-10.36-7.21h0a33.22,33.22,0,0,1-6.89-10.2,25.06,25.06,0,0,1-1.54-4.62,13.83,13.83,0,0,1-.37-4.44c1.77-20,55.72-6.51,66.77-.85a16.9,16.9,0,0,0,1.95.85c8.19,3,21.29,2,30.05.75l1.71-.25c-.37-.23-.67-.39-.86-.5l-.25-.14a52.07,52.07,0,0,1,14.74-6.28,35.67,35.67,0,0,1,9.6-1,55.17,55.17,0,0,1,9.86.85h.23a11.19,11.19,0,0,0,2.48-.65c2.63-1.06,4.61-3.22,3.84-7a17.66,17.66,0,0,1,1.07-9.9s4.92,1.3,4.35-5h0a21,21,0,0,0-.81-3.84c-.21-.7-.39-1.4-.54-2.11v-.12c-2.07-10.08,1.62-21.11,1.62-21.11l2.48-3.18L635,419l.09-.24-1.32-6.91h0l-.32-1.64-.7-23.68s-.36-37.12,11.7-42.42l-.13-1.68-.23-2.91s-5.16-1.53-8.26-4a7.32,7.32,0,0,1-1.73-1.91h0a3.21,3.21,0,0,1-.47-2.52,5,5,0,0,1,1.6-2.5,26.42,26.42,0,0,0,7.8-14.14s1.29-2.14,3.4-5.49c.14-.24.3-.49.46-.74-2.22-8-4.8-16.16-7.18-23.23-.22-.66-.43-1.32-.65-1.95-.14-.4-.27-.8-.4-1.19-.24-.67-.47-1.32-.69-2l-.81.16a51.49,51.49,0,0,1-9.19.83,50.53,50.53,0,0,1-49.4-61.61c.18-.79.37-1.58.59-2.35.11-.43.24-.84.38-1.26a8.63,8.63,0,0,0-5.32.68c-2.48,1.09-4.65,2.91-7.07,4.16a16.78,16.78,0,0,1-7.68,1.77,17.07,17.07,0,0,1-4.87-.7h0a17,17,0,0,1-5.62-2.82,4.87,4.87,0,0,0,1.08-.08h.3l.84-.15h.24c.35-.09.7-.18,1-.29l.18-.05c.3-.1.59-.2.88-.32l.25-.1,1-.43h0a10.6,10.6,0,0,0,1-.54l.19-.12.83-.53.16-.11c.33-.22.65-.45,1-.7a23.46,23.46,0,0,0,3.27-3.11c3.26-3.72,5.58-8.31,7.87-12.84l6-11.92c1.2-2.37,2.45-4.78,3.86-7a30.21,30.21,0,0,1,3.35-4.44,17.57,17.57,0,0,1,3.69-3.08,19.33,19.33,0,0,1,8.88-2.65c4.91-.35,10.1.44,15.06.28,6.69-.22,13.23-2.28,19.57-4.7a59,59,0,0,1,9.18-3h0a20.2,20.2,0,0,1,3.72-.43,24,24,0,0,1,10.44,2.58,40.72,40.72,0,0,1,12.58,9.31c.52.55,1,1.12,1.5,1.71,1.22,1.45,2.39,3,3.56,4.44,1,1.22,1.94,2.43,3,3.6,4.88,5.54,10.81,9.84,15.57,15.52s8.3,13.31,7,20.87v.17h0c-.09.53-.22,1-.36,1.57a1.78,1.78,0,0,1-.14.5c-.1.36-.2.72-.32,1.07l-.18.56c-.13.37-.25.75-.39,1.13a27.07,27.07,0,0,0-2.08,8.44,9.26,9.26,0,0,0,0,1.29h0c.26,3.79,2,7.36,3.1,11a19.63,19.63,0,0,1,.94,5.09v1.88h0a10.18,10.18,0,0,1-.23,1.45h0a.43.43,0,0,1,0,.16.74.74,0,0,1,0,.21V255a5.68,5.68,0,0,1-.22.7.28.28,0,0,1-.08.23l-.24.55-.14.25a4.33,4.33,0,0,1-.31.51,1.59,1.59,0,0,1-.13.22,6.78,6.78,0,0,1-.53.67c-.12.13-.24.24-.37.36l1.48.9c.13.09.26.16.4.24,4.81,1,19,4,24.58,4.25,1.69.09,4.46,1.2,7.67,2.8a68.78,68.78,0,0,1,31.16,32.49c4.68,10,10.21,20.87,13.12,23,2.36,1.77,4.79,5.32,6.82,8.86.88,1.53,1.68,3.06,2.36,4.44,1.54,3.08,2.52,5.44,2.52,5.44s23,15.55,20.19,30.75c0,0,5,17,9.93,21.92s16.3,44.59,16.3,44.59,4.25,7.42,3.9,13.06S839,468.94,839,468.94s1,5,2.3,10q.6,2.28,1.29,4.44c.9,2.87,1.88,5.24,2.79,6,2.82,2.47,1.41,7.77,1.41,7.77s3.54,9.19,5.32,11.67a8.67,8.67,0,0,1,1,4.11,46.07,46.07,0,0,1-.28,6.85s-.26,2-.42,4.72c-.26,4.38-.26,10.56,1.48,13a9.74,9.74,0,0,1,1.3,4.2c.83,6,.15,15.2,2.6,17.38,3.19,2.82,1.78,28.63,1.78,28.63S864.56,619.69,868.93,637.31Z" fill="url(#f4e92ec8-6788-4184-874d-523c1530c1d2)"/><path d="M741.93,573.1l-3.37,2.76L722.3,589.19l-3.29,2.7-14.29,11.73S664.56,627,622.9,646.78c-4.47,2.12-9,4.2-13.43,6.21-2.9-.26-5.82-.47-8.74-.61a206.19,206.19,0,0,0-70.09,8.52,44.28,44.28,0,0,1-.2-9.35c2-24.33,22.3-43.7,22.3-43.7l48-20.83h0l22.11-9.59,33.38-14.49,10.57,1.25,19.22,2.29Z" fill="#95b6f0"/><path d="M741.93,573.1l-3.37,2.76L722.3,589.19l-3.29,2.7-14.29,11.73S664.56,627,622.9,646.78c-4.47,2.12-9,4.2-13.43,6.21-2.9-.26-5.82-.47-8.74-.61a206.19,206.19,0,0,0-70.09,8.52,44.28,44.28,0,0,1-.2-9.35c2-24.33,22.3-43.7,22.3-43.7l48-20.83h0l22.11-9.59,33.38-14.49,10.57,1.25,19.22,2.29Z" opacity="0.05" style="isolation:isolate"/><path d="M699.11,670.68l-.13,1-.64,4.8-.09.76,0,.26-.24,1.83-.35,2.66-.65-.38c-3.81-2.17-7.59-4.28-11.35-6.27q-3.4-1.8-6.87-3.44a192.05,192.05,0,0,0-23.58-9.46l2.17-4,13.43,3.94L689.84,668l3.5,1,2.79.82Z" fill="#5f546f"/><path d="M699.11,670.68l-.13,1-.64,4.8-.09.76,0,.26-.24,1.83-.35,2.66-.65-.38c-3.81-2.17-7.59-4.28-11.35-6.27q-3.4-1.8-6.87-3.44a192.05,192.05,0,0,0-23.58-9.46l2.17-4,13.43,3.94L689.84,668l3.5,1,2.79.82Z" opacity="0.05" style="isolation:isolate"/><polygon points="668.92 655.59 694.89 666.12 698.76 677.7 672.08 667.17 668.92 655.59" fill="#ccccd8"/><polygon points="668.92 655.59 694.89 666.12 698.76 677.7 672.08 667.17 668.92 655.59" opacity="0.05" style="isolation:isolate"/><path d="M838.56,667.26c-2,2.5-4,5-5.94,7.5-.58.72-1.15,1.43-1.71,2.15-3.26,4-6.53,8-10,11.7l-.41.44-110.32.21h0l-.74-.44-.33-.19h0l-2.28-1.32-1.07-.62c-2.71-1.58-5.42-3.16-8.12-4.7l-.65-.38.1-2.42.08-2.07h0l.15-3.76h0l.06-1.57,1.63-.06Z" fill="#5f546f"/><path d="M733.5,688.93h-1l-9.89-.14h-.35l-13.13-.17-2.28-1.32-.19-8.11v-2.1l-.08-3.6,24.86-1.3,1.06-.05.28,4.51.13,2.11.63,10.07Z" opacity="0.1" style="isolation:isolate"/><path d="M732.45,688.92h0l-10.81-.13-12.54-.17h0l-2.28-1.32-1.07-.62-.19-7.49v-2.1l-.08-3.62,26-1.4v.12l.29,4.48.13,2.11.63,10.05Z" fill="#5f546f"/><path d="M732.45,688.92h0l-10.81-.13-12.54-.17h0l-2.28-1.32-1.07-.62-.19-7.49v-2.1l-.08-3.62,26-1.4v.12l.29,4.48.13,2.11.63,10.05Z" fill="#fff" opacity="0.1" style="isolation:isolate"/><path d="M699,671.67l139.58-4.41c-2,2.5-4,5-5.94,7.5-.58.72-1.15,1.43-1.71,2.15l-98,1.8h-1l-25.2.46h-1l-7.14.13h-.45a3.92,3.92,0,0,1-.9-.14l.08-2.07h0l.15-3.76h0l.06-1.57Z" opacity="0.1" style="isolation:isolate"/><path d="M847.23,656.73,846,658.11c-1.11,1.33-2.21,2.65-3.3,3.94-1.42,1.72-2.81,3.46-4.2,5.21-2,2.5-4,5-5.94,7.5l-99.87,1.84h-1l-25.17.49h-1l-7,.1h-.34a5.26,5.26,0,0,1-.89-.08h-.22a5.35,5.35,0,0,1-4.12-5.93l.32-2.19.3-2.13.17-1.19.35-2.39.09-.67Z" fill="#ccccd8"/><path d="M852.85,644.36,857.6,646q-1.65,1.51-3.24,3.1c-.84.82-1.68,1.67-2.5,2.54-1.58,1.65-3.12,3.35-4.63,5.07L846,658.11c-1.11,1.33-2.21,2.65-3.3,3.94l-146,4h-1.8l-.74-2.83-5.94-22.79,141.16,3.32h0l8.11.19Z" fill="#5f546f"/><path d="M863.38,641.19c-2,1.52-3.92,3.14-5.78,4.82q-1.65,1.51-3.24,3.1c-.84.82-1.68,1.67-2.5,2.54-1.58,1.65-3.12,3.35-4.63,5.07L846,658.1c-24.32,2.76-67.11,6.48-105.87,4.14a144.13,144.13,0,0,0-43.46,3.81h0l-1.68.43-1.38.37c-1.29.35-2.56.72-3.8,1.1-3,.9-5.79,1.87-8.44,2.88l-2.66,1a192.05,192.05,0,0,0-23.58-9.46,202.92,202.92,0,0,0-32.26-7.77q-6.67-1.06-13.43-1.67c-2.9-.26-5.82-.47-8.74-.61a206.19,206.19,0,0,0-70.09,8.52c-3.09.94-6.17,2-9.21,3.06l.06-.3c.84-3.8,4.24-8,9-12.11,15.39-13.51,44.76-26.85,44.76-26.85l15.65-6.64h0l9.87-4.2,22.17-9.4,46.86-19.88.5-.21,10.85-4.6,9.92-4.22a79,79,0,0,1,21.09-2.64h2.74A17.74,17.74,0,0,1,717,573h1.28c1.69.09,3.38.23,5.09.4.6,0,1.2.12,1.81.19h.32l1.34.16c.56.06,1.12.14,1.68.22l1.67.24c1.12.17,2.24.35,3.37.55q2.52.45,5.09,1l2.51.54c2.56.56,5.13,1.19,7.71,1.87l2.4.66,1.61.46,2,.59c4.71,1.4,9.43,3,14.1,4.67l2.51.94,2.4.9.11,0c1.43.55,2.86,1.12,4.28,1.7,8.07,3.27,16,6.87,23.48,10.63l2.58,1.29,1.33.69c.89.45,1.76.91,2.64,1.37l2.61,1.38,1.28.69,1.28.7,1.26.69q4.42,2.43,8.56,4.87c.79.46,1.57.92,2.34,1.39l1.15.68c1.52.92,3,1.83,4.46,2.75.72.44,1.43.89,2.15,1.35l3.11,2,2,1.31,1,.66c.64.43,1.27.85,1.89,1.28l1.07.74c.71.48,1.41,1,2.08,1.45l1,.72.31.22,2.45,1.8h.05l1.5,1.14,1.46,1.13c1,.73,1.86,1.46,2.71,2.17l1.22,1,.59.5.58.5,1,.93.7.67c.26.23.49.45.71.67a33.72,33.72,0,0,1,2.49,2.72c.59.75,1.13,1.46,1.63,2.14Z" fill="#95b6f0"/><path d="M625.75,515.19a24.77,24.77,0,0,1-8.54,1.77c-20.33,1.5-61.32-6.34-61.32-6.34s-51.6,11.58-65.64-20.71,52-16.15,64.24-9.83c7.85,4,22.3,2.91,31.71,1.58,5.31-.76,9-1.58,9-1.58S638.73,508.87,625.75,515.19Z" fill="#c27099"/><path d="M682.25,457.27l-11.58,56.5-34.39,3-17.21,1.52c4.21-17.55-32.28-37.56-32.28-37.56,18.59-11.23,29.48-6,33.33-6.32a2.17,2.17,0,0,0,.76-.09c3.64-.54,7.26-2.7,6.27-7.62a17.7,17.7,0,0,1,1-9.84s6.67,1.76,3.51-8.77,1.05-23.17,1.05-23.17l2.46-3.16L639,409.83,654.82,426Z" fill="#4c4981"/><path d="M682.25,457.62l-11.58,56.51-34.39,3-17.21,1.53c4.21-17.56-32.28-37.57-32.28-37.57,18.59-11.23,29.48-6,33.33-6.31l.76-.1c3.64-.54,7.26-2.7,6.27-7.62a17.7,17.7,0,0,1,1-9.84s6.67,1.76,3.51-8.77,1.05-23.17,1.05-23.17l2.46-3.16,3.91-11.93,15.79,16.15Z" opacity="0.05" style="isolation:isolate"/><path d="M643.29,513.43c-1.69,1.22-3.34,2.34-4.91,3.39l-17.2,1.52c4.21-17.55-32.29-37.56-32.29-37.56,18.6-11.23,29.49-6,33.34-6.32a2.2,2.2,0,0,0,.76-.09c4.67,5.93,10.56,12.78,14,14.49C643.29,492,657,503.6,643.29,513.43Z" opacity="0.1" style="isolation:isolate"/><path d="M625.75,515.19a24.77,24.77,0,0,1-8.54,1.77c1.83-15-24.37-31.42-31-35.3,5.31-.76,9-1.58,9-1.58S638.73,508.87,625.75,515.19Z" opacity="0.1" style="isolation:isolate"/><path d="M641.19,513.43c-1.7,1.22-3.34,2.34-4.91,3.39l-17.21,1.52c4.21-17.55-32.28-37.56-32.28-37.56,18.59-11.23,29.48-6,33.33-6.32a2.17,2.17,0,0,0,.76-.09c4.68,5.93,10.56,12.78,14,14.49C641.19,492,654.87,503.6,641.19,513.43Z" fill="#4c4981"/><path d="M641.19,514.13q-2.55,1.83-4.91,3.39l-17.21,1.53c4.21-17.56-32.28-37.57-32.28-37.57,18.59-11.23,29.48-6,33.33-6.31a4.79,4.79,0,0,0,.76-.1c4.68,5.93,10.56,12.79,14,14.49C641.19,492.72,654.87,504.3,641.19,514.13Z" opacity="0.05" style="isolation:isolate"/><path d="M712.79,273s-66,92.31-60.72,75.46c3.47-11.09-6.14-42.83-13.11-63.26-3.63-10.61-6.55-18.17-6.55-18.17s37.91-32.65,37.21-25.28c-.18,1.92,2.65,5,7,8.41C688.79,259.93,712.79,273,712.79,273Z" fill="#c27099"/><path d="M676.56,250.19a50.24,50.24,0,0,1-37.62,35c-3.63-10.61-6.55-18.17-6.55-18.17s37.91-32.65,37.21-25.28C669.44,243.66,672.27,246.7,676.56,250.19Z" opacity="0.1" style="isolation:isolate"/><path d="M678.56,234a50.2,50.2,0,1,1-50.2-50.2h0a50,50,0,0,1,50.19,49.71Z" fill="#c27099"/><path d="M863.38,641.19c-2,1.52-3.92,3.14-5.78,4.82q-1.65,1.51-3.24,3.1c-.84.82-1.68,1.67-2.5,2.54a139.44,139.44,0,0,1-22.47-7.85h0c-5.83-2.61-10.7-5.61-13.4-8.61-9-9.87-38.62-35.56-97-43.32a271.8,271.8,0,0,0-42.39-2.15q-2.94.06-6,.19l-.91-5.37.5-.21,10.85-4.6,9.92-4.22a79,79,0,0,1,21.09-2.64h2.74a17.74,17.74,0,0,1,2.06.08h1.28c1.69.09,3.38.23,5.09.4.6,0,1.2.12,1.81.19h.32l1.34.16c.56.06,1.12.14,1.68.22l1.67.24c1.12.17,2.24.35,3.37.55q2.52.42,5.09,1l2.51.54c2.56.56,5.13,1.19,7.71,1.87l2.4.66,1.61.46,2,.59c4.71,1.4,9.43,3,14.1,4.67l2.51.94,2.4.9.11,0c1.43.55,2.86,1.12,4.28,1.7,8.07,3.27,16,6.87,23.48,10.63l2.58,1.29,1.33.69c.89.45,1.76.91,2.64,1.37l2.61,1.38,1.28.69,1.28.7,1.26.69q4.43,2.43,8.56,4.87c.79.46,1.57.92,2.34,1.39l1.15.68c1.52.93,3,1.83,4.46,2.75.72.44,1.43.89,2.15,1.35l3.11,2,2,1.31,1,.66c.64.43,1.27.85,1.89,1.28l1.07.74,2.09,1.63,1,.72.31.22,2.45,1.8h0l1.5,1.14,1.46,1.13c1,.74,1.86,1.47,2.71,2.17l1.22,1,.59.5.58.5,1,.93.7.67c.26.23.49.45.71.67a33.72,33.72,0,0,1,2.49,2.72c.59.75,1.13,1.46,1.63,2.14Z" opacity="0.1" style="isolation:isolate"/><path d="M857.76,588.9s5,32.2,9.37,49.61q-1.89,1.28-3.7,2.65h0c-2,1.52-3.92,3.14-5.78,4.82q-1.65,1.51-3.24,3.1A147.53,147.53,0,0,1,837.55,644c-9.14-3.4-17.62-7.67-21.51-11.93-8.84-9.68-37.5-34.59-93.69-42.86a270,270,0,0,0-43.83-2.65c-2.56,0-5.16.11-7.8.23l-.41-2.42-3.46-20.14-3.18-18.87v-.11l-.34-2.09V543l-.14-.86-.61-3.61L661,528.88l-.76-4.56s-.05-.52-.12-1.45v-1.31a4.29,4.29,0,0,0-.06-.79,1.73,1.73,0,0,1,0-.56l-.06-.63a.89.89,0,0,1,0-.23c0-.32-.06-.67-.09-1v-.06c-.06-.65-.13-1.34-.2-2.06,0-.45-.1-.92-.15-1.4-.2-1.85-.42-3.87-.67-6-.23-1.78-.47-3.62-.73-5.46-.07-.51-.14-1-.22-1.5a5.23,5.23,0,0,0-.13-.87h0a4.24,4.24,0,0,0-.11-.7c-.15-1-.31-1.9-.47-2.83a3.83,3.83,0,0,0-.1-.59c-.09-.48-.17-1-.26-1.42s-.22-1.12-.33-1.67v-.08a3.85,3.85,0,0,0-.15-.72c-.05-.25-.15-.67-.22-1-.13-.59-.26-1.17-.4-1.71l-.19-.73c-.09-.38-.2-.76-.31-1.12a17.34,17.34,0,0,0-2-5h0a3.11,3.11,0,0,0-.23-.28,1.42,1.42,0,0,0-.24-.25,5.54,5.54,0,0,1-.81-1c-.14-.2-.26-.4-.38-.61-.24-.44-.5-.92-.76-1.46,0-.06-.06-.13-.1-.2s-.2-.42-.29-.64c-4.86-10.91-11-38.57-11-38.57l-4-19.23h0l-.4-2.11-1.21-6.39v-.76h0l-.69-22.74s-.36-36.86,11.58-42.12l-.36-4.56s-9.29-2.75-10.34-6.94a3,3,0,0,1,.12-1.91h0a5.54,5.54,0,0,1,1.45-2c.17-.16.34-.32.49-.49a26.16,26.16,0,0,0,7.23-13.55s1.47-2.44,3.83-6.19c7.36-11.69,23.4-36.08,30.57-38.74a57.53,57.53,0,0,0,16.5-9.83l1.61.35h0c4.78,1,18.85,3.93,24.35,4.21,1.67.1,4.41,1.19,7.59,2.78a68.32,68.32,0,0,1,31,32.26c4.65,10,10.12,20.72,13,22.88a23.44,23.44,0,0,1,5,5.83c.93,1.43,1.82,3,2.62,4.44,2.37,4.38,4,8.34,4,8.34s22.82,15.44,20,30.53c0,0,4.92,16.85,9.83,21.77s16.15,44.23,16.15,44.23,4.21,7.37,3.86,13S837.36,471,837.36,471s.73,3.73,1.8,8c.36,1.46.76,3,1.18,4.44,1.07,3.66,2.26,6.93,3.34,7.88,2.8,2.45,1.4,7.72,1.4,7.72s3.51,9.13,5.27,11.58a5.81,5.81,0,0,1,.8,2.36,37.44,37.44,0,0,1-.1,8.53s-.15,1.22-.3,3c-.34,4.26-.61,11.8,1.36,14.51a7.41,7.41,0,0,1,1,2.65c1.23,5.7.19,16.4,2.83,18.76C859.16,563.26,857.76,588.9,857.76,588.9Z" fill="#4c4981"/><path d="M704,522.56s-2,4.72-4.91,11.69c-5.75,13.8-15,36.42-19,48.33-6,17.9-30.18,28.43-30.18,28.43S601.84,627.5,585,615.22s31.59-39.32,40.36-41.06,16.5-8.79,22.82-12.64c3-1.82,3.31-8.78,2.82-15.64a133,133,0,0,0-2.12-15.26Z" fill="#c27099"/><path d="M769.66,357.58s18.25-8.08,26,4.56S769.66,357.58,769.66,357.58Z" opacity="0.1" style="isolation:isolate"/><path d="M837.05,520.1s-126,1-102.14,17.2,27.38,23.86,55.11,16.14S837.05,520.1,837.05,520.1Z" opacity="0.1" style="isolation:isolate"/><path d="M678.56,234a50,50,0,0,1-6.72,25.09,15.55,15.55,0,0,1-5.17-3.29c-1.7-1.8-2.64-4.26-3.7-6.59a58,58,0,0,0-8.37-13.32c-2.38-2.83-5.44-5.55-8.91-5.21-5.84.56-10,9.54-15.59,7.64-1.7-.57-4.19-11.38-5.15-13.37-2.28-4.7-3.55-3.34-7.71-1.38-7.89,3.73-16.43,7-25.09,5.32a13.33,13.33,0,0,1-7.87-4.14,26.94,26.94,0,0,0-2.66-3.27,5.39,5.39,0,0,0-1.63-.93A50.2,50.2,0,0,1,678.56,234Z" opacity="0.1" style="isolation:isolate"/><path d="M631.16,237.3c5.61,1.89,9.76-7.08,15.6-7.65,3.46-.33,6.52,2.39,8.9,5.22A57.45,57.45,0,0,1,664,248.19c1.06,2.32,2,4.79,3.7,6.59a16.9,16.9,0,0,0,5.57,3.47l7.6,3.42c4.41,2,10,3.73,13.42,0,2.71-3,2.34-8,1.09-12s-3.22-8-3.12-12.22c.11-4.6,2.61-8.68,3.43-13.19,1.38-7.56-2.18-15.25-6.89-20.89s-10.58-9.91-15.42-15.41c-2.75-3.13-5.15-6.62-8-9.68A40.35,40.35,0,0,0,653,169a23.55,23.55,0,0,0-10.34-2.56c-4.4.07-8.61,1.84-12.78,3.43-6.28,2.4-12.75,4.44-19.39,4.66-8,.26-16.68-2-23.71,2.35-5,3.09-8,8.91-10.79,14.45l-6,11.84c-2.27,4.49-4.57,9-7.79,12.73s-7.52,6.5-12.13,6.59a17,17,0,0,0,18,1.68c2.4-1.24,4.55-3,7-4.13s5.47-1.33,7.57.46a24.51,24.51,0,0,1,2.66,3.27,13.26,13.26,0,0,0,7.87,4.13c8.66,1.65,17.21-1.59,25.1-5.31,4.15-2,5.43-3.32,7.7,1.38C627,225.92,629.46,236.73,631.16,237.3Z" fill="#63345e"/><path d="M704,522.56s-2,4.72-4.91,11.69c-2.35,1.16-4.84,2.44-7.23,3.68-6.4,3.33-12.08,6.38-12.08,6.38L651,545.88a133,133,0,0,0-2.12-15.26Z" opacity="0.1" style="isolation:isolate"/><path d="M751.41,383.9l-7,24.57s-7,14.74-3.5,28.79-2.11,35.45-2.11,35.45l-10.91,28.08s-13.69,28.78-16.15,28.78c-1.34,0-10.08,4.38-17.76,8.36-6.4,3.33-12.07,6.38-12.07,6.38l-32.3,1.76c-10.65-28-3.3-32.91,2-33.37a11.48,11.48,0,0,1,4,.38l7-44.23V441.47s2.11-26.32,6.67-34.75a79.57,79.57,0,0,0,6.66-17.53s-4.22-8.08-5.27-13.34a94.13,94.13,0,0,1-1.4-11.23s-4.92.7-6.32-39.32,28.43-50.89,28.43-50.89c35.81-10.88,56.52,19.3,70.9,41.07S751.41,383.9,751.41,383.9Z" opacity="0.1" style="isolation:isolate"/><path d="M747.19,381.8l-7,24.56s-7,14.75-3.51,28.79-2.1,35.45-2.1,35.45L723.7,498.68S710,527.46,707.56,527.46c-1.34,0-10.08,4.38-17.76,8.36-6.4,3.33-12.08,6.39-12.08,6.39l-14.4.78-3.15-18.69S658.32,500,655,488.4l3.43-21.65V439.37s2.11-26.33,6.67-34.75a79.31,79.31,0,0,0,6.66-17.56s-4.21-8.07-5.26-13.34a94.22,94.22,0,0,1-1.4-11.22s-4.92.69-6.32-39.33,28.43-50.89,28.43-50.89c35.8-10.88,56.52,19.3,70.9,41.07S747.19,381.8,747.19,381.8Z" opacity="0.1" style="isolation:isolate"/><path d="M749.3,381.8l-7,24.56s-7,14.75-3.51,28.79-2.11,35.45-2.11,35.45l-10.87,28.08s-13.69,28.78-16.16,28.78c-1.33,0-10.08,4.38-17.75,8.36-6.4,3.33-12.08,6.39-12.08,6.39L647.52,544c-10.64-28-3.29-32.9,2-33.37a11.48,11.48,0,0,1,4,.38l7-44.22V439.37s2.1-26.33,6.66-34.75a79.34,79.34,0,0,0,6.67-17.56s-4.21-8.07-5.27-13.34a94.22,94.22,0,0,1-1.4-11.22s-4.91.69-6.31-39.33,28.43-50.89,28.43-50.89c35.8-10.88,56.51,19.3,70.9,41.07S749.3,381.8,749.3,381.8Z" fill="#4c4981"/><path d="M692.93,534.77c-6.4,3.33-12.08,6.38-12.08,6.38l-32.29,1.76c-10.65-28-3.3-32.91,1.94-33.37,7.73,5.58,17.78,13.25,18.42,15.82S682.61,531.94,692.93,534.77Z" opacity="0.1" style="isolation:isolate"/><path d="M691.88,535.82c-6.4,3.33-12.08,6.39-12.08,6.39L647.5,544c-10.64-28-3.29-32.9,2-33.37,7.73,5.59,17.78,13.25,18.42,15.82S681.56,533,691.88,535.82Z" fill="#4c4981"/><g opacity="0.1"><path d="M696.08,255c-3.38,3.75-9,2-13.42,0l-7.6-3.42a16.8,16.8,0,0,1-5.57-3.47c-1.69-1.8-2.65-4.27-3.7-6.59a57.94,57.94,0,0,0-8.37-13.31c-2.38-2.83-5.45-5.55-8.91-5.22-5.84.57-10,9.54-15.6,7.65-1.69-.57-4.18-11.38-5.14-13.37-2.28-4.7-3.55-3.34-7.71-1.38-7.88,3.72-16.43,7-25.1,5.31a13.24,13.24,0,0,1-7.86-4.13,26.1,26.1,0,0,0-2.67-3.27c-2.1-1.79-5.1-1.55-7.56-.46s-4.6,2.89-7,4.13A16.79,16.79,0,0,1,559,219a15.17,15.17,0,0,1-8.88,3.49,17,17,0,0,0,18,1.68c2.4-1.24,4.55-3.05,7-4.13s5.47-1.33,7.57.46a24.51,24.51,0,0,1,2.66,3.27,13.26,13.26,0,0,0,7.87,4.13c8.66,1.65,17.21-1.59,25.1-5.31,4.15-2,5.43-3.32,7.7,1.38,1,2,3.45,12.8,5.15,13.37,5.61,1.89,9.76-7.08,15.6-7.65,3.46-.33,6.52,2.39,8.9,5.22A57.18,57.18,0,0,1,664,248.19c1.06,2.32,2,4.79,3.7,6.59a16.9,16.9,0,0,0,5.57,3.47l7.6,3.42c4.41,2,10,3.73,13.42,0a9.59,9.59,0,0,0,2-7A3.24,3.24,0,0,1,696.08,255Z"/><path d="M695.91,222.91a29.39,29.39,0,0,0-1.77,6.71,35.5,35.5,0,0,0,1.58-5.43C695.8,223.77,695.86,223.34,695.91,222.91Z"/></g><path d="M498.68,656.64s-6.32,16.85-18.61,17.2Z" opacity="0.1" style="isolation:isolate"/><path d="M505.07,622.65a107.65,107.65,0,0,0-8-14l-1.32-1.93h.88a4.33,4.33,0,0,0,3.05-1h0c7.78-6.51-8.15-44-16.79-44.62-5.94-.46-17.56-.9-25.4-1.16l-2.14-.07c-.08-.42-.17-.83-.27-1.26,0,0-9.87-2.47-14.8-7.77s-10.92-11.65-10.92-11.65-4.87-2-7.22-4.71a4.28,4.28,0,0,1-1.23-2.71c0-3.4-11.86-13.57-14.83-16.06l-.66-.56s-1.06-5.31-4.93-6.36c-1.6-.44-3.52-2.94-5.19-5.72a80.49,80.49,0,0,1-4.32-8.42s-4.86-5.68-8.73-11.23a48,48,0,0,1-2.84-4.44,12,12,0,0,1-1.81-4.49c-.35-4.94-6-5.3-6-5.3s-4.92-9.9-4.92-12.38-7.4-7.42-7.4-7.42l-11.62-13.08s3.17-9.19-8.1-16.26-12.68-27.23-12.68-27.23L317,371.34l-1-2.2a6.06,6.06,0,0,0,2.18-2.09,6.43,6.43,0,0,0,.63-5.34,23.81,23.81,0,0,0-3.58-7.46c-.1-.15-.2-.28-.29-.4-.62-.85-1.05-1.33-1.05-1.33a4.56,4.56,0,0,0,1.1-1c.08-.11.16-.21.24-.34.73-1.11,1.26-3,0-5.59a10.32,10.32,0,0,0-.64-1.18c-3.52-5.65-4.22-19.09-4.22-19.09l-8.46-23.69s-1.11-14.34-8.85-23.4a20.56,20.56,0,0,0-7.34-5.59,16.52,16.52,0,0,0-6.79-5.24l-.12,0c-.14-.87-.26-1.75-.37-2.61s-.17-1.43-.24-2.15a55.56,55.56,0,0,0,7.52.51,54.63,54.63,0,0,0,7.34-.49,55.24,55.24,0,0,0,22.17-8,56.33,56.33,0,0,0,24.89-34.42h0a56.88,56.88,0,0,0,1.58-13.32,55.27,55.27,0,0,0-1.16-11.4,3.69,3.69,0,0,0-.15-.72c-.29-1.38-.65-2.74-1.05-4.08-.09-.29-.19-.58-.27-.87a27.33,27.33,0,0,0,8,.92,4.76,4.76,0,0,0,2.65-.74,5.58,5.58,0,0,0,1.53-2.35c.48-1.16.95-2.36,1.34-3.58a2.76,2.76,0,0,0,.08-.27h0a24.43,24.43,0,0,0,.82-3.48,15.86,15.86,0,0,0,.18-2.92,11.12,11.12,0,0,0-.07-1.52,10.37,10.37,0,0,0-.37-2,1.46,1.46,0,0,1-.06.5,8.8,8.8,0,0,0-.54-1.4c-2.83-5.87-11-8.17-12.68-14.46-.81-3-.07-6.82-2.46-8.84a10.37,10.37,0,0,0-3.66-1.53c-5.23-1.67-9.32-5.68-13.85-8.79a28.17,28.17,0,0,0-4.79-2.62c-3.5-1.45-7.29-2-10.65-.4-.94.44-1.81,1-2.75,1.5A16,16,0,0,1,293,138.9c-2-.19-3.94-.56-5.86-.84-4.9-.75-10.64-.7-13.91,3-1.23,1.4-2,3.24-3.47,4.37-2.71,2.09-6.54,1.08-9.89.41s-7.71-.39-9,2.77a28.35,28.35,0,0,0-.7,3c-.77,2.72-3.33,4.58-6,5.47s-5.52,1-8.28,1.52a31,31,0,0,0-12.45,5.26,12.11,12.11,0,0,0-4,4.47,1,1,0,0,0-.13-.37,5.13,5.13,0,0,0-.39,2.39,4.77,4.77,0,0,0,.09,1.41,6.85,6.85,0,0,0,.32,1,13.62,13.62,0,0,1,.76,2.14,4.42,4.42,0,0,1,.11.89,6.52,6.52,0,0,1-1,3.41,10.11,10.11,0,0,1-.65,1,40.51,40.51,0,0,1-2.65,3.2,12.78,12.78,0,0,0-2.1,3.24l-.09-.07-.11-.16a6.62,6.62,0,0,0-.49,2.78,4.29,4.29,0,0,0,.36,2.12,3.68,3.68,0,0,0,.6.91c.86,1,2.15,1.46,3.2,2.22,2.91,2.13,3.55,6.16,3.72,9.77a83.12,83.12,0,0,1-.82,16v.15c-.31,2.08-1.15,5.94-1.41,9.78h0v1.73c0,3.06.41,5.95,2,7.68h0a4.72,4.72,0,0,0,1.57,1.16c1,.45,2.38.11,3.93-.61q-.93,2.34-1.93,4.63h0c-.11.27-.23.54-.34.8q-1.19,2.7-2.44,5.27a27.52,27.52,0,0,0-14.64,1.56s-2.12,16.26-9.16,18S165,293.7,165,293.7L127.9,331l-.92.92s-.93,1.3-2.45,3.52c-5.68,8.21-19.59,28.81-24.31,40-1.76,4.16-3.58,10.78-5.27,18.17-4,17.7-7.29,39.81-7,43.33h0c.3,4.27-1.49,43.85-.86,59.37a32.82,32.82,0,0,0,.5,5.33,44.84,44.84,0,0,1,.48,7.68c.06,5.1-.08,12-.3,19.47-.62,20.17-1.93,43.91-1.93,43.91s6,17.34,9.16,22.56c.58,1,1.07,1.53,1.4,1.48,2.11-.35,8.1,14.5,8.1,14.5s2.34-.09,6.4-.36l1.2-.09c.31.69.63,1.37,1,2.06s.68,1.4,1,2.11.65,1.35,1,2c4.08,8.21,8.66,16.06,11.59,16.87,6.34,1.77,23.6,10.61,25,14.5s25.21,7.9,35.42,7.9h5V658a10.15,10.15,0,0,0,9.92,9.3l7.71.12h.33l-.23,1.74-.05.37-.23,1.74-2.11,16h.72l21.11.34h2.22v-.67c1-.31,2.06-.6,3.09-.9l1.18-.33c19-5.45,38-10.63,57.18-12.11a128,128,0,0,1,19.19-.14c1,.07,2,.16,3,.25,20.62,2,40.65,9.25,60.67,15.37h2.43l6.35.06h1l20.31.19H408l.42-16.55v-2.12l6.68.12a10.09,10.09,0,0,0,7.8-3.5h0a10.06,10.06,0,0,0,2.25-4.52,10.4,10.4,0,0,0,.23-2.15v-1.49c1.86,2.94,3.65,8-.69,13.1h0a20.45,20.45,0,0,1-4.22,3.65c-6.43,4.31-9.25,7.3-10.4,9.26h0c-1.3,2.21-.51,3.11-.51,3.11h58.53c14.22-6.12,28-13.93,42.19-20l.15-.08h0l1-.41C514.72,660.19,516.63,636.64,505.07,622.65ZM267.88,444.87l.58-1.48,1.11-2.82c.12.17.25.36.36.54C280.93,457.29,291,472,291,472l1.85,2.08c-1,.12-2.07.24-3.14.34-3.78.4-7.68.76-9.27.76-3.53,0-13.38-2.47-13.38-2.47l-5.15-2.35a28.54,28.54,0,0,0-.95-6.43h0l-.24-.77,6.09-15.51ZM363.16,542c8.66,6.16,19.4,13.16,30.13,19.88l-4.9.11-26.05.61c-9.71-2.16-24-5.44-27.7-6.81-1.79-.67-9.59-2.8-19.43-5.4-6.86-1.81-14.71-3.86-22.17-5.78l-15.17-3.9a2.84,2.84,0,0,0-.62-1.19,29.23,29.23,0,0,1-4.17-7.56,47.67,47.67,0,0,1-2.17-7.29s-9-1-10.53-4c-.47-.86-.27-1.89,1-3.11a8.75,8.75,0,0,0,2.18-3h0a10.46,10.46,0,0,0,.53-1.64,13.69,13.69,0,0,0,0-5.26h0a17.32,17.32,0,0,0-.93-3.31,62.24,62.24,0,0,1,11.28,3.76c4.25,2,11.77,2.49,18.61,2.48,4.7,0,9.1-.26,11.85-.46h.48c1.58-.13,2.52-.23,2.52-.23s3,.53,7.32,1.07c2.76.32,6.08.66,9.54.86,1.32.09,2.66.15,4,.18l2.31,2.28.63.61c6.74,6.54,13.67,12.93,20.26,18.46,3.89,3.18,7.66,6.14,11.2,8.64Z" fill="url(#eaa07ddf-2b0c-4860-b68d-30f25dfee6ef)"/><polygon points="350.2 565.38 440.76 563.27 472.35 580.82 477.27 621.89 394.08 598.02 350.2 565.38" fill="#aea4b2"/><polygon points="350.2 565.38 440.76 563.27 472.35 580.82 477.27 621.89 394.08 598.02 350.2 565.38" opacity="0.05" style="isolation:isolate"/><path d="M297.56,502.19c1.05,0,9.48,10.53,9.48,10.53s31.94,5.62,39.66-1.4-15.14-30.54-15.14-30.54l-20.36,1.06-16.5,9.82Z" fill="#ffc4d0"/><path d="M250.86,468.85l15.45,7s9.83,2.46,13.34,2.46,18.25-1.76,18.25-1.76l13.34,5.27S299.3,504.28,307,512.7c0,0-24.22,2.46-33.35-1.75s-21.41-5.62-21.41-5.62Z" fill="#575989"/><path d="M253,469.19l15.44,7s9.83,2.46,13.34,2.46S300,476.89,300,476.89l13.33,5.3s-11.93,22.46-4.21,30.89c0,0-24.22,2.45-33.34-1.76s-21.42-5.62-21.42-5.62Z" opacity="0.05" style="isolation:isolate"/><path d="M286.31,302.82s-101.75-23.17-83.53-26.33c11.64-2,22.29-28.33,28.46-47.11,3.52-10.66,5.58-18.88,5.58-18.88S295.44,237.88,282.1,247c-5.12,3.51-5.69,12.54-4.44,22.34C279.65,285.1,286.31,302.82,286.31,302.82Z" fill="#ffc4d0"/><path d="M385.65,665.77l-.07,1.78h0l-.2,4.54-.09,2.1-.63,15v1.56h-6.22v0l-1.05,0v-1.16l-1.39-.43C356,683,336,675.78,315.33,673.79c-1-.09-2-.18-3-.25a128,128,0,0,0-19.19.14c-19.16,1.48-38.22,6.66-57.18,12.11l-1.18.33-3.09.9.25-15.35v-4.85h6.62l54.47-.38,22.17-.16Z" fill="#5f546f"/><path d="M239.28,661.9l-.71,4.9h0l-.41,2.89-.29,2.08h0l-2,14-1.18.33-3.09.9v.67h-2.22l-4.33,1.24h-17l.21-1.58,2.11-16h0l.28-2.09.56-4.17,27-3Z" opacity="0.1" style="isolation:isolate"/><path d="M238.23,661.9V662l-.69,4.79-.41,2.86-.29,2.11-2.16,14.41c-1,.3-2.06.59-3.09.9v.67h-2.22L225,689l-1,.28h0L207,689l2.33-17.61.25-2.2.22-1.75h0l.31-2.41Z" fill="#5f546f"/><polygon points="406.36 668.57 406.29 672.48 406.26 674.58 406.26 674.6 406.01 689.44 406.01 689.63 384.62 690.48 380.71 690.64 378.37 690.73 377.31 690.77 377.27 689.62 377.26 689.2 376.75 674.12 376.75 674.1 376.68 671.99 376.52 667.17 377.58 667.22 384.53 667.54 385.58 667.6 406.36 668.57" opacity="0.1" style="isolation:isolate"/><polygon points="407.41 668.57 407.35 672.5 407.31 674.6 406.94 689.45 406.89 691.04 384.6 690.83 381.27 690.81 381.25 690.81 378.37 690.77 378.37 690.73 378.33 689.93 378.31 689.21 377.8 674.12 377.74 672.01 377.58 667.22 377.58 667.17 385.58 667.54 407.41 668.57" fill="#5f546f"/><path d="M238.23,661.9V662l-.69,4.79-.41,2.86-.29,2.11-2.16,14.41c-1,.3-2.06.59-3.09.9v.67h-2.22L225,689l-1,.28h0L207,689l2.33-17.61.25-2.2.22-1.75h0l.31-2.41Z" fill="#fff" opacity="0.1" style="isolation:isolate"/><polygon points="407.41 668.57 407.35 672.5 407.31 674.6 406.94 689.45 406.89 691.04 384.6 690.83 381.27 690.81 381.25 690.81 378.37 690.77 378.37 690.73 378.33 689.93 378.31 689.21 377.8 674.12 377.74 672.01 377.58 667.22 377.58 667.17 385.58 667.54 407.41 668.57" fill="#fff" opacity="0.1" style="isolation:isolate"/><path d="M282.1,247c-5.12,3.51-5.69,12.54-4.44,22.34a55.85,55.85,0,0,1-46.42-40c3.52-10.66,5.58-18.88,5.58-18.88S295.44,237.88,282.1,247Z" opacity="0.1" style="isolation:isolate"/><path d="M340.72,211.91a55.75,55.75,0,1,1-2.35-16.08A55.76,55.76,0,0,1,340.72,211.91Z" fill="#ffc4d0"/><path d="M338.37,195.83c-4.46-1.11-8.89-2.66-13.46-2.7a4.38,4.38,0,0,0-3,.75c-1.31,1.11-1.12,3.12-1.27,4.83a9.88,9.88,0,0,1-5,7.7c-3.58,2-8.25,1.64-11.36,4.28-3.95,3.37-3.29,9.58-1.93,14.59a19,19,0,0,1,1,6.08,8.78,8.78,0,0,1-15.68,4.92c-2.82-3.59-2.44-8.63-3.19-13.12a24.69,24.69,0,0,0-6.92-13.42,13.36,13.36,0,0,0-6.08-3.73,7,7,0,0,0-6.69,1.73c-2.23,2.45-1.84,6.15-2.13,9.45a21.08,21.08,0,0,1-8.7,15.2c-4.69,3.33-10.51,4.56-15.91,6.55a8.91,8.91,0,0,0-1.54.78,55.82,55.82,0,1,1,96.83-55.57A56.42,56.42,0,0,1,338.37,195.83Z" opacity="0.1" style="isolation:isolate"/><path d="M237,237.89c5.41-2,11.22-3.22,15.92-6.55a21.13,21.13,0,0,0,8.7-15.21c.28-3.29-.08-7,2.16-9.45a7,7,0,0,1,6.68-1.72,13.28,13.28,0,0,1,6.11,3.73,24.79,24.79,0,0,1,6.94,13.41c.75,4.5.37,9.54,3.19,13.13a8.79,8.79,0,0,0,15.68-4.93,19.31,19.31,0,0,0-1-6.07c-1.36-5-2-11.22,1.93-14.59,3.1-2.64,7.78-2.32,11.36-4.28a9.92,9.92,0,0,0,5-7.71c.15-1.71-.05-3.72,1.26-4.82a4.5,4.5,0,0,1,3-.76c7.55.07,14.71,4.24,22.25,3.82a4.68,4.68,0,0,0,2.64-.75,5.37,5.37,0,0,0,1.53-2.33c2-4.64,3.57-10.05,1.38-14.59-2.82-5.82-11-8.1-12.64-14.35-.8-3-.07-6.77-2.46-8.77a10.27,10.27,0,0,0-3.64-1.53c-5.21-1.65-9.29-5.64-13.81-8.71s-10.43-5.32-15.38-3c-1,.44-1.81,1-2.75,1.49-4.45,2.15-9.69,1-14.58.23s-10.61-.68-13.87,3c-1.22,1.39-2,3.21-3.46,4.34-2.7,2.07-6.53,1.07-9.86.4s-7.68-.38-9,2.76a23.77,23.77,0,0,0-.71,3c-.76,2.69-3.31,4.54-6,5.42s-5.5,1-8.26,1.5a31.06,31.06,0,0,0-12.4,5.23c-2.59,1.85-5.11,4.73-4.43,7.84.24,1.09.85,2.06,1.08,3.15.69,3.2-2,6-4.16,8.46s-4,6.3-1.83,8.76c.86,1,2.15,1.44,3.2,2.2,2.89,2.12,3.53,6.12,3.7,9.71a81.55,81.55,0,0,1-.83,16c-.69,4.53-3.92,17.56,2.06,20.25C225.18,247.19,233.4,239.19,237,237.89Z" fill="#ae757a"/><path d="M275.43,483.24s-13,.7-11.93,5.62S275.43,483.24,275.43,483.24Z" fill="none"/><path d="M510.42,668.27h0l-.15.08c-14.24,6.12-28,13.93-42.19,20-1.26.54-2.52,1.07-3.8,1.59a111.59,111.59,0,0,1-27.58,7.66,103.09,103.09,0,0,1-29.4-.74c.32-3.88,1.08-9.49,2.87-11.62h0c1.57-1.86,4.35-4.35,9.19-7.58a17.59,17.59,0,0,0,5.43-5.33h0a9.83,9.83,0,0,0,.46-9.46,18,18,0,0,0-1-1.83,14.59,14.59,0,0,0-2.12-2.65H249.81s-40.71-.28-57.62-.35h-5.56c-10.18,0-34.06-3.86-35.46-7.72s-18.6-12.64-24.92-14.4c-3.16-.87-8.26-9.93-12.55-18.75-.69-1.4-1.35-2.79-2-4.15-.32-.67-.63-1.33-.92-2V611c-1.26-2.74-2.35-5.23-3.17-7.15l-.42-1c-.08-.19-.16-.37-.22-.54a5.92,5.92,0,0,0-.26-.59h0l-.23-.56c-.36-.85-.56-1.34-.56-1.34l156.9-60L275.26,543c.61.16,1.23.32,1.88.47l15.93,4.08c7.52,1.94,15.37,4,22.17,5.76,9.39,2.48,16.76,4.48,18.49,5.14,3.63,1.36,18,4.62,27.64,6.76h0c5.3,1.18,9.19,2,9.19,2s12.4,2.42,28.61,5.71l3.15.64,4.2.85c.84.16,1.69.34,2.54.52h0c2.88.58,5.81,1.18,8.77,1.8l6.36,1.32c6.8,1.41,13.54,2.84,19.78,4.21l4.84,1.06,1.87.41,1.85.41c7.18,1.62,13.17,3.06,17,4.13a26.65,26.65,0,0,1,3.86,1.42c8.46,3.83,15.65,11.85,20.88,19.25a107.73,107.73,0,0,1,9.29,15.78C514.56,637.87,513.38,659.59,510.42,668.27Z" fill="#aea4b2"/><path d="M244.56,581.19s-6.67,29.49-27.38,40S244.56,581.19,244.56,581.19Z" opacity="0.1" style="isolation:isolate"/><path d="M288.77,599.42s-22.46,13-19.3,22.47Z" opacity="0.1" style="isolation:isolate"/><path d="M491.31,636.63s-6.32,26.68-20,27Z" opacity="0.1" style="isolation:isolate"/><polygon points="407.41 668.57 407.32 674.6 385.3 674.25 377.8 674.12 236.82 671.78 231.84 671.7 209.32 671.32 210.15 665.06 238.23 661.9 237.53 666.81 385.66 665.77 385.58 667.55 407.41 668.57" opacity="0.1" style="isolation:isolate"/><path d="M414,672.62l-212.44-3.53a10.1,10.1,0,0,1-9.92-9.85l-.12-4.71H424.26v8a10.09,10.09,0,0,1-10.11,10.09Z" fill="#ccccd8"/><path d="M262.45,554.19s-8.08,6.32-11.94,11.58-24.95,14.7-24.95,14.7c-26.72,27.86-89.12,35-111.89,36.7-.69-1.4-1.35-2.79-2-4.15-3.35-7.17-5.82-13.24-5.82-13.24l156.9-60,12.43,3.16a24.72,24.72,0,0,0,2.31,3.51,2.8,2.8,0,0,1,.62,1.18C279.33,552.34,262.45,554.19,262.45,554.19Z" opacity="0.1" style="isolation:isolate"/><path d="M277.11,543.39c1.17,4.73-15.71,6.55-15.71,6.55s-8.08,6.31-11.94,11.58-24.9,14.74-24.9,14.74C197.47,604.5,133.68,611.44,111.74,613c-4.78.35-7.58.44-7.58.44s-6-14.74-8.07-14.39-10.53-23.88-10.53-23.88,3.51-63.18,1.75-70.56.7-59.32.36-64.23S94,393.4,100,379.32s26.66-43.13,26.66-43.13l38-37.93s25.62-21.42,32.64-23.17,9.12-17.9,9.12-17.9c16.85-7,36.86,7.72,36.86,7.72,17.55-.35,15.79,2.81,15.79,2.81l10.19,2.11.26,2.83L282.1,410.19l-15,38-7.16,18.19a28.72,28.72,0,0,1-.7,18.6c-3.86,9.83,2.8,21.41,2.8,21.41s4.21,8.79-1.4,14,9.48,7,9.48,7,1.76,9.13,6.32,14.75A3,3,0,0,1,277.11,543.39Z" fill="#575989"/><path d="M202.78,503.25s-7,13.34,5.61,15.44,45.28-1.4,49.49-1.4S202.78,503.25,202.78,503.25Z" opacity="0.1" style="isolation:isolate"/><path d="M201.37,458.67c1.76,3.16,39.67,35.1,52.65,40.72Z" opacity="0.1" style="isolation:isolate"/><path d="M228.4,436.19s19,34,25.27,39.32,1.05-19,1.05-19Z" opacity="0.1" style="isolation:isolate"/><path d="M175.05,339.33s48.08,31.24,46,53.35S175.05,339.33,175.05,339.33Z" opacity="0.1" style="isolation:isolate"/><path d="M118.18,440.07s-12.28,97.23,85.3,95.47C203.48,535.54,123.8,506.06,118.18,440.07Z" opacity="0.1" style="isolation:isolate"/><path d="M495.17,608.91c-14.05-.36-53.7-14.75-53.7-14.75l.23-1.09,6.43-30.88,8,.27c7.82.26,19.39.7,25.32,1.14C491,564.32,509.21,609.25,495.17,608.91Z" fill="#ffc4d0"/><path d="M269.38,272.66,282.1,410.19l-15,38c-11.68-17.08-24.88-36.32-28.57-41.48-7-9.83-21.41-57.91-21.41-57.91s-4.21-42.48,24.22-64.94C253.68,274.19,262.89,272,269.38,272.66Z" opacity="0.1" style="isolation:isolate"/><path d="M448.82,583.24a35.52,35.52,0,0,1-10.51,13S420,585.62,399.17,572.81C414.73,576,433.81,579.9,448.82,583.24Z" opacity="0.1" style="isolation:isolate"/><path d="M443.56,594.19l-1.87-1.09,6.44-30.91,8,.27C460.38,582.39,443.56,594.19,443.56,594.19Z" opacity="0.1" style="isolation:isolate"/><path d="M284.91,277.19s-11.93-17.9-40.35,4.57-24.22,64.94-24.22,64.94,14.39,48.08,21.41,57.91,48.43,70.58,48.43,70.58,43.52,49.49,71.95,69.5,79.33,49.5,79.33,49.5,17.55-12.29,12.29-33c0,0-9.83-2.45-14.74-7.72s-10.89-11.58-10.89-11.58-8.42-3.51-8.42-7.37S404.26,518,404.26,518s-1.06-5.27-4.92-6.32-9.48-14-9.48-14-13-15.09-13.33-20-6-5.26-6-5.26-4.92-9.83-4.92-12.29-7.37-7.37-7.37-7.37l-11.58-13s3.16-9.12-8.07-16.14-12.64-27-12.64-27l-10.88-23.52a6.17,6.17,0,0,0,2.81-7.37,24.7,24.7,0,0,0-4.92-9.13s4.22-2.45.7-8.07-4.21-18.95-4.21-18.95L301,306.08S299.3,283.51,284.91,277.19Z" fill="#575989"/><path d="M314.4,434.45S350.9,425,340,432.69,314.4,434.45,314.4,434.45Z" opacity="0.1" style="isolation:isolate"/><path d="M309.48,474.11s27.73-4.91,21.41,1.41S309.48,474.11,309.48,474.11Z" opacity="0.1" style="isolation:isolate"/><path d="M254.72,309.84s37.21,9.83,46,30.54Z" opacity="0.1" style="isolation:isolate"/><g opacity="0.1"><path d="M220.08,203.73c-.17-3.58-.81-7.59-3.7-9.7-1-.77-2.34-1.23-3.2-2.2l-.12-.16c-.69,1.8-.76,3.66.47,5.07.86,1,2.15,1.44,3.2,2.2,2.06,1.51,3,4,3.39,6.56C220.1,204.91,220.1,204.32,220.08,203.73Z"/><path d="M218.44,176.37a7.55,7.55,0,0,0,.44,1.29,5.25,5.25,0,0,0,.29-3.06,6.61,6.61,0,0,0-.43-1.3A5.29,5.29,0,0,0,218.44,176.37Z"/><path d="M352.25,179.12a29.26,29.26,0,0,1-2.34,8.08,5.35,5.35,0,0,1-1.52,2.33,4.75,4.75,0,0,1-2.64.74c-7.54.42-14.7-3.74-22.25-3.82a4.5,4.5,0,0,0-3,.76c-1.31,1.11-1.11,3.12-1.26,4.82a9.9,9.9,0,0,1-5,7.71c-3.58,2-8.26,1.64-11.36,4.28s-3.38,7.31-2.61,11.61a9.13,9.13,0,0,1,3-6.69c3.1-2.65,7.78-2.32,11.36-4.28a9.92,9.92,0,0,0,5-7.71c.15-1.71-.05-3.72,1.26-4.82a4.39,4.39,0,0,1,3-.76c7.55.07,14.71,4.24,22.25,3.82a4.68,4.68,0,0,0,2.64-.75,5.37,5.37,0,0,0,1.53-2.33C352,188,353.46,183.3,352.25,179.12Z"/><path d="M295.86,232.57a9,9,0,0,1-9.54-3c-2.82-3.59-2.44-8.62-3.19-13.13A24.86,24.86,0,0,0,276.19,203a13.39,13.39,0,0,0-6.09-3.73,7,7,0,0,0-6.68,1.73c-2.24,2.42-1.88,6.15-2.16,9.44a21.13,21.13,0,0,1-8.7,15.21c-4.7,3.33-10.51,4.56-15.92,6.56-3.59,1.33-11.81,9.3-15.33,7.71-1.76-.79-2.71-2.47-3.18-4.56-.15,4.18.53,8.13,3.53,9.48,3.52,1.58,11.74-6.39,15.33-7.72,5.41-2,11.22-3.22,15.92-6.56a21.11,21.11,0,0,0,8.7-15.2c.28-3.29-.08-7,2.16-9.45a7,7,0,0,1,6.68-1.72,13.28,13.28,0,0,1,6.09,3.72,24.79,24.79,0,0,1,6.94,13.42c.75,4.5.37,9.53,3.19,13.12a8.78,8.78,0,0,0,15.68-4.92,13.83,13.83,0,0,0-.47-4A9,9,0,0,1,295.86,232.57Z"/></g><path d="M57.77,439.94a9.45,9.45,0,0,0-1.21,2.34c-.08.2-.16.43-.23.66a1.69,1.69,0,0,0-.43-.15,5.86,5.86,0,0,0-2-.17v-.8c.08-2.87-.26-6.87-3-5.18s-.75,4.35.94,6.11l.44.43c-1.55,1.11-1.84,3.67-2.1,6.34s-2.53,5.61-4,7.27l-.42.47a5.5,5.5,0,0,0-4.39-1.13c-.06-.24-.13-.48-.2-.74-1.22-4.41-3.76-12.05-7-13.72l.42-.54c1.38-1.8,2.92-4.47.64-5.15s-2.49,2.32-2.36,4.56a3.47,3.47,0,0,0,.06.8,3.35,3.35,0,0,0-2.37,1.17l-.35-.42c-1.85-2.19-5.25-5.65-6.28-3-1,2.44,2,5.61,4.14,7.45l.13.11c-1.42,5.73,4.75,10.41,8.07,12.45l.43.26c-4.58,5.4-7.41,15.51-7.41,15.51l12.83,2.29s8.5-7.33,7.41-14.22h.09c8.49-1.7,10.42-10.76,9.1-16.14l.15-.06a9.45,9.45,0,0,0,3.93-3C65.19,440.42,60.21,436.7,57.77,439.94Z" fill="#f40010"/><path d="M57.77,439.94a9.45,9.45,0,0,0-1.21,2.34c-.08.2-.16.43-.23.66a1.69,1.69,0,0,0-.43-.15,5.86,5.86,0,0,0-2-.17v-.8c.08-2.87-.26-6.87-3-5.18s-.75,4.35.94,6.11l.44.43c-1.55,1.11-1.84,3.67-2.1,6.34s-2.53,5.61-4,7.27l-.42.47a5.5,5.5,0,0,0-4.39-1.13c-.06-.24-.13-.48-.2-.74-1.22-4.41-3.76-12.05-7-13.72l.42-.54c1.38-1.8,2.92-4.47.64-5.15s-2.49,2.32-2.36,4.56a3.47,3.47,0,0,0,.06.8,3.35,3.35,0,0,0-2.37,1.17l-.35-.42c-1.85-2.19-5.25-5.65-6.28-3-1,2.44,2,5.61,4.14,7.45l.13.11c-1.42,5.73,4.75,10.41,8.07,12.45l.43.26c-4.58,5.4-7.41,15.51-7.41,15.51l12.83,2.29s8.5-7.33,7.41-14.22h.09c8.49-1.7,10.42-10.76,9.1-16.14l.15-.06a9.45,9.45,0,0,0,3.93-3C65.19,440.42,60.21,436.7,57.77,439.94Z" opacity="0.1" style="isolation:isolate"/><path d="M32.24,443.64,30.75,448a21.19,21.19,0,0,1-1.89-1.51c-2.1-1.84-5.09-5-4.14-7.45,1-2.62,4.43.84,6.28,3C31.75,443,32.24,443.64,32.24,443.64Z" fill="#f40010"/><path d="M35.41,441.13A20.71,20.71,0,0,1,34,442.85a22.38,22.38,0,0,1-.27-2.31c-.12-2.24.11-5.23,2.36-4.56S36.78,439.33,35.41,441.13Z" fill="#f40010"/><path d="M54.74,441.82a18.72,18.72,0,0,1-.18,2.6,17.42,17.42,0,0,1-1.87-1.67c-1.7-1.76-3.57-4.48-.94-6.11S54.82,439,54.74,441.82Z" fill="#f40010"/><path d="M63.56,443.71a9.59,9.59,0,0,1-3.93,3,10.41,10.41,0,0,1-1.32.48l-1.75-2.5a16.74,16.74,0,0,1,.73-2.41,9.3,9.3,0,0,1,1.27-2.34C61,436.7,66,440.42,63.56,443.71Z" fill="#f40010"/><path d="M31,442.09c.75.87,1.24,1.55,1.24,1.55L30.75,448a21.19,21.19,0,0,1-1.89-1.51,8.62,8.62,0,0,1,1.7-3.86C30.7,442.45,30.86,442.26,31,442.09Z" opacity="0.1" style="isolation:isolate"/><path d="M35.41,441.13A20.71,20.71,0,0,1,34,442.85a22.38,22.38,0,0,1-.27-2.31A3,3,0,0,1,35.41,441.13Z" opacity="0.1" style="isolation:isolate"/><path d="M42.78,458.55l-3.73,1.64a21.74,21.74,0,0,1-2-1.12c-3.91-2.41-11.79-8.48-6.51-15.63s9.69,5.68,11.42,12C42.5,457.26,42.78,458.55,42.78,458.55Z" fill="#f40010"/><path d="M52.69,442.75a3,3,0,0,1,2.05-.93,18.72,18.72,0,0,1-.18,2.6A17.42,17.42,0,0,1,52.69,442.75Z" opacity="0.1" style="isolation:isolate"/><path d="M59.67,446.69a10.41,10.41,0,0,1-1.32.48l-1.79-2.48a16.74,16.74,0,0,1,.73-2.41C58.45,442.94,59.29,444.6,59.67,446.69Z" opacity="0.1" style="isolation:isolate"/><path d="M50.41,462.89l-.63.11c-12.5,1.9-4.12-4.84-4.12-4.84s.57-.52,1.33-1.37c1.51-1.66,3.77-4.57,4-7.27.4-4,.85-7.85,5.63-6.73S62.24,460.52,50.41,462.89Z" fill="#f40010"/><rect x="26.3" y="494.01" width="23.88" height="6.28" fill="#d4dfec"/><rect x="22.5" y="473.6" width="31.21" height="21.92" fill="#d4dfec"/><rect x="26.3" y="494.01" width="23.88" height="6.28" opacity="0.1" style="isolation:isolate"/><rect x="22.5" y="473.6" width="31.21" height="21.92" opacity="0.1" style="isolation:isolate"/><rect x="27.87" y="494.01" width="23.88" height="6.28" fill="#d4dfec"/><path d="M42,455.39c.53,1.87.81,3.16.81,3.16l-3.73,1.64a21.74,21.74,0,0,1-2-1.12A9.63,9.63,0,0,1,42,455.39Z" opacity="0.1" style="isolation:isolate"/><path d="M50.41,462.89l-.63.11c-12.5,1.9-4.12-4.84-4.12-4.84s.57-.52,1.33-1.37A8.29,8.29,0,0,1,50.41,462.89Z" opacity="0.1" style="isolation:isolate"/><path d="M30.09,474.84s7-25,16.81-17.33-4,19.62-4,19.62Z" fill="#f40010"/><circle cx="33.62" cy="447.37" r="0.79" opacity="0.1" style="isolation:isolate"/><circle cx="33.56" cy="451.03" r="0.79" opacity="0.1" style="isolation:isolate"/><circle cx="56.32" cy="448.09" r="0.79" opacity="0.1" style="isolation:isolate"/><circle cx="38.01" cy="466.86" r="0.79" opacity="0.1" style="isolation:isolate"/><circle cx="54.69" cy="454.17" r="0.79" opacity="0.1" style="isolation:isolate"/><circle cx="46.58" cy="462.28" r="0.79" opacity="0.1" style="isolation:isolate"/><circle cx="36.3" cy="448.94" r="0.79" opacity="0.1" style="isolation:isolate"/><circle cx="54.16" cy="450.44" r="0.79" opacity="0.1" style="isolation:isolate"/><circle cx="51.48" cy="456.52" r="0.79" opacity="0.1" style="isolation:isolate"/><circle cx="43.24" cy="466.27" r="0.79" opacity="0.1" style="isolation:isolate"/><circle cx="41.54" cy="462.41" r="0.79" opacity="0.1" style="isolation:isolate"/><circle cx="37.48" cy="453.71" r="0.79" opacity="0.1" style="isolation:isolate"/><rect x="27.87" y="494.01" width="23.88" height="2.29" opacity="0.1" style="isolation:isolate"/><rect x="24.07" y="473.6" width="31.21" height="21.92" fill="#d4dfec"/><circle cx="44.29" cy="469.8" r="0.79" opacity="0.1" style="isolation:isolate"/><circle cx="39.58" cy="470.79" r="0.79" opacity="0.1" style="isolation:isolate"/><path d="M966.4,358s7.84-23.41,28.48-14.8c0,0-9.59,20.92-27.44,18.54Z" fill="#f40010"/><path d="M963.17,334.56s8.7-23.48,29.31-13.1c0,0-12,21.6-28.31,16.67Z" fill="#f40010"/><path d="M962.24,313s11.63-23,28.31-19.8c0,0-12,24.36-27.65,24.87Z" fill="#f40010"/><path d="M962.74,292.24s13.09-27.86,26.4-23.51c0,0-9.38,21.38-26.61,28.12Z" fill="#f40010"/><path d="M965,267.65s11.79-23.07,25.43-22c0,0-9.16,23.08-26.1,28.34Z" fill="#f40010"/><path d="M966.83,244.73s13.8-22.8,22.8-22c0,0-8,23.3-22.52,26.11Z" fill="#f40010"/><path d="M969,223.44s10.24-25.48,19.48-26.31c0,0-4.53,21.44-18.89,28.43Z" fill="#f40010"/><path d="M969.84,195.3s9.72-20.11,17.44-22.17c0,0-5.24,24.61-16.56,27.58Z" fill="#f40010"/><path d="M969.84,176.72l4.38-37.35s9.15,30.1-4.4,44.06Z" fill="#f40010"/><path d="M965.09,138.19s-5.54-28.61-7.64-30.48c0,0,16.33,20.51,11,42.87Z" fill="#f40010"/><path d="M965.32,375.51q-7.35,5.16-14.46,10.67c-.93.71-1.86,1.44-2.78,2.19a32.09,32.09,0,0,1-8.82-2.76C948.56,372.6,959.25,373.47,965.32,375.51Z" fill="#f40010"/><path d="M966.56,358.59S951.5,339,934.81,353.91c0,0,15.9,16.64,32,8.55Z" fill="#f40010"/><path d="M964.26,334.13s-15.11-20-31.84-4.07c0,0,17.75,17.2,31.92,7.79Z" fill="#f40010"/><path d="M964.16,312.62S953.78,289,937,291.33c0,0,10.69,25,26.28,26.32Z" fill="#f40010"/><path d="M963.17,292.19s-9.63-29.23-23.38-26.52c0,0,6.74,22.36,23,31.13Z" fill="#f40010"/><path d="M966.15,266.42s-10.9-23.52-24.57-23c0,0,8.26,23.42,25,29.33Z" fill="#f40010"/><path d="M968.4,244.48s-7.3-25.62-16.2-27.2c0,0,1.63,24.59,14.85,31.11Z" fill="#f40010"/><path d="M969.47,223s-8.49-26.12-17.65-27.57c0,0,3.07,21.69,16.91,29.64Z" fill="#f40010"/><path d="M971.56,197.09s-6-21.47-13.26-24.9c0,0,.82,25.15,11.44,30.07Z" fill="#f40010"/><path d="M968.86,175.86l-15.64-34.2s.53,31.45,17.71,40.57Z" fill="#f40010"/><path d="M960,140s-21.2-20-21.66-22.77c0,0,8.58,24.77,30.32,32.25Z" fill="#f40010"/><path d="M959.74,132.42S936.56,102.07,929.56,101c0,0,22.29,4.47,31,30.08Z" fill="#f40010"/><path d="M970.7,200.93h-1c1-40.83-2.81-65.63-10.78-69.85l.47-.9C967.84,134.63,971.75,159.11,970.7,200.93Z" fill="#444053"/><path d="M963.56,297.82l-1.52-.1c.26-3.79.6-7.66,1-11.49,3.65-33.36,6.1-64.13,6.69-87.39l1-.94c-.58,23.3-2.55,55.09-6.21,88.5C964.14,290.19,963.8,294.05,963.56,297.82Z" fill="#444053"/><path d="M967.86,361.82q1.07,5.28,2.31,10.32l-2,1.4q-1.26-5.25-2.27-10.65c-.39-2.08-.74-4.18-1.08-6.28-.93-5.84-1.64-11.78-2.16-17.77-.1-1.09-.19-2.19-.26-3.29-.11-1.28-.19-2.55-.28-3.84v-.6c-.26-4.55-.42-9.13-.46-13.7,0-3.17,0-6.35.05-9.52.09-3.4.22-6.79.41-10.17a6.76,6.76,0,0,1,.09-1.34c.09-.45,0-.93.08-1.41v-.28l.37.25.33.21.75.52v.71q-.47,7.2-.53,14.12a7.37,7.37,0,0,0,0,.94v6.66q.1,6.63.57,13c0,.63.09,1.27.13,1.89a3.12,3.12,0,0,0,.05.68c.06.62.11,1.24.17,1.87l.21,2.32v.31q.95,9.6,2.58,18.58Q967.36,359.33,967.86,361.82Z" fill="#444053"/><path d="M1064.82,312.79l-2.27,1.53c-6.5,4.37-13.11,8.59-19.76,12.72v2a2.7,2.7,0,0,1-.4-.14l-.11-1.58-.1-1.69h0v-.57s.27-.44.75-1.16C1045.28,320.45,1053.35,310.43,1064.82,312.79Z" fill="#f40010"/><path d="M1043.79,301.44s13.34-21.18,31.38-6.78c0,0-16.22,18.66-31.14,10.49Z" fill="#f40010"/><path d="M1047.31,280.19s16.12-20.13,31.78-13.54c0,0-16.77,21.37-32.18,18.65Z" fill="#f40010"/><path d="M1052.08,259.94s18.54-24.57,30.68-17.57c0,0-13.59,19-31.84,22.05Z" fill="#f40010"/><path d="M1059.34,236.35s16.29-20.16,29.41-16.27c0,0-13.72,20.69-31.38,22.36Z" fill="#f40010"/><path d="M1065.86,214.29s18.19-19.46,26.83-16.81c0,0-12.67,21.14-27.41,20.91Z" fill="#f40010"/><path d="M1072.31,193.9s15.25-22.83,24.48-21.71c0,0-8.85,20-24.33,23.93Z" fill="#f40010"/><path d="M1079,166.54s13.66-17.63,21.62-18.11c0,0-10.18,23-21.88,23.59Z" fill="#f40010"/><path d="M1082.8,148.36l12-35.65s2.77,31.34-13.37,42.21Z" fill="#f40010"/><path d="M1086.08,109.7s.47-29.15-1.2-31.41c0,0,11.75,23.44,1.94,44.22Z" fill="#f40010"/><path d="M1009.89,346.48c4.48-4.1,8.72-6.21,12.57-7.06l-12.19,7.35Z" fill="#f40010"/><path d="M1042.16,325.65h0l-.3,1.94-.27,1.88c-.33.09-.66.17-1,.23a19.28,19.28,0,0,1-2.83.4c-15.36,1.15-25.75-15.58-25.75-15.58,15.47-8.88,25.42,3.47,28.81,8.83C1041.66,324.66,1042.09,325.54,1042.16,325.65Z" fill="#f40010"/><path d="M1044.94,301.25s-10.68-22.64-30.32-10.53c0,0,13.83,20.48,29.63,14.18Z" fill="#f40010"/><path d="M1049.27,280.19S1044,254.94,1027,253.76c0,0,5.33,26.63,20.31,31.16Z" fill="#f40010"/><path d="M1052.56,260s-3.42-30.59-17.42-30.76c0,0,2,23.26,16.13,35.2Z" fill="#f40010"/><path d="M1060.73,235.37s-5.83-25.25-19.32-27.5c0,0,3.26,24.61,18.42,33.84Z" fill="#f40010"/><path d="M1067.45,214.37s-1.88-26.58-10.26-30c0,0-3.46,24.4,8.13,33.5Z" fill="#f40010"/><path d="M1072.91,193.56S1070,166.25,1061.32,163c0,0-1.46,21.85,10.45,32.49Z" fill="#f40010"/><path d="M1080.29,168.64s-1.5-22.25-7.85-27.09c0,0-4.38,24.78,5,31.78Z" fill="#f40010"/><path d="M1082,147.31l-8.26-36.69s-6,30.89,9,43.36Z" fill="#f40010"/><path d="M1080.75,110.4s-16.62-23.94-16.5-26.75c0,0,3.3,26,23,37.8Z" fill="#f40010"/><path d="M1082,102.92S1065.56,68.45,1059,66c0,0,20.9,9,24.18,35.83Z" fill="#f40010"/><path d="M1078.66,172.19l-1-.23c9.4-39.74,10.76-64.81,3.82-70.58l.65-.78C1089.5,106.76,1088.3,131.51,1078.66,172.19Z" fill="#444053"/><path d="M1051.72,265.57l-1.47-.41c1-3.66,2.17-7.37,3.37-11,10.44-31.9,19.17-61.5,24.53-84.15l1.2-.7c-5.37,22.68-13.83,53.39-24.29,85.32C1053.87,258.25,1052.74,261.94,1051.72,265.57Z" fill="#444053"/><path d="M1052.32,263.5c-.07.23-.13.45-.19.68q-2,6.93-3.45,13.7c-.07.32-.13.64-.21,1q-.66,3-1.24,6a2.14,2.14,0,0,1-.08.44q-1.44,7.47-2.36,14.72a4.37,4.37,0,0,1-.1.7h0c-.18,1.39-.34,2.78-.49,4.17v.31c-.7,6.38-1.12,12.61-1.31,18.69,0,1,0,2.09-.07,3.12v2a2.7,2.7,0,0,1-.4-.14l-.11-1.58-.4.25-.27,1.88c-.33.09-.66.17-1,.23V328.3c0-1.65.12-3.31.2-5,.29-5.9.81-11.87,1.53-17.86.28-2.34.6-4.71.94-7.07h0q1-7.06,2.46-14.08c.62-3.12,1.29-6.2,2-9.29h0q1.15-5,2.49-9.89c.11-.43.24-.86.35-1.29h0c.14-.49.28-1,.4-1.46l.06-.17.3.32.28.28Z" fill="#444053"/></svg>