<svg id="bf37c559-3e19-4e69-85bb-68aad16a3c72" data-name="cb7db7bb-371f-430c-ab8e-9f8547f8cfe6"
  xmlns="http://www.w3.org/2000/svg" xmlns:xlink="http://www.w3.org/1999/xlink" viewBox="0 0 1130 868.1">
  <defs>
    <linearGradient id="ba8483c5-e1f8-4a8b-bc58-ae33ac8a9d67" x1="340.51" y1="-7.66" x2="340.51" y2="414.6"
      gradientTransform="matrix(1, 0, 0, -1, -35, 851.05)" gradientUnits="userSpaceOnUse">
      <stop offset="0" stop-color="gray" stop-opacity="0.25" />
      <stop offset="0.54" stop-color="gray" stop-opacity="0.12" />
      <stop offset="1" stop-color="gray" stop-opacity="0.1" />
    </linearGradient>
  </defs>
  <path
    d="M1108.14,197.66a231.26,231.26,0,0,0-44.83-60.38L441.45,132.1l512-60.79A337.27,337.27,0,0,0,849.57,53.89C800.28,20.24,736.93.05,667.83.05,605.83.05,548.5,16.34,501.76,44c-39.72-17.3-85-27.11-133.11-27.11-138.17,0-253.3,80.9-279.13,188.19Z"
    fill="#f40010" opacity="0.1" style="isolation:isolate" />
  <path
    d="M1130,287.64a196.9,196.9,0,0,0-19.38-84.92L32.86,298.36A209.63,209.63,0,0,0,7.61,352.27l333.75,42.06L0,425C10.27,546.45,133.43,642.35,283.88,642.35c75.73,0,144.54-24.3,195.53-63.93C530.56,618.8,600,643.63,676.58,643.63c113.57,0,211.6-54.67,257.25-133.71,91.58-24.58,162.72-86.28,187.07-163.47L698.83,291.11H1130Z"
    fill="#f40010" opacity="0.1" style="isolation:isolate" />
  <ellipse cx="499.98" cy="855.15" rx="289.98" ry="12.94" fill="#f40010" opacity="0.1" style="isolation:isolate" />
  <path d="M672.09,832.39v7.82H440.84v-6.35a76,76,0,0,0,5.23-140.37H670.52a76,76,0,0,0,1.57,138.9Z" fill="#c8cad7" />
  <path d="M670.52,693.49a76.1,76.1,0,0,0-42,50.39H488.08a76.1,76.1,0,0,0-42-50.39Z" opacity="0.1"
    style="isolation:isolate" />
  <path d="M176,653.65v43.9c0,24.24,17.74,43.89,39.63,43.89H896.05c21.89,0,39.63-19.65,39.63-43.89v-43.9Z"
    fill="#c8cad7" />
  <path d="M672.09,832.39v7.82H440.84v-6.35a75.8,75.8,0,0,0,17.83-9.5H657.91A76.54,76.54,0,0,0,672.09,832.39Z"
    opacity="0.1" style="isolation:isolate" />
  <rect x="364.42" y="826.8" width="384.09" height="23.17" rx="9.5" fill="#c8cad7" />
  <path d="M935.68,172.62a39.61,39.61,0,0,0-39.63-39.57H215.66A39.62,39.62,0,0,0,176,172.62V662.19H935.68Z"
    fill="#474157" />
  <path
    d="M915,190.3V611a19.5,19.5,0,0,1-19.49,19.51H216.27A19.5,19.5,0,0,1,196.76,611V190.3a19.5,19.5,0,0,1,19.51-19.51H895.44A19.5,19.5,0,0,1,915,190.25Z"
    fill="#4c4c78" />
  <circle cx="555.85" cy="151.89" r="9.15" fill="#fff" />
  <path d="M348.53,180.55V630.48H216.27A19.5,19.5,0,0,1,196.76,611V190.3l.71-2.65,1.9-7.1Z" fill="#fff" />
  <polygon points="365.5 187.65 365.5 228.15 196.76 228.15 196.76 190.3 197.47 187.65 365.5 187.65" fill="#4c4c78" />
  <path d="M915,190.3H196.76a19.5,19.5,0,0,1,19.5-19.5H895.44A19.5,19.5,0,0,1,915,190.24Z" fill="#c8cad7" />
  <circle cx="216.27" cy="180.55" r="4.88" fill="#ededf4" />
  <circle cx="230.9" cy="180.55" r="4.88" fill="#ededf4" />
  <circle cx="245.53" cy="180.55" r="4.88" fill="#ededf4" />
  <rect x="221.98" y="205.48" width="101.33" height="9.33" fill="#f40010" />
  <rect x="221.98" y="250.98" width="101.33" height="9.33" fill="#f40010" opacity="0.5" style="isolation:isolate" />
  <rect x="221.98" y="283.15" width="101.33" height="9.33" fill="#f40010" opacity="0.5" style="isolation:isolate" />
  <rect x="221.98" y="315.32" width="101.33" height="9.33" fill="#f40010" opacity="0.5" style="isolation:isolate" />
  <rect x="221.98" y="347.48" width="101.33" height="9.33" fill="#f40010" opacity="0.5" style="isolation:isolate" />
  <rect x="221.98" y="379.65" width="101.33" height="9.33" fill="#f40010" opacity="0.5" style="isolation:isolate" />
  <rect x="221.98" y="411.82" width="101.33" height="9.33" fill="#f40010" opacity="0.5" style="isolation:isolate" />
  <rect x="221.98" y="443.98" width="101.33" height="9.33" fill="#f40010" opacity="0.5" style="isolation:isolate" />
  <rect x="431.49" y="239.79" width="449.01" height="1.5" fill="#dce0ed" opacity="0.5" style="isolation:isolate" />
  <rect x="431.49" y="274.62" width="449.01" height="1.5" fill="#dce0ed" opacity="0.5" style="isolation:isolate" />
  <rect x="431.49" y="309.46" width="449.01" height="1.5" fill="#dce0ed" opacity="0.5" style="isolation:isolate" />
  <rect x="431.49" y="344.29" width="449.01" height="1.5" fill="#dce0ed" opacity="0.5" style="isolation:isolate" />
  <rect x="431.49" y="379.12" width="449.01" height="1.5" fill="#dce0ed" opacity="0.5" style="isolation:isolate" />
  <polygon
    points="880.51 380.61 430.94 380.61 430.94 312.11 472.17 332.43 514.84 338.21 552.28 326.92 597.45 291.89 620.17 278.77 636.78 275.57 652.67 276.42 678.81 289.33 714.33 311.96 742.21 315.55 764.32 307.93 811.17 269.55 835.09 261.02 860.12 264.89 880.51 276.66 880.51 380.61"
    fill="#f40010" opacity="0.5" style="isolation:isolate" />
  <path
    d="M509.3,338.23c-40.48,0-77.9-24.76-78.36-25.08l1.11-1.66c.58.39,58.16,38.49,107.09,19.4,17.86-6.95,30.54-17.78,42.86-28.24,12.83-10.93,25-21.26,41.46-25.74,19-5.13,39.65-.48,55.38,12.44,13.44,11,40.22,28.8,68.51,23.49,14.42-2.7,26.58-13.24,39.45-24.39,24.64-21.4,50.2-43.49,94.29-11.77l-1.17,1.62c-42.85-30.79-67.76-9.21-91.84,11.66-13.08,11.34-25.44,22-40.39,24.85-29.1,5.45-56.44-12.64-70.15-23.91-15.23-12.52-35.26-17-53.58-12-16.09,4.36-28,14.54-40.69,25.32-12.41,10.57-25.25,21.51-43.4,28.59A83.79,83.79,0,0,1,509.3,338.23Z"
    fill="#f40010" />
  <circle cx="647.55" cy="275.37" r="11.13" fill="#f40010" />
  <path
    d="M368.62,517.24c-15.21-8.76-21-10.93-21-10.94l-.31-.22a12.64,12.64,0,0,1-3.84-4.85v-.9c.25-4.64,3.54-8.85,6.67-12.53q4-4.71,8-9.41a9.17,9.17,0,0,0,2.06-3.34,7.49,7.49,0,0,0,.22-2v-.82c0-2.34-.11-4.68-.19-7-.08-2.05-.6-4.62-2.65-5-1.06-.22-2.46.16-3-.75a1.64,1.64,0,0,1-.14-1.21v0a28,28,0,0,0,.76-4.81,6.9,6.9,0,0,0-.33-2.43c-1.19-3.39-5.26-4.78-8.86-5.42s-7.64-1.19-9.9-4a33.2,33.2,0,0,0-2-2.71,7.92,7.92,0,0,0-3.69-1.82A20.73,20.73,0,0,0,317,438.23c-1.74.78-3.49,1.82-5.4,1.71s-3.68-1.5-5.64-1.83c-3.16-.54-6.19,1.79-7.75,4.54a10.9,10.9,0,0,0-1.43,5.35v.31h0a7.86,7.86,0,0,0,2.06,5.46c1.36,1.42,3.39,2.39,4,4.25.23.76.18,1.58.38,2.34a1.08,1.08,0,0,0,.09.29l-.11.13a23.75,23.75,0,0,0-5,14.62,24.26,24.26,0,0,0,17,23v.72a10.33,10.33,0,0,1-3.3,8.05l-21.58,8.66s-13-1.54-17.68,17.45a32.16,32.16,0,0,0-.8,9.63c.17,2.87-.23,7.91-3.56,14.43-5.33,10.44-4.12,34.39,6.78,36.76,10.29,2.24,14.32,1.31,14.74,1.2v.42c-.17,4.5-1.8,43.26-7.73,48-1.65,1.29-1.34,2.17,0,2.76v.7C281.93,650,281,660.81,277,667c-4.56,7.09-4,48.09-4,48.09l-3.14,24.19s1.93,14.94,0,17.55c-1.73,2.33-4,57.61-4.52,69.59h-.2a5.84,5.84,0,0,0-4.66,2.84C257.9,833.36,249,841,249,841c-1.93,2.75-9.09,5.38-12.87,6.62a7.85,7.85,0,0,0-1.46.63,7.68,7.68,0,0,0-3.25,3.42,3.64,3.64,0,0,0-.34,2.85c1,2.37,21.07,4,26.15,1.66,4-1.86,19.84-4.32,26.42-5.28a5.41,5.41,0,0,0,4.7-4.7,3.1,3.1,0,0,0-.6-2.35h0c-1.26-1.56-1.91-5.82-2.2-8.6a6.16,6.16,0,0,0,1.48-.88A63.16,63.16,0,0,1,290.66,809c4.84-12.8,6.3-36.52,5.09-51.94,0,0,14.77-63.57,26.4-69.5h0c.18.22,5.82,7.46,6.54,29.88.72,22.77,8.95,37.71,8.95,37.71s-3.63,38.66,0,53.13l-4.77,22.79a7,7,0,0,1-.57-.52s.14.64.34,1.65l-.1.48.2.05c.54,2.85,1.34,7.82,1,10.74-.19,1.67-.65,3.94-1,6.18-.5,3.51-.64,6.92,1.21,7.66,3,1.22,20.83,2.89,23.86-1a5.59,5.59,0,0,0,.88-5.86,6,6,0,0,0-.88-1.49s-4.73-7.73-3.39-13.18a4,4,0,0,0-.57-3.12A160.39,160.39,0,0,1,358,807.05c3-11.41,9.42-36.43,4.72-52.89h0c-.18-.64-.38-1.28-.6-1.9a70.94,70.94,0,0,1-2.67-27.75,56.39,56.39,0,0,1,0-24.19c2.88-13.27,4.91-26.27,4.91-26.27s1.6-17.55.2-28.31l-.09-.69.76-.17s-4.11-18.26-5.57-29.88c-.34-2.75-.79-6.22-1.28-9.93a25.68,25.68,0,0,0,3.95-1c13.08-4.51,17.19-45.31,17.19-45.31V545.82S383.88,526.05,368.62,517.24Zm-97.43,315-.64-.34h0Z"
    fill="url(#ba8483c5-e1f8-4a8b-bc58-ae33ac8a9d67)" />
  <path
    d="M360.73,752.65c5.67,16.31-1,42.78-4,54.6a165.51,165.51,0,0,0-4,26,55.14,55.14,0,0,1-20.8-.48l5-24.34c-3.54-14.42,0-52.95,0-52.95s-8-14.9-8.74-37.59c-.7-22.33-6.2-29.55-6.38-29.78h0C310.38,694.05,296,757.38,296,757.38c1.18,15.36-.24,39-5,51.77a64,64,0,0,0-3.55,25.29c-1.65,1.39-3.95,1.63-6.43,1.23-6.75-1.09-14.84-6.91-14.84-6.91s2.6-69,4.49-71.62,0-17.49,0-17.49l3.07-24.11s-.47-40.89,4-48c3.88-6.13,4.77-16.89,4.95-19.71v-.7l6.84-8.19s66.19-5,71.15,0c1.22,1.22,2,4,2.42,7.48,1.36,10.72-.2,28.21-.2,28.21s-2,13-4.82,26.23a57.3,57.3,0,0,0,0,24.11A72.15,72.15,0,0,0,360.73,752.65Z"
    fill="#65617d" />
  <path
    d="M356.59,856.3c-2.95,3.9-20.32,2.25-23.28,1-1.81-.75-1.67-4.14-1.18-7.64.31-2.23.76-4.5.94-6.15.48-4.26-1.41-12.89-1.41-12.89s3.9,4.14,4.84,0a4.49,4.49,0,0,1,3.37-3.2,8.84,8.84,0,0,1,6.14.38c3.07,1.33,8.19,4.17,7.27,8-1.3,5.43,3.31,13.13,3.31,13.13a5.94,5.94,0,0,1,0,7.37Z"
    fill="#a27772" />
  <path
    d="M356.59,856.3c-2.95,3.9-20.32,2.25-23.28,1-1.81-.75-1.67-4.14-1.18-7.64,1.86.87,5,1.6,10.32,1.11a28.9,28.9,0,0,1,3.72-.12,84.93,84.93,0,0,0,11.28-.22A5.67,5.67,0,0,1,356.59,856.3Z"
    opacity="0.1" style="isolation:isolate" />
  <path
    d="M296,757.38c1.18,15.36-.24,39-5,51.77a64,64,0,0,0-3.55,25.29c-1.65,1.39-3.95,1.63-6.43,1.23,1.43-10,7.5-52.93,11.4-86.86,4.43-38.65,25.17-65.24,25.17-65.24l4.14,4.55C310.38,694.05,296,757.38,296,757.38Z"
    opacity="0.1" style="isolation:isolate" />
  <path
    d="M349.5,509l-2.89,14.18-14.13,23.76-17.43-7.45s-23.7-24.82-8.81-28.36a13.14,13.14,0,0,0,4.95-2.2c2.92-2.21,3.84-5.41,3.86-8.55a26.29,26.29,0,0,0-2.42-10.17l30.49-9.57a48.46,48.46,0,0,0-2.19,12.35c-.23,8.3,2.85,12.4,5.38,14.35A9,9,0,0,0,349.5,509Z"
    fill="#fbbebe" />
  <path d="M343.12,480.59a48.46,48.46,0,0,0-2.19,12.35,24.1,24.1,0,0,1-25.88,7.39,26.29,26.29,0,0,0-2.42-10.17Z"
    opacity="0.1" style="isolation:isolate" />
  <path d="M346.61,476.69a24.11,24.11,0,1,1-24.11-24.11h0a24.05,24.05,0,0,1,24.11,24Z" fill="#fbbebe" />
  <path
    d="M349.5,509l-2.89,14.18-14.13,23.76-17.43-7.45s-23.7-24.82-8.81-28.36a13.14,13.14,0,0,0,4.95-2.2c-2.69,7.39,8.41,22.76,8.41,22.76,1.29,1.9,4.26.71,4.26.71,7.14-1.08,20.31-21.64,22.45-25.06A9,9,0,0,0,349.5,509Z"
    opacity="0.1" style="isolation:isolate" />
  <path
    d="M363.15,646.44c-4.2,1-27.42,6.09-36.22,4.81-9.69-1.42-28.54-2.36-28.54-2.36s-12,.64-15.68-1v-.7l6.84-8.19s66.19-5,71.15,0C362,640.18,362.7,643,363.15,646.44Z"
    opacity="0.1" style="isolation:isolate" />
  <path
    d="M319.6,532.35s-12.47-17.27-7.77-24L290.76,517s-12.68-1.54-17.25,17.38a33.06,33.06,0,0,0-.79,9.61c.17,2.85-.22,7.87-3.47,14.37-5.2,10.4-4,34.28,6.62,36.64s14.42,1.18,14.42,1.18-1.42,43.26-7.56,48.22,15.67,3.78,15.67,3.78,18.84,1,28.53,2.37,36.87-5,36.87-5-4-18.2-5.44-29.78-4.72-36.24-4.72-36.24l24.11-32.66s4.25-19.74-10.64-28.48-20.5-10.9-20.5-10.9-15,24.37-22.76,25.55C323.85,533.05,320.89,534.25,319.6,532.35Z"
    fill="#ff748e" />
  <path
    d="M291.94,539.21s-.23,7.8,1.19,10.87,6.61,20.09,6.61,20.09H287.93s6.38-6.85,5.91-10.16S291.94,539.21,291.94,539.21Z"
    opacity="0.1" style="isolation:isolate" />
  <path
    d="M326.93,598.05s-26.1-6.38-28.53-11.81-9.14-17.61-9.14-17.61l2.75-3.71,12.7,10s15.13,12,22.22,13.24S326.93,598.05,326.93,598.05Z"
    fill="#fbbebe" />
  <path
    d="M326.93,598.05s-26.1-6.38-28.53-11.81-9.14-17.61-9.14-17.61l2.75-3.71,12.7,10s15.13,12,22.22,13.24S326.93,598.05,326.93,598.05Z"
    opacity="0.05" style="isolation:isolate" />
  <path
    d="M349.5,567.34V581.5h-2.28a66.18,66.18,0,0,0-32.14,8.32l-4.26,2.36-1.15.64-7.33-16.5,6.86-6.15h.35c1.68.16,8.93.76,12-.27s6.55-4.14,15.14-1.94c4.24,1.08,7.85,5.83,12,4.35Z"
    fill="#fbbebe" />
  <path
    d="M372.31,541.57l4.73,5.32v12.88s-4,40.66-16.78,45.15-35.55-2.6-35.55-2.6-5.89-15.6-3.14-16.55,24.34-6.64,24.34-6.64-.31-23.85,4.42-30.94c0,0-3.07-22.22,7.56-22.69S372.31,541.57,372.31,541.57Z"
    opacity="0.1" style="isolation:isolate" />
  <path
    d="M373,541.57l4.73,5.32v12.88s-4,40.66-16.79,45.15-35.54-2.6-35.54-2.6-5.89-15.6-3.14-16.55,24.33-6.64,24.33-6.64-.3-23.85,4.43-30.94c0,0-3.08-22.22,7.56-22.69S373,541.57,373,541.57Z"
    fill="#ff748e" />
  <path
    d="M340,486.93a9.37,9.37,0,0,0-.54-4.6,3.52,3.52,0,0,0-3.74-2.16c-2,.47-2.9,3.1-4.88,3.73-1.67.53-3.5-.65-4.3-2.21a11.32,11.32,0,0,1-.82-5.14v-5.93c0-2.15-.07-4.47-1.4-6.16-1.65-2.1-5.52-3-8.1-2.93a6.88,6.88,0,0,0-4.63,1.86,6,6,0,0,1-4.87,1.74,4.22,4.22,0,0,1-3.39-2.94v-.08a24.11,24.11,0,0,1,38.46,29.09,24.78,24.78,0,0,1-2.6,2.91A66.54,66.54,0,0,0,340,486.93Z"
    opacity="0.1" style="isolation:isolate" />
  <path
    d="M306.71,464.42a4.25,4.25,0,0,1-3.4-2.94c-.19-.76-.14-1.58-.37-2.33-.55-1.86-2.53-2.83-3.86-4.24-2.66-2.82-2.49-7.47-.61-10.87C300,441.3,303,439,306,439.52c1.91.34,3.56,1.7,5.5,1.82s3.57-.92,5.27-1.7a19.84,19.84,0,0,1,13.06-1.16,7.56,7.56,0,0,1,3.6,1.81,30,30,0,0,1,1.92,2.7c2.2,2.81,6.15,3.36,9.66,4s7.49,2,8.64,5.41c.77,2.24,0,4.67-.41,7a2,2,0,0,0,.09,1.45c.55.91,1.92.53,3,.74,2,.42,2.5,3,2.57,5,.09,2.32.16,4.65.19,7a9,9,0,0,1-.2,2.59,9.12,9.12,0,0,1-2,3.25l-7.81,9.38c-3.46,4.16-7.13,9-6.44,14.37-1.64.73-3.58-.68-4.12-2.4s-.11-3.56.26-5.32a65.17,65.17,0,0,0,1.23-9.23,9.29,9.29,0,0,0-.54-4.61,3.53,3.53,0,0,0-3.75-2.16c-2,.47-2.89,3.1-4.87,3.73-1.67.54-3.5-.65-4.3-2.21a11.45,11.45,0,0,1-.82-5.14v-5.93c0-2.15-.07-4.47-1.4-6.16-1.64-2.1-5.52-3-8.1-2.93a6.88,6.88,0,0,0-4.63,1.86A6,6,0,0,1,306.71,464.42Z"
    fill="#7c5c5c" />
  <path d="M312.15,538.62l7.41,30.4S325.39,569,312.15,538.62Z" opacity="0.1" style="isolation:isolate" />
  <path d="M337.45,533.53s-9.7,15.88-5.91,32.29l1.8.13S330.12,558.35,337.45,533.53Z" opacity="0.1"
    style="isolation:isolate" />
  <path d="M343.59,623.36s11.9-3.94,12.77,5.2C356.36,628.56,354.11,622.29,343.59,623.36Z" opacity="0.1"
    style="isolation:isolate" />
  <path d="M309.2,570.88s-2.36,16.55,1.89,23.17a52,52,0,0,1-20.8,2.83l-1.42-26Z" opacity="0.1"
    style="isolation:isolate" />
  <path d="M310.82,592.18l-1.15.64-7.33-16.5,6.86-6.15h.35C309.44,571,307.53,585.18,310.82,592.18Z" opacity="0.1"
    style="isolation:isolate" />
  <path d="M309.2,570.17s-2.36,16.55,1.89,23.17a52,52,0,0,1-20.8,2.83l-8.27-26Z" fill="#ff748e" />
  <path
    d="M288.75,846.24a5.34,5.34,0,0,1-4.59,4.68c-6.41,1-21.88,3.4-25.78,5.26-5,2.37-24.58.71-25.53-1.65a3.73,3.73,0,0,1,.34-2.85,7.79,7.79,0,0,1,4.59-4c3.7-1.24,10.68-3.85,12.56-6.59,0,0,8.7-7.62,11.18-11.73a5.65,5.65,0,0,1,4.55-2.83c2.07-.1,4.37,1,5.32,5.48,0,0,11.34,6.47,14.41.8,0,0,.47,8.71,2.35,11.1h0A3.13,3.13,0,0,1,288.75,846.24Z"
    fill="#a27772" />
  <path
    d="M288.75,846.24a5.34,5.34,0,0,1-4.59,4.68c-6.41,1-21.88,3.4-25.78,5.26-5,2.37-24.58.71-25.53-1.65a3.73,3.73,0,0,1,.34-2.85,7.51,7.51,0,0,1,3.17-3.4c3.2,2.12,10.3,4.2,25.92,1.76,14.9-2.33,22.27-4.61,25.87-6.16h0A3.11,3.11,0,0,1,288.75,846.24Z"
    opacity="0.1" style="isolation:isolate" />
  <g opacity="0.1">
    <path d="M353.25,459.72v-.12a21.57,21.57,0,0,0,.73-5.36,33,33,0,0,1-.73,4.3A2.61,2.61,0,0,0,353.25,459.72Z" />
    <path
      d="M339.46,481.84a7,7,0,0,1,.58,2.7,8.07,8.07,0,0,0-.58-3.76,3.55,3.55,0,0,0-3.75-2.17c-2,.47-2.89,3.11-4.87,3.74-1.67.53-3.5-.66-4.3-2.22a11.16,11.16,0,0,1-.82-5.14v-5.92c0-2.15-.07-4.47-1.4-6.16-1.65-2.11-5.52-3-8.11-2.94a6.85,6.85,0,0,0-4.62,1.87,6,6,0,0,1-4.87,1.73,4.19,4.19,0,0,1-3.4-2.94c-.2-.76-.14-1.57-.37-2.33-.55-1.86-2.53-2.82-3.86-4.23a7.8,7.8,0,0,1-2-5,8.09,8.09,0,0,0,2,6.06c1.33,1.41,3.31,2.38,3.86,4.24.23.75.17,1.57.37,2.33a4.25,4.25,0,0,0,3.4,2.94,6,6,0,0,0,4.87-1.74,6.94,6.94,0,0,1,4.61-1.85c2.59-.08,6.46.84,8.11,2.94,1.33,1.69,1.39,4,1.4,6.16v5.92a11.07,11.07,0,0,0,.82,5.15c.8,1.56,2.63,2.74,4.3,2.21,2-.63,2.85-3.26,4.87-3.74A3.58,3.58,0,0,1,339.46,481.84Z" />
    <path
      d="M358.89,475.33a9.24,9.24,0,0,1-2,3.26q-3.92,4.68-7.81,9.37c-3.28,4-6.76,8.52-6.51,13.56.24-4.62,3.46-8.82,6.51-12.49l7.81-9.38a6.83,6.83,0,0,0,2.2-5.85A6.55,6.55,0,0,1,358.89,475.33Z" />
    <path
      d="M338.51,499.94a5.48,5.48,0,0,1-.24-1.27,6.33,6.33,0,0,0,.24,2.33c.53,1.72,2.48,3.13,4.12,2.4,0-.35-.07-.7-.08-1C340.93,503.05,339,501.62,338.51,499.94Z" />
  </g>
  <path d="M260,831.47s2.47,4.34,11.43.51" opacity="0.1" style="isolation:isolate" />
  <path d="M335.65,832.51s7.73,9.09,17.46,3" opacity="0.1" style="isolation:isolate" />
  <path d="M358.13,725s-5.46,3.41-5.64,5.36,2.82-1.42,2.82-1.42Z" opacity="0.1" style="isolation:isolate" />
  <path d="M360.28,751.13a11.33,11.33,0,0,1-6.72,2.62c-4.08.18-3.74,5.5-1.07,3.9S360.28,751.13,360.28,751.13Z"
    opacity="0.1" style="isolation:isolate" />
  <path d="M361.32,754.54s-2.62,12.86-4.75,10.38" opacity="0.1" style="isolation:isolate" />
  <g opacity="0.5">
    <rect x="471.17" y="458.65" width="66" height="14" fill="#dce0ed" />
    <rect x="622.72" y="458.65" width="66" height="14" fill="#dce0ed" />
    <rect x="774.27" y="458.65" width="66" height="14" fill="#dce0ed" />
  </g>
  <ellipse cx="952.73" cy="801.29" rx="26.93" ry="4.55" fill="#f40010" opacity="0.1" style="isolation:isolate" />
  <ellipse cx="115.22" cy="858.74" rx="26.93" ry="4.55" fill="#f40010" opacity="0.1" style="isolation:isolate" />
  <ellipse cx="893.79" cy="850.05" rx="40.21" ry="6.8" fill="#f40010" />
  <path
    d="M910.41,838.94a11.67,11.67,0,0,0,3.83-5.79c.5-2.3-.48-5-2.67-5.89-2.46-.94-5.09.76-7.09,2.49s-4.27,3.68-6.88,3.32a10.5,10.5,0,0,0,3.24-9.81,4,4,0,0,0-.9-2c-1.37-1.46-3.84-.84-5.48.31-5.2,3.66-6.65,10.72-6.68,17.08-.52-2.29-.08-4.68-.09-7s-.66-5-2.64-6.23a8,8,0,0,0-4-.94c-2.34-.09-4.95.14-6.54,1.85-2,2.13-1.47,5.69.25,8s4.36,3.8,6.77,5.42a15.12,15.12,0,0,1,4.84,4.61,5,5,0,0,1,.35.83h14.66A41,41,0,0,0,910.41,838.94Z"
    fill="#f40010" />
  <path d="M116.45,791.24s5.5,7.19-2.53,18-14.65,20-12,26.77c0,0,12.12-20.15,22-20.43S127.3,803.36,116.45,791.24Z"
    fill="#f40010" />
  <path
    d="M116.45,791.24a9.19,9.19,0,0,1,1.13,2.26c9.62,11.3,14.74,21.85,5.49,22.11-8.61.25-18.94,15.65-21.42,19.54a9.24,9.24,0,0,0,.29.89s12.12-20.15,22-20.43S127.3,803.36,116.45,791.24Z"
    opacity="0.1" style="isolation:isolate" />
  <path d="M126.66,800.4c0,2.53-.28,4.58-.63,4.58s-.63-2-.63-4.58.35-1.34.7-1.34S126.66,797.87,126.66,800.4Z"
    fill="#ffd037" />
  <path
    d="M130.17,803.42c-2.22,1.21-4.16,1.94-4.32,1.63s1.49-1.54,3.71-2.75,1.35-.33,1.51,0S132.39,802.21,130.17,803.42Z"
    fill="#ffd037" />
  <path d="M87.44,791.24s-5.5,7.19,2.53,18,14.65,20,12,26.77c0,0-12.11-20.15-22-20.43S76.59,803.36,87.44,791.24Z"
    fill="#f40010" />
  <path
    d="M87.44,791.24a9.19,9.19,0,0,0-1.13,2.26c-9.62,11.3-14.74,21.85-5.49,22.11,8.61.25,18.94,15.65,21.42,19.54a7.16,7.16,0,0,1-.3.89s-12.11-20.15-22-20.43S76.59,803.36,87.44,791.24Z"
    opacity="0.1" style="isolation:isolate" />
  <path d="M77.22,800.4c0,2.53.29,4.58.64,4.58s.63-2,.63-4.58-.35-1.34-.7-1.34S77.22,797.87,77.22,800.4Z"
    fill="#ffd037" />
  <path d="M73.72,803.42c2.22,1.21,4.15,1.94,4.32,1.63s-1.49-1.54-3.71-2.75-1.35-.33-1.52,0S71.5,802.21,73.72,803.42Z"
    fill="#ffd037" />
  <path
    d="M79,835.1s15.36-.48,20-3.77,23.63-7.24,24.78-2,23.08,26.29,5.74,26.43-40.29-2.7-44.91-5.51S79,835.1,79,835.1Z"
    fill="#a8a8a8" />
  <path
    d="M129.79,854c-17.34.14-40.3-2.7-44.92-5.51-3.51-2.15-4.92-9.84-5.38-13.38H79s1,12.38,5.6,15.2,27.57,5.65,44.91,5.51c5,0,6.73-1.82,6.64-4.46C135.42,853,133.51,853.94,129.79,854Z"
    opacity="0.2" style="isolation:isolate" />
  <path
    d="M466.5,556.42c0-20.44,16.63-36.14,37.08-36.14h.29V511h-.29c-25.58,0-46.38,19.87-46.38,45.44a46.26,46.26,0,0,0,15.89,34.9l6.59-6.59A37,37,0,0,1,466.5,556.42Z"
    fill="#f40010" />
  <path d="M504.8,511v9.3a37.07,37.07,0,1,1-24.19,65.37L474,592.25A46.36,46.36,0,1,0,504.78,511Z" fill="#f40010"
    opacity="0.5" style="isolation:isolate" />
  <path
    d="M808.8,519.81c20.44,0,36.14,16.63,36.14,37.08v.29h9.3v-.29c0-25.57-19.87-46.38-45.44-46.38a46.26,46.26,0,0,0-34.9,15.89l6.59,6.59A37,37,0,0,1,808.8,519.81Z"
    fill="#f40010" opacity="0.5" style="isolation:isolate" />
  <path d="M854.23,558.11h-9.3a37.07,37.07,0,1,1-65.37-24.19L773,527.33a46.36,46.36,0,1,0,81.26,30.78Z"
    fill="#f40010" />
  <path
    d="M674,513.71,672.15,523c13.61,5.49,22.31,18.83,22.31,34.38a37.07,37.07,0,1,1-51.93-34l-4.12-8.35a46.36,46.36,0,1,0,65.39,42.3C703.8,537.28,691.92,520.16,674,513.71Z"
    fill="#f40010" opacity="0.5" style="isolation:isolate" />
  <path
    d="M658.59,519.74a32.39,32.39,0,0,1,12.91,2.68l1.85-9.25a40.91,40.91,0,0,0-14.76-2.73,46.11,46.11,0,0,0-19,4.09l4.16,8.33A36.82,36.82,0,0,1,658.59,519.74Z"
    fill="#f40010" />
  <path id="bb6e350a-cdc1-4f32-b210-d89ccf4c9316" data-name="a984a27a-1d44-4be6-b319-64a55bff99f0"
    d="M555.81,676.86a22.66,22.66,0,0,0-3,45.12,29.87,29.87,0,0,1-3.09-7.07,66.87,66.87,0,0,1-2.11-9.19c-.05-.27-.17-1.31-.51-1.4s-.78.77-1,1a9.47,9.47,0,0,1-1.31.85,8.71,8.71,0,0,1-1,.58,3,3,0,0,1-1.46.39,5.66,5.66,0,0,1-2.58-.34,7.29,7.29,0,0,1-2-1.84l-1.11-1.21c-.29-.32-.65-.87-1.14-.71a.48.48,0,0,1-.51-.12.54.54,0,0,1-.08-.81,5.37,5.37,0,0,1,5.63-1.37,7.74,7.74,0,0,1,2.57,1.81,2.79,2.79,0,0,0,2.74.53c.31-.11,1-.35,1.07-.67a6.57,6.57,0,0,0-.13-1.91,24.43,24.43,0,0,1,.24-4.52s1.35-.17,1.6-.17v0a13.74,13.74,0,0,0,.61,2.33,1.79,1.79,0,0,0,.64.77,9.24,9.24,0,0,0,4.37.11c1-.51,1.7-3.14,1.71-3.21h1.94c0,.07.72,2.7,1.7,3.21a9.24,9.24,0,0,0,4.37-.11,1.79,1.79,0,0,0,.64-.77,13.74,13.74,0,0,0,.61-2.33,0,0,0,0,1,0,0c.28,0,1.36.16,1.69.21a19.44,19.44,0,0,1-.38,4.17,15.58,15.58,0,0,1-.44,1.79,2.54,2.54,0,0,0-.3,1.43,1.07,1.07,0,0,0,.52.76,2.2,2.2,0,0,0,2.32-.74,11,11,0,0,1,2-2.18c1.44-1.06,3.94-2,5.63-1a.55.55,0,0,1-.13,1c-.55.2-.58,1-.6,1.49a4,4,0,0,1-.38,1.85,4.41,4.41,0,0,1-3.09,1.89,7.05,7.05,0,0,1-4,0,5.55,5.55,0,0,0-1-.31,6.94,6.94,0,0,1-1-.19,3.05,3.05,0,0,1-1.15-.68c-.12.3-.23.61-.35.91-.75,2-1.45,4-2.06,6a47.7,47.7,0,0,0-1.6,7.37c-.09.68-.15,1.36-.2,2a22.66,22.66,0,0,0-5-44.77Zm11.91,16a1.28,1.28,0,0,1-1,.32c.06.37.15,1.24.15,1.24s-3.3-.12-4.51-.13c-1.56,0-3.13,0-4.69.09h-1.43c-1.57-.08-3.13-.11-4.7-.09-1.11,0-4.2.14-4.2.14s.29-1.24.45-1.79l-.72,0a.57.57,0,0,1-.52-.4c-.27-1.41.66-2.69,1.42-3.81a10.68,10.68,0,0,1,2.61-2.67,2.42,2.42,0,0,1,.46-2.5,4.13,4.13,0,0,1,1.77-1.19,5.6,5.6,0,0,1,.54-.17,11.51,11.51,0,0,0,2-.56,10.91,10.91,0,0,1-1.1-.93c-.53-.71.21-1.36.86-1.56a1.45,1.45,0,0,1,1.12,0c.37.2.82,1.19.86,1.26.51-.7,1.21-1.86,2.15-1.65s1.62,1.35,2,2.12a3.73,3.73,0,0,1,.27,1.83,4.68,4.68,0,0,1,3,1.81,1.93,1.93,0,0,1,.24,1,3.94,3.94,0,0,1-.35,1.42,5.37,5.37,0,0,1,3.52,4.41C568,691.54,568.08,692.43,567.72,692.85Z"
    fill="#fff" />
</svg>