<svg id="b39b5761-7463-4bdf-ad6e-d45410bbaf52" data-name="ffe6bee8-e793-4e33-a4ab-3e285c6a5a44"
  xmlns="http://www.w3.org/2000/svg" xmlns:xlink="http://www.w3.org/1999/xlink" viewBox="0 0 998.95 833.99">
  <defs>
    <linearGradient id="feaa4c53-7e4f-44be-8a3e-623b22122c86" x1="499.15" y1="-24.46" x2="499.15" y2="661.58"
      gradientTransform="matrix(1, 0, 0, -1, -100.52, 799.99)" gradientUnits="userSpaceOnUse">
      <stop offset="0" stop-color="gray" stop-opacity="0.25" />
      <stop offset="0.54" stop-color="gray" stop-opacity="0.12" />
      <stop offset="1" stop-color="gray" stop-opacity="0.1" />
    </linearGradient>
  </defs>
  <path
    d="M323.83,29.66C353,3.66,398.89-1.67,440.63.4,571.72,6.92,690.05,70.2,792.41,141.79,829.47,167.7,866,195.63,890,231.32c49,72.65,34.44,173.29-33.64,233.14-23.17,20.36-51.25,36-80.08,49.81-51.26,24.6-106.57,44.35-164.75,50-41.48,4-83.48.75-124.73-4.84-115.23-15.66-228.32-50.22-323.15-109.34C122.07,424.16,82.88,391.92,65.74,350S59.57,254.86,102,230c17.56-10.27,38.56-14.91,59.11-19.27,30.26-6.41,61-12.73,88.3-25.76,28.21-13.46,61.6-39.49,56-69.29C299.48,83.74,294.66,55.66,323.83,29.66Z"
    fill="#f40010" opacity="0.1" style="isolation:isolate" />
  <path d="M685,668.89S710,624.5,747.74,611.71a77.21,77.21,0,0,0,39.12-29.26,129.52,129.52,0,0,0,11.54-20.76"
    fill="none" stroke="#535461" stroke-miterlimit="10" stroke-width="2" />
  <path d="M822.14,553.48c-4.3,4.18-24.33,8.49-24.33,8.49s4.91-19.89,9.21-24.06a10.85,10.85,0,0,1,15.12,15.57Z"
    fill="#f40010" />
  <path d="M810.81,589.47c-5.88,1.17-25-6.09-25-6.09s14.94-14,20.81-15.2a10.85,10.85,0,1,1,4.23,21.29h0Z"
    fill="#f40010" />
  <path d="M769.56,628.41c-5.67-2-18.54-17.9-18.54-17.9s20-4.56,25.64-2.6A10.85,10.85,0,1,1,770,628.57l-.45-.16Z"
    fill="#f40010" />
  <path d="M731.71,650.85c-5.91-1-21.29-14.51-21.29-14.51s18.91-7.88,24.82-6.9a10.85,10.85,0,1,1-3.33,21.44l-.2,0Z"
    fill="#f40010" />
  <path d="M769.07,567.84c0,6,10.84,23.37,10.84,23.37s10.86-17.37,10.86-23.36a10.85,10.85,0,0,0-21.7,0Z"
    fill="#f40010" />
  <path d="M725.14,594.64c1.8,5.72,17.34,19.06,17.34,19.06s5.16-19.83,3.37-25.55a10.85,10.85,0,0,0-20.71,6.49Z"
    fill="#f40010" />
  <path d="M686,626.54c.8,5.94,13.87,21.72,13.87,21.72s8.44-18.67,7.64-24.61A10.85,10.85,0,0,0,686,626.54Z"
    fill="#f40010" />
  <path d="M822.14,553.48c-4.3,4.18-24.33,8.49-24.33,8.49s4.91-19.89,9.21-24.06a10.85,10.85,0,0,1,15.12,15.57Z"
    opacity="0.25" style="isolation:isolate" />
  <path d="M810.81,589.47c-5.88,1.17-25-6.09-25-6.09s14.94-14,20.81-15.2a10.85,10.85,0,1,1,4.23,21.29h0Z" opacity="0.25"
    style="isolation:isolate" />
  <path d="M769.56,628.41c-5.67-2-18.54-17.9-18.54-17.9s20-4.56,25.64-2.6A10.85,10.85,0,1,1,770,628.57l-.45-.16Z"
    opacity="0.25" style="isolation:isolate" />
  <path d="M731.71,650.85c-5.91-1-21.29-14.51-21.29-14.51s18.91-7.88,24.82-6.9a10.85,10.85,0,1,1-3.33,21.44l-.2,0Z"
    opacity="0.25" style="isolation:isolate" />
  <path d="M769.07,567.84c0,6,10.84,23.37,10.84,23.37s10.86-17.37,10.86-23.36a10.85,10.85,0,0,0-21.7,0Z" opacity="0.25"
    style="isolation:isolate" />
  <path d="M725.14,594.64c1.8,5.72,17.34,19.06,17.34,19.06s5.16-19.83,3.37-25.55a10.85,10.85,0,0,0-20.71,6.49Z"
    opacity="0.25" style="isolation:isolate" />
  <path d="M686,626.54c.8,5.94,13.87,21.72,13.87,21.72s8.44-18.67,7.64-24.61A10.85,10.85,0,0,0,686,626.54Z"
    opacity="0.25" style="isolation:isolate" />
  <path d="M686.39,668s4.92-50.74,34.24-77.72a77.21,77.21,0,0,0,23.9-42.61A128.73,128.73,0,0,0,746.67,524" fill="none"
    stroke="#535461" stroke-miterlimit="10" stroke-width="2" />
  <path d="M765,506.91c-2.24,5.56-18.8,17.62-18.8,17.62s-3.56-20.18-1.32-25.73a10.85,10.85,0,0,1,20.33,7.6Z"
    fill="#f40010" />
  <path d="M769.27,544.4c-4.9,3.45-25.36,4.57-25.36,4.57s8-18.87,12.87-22.32a10.85,10.85,0,0,1,12.49,17.75Z"
    fill="#f40010" />
  <path d="M747.34,596.72c-6,.5-24.2-8.86-24.2-8.86s16.41-12.26,22.34-12.77a10.85,10.85,0,0,1,1.82,21.63Z"
    fill="#f40010" />
  <path d="M721.83,632.57c-5.8,1.5-25.34-4.64-25.34-4.64s14.09-14.87,19.89-16.37a10.85,10.85,0,1,1,5.87,20.89l-.42.11Z"
    fill="#f40010" />
  <path d="M722.35,541.53c2.42,5.48,19.38,17,19.38,17s2.89-20.28.46-25.76a10.85,10.85,0,0,0-19.84,8.78Z"
    fill="#f40010" />
  <path d="M693.05,583.84c4,4.5,23.57,10.4,23.57,10.4s-3.31-20.22-7.27-24.72a10.85,10.85,0,0,0-16.55,14l.25.28Z"
    fill="#f40010" />
  <path d="M670.21,628.86c3.14,5.11,21.48,14.23,21.48,14.23s.15-20.48-3-25.59a10.85,10.85,0,1,0-18.49,11.36h0Z"
    fill="#f40010" />
  <ellipse cx="374.17" cy="814.05" rx="118.88" ry="19.93" fill="#f40010" opacity="0.1" style="isolation:isolate" />
  <ellipse cx="608.16" cy="661.06" rx="118.88" ry="19.93" fill="#f40010" opacity="0.1" style="isolation:isolate" />
  <polygon points="616.05 398.03 615.94 401.92 609.18 640.44 597.82 640.44 603.39 401.92 603.5 397.43 616.05 398.03"
    fill="#b77b7f" />
  <polygon points="681.82 600.09 673.31 600.07 546.87 599.8 540.13 599.79 543.72 588.73 680.92 588.73 681.82 600.09"
    fill="#dda2a6" />
  <polygon points="616.05 398.03 615.94 401.92 603.39 401.92 603.5 397.43 616.05 398.03" opacity="0.1"
    style="isolation:isolate" />
  <rect x="599.77" y="392.2" width="21.07" height="7.93" fill="#b77b7f" />
  <polygon points="547.99 588.73 546.87 599.8 540.13 599.79 543.72 588.73 547.99 588.73" opacity="0.1"
    style="isolation:isolate" />
  <polygon points="566.14 392.05 565.79 395.49 537.74 672.13 524.89 671.52 554.45 395.49 554.78 392.35 566.14 392.05"
    fill="#dda2a6" />
  <polygon points="681.82 600.09 673.31 600.07 672.16 588.73 680.92 588.73 681.82 600.09" opacity="0.1"
    style="isolation:isolate" />
  <polygon points="695.27 671.52 682.41 672.13 654.37 395.49 654.02 392.05 665.37 392.35 665.7 395.49 695.27 671.52"
    fill="#dda2a6" />
  <rect x="466.6" y="119.3" width="283.36" height="271.7" fill="#fff" />
  <path d="M613.81,28.43V94h-11V28.43a5.53,5.53,0,0,1,11-.47A3.69,3.69,0,0,1,613.81,28.43Z" fill="#dda2a6" />
  <rect x="602.75" y="88.07" width="11.06" height="5.97" opacity="0.1" style="isolation:isolate" />
  <path d="M618.15,92.55v21.66H598.48V92.55a2.68,2.68,0,0,1,2.67-2.69h14.33A2.69,2.69,0,0,1,618.15,92.55Z"
    fill="#dda2a6" />
  <circle cx="608.28" cy="103.61" r="4.18" opacity="0.1" style="isolation:isolate" />
  <circle cx="608.28" cy="102.71" r="4.18" fill="#b77b7f" />
  <rect x="598.42" y="111.53" width="19.73" height="2.69" opacity="0.1" style="isolation:isolate" />
  <rect x="590.35" y="115.12" width="35.87" height="5.98" opacity="0.1" style="isolation:isolate" />
  <rect x="590.35" y="113.32" width="35.87" height="5.98" fill="#dda2a6" />
  <path d="M535.72,384H686.37a6.5,6.5,0,0,1,6.5,6.5v1.42H529.22V390.5A6.5,6.5,0,0,1,535.72,384Z" opacity="0.1"
    style="isolation:isolate" />
  <polygon points="554.78 392.35 566.14 392.05 565.79 395.49 554.45 395.49 554.78 392.35" opacity="0.1"
    style="isolation:isolate" />
  <rect x="599.77" y="392.2" width="21.07" height="3.29" opacity="0.1" style="isolation:isolate" />
  <polygon points="665.7 395.49 654.37 395.49 654.02 392.05 665.37 392.35 665.7 395.49" opacity="0.1"
    style="isolation:isolate" />
  <path d="M535.72,385.77H686.37a6.5,6.5,0,0,1,6.5,6.5v1.42H529.22v-1.42A6.5,6.5,0,0,1,535.72,385.77Z" fill="#dda2a6" />
  <path
    d="M502.69,259.63c-2.27-1.2-27-19.88-27-19.88l-39.91-25.31s-.21-.6-.59-1.63c10.95-12.43,8.56-30.47-2.58-43.15-13.5-15.38-74.5-48.49-92.88-20.17-2.57,4-2.66,8.54-3.33,12.94-1.57,10.27-6.63,20.22-14.57,28.6-6.12,6.47-14.15,12.43-17.67,19.75a1.19,1.19,0,0,0-.1-.28,18.2,18.2,0,0,0-1.83,5c-1.75,8.93,4.25,17.49,7.44,26.18a47.27,47.27,0,0,1,2.32,9.08c.08-.62.15-1.23.22-1.85a58.06,58.06,0,0,1,.79,13.36c-22.15,4.51-22.16,42.4-22.16,42.4s-2.73,15.06-2.27,20.49.45,17.17.45,20-2.73,20.48-3,22.6v.09c-.4,2.32-4.55,13.5,5.48,16,.7.18,1.44.33,2.21.47.43,9.05,1.21,28,.52,32.22,0,0,3.65,25.46,6.68,31.93a74.38,74.38,0,0,0,6.7,10.82,11.87,11.87,0,0,1-1.54,4.39c-1.55,2.23-.75,4.06,1.84,4.85-.09.77-.19,1.64-.3,2.62-1.11,9.82-2.77,29.34.05,39.23,3.87,13.56,4.1,18.08,4.1,18.08s0,4.06,1.6,6.32,4.55,23.28,4.55,26.67,7.74,33.89,5.46,41.12-.45,17.4-.45,17.4-1.37,17.85-3,21.69-2.28,65.75.22,81.79,4.1,29.37,4.1,29.37-1.59,14.69-.23,16.72,3.87,14.24,2.05,14.91-2.73,5.65-2.73,5.65a51.06,51.06,0,0,0,3.11,4.23,16.81,16.81,0,0,1-2.05-.87c.72,1,1.8,2.42,3.13,4l-1.25,16.25a2.71,2.71,0,0,0,2,2.85,22.86,22.86,0,0,0,22.62-6.36c11.38-11.52,15.25-9.94,17.3-16.94.22-.75.41-1.49.57-2.19,1.47-6.24-5.18-10.88-10.47-8.22.73-4.94,1.3-10.55.75-13.72-1.14-6.55-.91-23.72-.91-23.72l-1.59-82.25s2.95-16.27,6.37-22.59,3-28.47,3-28.47l3.87-72.76,3.64-35.47s3.64-12.2,8.19,1.36c0,0-2.5,27.33-1.36,33.89s2.73,38.41,1.59,45.41-6.14,45.42-3,55.13,6.64,21.48,5.94,25.33-3,87.21-3,87.21,6.15,16,1.6,21.24-.23,26-.23,26,.55.39,1.49.93l-.13,1.73-1.43,18.69a2.73,2.73,0,0,0,2,2.86,22.86,22.86,0,0,0,22.62-6.36c11.38-11.53,15.25-9.94,17.3-16.95.22-.75.41-1.48.58-2.19,1.6-6.81-6.5-11.75-11.92-7.3l-.27.23a9.85,9.85,0,0,1-.89.67,3.46,3.46,0,0,1-.45.29c1.14-5.16,2.8-14,2-18.14-1.14-6.1,1.13-24.62,1.13-24.62s6.6-22.15,6.83-31l1.82-70.49s-.22-28.7.69-35.7,8.19-67.56,15.47-85.64c5.59-13.84,8.09-49.16,6.61-67.07-.08-.88-.16-1.73-.26-2.52,8.93-6.59,9.82-17.55,9.82-17.55S448,423.65,440.07,417s-9.59-18-9.31-22.88A11.9,11.9,0,0,0,428,386s-3.64-11.75-6.07-12.95a1.9,1.9,0,0,1-.53-.4c-1.65-1.77-.38-6.83-.38-6.83v-.16c.29-1.17,2-8.75,1.49-10.69-.61-2.1.3-12.05.3-12.05s5.77-17.17,4.86-30.73,11.84-12.35,11.84-12.35l39.37-.41h4.48A31.88,31.88,0,0,0,487.7,295c7.5-.89,22.67-3.72,24.37-12C514.38,272,505,260.84,502.69,259.63ZM320.29,385l.27-6.89c.93.8,1.55,1.31,1.55,1.31a10.76,10.76,0,0,1,.07,5.52,5.88,5.88,0,0,1-3.41,3.82,4.14,4.14,0,0,0-.55.29l-.38-3.89Zm142.8-121c-1.67-.75-7.29-.6-10.18-.6s-7.58-2.41-7.58-2.41c-1-2-6.53-3.11-11.45-3.77-3.74-9.22-9-18.21-9.71-27.82a7.38,7.38,0,0,0-.05-1l.57,1s22.92,14.62,25.5,19c2,3.34,11.63,10.8,16.09,14.14a4.59,4.59,0,0,1-2.45,1.64A1.36,1.36,0,0,1,463.09,264Z"
    fill="url(#feaa4c53-7e4f-44be-8a3e-623b22122c86)" />
  <path
    d="M425.24,798.21c-.17.7-.35,1.43-.57,2.17-2,7-5.83,5.38-17,16.81a22.39,22.39,0,0,1-22.27,6.32,2.7,2.7,0,0,1-2-2.84l1.41-18.54.67-8.92s17.84,5,26.92-1.35c.3-.21.6-.43.88-.67l.2-.2a7.29,7.29,0,0,1,11.76,7.22Z"
    fill="#67647e" />
  <path
    d="M369.24,791.21c-.17.7-.35,1.43-.57,2.17-2,7-5.83,5.38-17,16.81a22.39,22.39,0,0,1-22.27,6.32,2.7,2.7,0,0,1-2-2.84l1.41-18.54.67-8.92s17.84,5,26.92-1.35c.3-.21.6-.43.88-.67l.2-.2a7.29,7.29,0,0,1,11.76,7.22Z"
    fill="#67647e" />
  <path d="M350.81,794l.72,9.64c-10.24,10.23-22.43-5-26-10C334.92,798.47,350.81,794,350.81,794Z" opacity="0.1"
    style="isolation:isolate" />
  <path
    d="M411,797.91l1.34-.89c-9.35,14.22-23.24,7.66-27.57,5.11l.67-8.92s17.84,5,26.92-1.35C411.65,795.34,411,797.91,411,797.91Z"
    opacity="0.1" style="isolation:isolate" />
  <path
    d="M439.48,528.68c-7.18,17.93-14.35,78-15.25,85s-.67,35.42-.67,35.42L421.76,719c-.23,8.75-6.73,30.72-6.73,30.72s-2.24,18.38-1.12,24.43-2.91,22-2.91,22l1.34-.9c-11.21,17-28.92,4.26-28.92,4.26s-4.26-20.62.23-25.78-1.57-21.07-1.57-21.07,2.24-82.72,2.91-86.53-2.69-15.47-5.83-25.11,1.8-47.75,2.92-54.7-.45-38.56-1.57-45.06,1.34-33.63,1.34-33.63c-4.48-13.45-8.07-1.34-8.07-1.34l-3.59,35.19-3.81,72.19s.45,22-2.91,28.25-6.28,22.41-6.28,22.41l1.57,81.61s-.22,17,.9,23.53-2.47,23.32-2.47,23.32c-12.55,29.57-32.71-2.49-32.71-2.49s.9-4.93,2.69-5.6-.67-12.78-2-14.8.22-16.59.22-16.59-1.57-13.22-4-29.14-1.79-77.34-.22-81.15,2.91-21.52,2.91-21.52-1.79-10.09.45-17.27-5.38-37.43-5.38-40.8-2.91-24.21-4.48-26.45-1.57-6.28-1.57-6.28-.22-4.48-4-17.93c-2.78-9.82-1.14-29.18-.05-38.93.39-3.61.73-5.91.73-5.91s128.57-20.85,133.7-16.14c1.2,1.11,2,4.92,2.47,10.35C447.48,479.89,445,515,439.48,528.68Z"
    fill="#444053" />
  <path d="M390.82,629.48c.6,0,14.8,1.2,20,.15S390.82,629.48,390.82,629.48Z" opacity="0.1" style="isolation:isolate" />
  <path d="M391.87,637.85s19.61,3.44,20.61,1.65S391.87,637.85,391.87,637.85Z" opacity="0.1" style="isolation:isolate" />
  <path d="M331.94,634.26s10.16.45,15.69,3S331.94,634.26,331.94,634.26Z" opacity="0.1" style="isolation:isolate" />
  <path d="M295,382.89s1.64,31.23.75,36.76c0,0,3.58,25.26,6.57,31.68s9.42,14.5,9.42,14.5l8.82-62-2.1-21.24Z"
    fill="#efb7b9" />
  <circle cx="387.68" cy="206.09" r="34.52" fill="#efb7b9" />
  <path
    d="M369.75,222.22S359,243.3,348.23,253.16s64.56,21.07,66.35,21.07S401.13,229.4,403.82,224,369.75,222.22,369.75,222.22Z"
    fill="#efb7b9" />
  <path
    d="M446,462.13a22.67,22.67,0,0,1-5.54,3.1c-13.74,5.38-28.69,12.85-38.85,9.87s-31.68,0-31.68,0-43.35-3.59-52-1.5c-3.94.95-7,.91-9,.23.39-3.61.73-5.91.73-5.91s128.72-20.85,133.85-16.14C444.7,452.89,445.48,456.7,446,462.13Z"
    opacity="0.1" style="isolation:isolate" />
  <path
    d="M455.38,442.21s-1.19,15-14.95,20.33-28.69,12.85-38.85,9.87-31.68,0-31.68,0-43.35-3.59-52-1.5-13.16-.59-10.47-4.48,2.4-16.74,2.4-22.12-3-27.2-.31-31.09S314.6,394.39,320,392a5.85,5.85,0,0,0,3.36-3.79,10.9,10.9,0,0,0-.07-5.47s-.91-.75-2.16-1.86c-3.17-2.83-8.53-8.08-6.81-9.8,2.39-2.4,0-17.94,0-17.94s-5.68-11.95-3.58-16.43-18.24-28.1-18.24-28.1,0-40.64,24.51-42.44c0,0,17.34.6,19.43-7.17s15.84-12.26,15.84-12.26l31.39,6.88s27.79,6,32.88,2.39,9,4.78,9,4.78,17.33.9,19.12,4.49S439,303.82,439,303.82s-12.56-1.19-11.66,12.26-4.84,30.49-4.84,30.49-.9,9.86-.3,11.95c.56,1.93-1.18,9.45-1.46,10.61v.15s-1.25,5,.37,6.78a2,2,0,0,0,.52.4c2.4,1.19,6,12.85,6,12.85a11.83,11.83,0,0,1,2.69,8.07c-.29,4.79,1.5,16.14,9.27,22.72S455.38,442.21,455.38,442.21Z"
    fill="#a36468" />
  <path
    d="M322.07,373v1.27l-.54,14s-18.39,1.49-28.4-1-5.8-13.6-5.4-15.9v-.09c.29-2.1,3-19.58,3-22.42s0-14.5-.45-19.88,2.2-20.37,2.2-20.37l1.94-2.38,21.06,8.07Z"
    fill="#a36468" />
  <path d="M322,374.29l-.54,14s-18.39,1.49-28.4-1-5.8-13.6-5.4-15.9Z" opacity="0.1" style="isolation:isolate" />
  <path
    d="M323.34,388.21a10.9,10.9,0,0,0-.07-5.47s-.91-.75-2.16-1.86c15.83-2.21,78.52-10.81,99.63-11.75v.15s-1.25,5,.37,6.78Z"
    opacity="0.1" style="isolation:isolate" />
  <path d="M423.1,399s3.89,22-10.61,29.74C412.48,428.77,420.71,417.86,423.1,399Z" opacity="0.1"
    style="isolation:isolate" />
  <path d="M328.2,429.36s35-6,41.85-1.34S328.2,429.36,328.2,429.36Z" opacity="0.1" style="isolation:isolate" />
  <path d="M411,293.21s-5.38,22.12-1.35,27.2S411,293.21,411,293.21Z" opacity="0.1" style="isolation:isolate" />
  <path d="M309.67,275.13s4.93,8.22,1.94,16.74S309.67,275.13,309.67,275.13Z" opacity="0.1" style="isolation:isolate" />
  <path d="M299.48,347.17s6.28,3.73,4.19,9.56S299.48,347.17,299.48,347.17Z" opacity="0.1" style="isolation:isolate" />
  <path d="M298.91,330.13s5.82,3.14,6.57,7.77S298.91,330.13,298.91,330.13Z" opacity="0.1" style="isolation:isolate" />
  <path d="M385.29,508.87s36.62,3.74,43.94-4.93C429.23,504,396.2,510.52,385.29,508.87Z" opacity="0.1"
    style="isolation:isolate" />
  <path d="M322.07,506.78s39.31,9.27,47.08,1.94C369.15,508.72,335.37,511.26,322.07,506.78Z" opacity="0.1"
    style="isolation:isolate" />
  <path d="M388.13,521s16.44,0,24.06.45S388.13,521,388.13,521Z" opacity="0.1" style="isolation:isolate" />
  <path d="M324.76,528s8.07,9.12,17.19,7.48S324.76,528,324.76,528Z" opacity="0.1" style="isolation:isolate" />
  <path
    d="M340.61,154.64c-2.53,3.93-2.62,8.48-3.28,12.84-1.54,10.19-6.53,20.06-14.34,28.38-7.17,7.62-17,14.53-18.86,23.84-1.76,8.84,4.21,17.35,7.34,26,8.25,22.69-3.27,46.49-6.63,69.91-.93,6.47.19,14.74,8.16,16.89,2.49.68,5.34.59,7.58,1.67,3,1.44,3.92,4.43,4.47,7.12a108.59,108.59,0,0,1,2.06,29.28c-.36,5.5-.76,11.83,4.44,15.61,2.36,1.73,5.54,2.61,8.61,3.44,8.19,2.21,18.78,4,24.3-1.19,2.32-2.17,3.19-5.23,6.08-6.95,4.33-2.57,10.47-.83,15.92-.56,11.19.56,21.47-6,25.88-13.91s4-17,2.4-25.53-4.46-17-4.66-25.66c-.07-3,.2-6.05,1.92-8.71,3.33-5.15,11.08-7.49,16.38-11.54,9.93-7.6,9.9-20.05,6.29-30.47s-10.09-20.41-10.89-31.18a11.86,11.86,0,0,1,1.47-7.53c1.42-2.19,3.9-3.83,6-5.64,14.49-12.24,12.78-32.34.8-46.1C418.79,159.4,358.71,126.55,340.61,154.64Z"
    fill="#e3787d" />
  <g opacity="0.1">
    <path
      d="M313.31,255.12c1.13-9.09.92-18.1-2.29-27-1.58-4.34-3.87-8.65-5.54-13a18.93,18.93,0,0,0-1.8,5c-1.76,8.84,4.21,17.35,7.34,26A47.6,47.6,0,0,1,313.31,255.12Z" />
    <path
      d="M326.66,353a109,109,0,0,0-2.05-29.28c-.56-2.69-1.48-5.67-4.48-7.11-2.24-1.08-5.09-1-7.58-1.67a10.34,10.34,0,0,1-7-5.78c-.46,2.28-.86,4.55-1.19,6.83-.93,6.47.19,14.74,8.16,16.89,2.49.67,5.34.58,7.58,1.66,3,1.44,3.92,4.43,4.48,7.12a110,110,0,0,1,1.92,13.52C326.57,354.48,326.61,353.76,326.66,353Z" />
    <path
      d="M411.9,349.49C407.48,357.43,397.2,364,386,363.4c-5.45-.28-11.59-2-15.91.56-2.89,1.71-3.77,4.78-6.09,7-5.52,5.15-16.11,3.4-24.3,1.19-3.07-.84-6.24-1.71-8.61-3.44a10.81,10.81,0,0,1-4.25-6.9c.06,3.07,0,6.15-.19,9.22-.36,5.5-.76,11.83,4.44,15.62,2.37,1.72,5.54,2.6,8.61,3.43,8.19,2.21,18.78,4,24.3-1.19,2.32-2.17,3.2-5.23,6.09-7,4.32-2.57,10.46-.83,15.91-.56,11.19.56,21.47-6,25.89-13.91,4.24-7.64,4.05-16.28,2.57-24.53A26.87,26.87,0,0,1,411.9,349.49Z" />
    <path
      d="M430.84,203.27c-2.14,1.8-4.62,3.45-6,5.64a11.86,11.86,0,0,0-1.47,7.53,39.92,39.92,0,0,0,2.06,9.6,39.72,39.72,0,0,1,5.45-4.84c9.8-8.27,12.18-20.14,9-31.22A28.6,28.6,0,0,1,430.84,203.27Z" />
    <path
      d="M427.93,278c-5.29,4-13.05,6.4-16.37,11.55-1.73,2.66-2,5.73-1.93,8.7a59.61,59.61,0,0,0,1.28,10.4,10.26,10.26,0,0,1,.65-1.17c3.32-5.15,11.08-7.49,16.37-11.54,9.07-6.94,9.83-17.92,7.15-27.71A20.77,20.77,0,0,1,427.93,278Z" />
  </g>
  <path
    d="M482.28,299.34s25.86-1.34,28.1-12.25-7-22-9.26-23.17-26.64-19.73-26.64-19.73l-39.3-25.1s-18.83-54-23-33.33,12.11,48.12,12.11,48.12,22.56,14.5,25.1,18.83,18.09,15.69,18.09,15.69Z"
    fill="#efb7b9" />
  <path
    d="M496.18,281.7c-6.12,15.55-14.05,21.68-14.05,21.68h-4.41l-38.77.4-4.47-12.21,6.28-26.46,3.88.16s4.64,2.39,7.47,2.39,8.38-.15,10,.59a1.23,1.23,0,0,0,.73.11c1.47-.15,3-2.35,3-2.35S502.31,266.16,496.18,281.7Z"
    fill="#a36468" />
  <path
    d="M496.18,281.7c-6.12,15.55-14.05,21.68-14.05,21.68h-4.41c2.3-6.16,7.15-18.8,9-21.72,1.81-2.76-14.43-9.63-23.93-13.34,1.47-.15,3-2.35,3-2.35S502.31,266.16,496.18,281.7Z"
    opacity="0.1" style="isolation:isolate" />
  <ellipse cx="90.82" cy="763.14" rx="44.18" ry="8.64" fill="#f40010" opacity="0.1" style="isolation:isolate" />
  <ellipse cx="827.28" cy="706.15" rx="32.18" ry="6.29" fill="#f40010" opacity="0.1" style="isolation:isolate" />
  <ellipse cx="966.77" cy="731.64" rx="32.18" ry="6.29" fill="#f40010" opacity="0.1" style="isolation:isolate" />
  <ellipse cx="750.78" cy="784.14" rx="32.18" ry="6.29" fill="#f40010" opacity="0.1" style="isolation:isolate" />
  <path
    d="M132.57,523.3s7.24,9.47-3.34,23.75-19.29,26.34-15.75,35.25c0,0,16-26.53,28.94-26.9S146.86,539.26,132.57,523.3Z"
    fill="#f40010" />
  <path
    d="M132.57,523.3a11.81,11.81,0,0,1,1.48,3c12.67,14.89,19.42,28.78,7.24,29.13-11.34.32-24.95,20.61-28.21,25.73a8,8,0,0,0,.39,1.17s15.95-26.53,28.94-26.9S146.86,539.26,132.57,523.3Z"
    opacity="0.1" style="isolation:isolate" />
  <path d="M146,535.36c0,3.33-.37,6-.83,6s-.84-2.7-.84-6,.47-1.76.93-1.76S146,532,146,535.36Z" fill="#ffd037" />
  <path d="M150.64,539.34c-2.92,1.59-5.47,2.56-5.69,2.15s2-2,4.89-3.62,1.77-.43,2,0S153.56,537.74,150.64,539.34Z"
    fill="#ffd037" />
  <path d="M94.36,523.3s-7.24,9.47,3.34,23.75S117,573.39,113.48,582.3c0,0-16-26.53-29-26.9S80.07,539.26,94.36,523.3Z"
    fill="#f40010" />
  <path
    d="M94.36,523.3a11.81,11.81,0,0,0-1.48,3c-12.67,14.89-19.42,28.78-7.24,29.13,11.34.32,25,20.61,28.21,25.73a11.41,11.41,0,0,1-.38,1.17s-16-26.53-29-26.9S80.07,539.26,94.36,523.3Z"
    opacity="0.1" style="isolation:isolate" />
  <path d="M80.91,535.36c0,3.33.37,6,.83,6s.84-2.7.84-6-.47-1.76-.93-1.76S80.91,532,80.91,535.36Z" fill="#ffd037" />
  <path d="M76.29,539.34c2.93,1.59,5.47,2.56,5.7,2.15s-2-2-4.9-3.62-1.77-.43-2,0S73.37,537.74,76.29,539.34Z"
    fill="#ffd037" />
  <ellipse cx="113.46" cy="643.07" rx="75.65" ry="11.61" fill="#f40010" opacity="0.1" style="isolation:isolate" />
  <path
    d="M152.4,569.55l-.36,3-.51,4.17-.21,1.74-.51,4.18-.22,1.74-.51,4.17L144.3,636c-.52,4.24-7.44,7.54-15.8,7.54h-30c-8.36,0-15.27-3.3-15.79-7.54L76.9,588.54l-.51-4.17-.21-1.74-.52-4.18-.21-1.74-.51-4.17-.36-3c-.29-2.4,3.45-4.42,8.18-4.42h61.52C149,565.13,152.7,567.15,152.4,569.55Z"
    fill="#65617d" />
  <polygon points="152.03 572.5 151.53 576.68 75.39 576.68 74.89 572.5 152.03 572.5" fill="#9d9cb5" />
  <polygon points="151.31 578.42 150.81 582.59 76.12 582.59 75.61 578.42 151.31 578.42" fill="#9d9cb5" />
  <polygon points="150.59 584.33 150.08 588.5 76.84 588.5 76.33 584.33 150.59 584.33" fill="#9d9cb5" />
  <circle cx="179.99" cy="124.52" r="31.5" fill="#f40010" opacity="0.1" style="isolation:isolate" />
  <circle cx="113.99" cy="49.52" r="19.5" transform="translate(52.33 157.43) rotate(-83.74)" fill="#f40010"
    opacity="0.1" style="isolation:isolate" />
  <circle cx="12" cy="93.02" r="12" fill="#f40010" opacity="0.1" style="isolation:isolate" />
</svg>