<svg xmlns="http://www.w3.org/2000/svg" xmlns:xlink="http://www.w3.org/1999/xlink" viewBox="0 0 1400 750">
  <defs>
    <linearGradient id="f47520b1-b9db-4ae4-a8a7-da411df60569" x1="650" y1="30" x2="705" y2="615" gradientUnits="userSpaceOnUse">
      <stop offset="0.10" stop-color="#f40010"/>
      <stop offset="1" stop-color="#ff892a"/>
    </linearGradient>
  </defs>
  <polygon points="0 0 1400 0 1400 450 600 350 0 550 0 0" fill="url(#f47520b1-b9db-4ae4-a8a7-da411df60569)"/>
  <polygon points="0 300 600 350 1400 300 1400 450 600 350 0 550 0 300" fill="#fff" opacity="0.06">
    <animate attributeName="points" repeatCount="indefinite" dur="36000ms" keyTimes="0; 0.5; 1" values="0 300 600 350 1400 300 1400 450 600 350 0 550 0 300;0 250 600 350 1400 400 1400 450 600 350 0 550 0 300; 0 300 600 350 1400 300 1400 450 600 350 0 550 0 300" calcMode="paced" />
  </polygon>
  <polygon points="0 150 600 350 1400 150 1400 450 600 350 0 550 0 150" fill="#fff" opacity="0.06">
    <animate attributeName="points" repeatCount="indefinite" dur="36000ms" keyTimes="0; 0.5; 1" values="0 150 600 350 1400 150 1400 450 600 350 0 550 0 150;0 250 600 350 1400 50 1400 450 600 350 0 550 0 150;0 150 600 350 1400 150 1400 450 600 350 0 550 0 150" calcMode="paced" />
  </polygon>
  <polygon points="0 0 200 0 600 350 1200 0 1400 0 1400 450 600 350 0 550 0 0" fill="#fff" opacity="0.06">
    <animate attributeName="points" repeatCount="indefinite" dur="36000ms" keyTimes="0; 0.5; 1" values="0 0 200 0 600 350 1200 0 1400 0 1400 450 600 350 0 550 0 0; 0 0 300 0 600 350 1300 0 1400 0 1400 450 600 350 0 550 0 0; 0 0 200 0 600 350 1200 0 1400 0 1400 450 600 350 0 550 0 0" calcMode="paced" />
  </polygon>
</svg>
