<svg id="be65b1ae-1dbc-487f-887e-f26e2580b90f" data-name="b6c6e6a1-7972-47e7-be8d-743e88a832d8" xmlns="http://www.w3.org/2000/svg" xmlns:xlink="http://www.w3.org/1999/xlink" viewBox="0 0 948.37 758"><defs><clipPath id="e646809a-148c-440d-b02b-9da26865c829"><rect x="407" y="207" width="111.88" height="223.76" fill="none"/></clipPath></defs><rect x="193.87" y="130" width="86" height="26" rx="7.43" fill="#f40010" opacity="0.1" style="isolation:isolate"/><rect x="283.87" y="156" width="86" height="26" rx="7.43" fill="#f40010" opacity="0.1" style="isolation:isolate"/><rect x="373.87" y="182" width="86" height="26" rx="7.43" fill="#f40010" opacity="0.1" style="isolation:isolate"/><rect x="193.87" y="91" width="86" height="26" rx="7.43" fill="#f40010" opacity="0.1" style="isolation:isolate"/><rect x="283.87" y="117" width="86" height="26" rx="7.43" fill="#f40010" opacity="0.1" style="isolation:isolate"/><rect x="373.87" y="143" width="86" height="26" rx="7.43" fill="#f40010" opacity="0.1" style="isolation:isolate"/><rect x="473.87" y="130" width="86" height="26" rx="7.43" fill="#f40010" opacity="0.1" style="isolation:isolate"/><rect x="563.87" y="156" width="86" height="26" rx="7.43" fill="#f40010" opacity="0.1" style="isolation:isolate"/><rect x="653.87" y="182" width="86" height="26" rx="7.43" fill="#f40010" opacity="0.1" style="isolation:isolate"/><rect x="473.87" y="91" width="86" height="26" rx="7.43" fill="#f40010" opacity="0.1" style="isolation:isolate"/><rect x="563.87" y="117" width="86" height="26" rx="7.43" fill="#f40010" opacity="0.1" style="isolation:isolate"/><rect x="653.87" y="143" width="86" height="26" rx="7.43" fill="#f40010" opacity="0.1" style="isolation:isolate"/><rect x="193.87" y="39" width="86" height="26" rx="7.43" fill="#f40010" opacity="0.1" style="isolation:isolate"/><rect x="283.87" y="65" width="86" height="26" rx="7.43" fill="#f40010" opacity="0.1" style="isolation:isolate"/><rect x="373.87" y="91" width="86" height="26" rx="7.43" fill="#f40010" opacity="0.1" style="isolation:isolate"/><rect x="193.87" width="86" height="26" rx="7.43" fill="#f40010" opacity="0.1" style="isolation:isolate"/><rect x="283.87" y="26" width="86" height="26" rx="7.43" fill="#f40010" opacity="0.1" style="isolation:isolate"/><rect x="373.87" y="52" width="86" height="26" rx="7.43" fill="#f40010" opacity="0.1" style="isolation:isolate"/><rect x="473.87" y="39" width="86" height="26" rx="7.43" fill="#f40010" opacity="0.1" style="isolation:isolate"/><rect x="563.87" y="65" width="86" height="26" rx="7.43" fill="#f40010" opacity="0.1" style="isolation:isolate"/><rect x="653.87" y="91" width="86" height="26" rx="7.43" fill="#f40010" opacity="0.1" style="isolation:isolate"/><rect x="473.87" width="86" height="26" rx="7.43" fill="#f40010" opacity="0.1" style="isolation:isolate"/><rect x="563.87" y="26" width="86" height="26" rx="7.43" fill="#f40010" opacity="0.1" style="isolation:isolate"/><rect x="653.87" y="52" width="86" height="26" rx="7.43" fill="#f40010" opacity="0.1" style="isolation:isolate"/><rect x="193.87" y="593" width="86" height="26" rx="7.43" fill="#f40010" opacity="0.1" style="isolation:isolate"/><rect x="283.87" y="619" width="86" height="26" rx="7.43" fill="#f40010" opacity="0.1" style="isolation:isolate"/><rect x="373.87" y="645" width="86" height="26" rx="7.43" fill="#f40010" opacity="0.1" style="isolation:isolate"/><rect x="193.87" y="554" width="86" height="26" rx="7.43" fill="#f40010" opacity="0.1" style="isolation:isolate"/><rect x="283.87" y="580" width="86" height="26" rx="7.43" fill="#f40010" opacity="0.1" style="isolation:isolate"/><rect x="373.87" y="606" width="86" height="26" rx="7.43" fill="#f40010" opacity="0.1" style="isolation:isolate"/><rect x="473.87" y="593" width="86" height="26" rx="7.43" fill="#f40010" opacity="0.1" style="isolation:isolate"/><rect x="563.87" y="619" width="86" height="26" rx="7.43" fill="#f40010" opacity="0.1" style="isolation:isolate"/><rect x="653.87" y="645" width="86" height="26" rx="7.43" fill="#f40010" opacity="0.1" style="isolation:isolate"/><rect x="473.87" y="554" width="86" height="26" rx="7.43" fill="#f40010" opacity="0.1" style="isolation:isolate"/><rect x="563.87" y="580" width="86" height="26" rx="7.43" fill="#f40010" opacity="0.1" style="isolation:isolate"/><rect x="653.87" y="606" width="86" height="26" rx="7.43" fill="#f40010" opacity="0.1" style="isolation:isolate"/><rect x="193.87" y="502" width="86" height="26" rx="7.43" fill="#f40010" opacity="0.1" style="isolation:isolate"/><rect x="283.87" y="528" width="86" height="26" rx="7.43" fill="#f40010" opacity="0.1" style="isolation:isolate"/><rect x="373.87" y="554" width="86" height="26" rx="7.43" fill="#f40010" opacity="0.1" style="isolation:isolate"/><rect x="193.87" y="463" width="86" height="26" rx="7.43" fill="#f40010" opacity="0.1" style="isolation:isolate"/><rect x="283.87" y="489" width="86" height="26" rx="7.43" fill="#f40010" opacity="0.1" style="isolation:isolate"/><rect x="373.87" y="515" width="86" height="26" rx="7.43" fill="#f40010" opacity="0.1" style="isolation:isolate"/><rect x="473.87" y="502" width="86" height="26" rx="7.43" fill="#f40010" opacity="0.1" style="isolation:isolate"/><rect x="563.87" y="528" width="86" height="26" rx="7.43" fill="#f40010" opacity="0.1" style="isolation:isolate"/><rect x="653.87" y="554" width="86" height="26" rx="7.43" fill="#f40010" opacity="0.1" style="isolation:isolate"/><rect x="473.87" y="463" width="86" height="26" rx="7.43" fill="#f40010" opacity="0.1" style="isolation:isolate"/><rect x="563.87" y="489" width="86" height="26" rx="7.43" fill="#f40010" opacity="0.1" style="isolation:isolate"/><rect x="653.87" y="515" width="86" height="26" rx="7.43" fill="#f40010" opacity="0.1" style="isolation:isolate"/><ellipse cx="482.37" cy="722" rx="438.5" ry="36" fill="#f40010" opacity="0.1" style="isolation:isolate"/><path d="M84.65,186.8c41.35,17.92,65.11,55,65.11,55s-43.29,8-84.65-9.91S0,176.89,0,176.89,43.29,168.88,84.65,186.8Z" fill="#f40010"/><path d="M211.55,118c12.79-21,34.57-31,34.57-31s1,23.94-11.75,44.88-34.58,30.93-34.58,30.93S198.75,138.88,211.55,118Z" fill="#f40010"/><path d="M117.53,140.47c9.15,32.66,34.37,54.16,34.37,54.16s10.39-31.47,1.24-64.14-34.38-54.16-34.38-54.16S108.37,107.8,117.53,140.47Z" fill="#46455b"/><rect x="118.87" y="139" width="729" height="365" rx="7.21" fill="#3f3d56"/><path d="M118.87,482h729v14.79a7.21,7.21,0,0,1-7.21,7.21H126.08a7.21,7.21,0,0,1-7.21-7.21V482Z" opacity="0.1" style="isolation:isolate"/><g id="bbec9c2e-aae7-422a-94f9-deef0ed15093" data-name="b30eccf6-7cfe-48df-9caa-415a128bd568"><path d="M656,700.5c-2.52,1.58-5.4,2.47-8,3.86s-5.13,3.48-5.87,6.36a4,4,0,0,0,.13,2.72,5.31,5.31,0,0,0,2.8,2.22,42.49,42.49,0,0,0,33.61.38,44.57,44.57,0,0,1,5.8-2.3,37.84,37.84,0,0,1,7.43-.76,57.13,57.13,0,0,0,7.81-1,6.8,6.8,0,0,0,3.54-1.47,6.53,6.53,0,0,0,1.59-3.82,31.47,31.47,0,0,0-5-22.28,7.51,7.51,0,0,0-2.18-2.31,8.42,8.42,0,0,0-3.47-.93c-5-.61-10.24-1.73-15.29-1.85-3.62-.08-5.44,1.64-8,4.13C665.6,688.74,662.51,696.43,656,700.5Z" fill="#323444"/><path d="M729.68,699.76c0,4.9.59,10.09,3.56,14A18.47,18.47,0,0,0,738.1,718c6.28,4,14.6,5.47,21.22,2.08a6.33,6.33,0,0,0,2.64-2.22c1-1.74.47-3.91-.09-5.83l-9.58-33.2c-6.19.95-15.29,1.62-20.79,4.76C727.51,685.87,729.68,695.38,729.68,699.76Z" fill="#323444"/><path d="M650.37,495.33c-.58,1.83-2.68,2.68-3.83,4.22-1.35,1.81-1.21,4.32-.72,6.52a17.29,17.29,0,0,0,4.39,8.65,10.35,10.35,0,0,0,9,3.06,7.5,7.5,0,0,0,6.11-6.73,12.88,12.88,0,0,0-.94-4.33L657.56,487a1,1,0,0,0-.48-.67,1,1,0,0,0-.75.13c-1.61.76-4.84,1.56-5.78,3.23S651.05,493.52,650.37,495.33Z" fill="#fbb3b2"/><path d="M647.18,494.34c2.49-.39,4.67-1.85,7-2.81s5.25-1.33,7.21.27c.56.46,1.1,1.09,1.83,1.08a71.15,71.15,0,0,0-4.48-14.24.83.83,0,0,0-1.24-.55l-6.73,1.76c-2.49.65-2.78.45-2.59,2.9C648.23,483.84,648.79,494.34,647.18,494.34Z" fill="#323444"/><path d="M646.44,351.94c-1,1.54-1,3.46-1,5.27,0,8.85.09,17.75,1.4,26.51.31,2.1.7,4.2.9,6.32a72.91,72.91,0,0,1,.14,8.87l-1,38.5c-.12,4.71-.36,9.77-3.27,13.47a6.43,6.43,0,0,0-1.17,4.27c.76,9.66,2.36,19.24,3.95,28.79a17.79,17.79,0,0,1,16.14.77,177.32,177.32,0,0,0,8.29-49c.23-8.19-.12-16.43,1.14-24.52,2.11-13.62,1.25-27.59-.3-41.29-.49-4.34-1.53-8.81-4.31-12.17a18.45,18.45,0,0,0-10-5.76C653.65,351,650.34,352,646.44,351.94Z" fill="#5b5583"/><path d="M646.44,351.94c-1,1.54-1,3.46-1,5.27,0,8.85.09,17.75,1.4,26.51.31,2.1.7,4.2.9,6.32a72.91,72.91,0,0,1,.14,8.87l-1,38.5c-.12,4.71-.36,9.77-3.27,13.47a6.43,6.43,0,0,0-1.17,4.27c.76,9.66,2.36,19.24,3.95,28.79a17.79,17.79,0,0,1,16.14.77,177.32,177.32,0,0,0,8.29-49c.23-8.19-.12-16.43,1.14-24.52,2.11-13.62,1.25-27.59-.3-41.29-.49-4.34-1.53-8.81-4.31-12.17a18.45,18.45,0,0,0-10-5.76C653.65,351,650.34,352,646.44,351.94Z" opacity="0.1" style="isolation:isolate"/><path d="M658.66,463.59a176.54,176.54,0,0,0,10.52,102.24,28,28,0,0,1,2.44,7.56c.55,4.9-1.71,9.61-3,14.35-3,10.78-1.27,22.26.65,33.29q1.2,6.9,2.47,13.79c.83,4.48,1.63,9.35-.45,13.41,1.79,7.46,2.85,14.85,4.64,22.31a4.2,4.2,0,0,1,.17,1.83,5.38,5.38,0,0,1-1.83,2.45,11,11,0,0,0-2.79,10.47c4.57-3.28,10.94-2.13,16.16,0s10.36,5,16,5c-.82-6.62-1.61-13.57.83-19.78,1.42-3.6,3.92-7,3.85-10.85-.07-3.45-2.18-6.53-2.69-9.94a25.09,25.09,0,0,1,.24-6.36c1.34-12.24-.18-24.6-1.7-36.82a22,22,0,0,0-1.68-7c-.71-1.44-1.77-2.82-1.75-4.43,0-1.87,1.51-3.39,2.07-5.17,1-3.28-.84-7.74,1.93-9.77,7.3-5.36,4.5-18.16,4.34-27.21q-.2-11.72-1-23.4a99.52,99.52,0,0,1,5.52,40.34c-.32,4.48-.91,9.19.84,13.33,1.34,3.18,4,5.8,4.72,9.17.45,2.08.13,4.23.23,6.35s.82,4.43,2.65,5.5c.14,9.64,1,20,1.15,29.59a72.47,72.47,0,0,0,1.2,14.7,18.52,18.52,0,0,1,.74,4.74,20,20,0,0,1-1.58,5.83,33.41,33.41,0,0,0,5,30.85c2.36-4.19,7.28-6.41,12.08-6.76s9.54.86,14.19,2.08a27.79,27.79,0,0,1,3.32-16.9,13.85,13.85,0,0,0,1.75-3.76c.54-2.54-.72-5.07-1.4-7.58-1.11-4-.72-8.31-.46-12.49a198,198,0,0,0-1.85-41.92,35.47,35.47,0,0,0-1.91-8c-.36-.92-.8-1.8-1.1-2.73a21.68,21.68,0,0,1-.8-5.12l-1.15-16c-.81-11.21,2.87-22.28,5.44-33.22,1.15-4.9,2.4-9.79,3.17-14.77,1-6.78,1.22-13.71,2.76-20.4,1.38-6,3.87-11.85,4.39-18,.8-9.53-3.16-18.74-7-27.48-1.6-3.6-7.65-3.24-11.54-3.88-27.59-4.53-56.65-4.56-82.67,5.65A20.58,20.58,0,0,0,658.66,463.59Z" fill="#3c354c"/><path d="M678.55,286.1l3.06,11.9a32,32,0,0,1,1.37,8.41,6.25,6.25,0,0,1-.67,3,7.16,7.16,0,0,1-1.9,1.94c-2.09,1.59-3.54,5.3-5.93,6.4,1.23,2.14,2.93.75,5.15,1.82,3.91,1.9,7.49,4.63,11.73,5.57,4,.88,8.2.05,12.17-1,5.63-1.53,11.23-3.64,15.76-7.33s7.11-6.95,7.09-12.78c-5,.59-9.45-4.46-11.66-9a24.25,24.25,0,0,1-1.68-5.39l-2.68-11.79c-2.92.64-5.3,2.73-8.09,3.82s-6.09,1.19-9.19,1.33a99,99,0,0,0-16.36,2.12c-.74.15-1.67.62-1.49,1.34" fill="#fbb3b2"/><path d="M678.55,286.1l3.06,11.9a32,32,0,0,1,1.37,8.41,6.25,6.25,0,0,1-.67,3,7.16,7.16,0,0,1-1.9,1.94c-2.09,1.59-3.54,5.3-5.93,6.4,1.23,2.14,2.93.75,5.15,1.82,3.91,1.9,7.49,4.63,11.73,5.57,4,.88,8.2.05,12.17-1,5.63-1.53,11.23-3.64,15.76-7.33s7.11-6.95,7.09-12.78c-5,.59-9.45-4.46-11.66-9a24.25,24.25,0,0,1-1.68-5.39l-2.68-11.79c-2.92.64-5.3,2.73-8.09,3.82s-6.09,1.19-9.19,1.33a99,99,0,0,0-16.36,2.12c-.74.15-1.67.62-1.49,1.34" opacity="0.1" style="isolation:isolate"/><circle cx="691.69" cy="266.18" r="26.48" fill="#fbb3b2"/><path d="M699,309.83a24.07,24.07,0,0,1,6-8c3.73-3.27,8.83-5.92,9.71-10.8l8.08,9.41a4.36,4.36,0,0,1,1,1.54,3.86,3.86,0,0,1-.76,3.11c-2,3.19-5.15,5.47-8.13,7.78a247.14,247.14,0,0,0-19.59,17.28,2,2,0,0,1-1,.64,1.9,1.9,0,0,1-1.09-.31,45.44,45.44,0,0,1-14-11.36c-.29-.35-.65-.75-1.12-.72a1.47,1.47,0,0,0-.75.39c-2.69,2.2-5.63,4.83-9.08,4.49,4.47-3.21,7-8.57,7.94-14a26.87,26.87,0,0,1,1.14-5.47,5.7,5.7,0,0,1,3.9-3.7c-2.18,3.33-.69,8.05,2.24,10.74a22.07,22.07,0,0,0,9.92,4.81C696.77,316.3,697.77,312.45,699,309.83Z" fill="#323444"/><path d="M664.53,466.31c3.77.93,7.34,2.51,11,3.68a52.49,52.49,0,0,0,20.65,2.17,11.17,11.17,0,0,0,6-1.91c.47-.38.9-.83,1.4-1.18a9.74,9.74,0,0,1,2.69-1.11c9.17-2.87,16.85-9.06,24.3-15.12.24-.2.51-.45.49-.77a1,1,0,0,0-.3-.57l-3.92-4.5c-10.28,1.75-20.81,1.09-31.24.83a44.39,44.39,0,0,0-6.42.17c-2.06.24-4.09.76-6.12,1.2-7.71,1.68-15.59,2.32-23.4,3.42a3.52,3.52,0,0,0-1.55.48,3.47,3.47,0,0,0-.83.92l-2.74,3.85a12.1,12.1,0,0,0-2.3,4.41c-.64,3,.7,4,3.25,3.61A23.73,23.73,0,0,1,664.53,466.31Z" fill="#323444"/><path d="M695.18,325.57a49,49,0,0,0-10.31-8.05,14.59,14.59,0,0,0-5-2,6.22,6.22,0,0,0-5.12,1.26c-.89.79-1.45,1.89-2.31,2.72a11.44,11.44,0,0,1-3.66,2.07,64.92,64.92,0,0,0-12.86,7.33,29.2,29.2,0,0,0-5.83,5.38c-4.53,5.8-5.21,13.69-5.09,21.05.09,5.12,5,8.92,8.38,12.75a93.84,93.84,0,0,1,8.58,12c1.82,2.88,3.72,6,3.49,9.43-.19,2.81-1.83,5.45-1.57,8.25.09,1,.41,1.92.5,2.89.18,2-.61,4-.81,6-.27,2.83.65,5.64.7,8.49a26.93,26.93,0,0,1-.74,5.79c-1.92,9.14-4.33,18.33-3.84,27.66l-5.54,1a4.67,4.67,0,0,1-1.07,7.47c8.65,2.89,18,1.43,27.17,1.42,7.59,0,15.15,1,22.73.86s15.4-1.51,21.65-5.8c1.7-1.16,3.26-2.52,5-3.53a24.9,24.9,0,0,1,7.65-2.5,76.24,76.24,0,0,1,15-1.34c2.46,0,5.14.1,7.1-1.38,2.16-1.64,2.71-4.61,3-7.3.29-2.84.47-5.69.52-8.54a36.87,36.87,0,0,0-.35-6.64,42.92,42.92,0,0,0-1.17-4.76l-3.77-13.28c-1.56-5.48.61-11.49,1.07-17.17.11-1.34.13-2.9-.9-3.76-.37-.31-.88-.52-1-1a1.71,1.71,0,0,1,.24-1.34c2-4,5-7.53,7.74-11.14a229.18,229.18,0,0,0,12.8-19.67,63.31,63.31,0,0,0-16.94-37.88,18.33,18.33,0,0,0-7.09-5.23,20.78,20.78,0,0,0-5.64-.91c-7.84-.53-16-1-22.83-4.94a4.44,4.44,0,0,0-1.63-.69c-1.51-.17-2.61,1.32-3.59,2.5-2.52,3-6.23,4.72-9.49,6.93C704.32,314.1,699.57,319.78,695.18,325.57Z" fill="#5b5583"/><path d="M778.29,354.28c1.56,4.94,1.41,10.22,1.92,15.37a59.8,59.8,0,0,0,1.63,9.21,14.75,14.75,0,0,0,1.9,4.69c.9,1.32,2.19,2.39,2.76,3.88a9.4,9.4,0,0,1,.41,3.12l.12,6.9a24.76,24.76,0,0,1-1.63,10.74l-4.31,13.11c-2.33,7.1-4.72,14.31-8.92,20.49a5.87,5.87,0,0,1-2.57,2.41,12.69,12.69,0,0,1-2.59.4,6.67,6.67,0,0,0-5.49,6.47,15.19,15.19,0,0,0-3.69-3.77l-8.77-7c-3-2.44-6.13-4.92-9.77-6.33a26.49,26.49,0,0,0,18.42-22.26,10.07,10.07,0,0,1,1-4.38c.73-1.18,2.08-2.08,2.18-3.47.12-1.75-1.86-3.07-1.86-4.82,0-1.16.86-2.12,1.24-3.21a8,8,0,0,0,0-4.11L759.06,385a5.19,5.19,0,0,0-.6-1.92,11.79,11.79,0,0,0-1.5-1.58c-2.08-2.33-1.16-6,0-8.87a84.85,84.85,0,0,1,10.22-17.93,60.06,60.06,0,0,0,4.07-5.82c1.06-1.84,1.3-4.39,2.42-6C775.11,346.66,777.06,350.39,778.29,354.28Z" fill="#5b5583"/><path d="M739,434.38a4.82,4.82,0,0,0-1.14,1.2,10.11,10.11,0,0,1-4.53,3.23c1,.72,1.91,1.43,2.85,2.16a125.13,125.13,0,0,1,19,18.17c.63-2.25,4.4-2.09,5.32-4.24a4,4,0,0,0,.2-1.92,58.22,58.22,0,0,0-1.44-10,11.35,11.35,0,0,0-2-4.68c-1.4-1.69-3.58-2.5-5.66-3.2C748.43,434,742.18,432.45,739,434.38Z" fill="#323444"/><path d="M726.48,442.24c-3,2.22-5.63,5-9,6.52-2.38,1.08-5.09,1.55-7.17,3.16,1.13,2.49,4.07,3.78,6.8,3.68a16.21,16.21,0,0,0,7.61-2.79c1.79-1.1,3.89-2.38,5.84-1.61.3,1.52-1,2.95-1,4.49s1.28,2.66,2.54,3.47c6,3.87,13.72,3.55,20.87,3.1a1.39,1.39,0,0,0,1.58-1.66c.09-1.58.13-3.15.14-4.73a6.79,6.79,0,0,0-2.9-6.68,81.41,81.41,0,0,0-12.5-8.85C734.89,437.79,730.43,439.3,726.48,442.24Z" fill="#fbb3b2"/><path d="M701,255.11c-4.44.53-7.67,4-7.22,7.77s4.41,6.37,8.85,5.83,7.67-4,7.22-7.76S705.43,254.58,701,255.11Zm1.51,12.56c-3.76.45-7.11-1.76-7.5-4.94s2.36-6.12,6.11-6.57,7.11,1.76,7.5,4.94-2.36,6.12-6.11,6.57Z" fill="#3c354c"/><path d="M679.35,257.71c-4.44.53-7.67,4-7.22,7.76s4.41,6.37,8.85,5.84,7.67-4,7.22-7.77S683.79,257.18,679.35,257.71Zm1.51,12.55c-3.76.45-7.11-1.76-7.49-4.93s2.35-6.12,6.11-6.58,7.11,1.76,7.49,4.94-2.36,6.12-6.11,6.57Z" fill="#3c354c"/><polygon points="663.28 259.64 672.93 261.7 671.98 264.24 662.88 261.57 663.28 259.64" fill="#3c354c"/><polygon points="717.07 253.18 708.17 257.47 709.7 259.71 717.91 254.96 717.07 253.18" fill="#3c354c"/><polygon points="687.31 261.06 694.08 260.25 693.73 261.93 687.92 262.32 687.31 261.06" fill="#3c354c"/><path d="M674.18,258.79a10.66,10.66,0,0,0,1-4.37,9.28,9.28,0,0,1,.46-2.66,7.44,7.44,0,0,1,2.18-2.79c3.12-2.64,7.59-4,12-4.19a27.73,27.73,0,0,1,13.88,3,10.71,10.71,0,0,1,3.45,2.56c1.4,1.71,1.7,3.92,3.11,5.61a8.15,8.15,0,0,0,7.66,2.4c.49-1.74-.15-3.58.1-5.36a25.81,25.81,0,0,1,1.59-4.44c1.55-4.57-.71-9.87-5.37-12.6-1.63-1-3.56-1.65-4.78-3s-1.51-2.75-2.35-4.1c-2.23-3.57-8-5.24-12.39-3.59-1.38.52-2.6,1.31-4,1.87-2.6,1.07-5.56,1.26-8.42,1.62a25.64,25.64,0,0,0-8.16,2.14c-2.47,1.22-4.54,3.18-5.11,5.52-.27,1.08-.21,2.2-.48,3.27-1.38,5.43-10.29,8.07-10.79,13.61-.18,2,.91,3.92,2.27,5.55.94,1.11,3.19,4.08,4.78,4.51s2.8-1.08,4.32-1.6C671.53,261,673,260.84,674.18,258.79Z" fill="#cbceda"/></g><path d="M787,611c0,50.24,31.52,90.9,70.47,90.9" fill="#46455b"/><path d="M857.46,701.91c0-50.81,35.18-91.92,78.65-91.92" fill="#f40010"/><path d="M812.53,615.56c0,47.73,20.1,86.35,44.93,86.35" fill="#f40010"/><path d="M857.46,701.91c0-64.92,40.66-117.46,90.9-117.46" fill="#46455b"/><ellipse cx="854.41" cy="716.31" rx="17.52" ry="2.96" fill="#f40010" opacity="0.1" style="isolation:isolate"/><path d="M842.64,702.55s10-.31,13-2.45,15.37-4.71,16.12-1.27,15,17.11,3.73,17.2-26.22-1.76-29.22-3.59S842.64,702.55,842.64,702.55Z" fill="#a8a8a8"/><path d="M875.7,714.83c-11.28.09-26.21-1.76-29.22-3.59-2.29-1.39-3.2-6.4-3.51-8.7h-.33s.63,8.06,3.64,9.89,17.94,3.68,29.22,3.59c3.26,0,4.38-1.19,4.32-2.9C879.37,714.16,878.18,714.81,875.7,714.83Z" opacity="0.2" style="isolation:isolate"/><path d="M22.49,640.36c0,40,25.07,72.32,56.06,72.32" fill="#46455b"/><path d="M78.55,712.68c0-40.42,28-73.13,62.57-73.13" fill="#f40010"/><path d="M42.8,644c0,38,16,68.7,35.75,68.7" fill="#f40010"/><path d="M78.55,712.68c0-51.65,32.35-93.45,72.32-93.45" fill="#46455b"/><ellipse cx="76.12" cy="724.14" rx="13.94" ry="2.36" fill="#f40010" opacity="0.1" style="isolation:isolate"/><path d="M66.76,713.19s7.95-.25,10.34-2,12.24-3.75,12.83-1,11.95,13.61,3,13.68-20.86-1.4-23.25-2.85S66.76,713.19,66.76,713.19Z" fill="#a8a8a8"/><path d="M93.06,723c-9,.07-20.86-1.4-23.25-2.86C68,719,67.27,715.05,67,713.22h-.26s.5,6.41,2.89,7.87S83.93,724,92.9,723.94c2.59,0,3.49-.94,3.44-2.31C96,722.43,95,722.94,93.06,723Z" opacity="0.2" style="isolation:isolate"/><path d="M496.54,347.56a20.07,20.07,0,0,0-5.26-2.09V292.31a20.31,20.31,0,0,0,5.31-2.11,20,20,0,1,0-24.46-31l-46-26.57a19.94,19.94,0,1,0-38.23,0l-46,26.58a19.63,19.63,0,0,0-4.5-3.56A20,20,0,0,0,317.4,290.2a20.24,20.24,0,0,0,5.32,2.11v53.16a19.8,19.8,0,0,0-5.26,2.09,20,20,0,1,0,24.4,31.06l46,26.56a19.94,19.94,0,1,0,38.06-.64l45.74-26.41a20,20,0,1,0,24.87-30.57ZM407,277.88a41.18,41.18,0,0,1,9,81.36c.08-1.24.2-2.48.36-3.71a84.15,84.15,0,0,1,2.92-13.39c1.1-3.69,2.38-7.34,3.74-10.95.2-.55.42-1.1.62-1.65a5.65,5.65,0,0,0,2.1,1.23,13.24,13.24,0,0,0,1.86.35,10.42,10.42,0,0,1,1.74.57c2.36.89,4.92.45,7.31-.08,2.17-.49,4.48-1.38,5.61-3.43a7.45,7.45,0,0,0,.69-3.36c0-.88.08-2.34,1.09-2.72a1,1,0,0,0,.24-1.79c-3.08-1.84-7.62-.1-10.24,1.84a19.93,19.93,0,0,0-3.67,4c-.82,1-2.89,2-4.2,1.36a2,2,0,0,1-1-1.39,4.55,4.55,0,0,1,.54-2.59,30.43,30.43,0,0,0,.81-3.26,36.37,36.37,0,0,0,.69-7.58c-.61-.09-2.57-.37-3.09-.37a.07.07,0,0,1,0,.05c-.43,1.39-.43,2.93-1.1,4.24A3.17,3.17,0,0,1,421.9,318c-1.23.66-6.72.82-7.93.19-1.79-.91-3.1-5.69-3.11-5.83h-3.52c0,.14-1.32,4.92-3.11,5.83-1.21.63-6.7.47-7.93-.19a3.17,3.17,0,0,1-1.17-1.39c-.67-1.31-.67-2.85-1.1-4.24,0,0,0,0,0-.05-.44,0-2.89.31-2.89.31a44.09,44.09,0,0,0-.44,8.2c0,.89.54,2.66.24,3.47-.21.59-1.39,1-1.95,1.23a5.09,5.09,0,0,1-5-1,13.77,13.77,0,0,0-4.67-3.29,9.73,9.73,0,0,0-10.23,2.49,1,1,0,0,0,.14,1.46.86.86,0,0,0,.92.23c.89-.28,1.57.7,2.09,1.28l2,2.22c1.07,1.17,2.1,2.63,3.56,3.32a9.85,9.85,0,0,0,4.69.63,5.3,5.3,0,0,0,2.64-.72,13.71,13.71,0,0,0,1.79-1,17.11,17.11,0,0,0,2.38-1.56c.45-.36,1.19-1.94,1.86-1.76s.84,2.06.93,2.55a120.23,120.23,0,0,0,3.82,16.7,54.78,54.78,0,0,0,5.63,12.86,41.19,41.19,0,0,1,5.45-82ZM333,345.7l-.78-.21V292.26a19.91,19.91,0,0,0,14.54-24.11c-.06-.24-.13-.48-.2-.72l46.12-26.63c.18.19.37.38.56.56Zm88.77,51.69a20,20,0,0,0-28.2-1.3c-.31.29-.62.58-.91.89l-46.06-26.59c.08-.25.15-.51.21-.77H467.2c.12.44.23.88.37,1.31Zm60.05-51.9-.77.2L420.78,241.35c.19-.17.36-.34.54-.53l46.13,26.64a19.89,19.89,0,0,0,13.65,24.61l.7.19Z" fill="#f40010"/><path d="M391.14,306.47a11.2,11.2,0,0,0,1.3.07c-.3,1-.81,3.24-.81,3.24s5.62-.23,7.64-.25q4.26,0,8.52.16c.58,0,2.32,0,2.61,0,2.84-.14,5.68-.2,8.53-.16,2.2,0,8.19.25,8.19.25s-.16-1.59-.26-2.26a2.27,2.27,0,0,0,1.78-.58c.67-.77.47-2.38.35-3.3a9.65,9.65,0,0,0-6.39-8,7.38,7.38,0,0,0,.64-2.59,3.7,3.7,0,0,0-.43-1.84c-1.11-1.93-3.7-2.88-5.49-3.27a6.59,6.59,0,0,0-.51-3.34c-.59-1.39-2-3.5-3.54-3.85s-3,1.73-3.91,3c-.06-.12-.88-1.91-1.56-2.28a2.62,2.62,0,0,0-2,0c-1.17.36-2.52,1.55-1.55,2.83a19,19,0,0,0,2,1.69,20,20,0,0,1-3.65,1c-.33.09-.66.19-1,.31a7.53,7.53,0,0,0-3.22,2.16,4.45,4.45,0,0,0-.84,4.55,19.38,19.38,0,0,0-4.74,4.86c-1.38,2-3.07,4.35-2.57,6.92A1,1,0,0,0,391.14,306.47Z" fill="#f40010"/><g clip-path="url(#e646809a-148c-440d-b02b-9da26865c829)"><g opacity="0.1"><path d="M496.54,347.56a20.07,20.07,0,0,0-5.26-2.09V292.31a20.31,20.31,0,0,0,5.31-2.11,20,20,0,1,0-24.46-31l-46-26.57a19.94,19.94,0,1,0-38.23,0l-46,26.58a19.63,19.63,0,0,0-4.5-3.56A20,20,0,0,0,317.4,290.2a20.24,20.24,0,0,0,5.32,2.11v53.16a19.8,19.8,0,0,0-5.26,2.09,20,20,0,1,0,24.4,31.06l46,26.56a19.94,19.94,0,1,0,38.06-.64l45.74-26.41a20,20,0,1,0,24.87-30.57ZM407,277.88a41.18,41.18,0,0,1,9,81.36c.08-1.24.2-2.48.36-3.71a84.15,84.15,0,0,1,2.92-13.39c1.1-3.69,2.38-7.34,3.74-10.95.2-.55.42-1.1.62-1.65a5.65,5.65,0,0,0,2.1,1.23,13.24,13.24,0,0,0,1.86.35,10.42,10.42,0,0,1,1.74.57c2.36.89,4.92.45,7.31-.08,2.17-.49,4.48-1.38,5.61-3.43a7.45,7.45,0,0,0,.69-3.36c0-.88.08-2.34,1.09-2.72a1,1,0,0,0,.24-1.79c-3.08-1.84-7.62-.1-10.24,1.84a19.93,19.93,0,0,0-3.67,4c-.82,1-2.89,2-4.2,1.36a2,2,0,0,1-1-1.39,4.55,4.55,0,0,1,.54-2.59,30.43,30.43,0,0,0,.81-3.26,36.37,36.37,0,0,0,.69-7.58c-.61-.09-2.57-.37-3.09-.37a.07.07,0,0,1,0,.05c-.43,1.39-.43,2.93-1.1,4.24A3.17,3.17,0,0,1,421.9,318c-1.23.66-6.72.82-7.93.19-1.79-.91-3.1-5.69-3.11-5.83h-3.52c0,.14-1.32,4.92-3.11,5.83-1.21.63-6.7.47-7.93-.19a3.17,3.17,0,0,1-1.17-1.39c-.67-1.31-.67-2.85-1.1-4.24,0,0,0,0,0-.05-.44,0-2.89.31-2.89.31a44.09,44.09,0,0,0-.44,8.2c0,.89.54,2.66.24,3.47-.21.59-1.39,1-1.95,1.23a5.09,5.09,0,0,1-5-1,13.77,13.77,0,0,0-4.67-3.29,9.73,9.73,0,0,0-10.23,2.49,1,1,0,0,0,.14,1.46.86.86,0,0,0,.92.23c.89-.28,1.57.7,2.09,1.28l2,2.22c1.07,1.17,2.1,2.63,3.56,3.32a9.85,9.85,0,0,0,4.69.63,5.3,5.3,0,0,0,2.64-.72,13.71,13.71,0,0,0,1.79-1,17.11,17.11,0,0,0,2.38-1.56c.45-.36,1.19-1.94,1.86-1.76s.84,2.06.93,2.55a120.23,120.23,0,0,0,3.82,16.7,54.78,54.78,0,0,0,5.63,12.86,41.19,41.19,0,0,1,5.45-82ZM333,345.7l-.78-.21V292.26a19.91,19.91,0,0,0,14.54-24.11c-.06-.24-.13-.48-.2-.72l46.12-26.63c.18.19.37.38.56.56Zm88.77,51.69a20,20,0,0,0-28.2-1.3c-.31.29-.62.58-.91.89l-46.06-26.59c.08-.25.15-.51.21-.77H467.2c.12.44.23.88.37,1.31Zm60.05-51.9-.77.2L420.78,241.35c.19-.17.36-.34.54-.53l46.13,26.64a19.89,19.89,0,0,0,13.65,24.61l.7.19Z"/><path d="M391.14,306.47a11.2,11.2,0,0,0,1.3.07c-.3,1-.81,3.24-.81,3.24s5.62-.23,7.64-.25q4.26,0,8.52.16c.58,0,2.32,0,2.61,0,2.84-.14,5.68-.2,8.53-.16,2.2,0,8.19.25,8.19.25s-.16-1.59-.26-2.26a2.27,2.27,0,0,0,1.78-.58c.67-.77.47-2.38.35-3.3a9.65,9.65,0,0,0-6.39-8,7.38,7.38,0,0,0,.64-2.59,3.7,3.7,0,0,0-.43-1.84c-1.11-1.93-3.7-2.88-5.49-3.27a6.59,6.59,0,0,0-.51-3.34c-.59-1.39-2-3.5-3.54-3.85s-3,1.73-3.91,3c-.06-.12-.88-1.91-1.56-2.28a2.62,2.62,0,0,0-2,0c-1.17.36-2.52,1.55-1.55,2.83a19,19,0,0,0,2,1.69,20,20,0,0,1-3.65,1c-.33.09-.66.19-1,.31a7.53,7.53,0,0,0-3.22,2.16,4.45,4.45,0,0,0-.84,4.55,19.38,19.38,0,0,0-4.74,4.86c-1.38,2-3.07,4.35-2.57,6.92A1,1,0,0,0,391.14,306.47Z"/></g></g></svg>