<svg width="3000" height="3000" viewBox="0 0 3000 3000" fill="#F4EBCB" xmlns="http://www.w3.org/2000/svg">
  <path
    d="M874.554 627.916C875.819 627.916 876.916 626.904 876.916 625.554L877 621L877.084 625.554C877.084 626.819 878.096 627.916 879.446 627.916L884 628L879.446 628.084C878.181 628.084 877.084 629.096 877.084 630.446L877 635L876.916 630.446C876.916 629.181 875.904 628.084 874.554 628.084L870 628L874.554 627.916Z" />
  <path
    d="M541.554 2344.92C542.819 2344.92 543.916 2343.9 543.916 2342.55L544 2338L544.084 2342.55C544.084 2343.82 545.096 2344.92 546.446 2344.92L551 2345L546.446 2345.08C545.181 2345.08 544.084 2346.1 544.084 2347.45L544 2352L543.916 2347.45C543.916 2346.18 542.904 2345.08 541.554 2345.08L537 2345L541.554 2344.92Z" />
  <path
    d="M2458.55 2609.92C2459.82 2609.92 2460.92 2608.9 2460.92 2607.55L2461 2603L2461.08 2607.55C2461.08 2608.82 2462.1 2609.92 2463.45 2609.92L2468 2610L2463.45 2610.08C2462.18 2610.08 2461.08 2611.1 2461.08 2612.45L2461 2617L2460.92 2612.45C2460.92 2611.18 2459.9 2610.08 2458.55 2610.08L2454 2610L2458.55 2609.92Z" />
  <path
    d="M1939.55 478.916C1940.82 478.916 1941.92 477.904 1941.92 476.554L1942 472L1942.08 476.554C1942.08 477.819 1943.1 478.916 1944.45 478.916L1949 479L1944.45 479.084C1943.18 479.084 1942.08 480.096 1942.08 481.446L1942 486L1941.92 481.446C1941.92 480.181 1940.9 479.084 1939.55 479.084L1935 479L1939.55 478.916Z" />
  <path
    d="M2546.55 1102.92C2547.82 1102.92 2548.92 1101.9 2548.92 1100.55L2549 1096L2549.08 1100.55C2549.08 1101.82 2550.1 1102.92 2551.45 1102.92L2556 1103L2551.45 1103.08C2550.18 1103.08 2549.08 1104.1 2549.08 1105.45L2549 1110L2548.92 1105.45C2548.92 1104.18 2547.9 1103.08 2546.55 1103.08L2542 1103L2546.55 1102.92Z" />
  <path
    d="M189.904 92.9277C190.988 92.9277 191.928 92.0603 191.928 90.9036L192 87L192.072 90.9036C192.072 91.988 192.94 92.9277 194.096 92.9277L198 93L194.096 93.0723C193.012 93.0723 192.072 93.9398 192.072 95.0964L192 99L191.928 95.0964C191.928 94.0121 191.06 93.0723 189.904 93.0723L186 93L189.904 92.9277Z" />
  <path
    d="M81.6024 1113.95C82.3253 1113.95 82.9518 1113.37 82.9518 1112.6L83 1110L83.0482 1112.6C83.0482 1113.33 83.6265 1113.95 84.3976 1113.95L87 1114L84.3976 1114.05C83.6747 1114.05 83.0482 1114.63 83.0482 1115.4L83 1118L82.9518 1115.4C82.9518 1114.67 82.3735 1114.05 81.6024 1114.05L79 1114L81.6024 1113.95Z" />
  <path
    d="M812.602 577.952C813.325 577.952 813.952 577.374 813.952 576.602L814 574L814.048 576.602C814.048 577.325 814.627 577.952 815.398 577.952L818 578L815.398 578.048C814.675 578.048 814.048 578.627 814.048 579.398L814 582L813.952 579.398C813.952 578.675 813.374 578.048 812.602 578.048L810 578L812.602 577.952Z" />
  <path
    d="M1126.6 147.952C1127.33 147.952 1127.95 147.374 1127.95 146.602L1128 144L1128.05 146.602C1128.05 147.325 1128.63 147.952 1129.4 147.952L1132 148L1129.4 148.048C1128.67 148.048 1128.05 148.627 1128.05 149.398L1128 152L1127.95 149.398C1127.95 148.675 1127.37 148.048 1126.6 148.048L1124 148L1126.6 147.952Z" />
  <path
    d="M2847.6 274.952C2848.33 274.952 2848.95 274.374 2848.95 273.602L2849 271L2849.05 273.602C2849.05 274.325 2849.63 274.952 2850.4 274.952L2853 275L2850.4 275.048C2849.67 275.048 2849.05 275.627 2849.05 276.398L2849 279L2848.95 276.398C2848.95 275.675 2848.37 275.048 2847.6 275.048L2845 275L2847.6 274.952Z" />
  <path
    d="M1778.6 728.952C1779.33 728.952 1779.95 728.374 1779.95 727.602L1780 725L1780.05 727.602C1780.05 728.325 1780.63 728.952 1781.4 728.952L1784 729L1781.4 729.048C1780.67 729.048 1780.05 729.627 1780.05 730.398L1780 733L1779.95 730.398C1779.95 729.675 1779.37 729.048 1778.6 729.048L1776 729L1778.6 728.952Z" />
  <path
    d="M2062.6 1535.95C2063.33 1535.95 2063.95 1535.37 2063.95 1534.6L2064 1532L2064.05 1534.6C2064.05 1535.33 2064.63 1535.95 2065.4 1535.95L2068 1536L2065.4 1536.05C2064.67 1536.05 2064.05 1536.63 2064.05 1537.4L2064 1540L2063.95 1537.4C2063.95 1536.67 2063.37 1536.05 2062.6 1536.05L2060 1536L2062.6 1535.95Z" />
  <path
    d="M2268.6 2057.95C2269.33 2057.95 2269.95 2057.37 2269.95 2056.6L2270 2054L2270.05 2056.6C2270.05 2057.33 2270.63 2057.95 2271.4 2057.95L2274 2058L2271.4 2058.05C2270.67 2058.05 2270.05 2058.63 2270.05 2059.4L2270 2062L2269.95 2059.4C2269.95 2058.67 2269.37 2058.05 2268.6 2058.05L2266 2058L2268.6 2057.95Z" />
  <path
    d="M1334.6 2566.95C1335.33 2566.95 1335.95 2566.37 1335.95 2565.6L1336 2563L1336.05 2565.6C1336.05 2566.33 1336.63 2566.95 1337.4 2566.95L1340 2567L1337.4 2567.05C1336.67 2567.05 1336.05 2567.63 1336.05 2568.4L1336 2571L1335.95 2568.4C1335.95 2567.67 1335.37 2567.05 1334.6 2567.05L1332 2567L1334.6 2566.95Z" />
  <path
    d="M1304.6 2620.95C1305.33 2620.95 1305.95 2620.37 1305.95 2619.6L1306 2617L1306.05 2619.6C1306.05 2620.33 1306.63 2620.95 1307.4 2620.95L1310 2621L1307.4 2621.05C1306.67 2621.05 1306.05 2621.63 1306.05 2622.4L1306 2625L1305.95 2622.4C1305.95 2621.67 1305.37 2621.05 1304.6 2621.05L1302 2621L1304.6 2620.95Z" />
  <path
    d="M1523.6 1715.95C1524.33 1715.95 1524.95 1715.37 1524.95 1714.6L1525 1712L1525.05 1714.6C1525.05 1715.33 1525.63 1715.95 1526.4 1715.95L1529 1716L1526.4 1716.05C1525.67 1716.05 1525.05 1716.63 1525.05 1717.4L1525 1720L1524.95 1717.4C1524.95 1716.67 1524.37 1716.05 1523.6 1716.05L1521 1716L1523.6 1715.95Z" />
  <path
    d="M1476.6 1834.95C1477.33 1834.95 1477.95 1834.37 1477.95 1833.6L1478 1831L1478.05 1833.6C1478.05 1834.33 1478.63 1834.95 1479.4 1834.95L1482 1835L1479.4 1835.05C1478.67 1835.05 1478.05 1835.63 1478.05 1836.4L1478 1839L1477.95 1836.4C1477.95 1835.67 1477.37 1835.05 1476.6 1835.05L1474 1835L1476.6 1834.95Z" />
  <path
    d="M376.904 939.928C377.988 939.928 378.928 939.06 378.928 937.904L379 934L379.072 937.904C379.072 938.988 379.94 939.928 381.096 939.928L385 940L381.096 940.072C380.012 940.072 379.072 940.94 379.072 942.096L379 946L378.928 942.096C378.928 941.012 378.06 940.072 376.904 940.072L373 940L376.904 939.928Z" />
  <path
    d="M1047.9 1316.93C1048.99 1316.93 1049.93 1316.06 1049.93 1314.9L1050 1311L1050.07 1314.9C1050.07 1315.99 1050.94 1316.93 1052.1 1316.93L1056 1317L1052.1 1317.07C1051.01 1317.07 1050.07 1317.94 1050.07 1319.1L1050 1323L1049.93 1319.1C1049.93 1318.01 1049.06 1317.07 1047.9 1317.07L1044 1317L1047.9 1316.93Z" />
  <path
    d="M1433.9 1787.93C1434.99 1787.93 1435.93 1787.06 1435.93 1785.9L1436 1782L1436.07 1785.9C1436.07 1786.99 1436.94 1787.93 1438.1 1787.93L1442 1788L1438.1 1788.07C1437.01 1788.07 1436.07 1788.94 1436.07 1790.1L1436 1794L1435.93 1790.1C1435.93 1789.01 1435.06 1788.07 1433.9 1788.07L1430 1788L1433.9 1787.93Z" />
</svg>
